<?xml version="1.0" standalone="no"?>

<svg viewBox="0 0 20 20" style="background-color:#ffffff00" version="1.1" xmlns="http://www.w3.org/2000/svg" xmlns:xlink="http://www.w3.org/1999/xlink" xml:space="preserve" x="0px" y="0px" width="100%" height="100%">
	<g id="Layer%201">
		<path id="planning" d="M 15.1 16.5 L 4.9 16.5 C 4.4 16.5 4 16.1 4 15.6 L 4 5.7 C 4 5.2 4.4 4.8 4.9 4.8 L 5.8 4.8 L 5.8 5.3 C 5.8 6 6.5 6.6 7.2 6.6 C 8 6.6 8.6 6 8.6 5.3 L 8.6 4.8 L 11.4 4.8 L 11.4 5.3 C 11.4 6 12 6.6 12.8 6.6 C 13.5 6.6 14.2 6 14.2 5.3 L 14.2 4.8 L 15.1 4.8 C 15.6 4.8 16 5.2 16 5.7 L 16 15.6 C 16 16.1 15.6 16.5 15.1 16.5 ZM 15.1 8 L 4.9 8 L 4.9 15.6 L 15.1 15.6 L 15.1 8 ZM 7.2 10.2 L 5.8 10.2 L 5.8 8.9 L 7.2 8.9 L 7.2 10.2 ZM 7.2 12.5 L 5.8 12.5 L 5.8 11.1 L 7.2 11.1 L 7.2 12.5 ZM 7.2 14.7 L 5.8 14.7 L 5.8 13.4 L 7.2 13.4 L 7.2 14.7 ZM 9.5 10.2 L 8.2 10.2 L 8.2 8.9 L 9.5 8.9 L 9.5 10.2 ZM 9.5 12.5 L 8.2 12.5 L 8.2 11.1 L 9.5 11.1 L 9.5 12.5 ZM 9.5 14.7 L 8.2 14.7 L 8.2 13.4 L 9.5 13.4 L 9.5 14.7 ZM 11.8 10.2 L 10.5 10.2 L 10.5 8.9 L 11.8 8.9 L 11.8 10.2 ZM 11.8 12.5 L 10.5 12.5 L 10.5 11.1 L 11.8 11.1 L 11.8 12.5 ZM 11.8 14.7 L 10.5 14.7 L 10.5 13.4 L 11.8 13.4 L 11.8 14.7 ZM 14.2 10.2 L 12.8 10.2 L 12.8 8.9 L 14.2 8.9 L 14.2 10.2 ZM 14.2 12.5 L 12.8 12.5 L 12.8 11.1 L 14.2 11.1 L 14.2 12.5 ZM 14.2 14.7 L 12.8 14.7 L 12.8 13.4 L 14.2 13.4 L 14.2 14.7 ZM 12.8 6.2 C 12.3 6.2 11.8 5.8 11.8 5.3 L 11.8 4.4 C 11.8 3.9 12.3 3.5 12.8 3.5 C 13.3 3.5 13.7 3.9 13.7 4.4 L 13.7 5.3 C 13.7 5.8 13.3 6.2 12.8 6.2 ZM 7.2 6.2 C 6.7 6.2 6.3 5.8 6.3 5.3 L 6.3 4.4 C 6.3 3.9 6.7 3.5 7.2 3.5 C 7.7 3.5 8.1 3.9 8.1 4.4 L 8.1 5.3 C 8.1 5.8 7.7 6.2 7.2 6.2 Z" fill="#a89e7f"/>
	</g>
</svg>