<?xml version="1.0" standalone="no"?>

<svg viewBox="0 0 20 18" style="background-color:#ffffff00" version="1.1" xmlns="http://www.w3.org/2000/svg" xmlns:xlink="http://www.w3.org/1999/xlink" xml:space="preserve" x="0px" y="0px" width="100%" height="100%">
	<g>
		<g>
			<rect x="1" y="5.8" width="2.7" height="11.9" fill="#ffffff"/>
		</g>
		<path id="Forma%201" d="M 19.6 15.4 L 16.1 11.9 C 16.7 11 17.1 9.8 17.1 8.6 C 17.1 5 14.2 2.1 10.7 2.1 C 7.2 2.1 4.4 5 4.4 8.6 C 4.4 12.1 7.2 15 10.7 15 C 12 15 13.1 14.7 14.1 14.1 L 17.5 17.6 C 18.1 18.1 19 18.1 19.6 17.6 C 20.1 17 20.1 16 19.6 15.4 ZM 10.7 13 C 8.3 13 6.3 11 6.3 8.6 C 6.3 6.1 8.3 4.1 10.7 4.1 C 13.2 4.1 15.1 6.1 15.1 8.6 C 15.1 11 13.2 13 10.7 13 Z" fill="#ffffff"/>
		<path d="M 10.6 -2 L 10.6 3.5 C 10.8 3.5 10.9 3.5 11.1 3.5 C 11.9 3.5 12.6 3.7 13.3 4 L 13.3 -2 L 10.6 -2 Z" fill="#ffffff"/>
		<path d="M 7.9 17.1 L 7.9 12.3 C 6.8 11.4 6.2 10 6.2 8.5 C 6.2 6.9 6.8 5.5 7.9 4.6 L 7.9 0.4 L 5.3 0.4 L 5.3 17.1 L 7.9 17.1 Z" fill="#ffffff"/>
		<path d="M 13.3 17.1 L 13.3 12.9 C 12.6 13.3 11.9 13.5 11.1 13.5 C 10.9 13.5 10.8 13.4 10.6 13.4 L 10.6 17.1 L 13.3 17.1 Z" fill="#ffffff"/>
	</g>
</svg>