<?xml version="1.0" standalone="no"?>

<svg viewBox="0 0 66 58" style="background-color:#ffffff00" version="1.1" xmlns="http://www.w3.org/2000/svg" xmlns:xlink="http://www.w3.org/1999/xlink" xml:space="preserve" x="0px" y="0px" width="100%" height="100%">
	<g id="Layer%201">
		<g id="Layer%25201">
			<path d="M 9.3 57 L 30.8 39.6 C 32.3 38.4 32.6 36.9 32.3 35.1 C 34.4 37.2 37.2 39 40.6 39.9 C 51 43 62 36.9 65.1 26.5 C 68.4 15.8 62.3 4.9 51.9 1.8 C 41.2 -1.2 30.2 4.6 27.1 15.2 C 25.3 20.7 26.2 26.5 29.2 31.1 C 27.7 30.2 25.6 30.5 24.3 31.7 L 2.6 49.1 C 0.8 50.6 0.4 53.4 2 55.2 L 2.9 56.4 C 4.7 58.2 7.5 58.5 9.3 57 ZM 32.3 16.8 C 34.4 9.1 42.7 4.6 50.4 7 C 58 9.1 62.3 17.4 60.2 25 C 57.7 32.6 49.8 36.9 42.1 34.8 C 34.1 32.3 29.9 24.4 32.3 16.8 Z" fill="#ffffff"/>
		</g>
	</g>
</svg>