<?xml version="1.0" standalone="no"?>

<svg viewBox="0 0 28 20" style="background-color:#ffffff00" version="1.1" xmlns="http://www.w3.org/2000/svg" xmlns:xlink="http://www.w3.org/1999/xlink" xml:space="preserve" x="0px" y="0px" width="100%" height="100%">
	<g id="Layer">
		<path id="Forma%201" d="M 24.8 19 L 7.2 19 C 6.1 19 5.1 18 5.1 16.8 C 5.1 15.7 6.1 14.7 7.2 14.7 L 24.8 14.7 C 26 14.7 27 15.7 27 16.8 C 27 18 26 19 24.8 19 ZM 24.8 11.8 L 7.2 11.8 C 6.1 11.8 5.1 10.8 5.1 9.7 C 5.1 8.5 6.1 7.5 7.2 7.5 L 24.8 7.5 C 26 7.5 27 8.5 27 9.7 C 27 10.8 26 11.8 24.8 11.8 ZM 24.8 4.3 L 7.2 4.3 C 6.1 4.3 5.1 3.3 5.1 2.1 C 5.1 1 6.1 0 7.2 0 L 24.8 0 C 26 0 27 1 27 2.1 C 27 3.3 26 4.3 24.8 4.3 ZM 2.1 26.3 C 1 26.3 3.3 26.3 2.1 26.3 ZM 2.1 19 C 1 19 0 18 0 16.8 C 0 15.7 1 14.7 2.1 14.7 C 3.3 14.7 4.2 15.7 4.2 16.8 C 4.2 18 3.3 19 2.1 19 ZM 2.1 11.8 C 1 11.8 0 10.8 0 9.7 C 0 8.5 1 7.5 2.1 7.5 C 3.3 7.5 4.2 8.5 4.2 9.7 C 4.2 10.8 3.3 11.8 2.1 11.8 ZM 2.1 4.3 C 1 4.3 0 3.3 0 2.1 C 0 1 1 0 2.1 0 C 3.3 0 4.2 1 4.2 2.1 C 4.2 3.3 3.3 4.3 2.1 4.3 ZM 5.1 24.2 C 5.1 23 5.1 25.4 5.1 24.2 Z" fill="#ffffff"/>
	</g>
</svg>