<?xml version="1.0" standalone="no"?>

<svg viewBox="0 0 22 240" style="background-color:#ffffff00" version="1.1" xmlns="http://www.w3.org/2000/svg" xmlns:xlink="http://www.w3.org/1999/xlink" xml:space="preserve" x="0px" y="0px" width="100%" height="100%">
	<defs>
		<filter id="filter1" x="-100%" y="-100%" width="300%" height="300%">
			<!-- Drop Shadow -->
			<feOffset result="out" in="SourceGraphic" dx="0" dy="0"/>
			<feColorMatrix result="out" in="out" type="matrix" values="0 0 0 0 0  0 0 0 0.4 0  0 0 0 0.1 0  0 0 0 0.5 0"/>
			<feGaussianBlur result="out" in="out" stdDeviation="1"/>
			<feBlend in="SourceGraphic" in2="out" mode="normal" result="Drop_Shadow1"/>
		</filter>
	</defs>
	<g id="Layer%201">
		<text id="MY%20PROFILE" filter="url(#filter1)" visibility="hidden" x="4" y="156" width="17" fill="#ffffff" style="font-size: 12px; font-family: Verdana; color: #ffffff; text-align: center; "><tspan><![CDATA[MY PROFILE]]></tspan></text>
		<path d="M 21 37 L 21 232 C 21 235.3 18.3 238 15 238 L 0 238 C -3.3 238 -6 235.3 -6 232 L -5 36.5 L 21 37 Z" stroke="#2b880b" stroke-width="2" fill="#56ae00"/>
		<path d="M 0 2 L 15 2 C 18.3 2 21 4.7 21 8 L 21 38 L -6 38 L -6 8 C -6 4.7 -3.3 2 0 2 Z" stroke="#2b880b" stroke-width="2" fill="#006519"/>
		<path d="M 16 24.5 C 16 27.8 4 27.8 4 24.5 C 4 21.1 6.7 18.3 10 18.3 C 13.3 18.3 16 21.1 16 24.5 Z" fill="#ffffff"/>
		<path d="M 13.7 13.8 C 13.7 15.9 12 17.6 10 17.6 C 8 17.6 6.3 15.9 6.3 13.8 C 6.3 11.7 8 10 10 10 C 12 10 13.7 11.7 13.7 13.8 Z" fill="#ffffff"/>
		<g>
			<g opacity="0.6">
				<path d="M 6 157.5 L 6 159 L 12 161.4 L 6 164 L 6 165.5 L 15 165.5 L 15 164.5 L 7.3 164.5 L 13.5 161.9 L 13.5 161.1 L 7.3 158.5 L 15 158.5 L 15 157.5 L 6 157.5 L 6 157.5 Z" stroke="#489100" stroke-width="2" fill="#ffffff"/>
				<path d="M 6 150.7 L 10.4 153 L 6 155.4 L 6 156.5 L 11.2 153.5 L 15 153.5 L 15 152.5 L 11 152.5 L 6 149.5 L 6 150.7 L 6 150.7 Z" stroke="#489100" stroke-width="2" fill="#ffffff"/>
				<path d="M 7.5 138.8 C 7.2 139 6.8 139.3 6.6 139.6 C 6.4 139.9 6.3 140.3 6.2 140.6 C 6.1 141 6 141.5 6 142 L 6 144.5 L 15 144.5 L 15 143.5 L 12 143.5 L 12 142.2 C 12 141.5 11.9 141 11.8 140.5 C 11.6 140.1 11.3 139.7 11 139.3 C 10.8 139.1 10.4 138.9 10.1 138.7 C 9.7 138.6 9.3 138.5 8.9 138.5 C 8.3 138.5 7.9 138.6 7.5 138.8 L 7.5 138.8 ZM 9.7 139.6 C 10 139.7 10.2 139.6 10.4 139.4 C 10.6 140.1 10.8 140.6 10.9 141 C 11 141.3 11 141.8 11 142.3 L 11 143.5 L 7 143.5 L 7 142.1 C 7 141.7 7 141.3 7.1 141 C 7.2 140.8 7.3 140.4 7.4 139.9 C 7.5 139.9 7.8 139.8 8 139.7 C 8.3 139.6 8.6 139.5 8.9 139.5 C 9.2 139.5 9.5 139.5 9.7 139.6 L 9.7 139.6 Z" stroke="#489100" stroke-width="2" fill="#ffffff"/>
				<path d="M 10.7 133.8 C 10.5 133.1 10.2 132.5 9.8 132.1 C 9.4 131.7 8.9 131.5 8.3 131.5 C 7.8 131.5 7.5 131.6 7.2 131.8 C 6.9 132 6.6 132.2 6.5 132.6 C 6.3 132.9 6.2 133.2 6.1 133.6 C 6 133.9 6 134.4 6 134.9 L 6 137.5 L 15 137.5 L 15 136.5 L 11 136.5 L 11 134.7 L 15 131.4 L 15 130.5 L 10.7 133.8 L 10.7 133.8 ZM 9.1 132.7 C 9.3 132.8 9.4 132.8 9.6 132.9 C 9.8 133.3 9.9 133.6 9.9 134 C 10 134.3 10 134.7 10 135.1 L 10 136.5 L 7 136.5 L 7 134.9 C 7 134.5 7 134.2 7.1 133.9 C 7.1 133.6 7.2 133.4 7.3 133.2 C 7.4 132.9 7.5 132.8 7.7 132.7 C 7.9 132.6 8.1 132.5 8.3 132.5 C 8.6 132.5 8.9 132.6 9.1 132.7 L 9.1 132.7 Z" stroke="#489100" stroke-width="2" fill="#ffffff"/>
				<path d="M 6.3 123.8 C 6.1 124.3 6 124.9 6 125.5 C 6 126.1 6.1 126.7 6.3 127.2 C 6.5 127.7 6.8 128.1 7.2 128.4 C 7.6 128.8 8 129 8.6 129.2 C 9.2 129.4 9.8 129.5 10.5 129.5 C 11.2 129.5 11.9 129.4 12.4 129.2 C 13 129 13.5 128.8 13.8 128.4 C 14.2 128.1 14.5 127.7 14.7 127.2 C 14.9 126.7 15 126.1 15 125.5 C 15 124.9 14.9 124.3 14.7 123.9 C 14.5 123.4 14.2 123 13.8 122.6 C 13.5 122.3 13 122 12.4 121.8 C 11.9 121.6 11.2 121.5 10.5 121.5 C 9.8 121.5 9.2 121.6 8.6 121.8 C 8 122 7.6 122.3 7.2 122.6 C 6.8 122.9 6.5 123.4 6.3 123.8 L 6.3 123.8 ZM 13.1 123.3 C 13.7 123.9 14 124.6 14 125.5 C 14 126.4 13.7 127.2 13.1 127.7 C 12.5 128.2 11.6 128.5 10.5 128.5 C 9.4 128.5 8.5 128.2 7.9 127.7 C 7.3 127.2 7 126.4 7 125.5 C 7 124.6 7.3 123.8 7.9 123.3 C 8.5 122.8 9.4 122.5 10.5 122.5 C 11.6 122.5 12.5 122.8 13.1 123.3 L 13.1 123.3 Z" stroke="#489100" stroke-width="2" fill="#ffffff"/>
				<path d="M 6 114.5 L 6 120.5 L 15 120.5 L 15 119.5 L 11 119.5 L 11 115.5 L 10 115.5 L 10 119.5 L 7 119.5 L 7 114.5 L 6 114.5 L 6 114.5 Z" stroke="#489100" stroke-width="2" fill="#ffffff"/>
				<path d="M 14 110.5 L 14 111.5 L 7 111.5 L 7 110.5 L 6 110.5 L 6 113.5 L 7 113.5 L 7 112.5 L 14 112.5 L 14 113.5 L 15 113.5 L 15 110.5 L 14 110.5 L 14 110.5 Z" stroke="#489100" stroke-width="2" fill="#ffffff"/>
				<path d="M 14 102.5 L 14 107.5 L 6 107.5 L 6 108.5 L 15 108.5 L 15 102.5 L 14 102.5 L 14 102.5 Z" stroke="#489100" stroke-width="2" fill="#ffffff"/>
				<path d="M 14 95.5 L 14 100.5 L 11 100.5 L 11 95.5 L 10 95.5 L 10 100.5 L 7 100.5 L 7 95.5 L 6 95.5 L 6 101.5 L 15 101.5 L 15 95.5 L 14 95.5 L 14 95.5 Z" stroke="#489100" stroke-width="2" fill="#ffffff"/>
			</g>
			<g>
				<path d="M 6 156.5 L 6 158 L 12 160.4 L 6 163 L 6 164.5 L 15 164.5 L 15 163.5 L 7.3 163.5 L 13.5 160.9 L 13.5 160.1 L 7.3 157.5 L 15 157.5 L 15 156.5 L 6 156.5 L 6 156.5 Z" fill="#ffffff"/>
				<path d="M 6 149.7 L 10.4 152 L 6 154.4 L 6 155.5 L 11.2 152.5 L 15 152.5 L 15 151.5 L 11 151.5 L 6 148.5 L 6 149.7 L 6 149.7 Z" fill="#ffffff"/>
				<path d="M 7.5 137.8 C 7.2 138 6.8 138.3 6.6 138.6 C 6.4 138.9 6.3 139.3 6.2 139.6 C 6.1 140 6 140.5 6 141 L 6 143.5 L 15 143.5 L 15 142.5 L 12 142.5 L 12 141.2 C 12 140.5 11.9 140 11.8 139.5 C 11.6 139.1 11.3 138.7 11 138.3 C 10.8 138.1 10.4 137.9 10.1 137.7 C 9.7 137.6 9.3 137.5 8.9 137.5 C 8.3 137.5 7.9 137.6 7.5 137.8 L 7.5 137.8 ZM 9.7 138.6 C 10 138.7 10.2 138.6 10.4 138.4 C 10.6 139.1 10.8 139.6 10.9 140 C 11 140.3 11 140.8 11 141.3 L 11 142.5 L 7 142.5 L 7 141.1 C 7 140.7 7 140.3 7.1 140 C 7.2 139.8 7.3 139.4 7.4 138.9 C 7.5 138.9 7.8 138.8 8 138.7 C 8.3 138.6 8.6 138.5 8.9 138.5 C 9.2 138.5 9.5 138.5 9.7 138.6 L 9.7 138.6 Z" fill="#ffffff"/>
				<path d="M 10.7 132.8 C 10.5 132.1 10.2 131.5 9.8 131.1 C 9.4 130.7 8.9 130.5 8.3 130.5 C 7.8 130.5 7.5 130.6 7.2 130.8 C 6.9 131 6.6 131.2 6.5 131.6 C 6.3 131.9 6.2 132.2 6.1 132.6 C 6 132.9 6 133.4 6 133.9 L 6 136.5 L 15 136.5 L 15 135.5 L 11 135.5 L 11 133.7 L 15 130.4 L 15 129.5 L 10.7 132.8 L 10.7 132.8 ZM 9.1 131.7 C 9.3 131.8 9.4 131.8 9.6 131.9 C 9.8 132.3 9.9 132.6 9.9 133 C 10 133.3 10 133.7 10 134.1 L 10 135.5 L 7 135.5 L 7 133.9 C 7 133.5 7 133.2 7.1 132.9 C 7.1 132.6 7.2 132.4 7.3 132.2 C 7.4 131.9 7.5 131.8 7.7 131.7 C 7.9 131.6 8.1 131.5 8.3 131.5 C 8.6 131.5 8.9 131.6 9.1 131.7 L 9.1 131.7 Z" fill="#ffffff"/>
				<path d="M 6.3 122.8 C 6.1 123.3 6 123.9 6 124.5 C 6 125.1 6.1 125.7 6.3 126.2 C 6.5 126.7 6.8 127.1 7.2 127.4 C 7.6 127.8 8 128 8.6 128.2 C 9.2 128.4 9.8 128.5 10.5 128.5 C 11.2 128.5 11.9 128.4 12.4 128.2 C 13 128 13.5 127.8 13.8 127.4 C 14.2 127.1 14.5 126.7 14.7 126.2 C 14.9 125.7 15 125.1 15 124.5 C 15 123.9 14.9 123.3 14.7 122.9 C 14.5 122.4 14.2 122 13.8 121.6 C 13.5 121.3 13 121 12.4 120.8 C 11.9 120.6 11.2 120.5 10.5 120.5 C 9.8 120.5 9.2 120.6 8.6 120.8 C 8 121 7.6 121.3 7.2 121.6 C 6.8 121.9 6.5 122.4 6.3 122.8 L 6.3 122.8 ZM 13.1 122.3 C 13.7 122.9 14 123.6 14 124.5 C 14 125.4 13.7 126.2 13.1 126.7 C 12.5 127.2 11.6 127.5 10.5 127.5 C 9.4 127.5 8.5 127.2 7.9 126.7 C 7.3 126.2 7 125.4 7 124.5 C 7 123.6 7.3 122.8 7.9 122.3 C 8.5 121.8 9.4 121.5 10.5 121.5 C 11.6 121.5 12.5 121.8 13.1 122.3 L 13.1 122.3 Z" fill="#ffffff"/>
				<path d="M 6 113.5 L 6 119.5 L 15 119.5 L 15 118.5 L 11 118.5 L 11 114.5 L 10 114.5 L 10 118.5 L 7 118.5 L 7 113.5 L 6 113.5 L 6 113.5 Z" fill="#ffffff"/>
				<path d="M 14 109.5 L 14 110.5 L 7 110.5 L 7 109.5 L 6 109.5 L 6 112.5 L 7 112.5 L 7 111.5 L 14 111.5 L 14 112.5 L 15 112.5 L 15 109.5 L 14 109.5 L 14 109.5 Z" fill="#ffffff"/>
				<path d="M 14 101.5 L 14 106.5 L 6 106.5 L 6 107.5 L 15 107.5 L 15 101.5 L 14 101.5 L 14 101.5 Z" fill="#ffffff"/>
				<path d="M 14 94.5 L 14 99.5 L 11 99.5 L 11 94.5 L 10 94.5 L 10 99.5 L 7 99.5 L 7 94.5 L 6 94.5 L 6 100.5 L 15 100.5 L 15 94.5 L 14 94.5 L 14 94.5 Z" fill="#ffffff"/>
			</g>
			<g>
				<path d="M 6 156.5 L 6 158 L 12 160.4 L 6 163 L 6 164.5 L 15 164.5 L 15 163.5 L 7.3 163.5 L 13.5 160.9 L 13.5 160.1 L 7.3 157.5 L 15 157.5 L 15 156.5 L 6 156.5 L 6 156.5 Z" fill="#ffffff"/>
				<path d="M 6 149.7 L 10.4 152 L 6 154.4 L 6 155.5 L 11.2 152.5 L 15 152.5 L 15 151.5 L 11 151.5 L 6 148.5 L 6 149.7 L 6 149.7 Z" fill="#ffffff"/>
				<path d="M 7.5 137.8 C 7.2 138 6.8 138.3 6.6 138.6 C 6.4 138.9 6.3 139.3 6.2 139.6 C 6.1 140 6 140.5 6 141 L 6 143.5 L 15 143.5 L 15 142.5 L 12 142.5 L 12 141.2 C 12 140.5 11.9 140 11.8 139.5 C 11.6 139.1 11.3 138.7 11 138.3 C 10.8 138.1 10.4 137.9 10.1 137.7 C 9.7 137.6 9.3 137.5 8.9 137.5 C 8.3 137.5 7.9 137.6 7.5 137.8 L 7.5 137.8 ZM 9.7 138.6 C 10 138.7 10.2 138.6 10.4 138.4 C 10.6 139.1 10.8 139.6 10.9 140 C 11 140.3 11 140.8 11 141.3 L 11 142.5 L 7 142.5 L 7 141.1 C 7 140.7 7 140.3 7.1 140 C 7.2 139.8 7.3 139.4 7.4 138.9 C 7.5 138.9 7.8 138.8 8 138.7 C 8.3 138.6 8.6 138.5 8.9 138.5 C 9.2 138.5 9.5 138.5 9.7 138.6 L 9.7 138.6 Z" fill="#ffffff"/>
				<path d="M 10.7 132.8 C 10.5 132.1 10.2 131.5 9.8 131.1 C 9.4 130.7 8.9 130.5 8.3 130.5 C 7.8 130.5 7.5 130.6 7.2 130.8 C 6.9 131 6.6 131.2 6.5 131.6 C 6.3 131.9 6.2 132.2 6.1 132.6 C 6 132.9 6 133.4 6 133.9 L 6 136.5 L 15 136.5 L 15 135.5 L 11 135.5 L 11 133.7 L 15 130.4 L 15 129.5 L 10.7 132.8 L 10.7 132.8 ZM 9.1 131.7 C 9.3 131.8 9.4 131.8 9.6 131.9 C 9.8 132.3 9.9 132.6 9.9 133 C 10 133.3 10 133.7 10 134.1 L 10 135.5 L 7 135.5 L 7 133.9 C 7 133.5 7 133.2 7.1 132.9 C 7.1 132.6 7.2 132.4 7.3 132.2 C 7.4 131.9 7.5 131.8 7.7 131.7 C 7.9 131.6 8.1 131.5 8.3 131.5 C 8.6 131.5 8.9 131.6 9.1 131.7 L 9.1 131.7 Z" fill="#ffffff"/>
				<path d="M 6.3 122.8 C 6.1 123.3 6 123.9 6 124.5 C 6 125.1 6.1 125.7 6.3 126.2 C 6.5 126.7 6.8 127.1 7.2 127.4 C 7.6 127.8 8 128 8.6 128.2 C 9.2 128.4 9.8 128.5 10.5 128.5 C 11.2 128.5 11.9 128.4 12.4 128.2 C 13 128 13.5 127.8 13.8 127.4 C 14.2 127.1 14.5 126.7 14.7 126.2 C 14.9 125.7 15 125.1 15 124.5 C 15 123.9 14.9 123.3 14.7 122.9 C 14.5 122.4 14.2 122 13.8 121.6 C 13.5 121.3 13 121 12.4 120.8 C 11.9 120.6 11.2 120.5 10.5 120.5 C 9.8 120.5 9.2 120.6 8.6 120.8 C 8 121 7.6 121.3 7.2 121.6 C 6.8 121.9 6.5 122.4 6.3 122.8 L 6.3 122.8 ZM 13.1 122.3 C 13.7 122.9 14 123.6 14 124.5 C 14 125.4 13.7 126.2 13.1 126.7 C 12.5 127.2 11.6 127.5 10.5 127.5 C 9.4 127.5 8.5 127.2 7.9 126.7 C 7.3 126.2 7 125.4 7 124.5 C 7 123.6 7.3 122.8 7.9 122.3 C 8.5 121.8 9.4 121.5 10.5 121.5 C 11.6 121.5 12.5 121.8 13.1 122.3 L 13.1 122.3 Z" fill="#ffffff"/>
				<path d="M 6 113.5 L 6 119.5 L 15 119.5 L 15 118.5 L 11 118.5 L 11 114.5 L 10 114.5 L 10 118.5 L 7 118.5 L 7 113.5 L 6 113.5 L 6 113.5 Z" fill="#ffffff"/>
				<path d="M 14 109.5 L 14 110.5 L 7 110.5 L 7 109.5 L 6 109.5 L 6 112.5 L 7 112.5 L 7 111.5 L 14 111.5 L 14 112.5 L 15 112.5 L 15 109.5 L 14 109.5 L 14 109.5 Z" fill="#ffffff"/>
				<path d="M 14 101.5 L 14 106.5 L 6 106.5 L 6 107.5 L 15 107.5 L 15 101.5 L 14 101.5 L 14 101.5 Z" fill="#ffffff"/>
				<path d="M 14 94.5 L 14 99.5 L 11 99.5 L 11 94.5 L 10 94.5 L 10 99.5 L 7 99.5 L 7 94.5 L 6 94.5 L 6 100.5 L 15 100.5 L 15 94.5 L 14 94.5 L 14 94.5 Z" fill="#ffffff"/>
			</g>
		</g>
	</g>
</svg>