<?xml version="1.0" standalone="no"?>

<svg viewBox="0 0 22 240" style="background-color:#ffffff00" version="1.1" xmlns="http://www.w3.org/2000/svg" xmlns:xlink="http://www.w3.org/1999/xlink" xml:space="preserve" x="0px" y="0px" width="100%" height="100%">
	<defs>
		<filter id="filter1" x="-100%" y="-100%" width="300%" height="300%">
			<!-- Drop Shadow -->
			<feOffset result="out" in="SourceGraphic" dx="0" dy="0"/>
			<feColorMatrix result="out" in="out" type="matrix" values="0 0 0 0 0  0 0 0 0.4 0  0 0 0 0.1 0  0 0 0 0.5 0"/>
			<feGaussianBlur result="out" in="out" stdDeviation="1"/>
			<feBlend in="SourceGraphic" in2="out" mode="normal" result="Drop_Shadow1"/>
		</filter>
		<linearGradient id="gradient1" x1="69.4%" y1="97.8%" x2="-58.3%" y2="97.8%">
			<stop stop-color="#8bc0fc" stop-opacity="1" offset="0%"/>
			<stop stop-color="#6a96d3" stop-opacity="1" offset="100%"/>
		</linearGradient>
		<linearGradient id="gradient2" x1="69.4%" y1="89.8%" x2="-58.3%" y2="89.8%">
			<stop stop-color="#ffd86b" stop-opacity="1" offset="0%"/>
			<stop stop-color="#f1a554" stop-opacity="1" offset="100%"/>
		</linearGradient>
		<linearGradient id="gradient3" x1="74.9%" y1="84.3%" x2="-52.7%" y2="84.3%">
			<stop stop-color="#57af00" stop-opacity="1" offset="0%"/>
			<stop stop-color="#3f9b07" stop-opacity="1" offset="100%"/>
		</linearGradient>
		<linearGradient id="gradient4" x1="69.4%" y1="97.8%" x2="-58.3%" y2="97.8%">
			<stop stop-color="#8bc0fc" stop-opacity="1" offset="0%"/>
			<stop stop-color="#6a96d3" stop-opacity="1" offset="100%"/>
		</linearGradient>
		<linearGradient id="gradient5" x1="69.4%" y1="90.9%" x2="-58.3%" y2="90.9%">
			<stop stop-color="#ffd86b" stop-opacity="1" offset="0%"/>
			<stop stop-color="#f1a554" stop-opacity="1" offset="100%"/>
		</linearGradient>
		<linearGradient id="gradient6" x1="74.9%" y1="94.1%" x2="-52.7%" y2="94.1%">
			<stop stop-color="#57af00" stop-opacity="1" offset="0%"/>
			<stop stop-color="#3f9b07" stop-opacity="1" offset="100%"/>
		</linearGradient>
	</defs>
	<g id="Layer%201">
		<text id="MY%20PROFILE" filter="url(#filter1)" visibility="hidden" x="4" y="156" width="17" fill="#ffffff" style="font-size: 12px; font-family: Verdana; color: #ffffff; text-align: center; "><tspan><![CDATA[MY PROFILE]]></tspan></text>
		<path visibility="hidden" d="M 21 37 L 21 232 C 21 235.3 18.3 238 15 238 L 0 238 C -3.3 238 -6 235.3 -6 232 L -5 36.5 L 21 37 Z" stroke="#2b880b" stroke-width="2" fill="#56ae00"/>
		<g visibility="hidden">
			<g opacity="0.6">
				<path d="M 6 157.5 L 6 159 L 12 161.4 L 6 164 L 6 165.5 L 15 165.5 L 15 164.5 L 7.3 164.5 L 13.5 161.9 L 13.5 161.1 L 7.3 158.5 L 15 158.5 L 15 157.5 L 6 157.5 L 6 157.5 Z" stroke="#489100" stroke-width="2" fill="#ffffff"/>
				<path d="M 6 150.7 L 10.4 153 L 6 155.4 L 6 156.5 L 11.2 153.5 L 15 153.5 L 15 152.5 L 11 152.5 L 6 149.5 L 6 150.7 L 6 150.7 Z" stroke="#489100" stroke-width="2" fill="#ffffff"/>
				<path d="M 7.5 138.8 C 7.2 139 6.8 139.3 6.6 139.6 C 6.4 139.9 6.3 140.3 6.2 140.6 C 6.1 141 6 141.5 6 142 L 6 144.5 L 15 144.5 L 15 143.5 L 12 143.5 L 12 142.2 C 12 141.5 11.9 141 11.8 140.5 C 11.6 140.1 11.3 139.7 11 139.3 C 10.8 139.1 10.4 138.9 10.1 138.7 C 9.7 138.6 9.3 138.5 8.9 138.5 C 8.3 138.5 7.9 138.6 7.5 138.8 L 7.5 138.8 ZM 9.7 139.6 C 10 139.7 10.2 139.6 10.4 139.4 C 10.6 140.1 10.8 140.6 10.9 141 C 11 141.3 11 141.8 11 142.3 L 11 143.5 L 7 143.5 L 7 142.1 C 7 141.7 7 141.3 7.1 141 C 7.2 140.8 7.3 140.4 7.4 139.9 C 7.5 139.9 7.8 139.8 8 139.7 C 8.3 139.6 8.6 139.5 8.9 139.5 C 9.2 139.5 9.5 139.5 9.7 139.6 L 9.7 139.6 Z" stroke="#489100" stroke-width="2" fill="#ffffff"/>
				<path d="M 10.7 133.8 C 10.5 133.1 10.2 132.5 9.8 132.1 C 9.4 131.7 8.9 131.5 8.3 131.5 C 7.8 131.5 7.5 131.6 7.2 131.8 C 6.9 132 6.6 132.2 6.5 132.6 C 6.3 132.9 6.2 133.2 6.1 133.6 C 6 133.9 6 134.4 6 134.9 L 6 137.5 L 15 137.5 L 15 136.5 L 11 136.5 L 11 134.7 L 15 131.4 L 15 130.5 L 10.7 133.8 L 10.7 133.8 ZM 9.1 132.7 C 9.3 132.8 9.4 132.8 9.6 132.9 C 9.8 133.3 9.9 133.6 9.9 134 C 10 134.3 10 134.7 10 135.1 L 10 136.5 L 7 136.5 L 7 134.9 C 7 134.5 7 134.2 7.1 133.9 C 7.1 133.6 7.2 133.4 7.3 133.2 C 7.4 132.9 7.5 132.8 7.7 132.7 C 7.9 132.6 8.1 132.5 8.3 132.5 C 8.6 132.5 8.9 132.6 9.1 132.7 L 9.1 132.7 Z" stroke="#489100" stroke-width="2" fill="#ffffff"/>
				<path d="M 6.3 123.8 C 6.1 124.3 6 124.9 6 125.5 C 6 126.1 6.1 126.7 6.3 127.2 C 6.5 127.7 6.8 128.1 7.2 128.4 C 7.6 128.8 8 129 8.6 129.2 C 9.2 129.4 9.8 129.5 10.5 129.5 C 11.2 129.5 11.9 129.4 12.4 129.2 C 13 129 13.5 128.8 13.8 128.4 C 14.2 128.1 14.5 127.7 14.7 127.2 C 14.9 126.7 15 126.1 15 125.5 C 15 124.9 14.9 124.3 14.7 123.9 C 14.5 123.4 14.2 123 13.8 122.6 C 13.5 122.3 13 122 12.4 121.8 C 11.9 121.6 11.2 121.5 10.5 121.5 C 9.8 121.5 9.2 121.6 8.6 121.8 C 8 122 7.6 122.3 7.2 122.6 C 6.8 122.9 6.5 123.4 6.3 123.8 L 6.3 123.8 ZM 13.1 123.3 C 13.7 123.9 14 124.6 14 125.5 C 14 126.4 13.7 127.2 13.1 127.7 C 12.5 128.2 11.6 128.5 10.5 128.5 C 9.4 128.5 8.5 128.2 7.9 127.7 C 7.3 127.2 7 126.4 7 125.5 C 7 124.6 7.3 123.8 7.9 123.3 C 8.5 122.8 9.4 122.5 10.5 122.5 C 11.6 122.5 12.5 122.8 13.1 123.3 L 13.1 123.3 Z" stroke="#489100" stroke-width="2" fill="#ffffff"/>
				<path d="M 6 114.5 L 6 120.5 L 15 120.5 L 15 119.5 L 11 119.5 L 11 115.5 L 10 115.5 L 10 119.5 L 7 119.5 L 7 114.5 L 6 114.5 L 6 114.5 Z" stroke="#489100" stroke-width="2" fill="#ffffff"/>
				<path d="M 14 110.5 L 14 111.5 L 7 111.5 L 7 110.5 L 6 110.5 L 6 113.5 L 7 113.5 L 7 112.5 L 14 112.5 L 14 113.5 L 15 113.5 L 15 110.5 L 14 110.5 L 14 110.5 Z" stroke="#489100" stroke-width="2" fill="#ffffff"/>
				<path d="M 14 102.5 L 14 107.5 L 6 107.5 L 6 108.5 L 15 108.5 L 15 102.5 L 14 102.5 L 14 102.5 Z" stroke="#489100" stroke-width="2" fill="#ffffff"/>
				<path d="M 14 95.5 L 14 100.5 L 11 100.5 L 11 95.5 L 10 95.5 L 10 100.5 L 7 100.5 L 7 95.5 L 6 95.5 L 6 101.5 L 15 101.5 L 15 95.5 L 14 95.5 L 14 95.5 Z" stroke="#489100" stroke-width="2" fill="#ffffff"/>
			</g>
			<g>
				<path d="M 6 156.5 L 6 158 L 12 160.4 L 6 163 L 6 164.5 L 15 164.5 L 15 163.5 L 7.3 163.5 L 13.5 160.9 L 13.5 160.1 L 7.3 157.5 L 15 157.5 L 15 156.5 L 6 156.5 L 6 156.5 Z" fill="#ffffff"/>
				<path d="M 6 149.7 L 10.4 152 L 6 154.4 L 6 155.5 L 11.2 152.5 L 15 152.5 L 15 151.5 L 11 151.5 L 6 148.5 L 6 149.7 L 6 149.7 Z" fill="#ffffff"/>
				<path d="M 7.5 137.8 C 7.2 138 6.8 138.3 6.6 138.6 C 6.4 138.9 6.3 139.3 6.2 139.6 C 6.1 140 6 140.5 6 141 L 6 143.5 L 15 143.5 L 15 142.5 L 12 142.5 L 12 141.2 C 12 140.5 11.9 140 11.8 139.5 C 11.6 139.1 11.3 138.7 11 138.3 C 10.8 138.1 10.4 137.9 10.1 137.7 C 9.7 137.6 9.3 137.5 8.9 137.5 C 8.3 137.5 7.9 137.6 7.5 137.8 L 7.5 137.8 ZM 9.7 138.6 C 10 138.7 10.2 138.6 10.4 138.4 C 10.6 139.1 10.8 139.6 10.9 140 C 11 140.3 11 140.8 11 141.3 L 11 142.5 L 7 142.5 L 7 141.1 C 7 140.7 7 140.3 7.1 140 C 7.2 139.8 7.3 139.4 7.4 138.9 C 7.5 138.9 7.8 138.8 8 138.7 C 8.3 138.6 8.6 138.5 8.9 138.5 C 9.2 138.5 9.5 138.5 9.7 138.6 L 9.7 138.6 Z" fill="#ffffff"/>
				<path d="M 10.7 132.8 C 10.5 132.1 10.2 131.5 9.8 131.1 C 9.4 130.7 8.9 130.5 8.3 130.5 C 7.8 130.5 7.5 130.6 7.2 130.8 C 6.9 131 6.6 131.2 6.5 131.6 C 6.3 131.9 6.2 132.2 6.1 132.6 C 6 132.9 6 133.4 6 133.9 L 6 136.5 L 15 136.5 L 15 135.5 L 11 135.5 L 11 133.7 L 15 130.4 L 15 129.5 L 10.7 132.8 L 10.7 132.8 ZM 9.1 131.7 C 9.3 131.8 9.4 131.8 9.6 131.9 C 9.8 132.3 9.9 132.6 9.9 133 C 10 133.3 10 133.7 10 134.1 L 10 135.5 L 7 135.5 L 7 133.9 C 7 133.5 7 133.2 7.1 132.9 C 7.1 132.6 7.2 132.4 7.3 132.2 C 7.4 131.9 7.5 131.8 7.7 131.7 C 7.9 131.6 8.1 131.5 8.3 131.5 C 8.6 131.5 8.9 131.6 9.1 131.7 L 9.1 131.7 Z" fill="#ffffff"/>
				<path d="M 6.3 122.8 C 6.1 123.3 6 123.9 6 124.5 C 6 125.1 6.1 125.7 6.3 126.2 C 6.5 126.7 6.8 127.1 7.2 127.4 C 7.6 127.8 8 128 8.6 128.2 C 9.2 128.4 9.8 128.5 10.5 128.5 C 11.2 128.5 11.9 128.4 12.4 128.2 C 13 128 13.5 127.8 13.8 127.4 C 14.2 127.1 14.5 126.7 14.7 126.2 C 14.9 125.7 15 125.1 15 124.5 C 15 123.9 14.9 123.3 14.7 122.9 C 14.5 122.4 14.2 122 13.8 121.6 C 13.5 121.3 13 121 12.4 120.8 C 11.9 120.6 11.2 120.5 10.5 120.5 C 9.8 120.5 9.2 120.6 8.6 120.8 C 8 121 7.6 121.3 7.2 121.6 C 6.8 121.9 6.5 122.4 6.3 122.8 L 6.3 122.8 ZM 13.1 122.3 C 13.7 122.9 14 123.6 14 124.5 C 14 125.4 13.7 126.2 13.1 126.7 C 12.5 127.2 11.6 127.5 10.5 127.5 C 9.4 127.5 8.5 127.2 7.9 126.7 C 7.3 126.2 7 125.4 7 124.5 C 7 123.6 7.3 122.8 7.9 122.3 C 8.5 121.8 9.4 121.5 10.5 121.5 C 11.6 121.5 12.5 121.8 13.1 122.3 L 13.1 122.3 Z" fill="#ffffff"/>
				<path d="M 6 113.5 L 6 119.5 L 15 119.5 L 15 118.5 L 11 118.5 L 11 114.5 L 10 114.5 L 10 118.5 L 7 118.5 L 7 113.5 L 6 113.5 L 6 113.5 Z" fill="#ffffff"/>
				<path d="M 14 109.5 L 14 110.5 L 7 110.5 L 7 109.5 L 6 109.5 L 6 112.5 L 7 112.5 L 7 111.5 L 14 111.5 L 14 112.5 L 15 112.5 L 15 109.5 L 14 109.5 L 14 109.5 Z" fill="#ffffff"/>
				<path d="M 14 101.5 L 14 106.5 L 6 106.5 L 6 107.5 L 15 107.5 L 15 101.5 L 14 101.5 L 14 101.5 Z" fill="#ffffff"/>
				<path d="M 14 94.5 L 14 99.5 L 11 99.5 L 11 94.5 L 10 94.5 L 10 99.5 L 7 99.5 L 7 94.5 L 6 94.5 L 6 100.5 L 15 100.5 L 15 94.5 L 14 94.5 L 14 94.5 Z" fill="#ffffff"/>
			</g>
			<g>
				<path d="M 6 156.5 L 6 158 L 12 160.4 L 6 163 L 6 164.5 L 15 164.5 L 15 163.5 L 7.3 163.5 L 13.5 160.9 L 13.5 160.1 L 7.3 157.5 L 15 157.5 L 15 156.5 L 6 156.5 L 6 156.5 Z" fill="#ffffff"/>
				<path d="M 6 149.7 L 10.4 152 L 6 154.4 L 6 155.5 L 11.2 152.5 L 15 152.5 L 15 151.5 L 11 151.5 L 6 148.5 L 6 149.7 L 6 149.7 Z" fill="#ffffff"/>
				<path d="M 7.5 137.8 C 7.2 138 6.8 138.3 6.6 138.6 C 6.4 138.9 6.3 139.3 6.2 139.6 C 6.1 140 6 140.5 6 141 L 6 143.5 L 15 143.5 L 15 142.5 L 12 142.5 L 12 141.2 C 12 140.5 11.9 140 11.8 139.5 C 11.6 139.1 11.3 138.7 11 138.3 C 10.8 138.1 10.4 137.9 10.1 137.7 C 9.7 137.6 9.3 137.5 8.9 137.5 C 8.3 137.5 7.9 137.6 7.5 137.8 L 7.5 137.8 ZM 9.7 138.6 C 10 138.7 10.2 138.6 10.4 138.4 C 10.6 139.1 10.8 139.6 10.9 140 C 11 140.3 11 140.8 11 141.3 L 11 142.5 L 7 142.5 L 7 141.1 C 7 140.7 7 140.3 7.1 140 C 7.2 139.8 7.3 139.4 7.4 138.9 C 7.5 138.9 7.8 138.8 8 138.7 C 8.3 138.6 8.6 138.5 8.9 138.5 C 9.2 138.5 9.5 138.5 9.7 138.6 L 9.7 138.6 Z" fill="#ffffff"/>
				<path d="M 10.7 132.8 C 10.5 132.1 10.2 131.5 9.8 131.1 C 9.4 130.7 8.9 130.5 8.3 130.5 C 7.8 130.5 7.5 130.6 7.2 130.8 C 6.9 131 6.6 131.2 6.5 131.6 C 6.3 131.9 6.2 132.2 6.1 132.6 C 6 132.9 6 133.4 6 133.9 L 6 136.5 L 15 136.5 L 15 135.5 L 11 135.5 L 11 133.7 L 15 130.4 L 15 129.5 L 10.7 132.8 L 10.7 132.8 ZM 9.1 131.7 C 9.3 131.8 9.4 131.8 9.6 131.9 C 9.8 132.3 9.9 132.6 9.9 133 C 10 133.3 10 133.7 10 134.1 L 10 135.5 L 7 135.5 L 7 133.9 C 7 133.5 7 133.2 7.1 132.9 C 7.1 132.6 7.2 132.4 7.3 132.2 C 7.4 131.9 7.5 131.8 7.7 131.7 C 7.9 131.6 8.1 131.5 8.3 131.5 C 8.6 131.5 8.9 131.6 9.1 131.7 L 9.1 131.7 Z" fill="#ffffff"/>
				<path d="M 6.3 122.8 C 6.1 123.3 6 123.9 6 124.5 C 6 125.1 6.1 125.7 6.3 126.2 C 6.5 126.7 6.8 127.1 7.2 127.4 C 7.6 127.8 8 128 8.6 128.2 C 9.2 128.4 9.8 128.5 10.5 128.5 C 11.2 128.5 11.9 128.4 12.4 128.2 C 13 128 13.5 127.8 13.8 127.4 C 14.2 127.1 14.5 126.7 14.7 126.2 C 14.9 125.7 15 125.1 15 124.5 C 15 123.9 14.9 123.3 14.7 122.9 C 14.5 122.4 14.2 122 13.8 121.6 C 13.5 121.3 13 121 12.4 120.8 C 11.9 120.6 11.2 120.5 10.5 120.5 C 9.8 120.5 9.2 120.6 8.6 120.8 C 8 121 7.6 121.3 7.2 121.6 C 6.8 121.9 6.5 122.4 6.3 122.8 L 6.3 122.8 ZM 13.1 122.3 C 13.7 122.9 14 123.6 14 124.5 C 14 125.4 13.7 126.2 13.1 126.7 C 12.5 127.2 11.6 127.5 10.5 127.5 C 9.4 127.5 8.5 127.2 7.9 126.7 C 7.3 126.2 7 125.4 7 124.5 C 7 123.6 7.3 122.8 7.9 122.3 C 8.5 121.8 9.4 121.5 10.5 121.5 C 11.6 121.5 12.5 121.8 13.1 122.3 L 13.1 122.3 Z" fill="#ffffff"/>
				<path d="M 6 113.5 L 6 119.5 L 15 119.5 L 15 118.5 L 11 118.5 L 11 114.5 L 10 114.5 L 10 118.5 L 7 118.5 L 7 113.5 L 6 113.5 L 6 113.5 Z" fill="#ffffff"/>
				<path d="M 14 109.5 L 14 110.5 L 7 110.5 L 7 109.5 L 6 109.5 L 6 112.5 L 7 112.5 L 7 111.5 L 14 111.5 L 14 112.5 L 15 112.5 L 15 109.5 L 14 109.5 L 14 109.5 Z" fill="#ffffff"/>
				<path d="M 14 101.5 L 14 106.5 L 6 106.5 L 6 107.5 L 15 107.5 L 15 101.5 L 14 101.5 L 14 101.5 Z" fill="#ffffff"/>
				<path d="M 14 94.5 L 14 99.5 L 11 99.5 L 11 94.5 L 10 94.5 L 10 99.5 L 7 99.5 L 7 94.5 L 6 94.5 L 6 100.5 L 15 100.5 L 15 94.5 L 14 94.5 L 14 94.5 Z" fill="#ffffff"/>
			</g>
		</g>
		<g visibility="hidden">
			<rect x="3.5" y="7.8" width="16" height="28.7" fill="#00661a"/>
			<path d="M 15.8 23.8 C 14.9 23.4 14 23.1 13 23 C 13 22.8 13.1 22.5 13.1 22.3 C 13.3 22.1 13.5 21.9 13.5 21.8 C 13.5 21.5 13.5 21.3 13.6 21.1 C 13.6 21.1 13.6 21.2 13.7 21.2 C 13.8 21.2 13.9 21.1 13.9 21 L 14 20 C 14 19.9 13.9 19.8 13.8 19.8 C 13.8 19.8 13.7 19.8 13.7 19.8 C 13.7 19.6 13.8 19.4 13.8 19.2 C 13.8 19 13.9 18.3 13.4 17.8 C 12.7 17.1 11.2 17.1 10.4 17.8 C 10 18.3 10.1 19 10.1 19.2 C 10.1 19.4 10.1 19.6 10.2 19.8 C 10.1 19.8 10.1 19.8 10.1 19.8 C 10 19.8 9.9 19.9 9.9 20 L 10 21 C 10 21.1 10.1 21.2 10.2 21.2 C 10.2 21.2 10.3 21.1 10.3 21.1 C 10.3 21.3 10.4 21.5 10.4 21.8 C 10.4 21.9 10.5 22.1 10.8 22.3 C 10.8 22.5 10.8 22.8 10.9 23 C 9.9 23.1 9 23.4 8.1 23.8 C 7.8 24 7.6 24.4 7.6 24.7 C 7.7 25 7.7 25.4 7.7 25.7 C 7.7 26.1 8 26.4 8.3 26.4 C 10.7 26.8 13.2 26.8 15.6 26.4 C 15.9 26.4 16.1 26.1 16.1 25.7 C 16.2 25.4 16.2 25 16.3 24.7 C 16.3 24.4 16.1 24 15.8 23.8 Z" fill="#ffffff"/>
		</g>
		<g visibility="hidden">
			<path d="M 0 2 L 15 2 C 18.3 2 21 3.9 21 6.2 L 21 27 L -6 27 L -6 6.2 C -6 3.9 -3.3 2 0 2 Z" stroke="#2b880b" stroke-width="2" fill="#006519"/>
			<path d="M 16 20.5 C 16 23.8 4 23.8 4 20.5 C 4 17.1 6.7 14.3 10 14.3 C 13.3 14.3 16 17.1 16 20.5 Z" fill="#ffffff"/>
			<path d="M 13.7 9.8 C 13.7 11.9 12 13.6 10 13.6 C 8 13.6 6.3 11.9 6.3 9.8 C 6.3 7.7 8 6 10 6 C 12 6 13.7 7.7 13.7 9.8 Z" fill="#ffffff"/>
			<path d="M 0 189 L 15.1 189 C 18.4 189 21 189.4 21 189.8 L 21 238.2 C 21 238.6 18.4 239 15.1 239 L 0 239 C 0 236.8 0 190.5 0 189 Z" stroke="#008c23" stroke-width="1" fill="url(#gradient1)"/>
			<path d="M 0 114 L 15.1 114 C 18.4 114 21 114.4 21 114.8 L 21 163.2 C 21 163.6 18.4 164 15.1 164 L 0 164 C 0 161.8 0 115.5 0 114 Z" stroke="#008c23" stroke-width="1" fill="url(#gradient2)"/>
			<path d="M 0 29 L 15.1 29 C 18.3 29 21 29.4 21 29.8 L 21 86.2 C 21 86.6 21.8 87 15.1 87 L 0 87 C 0 84.8 0 30.5 0 29 Z" stroke="#008c23" stroke-width="1" fill="url(#gradient3)"/>
			<rect x="0" y="88" width="21" height="25" stroke="#008c23" stroke-width="1" fill="#d9a300"/>
			<rect x="0" y="165" width="21" height="25" stroke="#008c23" stroke-width="1" fill="#004c66"/>
			<g>
				<rect x="4.5" y="171.7" width="12" height="2.8" fill="#ffffff"/>
				<rect x="4.5" y="175.8" width="12" height="2.8" fill="#ffffff"/>
				<rect x="4.5" y="180" width="12" height="2.8" fill="#ffffff"/>
			</g>
			<image x="4" y="93" width="14" height="16" xlink:href="profile_btn_es.svg.images/image1.png"/>
		</g>
		<g>
			<path d="M 0 2 L 15 2 C 18.3 2 21 3.9 21 6.2 L 21 27 L -6 27 L -6 6.2 C -6 3.9 -3.3 2 0 2 Z" stroke="#2b880b" stroke-width="2" fill="#006519"/>
			<path d="M 16 20.5 C 16 23.8 4 23.8 4 20.5 C 4 17.1 6.7 14.3 10 14.3 C 13.3 14.3 16 17.1 16 20.5 Z" fill="#ffffff"/>
			<path d="M 13.7 9.8 C 13.7 11.9 12 13.6 10 13.6 C 8 13.6 6.3 11.9 6.3 9.8 C 6.3 7.7 8 6 10 6 C 12 6 13.7 7.7 13.7 9.8 Z" fill="#ffffff"/>
			<path d="M 0 189 L 15.1 189 C 18.4 189 21 189.4 21 189.8 L 21 238.2 C 21 238.6 18.4 239 15.1 239 L 0 239 C 0 236.8 0 190.5 0 189 Z" stroke="#008c23" stroke-width="1" fill="url(#gradient4)"/>
			<path d="M 0 108 L 15.1 108 C 18.4 108 21 108.4 21 108.8 L 21 163.2 C 21 163.6 18.4 164 15.1 164 L 0 164 C 0 161.8 0 109.5 0 108 Z" stroke="#008c23" stroke-width="1" fill="url(#gradient5)"/>
			<path d="M 0 29 L 15.1 29 C 18.3 29 21 29.4 21 29.8 L 21 80.2 C 21 80.6 21.8 81 15.1 81 L 0 81 C 0 78.8 0 30.5 0 29 Z" stroke="#008c23" stroke-width="1" fill="url(#gradient6)"/>
			<rect x="0" y="82" width="21" height="25" stroke="#008c23" stroke-width="1" fill="#d9a300"/>
			<rect x="0" y="165" width="21" height="25" stroke="#008c23" stroke-width="1" fill="#004c66"/>
			<g>
				<rect x="4.5" y="171.7" width="12" height="2.8" fill="#ffffff"/>
				<rect x="4.5" y="175.8" width="12" height="2.8" fill="#ffffff"/>
				<rect x="4.5" y="180" width="12" height="2.8" fill="#ffffff"/>
			</g>
			<image x="4" y="87" width="14" height="16" xlink:href="profile_btn_es.svg.images/image2.png"/>
		</g>
		<text visibility="hidden" x="1" y="84.2" width="16" fill="#000000" style="font-weight: bold; font-size: 12px; font-family: Myriad Pro; color: #000000; text-align: left; "><tspan><![CDATA[PROFILE ]]></tspan></text>
		<text visibility="hidden" x="1" y="163.4" width="16" fill="#000000" style="font-weight: bold; font-size: 12px; font-family: Myriad Pro; color: #000000; text-align: center; "><tspan><![CDATA[FILTER]]></tspan></text>
		<text visibility="hidden" x="1" y="238.4" width="16" fill="#000000" style="font-weight: bold; font-size: 12px; font-family: Myriad Pro; color: #000000; text-align: center; "><tspan><![CDATA[MENU]]></tspan></text>
		<g id="SPANISH">
			<g>
				<path d="M 6.1 38.2 L 6.1 39.1 L 9 39.1 C 9 39.4 9 39.7 9 40 C 9 41.2 9.3 42.1 9.9 42.7 C 10.4 43 11.2 43.2 12.2 43.2 C 13.1 43.2 13.9 43 14.3 42.6 C 14.8 42.1 15 41.3 15 40.2 C 15 39.2 15 38.6 14.9 38.2 L 6.1 38.2 L 6.1 38.2 ZM 14.1 39.1 C 14.1 39.3 14.2 39.7 14.2 40.2 C 14.2 41.4 13.5 42.3 12.1 42.3 C 10.7 42.3 9.8 41.4 9.8 40.1 C 9.8 39.7 9.9 39.3 9.9 39.1 L 14.1 39.1 L 14.1 39.1 Z" fill="#000000"/>
				<path d="M 10.9 49.5 L 10.9 46.3 L 14.2 46.3 L 14.2 49.7 L 15 49.7 L 15 45.4 L 6 45.4 L 6 49.9 L 6.8 49.9 L 6.8 46.3 L 10.1 46.3 L 10.1 49.5 L 10.9 49.5 L 10.9 49.5 Z" fill="#000000"/>
				<path d="M 6.1 51.5 L 6.1 52.4 L 9.1 52.4 L 9.1 53.5 C 9 54.6 8.7 55.1 7.7 55.3 C 6.9 55.6 6.3 55.7 6.1 55.9 L 6.1 56.8 C 6.3 56.7 7 56.5 8 56.3 C 8.7 56.1 9.2 55.8 9.4 55.1 L 9.5 55.1 C 9.8 56 10.8 56.5 12.2 56.5 C 13.1 56.5 13.9 56.3 14.3 56 C 14.8 55.5 15 54.7 15 53.5 C 15 52.7 15 52 14.9 51.5 L 6.1 51.5 L 6.1 51.5 ZM 14 52.4 C 14.1 52.6 14.2 53 14.2 53.6 C 14.2 54.8 13.5 55.6 12.1 55.6 C 10.8 55.6 9.9 54.9 9.9 53.6 L 9.9 52.4 L 14 52.4 L 14 52.4 Z" fill="#000000"/>
				<path d="M 6.1 58.7 L 6.1 59.6 L 10.1 59.6 L 10.1 62.7 L 10.9 62.7 L 10.9 59.6 L 14.2 59.6 L 14.2 63 L 15 63 L 15 58.7 L 6.1 58.7 L 6.1 58.7 Z" fill="#000000"/>
				<path d="M 14.9 64.9 L 6.1 64.9 L 6.1 65.8 L 14.9 65.8 L 14.9 64.9 L 14.9 64.9 Z" fill="#000000"/>
				<path d="M 6 68 L 6 72.4 L 6.8 72.4 L 6.8 68.9 L 14.9 68.9 L 14.9 68 L 6 68 L 6 68 Z" fill="#000000"/>
			</g>
			<g>
				<path d="M 6.1 118.4 L 6.1 119.3 L 10.1 119.3 L 10.1 122.4 L 10.9 122.4 L 10.9 119.3 L 14.2 119.3 L 14.2 122.6 L 15 122.6 L 15 118.4 L 6.1 118.4 L 6.1 118.4 Z" fill="#000000"/>
				<path d="M 14.9 124.5 L 6.1 124.5 L 6.1 125.4 L 14.9 125.4 L 14.9 124.5 L 14.9 124.5 Z" fill="#000000"/>
				<path d="M 6 127.6 L 6 132 L 6.8 132 L 6.8 128.5 L 14.9 128.5 L 14.9 127.6 L 6 127.6 L 6 127.6 Z" fill="#000000"/>
				<path d="M 6.1 134.8 L 6.1 135.7 L 14.2 135.7 L 14.2 138.2 L 15 138.2 L 15 132.3 L 14.2 132.3 L 14.2 134.8 L 6.1 134.8 L 6.1 134.8 Z" fill="#000000"/>
				<path d="M 6.1 139.9 L 6.1 140.8 L 9.1 140.8 L 9.1 141.9 C 9 142.9 8.7 143.4 7.7 143.7 C 6.9 143.9 6.3 144.1 6.1 144.2 L 6.1 145.2 C 6.3 145 7 144.8 8 144.6 C 8.7 144.5 9.2 144.1 9.4 143.5 L 9.5 143.5 C 9.8 144.3 10.8 144.9 12.2 144.9 C 13.1 144.9 13.9 144.7 14.3 144.4 C 14.8 143.9 15 143.1 15 141.9 C 15 141.1 15 140.4 14.9 139.9 L 6.1 139.9 L 6.1 139.9 ZM 14 140.8 C 14.1 141 14.2 141.4 14.2 141.9 C 14.2 143.2 13.5 144 12.1 144 C 10.8 144 9.9 143.2 9.9 142 L 9.9 140.8 L 14 140.8 L 14 140.8 Z" fill="#000000"/>
				<path d="M 15 150.2 C 15 147.5 13.3 146.1 10.4 146.1 C 7.7 146.1 6 147.4 6 150 C 6 152.5 7.5 154.1 10.6 154.1 C 13.2 154.1 15 152.9 15 150.2 L 15 150.2 ZM 14.2 150.1 C 14.2 152.2 12.3 153.2 10.5 153.2 C 8.5 153.2 6.8 152.1 6.8 150.1 C 6.8 148.1 8.5 147 10.5 147 C 12.4 147 14.2 148 14.2 150.1 L 14.2 150.1 Z" fill="#000000"/>
			</g>
			<g>
				<path d="M 6.1 205.5 L 6.1 206.5 L 15 206 L 15 204.7 L 10.9 203.3 C 9.7 203 8.7 202.7 7.7 202.5 L 7.7 202.4 C 8.7 202.2 9.7 202 10.9 201.6 L 15 200.3 L 15 199 L 6.1 198.4 L 6.1 199.4 L 10 199.6 C 11.5 199.7 13 199.8 14.2 199.8 L 14.2 199.8 C 13.1 200 11.9 200.3 10.5 200.7 L 6.1 202 L 6.1 202.8 L 10.6 204.2 C 11.9 204.6 13.1 204.9 14.2 205.2 L 14.2 205.2 C 13 205.2 11.4 205.3 10.1 205.3 L 6.1 205.5 L 6.1 205.5 Z" fill="#000000"/>
				<path d="M 10.9 212.8 L 10.9 209.6 L 14.2 209.6 L 14.2 213 L 15 213 L 15 208.7 L 6 208.7 L 6 213.2 L 6.8 213.2 L 6.8 209.6 L 10.1 209.6 L 10.1 212.8 L 10.9 212.8 L 10.9 212.8 Z" fill="#000000"/>
				<path d="M 6.1 215.8 L 9.9 215.8 C 11.8 215.8 12.9 215.7 14.1 215.7 L 14.2 215.7 C 13.1 216.1 12 216.7 10.9 217.3 L 6.1 219.9 L 6.1 220.9 L 15 220.9 L 15 220 L 11.7 220 C 9.3 220 8.2 220 6.9 220.1 L 6.8 220.1 C 7.8 219.7 8.9 219.2 10 218.6 L 14.9 215.9 L 14.9 214.9 L 6 214.9 L 6.1 215.8 L 6.1 215.8 Z" fill="#000000"/>
				<path d="M 14.9 223.1 L 9.7 223.1 C 6.9 223.1 6 224.2 6 226 C 6 227.9 7 229.1 9.7 229.1 L 14.9 229.1 L 14.9 228.2 L 9.7 228.2 C 7.7 228.2 6.8 227.3 6.8 226 C 6.8 224.8 7.7 224 9.7 224 L 14.9 224 L 14.9 223.1 L 14.9 223.1 ZM 15.9 226.7 L 15.1 225.4 L 15.1 226.4 L 15.9 228.1 L 15.9 226.7 L 15.9 226.7 Z" fill="#000000"/>
			</g>
		</g>
		<g id="ENGLISH" visibility="hidden">
			<g>
				<path d="M 6.1 35 L 6.1 35.9 L 9 35.9 C 9 36.2 9 36.5 9 36.9 C 9 38 9.3 39 9.9 39.5 C 10.4 39.9 11.2 40 12.2 40 C 13.1 40 13.9 39.8 14.3 39.4 C 14.8 39 15 38.1 15 37 C 15 36.1 15 35.5 14.9 35 L 6.1 35 L 6.1 35 ZM 14.1 35.9 C 14.1 36.1 14.2 36.5 14.2 37 C 14.2 38.3 13.5 39.1 12.1 39.1 C 10.7 39.1 9.8 38.3 9.8 36.9 C 9.8 36.5 9.9 36.2 9.9 35.9 L 14.1 35.9 L 14.1 35.9 Z" fill="#000000"/>
				<path d="M 6.1 42.2 L 6.1 43.1 L 9.1 43.1 L 9.1 44.2 C 9 45.3 8.7 45.8 7.7 46 C 6.9 46.3 6.3 46.4 6.1 46.5 L 6.1 47.5 C 6.3 47.3 7 47.2 8 46.9 C 8.7 46.8 9.2 46.4 9.4 45.8 L 9.5 45.8 C 9.8 46.6 10.8 47.2 12.2 47.2 C 13.1 47.2 13.9 47 14.3 46.7 C 14.8 46.2 15 45.4 15 44.2 C 15 43.4 15 42.7 14.9 42.2 L 6.1 42.2 L 6.1 42.2 ZM 14 43.1 C 14.1 43.3 14.2 43.7 14.2 44.3 C 14.2 45.5 13.5 46.3 12.1 46.3 C 10.8 46.3 9.9 45.5 9.9 44.3 L 9.9 43.1 L 14 43.1 L 14 43.1 Z" fill="#000000"/>
				<path d="M 15 52.5 C 15 49.9 13.3 48.4 10.4 48.4 C 7.7 48.4 6 49.7 6 52.3 C 6 54.8 7.5 56.5 10.6 56.5 C 13.2 56.5 15 55.2 15 52.5 L 15 52.5 ZM 14.2 52.4 C 14.2 54.5 12.3 55.6 10.5 55.6 C 8.5 55.6 6.8 54.4 6.8 52.4 C 6.8 50.4 8.5 49.3 10.5 49.3 C 12.4 49.3 14.2 50.3 14.2 52.4 L 14.2 52.4 Z" fill="#000000"/>
				<path d="M 6.1 58.6 L 6.1 59.5 L 10.1 59.5 L 10.1 62.7 L 10.9 62.7 L 10.9 59.5 L 14.2 59.5 L 14.2 62.9 L 15 62.9 L 15 58.6 L 6.1 58.6 L 6.1 58.6 Z" fill="#000000"/>
				<path d="M 14.9 64.8 L 6.1 64.8 L 6.1 65.7 L 14.9 65.7 L 14.9 64.8 L 14.9 64.8 Z" fill="#000000"/>
				<path d="M 6 67.9 L 6 72.3 L 6.8 72.3 L 6.8 68.8 L 14.9 68.8 L 14.9 67.9 L 6 67.9 L 6 67.9 Z" fill="#000000"/>
				<path d="M 10.9 78.1 L 10.9 74.9 L 14.2 74.9 L 14.2 78.3 L 15 78.3 L 15 74 L 6 74 L 6 78.5 L 6.8 78.5 L 6.8 74.9 L 10.1 74.9 L 10.1 78.1 L 10.9 78.1 L 10.9 78.1 Z" fill="#000000"/>
			</g>
			<g>
				<path d="M 6.1 122.9 L 6.1 123.8 L 10.1 123.8 L 10.1 126.9 L 10.9 126.9 L 10.9 123.8 L 14.2 123.8 L 14.2 127.2 L 15 127.2 L 15 122.9 L 6.1 122.9 L 6.1 122.9 Z" fill="#000000"/>
				<path d="M 14.9 129.1 L 6.1 129.1 L 6.1 129.9 L 14.9 129.9 L 14.9 129.1 L 14.9 129.1 Z" fill="#000000"/>
				<path d="M 6 132.1 L 6 136.6 L 6.8 136.6 L 6.8 133 L 14.9 133 L 14.9 132.1 L 6 132.1 L 6 132.1 Z" fill="#000000"/>
				<path d="M 6.1 139.3 L 6.1 140.2 L 14.2 140.2 L 14.2 142.7 L 15 142.7 L 15 136.8 L 14.2 136.8 L 14.2 139.3 L 6.1 139.3 L 6.1 139.3 Z" fill="#000000"/>
				<path d="M 10.9 148.6 L 10.9 145.3 L 14.2 145.3 L 14.2 148.8 L 15 148.8 L 15 144.4 L 6 144.4 L 6 148.9 L 6.8 148.9 L 6.8 145.3 L 10.1 145.3 L 10.1 148.6 L 10.9 148.6 L 10.9 148.6 Z" fill="#000000"/>
				<path d="M 6.1 150.6 L 6.1 151.5 L 9.1 151.5 L 9.1 152.6 C 9 153.6 8.7 154.1 7.7 154.4 C 6.9 154.6 6.3 154.8 6.1 154.9 L 6.1 155.9 C 6.3 155.7 7 155.5 8 155.3 C 8.7 155.2 9.2 154.8 9.4 154.2 L 9.5 154.2 C 9.8 155 10.8 155.6 12.2 155.6 C 13.1 155.6 13.9 155.4 14.3 155.1 C 14.8 154.6 15 153.8 15 152.6 C 15 151.8 15 151.1 14.9 150.6 L 6.1 150.6 L 6.1 150.6 ZM 14 151.5 C 14.1 151.7 14.2 152.1 14.2 152.6 C 14.2 153.9 13.5 154.7 12.1 154.7 C 10.8 154.7 9.9 153.9 9.9 152.7 L 9.9 151.5 L 14 151.5 L 14 151.5 Z" fill="#000000"/>
			</g>
			<g>
				<path d="M 6.1 205.5 L 6.1 206.5 L 15 206 L 15 204.7 L 10.9 203.3 C 9.7 203 8.7 202.7 7.7 202.5 L 7.7 202.4 C 8.7 202.2 9.7 202 10.9 201.6 L 15 200.3 L 15 199 L 6.1 198.4 L 6.1 199.4 L 10 199.6 C 11.5 199.7 13 199.8 14.2 199.8 L 14.2 199.8 C 13.1 200 11.9 200.3 10.5 200.7 L 6.1 202 L 6.1 202.8 L 10.6 204.2 C 11.9 204.6 13.1 204.9 14.2 205.2 L 14.2 205.2 C 13 205.2 11.4 205.3 10.1 205.3 L 6.1 205.5 L 6.1 205.5 Z" fill="#000000"/>
				<path d="M 10.9 212.8 L 10.9 209.6 L 14.2 209.6 L 14.2 213 L 15 213 L 15 208.7 L 6 208.7 L 6 213.2 L 6.8 213.2 L 6.8 209.6 L 10.1 209.6 L 10.1 212.8 L 10.9 212.8 L 10.9 212.8 Z" fill="#000000"/>
				<path d="M 6.1 215.8 L 9.9 215.8 C 11.8 215.8 12.9 215.7 14.1 215.7 L 14.2 215.7 C 13.1 216.1 12 216.7 10.9 217.3 L 6.1 219.9 L 6.1 220.9 L 15 220.9 L 15 220 L 11.7 220 C 9.3 220 8.2 220 6.9 220.1 L 6.8 220.1 C 7.8 219.7 8.9 219.2 10 218.6 L 14.9 215.9 L 14.9 214.9 L 6 214.9 L 6.1 215.8 L 6.1 215.8 Z" fill="#000000"/>
				<path d="M 14.9 223.1 L 9.7 223.1 C 6.9 223.1 6 224.2 6 226 C 6 227.9 7 229.1 9.7 229.1 L 14.9 229.1 L 14.9 228.2 L 9.7 228.2 C 7.7 228.2 6.8 227.3 6.8 226 C 6.8 224.8 7.7 224 9.7 224 L 14.9 224 L 14.9 223.1 L 14.9 223.1 Z" fill="#000000"/>
			</g>
		</g>
	</g>
</svg>