<?xml version="1.0" encoding="utf-8"?>
<!-- Generator: Adobe Illustrator 16.0.4, SVG Export Plug-In . SVG Version: 6.00 Build 0)  -->
<!DOCTYPE svg PUBLIC "-//W3C//DTD SVG 1.1//EN" "http://www.w3.org/Graphics/SVG/1.1/DTD/svg11.dtd">
<svg version="1.1" id="Capa_1" xmlns="http://www.w3.org/2000/svg" xmlns:xlink="http://www.w3.org/1999/xlink" x="0px" y="0px"
	 width="612px" height="792px" viewBox="0 0 612 792" enable-background="new 0 0 612 792" xml:space="preserve">
<path d="M533.089,641.518c-0.396-4.383-0.396-7.568,0-9.562V502.862V373.768c0.398-5.577-0.199-8.965-1.793-10.159
	c-1.594-1.195-4.781-1.793-9.562-1.793h-3.586h-15.539h-17.332v-21.218v-23.309c0,0-0.301-7.172-0.896-21.516
	c-0.597-14.344-1.494-22.113-2.688-23.309c-1.195-1.196-2.891-8.068-5.08-20.619c-2.191-12.551-5.08-19.523-8.666-20.918
	c-13.945-29.484-35.361-53.191-64.248-71.121c-28.889-17.93-59.867-26.894-92.938-26.894c-3.188,0-6.375,0.199-9.562,0.598
	c-40.641-0.797-77.496,12.65-110.566,40.342c-33.07,27.692-52.793,61.459-59.168,101.303c-1.195,8.367-1.893,17.432-2.092,27.193
	c-0.199,9.761-0.199,20.619,0,32.572c0.199,11.953,0.299,20.918,0.299,26.896H115.03H98.593H84.847
	c-2.789,0-4.582,0.696-5.379,2.092c-0.797,1.395-0.996,3.686-0.598,6.873v17.332v264.761c0.797,3.188,2.689,5.08,5.678,5.678
	c2.989,0.6,6.773,0.697,11.355,0.299c4.582-0.396,7.869-0.396,9.861,0h421.348c3.188-1.193,5.08-3.287,5.678-6.273
	C533.388,649.588,533.487,645.902,533.089,641.518z M346.023,510.33c-5.182,7.769-11.756,13.447-19.725,17.033
	c0,1.594,0.199,3.188,0.6,4.779l11.951,58.57H270.12l11.953-55.582c0.797-3.188,1.195-6.176,1.195-8.965
	c-7.57-3.984-13.646-9.662-18.229-17.033s-6.873-15.438-6.873-24.205c0-8.766,2.391-16.934,7.172-24.504
	c2.789-5.578,6.773-10.16,11.953-13.746c8.367-6.771,17.93-10.16,28.688-10.16h2.99v0.004c11.953,0,21.715,4.779,29.285,14.344
	c10.359,9.164,15.539,20.52,15.539,34.064C353.793,494.094,351.203,502.562,346.023,510.33z M186.449,360.022
	c0-5.578-0.1-14.644-0.299-27.193c-0.199-12.55-0.199-22.412,0-29.584c0.199-7.172,1.494-15.738,3.885-25.699
	c2.391-9.961,5.777-18.926,10.16-26.895c9.562-18.328,23.607-32.971,42.135-43.928c18.528-10.957,38.15-16.236,58.869-15.838
	c2.789-0.399,5.777-0.598,8.965-0.598c21.914,0,42.533,5.578,61.857,16.734c19.322,11.156,33.768,26.496,43.328,46.02
	c3.984,7.969,6.975,16.834,8.967,26.596c1.99,9.762,3.088,18.229,3.285,25.4c0.199,7.171,0.199,16.635,0,28.389
	c-0.197,11.754-0.1,20.619,0.301,26.597H186.449z"/>
</svg>
