<?xml version="1.0" standalone="no"?>

<svg viewBox="0 0 20 20" style="background-color:#ffffff00" version="1.1" xmlns="http://www.w3.org/2000/svg" xmlns:xlink="http://www.w3.org/1999/xlink" xml:space="preserve" x="0px" y="0px" width="100%" height="100%">
	<g id="Layer%201">
		<g id="perfil" visibility="hidden">
			<path d="M 17 17 C 17 21 3 21 3 17 C 3 13 6.1 9.8 10 9.8 C 13.9 9.8 17 13 17 17 Z" fill="#ffffff"/>
			<path d="M 14.3 4.4 C 14.3 6.9 12.4 8.9 10 8.9 C 7.6 8.9 5.7 6.9 5.7 4.4 C 5.7 2 7.6 0 10 0 C 12.4 0 14.3 2 14.3 4.4 Z" fill="#ffffff"/>
		</g>
		<path id="mail" visibility="hidden" d="M 19.9 4.3 C 19.9 4.3 19.4 3.5 19.2 3.2 C 18.8 2.9 18.2 2.5 17.4 2.5 L 17.3 2.5 L 2.7 2.5 L 2.6 2.5 C 1.8 2.5 1.2 2.8 0.9 3.2 C 0.6 3.4 0.4 3.7 0.3 4 C 0.2 4 0.2 4.1 0.2 4.1 C 0.2 4.1 0 4.7 0 5.1 L 0 14.9 C 0 16.3 1.2 17.5 2.7 17.5 L 17.3 17.5 C 18.8 17.5 20 16.3 20 14.9 L 20 5.1 C 20 4.8 20 4.6 19.9 4.3 ZM 17.3 3.7 C 17.7 3.7 18.1 3.8 18.3 4.1 L 10.7 10.4 C 10.4 10.6 10.2 10.7 10.1 10.7 C 9.9 10.7 9.6 10.5 9.4 10.4 L 1.5 4.2 C 1.5 4.2 1.5 4.2 1.5 4.2 C 1.6 4.1 1.6 4.1 1.6 4.1 C 1.9 3.8 2.3 3.7 2.7 3.7 L 17.3 3.7 ZM 17.3 16.3 L 2.7 16.3 C 1.8 16.3 1.2 15.7 1.2 14.9 L 1.2 5.4 L 8.7 11.3 C 9.1 11.6 9.6 11.9 10.1 11.9 L 10.1 11.9 C 10.6 11.9 11 11.6 11.5 11.3 L 18.8 5.2 L 18.8 14.9 C 18.8 15.7 18.2 16.3 17.3 16.3 Z" fill="#ffffff"/>
		<g id="arroba" visibility="hidden">
			<path d="M 18.5 14.7 C 18.5 14.2 18.1 13.9 17.6 13.9 C 17.3 13.9 17.1 14.1 17 14.4 L 17 14.4 C 16.3 15.2 15.6 16.1 14.3 16.7 C 13.3 17.1 12.1 17.3 10.7 17.3 C 9.2 17.3 7.9 17 6.7 16.5 C 5.6 16 4.7 15.2 4.1 14.2 C 3.4 13.1 3.1 11.9 3.1 10.6 C 3.1 9.2 3.4 7.9 4 6.7 C 4.5 5.4 5.4 4.4 6.5 3.8 C 7.6 3.1 9 2.7 10.6 2.7 C 12.5 2.7 14 3.2 15 4.3 C 16.1 5.3 16.6 6.6 16.6 8.1 C 16.6 9 16.4 9.8 16.1 10.6 C 15.7 11.4 15.2 12 14.6 12.5 C 14.1 12.9 13.8 13.1 13.5 13.1 C 13.4 13.1 13.3 13 13.2 12.9 C 13.2 12.9 13.1 12.7 13.1 12.6 C 13.1 12.5 13.2 12.2 13.3 11.8 L 14.3 6.2 C 14.4 6.2 14.4 6.2 14.4 6.1 L 14.4 6.1 L 14.4 6.1 C 14.4 6.1 14.4 6 14.4 5.9 C 14.4 5.3 13.9 4.7 13.2 4.7 C 12.7 4.7 12.2 5.2 12.1 5.7 L 12 6.1 C 11.5 5.2 10.7 4.8 9.7 4.8 C 8.2 4.8 7 5.6 6 7 C 5.2 8.2 4.9 9.6 4.9 11 C 4.9 12.2 5.2 13.2 5.8 13.9 C 6.5 14.6 7.3 15 8.3 15 C 9.2 15 10 14.6 10.7 13.9 C 10.8 14.2 11 14.5 11.2 14.7 C 11.5 14.9 11.8 15 12.3 15 C 14.2 15 15.7 14.2 16.8 12.5 C 17.8 11.2 18.2 9.8 18.2 8.2 C 18.2 6.9 17.9 5.7 17.3 4.5 C 16.7 3.4 15.8 2.5 14.6 1.9 C 13.5 1.3 12.1 1 10.6 1 C 8.9 1 7.3 1.4 5.9 2.1 C 4.6 2.9 3.5 4 2.7 5.5 C 1.9 7.1 1.5 8.7 1.5 10.4 C 1.5 12 1.8 13.5 2.5 14.9 C 3.2 16.2 4.3 17.3 5.7 18 C 7.2 18.7 8.8 19 10.8 19 C 12.3 19 13.4 18.8 14.4 18.4 L 14.4 18.4 C 14.4 18.4 16.8 17.6 18.2 15.4 C 18.2 15.4 18.5 15 18.5 14.7 ZM 11.2 10.7 C 11 11.5 10.7 12 10.4 12.4 C 10.2 12.7 9.9 12.9 9.7 13 C 9.4 13.2 9.1 13.3 8.8 13.3 C 8.3 13.3 7.9 13.1 7.6 12.7 C 7.3 12.3 7.2 11.7 7.2 10.9 C 7.2 10.3 7.3 9.7 7.5 8.9 C 7.7 8.1 8 7.5 8.5 7.1 C 8.9 6.7 9.4 6.5 9.9 6.5 C 10.4 6.5 10.8 6.7 11.1 7.1 C 11.4 7.4 11.5 8 11.5 8.7 C 11.5 9.3 11.4 10 11.2 10.7 Z" fill="#ffffff"/>
		</g>
		<g id="phone" visibility="hidden">
			<path d="M 12 12.9 C 11.7 13.5 12 14.2 10.9 14.2 C 10.5 14.2 9.3 12.9 8.4 12 C 7.7 11.1 6.1 9.1 6.2 8.6 C 6.3 7.5 7 7.9 7.6 7.8 C 7.9 7.7 8.3 3.9 4.9 0.1 C 4.7 0 4.3 -0.1 4 0.2 C 2.9 1 1.7 1.9 1.2 3.8 C 0.9 5.2 0.4 7.5 4.2 12.9 C 4.5 13.4 5 14 5.7 14.8 C 5.9 14.9 6 15.1 6.1 15.2 C 11 20.3 13.4 20.1 14.8 19.9 C 16.8 19.7 17.8 18.6 18.7 17.7 C 19 17.4 19 17 18.9 16.8 C 15.8 12.7 12 12.7 12 12.9 ZM 6.5 14.3 C 6.4 14.2 6.3 14.1 6.1 14 C 5.5 13.4 5.1 12.8 4.8 12.4 C 1.4 8.1 1.7 6.1 2 4.9 C 2.3 3.3 3.3 2.5 4.1 1.8 C 4.4 1.5 4.8 1.5 4.9 1.6 C 5.1 1.8 5.2 2 5.4 2.2 C 5.4 2.2 5.3 2.2 5.3 2.2 C 4.4 2.9 3.4 3.6 3 5.3 C 2.7 6.5 2.2 8.4 5.5 12.9 C 5.7 13.4 6.1 13.9 6.7 14.6 C 6.7 14.6 6.8 14.6 6.8 14.6 C 6.7 14.5 6.6 14.4 6.5 14.3 Z" fill="#ffffff"/>
		</g>
		<g id="location">
			<path d="M 10 0 C 5.9 0 2.5 3.5 2.5 7.8 C 2.5 12.2 8.2 20 10 20 C 12 20 17.5 12.2 17.5 7.8 C 17.5 3.5 14.1 0 10 0 ZM 10 13.2 C 7 13.2 4.6 10.7 4.6 7.7 C 4.6 4.6 7 2.2 10 2.2 C 13 2.2 15.4 4.6 15.4 7.7 C 15.4 10.7 13 13.2 10 13.2 Z" fill="#ffffff"/>
		</g>
		<g visibility="hidden">
			<path d="M 10.6 15.1 C 10.4 15.1 10.2 15.1 10 15.2 C 7.1 15.3 4.6 13 4.4 10.1 C 4.4 8.6 4.8 7.2 5.8 6.2 C 6.7 5.1 8 4.5 9.4 4.4 C 9.5 4.4 9.6 4.4 9.7 4.4 C 12.5 4.4 14.8 6.6 15 9.5 C 15 9.9 15 10.2 14.9 10.6 L 16.8 12.4 C 16.9 12 17.1 11.6 17.1 11.2 L 18.9 10.8 L 18.9 10.3 L 18.8 9 L 18.8 8.5 L 17.1 8.3 C 17.1 8 17 7.6 16.8 7.2 L 18.2 6 L 17.9 5.6 L 17.2 4.5 L 16.9 4.1 L 15.5 4.8 C 15.2 4.5 14.9 4.2 14.6 3.9 L 15.2 2.2 L 14.7 2 L 13.6 1.4 L 13.2 1.2 L 12.2 2.5 C 11.9 2.4 11.5 2.3 11.1 2.2 L 10.7 0.5 L 10.2 0.5 L 9 0.6 L 8.5 0.6 L 8.3 2.2 C 7.9 2.3 7.5 2.4 7.1 2.5 L 6 1.2 L 5.6 1.5 L 4.5 2.2 L 4.1 2.5 L 4.8 4 C 4.5 4.2 4.3 4.4 4.1 4.6 C 4 4.7 4 4.8 3.9 4.8 L 2.2 4.3 L 2 4.7 L 1.4 5.8 L 1.2 6.3 L 2.6 7.3 C 2.4 7.6 2.3 8 2.3 8.4 L 0.5 8.8 L 0.5 9.3 L 0.6 10.5 L 0.6 11 L 2.3 11.2 C 2.4 11.6 2.5 12 2.6 12.3 L 1.2 13.5 L 1.5 14 L 2.2 15 L 2.5 15.4 L 4 14.8 C 4.2 15.1 4.5 15.3 4.8 15.6 L 4.2 17.3 L 4.7 17.5 L 5.8 18.1 L 6.2 18.3 L 7.2 17 C 7.6 17.1 7.9 17.3 8.3 17.3 L 8.7 19 L 9.2 19 L 10.5 18.9 L 11 18.9 L 11.1 17.3 C 11.6 17.2 12 17.1 12.4 16.9 L 10.6 15.1 Z" fill="#ffffff"/>
			<path d="M 19.5 17.1 C 19.5 16.8 19.4 16.4 19.2 16.3 C 17.2 14.3 15.3 12.4 13.3 10.5 C 13.6 9.3 13.2 8 12.3 7 C 11.2 5.9 9.7 5.7 8.3 6.2 L 10.4 8.3 C 10.5 8.4 10.5 8.7 10.4 8.9 L 9 10.3 C 8.8 10.5 8.5 10.5 8.3 10.3 L 6.3 8.3 C 5.8 9.6 6 11.2 7.1 12.3 C 8 13.2 9.4 13.5 10.6 13.2 C 12.5 15.2 14.4 17.2 16.3 19.2 C 16.5 19.4 16.9 19.5 17.2 19.5 C 18.3 19.3 19.3 18.3 19.5 17.1 Z" fill="#ffffff"/>
		</g>
	</g>
</svg>