<?xml version="1.0" standalone="no"?>

<svg viewBox="0 0 44 44" style="background-color:#ffffff00" version="1.1" xmlns="http://www.w3.org/2000/svg" xmlns:xlink="http://www.w3.org/1999/xlink" xml:space="preserve" x="0px" y="0px" width="100%" height="100%">
	<defs>
		<linearGradient id="gradient1" x1="0%" y1="50%" x2="100%" y2="50%">
			<stop stop-color="#858585" stop-opacity="1" offset="1%"/>
			<stop stop-color="#e3e3e3" stop-opacity="1" offset="26%"/>
			<stop stop-color="#e6e6e6" stop-opacity="1" offset="78%"/>
			<stop stop-color="#8c8c8c" stop-opacity="1" offset="99%"/>
		</linearGradient>
		<linearGradient id="gradient2" x1="0%" y1="50%" x2="100%" y2="50%">
			<stop stop-color="#858585" stop-opacity="1" offset="1%"/>
			<stop stop-color="#e3e3e3" stop-opacity="1" offset="26%"/>
			<stop stop-color="#353535" stop-opacity="1" offset="52%"/>
			<stop stop-color="#e6e6e6" stop-opacity="1" offset="78%"/>
			<stop stop-color="#8c8c8c" stop-opacity="1" offset="99%"/>
		</linearGradient>
		<linearGradient id="gradient3" x1="23.5%" y1="66.5%" x2="78.7%" y2="36.6%">
			<stop stop-color="#858585" stop-opacity="1" offset="1%"/>
			<stop stop-color="#e3e3e3" stop-opacity="1" offset="26%"/>
			<stop stop-color="#353535" stop-opacity="1" offset="52%"/>
			<stop stop-color="#e6e6e6" stop-opacity="1" offset="78%"/>
			<stop stop-color="#8c8c8c" stop-opacity="1" offset="99%"/>
		</linearGradient>
		<linearGradient id="gradient4" x1="20.9%" y1="66.7%" x2="79.1%" y2="33.3%">
			<stop stop-color="#858585" stop-opacity="1" offset="1%"/>
			<stop stop-color="#e3e3e3" stop-opacity="1" offset="26%"/>
			<stop stop-color="#353535" stop-opacity="1" offset="52%"/>
			<stop stop-color="#e6e6e6" stop-opacity="1" offset="78%"/>
			<stop stop-color="#8c8c8c" stop-opacity="1" offset="99%"/>
		</linearGradient>
		<linearGradient id="gradient5" x1="76.5%" y1="66.5%" x2="21.3%" y2="36.6%">
			<stop stop-color="#858585" stop-opacity="1" offset="1%"/>
			<stop stop-color="#e3e3e3" stop-opacity="1" offset="26%"/>
			<stop stop-color="#353535" stop-opacity="1" offset="52%"/>
			<stop stop-color="#e6e6e6" stop-opacity="1" offset="78%"/>
			<stop stop-color="#8c8c8c" stop-opacity="1" offset="99%"/>
		</linearGradient>
		<linearGradient id="gradient6" x1="79.1%" y1="66.7%" x2="20.9%" y2="33.3%">
			<stop stop-color="#858585" stop-opacity="1" offset="1%"/>
			<stop stop-color="#e3e3e3" stop-opacity="1" offset="26%"/>
			<stop stop-color="#353535" stop-opacity="1" offset="52%"/>
			<stop stop-color="#e6e6e6" stop-opacity="1" offset="78%"/>
			<stop stop-color="#8c8c8c" stop-opacity="1" offset="99%"/>
		</linearGradient>
		<linearGradient id="gradient7" x1="99.2%" y1="51.2%" x2="-0.3%" y2="48.8%">
			<stop stop-color="#be7200" stop-opacity="1" offset="1%"/>
			<stop stop-color="#531600" stop-opacity="1" offset="99%"/>
		</linearGradient>
		<linearGradient id="gradient8" x1="85.2%" y1="61.7%" x2="44.5%" y2="48.2%">
			<stop stop-color="#989898" stop-opacity="1" offset="1%"/>
			<stop stop-color="#f4f1f4" stop-opacity="1" offset="99%"/>
		</linearGradient>
		<linearGradient id="gradient9" x1="5.1%" y1="41.5%" x2="109.8%" y2="61.3%">
			<stop stop-color="#8ebeb4" stop-opacity="1" offset="1%"/>
			<stop stop-color="#286049" stop-opacity="1" offset="99%"/>
		</linearGradient>
		<linearGradient id="gradient10" x1="0%" y1="50%" x2="100%" y2="50%">
			<stop stop-color="#e5e5e5" stop-opacity="1" offset="1%"/>
			<stop stop-color="#989898" stop-opacity="1" offset="99%"/>
		</linearGradient>
		<linearGradient id="gradient11" x1="0%" y1="50%" x2="100%" y2="50%">
			<stop stop-color="#989898" stop-opacity="1" offset="1%"/>
			<stop stop-color="#e5e5e5" stop-opacity="1" offset="99%"/>
		</linearGradient>
		<linearGradient id="gradient12" x1="0%" y1="50%" x2="100%" y2="50%">
			<stop stop-color="#60907c" stop-opacity="1" offset="1%"/>
			<stop stop-color="#164123" stop-opacity="1" offset="99%"/>
		</linearGradient>
		<linearGradient id="gradient13" x1="94.7%" y1="48.7%" x2="2.5%" y2="51.4%">
			<stop stop-color="#8ebeb4" stop-opacity="1" offset="1%"/>
			<stop stop-color="#286049" stop-opacity="1" offset="99%"/>
		</linearGradient>
		<linearGradient id="gradient14" x1="0%" y1="50%" x2="100%" y2="50%">
			<stop stop-color="#8ebeb4" stop-opacity="1" offset="1%"/>
			<stop stop-color="#286049" stop-opacity="1" offset="99%"/>
		</linearGradient>
		<linearGradient id="gradient15" x1="0%" y1="50%" x2="100%" y2="50%">
			<stop stop-color="#8ebeb4" stop-opacity="1" offset="1%"/>
			<stop stop-color="#286049" stop-opacity="1" offset="99%"/>
		</linearGradient>
		<linearGradient id="gradient16" x1="0%" y1="50%" x2="100%" y2="50%">
			<stop stop-color="#8ebeb4" stop-opacity="1" offset="1%"/>
			<stop stop-color="#286049" stop-opacity="1" offset="99%"/>
		</linearGradient>
		<linearGradient id="gradient17" x1="0%" y1="50%" x2="100%" y2="50%">
			<stop stop-color="#60907c" stop-opacity="1" offset="1%"/>
			<stop stop-color="#164123" stop-opacity="1" offset="99%"/>
		</linearGradient>
		<linearGradient id="gradient18" x1="0%" y1="50%" x2="100%" y2="50%">
			<stop stop-color="#60907c" stop-opacity="1" offset="1%"/>
			<stop stop-color="#164123" stop-opacity="1" offset="99%"/>
		</linearGradient>
		<linearGradient id="gradient19" x1="0%" y1="50%" x2="100%" y2="50%">
			<stop stop-color="#8ebeb4" stop-opacity="1" offset="1%"/>
			<stop stop-color="#286049" stop-opacity="1" offset="99%"/>
		</linearGradient>
		<linearGradient id="gradient20" x1="0%" y1="50%" x2="100%" y2="50%">
			<stop stop-color="#8ebeb4" stop-opacity="1" offset="1%"/>
			<stop stop-color="#286049" stop-opacity="1" offset="99%"/>
		</linearGradient>
		<linearGradient id="gradient21" x1="101.2%" y1="51.3%" x2="-2.2%" y2="48.7%">
			<stop stop-color="#8ebeb4" stop-opacity="1" offset="1%"/>
			<stop stop-color="#286049" stop-opacity="1" offset="99%"/>
		</linearGradient>
		<linearGradient id="gradient22" x1="25.1%" y1="5.2%" x2="74.6%" y2="72%">
			<stop stop-color="#666e75" stop-opacity="1" offset="1%"/>
			<stop stop-color="#0f3340" stop-opacity="1" offset="99%"/>
		</linearGradient>
		<linearGradient id="gradient23" x1="43.1%" y1="9.3%" x2="57.9%" y2="74.6%">
			<stop stop-color="#666e75" stop-opacity="1" offset="1%"/>
			<stop stop-color="#0f3340" stop-opacity="1" offset="99%"/>
		</linearGradient>
		<linearGradient id="gradient24" x1="44.6%" y1="16.4%" x2="60.8%" y2="78.3%">
			<stop stop-color="#666e75" stop-opacity="1" offset="1%"/>
			<stop stop-color="#0f3340" stop-opacity="1" offset="99%"/>
		</linearGradient>
		<linearGradient id="gradient25" x1="38%" y1="7.4%" x2="67.7%" y2="91.6%">
			<stop stop-color="#666e75" stop-opacity="1" offset="1%"/>
			<stop stop-color="#0f3340" stop-opacity="1" offset="99%"/>
		</linearGradient>
		<linearGradient id="gradient26" x1="45.2%" y1="9.3%" x2="55.6%" y2="68.6%">
			<stop stop-color="#666e75" stop-opacity="1" offset="1%"/>
			<stop stop-color="#0f3340" stop-opacity="1" offset="99%"/>
		</linearGradient>
	</defs>
	<g>
		<path d="M 16.5 2 C 14.3 2 12.5 3.8 12.5 5.9 C 12.5 8.1 14.3 9.8 16.5 9.8 C 18.7 9.8 20.4 8.1 20.4 5.9 C 20.4 3.8 18.7 2 16.5 2 ZM 16.5 8.8 C 14.8 8.8 13.5 7.5 13.5 5.9 C 13.5 4.3 14.8 3 16.5 3 C 18.1 3 19.5 4.3 19.5 5.9 C 19.5 7.5 18.1 8.8 16.5 8.8 Z" fill="url(#gradient1)"/>
		<g opacity="0.5">
			<path opacity="0.3" d="M 18.9 7.6 C 18 8.9 16.2 9.3 14.8 8.4 C 14.7 8.3 14.6 8.2 14.4 8.1 C 14.6 8.4 14.9 8.6 15.2 8.8 C 16.6 9.7 18.4 9.3 19.3 7.9 C 20.1 6.7 19.9 5.1 18.8 4.2 C 19.6 5.1 19.7 6.5 18.9 7.6 Z" fill="#2a2a2a"/>
		</g>
		<g opacity="0.5">
			<path d="M 14.1 3.4 C 14.9 2.7 16 2.2 17.2 2.4 C 17.8 2.5 18.8 2.9 18.7 2.8 C 17.5 1.8 15.2 1.8 13.8 3.1 C 12.5 4.4 12.2 6.1 13 7.5 C 12.6 6.2 13 4.4 14.1 3.4 Z" fill="#ffffff"/>
		</g>
		<path d="M 18.4 7.1 C 18.4 7.3 17.5 7.5 16.5 7.5 C 15.5 7.5 14.6 7.3 14.6 7.1 C 14.6 6.8 15.5 6.6 16.5 6.6 C 17.5 6.6 18.4 6.8 18.4 7.1 Z" fill="#4b4b4b"/>
		<path d="M 17.9 9.8 C 17.9 10 17.3 10.1 16.6 10.1 C 15.8 10.1 15.2 10 15.2 9.8 C 15.2 9.7 15.8 9.6 16.6 9.6 C 17.3 9.6 17.9 9.7 17.9 9.8 Z" fill="#888888"/>
		<g>
			<path d="M 16.5 4.3 C 15.5 4.3 14.6 4.5 14.6 4.7 L 14.6 7.2 C 14.6 6.9 15.5 6.7 16.5 6.7 C 17.5 6.7 18.4 6.9 18.4 7.2 L 18.4 4.7 C 18.4 4.5 17.5 4.3 16.5 4.3 Z" fill="#7b7b7b"/>
		</g>
		<path d="M 17.9 7.2 C 17.9 7 17.3 6.9 16.5 6.9 C 15.8 6.9 15.2 7 15.2 7.2 L 15.2 9.8 L 15.2 9.8 C 15.3 9.7 15.9 9.6 16.6 9.6 C 17.3 9.6 17.9 9.7 17.9 9.8 L 17.9 7.2 Z" fill="url(#gradient2)"/>
		<path d="M 14.5 10.9 C 14.5 10.9 14.7 9.8 16.3 9.8 C 18.3 9.7 18.7 10.4 18.8 10.9 C 19 11.7 14.2 11.6 14.5 10.9 Z" fill="#cbcbcb"/>
		<path d="M 16.7 6.4 C 16.7 6.5 16.6 6.6 16.5 6.6 L 16.5 6.6 C 16.4 6.6 16.3 6.5 16.3 6.4 L 16.3 4.6 C 16.3 4.5 16.4 4.4 16.5 4.4 L 16.5 4.4 C 16.6 4.4 16.7 4.5 16.7 4.6 L 16.7 6.4 Z" fill="#cbcbcb"/>
		<path d="M 17.3 6.4 C 17.3 6.5 17.3 6.6 17.2 6.6 L 17.2 6.6 C 17.1 6.6 17 6.5 17 6.4 L 17 4.6 C 17 4.5 17.1 4.4 17.2 4.4 L 17.2 4.4 C 17.3 4.4 17.3 4.5 17.3 4.6 L 17.3 6.4 Z" fill="#cbcbcb"/>
		<path d="M 16.1 6.4 C 16.1 6.5 16 6.6 15.9 6.6 L 15.9 6.6 C 15.8 6.6 15.8 6.5 15.8 6.4 L 15.8 4.6 C 15.8 4.5 15.8 4.5 15.9 4.5 L 15.9 4.5 C 16 4.5 16.1 4.5 16.1 4.6 L 16.1 6.4 Z" fill="#cbcbcb"/>
		<path opacity="0.7" d="M 15.5 6.5 C 15.5 6.6 15.5 6.7 15.4 6.7 L 15.4 6.7 C 15.3 6.7 15.2 6.6 15.2 6.5 L 15.2 4.7 C 15.2 4.6 15.3 4.5 15.4 4.5 L 15.4 4.5 C 15.5 4.5 15.5 4.6 15.5 4.7 L 15.5 6.5 Z" fill="#cbcbcb"/>
		<path opacity="0.7" d="M 17.8 6.5 C 17.8 6.6 17.8 6.7 17.7 6.7 L 17.7 6.7 C 17.6 6.7 17.5 6.6 17.5 6.5 L 17.5 4.7 C 17.5 4.6 17.6 4.5 17.7 4.5 L 17.7 4.5 C 17.8 4.5 17.8 4.6 17.8 4.7 L 17.8 6.5 Z" fill="#cbcbcb"/>
		<path opacity="0.5" d="M 18.2 6.6 C 18.2 6.7 18.1 6.8 18.1 6.8 L 18.1 6.8 C 18.1 6.8 18 6.7 18 6.6 L 18 4.8 C 18 4.7 18.1 4.7 18.1 4.7 L 18.1 4.7 C 18.1 4.7 18.2 4.7 18.2 4.8 L 18.2 6.6 Z" fill="#cbcbcb"/>
		<path opacity="0.5" d="M 15 6.6 C 15 6.7 15 6.8 14.9 6.8 L 14.9 6.8 C 14.9 6.8 14.8 6.7 14.8 6.6 L 14.8 4.9 C 14.8 4.8 14.9 4.7 14.9 4.7 L 14.9 4.7 C 15 4.7 15 4.8 15 4.9 L 15 6.6 Z" fill="#cbcbcb"/>
		<path d="M 11.2 12.2 C 11.2 12.3 11.2 12.5 11.1 12.6 L 10.8 12.8 L 10.4 13 C 10.3 13.1 10.1 13 10 12.9 L 9.2 11.6 C 9.1 11.4 9.2 11.3 9.3 11.2 L 10 10.8 C 10.1 10.7 10.2 10.8 10.3 10.9 L 11.2 12.2 Z" fill="url(#gradient3)"/>
		<path d="M 10.8 10.3 C 10.9 10.4 10.9 10.6 10.8 10.6 L 8.8 11.8 C 8.7 11.9 8.5 11.9 8.4 11.7 L 6.8 9.1 C 6.7 9 6.8 8.8 6.9 8.7 L 8.8 7.6 C 9 7.5 9.1 7.5 9.2 7.7 L 10.8 10.3 Z" fill="url(#gradient4)"/>
		<path d="M 22.4 12.2 C 22.3 12.3 22.4 12.5 22.5 12.6 L 22.8 12.8 L 23.2 13 C 23.3 13.1 23.5 13 23.5 12.9 L 24.4 11.6 C 24.4 11.4 24.4 11.3 24.3 11.2 L 23.6 10.8 C 23.5 10.7 23.3 10.8 23.2 10.9 L 22.4 12.2 Z" fill="url(#gradient5)"/>
		<path d="M 22.7 10.3 C 22.7 10.4 22.7 10.6 22.8 10.6 L 24.8 11.8 C 24.9 11.9 25.1 11.9 25.1 11.7 L 26.8 9.1 C 26.8 9 26.8 8.8 26.7 8.7 L 24.7 7.6 C 24.6 7.5 24.4 7.5 24.4 7.7 L 22.7 10.3 Z" fill="url(#gradient6)"/>
		<path d="M 16.7 12.7 C 10.4 12.7 5.3 17.7 5.3 23.9 C 5.3 30.1 10.4 35.1 16.7 35.1 C 22.9 35.1 28 30.1 28 23.9 C 28 17.7 22.9 12.7 16.7 12.7 Z" fill="url(#gradient7)"/>
		<path d="M 16.7 13.7 C 11 13.7 6.4 18.3 6.4 23.9 C 6.4 29.5 11 34 16.7 34 C 22.4 34 27 29.5 27 23.9 C 27 18.3 22.4 13.7 16.7 13.7 Z" fill="url(#gradient8)"/>
		<path d="M 16.7 10.4 C 9.1 10.4 3 16.4 3 23.9 C 3 31.3 9.1 37.3 16.7 37.3 C 24.2 37.3 30.3 31.3 30.3 23.9 C 30.3 16.4 24.2 10.4 16.7 10.4 ZM 16.7 34.7 C 10.6 34.7 5.7 29.8 5.7 23.9 C 5.7 17.9 10.6 13.1 16.7 13.1 C 22.7 13.1 27.6 17.9 27.6 23.9 C 27.6 29.8 22.7 34.7 16.7 34.7 Z" fill="url(#gradient9)"/>
		<g>
			<path d="M 16.7 18.3 C 15.4 18.3 14.4 19.3 14.4 20.6 C 14.4 21.8 15.4 22.8 16.7 22.8 C 17.9 22.8 19 21.8 19 20.6 C 19 19.3 17.9 18.3 16.7 18.3 Z" fill="url(#gradient10)"/>
			<path d="M 16.7 18.5 C 15.5 18.5 14.6 19.4 14.6 20.6 C 14.6 21.7 15.5 22.6 16.7 22.6 C 17.8 22.6 18.8 21.7 18.8 20.6 C 18.8 19.4 17.8 18.5 16.7 18.5 Z" fill="url(#gradient11)"/>
			<g>
				<path d="M 15.3 19 C 15.3 19 15.3 19 15.3 19.1 L 15.4 19.2 C 15.4 19.2 15.4 19.2 15.4 19.2 L 15.3 19 Z" fill="#bbbbbb"/>
				<path d="M 18.5 21 L 18.7 21 C 18.7 21 18.7 21 18.7 21 L 18.5 20.9 C 18.5 21 18.5 21 18.5 21 Z" fill="#bbbbbb"/>
				<path d="M 14.7 20 C 14.7 20 14.7 20 14.7 20 L 14.8 20.1 C 14.8 20.1 14.8 20.1 14.8 20 L 14.7 20 Z" fill="#bbbbbb"/>
				<path d="M 16.2 22.6 C 16.2 22.6 16.2 22.6 16.2 22.6 L 16.3 22.4 C 16.3 22.4 16.3 22.4 16.3 22.4 L 16.2 22.6 Z" fill="#bbbbbb"/>
				<path d="M 17.3 18.6 C 17.3 18.6 17.3 18.6 17.2 18.6 L 17.2 18.8 C 17.2 18.8 17.2 18.8 17.2 18.8 L 17.3 18.6 Z" fill="#bbbbbb"/>
				<path d="M 16.2 18.6 C 16.2 18.6 16.2 18.6 16.2 18.6 L 16.2 18.7 C 16.2 18.7 16.2 18.7 16.3 18.7 L 16.2 18.6 Z" fill="#bbbbbb"/>
				<path d="M 18.2 19.2 C 18.2 19.2 18.2 19.2 18.2 19.1 L 18.1 19.3 C 18.1 19.3 18.1 19.3 18.1 19.3 L 18.2 19.2 Z" fill="#bbbbbb"/>
				<path d="M 18.7 20.1 C 18.7 20 18.7 20 18.7 20 L 18.5 20.1 C 18.5 20.1 18.5 20.1 18.5 20.1 L 18.7 20.1 Z" fill="#bbbbbb"/>
				<path d="M 18.2 21.9 C 18.2 21.9 18.2 21.9 18.2 21.9 L 18.1 21.8 C 18.1 21.8 18.1 21.8 18.1 21.8 L 18.2 21.9 Z" fill="#bbbbbb"/>
				<path d="M 17.3 22.5 C 17.3 22.5 17.3 22.5 17.3 22.5 L 17.3 22.3 C 17.3 22.3 17.3 22.3 17.3 22.3 L 17.3 22.5 Z" fill="#bbbbbb"/>
				<path d="M 14.7 21.1 C 14.7 21.2 14.7 21.2 14.7 21.2 L 14.9 21.1 C 14.9 21.1 14.8 21.1 14.8 21.1 L 14.7 21.1 Z" fill="#bbbbbb"/>
				<g>
					<path d="M 15.7 18.7 C 15.7 18.7 15.7 18.7 15.7 18.7 L 15.8 18.9 C 15.8 18.9 15.8 18.9 15.8 18.9 L 15.7 18.7 Z" fill="#676767"/>
					<path d="M 16.8 18.5 C 16.8 18.5 16.7 18.5 16.7 18.5 L 16.7 18.7 C 16.7 18.7 16.8 18.7 16.8 18.7 L 16.8 18.5 Z" fill="#676767"/>
					<path d="M 14.9 19.5 C 14.9 19.5 14.9 19.5 14.9 19.5 L 15 19.6 C 15.1 19.6 15.1 19.6 15.1 19.5 L 14.9 19.5 Z" fill="#676767"/>
					<path d="M 18.5 19.6 C 18.5 19.5 18.5 19.5 18.5 19.5 L 18.3 19.6 C 18.3 19.6 18.3 19.6 18.3 19.7 L 18.5 19.6 Z" fill="#676767"/>
					<path d="M 17.8 18.8 C 17.8 18.8 17.8 18.8 17.7 18.8 L 17.7 19 C 17.7 19 17.7 19 17.7 19 L 17.8 18.8 Z" fill="#676767"/>
					<path d="M 17.8 22.3 C 17.8 22.3 17.8 22.3 17.8 22.3 L 17.7 22.1 C 17.7 22.1 17.7 22.1 17.7 22.1 L 17.8 22.3 Z" fill="#676767"/>
					<path d="M 14.6 20.5 C 14.6 20.5 14.6 20.5 14.6 20.6 L 14.8 20.6 C 14.8 20.5 14.8 20.5 14.8 20.5 L 14.6 20.5 Z" fill="#676767"/>
					<path d="M 16.7 22.6 C 16.7 22.6 16.8 22.6 16.8 22.6 L 16.8 22.4 C 16.8 22.4 16.7 22.4 16.7 22.4 L 16.7 22.6 Z" fill="#676767"/>
					<path d="M 14.9 21.6 C 14.9 21.6 14.9 21.6 14.9 21.7 L 15.1 21.6 C 15.1 21.5 15 21.5 15 21.5 L 14.9 21.6 Z" fill="#676767"/>
					<path d="M 18.5 21.5 C 18.5 21.5 18.5 21.5 18.5 21.5 L 18.4 21.4 C 18.4 21.4 18.4 21.4 18.4 21.4 L 18.5 21.5 Z" fill="#676767"/>
					<path d="M 15.7 22.4 C 15.7 22.4 15.7 22.4 15.7 22.4 L 15.8 22.2 C 15.8 22.2 15.8 22.2 15.8 22.2 L 15.7 22.4 Z" fill="#676767"/>
					<path d="M 18.8 20.5 C 18.8 20.5 18.8 20.5 18.8 20.5 L 18.6 20.5 C 18.6 20.5 18.6 20.5 18.6 20.5 L 18.8 20.5 Z" fill="#676767"/>
				</g>
				<path d="M 15.2 22 C 15.2 22 15.2 22.1 15.2 22.1 L 15.4 21.9 C 15.4 21.9 15.4 21.9 15.4 21.9 L 15.2 22 Z" fill="#bbbbbb"/>
			</g>
			<g>
				<path d="M 16.7 22.4 C 15.6 22.4 14.8 21.6 14.8 20.6 C 14.8 19.5 15.6 18.7 16.7 18.7 C 17.7 18.7 18.6 19.5 18.6 20.6 C 18.6 21.6 17.7 22.4 16.7 22.4 ZM 16.7 18.7 C 15.6 18.7 14.8 19.5 14.8 20.6 C 14.8 21.6 15.6 22.4 16.7 22.4 C 17.7 22.4 18.6 21.6 18.6 20.6 C 18.6 19.5 17.7 18.7 16.7 18.7 Z" fill="#6f7676"/>
			</g>
			<g>
				<path d="M 18.2 19.8 L 17.6 20 C 17.6 20 17.6 20 17.6 20 C 17.6 20 17.6 20 17.6 20 L 17.3 20.1 C 17.2 20.1 17.2 20.1 17.2 20.1 C 17.2 20.1 17.2 20.1 17.2 20.2 L 16.6 20.4 L 16.8 20.7 L 17.3 20.4 C 17.3 20.4 17.3 20.4 17.4 20.4 C 17.4 20.4 17.4 20.3 17.4 20.3 L 17.7 20.1 C 17.7 20.1 17.7 20.1 17.7 20.1 C 17.7 20.1 17.7 20.1 17.7 20.1 L 18.2 19.8 Z" fill="url(#gradient12)"/>
				<path d="M 17.6 20.1 C 17.6 20.2 17.5 20.3 17.5 20.3 C 17.4 20.3 17.3 20.2 17.3 20.1 C 17.3 20.1 17.4 20 17.5 20 C 17.5 20 17.6 20.1 17.6 20.1 Z" fill="url(#gradient13)"/>
				<path d="M 17.6 20.1 C 17.6 20.2 17.5 20.2 17.5 20.2 C 17.4 20.2 17.4 20.2 17.4 20.1 C 17.4 20.1 17.4 20 17.5 20 C 17.5 20 17.6 20.1 17.6 20.1 Z" fill="url(#gradient14)"/>
			</g>
			<path d="M 16.7 20.3 C 16.5 20.3 16.5 20.4 16.5 20.6 C 16.5 20.7 16.5 20.8 16.7 20.8 C 16.8 20.8 16.9 20.7 16.9 20.6 C 16.9 20.4 16.8 20.3 16.7 20.3 Z" fill="url(#gradient15)"/>
			<path d="M 16.7 20.4 C 16.6 20.4 16.5 20.5 16.5 20.6 C 16.5 20.6 16.6 20.7 16.7 20.7 C 16.8 20.7 16.8 20.6 16.8 20.6 C 16.8 20.5 16.8 20.4 16.7 20.4 Z" fill="url(#gradient16)"/>
		</g>
		<g>
			<path d="M 20.4 26.3 C 20.2 26.1 19.9 26.1 19.7 26.2 C 19.8 26 19.9 25.9 19.8 25.8 C 19.8 25.8 19.7 25.8 19.6 25.9 C 19.6 25.8 19.5 25.8 19.5 25.8 C 19.5 25.8 18 25.2 17.7 24.6 C 17.5 24 17.1 24 17 24.1 L 16.8 24.3 C 16.7 24.4 16.9 24.8 17.4 24.9 C 18 25 18.9 26.5 18.9 26.5 C 18.9 26.5 19 26.5 19 26.5 C 18.9 26.6 18.9 26.7 19 26.8 C 19 26.8 19.1 26.7 19.3 26.6 C 19.2 26.8 19.3 27.1 19.5 27.2 C 19.7 27.4 19.9 27.4 20.2 27.4 C 20 27.5 20 27.7 20 27.7 C 20.1 27.8 20.3 27.7 20.5 27.5 C 20.7 27.6 21.3 28.1 21 28.3 L 23.4 29.8 L 23.4 29.7 L 21.7 27.6 C 21.5 27.9 20.9 27.4 20.7 27.2 C 20.9 27 21 26.8 20.9 26.7 C 20.8 26.7 20.7 26.8 20.6 26.9 C 20.6 26.7 20.5 26.4 20.4 26.3 Z" fill="url(#gradient17)"/>
			<path d="M 14.9 25.9 C 15.1 25.8 15.2 25.7 15.2 25.5 C 15.3 25.6 15.4 25.7 15.4 25.7 C 15.4 25.6 15.4 25.6 15.4 25.5 C 15.4 25.5 15.5 25.5 15.5 25.5 C 15.5 25.5 16.3 24.6 16.8 24.6 C 17.2 24.6 17.4 24.3 17.3 24.2 L 17.2 24.1 C 17.2 24 16.8 24 16.6 24.3 C 16.4 24.6 15.2 24.9 15.2 24.9 C 15.2 24.9 15.1 24.9 15.1 24.9 C 15.1 24.9 15 24.8 15 24.8 C 14.9 24.9 14.9 25 15 25.1 C 14.8 25 14.7 25 14.5 25.1 C 14.3 25.2 14.3 25.3 14.3 25.5 C 14.2 25.4 14.1 25.3 14 25.3 C 14 25.3 14 25.5 14.1 25.7 C 13.9 25.7 13.4 26 13.4 25.8 L 11.8 27 L 11.8 27 L 13.7 26.4 C 13.6 26.2 14.1 26 14.2 25.9 C 14.3 26.1 14.4 26.2 14.5 26.1 C 14.5 26.1 14.5 26 14.5 25.9 C 14.6 26 14.8 26 14.9 25.9 Z" fill="url(#gradient18)"/>
			<path d="M 17 23.7 C 16.6 23.7 16.3 23.9 16.3 24.3 C 16.3 24.6 16.6 24.9 17 24.9 C 17.3 25 17.6 24.7 17.6 24.3 C 17.6 24 17.4 23.7 17 23.7 Z" fill="url(#gradient19)"/>
			<path d="M 17 23.9 C 16.7 23.9 16.5 24.1 16.5 24.3 C 16.5 24.5 16.7 24.7 17 24.8 C 17.2 24.8 17.4 24.6 17.4 24.3 C 17.4 24.1 17.2 23.9 17 23.9 Z" fill="url(#gradient20)"/>
			<path opacity="0.1" d="M 18.3 25.4 L 19.2 26.2 L 18.9 26.3 L 18.3 25.4 Z" fill="#ffffff"/>
			<path opacity="0.1" d="M 20.1 26.9 C 20.1 27.1 19.9 27.2 19.8 27.2 C 19.7 27.2 19.6 27.1 19.6 26.9 C 19.6 26.8 19.7 26.7 19.8 26.7 C 19.9 26.7 20.1 26.8 20.1 26.9 Z" fill="#ffffff"/>
			<path opacity="0.1" d="M 14.9 25.4 C 14.9 25.6 14.8 25.7 14.6 25.7 C 14.5 25.7 14.4 25.6 14.4 25.4 C 14.4 25.3 14.5 25.2 14.6 25.2 C 14.8 25.2 14.9 25.3 14.9 25.4 Z" fill="#ffffff"/>
			<path opacity="0.1" d="M 17.1 24.3 C 17.1 24.4 17 24.5 16.9 24.5 C 16.7 24.5 16.6 24.4 16.6 24.3 C 16.6 24.2 16.7 24 16.9 24 C 17 24 17.1 24.2 17.1 24.3 Z" fill="#ffffff"/>
			<path opacity="0.1" d="M 21.4 28.1 L 21.2 28.3 L 22.9 29.3 L 21.4 28.1 Z" fill="#ffffff"/>
			<path opacity="0.1" d="M 15.3 25.1 L 15.2 25 L 16.1 24.7 L 15.3 25.1 Z" fill="#ffffff"/>
			<path opacity="0.1" d="M 13.3 25.9 L 13.5 26.2 L 12.1 26.8 L 13.3 25.9 Z" fill="#ffffff"/>
		</g>
		<g>
			<g>
				<g>
					<g>
						<g>
							<path d="M 6.2 23.8 L 7.2 23.7 L 7.2 24.2 L 6.3 24.2 L 6.2 23.8 Z" fill="#074a4b"/>
						</g>
						<g>
							<path d="M 26.2 23.4 L 27.1 23.4 L 27.1 23.8 L 26.2 23.9 L 26.2 23.4 Z" fill="#074a4b"/>
						</g>
						<g>
							<path d="M 16.2 13.6 L 16.6 13.6 L 16.7 14.5 L 16.2 14.5 L 16.2 13.6 Z" fill="#074a4b"/>
						</g>
						<g>
							<path d="M 16.5 33.2 L 17 33.2 L 17 34.1 L 16.6 34.1 L 16.5 33.2 Z" fill="#074a4b"/>
						</g>
						<g>
							<path d="M 11.2 15.2 L 11.6 15 L 12 15.7 L 11.6 15.9 L 11.2 15.2 Z" fill="#074a4b"/>
						</g>
						<g>
							<path d="M 21.3 32 L 21.7 31.8 L 22.2 32.6 L 21.8 32.8 L 21.3 32 Z" fill="#074a4b"/>
						</g>
						<g>
							<path d="M 7.5 19.1 L 7.7 18.7 L 8.5 19.1 L 8.3 19.5 L 7.5 19.1 Z" fill="#074a4b"/>
						</g>
						<g>
							<path d="M 24.9 28.6 L 25.1 28.2 L 25.9 28.6 L 25.7 29 L 24.9 28.6 Z" fill="#074a4b"/>
						</g>
						<g>
							<path d="M 21 15.5 L 21.5 14.8 L 21.8 15 L 21.4 15.7 L 21 15.5 Z" fill="#074a4b"/>
						</g>
						<g>
							<path d="M 11.3 32.7 L 11.8 31.9 L 12.2 32.1 L 11.7 32.9 L 11.3 32.7 Z" fill="#074a4b"/>
						</g>
						<g>
							<path d="M 24.7 18.9 L 25.5 18.4 L 25.7 18.8 L 24.9 19.2 L 24.7 18.9 Z" fill="#074a4b"/>
						</g>
						<g>
							<path d="M 7.6 28.9 L 8.4 28.4 L 8.6 28.8 L 7.8 29.2 L 7.6 28.9 Z" fill="#074a4b"/>
						</g>
					</g>
					<g>
						<g>
							<path d="M 7.2 25 L 6.5 25.1 L 6.5 24.9 L 7.2 24.8 L 7.2 25 L 7.2 25 Z" fill="#074a4b"/>
						</g>
						<g>
							<path d="M 26.1 22.7 L 26.1 22.5 L 26.8 22.4 L 26.8 22.6 L 26.1 22.7 L 26.1 22.7 Z" fill="#074a4b"/>
						</g>
						<g>
							<path d="M 15.3 14.5 L 15.2 13.9 L 15.4 13.8 L 15.5 14.5 L 15.3 14.5 L 15.3 14.5 Z" fill="#074a4b"/>
						</g>
						<g>
							<path d="M 17.8 33.9 L 17.7 33.2 L 17.9 33.2 L 17.9 33.9 L 17.8 33.9 L 17.8 33.9 Z" fill="#074a4b"/>
						</g>
						<g>
							<path d="M 10.9 16.4 L 10.5 15.8 L 10.6 15.7 L 11 16.3 L 10.9 16.4 L 10.9 16.4 Z" fill="#074a4b"/>
						</g>
						<g>
							<path d="M 22.7 32 L 22.3 31.5 L 22.4 31.3 L 22.9 31.9 L 22.7 32 L 22.7 32 Z" fill="#074a4b"/>
						</g>
						<g>
							<path d="M 7.8 20.2 L 7.2 20 L 7.3 19.8 L 7.9 20.1 L 7.8 20.2 L 7.8 20.2 Z" fill="#074a4b"/>
						</g>
						<g>
							<path d="M 26.1 27.9 L 25.5 27.6 L 25.5 27.4 L 26.2 27.7 L 26.1 27.9 L 26.1 27.9 Z" fill="#074a4b"/>
						</g>
						<g>
							<path d="M 20.4 15.2 L 20.2 15.2 L 20.5 14.5 L 20.7 14.6 L 20.4 15.2 Z" fill="#074a4b"/>
						</g>
						<g>
							<path d="M 12.7 33.2 L 12.5 33.1 L 12.8 32.5 L 12.9 32.5 L 12.7 33.2 L 12.7 33.2 Z" fill="#074a4b"/>
						</g>
						<g>
							<path d="M 24.3 18.3 L 24.2 18.1 L 24.8 17.7 L 24.9 17.9 L 24.3 18.3 L 24.3 18.3 Z" fill="#074a4b"/>
						</g>
						<g>
							<path d="M 8.5 29.9 L 8.4 29.8 L 8.9 29.4 L 9.1 29.5 L 8.5 29.9 L 8.5 29.9 Z" fill="#074a4b"/>
						</g>
					</g>
					<g>
						<g>
							<path d="M 7.4 26 L 6.7 26.1 L 6.6 26 L 7.3 25.8 L 7.4 26 L 7.4 26 Z" fill="#074a4b"/>
						</g>
						<g>
							<path d="M 14.3 14.7 L 14.2 14.1 L 14.4 14 L 14.5 14.7 L 14.3 14.7 L 14.3 14.7 Z" fill="#074a4b"/>
						</g>
						<g>
							<path d="M 25.9 21.8 L 25.9 21.6 L 26.6 21.4 L 26.6 21.6 L 25.9 21.8 L 25.9 21.8 Z" fill="#074a4b"/>
						</g>
						<g>
							<path d="M 18.8 33.7 L 18.6 33.1 L 18.8 33 L 19 33.7 L 18.8 33.7 L 18.8 33.7 Z" fill="#074a4b"/>
						</g>
						<g>
							<path d="M 10.1 17 L 9.7 16.5 L 9.8 16.4 L 10.3 16.9 L 10.1 17 L 10.1 17 Z" fill="#074a4b"/>
						</g>
						<g>
							<path d="M 23.6 31.4 L 23.1 30.9 L 23.2 30.7 L 23.7 31.2 L 23.6 31.4 L 23.6 31.4 Z" fill="#074a4b"/>
						</g>
						<g>
							<path d="M 7.5 21.2 L 6.9 21 L 6.9 20.8 L 7.6 21 L 7.5 21.2 L 7.5 21.2 Z" fill="#074a4b"/>
						</g>
						<g>
							<path d="M 26.5 26.9 L 25.8 26.7 L 25.9 26.5 L 26.5 26.7 L 26.5 26.9 L 26.5 26.9 Z" fill="#074a4b"/>
						</g>
						<g>
							<path d="M 19.5 14.9 L 19.3 14.8 L 19.5 14.2 L 19.7 14.2 L 19.5 14.9 Z" fill="#074a4b"/>
						</g>
						<g>
							<path d="M 13.7 33.5 L 13.5 33.5 L 13.7 32.8 L 13.9 32.9 L 13.7 33.5 L 13.7 33.5 Z" fill="#074a4b"/>
						</g>
						<g>
							<path d="M 23.7 17.5 L 23.6 17.4 L 24.1 16.9 L 24.2 17.1 L 23.7 17.5 L 23.7 17.5 Z" fill="#074a4b"/>
						</g>
						<g>
							<path d="M 9.2 30.7 L 9 30.6 L 9.6 30.1 L 9.7 30.3 L 9.2 30.7 L 9.2 30.7 Z" fill="#074a4b"/>
						</g>
					</g>
					<g>
						<g>
							<path d="M 7.6 26.9 L 7 27.2 L 6.9 27 L 7.6 26.8 L 7.6 26.9 L 7.6 26.9 Z" fill="#074a4b"/>
						</g>
						<g>
							<path d="M 25.7 20.8 L 25.6 20.6 L 26.3 20.4 L 26.3 20.6 L 25.7 20.8 L 25.7 20.8 Z" fill="#074a4b"/>
						</g>
						<g>
							<path d="M 13.4 15 L 13.2 14.4 L 13.3 14.3 L 13.6 15 L 13.4 15 L 13.4 15 Z" fill="#074a4b"/>
						</g>
						<g>
							<path d="M 19.8 33.5 L 19.6 32.8 L 19.8 32.7 L 20 33.4 L 19.8 33.5 L 19.8 33.5 Z" fill="#074a4b"/>
						</g>
						<g>
							<path d="M 9.4 17.7 L 8.9 17.3 L 9 17.1 L 9.6 17.6 L 9.4 17.7 L 9.4 17.7 Z" fill="#074a4b"/>
						</g>
						<g>
							<path d="M 24.3 30.6 L 23.8 30.2 L 23.9 30 L 24.5 30.5 L 24.3 30.6 L 24.3 30.6 Z" fill="#074a4b"/>
						</g>
						<g>
							<path d="M 7.3 22.1 L 6.6 22 L 6.6 21.8 L 7.3 21.9 L 7.3 22.1 L 7.3 22.1 Z" fill="#074a4b"/>
						</g>
						<g>
							<path d="M 26.7 25.9 L 26.1 25.7 L 26.1 25.6 L 26.8 25.7 L 26.7 25.9 L 26.7 25.9 Z" fill="#074a4b"/>
						</g>
						<g>
							<path d="M 18.5 14.7 L 18.3 14.6 L 18.5 13.9 L 18.7 13.9 L 18.5 14.7 Z" fill="#074a4b"/>
						</g>
						<g>
							<path d="M 14.7 33.8 L 14.5 33.7 L 14.7 33.1 L 14.9 33.1 L 14.7 33.8 L 14.7 33.8 Z" fill="#074a4b"/>
						</g>
						<g>
							<path d="M 23 16.8 L 22.8 16.7 L 23.3 16.2 L 23.4 16.3 L 23 16.8 L 23 16.8 Z" fill="#074a4b"/>
						</g>
						<g>
							<path d="M 9.9 31.5 L 9.8 31.3 L 10.3 30.8 L 10.4 31 L 9.9 31.5 L 9.9 31.5 Z" fill="#074a4b"/>
						</g>
					</g>
					<g>
						<g>
							<path d="M 8 27.8 L 7.4 28.1 L 7.3 28 L 7.9 27.7 L 8 27.8 L 8 27.8 Z" fill="#074a4b"/>
						</g>
						<g>
							<path d="M 25.3 20 L 25.2 19.8 L 25.9 19.5 L 26 19.7 L 25.3 20 L 25.3 20 Z" fill="#074a4b"/>
						</g>
						<g>
							<path d="M 12.5 15.4 L 12.2 14.8 L 12.3 14.7 L 12.6 15.3 L 12.5 15.4 L 12.5 15.4 Z" fill="#074a4b"/>
						</g>
						<g>
							<path d="M 20.8 33.1 L 20.5 32.5 L 20.7 32.4 L 21 33 L 20.8 33.1 L 20.8 33.1 Z" fill="#074a4b"/>
						</g>
						<g>
							<path d="M 8.8 18.5 L 8.2 18.1 L 8.3 17.9 L 8.9 18.3 L 8.8 18.5 Z" fill="#074a4b"/>
						</g>
						<g>
							<path d="M 25 29.8 L 24.4 29.4 L 24.5 29.2 L 25.1 29.6 L 25 29.8 L 25 29.8 Z" fill="#074a4b"/>
						</g>
						<g>
							<path d="M 7.1 23.1 L 6.5 23 L 6.5 22.8 L 7.2 22.9 L 7.1 23.1 L 7.1 23.1 Z" fill="#074a4b"/>
						</g>
						<g>
							<path d="M 26.9 24.8 L 26.2 24.8 L 26.2 24.6 L 26.9 24.6 L 26.9 24.8 L 26.9 24.8 Z" fill="#074a4b"/>
						</g>
						<g>
							<path d="M 17.5 14.5 L 17.3 14.5 L 17.4 13.8 L 17.6 13.8 L 17.5 14.5 Z" fill="#074a4b"/>
						</g>
						<g>
							<path d="M 15.8 33.9 L 15.6 33.9 L 15.6 33.2 L 15.8 33.2 L 15.8 33.9 L 15.8 33.9 Z" fill="#074a4b"/>
						</g>
						<g>
							<path d="M 22.2 16.2 L 22 16.1 L 22.5 15.5 L 22.6 15.6 L 22.2 16.2 Z" fill="#074a4b"/>
						</g>
						<g>
							<path d="M 10.8 32.1 L 10.6 32 L 11 31.5 L 11.2 31.6 L 10.8 32.1 L 10.8 32.1 Z" fill="#074a4b"/>
						</g>
					</g>
				</g>
				<path d="M 16.7 33.3 C 11.4 33.3 7.1 29.1 7.1 23.9 C 7.1 18.7 11.4 14.4 16.7 14.4 C 21.9 14.4 26.2 18.7 26.2 23.9 C 26.2 29.1 21.9 33.3 16.7 33.3 ZM 16.7 14.6 C 11.4 14.6 7.2 18.7 7.2 23.9 C 7.2 29 11.4 33.2 16.7 33.2 C 21.9 33.2 26.1 29 26.1 23.9 C 26.1 18.7 21.9 14.6 16.7 14.6 Z" fill="#074a4b"/>
			</g>
			<g>
				<path d="M 16.3 15.9 L 16.1 15.9 L 16.1 15.3 C 16 15.3 15.9 15.4 15.9 15.4 L 15.9 15.3 C 15.9 15.2 16 15.2 16 15.2 C 16.1 15.1 16.1 15.1 16.1 15 L 16.3 15 L 16.3 15.9 Z" fill="#074a4b"/>
				<path d="M 17.1 15.8 L 17.1 15.9 L 16.5 15.9 C 16.5 15.9 16.5 15.8 16.5 15.7 C 16.6 15.7 16.6 15.6 16.7 15.5 C 16.8 15.5 16.9 15.4 16.9 15.4 C 16.9 15.4 16.9 15.3 16.9 15.3 C 16.9 15.3 16.9 15.2 16.9 15.2 C 16.9 15.2 16.8 15.2 16.8 15.2 C 16.8 15.2 16.7 15.2 16.7 15.2 C 16.7 15.2 16.7 15.3 16.7 15.3 L 16.5 15.3 C 16.5 15.2 16.5 15.1 16.6 15.1 C 16.7 15.1 16.7 15 16.8 15 C 16.9 15 17 15.1 17 15.1 C 17.1 15.2 17.1 15.2 17.1 15.3 C 17.1 15.3 17.1 15.4 17.1 15.4 C 17 15.4 17 15.5 17 15.5 C 17 15.5 16.9 15.6 16.9 15.6 C 16.8 15.7 16.8 15.7 16.8 15.7 C 16.8 15.7 16.7 15.7 16.7 15.8 L 17.1 15.8 Z" fill="#074a4b"/>
			</g>
			<g>
				<path d="M 20.9 16.8 L 20.7 16.8 L 20.7 16.2 C 20.7 16.2 20.6 16.3 20.5 16.3 L 20.5 16.1 C 20.6 16.1 20.6 16.1 20.7 16.1 C 20.7 16 20.7 16 20.8 15.9 L 20.9 15.9 L 20.9 16.8 Z" fill="#074a4b"/>
			</g>
			<g>
				<path d="M 24.3 19.7 L 24.3 19.8 L 23.8 19.8 C 23.8 19.8 23.8 19.7 23.8 19.7 C 23.8 19.6 23.9 19.5 24 19.5 C 24.1 19.4 24.1 19.3 24.1 19.3 C 24.2 19.3 24.2 19.2 24.2 19.2 C 24.2 19.2 24.2 19.1 24.1 19.1 C 24.1 19.1 24.1 19.1 24.1 19.1 C 24 19.1 24 19.1 24 19.1 C 24 19.1 23.9 19.2 23.9 19.2 L 23.8 19.2 C 23.8 19.1 23.8 19.1 23.9 19 C 23.9 19 24 19 24.1 19 C 24.2 19 24.2 19 24.3 19 C 24.3 19.1 24.3 19.1 24.3 19.2 C 24.3 19.2 24.3 19.3 24.3 19.3 C 24.3 19.3 24.3 19.4 24.3 19.4 C 24.2 19.5 24.2 19.5 24.1 19.5 C 24.1 19.6 24.1 19.6 24 19.6 C 24 19.6 24 19.7 24 19.7 L 24.3 19.7 Z" fill="#074a4b"/>
			</g>
			<g>
				<path d="M 25 23.8 L 25.1 23.8 C 25.1 23.9 25.2 23.9 25.2 23.9 C 25.2 23.9 25.2 23.9 25.3 23.9 C 25.3 23.9 25.3 23.9 25.4 23.9 C 25.4 23.9 25.4 23.8 25.4 23.8 C 25.4 23.8 25.4 23.7 25.4 23.7 C 25.3 23.7 25.3 23.7 25.3 23.7 C 25.2 23.7 25.2 23.7 25.2 23.7 L 25.2 23.5 C 25.3 23.5 25.3 23.5 25.3 23.5 C 25.3 23.5 25.4 23.5 25.4 23.4 C 25.4 23.4 25.3 23.4 25.3 23.4 C 25.3 23.3 25.3 23.3 25.3 23.3 C 25.2 23.3 25.2 23.3 25.2 23.4 C 25.2 23.4 25.1 23.4 25.1 23.4 L 25 23.4 C 25 23.4 25 23.3 25 23.3 C 25.1 23.3 25.1 23.2 25.1 23.2 C 25.2 23.2 25.2 23.2 25.3 23.2 C 25.3 23.2 25.4 23.2 25.5 23.3 C 25.5 23.3 25.5 23.4 25.5 23.4 C 25.5 23.5 25.5 23.6 25.4 23.6 C 25.4 23.6 25.5 23.6 25.5 23.7 C 25.5 23.7 25.6 23.8 25.6 23.8 C 25.6 23.9 25.5 24 25.5 24 C 25.4 24.1 25.4 24.1 25.3 24.1 C 25.2 24.1 25.1 24.1 25.1 24 C 25 24 25 23.9 25 23.8 Z" fill="#074a4b"/>
			</g>
			<g>
				<path d="M 24.2 28.4 L 24.2 28.2 L 23.8 28.2 L 23.8 28.1 L 24.2 27.5 L 24.3 27.5 L 24.3 28.1 L 24.4 28.1 L 24.4 28.2 L 24.3 28.2 L 24.3 28.4 L 24.2 28.4 ZM 24.2 28.1 L 24.2 27.8 L 23.9 28.1 L 24.2 28.1 Z" fill="#074a4b"/>
			</g>
			<g>
				<path d="M 20.7 31.4 L 20.9 31.3 C 20.9 31.4 20.9 31.4 20.9 31.4 C 20.9 31.5 21 31.5 21 31.5 C 21 31.5 21.1 31.4 21.1 31.4 C 21.1 31.4 21.1 31.3 21.1 31.3 C 21.1 31.2 21.1 31.2 21.1 31.2 C 21.1 31.1 21 31.1 21 31.1 C 20.9 31.1 20.9 31.2 20.9 31.2 L 20.7 31.2 L 20.8 30.7 L 21.3 30.7 L 21.3 30.9 L 20.9 30.9 L 20.9 31 C 20.9 31 21 31 21 31 C 21.1 31 21.2 31 21.2 31.1 C 21.3 31.1 21.3 31.2 21.3 31.3 C 21.3 31.4 21.3 31.4 21.2 31.5 C 21.2 31.6 21.1 31.6 21 31.6 C 20.9 31.6 20.8 31.6 20.8 31.5 C 20.7 31.5 20.7 31.4 20.7 31.4 Z" fill="#074a4b"/>
			</g>
			<g>
				<path d="M 17.1 32 L 16.9 32 C 16.9 32 16.9 32 16.9 32 C 16.9 31.9 16.8 31.9 16.8 31.9 C 16.8 31.9 16.8 32 16.7 32 C 16.7 32 16.7 32.1 16.7 32.2 C 16.7 32.1 16.8 32.1 16.8 32.1 C 16.9 32.1 17 32.1 17 32.2 C 17.1 32.2 17.1 32.3 17.1 32.4 C 17.1 32.5 17.1 32.6 17 32.6 C 17 32.7 16.9 32.7 16.8 32.7 C 16.7 32.7 16.6 32.7 16.6 32.6 C 16.5 32.5 16.5 32.4 16.5 32.3 C 16.5 32.1 16.5 32 16.6 31.9 C 16.7 31.8 16.7 31.8 16.8 31.8 C 16.9 31.8 17 31.8 17 31.9 C 17 31.9 17.1 31.9 17.1 32 ZM 16.7 32.4 C 16.7 32.4 16.7 32.5 16.7 32.5 C 16.8 32.5 16.8 32.6 16.8 32.6 C 16.9 32.6 16.9 32.5 16.9 32.5 C 16.9 32.5 16.9 32.5 16.9 32.4 C 16.9 32.3 16.9 32.3 16.9 32.3 C 16.9 32.2 16.8 32.2 16.8 32.2 C 16.8 32.2 16.8 32.2 16.7 32.3 C 16.7 32.3 16.7 32.3 16.7 32.4 Z" fill="#074a4b"/>
			</g>
			<g>
				<path d="M 12.2 30.9 L 12.2 30.7 L 12.8 30.7 L 12.8 30.8 C 12.7 30.9 12.7 30.9 12.6 31 C 12.6 31.1 12.5 31.2 12.5 31.3 C 12.5 31.4 12.5 31.5 12.5 31.6 L 12.3 31.6 C 12.3 31.4 12.3 31.3 12.4 31.2 C 12.4 31.1 12.5 30.9 12.6 30.9 L 12.2 30.9 Z" fill="#074a4b"/>
			</g>
			<g>
				<path d="M 9.2 28.2 C 9.2 28.1 9.1 28.1 9.1 28.1 C 9.1 28.1 9.1 28 9.1 28 C 9.1 27.9 9.1 27.9 9.1 27.8 C 9.2 27.8 9.3 27.8 9.3 27.8 C 9.4 27.8 9.5 27.8 9.5 27.8 C 9.6 27.9 9.6 27.9 9.6 28 C 9.6 28 9.6 28.1 9.6 28.1 C 9.6 28.1 9.5 28.1 9.5 28.2 C 9.5 28.2 9.6 28.2 9.6 28.3 C 9.6 28.3 9.6 28.3 9.6 28.4 C 9.6 28.5 9.6 28.5 9.6 28.6 C 9.5 28.6 9.4 28.7 9.3 28.7 C 9.3 28.7 9.2 28.6 9.1 28.6 C 9.1 28.5 9 28.5 9 28.4 C 9 28.3 9.1 28.3 9.1 28.3 C 9.1 28.2 9.1 28.2 9.2 28.2 ZM 9.2 28.4 C 9.2 28.4 9.2 28.5 9.3 28.5 C 9.3 28.5 9.3 28.5 9.3 28.5 C 9.4 28.5 9.4 28.5 9.4 28.5 C 9.5 28.5 9.5 28.4 9.5 28.4 C 9.5 28.3 9.5 28.3 9.4 28.3 C 9.4 28.2 9.4 28.2 9.3 28.2 C 9.3 28.2 9.3 28.3 9.2 28.3 C 9.2 28.3 9.2 28.3 9.2 28.4 ZM 9.2 28 C 9.2 28 9.2 28.1 9.3 28.1 C 9.3 28.1 9.3 28.1 9.3 28.1 C 9.4 28.1 9.4 28.1 9.4 28.1 C 9.4 28.1 9.4 28 9.4 28 C 9.4 28 9.4 27.9 9.4 27.9 C 9.4 27.9 9.4 27.9 9.3 27.9 C 9.3 27.9 9.3 27.9 9.3 27.9 C 9.2 27.9 9.2 28 9.2 28 Z" fill="#074a4b"/>
			</g>
			<g>
				<path d="M 7.7 24.2 L 7.9 24.1 C 7.9 24.2 7.9 24.2 7.9 24.2 C 7.9 24.2 8 24.2 8 24.2 C 8 24.2 8 24.2 8.1 24.2 C 8.1 24.2 8.1 24.1 8.1 24 C 8.1 24 8 24.1 8 24.1 C 7.9 24.1 7.8 24 7.8 24 C 7.7 23.9 7.7 23.9 7.7 23.8 C 7.7 23.7 7.7 23.6 7.8 23.6 C 7.8 23.5 7.9 23.5 8 23.5 C 8.1 23.5 8.2 23.5 8.2 23.6 C 8.3 23.7 8.3 23.8 8.3 23.9 C 8.3 24.1 8.3 24.2 8.2 24.3 C 8.1 24.3 8.1 24.4 8 24.4 C 7.9 24.4 7.8 24.4 7.8 24.3 C 7.8 24.3 7.7 24.2 7.7 24.2 ZM 8.1 23.8 C 8.1 23.7 8.1 23.7 8.1 23.7 C 8 23.6 8 23.6 8 23.6 C 7.9 23.6 7.9 23.6 7.9 23.7 C 7.9 23.7 7.9 23.7 7.9 23.8 C 7.9 23.8 7.9 23.9 7.9 23.9 C 7.9 23.9 8 23.9 8 23.9 C 8 23.9 8 23.9 8.1 23.9 C 8.1 23.9 8.1 23.8 8.1 23.8 Z" fill="#074a4b"/>
			</g>
			<g>
				<path d="M 9.1 20.2 L 9 20.2 L 9 19.6 C 8.9 19.7 8.8 19.7 8.8 19.7 L 8.8 19.6 C 8.8 19.6 8.9 19.5 8.9 19.5 C 9 19.5 9 19.4 9 19.4 L 9.1 19.4 L 9.1 20.2 Z" fill="#074a4b"/>
				<path d="M 9.7 19.4 C 9.8 19.4 9.8 19.4 9.9 19.5 C 9.9 19.5 10 19.6 10 19.8 C 10 20 9.9 20.1 9.9 20.2 C 9.8 20.2 9.8 20.3 9.7 20.3 C 9.6 20.3 9.5 20.2 9.5 20.2 C 9.4 20.1 9.4 20 9.4 19.8 C 9.4 19.6 9.4 19.5 9.5 19.5 C 9.5 19.4 9.6 19.4 9.7 19.4 ZM 9.7 19.5 C 9.7 19.5 9.7 19.5 9.6 19.5 C 9.6 19.5 9.6 19.6 9.6 19.6 C 9.6 19.6 9.6 19.7 9.6 19.8 C 9.6 19.9 9.6 20 9.6 20 C 9.6 20.1 9.6 20.1 9.6 20.1 C 9.7 20.1 9.7 20.1 9.7 20.1 C 9.7 20.1 9.7 20.1 9.7 20.1 C 9.8 20.1 9.8 20.1 9.8 20 C 9.8 20 9.8 19.9 9.8 19.8 C 9.8 19.7 9.8 19.6 9.8 19.6 C 9.8 19.6 9.8 19.5 9.7 19.5 C 9.7 19.5 9.7 19.5 9.7 19.5 Z" fill="#074a4b"/>
			</g>
			<g>
				<path d="M 12.1 17.1 L 11.9 17.1 L 11.9 16.4 C 11.8 16.5 11.8 16.5 11.7 16.6 L 11.7 16.4 C 11.7 16.4 11.8 16.4 11.8 16.3 C 11.9 16.3 11.9 16.3 11.9 16.2 L 12.1 16.2 L 12.1 17.1 Z" fill="#074a4b"/>
				<path d="M 12.7 17.1 L 12.5 17.1 L 12.5 16.4 C 12.5 16.5 12.4 16.5 12.3 16.6 L 12.3 16.4 C 12.3 16.4 12.4 16.4 12.4 16.3 C 12.5 16.3 12.5 16.3 12.6 16.2 L 12.7 16.2 L 12.7 17.1 Z" fill="#074a4b"/>
			</g>
		</g>
		<g>
			<path d="M 16.7 34.8 C 10.6 34.8 5.6 29.9 5.6 23.9 C 5.6 17.9 10.6 13 16.7 13 C 22.8 13 27.7 17.9 27.7 23.9 C 27.7 29.9 22.8 34.8 16.7 34.8 ZM 16.7 13.8 C 11.1 13.8 6.5 18.3 6.5 23.9 C 6.5 29.4 11.1 33.9 16.7 33.9 C 22.3 33.9 26.9 29.4 26.9 23.9 C 26.9 18.3 22.3 13.8 16.7 13.8 Z" fill="url(#gradient21)"/>
		</g>
	</g>
	<g>
		<path opacity="0.2" d="M 22.9 12.1 C 21.1 11.1 19 10.6 16.8 10.6 C 9.3 10.6 3.3 16.6 3.3 24 C 3.3 27.5 4.7 30.7 7 33.1 C 10.6 29 19.4 18.8 22.9 12.1 Z" fill="#ffffff"/>
	</g>
	<path opacity="0.1" d="M 20.1 23.6 L 20.1 36.9 C 26 35.4 30.3 30.3 30.3 24.2 C 30.3 23.4 30.3 22.7 30.2 21.9 L 21.8 21.9 C 20.9 21.9 20.1 22.7 20.1 23.6 Z" fill="#010000"/>
	<g>
		<path d="M 22.6 22.7 C 22.6 22.7 22.9 25 23.1 27.9 C 23.2 29.8 23.3 32 23.6 33.8 C 24.4 38.5 25.2 41.8 25.2 41.8 C 25.2 41.8 28 40.8 29.5 40.3 C 30.9 39.8 38.7 37.1 38.7 37.1 L 34.2 23.9 L 22.6 22.7 Z" fill="#d7d7d6"/>
		<path d="M 36.2 20.2 C 36.1 19.7 36.2 19.2 36.1 18.8 C 36 18.6 35.8 18.4 35.6 18.4 C 34.6 18.1 23.8 20.7 22.6 21.2 C 22.3 21.3 21.9 21.5 22 22.1 C 22 23.1 22.2 23.5 22.6 26.2 L 22.8 26.4 L 36.6 22.2 C 36.6 22.2 36.4 21.1 36.2 20.2 ZM 24.8 23.7 C 24.6 23.8 24.4 23.5 24.3 23.2 C 24.3 22.9 24.4 22.7 24.6 22.6 C 24.8 22.6 25 22.8 25.1 23.1 C 25.1 23.4 25 23.7 24.8 23.7 ZM 27.2 22.9 C 27 23 26.8 22.7 26.8 22.5 C 26.7 22.2 26.8 21.9 27 21.9 C 27.2 21.9 27.4 22.1 27.5 22.4 C 27.5 22.6 27.4 22.9 27.2 22.9 ZM 29.8 22.2 C 29.6 22.3 29.4 22.1 29.4 21.8 C 29.3 21.5 29.5 21.3 29.6 21.2 C 29.8 21.2 30 21.4 30.1 21.7 C 30.1 22 30 22.2 29.8 22.2 ZM 32.1 21.6 C 31.9 21.7 31.7 21.5 31.7 21.2 C 31.6 20.9 31.8 20.7 31.9 20.7 C 32.1 20.7 32.3 20.9 32.3 21.1 C 32.4 21.4 32.2 21.6 32.1 21.6 ZM 34.4 21.1 C 34.2 21.1 34 20.9 34 20.7 C 34 20.4 34.1 20.2 34.2 20.2 C 34.4 20.2 34.6 20.4 34.6 20.6 C 34.6 20.8 34.5 21.1 34.4 21.1 Z" fill="#345b67"/>
		<path d="M 24 20.8 C 23.3 21 22.8 21.1 22.6 21.2 C 22.3 21.3 21.9 21.5 22 22.1 C 22 22.3 22 22.5 22 22.6 L 22.3 22.6 C 22.3 21.9 22.4 21.8 22.5 21.7 C 22.7 21.3 24.4 21.1 24.4 21.1 C 24.4 21.1 24.1 21 23.8 20.9 C 23.6 20.9 24 20.8 24 20.8 Z" fill="#84bacb"/>
		<path d="M 36.5 20.5 C 36.3 19.5 36.4 18.8 35.9 18.6 C 34.8 18.3 24 20.9 22.8 21.4 C 22.5 21.5 22.2 21.7 22.2 22.3 C 22.2 23.3 22.4 23.7 22.8 26.4 L 36.8 22.4 C 36.8 22.4 36.6 21.3 36.5 20.5 ZM 25 23.9 C 24.8 24 24.6 23.8 24.6 23.5 C 24.5 23.2 24.7 22.9 24.9 22.9 C 25.1 22.8 25.3 23 25.3 23.3 C 25.4 23.6 25.2 23.9 25 23.9 ZM 27.4 23.1 C 27.2 23.2 27.1 23 27 22.7 C 27 22.4 27.1 22.1 27.3 22.1 C 27.5 22.1 27.7 22.3 27.7 22.6 C 27.8 22.9 27.6 23.1 27.4 23.1 ZM 30 22.5 C 29.8 22.5 29.7 22.3 29.6 22 C 29.6 21.7 29.7 21.5 29.9 21.5 C 30.1 21.4 30.3 21.6 30.3 21.9 C 30.3 22.2 30.2 22.4 30 22.5 ZM 32.3 21.8 C 32.1 21.9 32 21.7 31.9 21.4 C 31.9 21.2 32 20.9 32.2 20.9 C 32.3 20.9 32.5 21.1 32.6 21.3 C 32.6 21.6 32.5 21.8 32.3 21.8 ZM 34.6 21.3 C 34.4 21.3 34.3 21.1 34.2 20.9 C 34.2 20.7 34.3 20.4 34.5 20.4 C 34.6 20.4 34.8 20.6 34.8 20.8 C 34.9 21.1 34.8 21.3 34.6 21.3 Z" fill="#487d8d"/>
		<path d="M 36.9 24.3 C 36.8 23.7 36.8 23.2 36.7 22.6 L 37.1 22.5 C 37.1 22.5 36.9 21.4 36.8 20.6 C 36.6 19.6 36.7 18.9 36.1 18.7 C 35.1 18.4 24.3 21 23.1 21.5 C 22.8 21.6 22.4 21.8 22.5 22.4 C 22.5 23.4 22.7 23.8 23.1 26.4 C 23.1 26.9 23.1 27.4 23.2 27.9 C 24 35.7 26.2 42 26.2 42 L 27.6 42 L 40.4 36.9 C 38.9 34.2 37.5 28.8 36.9 24.3 Z" fill="#e1e1e0"/>
	</g>
	<path d="M 37.2 21.6 C 37.3 22.4 37.4 23.3 37.5 24.3 C 38.2 28.8 39.6 34.2 41 36.9 L 27.6 42 C 27.6 42 24.6 35.7 23.8 27.9 C 23.7 26.8 23.7 25.7 23.6 24.6 C 23.6 23.8 37.1 20 37.2 21.6 Z" fill="#f1f1f1"/>
	<path opacity="0.5" d="M 37.2 21.6 C 37.2 21.1 35.9 21.1 34.2 21.4 L 26.3 23.4 C 24.7 23.9 23.6 24.4 23.6 24.6 C 23.6 25.4 23.7 26.3 23.7 27 L 37.4 23.2 C 37.3 22.7 37.3 22.1 37.2 21.6 Z" fill="#dadad9"/>
	<g>
		<path d="M 37 20.6 C 36.9 20 37 19.5 36.9 19.1 C 36.8 18.9 36.6 18.8 36.4 18.7 C 35.4 18.4 24.5 21 23.3 21.5 C 23 21.6 22.7 21.8 22.7 22.4 C 22.8 23.4 23 23.9 23.3 26.5 L 23.6 26.7 L 37.4 22.5 C 37.4 22.5 37.2 21.4 37 20.6 ZM 25.6 24.1 C 25.3 24.1 25.1 23.9 25.1 23.6 C 25 23.3 25.2 23 25.4 23 C 25.6 22.9 25.8 23.2 25.8 23.5 C 25.9 23.8 25.8 24 25.6 24.1 ZM 28 23.2 C 27.8 23.3 27.6 23.1 27.5 22.8 C 27.5 22.5 27.6 22.2 27.8 22.2 C 28 22.2 28.2 22.4 28.3 22.7 C 28.3 23 28.2 23.2 28 23.2 ZM 30.6 22.6 C 30.4 22.6 30.2 22.4 30.1 22.1 C 30.1 21.8 30.2 21.6 30.4 21.6 C 30.6 21.5 30.8 21.7 30.8 22 C 30.9 22.3 30.8 22.5 30.6 22.6 ZM 32.8 22 C 32.7 22 32.5 21.8 32.4 21.5 C 32.4 21.3 32.5 21 32.7 21 C 32.9 21 33.1 21.2 33.1 21.4 C 33.1 21.7 33 21.9 32.8 22 ZM 35.1 21.4 C 35 21.4 34.8 21.3 34.8 21 C 34.7 20.8 34.8 20.5 35 20.5 C 35.2 20.5 35.3 20.7 35.4 20.9 C 35.4 21.2 35.3 21.4 35.1 21.4 Z" fill="#487d8d"/>
		<path d="M 26.2 22.3 L 26.2 21 C 26.2 21 25.7 21.1 25.3 21.1 C 24.9 21.2 24.7 21.1 24.6 21.1 C 24 21.3 23.5 21.4 23.3 21.5 C 23 21.6 22.7 21.8 22.7 22.4 C 22.7 22.8 22.8 23.1 22.8 23.4 L 23.9 23.3 L 26.2 22.3 Z" fill="#84bacb"/>
	</g>
	<g>
		<path d="M 37.2 20.8 C 37.2 19.8 37.1 19.1 36.6 18.9 C 35.6 18.6 24.8 21.3 23.6 21.7 C 23.3 21.8 22.9 22 23 22.7 C 23 23.6 23.2 24.1 23.6 26.7 L 37.4 22.9 C 37.4 22.9 37.4 22.5 37.3 21.8 C 37.3 21.5 37.3 21 37.2 20.8 ZM 25.8 24.3 C 25.6 24.3 25.4 24.1 25.3 23.8 C 25.3 23.5 25.4 23.2 25.6 23.2 C 25.8 23.1 26 23.4 26.1 23.7 C 26.1 24 26 24.2 25.8 24.3 ZM 28.2 23.5 C 28 23.5 27.8 23.3 27.8 23 C 27.7 22.7 27.9 22.5 28.1 22.4 C 28.3 22.4 28.4 22.6 28.5 22.9 C 28.5 23.2 28.4 23.4 28.2 23.5 ZM 30.8 22.8 C 30.6 22.8 30.4 22.6 30.4 22.3 C 30.3 22.1 30.5 21.8 30.7 21.8 C 30.8 21.8 31 22 31.1 22.2 C 31.1 22.5 31 22.7 30.8 22.8 ZM 33.1 22.2 C 32.9 22.2 32.7 22 32.7 21.7 C 32.6 21.5 32.8 21.3 32.9 21.2 C 33.1 21.2 33.3 21.4 33.3 21.7 C 33.4 21.9 33.3 22.1 33.1 22.2 ZM 35.4 21.6 C 35.2 21.7 35 21.5 35 21.2 C 35 21 35.1 20.8 35.2 20.7 C 35.4 20.7 35.6 20.9 35.6 21.1 C 35.7 21.4 35.5 21.6 35.4 21.6 Z" fill="#48879a"/>
		<path d="M 36.6 18.9 C 35.6 18.6 24.8 21.3 23.6 21.7 C 23.3 21.8 22.9 22 23 22.7 C 23 23.6 23.2 24.1 23.6 26.7 L 25.1 26.3 C 26.2 25.2 27.9 23.9 30.4 22.5 C 30.4 22.4 30.4 22.4 30.4 22.3 C 30.3 22.1 30.5 21.8 30.7 21.8 C 30.8 21.8 31 21.9 31 22.1 C 32.7 21.2 34.7 20.3 37.1 19.4 C 37 19.2 36.9 19 36.6 18.9 ZM 25.8 24.3 C 25.6 24.3 25.4 24.1 25.3 23.8 C 25.3 23.5 25.4 23.2 25.6 23.2 C 25.8 23.1 26 23.4 26.1 23.7 C 26.1 24 26 24.2 25.8 24.3 ZM 28.2 23.5 C 28 23.5 27.8 23.3 27.8 23 C 27.7 22.7 27.9 22.5 28.1 22.4 C 28.3 22.4 28.4 22.6 28.5 22.9 C 28.5 23.2 28.4 23.4 28.2 23.5 Z" fill="#45adc5"/>
		<g opacity="0.3">
			<path d="M 23.7 21.8 C 24.9 21.3 35.7 18.7 36.7 19 C 36.8 19 36.8 19 36.8 19 C 36.7 19 36.7 18.9 36.6 18.9 C 35.6 18.6 24.8 21.3 23.6 21.7 C 23.3 21.8 22.9 22 23 22.7 C 23 23.6 23.2 24.1 23.6 26.7 L 23.7 26.7 C 23.3 24.1 23.1 23.7 23.1 22.7 C 23.1 22.1 23.4 21.9 23.7 21.8 Z" fill="#65e1ff"/>
		</g>
	</g>
	<g>
		<path d="M 27.9 23.2 C 27.9 23.2 27.9 23.3 28 23.2 C 28 23.2 28.1 23.2 28.1 23.1 C 28 23.2 27.9 23.2 27.8 23.2 C 27.8 23.2 27.9 23.2 27.9 23.2 Z" fill="#55823a"/>
		<path d="M 25.8 23.2 C 25.8 23.2 25.8 23.2 25.8 23.2 C 25.8 23.2 25.8 23.2 25.8 23.2 C 25.8 23.2 25.8 23.2 25.8 23.2 Z" fill="#7ba43f"/>
		<path d="M 26.2 20.2 C 26.2 20.4 26.2 20.5 26.2 20.7 C 26.2 20.8 26.2 20.9 26.2 21 C 26.3 21 26.3 21.1 26.3 21.2 C 26.3 22.1 26.1 22.8 25.8 23.2 C 25.8 23.2 25.8 23.2 25.8 23.2 C 25.6 23.4 25.5 23.4 25.3 23.5 C 25.3 23.6 25.3 23.7 25.3 23.8 C 25.3 23.8 25.4 23.9 25.4 24 C 25.4 24 25.6 24 25.8 23.8 C 25.9 23.7 26 23.6 26.1 23.5 C 26.3 23.2 26.5 22.6 26.6 22 C 26.7 21.8 26.7 21.5 26.7 21.2 C 26.7 21.1 26.7 21 26.7 20.9 C 26.7 20.8 26.7 20.7 26.7 20.6 C 26.7 20.4 26.6 20.3 26.6 20.1 C 26.4 20.1 26.3 20.2 26.2 20.2 Z" fill="#55823a"/>
		<path d="M 26.7 20.9 C 26.7 20.8 26.7 20.7 26.7 20.6 C 26.7 20.4 26.6 20.3 26.6 20.1 C 26.6 19.9 26.5 19.8 26.5 19.6 C 26.2 18.9 25.7 18.4 25.2 18.4 C 24.5 18.4 23.9 19.4 23.8 20.8 C 23.9 20.8 24 20.8 24.2 20.7 C 24.3 19.7 24.7 18.9 25.2 18.9 C 25.7 18.9 26 19.4 26.2 20.2 C 26.2 20.4 26.2 20.5 26.2 20.7 C 26.2 20.8 26.2 20.9 26.2 21 C 26.3 21 26.3 21.1 26.3 21.2 C 26.3 22.1 26.1 22.8 25.8 23.2 C 25.8 23.2 25.8 23.2 25.8 23.2 C 25.6 23.4 25.5 23.4 25.3 23.5 C 25.3 23.6 25.3 23.7 25.3 23.8 C 25.3 23.8 25.4 23.9 25.4 24 C 25.4 24 25.6 24 25.8 23.8 C 25.9 23.7 26 23.6 26.1 23.5 C 26.3 23.2 26.5 22.6 26.6 22 C 26.7 21.8 26.7 21.5 26.7 21.2 C 26.7 21.1 26.7 21 26.7 20.9 Z" fill="url(#gradient22)"/>
		<path d="M 29.3 20.2 C 29.3 20.2 29.3 20.2 29.3 20.2 C 29.3 20.2 29.3 20.1 29.3 20 C 29.2 20 29.2 20 29.2 20 C 29.2 20.1 29.3 20.1 29.3 20.2 Z" fill="#74903a"/>
		<path d="M 29.3 20.2 C 29.3 20.1 29.2 20.1 29.2 20 C 29.2 19.8 29.2 19.6 29.2 19.5 C 29.1 19.3 29.1 19.1 29 18.9 C 28.7 18.2 28.3 17.7 27.8 17.7 C 27.2 17.7 26.6 18.5 26.5 19.6 C 26.5 19.8 26.6 19.9 26.6 20.1 C 26.7 20.1 26.7 20.1 26.8 20.1 C 26.9 19 27.3 18.2 27.8 18.2 C 28.3 18.2 28.6 18.8 28.7 19.6 C 28.8 19.7 28.8 19.9 28.8 20.1 C 28.8 20.2 28.8 20.3 28.8 20.3 C 28.8 20.4 28.8 20.4 28.8 20.5 C 28.8 21.4 28.6 22.1 28.3 22.5 C 28.3 22.5 28.2 22.5 28.2 22.5 C 28.1 22.6 28 22.7 27.8 22.7 C 27.8 22.7 27.8 22.7 27.8 22.7 C 27.8 22.8 27.8 22.9 27.8 23 C 27.8 23.1 27.8 23.1 27.8 23.2 C 27.9 23.2 28 23.2 28.1 23.1 C 28.3 23.1 28.4 23 28.5 22.9 C 28.8 22.6 29 22.1 29.1 21.5 C 29.2 21.2 29.3 20.8 29.3 20.5 C 29.3 20.4 29.3 20.3 29.3 20.2 Z" fill="url(#gradient23)"/>
		<path d="M 31.7 19.7 C 31.7 19.6 31.7 19.5 31.7 19.4 C 31.6 19.3 31.6 19.2 31.6 19.1 C 31.6 19.1 31.6 19 31.6 19 C 31.5 18.7 31.5 18.5 31.4 18.3 C 31.1 17.7 30.7 17.3 30.3 17.3 C 29.7 17.3 29.2 17.9 29 18.9 C 29.1 19.1 29.1 19.3 29.2 19.5 C 29.2 19.5 29.2 19.5 29.3 19.5 C 29.4 18.5 29.7 17.8 30.3 17.8 C 30.7 17.8 31 18.3 31.2 19 C 31.2 19.2 31.2 19.4 31.2 19.5 C 31.2 19.6 31.2 19.7 31.3 19.8 C 31.3 19.8 31.3 19.9 31.3 20 C 31.3 20.8 31.1 21.4 30.8 21.8 C 30.8 21.8 30.8 21.9 30.8 21.9 C 30.7 22 30.5 22.1 30.4 22.1 C 30.4 22.2 30.4 22.3 30.4 22.3 C 30.4 22.4 30.4 22.5 30.5 22.5 C 30.5 22.6 30.5 22.6 30.5 22.6 C 30.7 22.6 30.9 22.4 31.1 22.2 C 31.3 21.9 31.4 21.6 31.6 21.1 C 31.6 20.9 31.7 20.6 31.7 20.3 C 31.7 20.2 31.7 20.1 31.7 20 C 31.7 19.9 31.7 19.8 31.7 19.7 Z" fill="url(#gradient24)"/>
		<path d="M 36.3 18.7 C 36.2 17.4 35.7 16.5 35 16.5 C 34.4 16.5 33.9 17.3 33.8 18.5 C 33.8 18.5 33.8 18.5 33.8 18.5 C 33.9 18.5 34 18.5 34.1 18.5 C 34.2 17.6 34.5 16.9 35 16.9 C 35.5 16.9 35.8 17.6 35.9 18.5 C 35.9 18.6 35.9 18.6 35.9 18.7 C 35.9 18.8 35.9 18.8 35.9 18.9 C 35.9 18.9 35.9 18.9 35.9 18.9 C 35.9 19.8 35.7 20.5 35.4 20.8 C 35.3 20.8 35.3 20.8 35.3 20.8 C 35.2 20.8 35.2 20.9 35.1 20.9 C 35 21 35 21.1 35 21.2 C 35 21.3 35 21.3 35 21.3 C 35 21.3 35 21.3 35 21.3 C 35.1 21.3 35.2 21.3 35.3 21.3 C 35.4 21.2 35.5 21.2 35.6 21.1 C 35.9 20.8 36.1 20.4 36.2 19.9 C 36.3 19.6 36.3 19.2 36.3 18.9 C 36.3 18.9 36.3 18.9 36.3 18.9 C 36.3 18.8 36.3 18.8 36.3 18.7 Z" fill="url(#gradient25)"/>
		<path d="M 33.9 19.2 C 33.9 19.2 33.9 19.1 33.9 19 C 33.9 18.8 33.8 18.7 33.8 18.5 C 33.8 18.5 33.8 18.5 33.8 18.5 C 33.6 17.6 33.1 16.9 32.6 16.9 C 32.1 16.9 31.6 17.5 31.4 18.3 C 31.5 18.5 31.5 18.7 31.6 19 C 31.6 19 31.6 19 31.6 19 C 31.7 18.1 32.1 17.4 32.6 17.4 C 33 17.4 33.3 17.9 33.4 18.6 C 33.4 18.7 33.5 18.9 33.5 19.1 C 33.5 19.1 33.5 19.2 33.5 19.3 C 33.5 19.4 33.5 19.4 33.5 19.5 C 33.5 20.2 33.4 20.9 33.1 21.3 C 33.1 21.3 33.1 21.3 33.1 21.3 C 32.9 21.4 32.8 21.5 32.7 21.6 C 32.7 21.6 32.7 21.7 32.7 21.7 C 32.7 21.8 32.7 21.9 32.7 21.9 C 32.8 22 32.8 22 32.8 22 C 33 22 33.2 21.8 33.3 21.6 C 33.6 21.2 33.8 20.6 33.9 19.9 C 33.9 19.8 33.9 19.6 33.9 19.5 C 33.9 19.4 33.9 19.3 33.9 19.2 Z" fill="url(#gradient26)"/>
	</g>
	<g opacity="0.2">
		<path d="M 26.5 21.4 C 26.5 21.4 26.5 21.4 26.5 21.4 C 26.5 21.4 26.5 21.4 26.5 21.4 C 26.6 19.3 25.6 18.6 25.3 18.6 C 24.9 18.5 24.7 18.8 24.7 18.8 C 24.7 18.8 24.6 18.8 24.6 18.8 C 24.6 18.8 24.6 18.8 24.6 18.8 C 24.6 18.7 24.9 18.4 25.4 18.5 C 25.6 18.5 26.7 19.2 26.6 21.4 C 26.6 21.4 26.6 21.4 26.5 21.4 Z" fill="#ffffff"/>
	</g>
	<g opacity="0.2">
		<path d="M 29.1 20.8 C 29.1 20.8 29.1 20.8 29.1 20.8 C 29.1 20.8 29.1 20.7 29.1 20.7 C 29.2 18.6 28.2 18 28 17.9 C 27.5 17.8 27.3 18.2 27.3 18.2 C 27.3 18.2 27.2 18.2 27.2 18.2 C 27.2 18.2 27.2 18.1 27.2 18.1 C 27.2 18.1 27.5 17.7 28 17.8 C 28.2 17.9 29.3 18.6 29.2 20.7 C 29.2 20.8 29.2 20.8 29.1 20.8 Z" fill="#ffffff"/>
	</g>
	<g opacity="0.2">
		<path d="M 31.6 20.3 C 31.6 20.3 31.6 20.3 31.6 20.3 C 31.5 20.3 31.5 20.3 31.5 20.2 C 31.6 18.2 30.6 17.5 30.4 17.5 C 30 17.4 29.7 17.7 29.7 17.7 C 29.7 17.8 29.7 17.8 29.7 17.7 C 29.6 17.7 29.6 17.7 29.6 17.7 C 29.7 17.7 29.9 17.3 30.4 17.4 C 30.7 17.4 31.7 18.1 31.6 20.2 C 31.6 20.3 31.6 20.3 31.6 20.3 Z" fill="#ffffff"/>
	</g>
	<g opacity="0.2">
		<path d="M 36.2 19.1 C 36.2 19.1 36.2 19.1 36.2 19.1 C 36.1 19.1 36.1 19.1 36.1 19 C 36.2 17.3 35.4 16.7 35.2 16.6 C 34.8 16.6 34.6 16.9 34.6 16.9 C 34.6 16.9 34.5 16.9 34.5 16.9 C 34.5 16.9 34.5 16.8 34.5 16.8 C 34.5 16.8 34.8 16.5 35.2 16.6 C 35.4 16.6 36.3 17.2 36.2 19 C 36.2 19.1 36.2 19.1 36.2 19.1 Z" fill="#ffffff"/>
	</g>
	<g opacity="0.2">
		<path d="M 33.8 19.7 C 33.8 19.7 33.8 19.7 33.8 19.7 C 33.7 19.7 33.7 19.7 33.7 19.6 C 33.8 17.8 32.9 17.2 32.7 17.1 C 32.3 17 32.1 17.3 32.1 17.3 C 32.1 17.4 32.1 17.4 32 17.4 C 32 17.3 32 17.3 32 17.3 C 32 17.3 32.3 16.9 32.7 17 C 33 17.1 33.9 17.7 33.8 19.6 C 33.8 19.7 33.8 19.7 33.8 19.7 Z" fill="#ffffff"/>
	</g>
	<path opacity="0.2" d="M 25.2 18.9 C 25.7 18.9 26 19.4 26.1 20 C 26.1 18.9 25.3 18.7 25.3 18.7 C 24.5 18.5 24.2 19.7 24 20.1 C 24 20.2 23.9 20.3 23.8 20.3 C 23.8 20.5 23.8 20.6 23.8 20.8 C 23.9 20.8 24 20.8 24.2 20.7 C 24.3 19.7 24.7 18.9 25.2 18.9 Z" fill="#010101"/>
	<path opacity="0.2" d="M 26.6 20.1 C 26.7 20.1 26.7 20.1 26.8 20.1 C 26.9 19 27.3 18.2 27.8 18.2 C 28.3 18.2 28.6 18.8 28.7 19.6 C 28.7 18.7 28.4 18.3 28.1 18.1 C 27.8 18 27.4 18.1 27.2 18.4 C 26.9 18.8 26.8 19.3 26.7 19.5 C 26.7 19.5 26.6 19.6 26.6 19.1 C 26.5 19.3 26.5 19.5 26.5 19.6 C 26.5 19.8 26.6 19.9 26.6 20.1 Z" fill="#010101"/>
	<path opacity="0.2" d="M 29.3 19.5 C 29.4 18.5 29.7 17.8 30.3 17.8 C 30.7 17.8 31 18.3 31.2 19 C 31.2 19.1 31.2 19.1 31.2 19.1 C 31.2 18.5 30.9 17.9 30.5 17.7 C 30.1 17.4 29.7 17.8 29.7 17.8 C 29.4 18 29.4 18.6 29.2 18.8 C 29.1 18.9 29.1 18.7 29.1 18.5 C 29.1 18.6 29 18.8 29 18.9 C 29.1 19.1 29.1 19.3 29.2 19.5 C 29.2 19.5 29.2 19.5 29.3 19.5 Z" fill="#010101"/>
	<path opacity="0.2" d="M 31.4 18.3 C 31.5 18.5 31.5 18.7 31.6 19 C 31.6 19 31.6 19 31.6 19 C 31.7 18.1 32.1 17.4 32.6 17.4 C 33 17.4 33.3 17.9 33.4 18.6 C 33.2 17.3 32.7 17.1 32.4 17.3 C 31.8 17.6 31.8 18.2 31.6 18.2 C 31.5 18.3 31.5 18.1 31.5 18 C 31.5 18.1 31.4 18.2 31.4 18.3 Z" fill="#010101"/>
	<path opacity="0.2" d="M 35.9 19.1 C 36.2 17.5 35.4 16.9 35.2 16.8 C 35 16.7 34.7 16.8 34.5 17.1 C 34.3 17.4 34.2 18 34 18.1 C 33.9 18.1 33.9 18.2 33.9 18.1 C 33.8 18.2 33.8 18.3 33.8 18.5 C 33.8 18.5 33.8 18.5 33.8 18.5 C 33.9 18.5 34 18.5 34.1 18.5 C 34.2 17.6 34.5 16.9 35 16.9 C 35.5 16.9 35.8 17.6 35.9 18.5 C 35.9 18.6 35.9 18.6 35.9 18.7 C 35.9 18.8 35.9 18.8 35.9 18.9 C 35.9 18.9 35.9 18.9 35.9 18.9 C 35.9 19 35.9 19 35.9 19.1 Z" fill="#010101"/>
	<g>
		<path d="M 27.1 41.8 C 27 41.8 25.7 38.8 24.8 35.4 C 24 32.5 23.6 27.5 23.6 27.5 C 23.6 27.5 24.1 32.4 24.9 35.4 C 25.8 38.7 27.2 41.8 27.2 41.9 L 27.1 41.8 Z" fill="#f8f8f8"/>
	</g>
	<g>
		<path d="M 26.4 41.9 C 26.3 41.9 25.3 38.8 24.5 35.4 C 23.7 32.1 23.4 27.4 23.4 27.4 C 23.4 27.5 23.9 32.1 24.6 35.3 C 25.4 38.7 26.5 41.9 26.5 41.9 L 26.4 41.9 Z" fill="#d0d0d0"/>
	</g>
	<g>
		<g>
			<path d="M 26.5 32.3 L 26.6 32 L 26.7 32 L 26.8 32.5 L 26.8 32.5 L 26.6 32.1 L 26.5 32.4 L 26.2 32.2 L 26.4 32.6 L 26.3 32.6 L 26.2 32.1 L 26.2 32.1 L 26.5 32.3 Z" fill="#333333"/>
		</g>
		<g>
			<path d="M 28.4 31.5 L 28.4 31.5 L 28.2 31.6 L 28.4 32.1 L 28.3 32.1 L 28.2 31.6 L 28 31.6 L 28 31.6 L 28.4 31.5 Z" fill="#333333"/>
		</g>
		<g>
			<path d="M 30 31.1 L 29.9 31.6 L 29.9 31.6 L 29.6 31.2 L 29.6 31.2 L 29.9 31.5 L 30 31.1 L 30 31.1 L 30.3 31.4 L 30.3 31 L 30.4 30.9 L 30.3 31.5 L 30.3 31.5 L 30 31.1 Z" fill="#333333"/>
		</g>
		<g>
			<path d="M 32 30.5 L 32 30.5 L 31.8 30.6 L 31.9 31.1 L 31.9 31.1 L 31.7 30.6 L 31.5 30.7 L 31.5 30.6 L 32 30.5 Z" fill="#333333"/>
		</g>
		<g>
			<path d="M 33.6 30 L 33.7 30.1 L 33.4 30.1 L 33.5 30.3 L 33.7 30.3 L 33.7 30.3 L 33.5 30.4 L 33.6 30.6 L 33.5 30.6 L 33.4 30.1 L 33.6 30 Z" fill="#333333"/>
		</g>
		<g>
			<path d="M 35.4 29.6 L 35.4 29.6 C 35.4 29.6 35.3 29.6 35.3 29.6 C 35.3 29.6 35.2 29.6 35.2 29.6 C 35.2 29.7 35.2 29.7 35.2 29.7 C 35.2 29.8 35.2 29.8 35.2 29.8 C 35.3 29.8 35.3 29.8 35.3 29.8 C 35.4 29.8 35.4 29.8 35.4 29.8 C 35.5 29.8 35.5 29.8 35.5 29.8 C 35.5 29.9 35.5 29.9 35.5 29.9 C 35.6 30 35.5 30 35.5 30 C 35.5 30.1 35.5 30.1 35.4 30.1 C 35.4 30.1 35.3 30.1 35.3 30.1 L 35.3 30 C 35.3 30.1 35.4 30.1 35.4 30.1 C 35.4 30.1 35.5 30 35.5 30 C 35.5 30 35.5 30 35.5 29.9 C 35.5 29.9 35.5 29.9 35.5 29.9 C 35.4 29.9 35.4 29.9 35.4 29.8 C 35.3 29.8 35.3 29.8 35.3 29.8 C 35.2 29.8 35.2 29.8 35.2 29.8 C 35.2 29.8 35.2 29.8 35.2 29.7 C 35.2 29.7 35.2 29.7 35.2 29.6 C 35.2 29.6 35.2 29.6 35.3 29.6 C 35.3 29.5 35.4 29.5 35.4 29.6 Z" fill="#333333"/>
		</g>
		<g>
			<path d="M 37.2 29.1 L 37.2 29.1 C 37.1 29.1 37.1 29.1 37.1 29.1 C 37 29.1 37 29.1 37 29.2 C 37 29.2 37 29.2 37 29.2 C 37 29.3 37 29.3 37 29.3 C 37 29.3 37.1 29.3 37.1 29.3 C 37.2 29.3 37.2 29.3 37.2 29.3 C 37.2 29.3 37.3 29.3 37.3 29.4 C 37.3 29.4 37.3 29.4 37.3 29.4 C 37.3 29.5 37.3 29.5 37.3 29.5 C 37.3 29.6 37.2 29.6 37.2 29.6 C 37.2 29.6 37.1 29.6 37 29.6 L 37 29.6 C 37.1 29.6 37.1 29.6 37.2 29.6 C 37.2 29.6 37.2 29.5 37.3 29.5 C 37.3 29.5 37.3 29.5 37.3 29.4 C 37.3 29.4 37.2 29.4 37.2 29.4 C 37.2 29.4 37.2 29.4 37.1 29.4 C 37.1 29.3 37.1 29.3 37 29.3 C 37 29.3 37 29.3 37 29.3 C 37 29.3 36.9 29.3 36.9 29.2 C 36.9 29.2 36.9 29.2 37 29.1 C 37 29.1 37 29.1 37 29.1 C 37.1 29.1 37.1 29.1 37.2 29.1 Z" fill="#cb3265"/>
		</g>
		<path d="M 26.8 33.4 L 26.9 33.4 L 27 34 L 27 34 L 26.8 33.4 Z" fill="#707070"/>
		<path d="M 27.1 35.5 L 27.1 35.5 L 27.3 36.1 L 27.2 36.2 L 27.1 35.5 Z" fill="#707070"/>
		<path d="M 27.4 35.4 L 27.7 35.4 L 27.7 35.4 L 27.5 35.5 L 27.6 35.6 C 27.6 35.6 27.6 35.6 27.6 35.6 C 27.6 35.6 27.7 35.6 27.8 35.7 C 27.8 35.7 27.8 35.7 27.9 35.8 C 27.9 35.8 27.9 35.9 27.8 35.9 C 27.8 36 27.8 36 27.7 36 C 27.6 36 27.6 36 27.5 36 L 27.5 35.9 C 27.6 36 27.6 36 27.7 36 C 27.7 35.9 27.7 35.9 27.7 35.9 C 27.8 35.9 27.8 35.8 27.8 35.8 C 27.8 35.8 27.7 35.7 27.7 35.7 C 27.7 35.7 27.6 35.7 27.6 35.7 C 27.5 35.7 27.5 35.7 27.5 35.8 L 27.4 35.4 Z" fill="#707070"/>
		<path d="M 27.9 38.1 L 28.1 38 L 28.1 38.1 L 27.8 38.2 L 27.8 38.2 L 27.8 38.2 C 27.8 38.1 27.8 38 27.9 38 C 27.9 37.9 27.9 37.8 27.9 37.8 C 27.9 37.8 27.9 37.8 27.9 37.7 C 27.9 37.7 27.9 37.7 27.8 37.7 C 27.8 37.6 27.8 37.6 27.7 37.7 C 27.7 37.7 27.7 37.7 27.7 37.7 C 27.7 37.7 27.6 37.7 27.6 37.8 L 27.6 37.7 C 27.6 37.6 27.7 37.6 27.7 37.6 C 27.8 37.5 27.8 37.6 27.9 37.6 C 27.9 37.6 28 37.6 28 37.7 C 28 37.7 28 37.8 28 37.8 C 28 37.8 28 37.9 28 37.9 C 28 37.9 27.9 38 27.9 38.1 L 27.9 38.1 Z" fill="#707070"/>
		<path d="M 28.4 38.1 L 28.3 38 C 28.3 38 28.3 37.9 28.4 37.9 C 28.4 37.8 28.4 37.8 28.4 37.7 C 28.4 37.8 28.3 37.8 28.3 37.8 C 28.3 37.8 28.2 37.8 28.2 37.8 C 28.1 37.8 28.1 37.7 28.1 37.7 C 28.1 37.6 28.1 37.6 28.1 37.5 C 28.1 37.5 28.2 37.4 28.2 37.4 C 28.3 37.4 28.3 37.4 28.4 37.5 C 28.4 37.5 28.5 37.5 28.5 37.6 C 28.5 37.7 28.5 37.8 28.5 37.8 C 28.5 37.9 28.4 38 28.4 38.1 ZM 28.4 37.6 C 28.4 37.6 28.4 37.6 28.4 37.6 C 28.4 37.6 28.4 37.5 28.3 37.5 C 28.3 37.5 28.3 37.5 28.2 37.5 C 28.2 37.5 28.2 37.5 28.2 37.6 C 28.2 37.6 28.2 37.6 28.2 37.6 C 28.2 37.7 28.2 37.7 28.2 37.7 C 28.3 37.7 28.3 37.7 28.3 37.7 C 28.3 37.7 28.4 37.7 28.4 37.6 Z" fill="#707070"/>
		<path d="M 28.7 33.4 L 28.9 33.4 L 29 33.5 L 28.6 33.6 L 28.6 33.6 L 28.6 33.5 C 28.6 33.4 28.7 33.3 28.7 33.3 C 28.7 33.2 28.7 33.2 28.7 33.2 C 28.7 33.1 28.7 33.1 28.7 33.1 C 28.7 33 28.7 33 28.7 33 C 28.6 33 28.6 33 28.6 33 C 28.5 33 28.5 33 28.5 33 C 28.5 33.1 28.5 33.1 28.4 33.1 L 28.4 33 C 28.5 32.9 28.5 32.9 28.5 32.9 C 28.6 32.9 28.7 32.9 28.7 32.9 C 28.7 32.9 28.8 33 28.8 33 C 28.8 33.1 28.8 33.1 28.8 33.1 C 28.8 33.2 28.8 33.2 28.8 33.2 C 28.8 33.3 28.7 33.3 28.7 33.4 L 28.7 33.4 Z" fill="#707070"/>
		<path d="M 28.9 35 L 29 35 L 29.2 35.6 L 29.1 35.7 L 28.9 35 Z" fill="#707070"/>
		<path d="M 29.5 34.9 L 29.5 34.9 L 29.5 34.9 C 29.5 35 29.5 35 29.5 35.1 C 29.4 35.1 29.4 35.2 29.4 35.2 C 29.4 35.2 29.5 35.2 29.5 35.2 C 29.6 35.1 29.6 35.1 29.7 35.2 C 29.7 35.2 29.7 35.2 29.7 35.3 C 29.8 35.3 29.7 35.4 29.7 35.4 C 29.7 35.5 29.7 35.5 29.6 35.5 C 29.5 35.5 29.5 35.5 29.4 35.5 C 29.4 35.5 29.4 35.4 29.3 35.4 C 29.3 35.3 29.3 35.3 29.3 35.2 C 29.3 35.1 29.3 35.1 29.4 35 C 29.4 35 29.4 34.9 29.5 34.9 ZM 29.4 35.3 C 29.4 35.3 29.4 35.3 29.4 35.4 C 29.4 35.4 29.5 35.4 29.5 35.4 C 29.5 35.4 29.5 35.5 29.6 35.4 C 29.6 35.4 29.6 35.4 29.6 35.4 C 29.7 35.4 29.7 35.3 29.6 35.3 C 29.6 35.3 29.6 35.3 29.6 35.2 C 29.6 35.2 29.5 35.2 29.5 35.2 C 29.5 35.2 29.5 35.3 29.5 35.3 C 29.5 35.3 29.4 35.3 29.4 35.3 Z" fill="#707070"/>
		<path d="M 29.6 37.3 L 29.6 37.3 C 29.6 37.3 29.6 37.3 29.6 37.3 C 29.7 37.3 29.7 37.2 29.7 37.2 C 29.6 37.2 29.6 37.2 29.6 37.2 C 29.6 37.1 29.5 37.1 29.5 37.2 C 29.5 37.2 29.5 37.2 29.4 37.2 L 29.4 37.1 C 29.4 37.1 29.5 37.1 29.5 37.1 C 29.6 37.1 29.6 37.1 29.7 37.1 C 29.7 37.1 29.7 37.1 29.7 37.2 C 29.7 37.2 29.7 37.2 29.7 37.3 C 29.7 37.3 29.7 37.3 29.7 37.3 C 29.7 37.3 29.7 37.3 29.8 37.4 C 29.8 37.4 29.8 37.4 29.8 37.4 C 29.8 37.4 29.8 37.4 29.8 37.5 C 29.8 37.5 29.8 37.6 29.8 37.6 C 29.8 37.7 29.7 37.7 29.7 37.7 C 29.6 37.7 29.6 37.7 29.5 37.7 L 29.5 37.6 C 29.6 37.6 29.6 37.6 29.7 37.6 C 29.7 37.6 29.7 37.6 29.7 37.6 C 29.7 37.5 29.7 37.5 29.7 37.5 C 29.7 37.5 29.7 37.4 29.7 37.4 C 29.7 37.4 29.7 37.4 29.7 37.4 C 29.6 37.4 29.6 37.4 29.6 37.4 L 29.6 37.4 L 29.6 37.3 Z" fill="#707070"/>
		<path d="M 30 36.9 C 30.1 36.9 30.1 36.9 30.2 37 C 30.2 37 30.3 37.1 30.3 37.2 C 30.3 37.3 30.3 37.4 30.3 37.4 C 30.3 37.5 30.2 37.5 30.2 37.6 C 30.1 37.6 30.1 37.6 30 37.5 C 30 37.5 29.9 37.4 29.9 37.3 C 29.9 37.2 29.9 37.1 29.9 37.1 C 29.9 37 29.9 36.9 30 36.9 ZM 30 37 L 30 37 C 30 37 30 37.1 30 37.1 C 30 37.1 30 37.2 30 37.3 C 30 37.3 30 37.4 30.1 37.4 C 30.1 37.5 30.1 37.5 30.2 37.5 C 30.2 37.5 30.2 37.4 30.2 37.4 C 30.2 37.3 30.2 37.3 30.2 37.2 C 30.2 37.1 30.2 37.1 30.1 37.1 C 30.1 37 30.1 37 30 37 Z" fill="#707070"/>
		<path d="M 30.4 32.7 L 30.4 32.7 C 30.4 32.7 30.4 32.7 30.5 32.6 C 30.5 32.6 30.5 32.6 30.5 32.6 C 30.5 32.5 30.4 32.5 30.4 32.5 C 30.4 32.5 30.4 32.5 30.3 32.5 C 30.3 32.5 30.3 32.5 30.2 32.5 L 30.2 32.5 C 30.2 32.4 30.3 32.4 30.3 32.4 C 30.4 32.4 30.4 32.4 30.5 32.4 C 30.5 32.4 30.5 32.5 30.6 32.5 C 30.6 32.6 30.6 32.6 30.6 32.6 C 30.5 32.6 30.5 32.7 30.5 32.7 C 30.5 32.7 30.6 32.7 30.6 32.7 C 30.6 32.7 30.6 32.7 30.6 32.7 C 30.6 32.8 30.6 32.8 30.6 32.8 C 30.7 32.9 30.7 32.9 30.6 32.9 C 30.6 33 30.6 33 30.5 33 C 30.5 33.1 30.4 33.1 30.4 33 L 30.3 32.9 C 30.4 33 30.4 33 30.5 33 C 30.5 32.9 30.5 32.9 30.5 32.9 C 30.6 32.9 30.6 32.9 30.6 32.8 C 30.5 32.8 30.5 32.8 30.5 32.8 C 30.5 32.8 30.5 32.8 30.5 32.8 C 30.5 32.8 30.4 32.8 30.4 32.8 L 30.4 32.8 L 30.4 32.7 Z" fill="#707070"/>
		<path d="M 30.7 34.5 L 30.8 34.5 L 30.9 35.1 L 30.9 35.2 L 30.7 34.5 Z" fill="#707070"/>
		<path d="M 31 34.5 L 31.4 34.3 L 31.3 35 L 31.2 35 L 31.3 34.5 L 31 34.5 L 31 34.5 Z" fill="#707070"/>
		<path d="M 32.2 31.9 L 32.3 31.9 L 32.4 32.2 L 32.4 32.2 L 32.4 32.3 L 32.4 32.3 L 32.4 32.5 L 32.3 32.5 L 32.3 32.3 L 32 32.4 L 32 32.3 L 32.2 31.9 ZM 32.3 32.2 L 32.2 32.1 L 32.1 32.3 L 32.3 32.2 Z" fill="#707070"/>
		<path d="M 32.4 34.1 L 32.5 34 L 32.7 34.6 L 32.6 34.7 L 32.4 34.1 Z" fill="#707070"/>
		<path d="M 32.8 34.1 C 32.8 34.1 32.8 34 32.8 34 C 32.9 33.9 32.9 33.9 33 33.9 C 33 33.9 33.1 33.9 33.1 33.9 C 33.1 33.9 33.2 34 33.2 34 C 33.2 34.1 33.2 34.1 33.2 34.2 C 33.2 34.2 33.3 34.2 33.3 34.3 C 33.3 34.4 33.3 34.4 33.3 34.4 C 33.2 34.5 33.2 34.5 33.1 34.5 C 33.1 34.5 33 34.5 33 34.5 C 32.9 34.5 32.9 34.5 32.9 34.4 C 32.9 34.4 32.9 34.3 32.9 34.2 C 32.9 34.2 32.9 34.2 32.9 34.2 C 32.8 34.2 32.8 34.2 32.8 34.1 ZM 33.2 34.3 L 33.2 34.3 C 33.2 34.3 33.2 34.3 33.1 34.3 C 33.1 34.2 33.1 34.2 33.1 34.3 C 33 34.3 33 34.3 33 34.3 C 33 34.3 33 34.4 33 34.4 C 33 34.4 33 34.4 33 34.4 C 33 34.5 33.1 34.5 33.1 34.4 C 33.1 34.4 33.2 34.4 33.2 34.4 C 33.2 34.4 33.2 34.4 33.2 34.3 ZM 33.1 34.1 C 33.1 34 33.1 34 33.1 34 C 33 34 33 34 33 34 C 32.9 34 32.9 34 32.9 34 C 32.9 34.1 32.9 34.1 32.9 34.1 C 32.9 34.1 32.9 34.1 33 34.2 C 33 34.2 33 34.2 33 34.2 C 33.1 34.2 33.1 34.1 33.1 34.1 C 33.1 34.1 33.1 34.1 33.1 34.1 Z" fill="#707070"/>
		<path d="M 33.8 31.4 L 34 31.4 L 34.1 31.5 L 33.9 31.5 L 33.9 31.7 C 33.9 31.7 33.9 31.7 33.9 31.7 C 34 31.6 34 31.6 34.1 31.7 C 34.1 31.7 34.2 31.7 34.2 31.8 C 34.2 31.8 34.2 31.9 34.2 31.9 C 34.1 32 34.1 32 34 32 C 34 32.1 33.9 32.1 33.9 32 L 33.9 32 C 33.9 32 34 32 34 32 C 34 32 34.1 31.9 34.1 31.9 C 34.1 31.9 34.1 31.8 34.1 31.8 C 34.1 31.8 34.1 31.8 34 31.7 C 34 31.7 34 31.7 33.9 31.7 C 33.9 31.8 33.9 31.8 33.9 31.8 L 33.8 31.4 Z" fill="#707070"/>
		<path d="M 34.2 33.6 L 34.3 33.5 L 34.5 34.1 L 34.4 34.2 L 34.2 33.6 Z" fill="#707070"/>
		<path d="M 34.8 34.1 L 34.8 34 C 34.8 34 34.8 33.9 34.9 33.9 C 34.9 33.8 34.9 33.8 34.9 33.7 C 34.9 33.7 34.8 33.8 34.8 33.8 C 34.8 33.8 34.7 33.8 34.7 33.8 C 34.6 33.7 34.6 33.7 34.6 33.6 C 34.6 33.6 34.6 33.5 34.6 33.5 C 34.6 33.5 34.7 33.4 34.7 33.4 C 34.8 33.4 34.8 33.4 34.9 33.4 C 34.9 33.5 35 33.5 35 33.6 C 35 33.7 35 33.7 35 33.8 C 34.9 33.9 34.9 34 34.8 34.1 ZM 34.9 33.6 C 34.9 33.6 34.9 33.6 34.9 33.6 C 34.9 33.5 34.9 33.5 34.8 33.5 C 34.8 33.5 34.8 33.5 34.7 33.5 C 34.7 33.5 34.7 33.5 34.7 33.5 C 34.7 33.6 34.7 33.6 34.7 33.6 C 34.7 33.6 34.7 33.7 34.7 33.7 C 34.7 33.7 34.8 33.7 34.8 33.7 C 34.8 33.7 34.9 33.7 34.9 33.6 Z" fill="#707070"/>
		<path d="M 35.7 30.9 L 35.7 30.9 L 35.8 30.9 C 35.8 31 35.7 31 35.7 31.1 C 35.7 31.1 35.7 31.2 35.7 31.2 C 35.7 31.2 35.7 31.2 35.8 31.2 C 35.8 31.2 35.9 31.2 35.9 31.2 C 35.9 31.2 36 31.2 36 31.3 C 36 31.4 36 31.4 36 31.4 C 35.9 31.5 35.9 31.5 35.9 31.5 C 35.8 31.6 35.7 31.5 35.7 31.5 C 35.6 31.5 35.6 31.4 35.6 31.4 C 35.6 31.3 35.6 31.3 35.6 31.2 C 35.6 31.2 35.6 31.1 35.6 31.1 C 35.6 31 35.7 31 35.7 30.9 ZM 35.7 31.3 C 35.7 31.3 35.7 31.3 35.7 31.4 C 35.7 31.4 35.7 31.4 35.7 31.4 C 35.8 31.5 35.8 31.5 35.8 31.5 C 35.9 31.4 35.9 31.4 35.9 31.4 C 35.9 31.4 35.9 31.4 35.9 31.3 C 35.9 31.3 35.9 31.3 35.9 31.3 C 35.8 31.2 35.8 31.2 35.8 31.3 C 35.7 31.3 35.7 31.3 35.7 31.3 C 35.7 31.3 35.7 31.3 35.7 31.3 Z" fill="#707070"/>
		<path d="M 36.1 33.6 L 36.4 33.5 L 36.4 33.6 L 36 33.7 L 36 33.7 L 36 33.7 C 36.1 33.6 36.1 33.5 36.1 33.4 C 36.1 33.4 36.2 33.3 36.2 33.3 C 36.2 33.3 36.2 33.2 36.2 33.2 C 36.1 33.2 36.1 33.2 36.1 33.1 C 36.1 33.1 36 33.1 36 33.1 C 36 33.1 36 33.2 35.9 33.2 C 35.9 33.2 35.9 33.2 35.9 33.3 L 35.9 33.1 C 35.9 33.1 35.9 33.1 36 33 C 36.1 33 36.1 33 36.1 33.1 C 36.2 33.1 36.2 33.1 36.2 33.2 C 36.2 33.2 36.2 33.2 36.2 33.3 C 36.2 33.3 36.2 33.3 36.2 33.4 C 36.2 33.4 36.2 33.5 36.2 33.6 L 36.1 33.6 Z" fill="#707070"/>
		<path d="M 36.5 32.9 C 36.6 32.9 36.6 32.9 36.7 33 C 36.7 33 36.8 33.1 36.8 33.2 C 36.8 33.3 36.8 33.3 36.8 33.4 C 36.8 33.5 36.7 33.5 36.7 33.5 C 36.6 33.6 36.6 33.5 36.5 33.5 C 36.4 33.4 36.4 33.4 36.4 33.3 C 36.4 33.2 36.4 33.1 36.4 33 C 36.4 33 36.4 32.9 36.5 32.9 ZM 36.5 33 L 36.5 33 C 36.5 33 36.5 33 36.5 33.1 C 36.4 33.1 36.4 33.2 36.5 33.3 C 36.5 33.3 36.5 33.4 36.5 33.4 C 36.6 33.5 36.6 33.5 36.6 33.5 C 36.7 33.5 36.7 33.4 36.7 33.4 C 36.7 33.3 36.7 33.3 36.7 33.2 C 36.7 33.1 36.6 33.1 36.6 33 C 36.6 33 36.6 33 36.5 33 Z" fill="#707070"/>
		<path d="M 37.3 30.5 L 37.7 30.4 L 37.6 31.1 L 37.5 31 L 37.5 30.5 L 37.3 30.6 L 37.3 30.5 Z" fill="#cb3265"/>
		<path d="M 37.8 33.1 L 38 33 L 38.1 33.1 L 37.7 33.2 L 37.7 33.2 L 37.7 33.2 C 37.7 33.1 37.8 33 37.8 32.9 C 37.8 32.9 37.8 32.8 37.8 32.8 C 37.8 32.8 37.8 32.8 37.8 32.7 C 37.8 32.7 37.8 32.7 37.8 32.7 C 37.7 32.6 37.7 32.6 37.7 32.6 C 37.6 32.6 37.6 32.7 37.6 32.7 C 37.6 32.7 37.6 32.7 37.6 32.8 L 37.5 32.7 C 37.6 32.6 37.6 32.6 37.7 32.6 C 37.7 32.5 37.8 32.5 37.8 32.6 C 37.9 32.6 37.9 32.6 37.9 32.7 C 37.9 32.7 37.9 32.7 37.9 32.8 C 37.9 32.8 37.9 32.8 37.9 32.9 C 37.9 32.9 37.9 33 37.8 33.1 L 37.8 33.1 Z" fill="#cb3265"/>
		<path d="M 38.1 32.4 L 38.2 32.4 L 38.4 33 L 38.3 33.1 L 38.1 32.4 Z" fill="#cb3265"/>
		<path d="M 26.9 34.6 C 26.9 34.6 26.9 34.5 26.9 34.5 C 26.9 34.4 27 34.4 27 34.4 C 27.1 34.4 27.1 34.4 27.2 34.4 C 27.2 34.4 27.2 34.5 27.3 34.5 C 27.3 34.6 27.3 34.6 27.2 34.7 C 27.3 34.7 27.3 34.7 27.3 34.8 C 27.4 34.8 27.4 34.9 27.3 34.9 C 27.3 35 27.3 35 27.2 35 C 27.1 35 27.1 35 27 35 C 27 35 27 35 26.9 34.9 C 26.9 34.8 26.9 34.8 27 34.7 C 27 34.7 26.9 34.7 26.9 34.7 C 26.9 34.7 26.9 34.6 26.9 34.6 ZM 27.3 34.8 L 27.3 34.8 C 27.2 34.8 27.2 34.8 27.2 34.7 C 27.2 34.7 27.1 34.7 27.1 34.7 C 27.1 34.8 27.1 34.8 27 34.8 C 27 34.8 27 34.8 27 34.9 C 27 34.9 27.1 34.9 27.1 34.9 C 27.1 34.9 27.1 34.9 27.2 34.9 C 27.2 34.9 27.2 34.9 27.2 34.9 C 27.3 34.9 27.3 34.8 27.3 34.8 ZM 27.2 34.5 C 27.2 34.5 27.1 34.5 27.1 34.5 C 27.1 34.5 27.1 34.5 27 34.5 C 27 34.5 27 34.5 27 34.5 C 27 34.5 27 34.6 27 34.6 C 27 34.6 27 34.6 27 34.6 C 27 34.7 27.1 34.7 27.1 34.7 C 27.1 34.6 27.1 34.6 27.2 34.6 C 27.2 34.6 27.2 34.6 27.2 34.5 Z" fill="#707070"/>
		<path d="M 27.6 37.1 L 27.8 37 L 27.8 37.1 L 27.5 37.2 L 27.5 37.2 L 27.5 37.1 C 27.5 37.1 27.5 37 27.6 36.9 C 27.6 36.9 27.6 36.8 27.6 36.8 C 27.6 36.8 27.6 36.7 27.6 36.7 C 27.6 36.7 27.6 36.6 27.5 36.6 C 27.5 36.6 27.5 36.6 27.5 36.6 C 27.4 36.6 27.4 36.6 27.4 36.7 C 27.4 36.7 27.3 36.7 27.3 36.7 L 27.3 36.6 C 27.3 36.6 27.4 36.5 27.4 36.5 C 27.5 36.5 27.5 36.5 27.6 36.5 C 27.6 36.6 27.7 36.6 27.7 36.7 C 27.7 36.7 27.7 36.7 27.7 36.8 C 27.7 36.8 27.7 36.8 27.7 36.9 C 27.7 36.9 27.6 37 27.6 37 L 27.6 37.1 Z" fill="#707070"/>
		<path d="M 28 36.9 L 28.3 36.9 L 28.3 37 L 27.9 37.1 L 27.9 37.1 L 27.9 37 C 28 36.9 28 36.8 28 36.8 C 28 36.7 28.1 36.7 28.1 36.7 C 28.1 36.6 28.1 36.6 28.1 36.6 C 28 36.5 28 36.5 28 36.5 C 28 36.5 27.9 36.5 27.9 36.5 C 27.9 36.5 27.9 36.5 27.8 36.5 C 27.8 36.6 27.8 36.6 27.8 36.6 L 27.8 36.5 C 27.8 36.5 27.8 36.4 27.9 36.4 C 27.9 36.4 28 36.4 28 36.4 C 28.1 36.4 28.1 36.5 28.1 36.5 C 28.1 36.6 28.1 36.6 28.1 36.6 C 28.1 36.7 28.1 36.7 28.1 36.7 C 28.1 36.8 28.1 36.8 28.1 36.9 L 28 36.9 Z" fill="#707070"/>
		<path d="M 29 34.5 L 28.9 34.5 C 29 34.5 29 34.4 29 34.4 C 29 34.3 29 34.3 29 34.2 C 29 34.2 29 34.3 29 34.3 C 28.9 34.3 28.9 34.3 28.8 34.2 C 28.8 34.2 28.7 34.2 28.7 34.1 C 28.7 34.1 28.7 34 28.7 34 C 28.8 33.9 28.8 33.9 28.9 33.9 C 28.9 33.9 29 33.9 29 33.9 C 29.1 33.9 29.1 34 29.1 34.1 C 29.2 34.1 29.2 34.2 29.1 34.3 C 29.1 34.4 29.1 34.5 29 34.5 ZM 29 34.1 C 29 34.1 29 34.1 29 34.1 C 29 34 29 34 29 34 C 29 34 28.9 34 28.9 34 C 28.9 34 28.8 34 28.8 34 C 28.8 34.1 28.8 34.1 28.8 34.1 C 28.8 34.1 28.8 34.2 28.9 34.2 C 28.9 34.2 28.9 34.2 29 34.2 C 29 34.2 29 34.1 29 34.1 Z" fill="#707070"/>
		<path d="M 29.4 36.6 L 29.6 36.5 L 29.6 36.6 L 29.2 36.7 L 29.2 36.7 L 29.2 36.6 C 29.3 36.6 29.3 36.5 29.3 36.4 C 29.4 36.4 29.4 36.3 29.4 36.3 C 29.4 36.3 29.4 36.2 29.4 36.2 C 29.4 36.2 29.3 36.1 29.3 36.1 C 29.3 36.1 29.3 36.1 29.2 36.1 C 29.2 36.1 29.2 36.1 29.2 36.2 C 29.1 36.2 29.1 36.2 29.1 36.2 L 29.1 36.1 C 29.1 36.1 29.2 36 29.2 36 C 29.3 36 29.3 36 29.4 36.1 C 29.4 36.1 29.4 36.1 29.4 36.2 C 29.5 36.2 29.5 36.2 29.5 36.3 C 29.5 36.3 29.5 36.3 29.4 36.4 C 29.4 36.4 29.4 36.5 29.4 36.5 L 29.4 36.6 Z" fill="#707070"/>
		<path d="M 29.7 36.2 L 29.7 36.2 C 29.8 36.2 29.8 36.2 29.8 36.1 C 29.8 36.1 29.8 36.1 29.8 36.1 C 29.8 36 29.8 36 29.8 36 C 29.7 36 29.7 36 29.7 36 C 29.6 36 29.6 36 29.6 36 L 29.6 36 C 29.6 35.9 29.6 35.9 29.7 35.9 C 29.7 35.9 29.8 35.9 29.8 35.9 C 29.9 35.9 29.9 36 29.9 36 C 29.9 36.1 29.9 36.1 29.9 36.1 C 29.9 36.1 29.9 36.2 29.9 36.2 C 29.9 36.2 29.9 36.2 29.9 36.2 C 29.9 36.2 29.9 36.2 30 36.2 C 30 36.3 30 36.3 30 36.3 C 30 36.4 30 36.4 30 36.4 C 29.9 36.5 29.9 36.5 29.8 36.5 C 29.8 36.6 29.8 36.6 29.7 36.5 L 29.7 36.4 C 29.7 36.5 29.8 36.5 29.8 36.5 C 29.9 36.4 29.9 36.4 29.9 36.4 C 29.9 36.4 29.9 36.4 29.9 36.3 C 29.9 36.3 29.9 36.3 29.9 36.3 C 29.8 36.3 29.8 36.3 29.8 36.3 C 29.8 36.3 29.8 36.3 29.7 36.3 L 29.7 36.3 L 29.7 36.2 Z" fill="#707070"/>
		<path d="M 30.4 33.5 L 30.5 33.5 L 30.6 34.1 L 30.5 34.1 L 30.4 33.5 Z" fill="#707070"/>
		<path d="M 30.9 33.3 C 30.9 33.3 31 33.3 31 33.4 C 31.1 33.4 31.1 33.5 31.2 33.6 C 31.2 33.7 31.2 33.8 31.2 33.8 C 31.2 33.9 31.1 33.9 31.1 34 C 31 34 30.9 34 30.9 33.9 C 30.8 33.9 30.8 33.8 30.8 33.7 C 30.7 33.6 30.7 33.5 30.8 33.5 C 30.8 33.4 30.8 33.3 30.9 33.3 ZM 30.9 33.4 L 30.9 33.4 C 30.9 33.4 30.8 33.5 30.8 33.5 C 30.8 33.5 30.8 33.6 30.9 33.7 C 30.9 33.8 30.9 33.8 30.9 33.8 C 31 33.9 31 33.9 31 33.9 C 31.1 33.9 31.1 33.8 31.1 33.8 C 31.1 33.8 31.1 33.7 31.1 33.6 C 31.1 33.5 31 33.5 31 33.5 C 31 33.4 30.9 33.4 30.9 33.4 Z" fill="#707070"/>
		<path d="M 31.1 36.1 L 31.4 36 L 31.4 36.1 L 31 36.2 L 31 36.2 L 31 36.1 C 31.1 36.1 31.1 36 31.1 35.9 C 31.1 35.9 31.1 35.8 31.1 35.8 C 31.1 35.8 31.1 35.7 31.1 35.7 C 31.1 35.7 31.1 35.7 31.1 35.6 C 31.1 35.6 31 35.6 31 35.6 C 31 35.6 30.9 35.6 30.9 35.7 C 30.9 35.7 30.9 35.7 30.9 35.8 L 30.8 35.6 C 30.9 35.6 30.9 35.6 31 35.5 C 31 35.5 31.1 35.5 31.1 35.6 C 31.2 35.6 31.2 35.6 31.2 35.7 C 31.2 35.7 31.2 35.7 31.2 35.8 C 31.2 35.8 31.2 35.8 31.2 35.9 C 31.2 35.9 31.2 36 31.1 36.1 L 31.1 36.1 Z" fill="#707070"/>
		<path d="M 31.6 35.4 L 31.6 35.4 L 31.7 35.7 L 31.8 35.7 L 31.8 35.8 L 31.7 35.8 L 31.8 36 L 31.7 36 L 31.6 35.8 L 31.4 35.9 L 31.4 35.8 L 31.6 35.4 ZM 31.6 35.7 L 31.6 35.6 L 31.5 35.8 L 31.6 35.7 Z" fill="#707070"/>
		<path d="M 32.1 33 L 32.2 33 L 32.4 33.6 L 32.3 33.6 L 32.1 33 Z" fill="#707070"/>
		<path d="M 32.6 32.9 L 32.7 32.8 L 32.9 33.4 L 32.8 33.5 L 32.6 32.9 Z" fill="#707070"/>
		<path d="M 32.9 35.6 L 33.1 35.5 L 33.2 35.6 L 32.8 35.7 L 32.8 35.7 L 32.8 35.7 C 32.8 35.6 32.9 35.5 32.9 35.4 C 32.9 35.4 32.9 35.3 32.9 35.3 C 32.9 35.3 32.9 35.2 32.9 35.2 C 32.9 35.2 32.9 35.2 32.8 35.1 C 32.8 35.1 32.8 35.1 32.8 35.1 C 32.7 35.1 32.7 35.2 32.7 35.2 C 32.7 35.2 32.7 35.2 32.6 35.3 L 32.6 35.1 C 32.6 35.1 32.7 35.1 32.7 35 C 32.8 35 32.9 35 32.9 35.1 C 32.9 35.1 33 35.1 33 35.2 C 33 35.2 33 35.2 33 35.3 C 33 35.3 33 35.3 33 35.4 C 33 35.4 32.9 35.5 32.9 35.6 L 32.9 35.6 Z" fill="#707070"/>
		<path d="M 33.1 35 L 33.4 34.9 L 33.4 35 L 33.2 35 L 33.3 35.2 C 33.3 35.2 33.3 35.2 33.3 35.2 C 33.3 35.1 33.4 35.1 33.4 35.2 C 33.5 35.2 33.5 35.2 33.5 35.3 C 33.6 35.3 33.5 35.4 33.5 35.4 C 33.5 35.5 33.4 35.5 33.4 35.5 C 33.3 35.6 33.3 35.6 33.2 35.6 L 33.2 35.5 C 33.3 35.5 33.3 35.5 33.3 35.5 C 33.4 35.5 33.4 35.4 33.4 35.4 C 33.5 35.4 33.5 35.3 33.4 35.3 C 33.4 35.3 33.4 35.3 33.4 35.2 C 33.3 35.2 33.3 35.2 33.3 35.2 C 33.2 35.3 33.2 35.3 33.2 35.3 L 33.1 35 Z" fill="#707070"/>
		<path d="M 33.9 32.5 L 34 32.5 L 34.2 33.1 L 34.1 33.1 L 33.9 32.5 Z" fill="#707070"/>
		<path d="M 34.5 32.9 L 34.8 32.8 L 34.8 32.9 L 34.4 33 L 34.4 33 L 34.4 33 C 34.5 32.9 34.5 32.8 34.5 32.7 C 34.5 32.7 34.5 32.6 34.5 32.6 C 34.5 32.6 34.5 32.6 34.5 32.5 C 34.5 32.5 34.5 32.5 34.5 32.4 C 34.5 32.4 34.4 32.4 34.4 32.4 C 34.4 32.4 34.3 32.5 34.3 32.5 C 34.3 32.5 34.3 32.5 34.3 32.6 L 34.2 32.5 C 34.3 32.4 34.3 32.4 34.4 32.4 C 34.4 32.3 34.5 32.3 34.5 32.4 C 34.6 32.4 34.6 32.4 34.6 32.5 C 34.6 32.5 34.6 32.5 34.6 32.6 C 34.6 32.6 34.6 32.6 34.6 32.7 C 34.6 32.7 34.6 32.8 34.5 32.9 L 34.5 32.9 Z" fill="#707070"/>
		<path d="M 34.7 35.1 L 34.9 35 L 34.9 35.1 L 34.5 35.2 L 34.5 35.2 L 34.6 35.2 C 34.6 35.1 34.6 35 34.6 34.9 C 34.7 34.9 34.7 34.8 34.7 34.8 C 34.7 34.8 34.7 34.7 34.7 34.7 C 34.7 34.7 34.6 34.7 34.6 34.6 C 34.6 34.6 34.6 34.6 34.5 34.6 C 34.5 34.6 34.5 34.7 34.5 34.7 C 34.4 34.7 34.4 34.7 34.4 34.8 L 34.4 34.6 C 34.4 34.6 34.5 34.6 34.5 34.5 C 34.6 34.5 34.6 34.5 34.7 34.6 C 34.7 34.6 34.7 34.6 34.8 34.7 C 34.8 34.7 34.8 34.7 34.8 34.8 C 34.8 34.8 34.8 34.8 34.7 34.9 C 34.7 34.9 34.7 35 34.7 35.1 L 34.7 35.1 Z" fill="#707070"/>
		<path d="M 35.1 34.4 L 35.1 34.4 L 35.1 34.4 C 35.1 34.5 35.1 34.5 35.1 34.6 C 35 34.6 35 34.7 35 34.7 C 35 34.7 35.1 34.7 35.1 34.7 C 35.2 34.7 35.2 34.7 35.2 34.7 C 35.3 34.7 35.3 34.7 35.3 34.8 C 35.4 34.9 35.3 34.9 35.3 34.9 C 35.3 35 35.3 35 35.2 35 C 35.1 35.1 35.1 35 35 35 C 35 35 35 34.9 34.9 34.9 C 34.9 34.8 34.9 34.8 34.9 34.7 C 34.9 34.7 34.9 34.6 35 34.6 C 35 34.5 35 34.5 35.1 34.4 ZM 35 34.8 C 35 34.8 35 34.8 35 34.9 C 35 34.9 35.1 34.9 35.1 34.9 C 35.1 35 35.1 35 35.2 35 C 35.2 34.9 35.2 34.9 35.2 34.9 C 35.3 34.9 35.3 34.9 35.2 34.8 C 35.2 34.8 35.2 34.8 35.2 34.8 C 35.2 34.7 35.1 34.7 35.1 34.8 C 35.1 34.8 35.1 34.8 35.1 34.8 C 35.1 34.8 35 34.8 35 34.8 Z" fill="#707070"/>
		<path d="M 35.7 32 L 35.8 32 L 35.9 32.6 L 35.9 32.6 L 35.7 32 Z" fill="#707070"/>
		<path d="M 36.2 32.1 L 36.2 32.1 C 36.2 32.1 36.3 32.1 36.3 32.1 C 36.3 32.1 36.3 32 36.3 32 C 36.3 32 36.3 32 36.2 31.9 C 36.2 31.9 36.2 31.9 36.2 31.9 C 36.1 31.9 36.1 32 36.1 32 L 36 31.9 C 36.1 31.9 36.1 31.9 36.1 31.9 C 36.2 31.8 36.3 31.8 36.3 31.9 C 36.3 31.9 36.4 31.9 36.4 32 C 36.4 32 36.4 32 36.4 32.1 C 36.4 32.1 36.4 32.1 36.3 32.1 C 36.4 32.1 36.4 32.1 36.4 32.1 C 36.4 32.2 36.4 32.2 36.4 32.2 C 36.5 32.2 36.5 32.2 36.5 32.2 C 36.5 32.3 36.5 32.3 36.5 32.4 C 36.4 32.4 36.4 32.5 36.3 32.5 C 36.3 32.5 36.2 32.5 36.2 32.5 L 36.2 32.4 C 36.2 32.4 36.3 32.4 36.3 32.4 C 36.3 32.4 36.4 32.4 36.4 32.4 C 36.4 32.3 36.4 32.3 36.4 32.3 C 36.4 32.2 36.4 32.2 36.3 32.2 C 36.3 32.2 36.3 32.2 36.3 32.2 C 36.3 32.2 36.3 32.2 36.2 32.2 L 36.2 32.2 L 36.2 32.1 Z" fill="#707070"/>
		<path d="M 36.4 34.6 L 36.7 34.5 L 36.7 34.6 L 36.3 34.7 L 36.3 34.7 L 36.3 34.7 C 36.4 34.6 36.4 34.5 36.4 34.4 C 36.4 34.4 36.4 34.3 36.4 34.3 C 36.5 34.3 36.5 34.2 36.4 34.2 C 36.4 34.2 36.4 34.2 36.4 34.1 C 36.4 34.1 36.3 34.1 36.3 34.1 C 36.3 34.1 36.3 34.2 36.2 34.2 C 36.2 34.2 36.2 34.2 36.2 34.3 L 36.2 34.2 C 36.2 34.1 36.2 34.1 36.3 34 C 36.3 34 36.4 34 36.4 34.1 C 36.5 34.1 36.5 34.1 36.5 34.2 C 36.5 34.2 36.5 34.2 36.5 34.3 C 36.5 34.3 36.5 34.3 36.5 34.4 C 36.5 34.4 36.5 34.5 36.4 34.6 L 36.4 34.6 Z" fill="#707070"/>
		<path d="M 36.6 34 L 37 33.9 L 36.9 34.6 L 36.8 34.6 L 36.9 34 L 36.6 34.1 L 36.6 34 Z" fill="#707070"/>
		<path d="M 37.3 31.5 L 37.4 31.5 L 37.6 32.1 L 37.5 32.1 L 37.3 31.5 Z" fill="#cb3265"/>
		<path d="M 37.9 31.3 L 38 31.3 L 38.1 31.7 L 38.1 31.6 L 38.2 31.7 L 38.1 31.7 L 38.2 31.9 L 38.1 32 L 38 31.8 L 37.7 31.8 L 37.7 31.8 L 37.9 31.3 ZM 38 31.7 L 37.9 31.5 L 37.8 31.7 L 38 31.7 Z" fill="#cb3265"/>
		<path d="M 38.1 34.1 L 38.3 34 L 38.4 34.1 L 38 34.2 L 38 34.2 L 38 34.2 C 38 34.1 38.1 34 38.1 33.9 C 38.1 33.9 38.1 33.8 38.1 33.8 C 38.1 33.8 38.1 33.8 38.1 33.7 C 38.1 33.7 38.1 33.7 38 33.7 C 38 33.6 38 33.6 38 33.6 C 37.9 33.7 37.9 33.7 37.9 33.7 C 37.9 33.7 37.9 33.7 37.8 33.8 L 37.8 33.7 C 37.8 33.6 37.9 33.6 37.9 33.6 C 38 33.5 38.1 33.5 38.1 33.6 C 38.1 33.6 38.2 33.6 38.2 33.7 C 38.2 33.7 38.2 33.7 38.2 33.8 C 38.2 33.8 38.2 33.8 38.2 33.9 C 38.2 33.9 38.1 34 38.1 34.1 L 38.1 34.1 Z" fill="#cb3265"/>
		<path d="M 38.3 33.6 C 38.3 33.6 38.3 33.5 38.3 33.5 C 38.4 33.5 38.4 33.4 38.4 33.4 C 38.5 33.4 38.5 33.4 38.6 33.4 C 38.6 33.5 38.7 33.5 38.7 33.5 C 38.7 33.6 38.7 33.6 38.6 33.7 C 38.7 33.7 38.8 33.8 38.8 33.8 C 38.8 33.9 38.8 33.9 38.8 34 C 38.7 34 38.7 34 38.6 34 C 38.6 34.1 38.5 34.1 38.5 34 C 38.4 34 38.4 34 38.4 33.9 C 38.4 33.9 38.4 33.8 38.4 33.8 C 38.4 33.7 38.4 33.7 38.3 33.7 C 38.3 33.7 38.3 33.7 38.3 33.6 ZM 38.7 33.8 L 38.7 33.8 C 38.7 33.8 38.7 33.8 38.6 33.8 C 38.6 33.8 38.6 33.8 38.5 33.8 C 38.5 33.8 38.5 33.8 38.5 33.8 C 38.5 33.8 38.5 33.9 38.5 33.9 C 38.5 33.9 38.5 33.9 38.5 34 C 38.5 34 38.6 34 38.6 34 C 38.6 34 38.7 33.9 38.7 33.9 C 38.7 33.9 38.7 33.9 38.7 33.8 ZM 38.6 33.6 C 38.6 33.5 38.6 33.5 38.5 33.5 C 38.5 33.5 38.5 33.5 38.5 33.5 C 38.4 33.5 38.4 33.5 38.4 33.5 C 38.4 33.6 38.4 33.6 38.4 33.6 C 38.4 33.6 38.4 33.7 38.4 33.7 C 38.5 33.7 38.5 33.7 38.5 33.7 C 38.5 33.7 38.6 33.7 38.6 33.6 C 38.6 33.6 38.6 33.6 38.6 33.6 Z" fill="#cb3265"/>
		<g>
			<g>
				<path d="M 25.8 31.1 C 25.9 31.1 26 31.1 26.1 31.1 C 26.2 31 26.2 31 26.2 30.9 C 26.2 30.8 26.1 30.7 26 30.7 C 25.8 30.7 25.7 30.7 25.7 30.5 C 25.6 30.4 25.7 30.3 25.9 30.2 C 26 30.2 26.1 30.2 26.1 30.2 L 26.1 30.3 C 26.1 30.3 26 30.3 25.9 30.3 C 25.8 30.4 25.8 30.4 25.8 30.5 C 25.8 30.6 25.9 30.6 26 30.6 C 26.2 30.6 26.3 30.7 26.3 30.8 C 26.4 31 26.3 31.1 26.1 31.2 C 26 31.2 25.9 31.2 25.8 31.2 L 25.8 31.1 Z" fill="#447b88"/>
				<path d="M 26.9 30.5 L 26.5 30.6 L 26.6 30.9 L 27 30.8 L 27.1 30.9 L 26.5 31 L 26.3 30.1 L 26.8 30 L 26.8 30.1 L 26.4 30.2 L 26.5 30.5 L 26.9 30.4 L 26.9 30.5 Z" fill="#447b88"/>
				<path d="M 27 30 C 27 29.9 27.1 29.9 27.2 29.9 C 27.3 29.9 27.4 29.9 27.5 29.9 C 27.5 29.9 27.6 30 27.6 30.1 C 27.6 30.1 27.6 30.2 27.6 30.3 C 27.5 30.4 27.4 30.4 27.3 30.4 C 27.3 30.5 27.3 30.5 27.2 30.5 L 27.3 30.8 L 27.2 30.8 L 27 30 ZM 27.2 30.4 C 27.2 30.4 27.3 30.4 27.3 30.4 C 27.4 30.3 27.5 30.2 27.5 30.1 C 27.4 30 27.3 30 27.2 30 C 27.2 30 27.1 30 27.1 30 L 27.2 30.4 Z" fill="#447b88"/>
				<path d="M 27.9 29.8 L 27.6 29.9 L 27.6 29.8 L 28.2 29.6 L 28.3 29.7 L 28 29.8 L 28.2 30.6 L 28.1 30.6 L 27.9 29.8 Z" fill="#447b88"/>
				<path d="M 28.9 29.9 L 28.6 30 L 28.7 30.4 L 29.1 30.2 L 29.1 30.3 L 28.6 30.5 L 28.3 29.6 L 28.8 29.5 L 28.8 29.6 L 28.5 29.7 L 28.6 29.9 L 28.9 29.8 L 28.9 29.9 Z" fill="#447b88"/>
				<path d="M 29.9 29.7 C 29.8 29.6 29.8 29.4 29.8 29.3 L 29.8 29.3 C 29.8 29.4 29.8 29.6 29.7 29.7 L 29.7 30.2 L 29.6 30.2 L 29.4 29.8 C 29.3 29.7 29.2 29.6 29.2 29.5 L 29.2 29.5 C 29.2 29.6 29.2 29.8 29.2 29.9 L 29.3 30.3 L 29.2 30.3 L 29 29.4 L 29.2 29.4 L 29.5 29.8 C 29.5 29.9 29.6 29.9 29.6 30 L 29.6 30 C 29.6 29.9 29.6 29.8 29.6 29.7 L 29.7 29.2 L 29.8 29.2 L 30.1 30.1 L 30 30.1 L 29.9 29.7 Z" fill="#447b88"/>
				<path d="M 30.1 29.1 C 30.1 29.1 30.2 29.1 30.3 29.1 C 30.4 29 30.5 29 30.5 29.1 C 30.6 29.1 30.6 29.1 30.7 29.2 C 30.7 29.3 30.6 29.4 30.6 29.4 L 30.6 29.4 C 30.7 29.4 30.8 29.5 30.8 29.6 C 30.8 29.7 30.8 29.8 30.8 29.8 C 30.7 29.9 30.6 29.9 30.5 30 C 30.4 30 30.3 30 30.3 30 L 30.1 29.1 ZM 30.3 29.5 L 30.4 29.4 C 30.5 29.4 30.6 29.3 30.5 29.2 C 30.5 29.1 30.4 29.1 30.3 29.2 C 30.3 29.2 30.2 29.2 30.2 29.2 L 30.3 29.5 ZM 30.4 29.9 C 30.4 29.9 30.5 29.9 30.5 29.9 C 30.6 29.8 30.7 29.8 30.7 29.6 C 30.7 29.5 30.5 29.5 30.4 29.5 L 30.3 29.6 L 30.4 29.9 Z" fill="#447b88"/>
				<path d="M 31.4 29.3 L 31 29.4 L 31.1 29.7 L 31.5 29.6 L 31.5 29.7 L 31 29.8 L 30.8 28.9 L 31.3 28.8 L 31.3 28.9 L 30.9 29 L 31 29.3 L 31.4 29.2 L 31.4 29.3 Z" fill="#447b88"/>
				<path d="M 31.4 28.8 C 31.5 28.7 31.6 28.7 31.7 28.7 C 31.8 28.7 31.9 28.7 31.9 28.7 C 32 28.7 32 28.8 32.1 28.8 C 32.1 29 32 29.1 32 29.1 L 32 29.1 C 32 29.1 32.1 29.2 32.1 29.3 C 32.2 29.4 32.2 29.5 32.3 29.5 L 32.2 29.5 C 32.1 29.5 32.1 29.4 32 29.3 C 32 29.2 31.9 29.2 31.8 29.2 L 31.7 29.2 L 31.8 29.6 L 31.7 29.6 L 31.4 28.8 ZM 31.7 29.1 L 31.8 29.1 C 31.9 29.1 32 29 32 28.9 C 31.9 28.8 31.8 28.7 31.7 28.8 C 31.6 28.8 31.6 28.8 31.6 28.8 L 31.7 29.1 Z" fill="#447b88"/>
			</g>
			<g>
				<path d="M 25.5 29.8 C 25.5 29.5 25.6 29.2 25.9 29 C 26 28.9 26.1 28.8 26.3 28.7 C 26.4 28.6 26.5 28.5 26.5 28.4 C 26.5 28.3 26.4 28.2 26.2 28.2 C 26.1 28.2 26 28.2 25.9 28.3 C 25.7 28.3 25.6 28.4 25.5 28.5 C 25.4 28.6 25.4 28.7 25.4 28.8 L 25.3 28.9 C 25.3 28.7 25.3 28.5 25.4 28.4 C 25.5 28.3 25.7 28.2 25.9 28.2 C 26 28.1 26.2 28.1 26.3 28.1 C 26.5 28.2 26.6 28.2 26.6 28.4 C 26.6 28.5 26.5 28.7 26.2 28.9 C 26.2 28.9 26 29 25.9 29.1 C 25.8 29.2 25.8 29.3 25.7 29.3 C 25.7 29.5 25.6 29.5 25.6 29.6 L 27 29.3 L 27 29.4 L 25.5 29.8 Z" fill="#447b88"/>
				<path d="M 28.4 28.9 C 28.3 29 28.1 29.1 27.9 29.1 C 27.7 29.2 27.5 29.2 27.4 29.2 C 27.2 29.1 27.1 29 27 28.8 L 26.9 28.5 C 26.9 28.3 26.9 28.1 27.1 28 C 27.2 27.8 27.3 27.8 27.5 27.7 C 27.7 27.7 27.9 27.6 28.1 27.7 C 28.2 27.8 28.4 27.9 28.4 28.1 L 28.5 28.4 C 28.6 28.6 28.5 28.7 28.4 28.9 ZM 28.3 28.1 C 28.2 27.9 28.2 27.8 28 27.8 C 27.9 27.8 27.7 27.8 27.6 27.8 C 27.4 27.8 27.3 27.9 27.2 28 C 27.1 28.1 27 28.3 27.1 28.4 L 27.2 28.8 C 27.2 28.9 27.3 29 27.4 29.1 C 27.6 29.1 27.7 29.1 27.9 29 C 28.1 29 28.2 28.9 28.3 28.8 C 28.4 28.7 28.4 28.6 28.4 28.4 L 28.3 28.1 Z" fill="#447b88"/>
				<path d="M 29.6 28.7 L 29.2 27.5 L 28.9 27.8 L 28.7 27.9 L 29.2 27.3 L 29.3 27.3 L 29.7 28.6 L 29.6 28.7 Z" fill="#447b88"/>
				<path d="M 31.1 27.8 L 31.2 28.2 L 31.1 28.3 L 30.9 27.8 L 29.9 28.1 L 30.3 27 L 30.4 27 L 30 28 L 30.9 27.7 L 30.7 26.9 L 30.8 26.9 L 31 27.7 L 31.4 27.6 L 31.4 27.7 L 31.1 27.8 Z" fill="#447b88"/>
			</g>
		</g>
	</g>
	<path opacity="0.3" d="M 30.6 40.9 L 38.3 37.9 L 40.9 36.9 L 40.2 35.3 L 39.6 33.4 C 39.1 31.7 38.5 29.8 38.1 27.8 C 36.8 31.1 36.7 34.6 30.6 40.9 Z" fill="#ffffff"/>
	<path d="M 15.1 10.2 C 15.1 10.2 15.3 10 15.8 9.9 C 16.6 9.8 17.3 10.1 17.1 10.2 C 17 10.3 14.9 10.5 15.1 10.2 Z" fill="#e7e7e7"/>
</svg>