<?xml version="1.0" standalone="no"?>

<svg viewBox="0 0 36 36" style="background-color:#ffffff00" version="1.1" xmlns="http://www.w3.org/2000/svg" xmlns:xlink="http://www.w3.org/1999/xlink" xml:space="preserve" x="0px" y="0px" width="100%" height="100%">
	<g id="Layer%201">
		<path visibility="hidden" d="M 35 18.5 C 35 27.6 27.6 35 18.5 35 C 9.4 35 2 27.6 2 18.5 C 2 9.4 9.4 2 18.5 2 C 27.6 2 35 9.4 35 18.5 Z" stroke="#000000" stroke-width="1" fill="#1f1f1f"/>
		<path d="M 35 18 C 35 27.4 27.4 35 18 35 C 8.6 35 1 27.4 1 18 C 1 8.6 8.6 1 18 1 C 27.4 1 35 8.6 35 18 Z" fill="#1f0303"/>
		<g id="queues" visibility="hidden">
			<path d="M 20.3 19.2 L 27.3 11.9 L 27.3 13.4 C 27.3 13.8 27.6 14.1 28 14.1 C 28.4 14.1 28.7 13.8 28.7 13.4 L 28.7 10.2 C 28.7 10.2 28.7 10.1 28.7 10.1 C 28.7 10 28.7 10 28.6 10 C 28.6 10 28.6 10 28.6 9.9 C 28.6 9.9 28.6 9.9 28.6 9.9 C 28.6 9.8 28.6 9.8 28.6 9.8 C 28.5 9.7 28.5 9.7 28.4 9.6 C 28.4 9.6 28.3 9.6 28.3 9.6 C 28.3 9.6 28.3 9.6 28.3 9.6 C 28.2 9.5 28.2 9.5 28.2 9.5 C 28.2 9.5 28.2 9.5 28.1 9.5 C 28.1 9.5 28 9.5 28 9.5 L 24.7 9.5 C 24.3 9.5 24 9.8 24 10.2 C 24 10.6 24.3 10.9 24.7 10.9 L 26.4 10.9 L 19.3 18.2 L 20.3 19.2 Z" fill="#ff7f00"/>
			<path d="M 13.8 21.6 L 12.9 22.6 L 14.5 24.3 C 14.6 24.4 14.8 24.5 15 24.5 C 15.1 24.5 15.3 24.4 15.4 24.3 L 18.2 21.4 L 17.2 20.4 L 15 22.8 L 13.8 21.6 Z" fill="#ff7f00"/>
			<path d="M 10.7 20.4 L 11.7 19.4 L 8.3 15.8 C 8 15.6 7.6 15.6 7.3 15.8 C 7.1 16.1 7.1 16.6 7.3 16.8 L 10.7 20.4 Z" fill="#ff7f00"/>
			<path d="M 28.3 25.6 C 28.7 25.6 29 25.3 29 24.9 L 29 21.7 C 29 21.3 28.7 21 28.3 21 L 25 21 C 24.7 21 24.4 21.3 24.4 21.7 C 24.4 22.1 24.7 22.4 25 22.4 L 26.7 22.4 L 24.5 24.8 L 16.6 16.5 C 16.4 16.4 16.3 16.3 16.1 16.3 C 15.9 16.3 15.7 16.4 15.6 16.5 L 7.2 25.3 C 6.9 25.6 6.9 26 7.2 26.3 C 7.3 26.4 7.5 26.5 7.7 26.5 C 7.9 26.5 8 26.4 8.2 26.3 L 16.1 18 L 24 26.3 C 24.1 26.4 24.3 26.5 24.5 26.5 C 24.6 26.5 24.8 26.4 24.9 26.3 L 27.6 23.4 L 27.6 24.9 C 27.6 25.3 27.9 25.6 28.3 25.6 Z" fill="#ffff00"/>
		</g>
		<g id="dashboard" visibility="hidden">
			<path d="M 22 23.6 L 24.3 27.6 C 27.4 25.6 29.4 22.2 29.5 18.2 L 24.9 18.2 C 24.8 20.4 23.7 22.4 22 23.6 ZM 28.9 18.8 C 28.7 22 27 24.9 24.5 26.8 L 22.8 23.8 C 24.3 22.5 25.2 20.7 25.4 18.8 L 28.9 18.8 Z" fill="#ffff73"/>
			<path d="M 18 29.5 C 20 29.5 21.8 29 23.4 28.1 L 21.2 24.1 C 20.2 24.6 19.1 24.9 18 24.9 C 14.2 24.9 11.1 21.8 11.1 18 C 11.1 14.3 14 11.3 17.7 11.1 L 17.7 6.5 C 11.5 6.7 6.5 11.8 6.5 18 C 6.5 24.3 11.6 29.5 18 29.5 Z" fill="#ff7f00"/>
			<path d="M 24 8.2 C 23.8 8 23.6 7.9 23.4 7.8 L 19.9 11.4 C 20.1 11.4 20.3 11.5 20.5 11.6 L 24 8.2 Z" fill="#efece8"/>
			<path d="M 24.8 8.7 C 24.6 8.6 24.5 8.5 24.3 8.4 L 20.9 11.7 C 21.1 11.8 21.3 11.9 21.5 12 L 24.8 8.7 Z" fill="#efece8"/>
			<path d="M 27 10.8 C 26.8 10.6 26.7 10.5 26.6 10.3 L 23.3 13.6 C 23.4 13.7 23.6 13.9 23.7 14.1 L 27 10.8 Z" fill="#efece8"/>
			<path d="M 25.6 9.3 C 25.4 9.2 25.3 9.1 25.1 9 L 21.8 12.2 C 22 12.4 22.2 12.5 22.3 12.6 L 25.6 9.3 Z" fill="#efece8"/>
			<path d="M 18.6 10.7 L 22.1 7.2 C 21.9 7.2 21.7 7.1 21.4 7 L 18.6 9.8 L 18.6 10.7 Z" fill="#efece8"/>
			<path d="M 18.6 9.3 L 21 6.9 C 20.8 6.8 20.6 6.8 20.3 6.7 L 18.6 8.4 L 18.6 9.3 Z" fill="#efece8"/>
			<path d="M 23.1 7.7 C 22.9 7.6 22.7 7.5 22.5 7.4 L 18.7 11.1 C 19 11.2 19.2 11.2 19.5 11.2 L 23.1 7.7 Z" fill="#efece8"/>
			<path d="M 26.3 10 C 26.2 9.9 26 9.7 25.9 9.6 L 22.6 12.9 C 22.8 13 22.9 13.1 23 13.3 L 26.3 10 Z" fill="#efece8"/>
			<path d="M 27.5 11.6 C 27.4 11.4 27.3 11.2 27.2 11.1 L 23.9 14.4 C 24 14.6 24.1 14.8 24.2 14.9 L 27.5 11.6 Z" fill="#efece8"/>
			<path d="M 27.5 17.2 L 29.2 15.5 C 29.2 15.3 29.1 15.1 29.1 14.8 L 26.7 17.2 L 27.5 17.2 Z" fill="#efece8"/>
			<path d="M 29.5 17.2 C 29.4 16.8 29.4 16.4 29.3 16 L 28.1 17.2 L 29.5 17.2 Z" fill="#efece8"/>
			<path d="M 26.1 17.2 L 28.9 14.4 C 28.9 14.2 28.8 14 28.7 13.8 L 25.3 17.2 L 26.1 17.2 Z" fill="#efece8"/>
			<path d="M 24.6 15.9 L 28.1 12.5 C 28 12.3 27.9 12.1 27.8 11.9 L 24.4 15.3 C 24.5 15.5 24.5 15.7 24.6 15.9 Z" fill="#efece8"/>
			<path d="M 24.8 17.1 L 28.5 13.4 C 28.5 13.2 28.4 13 28.3 12.8 L 24.7 16.4 C 24.8 16.6 24.8 16.9 24.8 17.1 Z" fill="#efece8"/>
		</g>
		<g id="compensation" visibility="hidden">
			<g>
				<path d="M 19.8 13.2 C 18.3 13.2 17 14.4 17 16 C 17 17.6 18.3 18.8 19.8 18.8 C 21.4 18.8 22.6 17.6 22.6 16 C 22.6 14.4 21.4 13.2 19.8 13.2 ZM 20.8 17.2 C 20.6 17.3 20.4 17.4 20 17.5 L 20 17.7 L 19.6 17.7 L 19.6 17.5 C 19.3 17.4 19.1 17.4 18.9 17.2 C 18.7 17.1 18.6 16.9 18.6 16.5 L 18.6 16.4 L 19.6 16.4 L 19.6 16.6 C 19.6 16.8 19.6 16.9 19.6 16.9 C 19.6 17 19.7 17 19.8 17 C 19.8 17 19.9 17 19.9 17 C 20 16.9 20 16.9 20 16.8 C 20 16.7 20 16.5 19.9 16.5 C 19.9 16.4 19.8 16.3 19.6 16.2 C 19.3 16.1 19.1 16 19 15.9 C 18.9 15.9 18.8 15.8 18.7 15.6 C 18.6 15.5 18.6 15.4 18.6 15.2 C 18.6 15 18.7 14.8 18.8 14.7 C 19 14.6 19.2 14.5 19.6 14.5 L 19.6 14.3 L 20 14.3 L 20 14.5 C 20.4 14.5 20.6 14.6 20.7 14.7 C 20.9 14.8 21 15 21 15.2 C 21 15.3 21 15.3 21 15.4 L 20 15.4 L 20 15.2 C 20 15.1 19.9 15 19.9 15 C 19.9 15 19.9 14.9 19.8 14.9 C 19.7 14.9 19.7 14.9 19.6 15 C 19.6 15 19.6 15.1 19.6 15.1 C 19.6 15.3 19.6 15.3 19.7 15.4 C 19.7 15.4 19.9 15.5 20.2 15.6 C 20.5 15.8 20.7 15.8 20.7 15.9 C 20.8 16 20.9 16.1 21 16.2 C 21 16.3 21.1 16.4 21.1 16.6 C 21.1 16.8 21 17 20.8 17.2 Z" fill="#ebeb0b"/>
				<path d="M 25.3 17.6 C 24.2 17.6 23.4 18.5 23.4 19.6 C 23.4 20.7 24.2 21.5 25.3 21.5 C 26.4 21.5 27.2 20.7 27.2 19.6 C 27.2 18.5 26.4 17.6 25.3 17.6 ZM 26 20.4 C 25.9 20.5 25.7 20.6 25.5 20.6 L 25.5 20.8 L 25.1 20.8 L 25.1 20.6 C 25 20.6 24.8 20.5 24.7 20.4 C 24.5 20.3 24.5 20.2 24.5 20 L 24.5 19.9 L 25.1 19.9 L 25.1 20 C 25.1 20.1 25.1 20.2 25.2 20.2 C 25.2 20.3 25.2 20.3 25.3 20.3 C 25.3 20.3 25.3 20.3 25.4 20.3 C 25.4 20.2 25.4 20.2 25.4 20.1 C 25.4 20 25.4 20 25.4 19.9 C 25.3 19.9 25.3 19.8 25.1 19.7 C 24.9 19.7 24.8 19.6 24.7 19.5 C 24.6 19.5 24.6 19.4 24.5 19.3 C 24.5 19.3 24.4 19.2 24.4 19.1 C 24.4 18.9 24.5 18.8 24.6 18.7 C 24.7 18.6 24.9 18.6 25.1 18.6 L 25.1 18.4 L 25.5 18.4 L 25.5 18.6 C 25.7 18.6 25.8 18.6 25.9 18.7 C 26 18.8 26.1 18.9 26.1 19.1 C 26.1 19.1 26.1 19.1 26.1 19.2 L 25.4 19.2 L 25.4 19.1 C 25.4 19 25.4 18.9 25.4 18.9 C 25.4 18.9 25.3 18.9 25.3 18.9 C 25.2 18.9 25.2 18.9 25.2 18.9 C 25.2 18.9 25.1 18.9 25.1 19 C 25.1 19.1 25.2 19.1 25.2 19.2 C 25.3 19.2 25.4 19.3 25.6 19.3 C 25.8 19.4 25.9 19.5 25.9 19.5 C 26 19.6 26.1 19.6 26.1 19.7 C 26.1 19.8 26.2 19.9 26.2 20 C 26.2 20.2 26.1 20.3 26 20.4 Z" fill="#ebeb0b"/>
				<path d="M 25.3 10.8 C 24.4 10.8 23.7 11.5 23.7 12.4 C 23.7 13.3 24.4 14.1 25.3 14.1 C 26.2 14.1 27 13.3 27 12.4 C 27 11.5 26.2 10.8 25.3 10.8 ZM 25.9 13.1 C 25.8 13.2 25.6 13.3 25.4 13.3 L 25.4 13.4 L 25.2 13.4 L 25.2 13.3 C 25 13.3 24.9 13.2 24.8 13.1 C 24.6 13.1 24.6 12.9 24.6 12.7 L 24.6 12.7 L 25.2 12.7 L 25.2 12.8 C 25.2 12.9 25.2 12.9 25.2 13 C 25.2 13 25.2 13 25.3 13 C 25.3 13 25.3 13 25.4 13 C 25.4 13 25.4 12.9 25.4 12.9 C 25.4 12.8 25.4 12.7 25.4 12.7 C 25.3 12.7 25.3 12.6 25.2 12.6 C 25 12.5 24.9 12.4 24.8 12.4 C 24.7 12.3 24.7 12.3 24.6 12.2 C 24.6 12.1 24.6 12.1 24.6 12 C 24.6 11.8 24.6 11.7 24.7 11.7 C 24.8 11.6 25 11.6 25.2 11.5 L 25.2 11.4 L 25.4 11.4 L 25.4 11.5 C 25.6 11.6 25.8 11.6 25.8 11.7 C 25.9 11.7 26 11.8 26 12 C 26 12 26 12 26 12.1 L 25.4 12.1 L 25.4 12 C 25.4 11.9 25.4 11.9 25.4 11.8 C 25.4 11.8 25.3 11.8 25.3 11.8 C 25.2 11.8 25.2 11.8 25.2 11.8 C 25.2 11.8 25.2 11.9 25.2 11.9 C 25.2 12 25.2 12 25.2 12.1 C 25.3 12.1 25.4 12.1 25.5 12.2 C 25.7 12.3 25.8 12.3 25.8 12.4 C 25.9 12.4 25.9 12.5 26 12.5 C 26 12.6 26 12.7 26 12.8 C 26 12.9 26 13 25.9 13.1 Z" fill="#ebeb0b"/>
				<path d="M 21.6 7 C 20.8 7 20.1 7.7 20.1 8.5 C 20.1 9.3 20.8 10 21.6 10 C 22.4 10 23.1 9.3 23.1 8.5 C 23.1 7.7 22.4 7 21.6 7 ZM 22.1 9.1 C 22 9.2 21.9 9.2 21.7 9.2 L 21.7 9.4 L 21.5 9.4 L 21.5 9.2 C 21.3 9.2 21.2 9.2 21.1 9.1 C 21 9.1 21 8.9 21 8.8 L 21 8.7 L 21.5 8.7 L 21.5 8.8 C 21.5 8.9 21.5 9 21.5 9 C 21.5 9 21.5 9 21.6 9 C 21.6 9 21.6 9 21.7 9 C 21.7 9 21.7 8.9 21.7 8.9 C 21.7 8.8 21.7 8.8 21.7 8.7 C 21.6 8.7 21.6 8.7 21.5 8.6 C 21.3 8.5 21.2 8.5 21.2 8.4 C 21.1 8.4 21.1 8.4 21 8.3 C 21 8.2 20.9 8.2 20.9 8.1 C 20.9 8 21 7.9 21.1 7.8 C 21.2 7.8 21.3 7.7 21.5 7.7 L 21.5 7.6 L 21.7 7.6 L 21.7 7.7 C 21.9 7.7 22 7.8 22.1 7.8 C 22.2 7.9 22.2 8 22.2 8.1 C 22.2 8.1 22.2 8.1 22.2 8.2 L 21.7 8.2 L 21.7 8.1 C 21.7 8 21.7 8 21.7 8 C 21.6 7.9 21.6 7.9 21.6 7.9 C 21.5 7.9 21.5 7.9 21.5 8 C 21.5 8 21.5 8 21.5 8 C 21.5 8.1 21.5 8.1 21.5 8.2 C 21.6 8.2 21.7 8.2 21.8 8.3 C 21.9 8.4 22 8.4 22.1 8.4 C 22.1 8.5 22.2 8.5 22.2 8.6 C 22.2 8.6 22.3 8.7 22.3 8.8 C 22.3 8.9 22.2 9 22.1 9.1 Z" fill="#ebeb0b"/>
			</g>
			<g>
				<path d="M 14.6 21.4 C 14.6 21.4 14.7 21.3 14.8 21.3 L 14.6 21.3 L 14.6 21.4 Z" fill="#efece8"/>
				<path d="M 28.7 23 C 28.6 22.8 28.3 22.8 28.1 22.8 L 23.1 23.3 C 22.8 23.7 22.3 23.9 21.8 23.9 L 18.3 23.9 L 18.3 23.4 L 19.9 23.4 L 21.8 23.4 C 22.4 23.4 22.9 23 22.9 22.4 C 22.9 21.8 22.4 21.3 21.8 21.3 L 19.9 21.3 L 16.7 21.3 L 14.8 21.3 C 14.7 21.3 14.6 21.4 14.6 21.4 L 14.6 26.9 C 14.6 26.9 14.7 26.9 14.7 26.9 L 17.8 27.2 C 18.8 27.2 19.9 27.1 21 26.8 L 28.3 24.8 C 28.7 24.7 29 24.2 29 23.8 L 29 23.7 C 29 23.4 28.9 23.2 28.7 23 Z" fill="#ff7f00"/>
				<path d="M 13.7 22.4 L 13.7 20.7 L 7 20.7 L 7 29 L 13.7 29 L 13.7 25.9 L 13.7 22.4 ZM 12.1 23 C 11.6 23 11.2 22.7 11.2 22.2 C 11.2 21.7 11.6 21.3 12.1 21.3 C 12.5 21.3 12.9 21.7 12.9 22.2 C 12.9 22.7 12.5 23 12.1 23 Z" fill="#ff7f00"/>
			</g>
		</g>
		<g id="inv.return" visibility="hidden">
			<g>
				<path d="M 21.9 12.8 C 21.9 11.8 21.8 11.6 21.7 11.4 C 21.7 11.4 21.7 11 20.9 10.7 C 20.4 10.5 19.7 10.5 19.1 10.2 C 19.1 10.1 19.1 10.1 19.1 10 C 19 9.9 19 9.8 19 9.6 C 19.1 9.5 19.2 9.3 19.3 9.1 C 19.4 8.9 19.4 8.8 19.5 8.6 C 19.5 8.6 19.5 8.6 19.5 8.6 L 19.6 8.6 C 19.6 8.6 19.7 8.6 19.7 8.5 L 19.8 7.9 C 19.8 7.9 19.7 7.8 19.7 7.8 L 19.7 7.8 C 19.7 7.1 19.6 6.8 19.6 6.8 C 19.6 6.8 19.3 6.2 18.5 6 C 18.3 6 18.2 6 18.1 6 L 18.1 6 C 18.1 6 18.1 6 18.1 6 C 18.1 6 18.1 6 18.1 6 L 18.1 6 C 18 6 17.9 6 17.7 6 C 16.9 6.2 16.6 6.8 16.6 6.8 C 16.6 6.8 16.5 7.1 16.5 7.8 L 16.5 7.8 C 16.5 7.8 16.4 7.9 16.4 7.9 L 16.5 8.5 C 16.5 8.6 16.5 8.6 16.6 8.6 L 16.7 8.6 C 16.7 8.6 16.7 8.6 16.7 8.6 C 16.8 8.8 16.8 8.9 16.9 9.1 C 17 9.3 17.1 9.5 17.2 9.6 C 17.2 9.8 17.1 9.9 17.1 10 C 17.1 10.1 17.1 10.1 17.1 10.2 C 16.5 10.5 15.8 10.5 15.3 10.7 C 14.5 11 14.5 11.4 14.5 11.4 C 14.4 11.6 14.3 11.8 14.3 12.8 C 14.3 12.9 14.3 13.1 14.7 13.3 C 15.6 13.6 16.8 13.7 18 13.8 C 18 13.8 18.1 13.8 18.1 13.8 C 18.1 13.8 18.1 13.8 18.2 13.8 C 19.3 13.7 20.6 13.6 21.5 13.3 C 21.9 13.1 21.9 12.9 21.9 12.8 Z" fill="#efece8"/>
				<path d="M 30.5 25.7 C 30.5 24.7 30.4 24.4 30.3 24.3 C 30.3 24.2 30.3 23.8 29.5 23.5 C 29 23.3 28.2 23.4 27.7 23 C 27.7 23 27.6 22.9 27.6 22.8 C 27.6 22.7 27.6 22.6 27.6 22.5 C 27.7 22.3 27.8 22.2 27.9 21.9 C 28 21.8 28 21.6 28.1 21.5 C 28.1 21.5 28.1 21.5 28.1 21.5 L 28.2 21.5 C 28.2 21.5 28.3 21.5 28.3 21.4 L 28.3 20.7 C 28.3 20.7 28.3 20.6 28.2 20.6 L 28.2 20.6 C 28.3 20 28.1 19.7 28.1 19.7 C 28.1 19.7 27.9 19 27 18.9 C 26.9 18.9 26.8 18.9 26.7 18.9 L 26.7 18.9 C 26.7 18.9 26.7 18.9 26.7 18.9 C 26.7 18.9 26.7 18.9 26.7 18.9 L 26.7 18.9 C 26.6 18.9 26.4 18.9 26.3 18.9 C 25.5 19 25.2 19.7 25.2 19.7 C 25.2 19.7 25.1 20 25.1 20.6 L 25.1 20.6 C 25.1 20.6 25 20.7 25 20.7 L 25.1 21.4 C 25.1 21.5 25.1 21.5 25.2 21.5 L 25.2 21.5 C 25.3 21.5 25.3 21.5 25.3 21.5 C 25.3 21.6 25.4 21.8 25.5 21.9 C 25.6 22.2 25.7 22.3 25.7 22.5 C 25.7 22.6 25.7 22.7 25.7 22.8 C 25.7 22.9 25.7 23 25.7 23 C 25.1 23.4 24.4 23.3 23.8 23.5 C 23.1 23.8 23.1 24.2 23 24.3 C 23 24.4 22.9 24.7 22.8 25.7 C 22.8 25.8 22.8 26 23.3 26.2 C 24.2 26.5 25.4 26.6 26.6 26.7 C 26.6 26.7 26.6 26.7 26.7 26.7 C 26.7 26.7 26.7 26.7 26.7 26.7 C 27.9 26.6 29.1 26.5 30.1 26.2 C 30.5 26 30.5 25.8 30.5 25.7 Z" fill="#d6d30b"/>
				<path d="M 13.2 25.7 C 13.1 24.7 13 24.4 13 24.3 C 12.9 24.2 12.9 23.8 12.2 23.5 C 11.6 23.3 10.9 23.4 10.3 23 C 10.3 23 10.3 22.9 10.3 22.8 C 10.3 22.7 10.3 22.6 10.3 22.5 C 10.3 22.3 10.4 22.2 10.5 21.9 C 10.6 21.8 10.7 21.6 10.7 21.5 C 10.7 21.5 10.7 21.5 10.8 21.5 L 10.8 21.5 C 10.9 21.5 10.9 21.5 10.9 21.4 L 11 20.7 C 11 20.7 10.9 20.6 10.9 20.6 L 10.9 20.6 C 10.9 20 10.8 19.7 10.8 19.7 C 10.8 19.7 10.5 19 9.7 18.9 C 9.6 18.9 9.4 18.9 9.3 18.9 L 9.3 18.9 C 9.3 18.9 9.3 18.9 9.3 18.9 C 9.3 18.9 9.3 18.9 9.3 18.9 L 9.3 18.9 C 9.2 18.9 9.1 18.9 9 18.9 C 8.1 19 7.9 19.7 7.9 19.7 C 7.9 19.7 7.7 20 7.8 20.6 L 7.8 20.6 C 7.7 20.6 7.7 20.7 7.7 20.7 L 7.7 21.4 C 7.7 21.5 7.8 21.5 7.8 21.5 L 7.9 21.5 C 7.9 21.5 7.9 21.5 7.9 21.5 C 8 21.6 8 21.8 8.1 21.9 C 8.2 22.2 8.3 22.3 8.4 22.5 C 8.4 22.6 8.4 22.7 8.4 22.8 C 8.4 22.9 8.3 23 8.3 23 C 7.8 23.4 7 23.3 6.5 23.5 C 5.7 23.8 5.7 24.2 5.7 24.3 C 5.6 24.4 5.5 24.7 5.5 25.7 C 5.5 25.8 5.5 26 5.9 26.2 C 6.9 26.5 8.1 26.6 9.3 26.7 C 9.3 26.7 9.3 26.7 9.3 26.7 C 9.4 26.7 9.4 26.7 9.4 26.7 C 10.6 26.6 11.8 26.5 12.7 26.2 C 13.2 26 13.2 25.8 13.2 25.7 Z" fill="#ff7f00"/>
				<g>
					<g>
						<path d="M 18.7 27.4 C 18.7 27.7 18.4 28 18 28 C 17.7 28 17.4 27.7 17.4 27.4 C 17.4 27.1 17.7 26.8 18 26.8 C 18.4 26.8 18.7 27.1 18.7 27.4 Z" fill="#efece8"/>
					</g>
					<g>
						<path d="M 21.3 26.8 C 21.4 27.1 21.3 27.5 20.9 27.6 C 20.6 27.7 20.2 27.5 20.1 27.2 C 20 26.9 20.2 26.6 20.5 26.5 C 20.9 26.4 21.2 26.5 21.3 26.8 Z" fill="#efece8"/>
					</g>
					<g>
						<path d="M 13.4 12.6 C 13.6 12.9 13.5 13.3 13.3 13.5 C 13 13.7 12.6 13.6 12.4 13.3 C 12.1 13.1 12.2 12.7 12.5 12.5 C 12.8 12.3 13.2 12.4 13.4 12.6 Z" fill="#efece8"/>
					</g>
					<g>
						<path d="M 11.3 14.3 C 11.6 14.5 11.7 14.8 11.5 15.1 C 11.3 15.4 10.9 15.4 10.6 15.2 C 10.3 15 10.2 14.7 10.4 14.4 C 10.6 14.1 11 14.1 11.3 14.3 Z" fill="#efece8"/>
					</g>
					<g>
						<path d="M 9.9 16.4 C 10.2 16.5 10.4 16.9 10.3 17.2 C 10.2 17.5 9.8 17.6 9.5 17.5 C 9.2 17.4 9 17.1 9.1 16.8 C 9.2 16.5 9.6 16.3 9.9 16.4 Z" fill="#efece8"/>
					</g>
					<g>
						<path d="M 26.1 16.4 C 26.5 16.3 26.8 16.5 26.9 16.8 C 27 17.1 26.9 17.4 26.5 17.5 C 26.2 17.6 25.8 17.5 25.7 17.2 C 25.6 16.9 25.8 16.5 26.1 16.4 Z" fill="#efece8"/>
					</g>
					<g>
						<path d="M 24.7 14.3 C 25 14.1 25.4 14.1 25.6 14.4 C 25.8 14.7 25.8 15 25.5 15.2 C 25.2 15.4 24.8 15.4 24.6 15.1 C 24.3 14.8 24.4 14.5 24.7 14.3 Z" fill="#efece8"/>
					</g>
					<g>
						<path d="M 22.6 12.6 C 22.8 12.4 23.2 12.3 23.5 12.5 C 23.8 12.7 23.9 13.1 23.7 13.3 C 23.5 13.6 23.1 13.7 22.8 13.5 C 22.5 13.3 22.4 12.9 22.6 12.6 Z" fill="#efece8"/>
					</g>
					<g>
						<path d="M 14.7 26.8 C 14.8 26.5 15.2 26.4 15.5 26.5 C 15.9 26.6 16 26.9 15.9 27.2 C 15.8 27.5 15.5 27.7 15.1 27.6 C 14.8 27.5 14.6 27.1 14.7 26.8 Z" fill="#efece8"/>
					</g>
				</g>
			</g>
		</g>
		<g id="policy%20statistics" visibility="hidden">
			<g>
				<path d="M 14.6 23.4 L 14.6 14.4 C 14.6 13.9 14.1 13.4 13.5 13.4 L 11.2 13.4 C 10.5 13.4 10 13.9 10 14.4 L 10 23.4 L 14.6 23.4 Z" fill="#ff7f00"/>
				<path d="M 20.8 23.4 L 20.8 10 C 20.8 9.5 20.3 9 19.7 9 L 17.3 9 C 16.7 9 16.2 9.5 16.2 10 L 16.2 23.4 L 20.8 23.4 Z" fill="#d6d30b"/>
				<path d="M 27 23.4 L 27 16.7 C 27 16.1 26.5 15.6 25.8 15.6 L 23.5 15.6 C 22.9 15.6 22.3 16.1 22.3 16.7 L 22.3 23.4 L 27 23.4 Z" fill="#ffffff"/>
			</g>
			<path d="M 28 25 L 9 25 L 9 23.8 L 28 23.8 L 28 25 Z" fill="#ffffff"/>
		</g>
		<g id="renewals" visibility="hidden">
			<g>
				<path d="M 12.8 24 C 12.4 23.5 12.2 23.3 12.8 22.9 L 13 22.8 C 12.6 22.8 12.1 22.6 11.9 22.3 C 11.4 21.7 11.6 21 12.1 20.6 L 17.6 16.8 C 17.9 16.6 17.5 16.5 17.4 16.2 C 17.4 15.9 17.7 15.6 17.5 15.5 C 17 15.2 18.2 13.9 18.2 13.9 C 19.9 13.9 21.1 13.7 22.7 13.8 C 23.5 14.1 24.1 14.4 24.5 14.6 L 25.1 14.2 L 28.8 19 C 28.8 19 28 19.6 27.7 19.9 C 27.6 21.1 26.4 22.1 25.6 22.6 L 18.5 27.4 C 17.9 27.8 17.5 27.1 17.1 26.6 C 16.8 26.3 16.4 26.5 16.5 26.1 L 16.4 26.2 C 15.8 26.6 15.2 25.8 14.7 25.2 C 14.5 24.9 14.2 25.2 14.4 24.9 L 14.3 24.9 C 13.8 25.3 13.2 24.5 12.8 24 Z" fill="#ffffff"/>
				<path d="M 30.1 19.1 L 32.5 17.4 L 27.9 11.5 L 25.4 13.1 L 30.1 19.1 Z" fill="#ffffff"/>
			</g>
			<g>
				<g>
					<path d="M 24.7 24.9 C 25.2 24.4 25.2 23.7 24.6 23.3 L 24.4 23.2 C 24.8 23.2 25.3 23 25.5 22.7 C 26 22.2 25.8 21.4 25.3 21 L 19.8 17.2 C 19.4 17 19.3 16.9 19.3 16.6 C 19.3 16.3 20.6 15.2 21.1 14.9 C 21.7 14.6 16.3 14.1 14.7 14.2 C 13.9 14.5 13.3 14.8 12.9 15 L 12.3 14.6 L 8.6 19.4 C 8.6 19.4 9.4 20 9.7 20.3 C 9.8 21.6 11.2 22.6 11.9 23.2 C 14.3 25.2 18.9 27.8 18.9 27.8 C 19.5 28.2 20.3 28.1 20.7 27.6 C 21 27.3 21 26.9 20.9 26.5 L 21 26.6 C 21.6 27 22.4 26.9 22.9 26.3 C 23.1 26 23.2 25.6 23 25.3 L 23.1 25.3 C 23.6 25.7 24.3 25.5 24.7 24.9 Z" fill="#ff7f00"/>
					<path d="M 19.7 28.5 C 19.3 28.5 18.9 28.4 18.6 28.2 L 18.6 28.2 C 18.3 28 13.9 25.5 11.5 23.5 L 11.5 23.5 C 10.9 23 9.5 21.9 9.3 20.5 L 9.3 20.5 C 9.1 20.4 8.9 20.2 8.7 20.1 L 8.7 20.1 C 8.5 19.9 8.3 19.7 8.3 19.7 L 8.3 19.7 C 8.1 19.6 8 19.3 8.2 19.1 L 8.2 19.1 L 11.9 14.4 C 11.9 14.3 12.1 14.2 12.2 14.2 L 12.2 14.2 C 12.3 14.2 12.5 14.2 12.6 14.3 L 12.6 14.3 L 12.9 14.5 C 13.3 14.3 13.9 14 14.5 13.8 L 14.5 13.8 L 14.6 13.8 C 14.8 13.8 15 13.8 15.2 13.8 L 15.2 13.8 C 16.8 13.8 19.8 14 20.9 14.3 L 20.9 14.3 C 21.1 14.4 21.2 14.4 21.4 14.5 L 21.4 14.5 C 21.4 14.5 21.6 14.6 21.6 14.9 L 21.6 14.9 C 21.6 15 21.6 15.1 21.5 15.2 L 21.5 15.2 C 21.4 15.3 21.4 15.3 21.3 15.3 L 21.3 15.3 C 21.2 15.4 20.8 15.7 20.5 16 L 20.5 16 C 20.2 16.2 19.9 16.6 19.8 16.7 L 19.8 16.7 C 19.8 16.7 19.8 16.7 19.8 16.7 L 19.8 16.7 C 19.8 16.7 19.9 16.8 20 16.9 L 20 16.9 L 25.6 20.7 C 26 21 26.3 21.5 26.3 22 L 26.3 22 C 26.3 22.3 26.2 22.6 25.9 22.9 L 25.9 22.9 C 25.8 23.1 25.6 23.3 25.3 23.4 L 25.3 23.4 C 25.5 23.6 25.5 23.9 25.5 24.1 L 25.5 24.1 C 25.5 24.5 25.4 24.9 25.1 25.2 L 25.1 25.2 L 24.7 24.9 L 25.1 25.2 C 24.8 25.6 24.3 25.9 23.7 25.9 L 23.7 25.9 C 23.7 25.9 23.6 25.9 23.6 25.9 L 23.6 25.9 C 23.5 26.1 23.4 26.4 23.3 26.6 L 23.3 26.6 C 22.9 27 22.4 27.3 21.8 27.3 L 21.8 27.3 C 21.7 27.3 21.5 27.2 21.4 27.2 L 21.4 27.2 C 21.4 27.4 21.3 27.6 21.1 27.8 L 21.1 27.8 C 20.8 28.3 20.2 28.5 19.7 28.5 L 19.7 28.5 C 19.7 28.5 19.7 28.5 19.7 28.5 L 19.7 28.5 ZM 10.1 20.1 C 10.2 20.1 10.2 20.2 10.2 20.3 L 10.2 20.3 C 10.3 21.3 11.5 22.3 12.2 22.9 L 12.2 22.9 C 13.4 23.9 15.1 25 16.6 25.9 L 16.6 25.9 C 18 26.8 19.2 27.5 19.2 27.5 L 19.2 27.5 L 19.2 27.5 C 19.4 27.6 19.5 27.6 19.7 27.6 L 19.7 27.6 C 19.9 27.6 20.2 27.5 20.3 27.3 L 20.3 27.3 C 20.4 27.2 20.5 27 20.5 26.9 L 20.5 26.9 C 20.5 26.8 20.5 26.7 20.4 26.6 L 20.4 26.6 C 20.4 26.5 20.5 26.3 20.6 26.2 L 20.6 26.2 C 20.8 26 21 26.1 21.2 26.2 L 21.2 26.2 L 21.3 26.3 C 21.5 26.3 21.6 26.4 21.8 26.4 L 21.8 26.4 C 22 26.4 22.3 26.3 22.5 26.1 L 22.5 26.1 C 22.6 25.9 22.6 25.8 22.6 25.6 L 22.6 25.6 C 22.6 25.5 22.6 25.5 22.6 25.4 L 22.6 25.4 C 22.5 25.2 22.6 25 22.8 24.9 L 22.8 24.9 C 22.9 24.8 23.2 24.8 23.3 24.9 L 23.3 24.9 L 23.3 24.9 C 23.5 25 23.6 25 23.7 25 L 23.7 25 C 23.9 25 24.1 24.9 24.3 24.7 L 24.3 24.7 L 24.3 24.7 C 24.5 24.5 24.5 24.3 24.5 24.1 L 24.5 24.1 C 24.5 23.9 24.5 23.8 24.3 23.7 L 24.3 23.7 L 24.1 23.5 C 23.9 23.4 23.8 23.2 23.9 23 L 23.9 23 C 24 22.8 24.2 22.7 24.4 22.7 L 24.4 22.7 C 24.4 22.8 24.5 22.8 24.5 22.8 L 24.5 22.8 C 24.7 22.8 25 22.6 25.1 22.4 L 25.1 22.4 C 25.2 22.3 25.3 22.1 25.3 22 L 25.3 22 C 25.3 21.7 25.2 21.5 25 21.3 L 25 21.3 L 19.5 17.6 C 19.3 17.5 19.2 17.4 19 17.2 L 19 17.2 C 18.9 17.1 18.8 16.9 18.8 16.6 L 18.8 16.6 C 18.8 16.6 18.8 16.6 18.8 16.6 L 18.8 16.6 C 18.9 16.3 19 16.2 19.2 16 L 19.2 16 C 19.3 15.8 19.5 15.6 19.7 15.4 L 19.7 15.4 C 19.8 15.3 20 15.2 20.1 15 L 20.1 15 C 19.8 15 19.3 14.9 18.8 14.9 L 18.8 14.9 C 17.6 14.7 16.1 14.7 15.2 14.7 L 15.2 14.7 C 15 14.7 14.9 14.7 14.8 14.7 L 14.8 14.7 C 14.1 14.9 13.5 15.2 13.1 15.4 L 13.1 15.4 C 13 15.5 12.7 15.5 12.6 15.4 L 12.6 15.4 L 12.4 15.3 L 9.2 19.3 C 9.5 19.5 9.9 19.8 10.1 20.1 L 10.1 20.1 Z" fill="#ffffff"/>
				</g>
				<path d="M 6.9 19.2 L 4.5 17.5 L 9.1 11.6 L 11.6 13.2 L 6.9 19.2 Z" fill="#ffffff"/>
			</g>
			<g>
				<path d="M 24.3 23.7 L 20.9 21.4 C 20.7 21.2 20.6 20.9 20.8 20.7 L 20.8 20.7 C 21 20.6 21.3 20.5 21.5 20.7 L 21.5 20.7 L 24.9 23 C 25.1 23.1 25.1 23.4 25 23.6 L 25 23.6 C 24.9 23.7 24.7 23.8 24.6 23.8 L 24.6 23.8 C 24.5 23.8 24.4 23.7 24.3 23.7 L 24.3 23.7 Z" fill="#ffffff"/>
			</g>
			<g>
				<path d="M 23.1 25.6 L 19.2 22.9 C 19 22.8 19 22.5 19.1 22.3 L 19.1 22.3 C 19.3 22.1 19.6 22.1 19.8 22.2 L 19.8 22.2 L 23.7 24.9 C 23.9 25.1 23.9 25.4 23.8 25.6 L 23.8 25.6 C 23.7 25.7 23.5 25.7 23.4 25.7 L 23.4 25.7 C 23.3 25.7 23.2 25.7 23.1 25.6 L 23.1 25.6 Z" fill="#ffffff"/>
			</g>
			<g>
				<path d="M 21.3 27.2 L 17.8 24.7 C 17.5 24.6 17.5 24.3 17.7 24.1 L 17.7 24.1 C 17.8 23.9 18.2 23.9 18.4 24.1 L 18.4 24.1 L 21.9 26.5 C 22.1 26.7 22.2 27 22 27.1 L 22 27.1 C 21.9 27.2 21.7 27.3 21.6 27.3 L 21.6 27.3 C 21.5 27.3 21.4 27.3 21.3 27.2 L 21.3 27.2 Z" fill="#ffffff"/>
			</g>
			<path d="M 20.1 14 C 20.1 14 17.4 14.5 17.1 14.7 C 16.7 14.8 13.8 18 13.8 18 C 13.8 18 15 19.5 16.1 18.6 C 17.1 17.7 19.1 16.1 19.1 16.1 L 21 16 L 21.6 13.9 L 20.1 14 Z" fill="#ffffff"/>
		</g>
		<g id="advisor" visibility="hidden">
			<g>
				<path d="M 26.6 9 C 27.4 9 28 9.6 28 10.4 L 28 23.7 C 28 24.4 27.4 25.1 26.6 25.1 L 9.4 25.1 C 8.6 25.1 8 24.4 8 23.7 L 8 10.4 C 8 9.6 8.6 9 9.4 9 L 26.6 9 L 26.6 9 ZM 26.6 10 L 9.4 10 C 9.2 10 9 10.1 9 10.4 L 9 23.7 C 9 23.9 9.2 24.1 9.4 24.1 L 26.6 24.1 C 26.8 24.1 27 23.9 27 23.7 L 27 10.4 C 27 10.1 26.8 10 26.6 10 L 26.6 10 Z" fill="#ff7f00"/>
			</g>
			<path d="M 23.8 28 L 12.2 28 L 12.2 27.1 L 23.8 27.1 L 23.8 28 Z" fill="#ff7f00"/>
			<path d="M 20.6 27.5 L 15.4 27.5 L 15.4 25.8 L 20.6 25.8 L 20.6 27.5 Z" fill="#ff7f00"/>
			<g>
				<path d="M 11.7 21.1 L 14.2 21.1 L 14.2 18.5 L 11.7 18.5 L 11.7 21.1 Z" fill="#d6d30b"/>
				<path d="M 15 21.1 L 17.6 21.1 L 17.6 15.2 L 15 15.2 L 15 21.1 Z" fill="#d6d30b"/>
				<path d="M 18.4 21.1 L 21 21.1 L 21 13 L 18.4 13 L 18.4 21.1 Z" fill="#d6d30b"/>
				<path d="M 21.8 21.1 L 24.3 21.1 L 24.3 15.7 L 21.8 15.7 L 21.8 21.1 Z" fill="#d6d30b"/>
			</g>
		</g>
		<g id="forms" visibility="hidden">
			<path d="M 26 28 L 10 28 L 10 9.5 L 26 9.5 L 26 28 Z" fill="#ff7f00"/>
			<path d="M 22.6 11.2 C 22.6 12.2 21.8 12.9 20.8 12.9 L 15.2 12.9 C 14.2 12.9 13.4 12.2 13.4 11.2 L 13.4 9.7 C 13.4 8.8 14.2 8 15.2 8 L 20.8 8 C 21.8 8 22.6 8.8 22.6 9.7 L 22.6 11.2 Z" fill="#ff7f00"/>
			<g>
				<path d="M 24.3 21.4 L 24.3 11 L 11.7 11 L 11.7 26.3 L 19.2 26.3 L 19.2 21.4 L 24.3 21.4 Z" fill="#ffffff"/>
				<path d="M 20.1 26.3 L 20.1 22.2 L 24.3 22.2 L 20.1 26.3 Z" fill="#ffffff"/>
			</g>
			<path d="M 18.7 9.6 C 18.7 10 18.4 10.3 18 10.3 C 17.6 10.3 17.3 10 17.3 9.6 C 17.3 9.2 17.6 8.9 18 8.9 C 18.4 8.9 18.7 9.2 18.7 9.6 Z" fill="#ffffff"/>
			<g>
				<path d="M 13.6 14.8 C 13.4 14.8 13.2 14.6 13.2 14.4 L 13.2 14.4 C 13.2 14.1 13.4 14 13.6 14 L 13.6 14 L 22.4 14 C 22.6 14 22.8 14.1 22.8 14.4 L 22.8 14.4 C 22.8 14.6 22.6 14.8 22.4 14.8 L 22.4 14.8 L 13.6 14.8 L 13.6 14.8 Z" fill="#ff7f00"/>
			</g>
			<g>
				<path d="M 13.6 16.9 C 13.4 16.9 13.2 16.7 13.2 16.5 L 13.2 16.5 C 13.2 16.2 13.4 16.1 13.6 16.1 L 13.6 16.1 L 22.4 16.1 C 22.6 16.1 22.8 16.2 22.8 16.5 L 22.8 16.5 C 22.8 16.7 22.6 16.9 22.4 16.9 L 22.4 16.9 L 13.6 16.9 L 13.6 16.9 Z" fill="#ff7f00"/>
			</g>
			<g>
				<path d="M 13.6 19 C 13.4 19 13.2 18.8 13.2 18.6 L 13.2 18.6 C 13.2 18.3 13.4 18.2 13.6 18.2 L 13.6 18.2 L 22.4 18.2 C 22.6 18.2 22.8 18.3 22.8 18.6 L 22.8 18.6 C 22.8 18.8 22.6 19 22.4 19 L 22.4 19 L 13.6 19 L 13.6 19 Z" fill="#ff7f00"/>
			</g>
		</g>
		<g id="reminders">
			<path d="M 23.6 12.4 C 26.5 15.3 26.9 14.8 27.5 14.3 L 21.7 8.5 C 21.2 9.1 20.7 9.6 23.6 12.4 ZM 21.4 23.6 C 22.8 22.2 22.9 19.9 21.8 17.8 L 24.9 14.7 L 21.3 11.1 L 18.2 14.2 C 16.1 13.1 13.8 13.2 12.4 14.6 L 21.4 23.6 Z" fill="#ff7f00"/>
			<path d="M 8.5 26.3 L 8.6 27.4 L 9.7 27.5 L 16.8 20.4 L 15.6 19.2 L 8.5 26.3 Z" fill="#9d9709"/>
			<path d="M 18.6 15.8 C 18.4 16 17.9 16.1 17.4 15.8 C 17 15.5 16.7 15.1 16.9 14.8 C 17.1 14.5 17.6 14.5 18 14.8 C 18.5 15 18.7 15.5 18.6 15.8 Z" fill="#ffffff"/>
			<path d="M 16.5 14.6 C 16.4 14.8 16.2 14.9 15.9 14.8 C 15.7 14.7 15.5 14.5 15.5 14.4 C 15.6 14.2 15.8 14.1 16.1 14.2 C 16.3 14.3 16.5 14.4 16.5 14.6 Z" fill="#ffffff"/>
			<g>
				<path d="M 8.9 26.8 C 8.9 26.7 8.9 26.6 8.9 26.5 L 8.9 26.5 L 15.9 19.5 C 16 19.4 16.1 19.4 16.2 19.5 L 16.2 19.5 C 16.3 19.6 16.3 19.7 16.2 19.7 L 16.2 19.7 L 9.2 26.8 C 9.2 26.8 9.1 26.8 9.1 26.8 L 9.1 26.8 C 9 26.8 9 26.8 8.9 26.8 L 8.9 26.8 Z" fill="#ffffff"/>
			</g>
		</g>
		<g id="pending" visibility="hidden">
			<path d="M 26 9 L 10 9 C 9.5 9 9 9.4 9 10 L 9 25.2 C 9 25.7 9.5 26.2 10 26.2 L 11.5 26.2 L 11.5 26.7 C 11.5 26.9 11.7 27 11.8 27 L 13.7 27 C 13.9 27 14 26.9 14 26.7 L 14 26.2 L 22 26.2 L 22 26.7 C 22 26.9 22.1 27 22.3 27 L 24.2 27 C 24.3 27 24.5 26.9 24.5 26.7 L 24.5 26.2 L 26 26.2 C 26.5 26.2 27 25.7 27 25.2 L 27 10 C 27 9.4 26.5 9 26 9 ZM 25 22.7 C 25 23.6 24.3 24.2 23.4 24.2 L 12.6 24.2 C 11.7 24.2 11 23.6 11 22.7 L 11 12.4 C 11 11.6 11.7 11 12.6 11 L 23.4 11 C 24.3 11 25 11.6 25 12.4 L 25 22.7 Z" fill="#d6d30b"/>
			<path d="M 23.4 11.9 L 12.6 11.9 C 12.3 11.9 12.1 12.2 12.1 12.4 L 12.1 22.7 C 12.1 23 12.3 23.2 12.6 23.2 L 23.4 23.2 C 23.7 23.2 23.9 23 23.9 22.7 L 23.9 12.4 C 23.9 12.2 23.7 11.9 23.4 11.9 ZM 14.4 19.1 C 14.4 19.1 14.3 19.2 14.3 19.2 L 13.7 19.2 C 13.6 19.2 13.6 19.1 13.6 19.1 L 13.6 18.5 C 13.6 18.5 13.6 18.4 13.7 18.4 L 14.3 18.4 C 14.3 18.4 14.4 18.5 14.4 18.5 L 14.4 19.1 ZM 14.4 17.9 C 14.4 17.9 14.3 18 14.3 18 L 13.7 18 C 13.6 18 13.6 17.9 13.6 17.9 L 13.6 17.3 C 13.6 17.2 13.6 17.2 13.7 17.2 L 14.3 17.2 C 14.3 17.2 14.4 17.2 14.4 17.3 L 14.4 17.9 ZM 14.4 16.6 C 14.4 16.7 14.3 16.7 14.3 16.7 L 13.7 16.7 C 13.6 16.7 13.6 16.7 13.6 16.6 L 13.6 16.1 C 13.6 16 13.6 16 13.7 16 L 14.3 16 C 14.3 16 14.4 16 14.4 16.1 L 14.4 16.6 ZM 15.8 19.1 C 15.8 19.1 15.7 19.2 15.7 19.2 L 15.1 19.2 C 15 19.2 15 19.1 15 19.1 L 15 18.5 C 15 18.5 15 18.4 15.1 18.4 L 15.7 18.4 C 15.7 18.4 15.8 18.5 15.8 18.5 L 15.8 19.1 ZM 15.8 17.9 C 15.8 17.9 15.7 18 15.7 18 L 15.1 18 C 15 18 15 17.9 15 17.9 L 15 17.3 C 15 17.2 15 17.2 15.1 17.2 L 15.7 17.2 C 15.7 17.2 15.8 17.2 15.8 17.3 L 15.8 17.9 ZM 15.8 16.6 C 15.8 16.7 15.7 16.7 15.7 16.7 L 15.1 16.7 C 15 16.7 15 16.7 15 16.6 L 15 16.1 C 15 16 15 16 15.1 16 L 15.7 16 C 15.7 16 15.8 16 15.8 16.1 L 15.8 16.6 ZM 17.2 19.1 C 17.2 19.1 17.1 19.2 17.1 19.2 L 16.5 19.2 C 16.4 19.2 16.4 19.1 16.4 19.1 L 16.4 18.5 C 16.4 18.5 16.4 18.4 16.5 18.4 L 17.1 18.4 C 17.1 18.4 17.2 18.5 17.2 18.5 L 17.2 19.1 ZM 17.2 17.9 C 17.2 17.9 17.1 18 17.1 18 L 16.5 18 C 16.4 18 16.4 17.9 16.4 17.9 L 16.4 17.3 C 16.4 17.2 16.4 17.2 16.5 17.2 L 17.1 17.2 C 17.1 17.2 17.2 17.2 17.2 17.3 L 17.2 17.9 ZM 17.2 16.6 C 17.2 16.7 17.1 16.7 17.1 16.7 L 16.5 16.7 C 16.4 16.7 16.4 16.7 16.4 16.6 L 16.4 16.1 C 16.4 16 16.4 16 16.5 16 L 17.1 16 C 17.1 16 17.2 16 17.2 16.1 L 17.2 16.6 ZM 20.7 19.2 C 19.8 19.2 19.1 18.5 19.1 17.6 C 19.1 16.7 19.8 16 20.7 16 C 21.7 16 22.4 16.7 22.4 17.6 C 22.4 18.5 21.7 19.2 20.7 19.2 Z" fill="#ff7f00"/>
		</g>
	</g>
</svg>