<?xml version="1.0" encoding="utf-8"?>
<!-- Generator: Adobe Illustrator 16.0.0, SVG Export Plug-In . SVG Version: 6.00 Build 0)  -->
<!DOCTYPE svg PUBLIC "-//W3C//DTD SVG 1.1//EN" "http://www.w3.org/Graphics/SVG/1.1/DTD/svg11.dtd">
<svg version="1.1" id="Layer_1" xmlns="http://www.w3.org/2000/svg" xmlns:xlink="http://www.w3.org/1999/xlink" x="0px" y="0px"
	 width="100%" height="100%" viewBox="377.63 -153.39 91.478 968.117"
	 xml:space="preserve">
<path fill="#37611F" stroke="#2B880B" stroke-width="2" d="M458.602-150.971h-56.939c-12.528,0-22.776,7.725-22.776,17.076v446.408
	h102.492v-446.408C481.378-143.246,471.129-150.971,458.602-150.971z"/>
<path fill="#006519" stroke="#2B880B" stroke-width="2" d="M458.602,812.406h-56.939c-12.528,0-22.776-7.719-22.776-17.061V308.717
	h102.492v486.629C481.378,804.688,471.129,812.406,458.602,812.406z"/>
<linearGradient id="SVGID_1_" gradientUnits="userSpaceOnUse" x1="91.6948" y1="702.1309" x2="90.2269" y2="702.1309" gradientTransform="matrix(69.3981 0 0 -290.4 -5913.6992 204012.5)">
	<stop  offset="0" style="stop-color:#97B83F"/>
	<stop  offset="0.117" style="stop-color:#97B83F"/>
	<stop  offset="0.978" style="stop-color:#477320"/>
</linearGradient>
<path fill="url(#SVGID_1_)" stroke="#6A9134" d="M389.928-70.173h57.32c12.148,0,22.396,1.518,22.396,3.037v362.004
	c0,1.518,3.037,3.036-22.396,3.036h-57.32C389.928,289.553,389.928-64.479,389.928-70.173z"/>
<g>
	<path id="Forma_x25_2012" fill="#FFFFFF" d="M461.006-111.161l-2.77,3.232c0,0-0.461,0.461-0.923,0.461l0,0
		c-0.462,0-0.462-0.461-0.924-0.461l-27.695-22.619l-27.696,22.619c-0.462,0.461-0.924,0.461-0.924,0.461
		c-0.461,0-0.923-0.461-0.923-0.461l-2.77-3.232c0,0,0-0.461,0-0.923c0,0,0-0.461,0.462-0.461l28.618-24.004
		c0.924-0.461,1.847-0.923,3.232-0.923c1.385,0,2.309,0.462,3.23,0.923l9.694,8.309v-7.847c0-0.462,0-0.462,0.462-0.923
		c0,0,0.461,0,0.923,0h7.386c0.462,0,0.923,0,0.923,0c0.462,0.461,0.462,0.461,0.462,0.923v16.156l8.77,7.386
		c0.462,0,0.462,0.461,0.462,0.461C461.006-111.623,461.006-111.161,461.006-111.161z M405.613-108.391l23.081-18.926l23.08,18.926
		l0,0v18.926c0,0.923,0,1.385-0.923,1.847c-0.462,0.461-0.924,0.922-1.386,0.922h-15.694v-15.232h-10.155v15.232h-15.694
		c-0.462,0-0.924-0.461-1.385-0.922c-0.924-0.461-0.924-0.923-0.924-1.847V-108.391L405.613-108.391L405.613-108.391z"/>
</g>
<linearGradient id="SVGID_2_" gradientUnits="userSpaceOnUse" x1="90.6245" y1="701.7822" x2="90.5466" y2="701.7786" gradientTransform="matrix(306.9 0 0 -313.5 -27410.9492 220616.5)">
	<stop  offset="0" style="stop-color:#FCD356"/>
	<stop  offset="0.989" style="stop-color:#DBAB1B"/>
</linearGradient>
<path fill="url(#SVGID_2_)" stroke="#6A9134" d="M402.561,411.479h53.762c7.167,0,12.978,5.607,12.978,12.526v365.598
	c0,6.919-5.811,12.527-12.978,12.527h-53.762c-7.168,0-12.977-5.608-12.977-12.527V424.006
	C389.583,417.087,395.392,411.479,402.561,411.479z"/>
<rect x="389.583" y="322.751" fill="#D9A300" stroke="#826200" width="79.716" height="102.492"/>
<path id="Forma_x25_2013" fill="#FFFFFF" d="M446.903,365.646L446.903,365.646l-1.139-2.657l0,0
	c3.037-7.212,3.037-7.212,2.657-7.972l-4.176-3.796c0,0-0.379-0.38-0.759-0.38c0,0-0.76,0-6.833,2.657v0.38l-2.657-1.14v-0.378
	c-2.657-6.834-3.037-6.834-3.797-6.834h-5.694c-0.758,0-0.758,0-3.415,6.834v0.378l-2.657,1.14l0,0
	c-4.176-1.897-6.453-2.657-7.212-2.657h-0.38l-4.177,4.176c-0.38,0.38-0.76,0.759,2.278,7.592h0.38l-1.14,2.657h-0.38
	c-6.832,2.657-6.832,3.037-6.832,3.796v5.694c0,0.76,0,0.76,7.212,3.416l0,0l1.14,2.657l0,0c-3.038,7.213-3.038,7.213-2.658,7.972
	l4.177,3.796c0,0,0.38,0.38,0.76,0.38c0,0,0.758,0,6.832-2.657v-0.379l2.657,1.138v0.38c2.657,6.833,3.037,6.833,3.795,6.833h5.694
	c0.76,0,0.76,0,3.417-6.833v-0.38l2.657-1.138l0,0c4.175,1.897,6.453,2.656,7.213,2.656h0.379l4.176-4.175
	c0.38-0.38,0.759-0.76-2.277-7.593h-0.38l1.139-2.657l0,0c7.212-2.656,7.212-3.036,7.212-3.796v-5.694
	C454.115,368.303,454.115,368.303,446.903,365.646z M427.544,381.209c-4.936,0-9.11-4.176-9.11-9.11c0-4.936,4.175-9.11,9.11-9.11
	c4.935,0,9.11,4.175,9.11,9.11C436.654,377.033,432.479,381.209,427.544,381.209z"/>
<path fill="none" d="z"/>
<path display="none" fill="#56AE00" stroke="#2B880B" stroke-width="2" d="M1031.5,72.985v497.25c0,8.415-6.885,15.301-15.3,15.301
	h-38.25c-8.415,0-15.3-6.886-15.3-15.301L965.2,71.71L1031.5,72.985z"/>
<g>
	<g opacity="0.6">
		<path display="none" fill="#FFFFFF" stroke="#489100" stroke-width="2" d="M993.25,380.26v3.825l15.3,6.12l-15.3,6.63v3.825h22.95
			v-2.551h-19.636l15.811-6.63v-2.04l-15.811-6.63h19.636v-2.55H993.25L993.25,380.26z"/>
		<path display="none" fill="#FFFFFF" stroke="#489100" stroke-width="2" d="M993.25,362.92l11.221,5.865l-11.221,6.119v2.806
			l13.26-7.65h9.69v-2.55H1006l-12.75-7.65V362.92L993.25,362.92z"/>
		<path display="none" fill="#FFFFFF" stroke="#489100" stroke-width="2" d="M997.075,332.575c-0.765,0.51-1.785,1.274-2.296,2.04
			c-0.51,0.765-0.764,1.784-1.02,2.55c-0.255,1.02-0.51,2.295-0.51,3.569v6.375h22.95v-2.55h-7.65v-3.314
			c0-1.785-0.255-3.061-0.51-4.335c-0.51-1.021-1.275-2.04-2.04-3.061c-0.51-0.51-1.529-1.02-2.295-1.53
			c-1.02-0.255-2.04-0.51-3.061-0.51C999.115,331.81,998.096,332.064,997.075,332.575L997.075,332.575z M1002.686,334.615
			c0.765,0.255,1.274,0,1.785-0.511c0.51,1.785,1.02,3.061,1.274,4.08c0.255,0.766,0.255,2.04,0.255,3.315v3.06h-10.2v-3.569
			c0-1.021,0-2.04,0.255-2.806c0.256-0.51,0.51-1.53,0.766-2.805c0.255,0,1.02-0.255,1.529-0.51c0.766-0.255,1.53-0.511,2.295-0.511
			C1001.41,334.359,1002.175,334.359,1002.686,334.615L1002.686,334.615z"/>
		<path display="none" fill="#FFFFFF" stroke="#489100" stroke-width="2" d="M1005.234,319.825c-0.51-1.785-1.274-3.315-2.295-4.335
			c-1.02-1.021-2.295-1.53-3.824-1.53c-1.275,0-2.04,0.255-2.805,0.765c-0.766,0.51-1.531,1.021-1.785,2.04
			c-0.51,0.765-0.766,1.53-1.021,2.55c-0.255,0.766-0.255,2.04-0.255,3.315v6.63h22.95v-2.55H1006v-4.59l10.2-8.415v-2.295
			L1005.234,319.825L1005.234,319.825z M1001.154,317.02c0.511,0.255,0.766,0.255,1.275,0.51c0.51,1.021,0.766,1.785,0.766,2.806
			c0.255,0.765,0.255,1.785,0.255,2.805v3.57h-7.65v-4.08c0-1.021,0-1.785,0.255-2.55c0-0.766,0.256-1.275,0.51-1.785
			c0.256-0.766,0.511-1.021,1.021-1.275c0.511-0.255,1.021-0.51,1.53-0.51C999.88,316.51,1000.645,316.765,1001.154,317.02
			L1001.154,317.02z"/>
		<path display="none" fill="#FFFFFF" stroke="#489100" stroke-width="2" d="M994.016,294.325c-0.511,1.274-0.766,2.805-0.766,4.335
			c0,1.529,0.255,3.06,0.766,4.335c0.51,1.274,1.274,2.295,2.295,3.06c1.02,1.021,2.039,1.53,3.569,2.04s3.06,0.765,4.845,0.765
			s3.57-0.255,4.846-0.765c1.529-0.51,2.805-1.02,3.569-2.04c1.021-0.765,1.785-1.785,2.295-3.06
			c0.511-1.275,0.766-2.806,0.766-4.335c0-1.53-0.255-3.061-0.766-4.08c-0.51-1.275-1.274-2.295-2.295-3.315
			c-0.765-0.765-2.04-1.53-3.569-2.04c-1.275-0.51-3.061-0.765-4.846-0.765s-3.314,0.255-4.845,0.765s-2.55,1.275-3.569,2.04
			C995.29,292.029,994.525,293.305,994.016,294.325L994.016,294.325z M1011.355,293.05c1.529,1.53,2.295,3.315,2.295,5.61
			s-0.766,4.335-2.295,5.609c-1.53,1.275-3.825,2.04-6.631,2.04c-2.805,0-5.1-0.765-6.629-2.04
			c-1.531-1.274-2.296-3.314-2.296-5.609s0.765-4.335,2.296-5.61c1.529-1.275,3.824-2.04,6.629-2.04
			C1007.53,291.01,1009.825,291.774,1011.355,293.05L1011.355,293.05z"/>
		<path display="none" fill="#FFFFFF" stroke="#489100" stroke-width="2" d="M993.25,270.61v15.3h22.95v-2.55H1006v-10.2h-2.55v10.2
			h-7.65v-12.75H993.25L993.25,270.61z"/>
		<path display="none" fill="#FFFFFF" stroke="#489100" stroke-width="2" d="M1013.65,260.41v2.55H995.8v-2.55h-2.55v7.65h2.55
			v-2.55h17.851v2.55h2.55v-7.65H1013.65L1013.65,260.41z"/>
		<path display="none" fill="#FFFFFF" stroke="#489100" stroke-width="2" d="M1013.65,240.01v12.75h-20.4v2.55h22.95v-15.3H1013.65
			L1013.65,240.01z"/>
		<path display="none" fill="#FFFFFF" stroke="#489100" stroke-width="2" d="M1013.65,222.16v12.75H1006v-12.75h-2.55v12.75h-7.65
			v-12.75h-2.55v15.3h22.95v-15.3H1013.65L1013.65,222.16z"/>
	</g>
	<g>
		<path display="none" fill="#FFFFFF" d="M993.25,377.71v3.825l15.3,6.119l-15.3,6.631v3.824h22.95v-2.55h-19.636l15.811-6.63v-2.04
			l-15.811-6.63h19.636v-2.55H993.25L993.25,377.71z"/>
		<path display="none" fill="#FFFFFF" d="M993.25,360.37l11.221,5.864l-11.221,6.12v2.806l13.26-7.65h9.69v-2.55H1006l-12.75-7.65
			V360.37L993.25,360.37z"/>
		<path display="none" fill="#FFFFFF" d="M997.075,330.024c-0.765,0.511-1.785,1.275-2.296,2.04c-0.51,0.766-0.764,1.785-1.02,2.551
			c-0.255,1.02-0.51,2.295-0.51,3.569v6.375h22.95v-2.55h-7.65v-3.315c0-1.784-0.255-3.06-0.51-4.335
			c-0.51-1.02-1.275-2.04-2.04-3.06c-0.51-0.51-1.529-1.021-2.295-1.53c-1.02-0.255-2.04-0.51-3.061-0.51
			C999.115,329.26,998.096,329.515,997.075,330.024L997.075,330.024z M1002.686,332.064c0.765,0.255,1.274,0,1.785-0.51
			c0.51,1.785,1.02,3.061,1.274,4.08c0.255,0.765,0.255,2.04,0.255,3.315v3.06h-10.2v-3.57c0-1.02,0-2.04,0.255-2.805
			c0.256-0.51,0.51-1.53,0.766-2.805c0.255,0,1.02-0.255,1.529-0.511c0.766-0.255,1.53-0.51,2.295-0.51
			C1001.41,331.81,1002.175,331.81,1002.686,332.064L1002.686,332.064z"/>
		<path display="none" fill="#FFFFFF" d="M1005.234,317.274c-0.51-1.784-1.274-3.314-2.295-4.335
			c-1.02-1.02-2.295-1.529-3.824-1.529c-1.275,0-2.04,0.255-2.805,0.765c-0.766,0.51-1.531,1.02-1.785,2.04
			c-0.51,0.765-0.766,1.53-1.021,2.55c-0.255,0.765-0.255,2.04-0.255,3.315v6.63h22.95v-2.55H1006v-4.591l10.2-8.415v-2.295
			L1005.234,317.274L1005.234,317.274z M1001.154,314.47c0.511,0.255,0.766,0.255,1.275,0.51c0.51,1.021,0.766,1.785,0.766,2.806
			c0.255,0.765,0.255,1.784,0.255,2.805v3.57h-7.65v-4.08c0-1.021,0-1.785,0.255-2.551c0-0.765,0.256-1.274,0.51-1.784
			c0.256-0.766,0.511-1.021,1.021-1.275c0.511-0.255,1.021-0.51,1.53-0.51C999.88,313.96,1000.645,314.215,1001.154,314.47
			L1001.154,314.47z"/>
		<path display="none" fill="#FFFFFF" d="M994.016,291.774c-0.511,1.275-0.766,2.806-0.766,4.335c0,1.53,0.255,3.061,0.766,4.335
			c0.51,1.275,1.274,2.296,2.295,3.061c1.02,1.02,2.039,1.53,3.569,2.04s3.06,0.765,4.845,0.765s3.57-0.255,4.846-0.765
			c1.529-0.51,2.805-1.021,3.569-2.04c1.021-0.765,1.785-1.785,2.295-3.061c0.511-1.274,0.766-2.805,0.766-4.335
			c0-1.529-0.255-3.06-0.766-4.08c-0.51-1.274-1.274-2.295-2.295-3.314c-0.765-0.765-2.04-1.53-3.569-2.04
			c-1.275-0.51-3.061-0.765-4.846-0.765s-3.314,0.255-4.845,0.765s-2.55,1.275-3.569,2.04
			C995.29,289.479,994.525,290.755,994.016,291.774L994.016,291.774z M1011.355,290.5c1.529,1.529,2.295,3.314,2.295,5.609
			s-0.766,4.335-2.295,5.61c-1.53,1.275-3.825,2.04-6.631,2.04c-2.805,0-5.1-0.765-6.629-2.04c-1.531-1.275-2.296-3.315-2.296-5.61
			s0.765-4.335,2.296-5.609c1.529-1.275,3.824-2.04,6.629-2.04C1007.53,288.46,1009.825,289.225,1011.355,290.5L1011.355,290.5z"/>
		<path display="none" fill="#FFFFFF" d="M993.25,268.06v15.3h22.95v-2.55H1006v-10.2h-2.55v10.2h-7.65v-12.75H993.25L993.25,268.06
			z"/>
		<path display="none" fill="#FFFFFF" d="M1013.65,257.86v2.55H995.8v-2.55h-2.55v7.65h2.55v-2.55h17.851v2.55h2.55v-7.65H1013.65
			L1013.65,257.86z"/>
		<path display="none" fill="#FFFFFF" d="M1013.65,237.46v12.75h-20.4v2.55h22.95v-15.3H1013.65L1013.65,237.46z"/>
		<path display="none" fill="#FFFFFF" d="M1013.65,219.61v12.75H1006v-12.75h-2.55v12.75h-7.65v-12.75h-2.55v15.3h22.95v-15.3
			H1013.65L1013.65,219.61z"/>
	</g>
	<g>
		<path display="none" fill="#FFFFFF" d="M993.25,377.71v3.825l15.3,6.119l-15.3,6.631v3.824h22.95v-2.55h-19.636l15.811-6.63v-2.04
			l-15.811-6.63h19.636v-2.55H993.25L993.25,377.71z"/>
		<path display="none" fill="#FFFFFF" d="M993.25,360.37l11.221,5.864l-11.221,6.12v2.806l13.26-7.65h9.69v-2.55H1006l-12.75-7.65
			V360.37L993.25,360.37z"/>
		<path display="none" fill="#FFFFFF" d="M997.075,330.024c-0.765,0.511-1.785,1.275-2.296,2.04c-0.51,0.766-0.764,1.785-1.02,2.551
			c-0.255,1.02-0.51,2.295-0.51,3.569v6.375h22.95v-2.55h-7.65v-3.315c0-1.784-0.255-3.06-0.51-4.335
			c-0.51-1.02-1.275-2.04-2.04-3.06c-0.51-0.51-1.529-1.021-2.295-1.53c-1.02-0.255-2.04-0.51-3.061-0.51
			C999.115,329.26,998.096,329.515,997.075,330.024L997.075,330.024z M1002.686,332.064c0.765,0.255,1.274,0,1.785-0.51
			c0.51,1.785,1.02,3.061,1.274,4.08c0.255,0.765,0.255,2.04,0.255,3.315v3.06h-10.2v-3.57c0-1.02,0-2.04,0.255-2.805
			c0.256-0.51,0.51-1.53,0.766-2.805c0.255,0,1.02-0.255,1.529-0.511c0.766-0.255,1.53-0.51,2.295-0.51
			C1001.41,331.81,1002.175,331.81,1002.686,332.064L1002.686,332.064z"/>
		<path display="none" fill="#FFFFFF" d="M1005.234,317.274c-0.51-1.784-1.274-3.314-2.295-4.335
			c-1.02-1.02-2.295-1.529-3.824-1.529c-1.275,0-2.04,0.255-2.805,0.765c-0.766,0.51-1.531,1.02-1.785,2.04
			c-0.51,0.765-0.766,1.53-1.021,2.55c-0.255,0.765-0.255,2.04-0.255,3.315v6.63h22.95v-2.55H1006v-4.591l10.2-8.415v-2.295
			L1005.234,317.274L1005.234,317.274z M1001.154,314.47c0.511,0.255,0.766,0.255,1.275,0.51c0.51,1.021,0.766,1.785,0.766,2.806
			c0.255,0.765,0.255,1.784,0.255,2.805v3.57h-7.65v-4.08c0-1.021,0-1.785,0.255-2.551c0-0.765,0.256-1.274,0.51-1.784
			c0.256-0.766,0.511-1.021,1.021-1.275c0.511-0.255,1.021-0.51,1.53-0.51C999.88,313.96,1000.645,314.215,1001.154,314.47
			L1001.154,314.47z"/>
		<path display="none" fill="#FFFFFF" d="M994.016,291.774c-0.511,1.275-0.766,2.806-0.766,4.335c0,1.53,0.255,3.061,0.766,4.335
			c0.51,1.275,1.274,2.296,2.295,3.061c1.02,1.02,2.039,1.53,3.569,2.04s3.06,0.765,4.845,0.765s3.57-0.255,4.846-0.765
			c1.529-0.51,2.805-1.021,3.569-2.04c1.021-0.765,1.785-1.785,2.295-3.061c0.511-1.274,0.766-2.805,0.766-4.335
			c0-1.529-0.255-3.06-0.766-4.08c-0.51-1.274-1.274-2.295-2.295-3.314c-0.765-0.765-2.04-1.53-3.569-2.04
			c-1.275-0.51-3.061-0.765-4.846-0.765s-3.314,0.255-4.845,0.765s-2.55,1.275-3.569,2.04
			C995.29,289.479,994.525,290.755,994.016,291.774L994.016,291.774z M1011.355,290.5c1.529,1.529,2.295,3.314,2.295,5.609
			s-0.766,4.335-2.295,5.61c-1.53,1.275-3.825,2.04-6.631,2.04c-2.805,0-5.1-0.765-6.629-2.04c-1.531-1.275-2.296-3.315-2.296-5.61
			s0.765-4.335,2.296-5.609c1.529-1.275,3.824-2.04,6.629-2.04C1007.53,288.46,1009.825,289.225,1011.355,290.5L1011.355,290.5z"/>
		<path display="none" fill="#FFFFFF" d="M993.25,268.06v15.3h22.95v-2.55H1006v-10.2h-2.55v10.2h-7.65v-12.75H993.25L993.25,268.06
			z"/>
		<path display="none" fill="#FFFFFF" d="M1013.65,257.86v2.55H995.8v-2.55h-2.55v7.65h2.55v-2.55h17.851v2.55h2.55v-7.65H1013.65
			L1013.65,257.86z"/>
		<path display="none" fill="#FFFFFF" d="M1013.65,237.46v12.75h-20.4v2.55h22.95v-15.3H1013.65L1013.65,237.46z"/>
		<path display="none" fill="#FFFFFF" d="M1013.65,219.61v12.75H1006v-12.75h-2.55v12.75h-7.65v-12.75h-2.55v15.3h22.95v-15.3
			H1013.65L1013.65,219.61z"/>
	</g>
</g>
<g>
	<rect x="986.875" y="-1.475" display="none" fill="#00661A" width="40.8" height="73.185"/>
	<path display="none" fill="#FFFFFF" d="M1018.24,39.325c-2.295-1.02-4.59-1.785-7.141-2.04c0-0.51,0.256-1.275,0.256-1.785
		c0.51-0.51,1.02-1.021,1.02-1.275c0-0.765,0-1.275,0.255-1.785c0,0,0,0.255,0.255,0.255s0.51-0.255,0.51-0.51l0.256-2.55
		c0-0.255-0.256-0.51-0.511-0.51h-0.255c0-0.51,0.255-1.021,0.255-1.53s0.255-2.295-1.02-3.57c-1.785-1.785-5.61-1.785-7.649,0
		c-1.021,1.275-0.766,3.06-0.766,3.57s0,1.02,0.255,1.53c-0.255,0-0.255,0-0.255,0c-0.255,0-0.51,0.255-0.51,0.51l0.255,2.55
		c0,0.255,0.255,0.51,0.51,0.51l0.255-0.255c0,0.51,0.256,1.02,0.256,1.785c0,0.255,0.254,0.765,1.02,1.275
		c0,0.51,0,1.275,0.255,1.785c-2.55,0.255-4.845,1.02-7.14,2.04c-0.766,0.51-1.275,1.53-1.275,2.295
		c0.255,0.765,0.255,1.785,0.255,2.55c0,1.02,0.765,1.785,1.53,1.785c6.119,1.02,12.495,1.02,18.615,0
		c0.765,0,1.274-0.765,1.274-1.785c0.255-0.765,0.255-1.785,0.51-2.55C1019.515,40.854,1019.005,39.835,1018.24,39.325z"/>
</g>
<g>
	<g>
		<rect x="988.15" y="229.555" display="none" fill="#FFFFFF" width="5.1" height="22.695"/>
	</g>
	<path id="Forma_x25_201" display="none" fill="#FFFFFF" d="M1025.635,249.19l-6.885-6.63c1.275-2.04,2.04-4.08,2.04-6.63
		c0-6.885-5.61-12.24-12.495-12.24s-12.24,5.355-12.24,12.24c0,6.885,5.355,12.495,12.24,12.495c2.55,0,4.59-0.765,6.63-2.04
		l6.63,6.885c1.021,1.02,2.806,1.02,4.08,0C1026.655,251.995,1026.655,250.21,1025.635,249.19z M1008.295,244.6
		c-4.59,0-8.415-3.825-8.415-8.67c0-4.59,3.825-8.415,8.415-8.415c4.845,0,8.67,3.825,8.67,8.415
		C1016.965,240.775,1013.14,244.6,1008.295,244.6z"/>
	<path display="none" fill="#FFFFFF" d="M1008.04,215.785v10.455c0.51,0,0.765,0,1.02,0c1.53,0,3.061,0.255,4.335,1.02v-11.475
		H1008.04z"/>
	<path display="none" fill="#FFFFFF" d="M1002.939,252.25v-9.18c-2.039-1.785-3.569-4.335-3.569-7.395
		c0-2.805,1.53-5.61,3.569-7.395v-7.905h-5.1v31.875H1002.939z"/>
	<path display="none" fill="#FFFFFF" d="M1013.395,252.25v-7.905c-1.274,0.51-2.805,1.02-4.335,1.02c-0.255,0-0.51,0-1.02,0v6.885
		H1013.395z"/>
</g>
<g>
	<path display="none" fill="#006519" stroke="#2B880B" stroke-width="2" d="M977.95-16.265h38.25c8.415,0,15.3,4.845,15.3,10.71
		v53.04h-68.85v-53.04C962.65-11.42,969.535-16.265,977.95-16.265z"/>
	<path display="none" fill="#FFFFFF" d="M1018.75,30.91c0,8.415-30.6,8.415-30.6,0c0-8.67,6.885-15.81,15.3-15.81
		S1018.75,22.24,1018.75,30.91z"/>
	<path display="none" fill="#FFFFFF" d="M1012.885,3.625c0,5.354-4.335,9.69-9.435,9.69c-5.101,0-9.435-4.335-9.435-9.69
		c0-5.355,4.334-9.69,9.435-9.69C1008.55-6.065,1012.885-1.73,1012.885,3.625z"/>
	
		<linearGradient id="SVGID_3_" gradientUnits="userSpaceOnUse" x1="12.5757" y1="612.1709" x2="11.2987" y2="612.1709" gradientTransform="matrix(53.55 0 0 -127.5 341.6625 78576.25)">
		<stop  offset="0" style="stop-color:#8BC0FC"/>
		<stop  offset="1" style="stop-color:#6A96D3"/>
	</linearGradient>
	<path display="none" fill="url(#SVGID_3_)" stroke="#008C23" d="M977.95,460.585h38.505c8.415,0,15.045,1.02,15.045,2.04v123.42
		c0,1.02-6.63,2.04-15.045,2.04H977.95C977.95,582.475,977.95,464.41,977.95,460.585z"/>
	
		<linearGradient id="SVGID_4_" gradientUnits="userSpaceOnUse" x1="12.5757" y1="612.1533" x2="11.2987" y2="612.1533" gradientTransform="matrix(53.55 0 0 -142.8 341.6625 87740.875)">
		<stop  offset="0" style="stop-color:#FFD86B"/>
		<stop  offset="1" style="stop-color:#F1A554"/>
	</linearGradient>
	<path display="none" fill="url(#SVGID_4_)" stroke="#008C23" d="M977.95,254.035h38.505c8.415,0,15.045,1.02,15.045,2.04v138.72
		c0,1.02-6.63,2.04-15.045,2.04H977.95C977.95,391.225,977.95,257.86,977.95,254.035z"/>
	
		<linearGradient id="SVGID_5_" gradientUnits="userSpaceOnUse" x1="12.6143" y1="612.165" x2="11.3383" y2="612.165" gradientTransform="matrix(53.6258 0 0 -132.6 341.6246 81291.9922)">
		<stop  offset="0" style="stop-color:#57AF00"/>
		<stop  offset="1" style="stop-color:#3F9B07"/>
	</linearGradient>
	<path display="none" fill="url(#SVGID_5_)" stroke="#008C23" d="M977.95,52.585h38.505c8.16,0,15.045,1.02,15.045,2.04v128.52
		c0,1.02,2.04,2.04-15.045,2.04H977.95C977.95,179.575,977.95,56.41,977.95,52.585z"/>
	<rect x="977.95" y="187.735" display="none" fill="#D9A300" stroke="#008C23" width="53.55" height="63.75"/>
	<rect x="977.95" y="399.385" display="none" fill="#004C66" stroke="#008C23" width="53.55" height="63.75"/>
	<g>
		<rect x="989.425" y="416.47" display="none" fill="#FFFFFF" width="30.601" height="7.14"/>
		<rect x="989.425" y="426.925" display="none" fill="#FFFFFF" width="30.601" height="7.14"/>
		<rect x="989.425" y="437.635" display="none" fill="#FFFFFF" width="30.601" height="7.14"/>
	</g>
	
		<image display="none" overflow="visible" enable-background="new    " width="14" height="16" xlink:href="toolbar_btn.svg.images/image1.png"  transform="matrix(2.55 0 0 2.55 998.3496 422.3359)">
	</image>
</g>
<g>
	<g>
		<path display="none" fill="#002D0C" d="M993.505,67.885v2.295h7.396c0,0.765,0,1.53,0,2.55c0,2.805,0.765,5.355,2.295,6.63
			c1.275,1.02,3.314,1.275,5.864,1.275c2.296,0,4.335-0.51,5.355-1.53c1.275-1.02,1.785-3.315,1.785-6.12c0-2.295,0-3.825-0.255-5.1
			H993.505L993.505,67.885z M1013.905,70.18c0,0.51,0.255,1.53,0.255,2.805c0,3.315-1.785,5.355-5.355,5.355s-5.865-2.04-5.865-5.61
			c0-1.02,0.256-1.785,0.256-2.55H1013.905L1013.905,70.18z"/>
		<path display="none" fill="#002D0C" d="M993.505,86.245v2.295h7.649v2.805c-0.254,2.805-1.02,4.08-3.569,4.59
			c-2.04,0.765-3.569,1.02-4.08,1.275v2.55c0.511-0.51,2.295-0.765,4.845-1.53c1.785-0.255,3.061-1.275,3.57-2.805h0.255
			c0.765,2.04,3.315,3.57,6.885,3.57c2.296,0,4.335-0.51,5.355-1.275c1.275-1.275,1.785-3.315,1.785-6.375c0-2.04,0-3.825-0.255-5.1
			H993.505L993.505,86.245z M1013.65,88.54c0.255,0.51,0.51,1.53,0.51,3.06c0,3.06-1.785,5.1-5.355,5.1
			c-3.314,0-5.609-2.04-5.609-5.1v-3.06H1013.65L1013.65,88.54z"/>
		<path display="none" fill="#002D0C" d="M1016.2,112.51c0-6.63-4.335-10.455-11.729-10.455c-6.886,0-11.221,3.315-11.221,9.945
			c0,6.375,3.825,10.71,11.73,10.71C1011.61,122.71,1016.2,119.395,1016.2,112.51L1016.2,112.51z M1014.16,112.255
			c0,5.355-4.845,8.16-9.436,8.16c-5.1,0-9.435-3.06-9.435-8.16s4.335-7.905,9.435-7.905
			C1009.57,104.35,1014.16,106.9,1014.16,112.255L1014.16,112.255z"/>
		<path display="none" fill="#002D0C" d="M993.505,128.065v2.295h10.2v8.16h2.04v-8.16h8.415v8.67h2.04v-10.965H993.505
			L993.505,128.065z"/>
		<path display="none" fill="#002D0C" d="M1015.945,143.875h-22.44v2.295h22.44V143.875L1015.945,143.875z"/>
		<path display="none" fill="#002D0C" d="M993.25,151.78V163h2.04v-8.925h20.655v-2.295H993.25L993.25,151.78z"/>
		<path display="none" fill="#002D0C" d="M1005.745,177.79v-8.16h8.415v8.67h2.04v-10.965h-22.95v11.475h2.04v-9.18h8.415v8.16
			H1005.745L1005.745,177.79z"/>
	</g>
	<g>
		<path display="none" fill="#6A5000" d="M993.505,291.52v2.295h10.2v7.905h2.04v-7.905h8.415v8.67h2.04V291.52H993.505
			L993.505,291.52z"/>
		<path display="none" fill="#6A5000" d="M1015.945,307.33h-22.44v2.295h22.44V307.33L1015.945,307.33z"/>
		<path display="none" fill="#6A5000" d="M993.25,314.979v11.476h2.04v-9.181h20.655v-2.295H993.25L993.25,314.979z"/>
		<path display="none" fill="#6A5000" d="M993.505,333.34v2.295h20.655v6.63h2.04v-15.3h-2.04v6.375H993.505L993.505,333.34z"/>
		<path display="none" fill="#6A5000" d="M1005.745,357.055v-8.16h8.415v8.67h2.04V346.6h-22.95v11.476h2.04v-9.181h8.415v8.16
			H1005.745L1005.745,357.055z"/>
		<path display="none" fill="#6A5000" d="M993.505,362.154v2.296h7.649v2.805c-0.254,2.805-1.02,4.08-3.569,4.59
			c-2.04,0.765-3.569,1.021-4.08,1.275v2.55c0.511-0.51,2.295-0.766,4.845-1.53c1.785-0.255,3.061-1.274,3.57-2.805h0.255
			c0.765,2.04,3.315,3.569,6.885,3.569c2.296,0,4.335-0.51,5.355-1.274c1.275-1.275,1.785-3.315,1.785-6.375
			c0-2.04,0-3.825-0.255-5.101H993.505L993.505,362.154z M1013.65,364.45c0.255,0.51,0.51,1.529,0.51,3.06
			c0,3.06-1.785,5.1-5.355,5.1c-3.314,0-5.609-2.04-5.609-5.1v-3.06H1013.65L1013.65,364.45z"/>
	</g>
	<g>
		<path display="none" fill="#003648" d="M993.505,505.975v2.55l22.695-1.274v-3.315l-10.455-3.569c-3.06-0.766-5.61-1.53-8.16-2.04
			v-0.256c2.55-0.51,5.101-1.02,8.16-2.04l10.455-3.314v-3.315l-22.695-1.529v2.55l9.945,0.51c3.825,0.255,7.649,0.255,10.71,0.51
			l0,0c-2.805,0.511-5.865,1.275-9.436,2.295l-11.22,3.315v2.04l11.476,3.57c3.314,1.02,6.375,1.784,9.18,2.55l0,0
			c-3.061,0-7.141,0.255-10.455,0.255L993.505,505.975L993.505,505.975z"/>
		<path display="none" fill="#003648" d="M1005.745,524.59v-8.16h8.415v8.67h2.04v-10.965h-22.95v11.475h2.04v-9.18h8.415v8.16
			H1005.745L1005.745,524.59z"/>
		<path display="none" fill="#003648" d="M993.505,532.24h9.69c4.845,0,7.649-0.256,10.71-0.256h0.255
			c-2.805,1.021-5.61,2.551-8.415,4.08l-12.24,6.63v2.551h22.695v-2.295h-8.415c-6.12,0-8.926,0-12.24,0.255h-0.255
			c2.55-1.021,5.354-2.295,8.16-3.825l12.495-6.885v-2.551H993.25L993.505,532.24L993.505,532.24z"/>
		<path display="none" fill="#003648" d="M1015.945,550.854h-13.26c-7.141,0-9.436,2.806-9.436,7.396
			c0,4.845,2.55,7.904,9.436,7.904h13.26v-2.295h-13.26c-5.101,0-7.396-2.295-7.396-5.609c0-3.061,2.295-5.101,7.396-5.101h13.26
			V550.854L1015.945,550.854z"/>
	</g>
</g>
<g>
	<g>
		<path display="none" fill="#002D0C" d="M993.505,67.885v2.295h7.396c0,0.765,0,1.53,0,2.55c0,2.805,0.765,5.355,2.295,6.63
			c1.275,1.02,3.314,1.275,5.864,1.275c2.296,0,4.335-0.51,5.355-1.53c1.275-1.02,1.785-3.315,1.785-6.12c0-2.295,0-3.825-0.255-5.1
			H993.505L993.505,67.885z M1013.905,70.18c0,0.51,0.255,1.53,0.255,2.805c0,3.315-1.785,5.355-5.355,5.355s-5.865-2.04-5.865-5.61
			c0-1.02,0.256-1.785,0.256-2.55H1013.905L1013.905,70.18z"/>
		<path display="none" fill="#002D0C" d="M993.505,86.245v2.295h7.649v2.805c-0.254,2.805-1.02,4.08-3.569,4.59
			c-2.04,0.765-3.569,1.02-4.08,1.275v2.55c0.511-0.51,2.295-0.765,4.845-1.53c1.785-0.255,3.061-1.275,3.57-2.805h0.255
			c0.765,2.04,3.315,3.57,6.885,3.57c2.296,0,4.335-0.51,5.355-1.275c1.275-1.275,1.785-3.315,1.785-6.375c0-2.04,0-3.825-0.255-5.1
			H993.505L993.505,86.245z M1013.65,88.54c0.255,0.51,0.51,1.53,0.51,3.06c0,3.06-1.785,5.1-5.355,5.1
			c-3.314,0-5.609-2.04-5.609-5.1v-3.06H1013.65L1013.65,88.54z"/>
		<path display="none" fill="#002D0C" d="M1016.2,112.51c0-6.63-4.335-10.455-11.729-10.455c-6.886,0-11.221,3.315-11.221,9.945
			c0,6.375,3.825,10.71,11.73,10.71C1011.61,122.71,1016.2,119.395,1016.2,112.51L1016.2,112.51z M1014.16,112.255
			c0,5.355-4.845,8.16-9.436,8.16c-5.1,0-9.435-3.06-9.435-8.16s4.335-7.905,9.435-7.905
			C1009.57,104.35,1014.16,106.9,1014.16,112.255L1014.16,112.255z"/>
		<path display="none" fill="#002D0C" d="M993.505,128.065v2.295h10.2v8.16h2.04v-8.16h8.415v8.67h2.04v-10.965H993.505
			L993.505,128.065z"/>
		<path display="none" fill="#002D0C" d="M1015.945,143.875h-22.44v2.295h22.44V143.875L1015.945,143.875z"/>
		<path display="none" fill="#002D0C" d="M993.25,151.78V163h2.04v-8.925h20.655v-2.295H993.25L993.25,151.78z"/>
		<path display="none" fill="#002D0C" d="M1005.745,177.79v-8.16h8.415v8.67h2.04v-10.965h-22.95v11.475h2.04v-9.18h8.415v8.16
			H1005.745L1005.745,177.79z"/>
	</g>
	<g>
		<path display="none" fill="#6A5000" d="M993.505,291.52v2.295h10.2v7.905h2.04v-7.905h8.415v8.67h2.04V291.52H993.505
			L993.505,291.52z"/>
		<path display="none" fill="#6A5000" d="M1015.945,307.33h-22.44v2.295h22.44V307.33L1015.945,307.33z"/>
		<path display="none" fill="#6A5000" d="M993.25,314.979v11.476h2.04v-9.181h20.655v-2.295H993.25L993.25,314.979z"/>
		<path display="none" fill="#6A5000" d="M993.505,333.34v2.295h20.655v6.63h2.04v-15.3h-2.04v6.375H993.505L993.505,333.34z"/>
		<path display="none" fill="#6A5000" d="M1005.745,357.055v-8.16h8.415v8.67h2.04V346.6h-22.95v11.476h2.04v-9.181h8.415v8.16
			H1005.745L1005.745,357.055z"/>
		<path display="none" fill="#6A5000" d="M993.505,362.154v2.296h7.649v2.805c-0.254,2.805-1.02,4.08-3.569,4.59
			c-2.04,0.765-3.569,1.021-4.08,1.275v2.55c0.511-0.51,2.295-0.766,4.845-1.53c1.785-0.255,3.061-1.274,3.57-2.805h0.255
			c0.765,2.04,3.315,3.569,6.885,3.569c2.296,0,4.335-0.51,5.355-1.274c1.275-1.275,1.785-3.315,1.785-6.375
			c0-2.04,0-3.825-0.255-5.101H993.505L993.505,362.154z M1013.65,364.45c0.255,0.51,0.51,1.529,0.51,3.06
			c0,3.06-1.785,5.1-5.355,5.1c-3.314,0-5.609-2.04-5.609-5.1v-3.06H1013.65L1013.65,364.45z"/>
	</g>
	<g>
		<path display="none" fill="#003648" d="M993.505,505.975v2.55l22.695-1.274v-3.315l-10.455-3.569c-3.06-0.766-5.61-1.53-8.16-2.04
			v-0.256c2.55-0.51,5.101-1.02,8.16-2.04l10.455-3.314v-3.315l-22.695-1.529v2.55l9.945,0.51c3.825,0.255,7.649,0.255,10.71,0.51
			l0,0c-2.805,0.511-5.865,1.275-9.436,2.295l-11.22,3.315v2.04l11.476,3.57c3.314,1.02,6.375,1.784,9.18,2.55l0,0
			c-3.061,0-7.141,0.255-10.455,0.255L993.505,505.975L993.505,505.975z"/>
		<path display="none" fill="#003648" d="M1005.745,524.59v-8.16h8.415v8.67h2.04v-10.965h-22.95v11.475h2.04v-9.18h8.415v8.16
			H1005.745L1005.745,524.59z"/>
		<path display="none" fill="#003648" d="M993.505,532.24h9.69c4.845,0,7.649-0.256,10.71-0.256h0.255
			c-2.805,1.021-5.61,2.551-8.415,4.08l-12.24,6.63v2.551h22.695v-2.295h-8.415c-6.12,0-8.926,0-12.24,0.255h-0.255
			c2.55-1.021,5.354-2.295,8.16-3.825l12.495-6.885v-2.551H993.25L993.505,532.24L993.505,532.24z"/>
		<path display="none" fill="#003648" d="M1015.945,550.854h-13.26c-7.141,0-9.436,2.806-9.436,7.396
			c0,4.845,2.55,7.904,9.436,7.904h13.26v-2.295h-13.26c-5.101,0-7.396-2.295-7.396-5.609c0-3.061,2.295-5.101,7.396-5.101h13.26
			V550.854L1015.945,550.854z"/>
	</g>
</g>
<g id="SPANISH">
	<g>
		<path display="none" d="M993.505,76.045v2.295h7.396c0,0.765,0,1.53,0,2.295c0,3.06,0.765,5.355,2.295,6.885
			c1.275,0.765,3.314,1.275,5.864,1.275c2.296,0,4.335-0.51,5.355-1.53c1.275-1.275,1.785-3.315,1.785-6.12c0-2.55,0-4.08-0.255-5.1
			H993.505L993.505,76.045z M1013.905,78.34c0,0.51,0.255,1.53,0.255,2.805c0,3.06-1.785,5.355-5.355,5.355s-5.865-2.295-5.865-5.61
			c0-1.02,0.256-2.04,0.256-2.55H1013.905L1013.905,78.34z"/>
		<path display="none" d="M1005.745,104.86V96.7h8.415v8.67h2.04V94.405h-22.95v11.475h2.04V96.7h8.415v8.16H1005.745
			L1005.745,104.86z"/>
		<path display="none" d="M993.505,109.96v2.295h7.649v2.805c-0.254,2.805-1.02,4.08-3.569,4.59c-2.04,0.765-3.569,1.02-4.08,1.53
			v2.295c0.511-0.255,2.295-0.765,4.845-1.275c1.785-0.51,3.061-1.275,3.57-3.06h0.255c0.765,2.295,3.315,3.57,6.885,3.57
			c2.296,0,4.335-0.51,5.355-1.275c1.275-1.275,1.785-3.315,1.785-6.375c0-2.04,0-3.825-0.255-5.1H993.505L993.505,109.96z
			 M1013.65,112.255c0.255,0.51,0.51,1.53,0.51,3.06c0,3.06-1.785,5.1-5.355,5.1c-3.314,0-5.609-1.785-5.609-5.1v-3.06H1013.65
			L1013.65,112.255z"/>
		<path display="none" d="M993.505,128.32v2.295h10.2v7.905h2.04v-7.905h8.415v8.67h2.04V128.32H993.505L993.505,128.32z"/>
		<path display="none" d="M1015.945,144.13h-22.44v2.295h22.44V144.13L1015.945,144.13z"/>
		<path display="none" d="M993.25,152.035v11.22h2.04v-8.925h20.655v-2.295H993.25L993.25,152.035z"/>
	</g>
	<g>
		<path display="none" d="M993.505,280.555v2.295h10.2v7.905h2.04v-7.905h8.415v8.415h2.04v-10.71H993.505L993.505,280.555z"/>
		<path display="none" d="M1015.945,296.109h-22.44v2.295h22.44V296.109L1015.945,296.109z"/>
		<path display="none" d="M993.25,304.015v11.22h2.04v-8.925h20.655v-2.295H993.25L993.25,304.015z"/>
		<path display="none" d="M993.505,322.375v2.295h20.655v6.375h2.04V316h-2.04v6.375H993.505L993.505,322.375z"/>
		<path display="none" d="M993.505,335.38v2.295h7.649v2.805c-0.254,2.55-1.02,3.825-3.569,4.59c-2.04,0.511-3.569,1.021-4.08,1.275
			v2.55c0.511-0.51,2.295-1.02,4.845-1.529c1.785-0.256,3.061-1.275,3.57-2.806h0.255c0.765,2.04,3.315,3.57,6.885,3.57
			c2.296,0,4.335-0.51,5.355-1.275c1.275-1.274,1.785-3.314,1.785-6.375c0-2.04,0-3.825-0.255-5.1H993.505L993.505,335.38z
			 M1013.65,337.675c0.255,0.51,0.51,1.53,0.51,2.805c0,3.315-1.785,5.355-5.355,5.355c-3.314,0-5.609-2.04-5.609-5.101v-3.06
			H1013.65L1013.65,337.675z"/>
		<path display="none" d="M1016.2,361.645c0-6.885-4.335-10.455-11.729-10.455c-6.886,0-11.221,3.315-11.221,9.945
			c0,6.375,3.825,10.455,11.73,10.455C1011.61,371.59,1016.2,368.529,1016.2,361.645L1016.2,361.645z M1014.16,361.39
			c0,5.355-4.845,7.905-9.436,7.905c-5.1,0-9.435-2.805-9.435-7.905c0-5.1,4.335-7.905,9.435-7.905
			C1009.57,353.484,1014.16,356.035,1014.16,361.39L1014.16,361.39z"/>
	</g>
	<g>
		<path display="none" d="M993.505,502.66v2.55l22.695-1.275v-3.314l-10.455-3.57c-3.06-0.765-5.61-1.53-8.16-2.04v-0.255
			c2.55-0.51,5.101-1.021,8.16-2.04l10.455-3.315v-3.314l-22.695-1.53v2.55l9.945,0.511c3.825,0.255,7.649,0.51,10.71,0.51l0,0
			c-2.805,0.51-5.865,1.274-9.436,2.295l-11.22,3.314v2.04l11.476,3.57c3.314,1.021,6.375,1.785,9.18,2.55l0,0
			c-3.061,0-7.141,0.255-10.455,0.255L993.505,502.66L993.505,502.66z"/>
		<path display="none" d="M1005.745,521.274v-8.159h8.415v8.67h2.04v-10.966h-22.95v11.476h2.04v-9.18h8.415v8.159H1005.745
			L1005.745,521.274z"/>
		<path display="none" d="M993.505,528.925h9.69c4.845,0,7.649-0.255,10.71-0.255h0.255c-2.805,1.02-5.61,2.55-8.415,4.08
			l-12.24,6.63v2.55h22.695v-2.295h-8.415c-6.12,0-8.926,0-12.24,0.255h-0.255c2.55-1.02,5.354-2.295,8.16-3.825l12.495-6.885v-2.55
			H993.25L993.505,528.925L993.505,528.925z"/>
		<path display="none" d="M1015.945,547.54h-13.26c-7.141,0-9.436,2.805-9.436,7.395c0,4.845,2.55,7.905,9.436,7.905h13.26v-2.295
			h-13.26c-5.101,0-7.396-2.295-7.396-5.61c0-3.06,2.295-5.1,7.396-5.1h13.26V547.54L1015.945,547.54z M1018.495,556.72l-2.04-3.315
			v2.551l2.04,4.335V556.72L1018.495,556.72z"/>
	</g>
</g>
<path fill="none" d="z"/>
<g enable-background="new    ">
	<path fill="#002F0C" stroke="#002F0C" stroke-width="2" stroke-miterlimit="10" d="M419.75,13.176v16.169h18.692V13.176h5.044
		v38.646h-5.044V33.704H419.75v18.118h-4.99V13.176H419.75z"/>
	<path fill="#002F0C" stroke="#002F0C" stroke-width="2" stroke-miterlimit="10" d="M446.727,89.447
		c0,13.302-8.087,20.355-17.946,20.355c-10.206,0-17.373-7.913-17.373-19.61c0-12.271,7.625-20.299,17.946-20.299
		C439.903,69.894,446.727,77.98,446.727,89.447z M416.74,90.078c0,8.257,4.471,15.654,12.327,15.654
		c7.911,0,12.386-7.282,12.386-16.055c0-7.684-4.015-15.711-12.33-15.711C420.866,73.966,416.74,81.591,416.74,90.078z"/>
	<path fill="#002F0C" stroke="#002F0C" stroke-width="2" stroke-miterlimit="10" d="M442.973,149.551
		c-0.287-5.39-0.633-11.869-0.575-16.687h-0.173c-1.317,4.529-2.924,9.346-4.872,14.678l-6.822,18.751h-3.785l-6.251-18.408
		c-1.836-5.446-3.383-10.434-4.471-15.022h-0.117c-0.113,4.817-0.399,11.296-0.744,17.087l-1.031,16.571h-4.759l2.694-38.646h6.366
		l6.591,18.692c1.607,4.759,2.925,9.001,3.899,13.016h0.173c0.974-3.898,2.351-8.141,4.069-13.016l6.882-18.692h6.365l2.409,38.646
		h-4.876L442.973,149.551z"/>
	<path fill="#002F0C" stroke="#002F0C" stroke-width="2" stroke-miterlimit="10" d="M439.358,205.753h-15.021v13.932h16.743v4.188
		h-21.732v-38.646h20.871v4.187h-15.882v12.213h15.021V205.753z"/>
</g>
<g enable-background="new    ">
	<path fill="#281F00" stroke="#281F00" stroke-width="2" stroke-miterlimit="10" d="M428.247,485.067h-11.756v-4.244h28.616v4.244
		h-11.813v34.401h-5.047V485.067z"/>
	<path fill="#281F00" stroke="#281F00" stroke-width="2" stroke-miterlimit="10" d="M448.43,557.096
		c0,13.303-8.087,20.356-17.946,20.356c-10.207,0-17.373-7.914-17.373-19.612c0-12.271,7.624-20.298,17.947-20.298
		C441.607,537.542,448.43,545.629,448.43,557.096z M418.442,557.725c0,8.259,4.473,15.654,12.329,15.654
		c7.912,0,12.384-7.281,12.384-16.055c0-7.683-4.013-15.711-12.328-15.711C422.571,541.613,418.442,549.24,418.442,557.725z"/>
	<path fill="#281F00" stroke="#281F00" stroke-width="2" stroke-miterlimit="10" d="M448.43,614.448
		c0,13.3-8.087,20.355-17.946,20.355c-10.207,0-17.373-7.914-17.373-19.612c0-12.271,7.624-20.297,17.947-20.297
		C441.607,594.895,448.43,602.979,448.43,614.448z M418.442,615.079c0,8.256,4.473,15.652,12.329,15.652
		c7.912,0,12.384-7.281,12.384-16.056c0-7.685-4.013-15.709-12.328-15.709C422.571,598.967,418.442,606.591,418.442,615.079z"/>
	<path fill="#281F00" stroke="#281F00" stroke-width="2" stroke-miterlimit="10" d="M421.627,652.875h4.986v34.461h16.515v4.186
		h-21.501V652.875z"/>
	<path fill="#281F00" stroke="#281F00" stroke-width="2" stroke-miterlimit="10" d="M420.335,742.795
		c2.237,1.374,5.505,2.523,8.944,2.523c5.104,0,8.085-2.698,8.085-6.596c0-3.613-2.065-5.676-7.28-7.683
		c-6.309-2.236-10.209-5.504-10.209-10.953c0-6.021,4.989-10.491,12.501-10.491c3.957,0,6.822,0.917,8.543,1.891l-1.376,4.071
		c-1.262-0.688-3.841-1.836-7.34-1.836c-5.274,0-7.28,3.157-7.28,5.793c0,3.613,2.35,5.39,7.682,7.455
		c6.538,2.522,9.863,5.677,9.863,11.352c0,5.965-4.415,11.124-13.534,11.124c-3.726,0-7.797-1.09-9.861-2.467L420.335,742.795z"/>
</g>
</svg>
