<?xml version="1.0" standalone="no"?>

<svg viewBox="0 0 17 17" style="background-color:#ffffff00" version="1.1" xmlns="http://www.w3.org/2000/svg" xmlns:xlink="http://www.w3.org/1999/xlink" xml:space="preserve" x="0px" y="0px" width="100%" height="100%">
	<g id="Layer">
		<path id="Forma%201" visibility="hidden" d="M 3 4.3 C 4.3 2.7 6.3 1.6 8.5 1.6 C 12.3 1.6 15.4 4.7 15.4 8.5 C 15.4 12.3 12.3 15.4 8.5 15.4 C 4.7 15.4 1.6 12.3 1.6 8.5 C 1.6 6.9 2.1 5.5 3 4.3 " fill="#000000"/>
		<path d="M 13.5 7.8 C 13.9 8.2 13.9 8.8 13.5 9.2 L 9.2 13.5 C 9 13.7 8.8 13.8 8.5 13.8 C 8.2 13.8 8 13.7 7.8 13.5 C 7.3 13.1 7.3 12.4 7.8 12 L 10.2 9.6 L 4.3 9.6 C 3.7 9.6 3.2 9.1 3.2 8.5 C 3.2 7.9 3.7 7.4 4.3 7.4 L 10.2 7.4 L 7.8 5 C 7.3 4.6 7.3 3.9 7.8 3.5 C 8.2 3.1 8.8 3.1 9.2 3.5 L 13.5 7.8 ZM 1.7 3.5 C 0.6 4.9 0 6.6 0 8.5 C 0 13.2 3.8 17 8.5 17 C 13.2 17 17 13.2 17 8.5 C 17 3.8 13.2 0 8.5 0 C 5.7 0 3.2 1.4 1.7 3.5 Z" fill="#ffffff"/>
	</g>
</svg>