<?xml version="1.0" standalone="no"?>

<svg viewBox="0 0 14 12" style="background-color:#ffffff00" version="1.1" xmlns="http://www.w3.org/2000/svg" xmlns:xlink="http://www.w3.org/1999/xlink" xml:space="preserve" x="0px" y="0px" width="100%" height="100%">
	<g>
		<path id="Forma%201" d="M 13.8 11.8 C 13.7 11.9 13.6 12 13.4 12 L 0.6 12 C 0.4 12 0.3 11.9 0.2 11.8 C 0.1 11.7 0 11.6 0 11.4 L 0 10.2 C 0 10 0.1 9.9 0.2 9.8 C 0.3 9.7 0.4 9.6 0.6 9.6 L 13.4 9.6 C 13.6 9.6 13.7 9.7 13.8 9.8 C 13.9 9.9 14 10 14 10.2 L 14 11.4 C 14 11.6 13.9 11.7 13.8 11.8 ZM 13.4 7.2 L 0.6 7.2 C 0.4 7.2 0.3 7.1 0.2 7 C 0.1 6.9 0 6.8 0 6.6 L 0 5.4 C 0 5.2 0.1 5.1 0.2 5 C 0.3 4.9 0.4 4.8 0.6 4.8 L 13.4 4.8 C 13.6 4.8 13.7 4.9 13.8 5 C 13.9 5.1 14 5.2 14 5.4 L 14 6.6 C 14 6.8 13.9 6.9 13.8 7 C 13.7 7.1 13.6 7.2 13.4 7.2 ZM 13.4 2.4 L 0.6 2.4 C 0.4 2.4 0.3 2.3 0.2 2.2 C 0.1 2.1 0 2 0 1.8 L 0 0.6 C 0 0.4 0.1 0.3 0.2 0.2 C 0.3 0.1 0.4 0 0.6 0 L 13.4 0 C 13.6 0 13.7 0.1 13.8 0.2 C 13.9 0.3 14 0.4 14 0.6 L 14 1.8 C 14 2 13.9 2.1 13.8 2.2 C 13.7 2.3 13.6 2.4 13.4 2.4 Z" fill="#7a7a7a"/>
	</g>
</svg>