<?xml version="1.0" encoding="utf-8"?>
<!-- Generator: Adobe Illustrator 16.0.0, SVG Export Plug-In . SVG Version: 6.00 Build 0)  -->
<!DOCTYPE svg PUBLIC "-//W3C//DTD SVG 1.0//EN" "http://www.w3.org/TR/2001/REC-SVG-20010904/DTD/svg10.dtd">
<svg version="1.0" id="Layer_1" xmlns="http://www.w3.org/2000/svg" xmlns:xlink="http://www.w3.org/1999/xlink" x="0px" y="0px"
	 width="100%" height="100%" viewBox="68.5 33.5 466 501" xml:space="preserve">
<path fill="none" d="z"/>
<g id="Layer_x25_201">
	<g id="Layer_x25_25201">
		<path fill="#939393" d="M483.093,517.846H120.6c-16.477,0-30.6-14.123-30.6-32.953V127.108c0-18.831,14.123-32.954,30.6-32.954
			h32.954v18.831c0,23.539,25.893,47.077,49.431,47.077c28.247,0,49.431-23.539,49.431-47.077V94.154h98.861v18.831
			c0,23.539,21.185,47.077,49.431,47.077c25.892,0,49.431-23.539,49.431-47.077V94.154h32.954c16.477,0,30.6,14.123,30.6,32.954
			v357.785C513.692,503.723,499.569,517.846,483.093,517.846z M483.093,209.492H120.6v275.4h362.493V209.492z M202.984,289.523
			h-49.431v-47.077h49.431V289.523z M202.984,371.907h-49.431v-49.431h49.431V371.907z M202.984,451.938h-49.431v-47.077h49.431
			V451.938z M285.369,289.523h-47.077v-47.077h47.077V289.523z M285.369,371.907h-47.077v-49.431h47.077V371.907z M285.369,451.938
			h-47.077v-47.077h47.077V451.938z M365.4,289.523h-44.723v-47.077H365.4V289.523z M365.4,371.907h-44.723v-49.431H365.4V371.907z
			 M365.4,451.938h-44.723v-47.077H365.4V451.938z M450.139,289.523h-49.431v-47.077h49.431V289.523z M450.139,371.907h-49.431
			v-49.431h49.431V371.907z M450.139,451.938h-49.431v-47.077h49.431V451.938z M400.708,145.938
			c-18.831,0-35.308-16.477-35.308-32.954V80.031c0-18.831,16.477-32.954,35.308-32.954c16.477,0,32.953,14.123,32.953,32.954
			v32.954C433.661,129.461,417.185,145.938,400.708,145.938z M202.984,145.938c-18.831,0-30.6-16.477-30.6-32.954V80.031
			c0-18.831,11.769-32.954,30.6-32.954c16.477,0,32.954,14.123,32.954,32.954v32.954
			C235.938,129.461,219.461,145.938,202.984,145.938z"/>
	</g>
</g>
<path fill="none" d="z"/>
</svg>
