<?xml version="1.0" encoding="utf-8"?>
<!-- Generator: Adobe Illustrator 16.0.0, SVG Export Plug-In . SVG Version: 6.00 Build 0)  -->
<!DOCTYPE svg PUBLIC "-//W3C//DTD SVG 1.1//EN" "http://www.w3.org/Graphics/SVG/1.1/DTD/svg11.dtd">
<svg version="1.1" id="Layer_1" xmlns="http://www.w3.org/2000/svg" xmlns:xlink="http://www.w3.org/1999/xlink" x="0px" y="0px"
	 width="100%" height="100%" viewBox="0 0 792 612" xml:space="preserve">
<path fill="none" d="z"/>
<rect opacity="0.6" x="11.5" y="3" width="17" height="15" fill="#ffffff"/>
<g>
	<path id="Forma_x25_201" display="none" fill="#157813" d="M59.883,311.795l67.61,98.518c0,1.932,1.932,1.932,3.863,1.932
		c0,0,1.932,0,1.932-1.932l0,0c1.932-1.932,1.932-3.863,1.932-5.795v-48.293c0-1.932,0-1.932-1.932-3.863L102.38,306l30.907-46.361
		c1.932-1.932,1.932-1.932,1.932-3.864v-48.292c0-1.932,0-3.863-1.932-5.795l0,0c0-1.932-1.932-1.932-1.932-1.932
		c-1.932,0-3.863,0-3.863,1.932l-67.61,98.517C57.951,304.068,57.951,307.932,59.883,311.795z"/>
</g>
<g>
	<path id="Forma_x25_2012" display="none" fill="#157813" d="M732.117,311.795l-67.609,98.518c0,1.932-1.933,1.932-3.864,1.932
		c0,0-1.932,0-1.932-1.932l0,0c-1.932-1.932-1.932-3.863-1.932-5.795v-48.293c0-1.932,0-1.932,1.932-3.863L689.619,306
		l-30.907-46.361c-1.932-1.932-1.932-1.932-1.932-3.864v-48.292c0-1.932,0-3.863,1.932-5.795l0,0c0-1.932,1.932-1.932,1.932-1.932
		c1.932,0,3.864,0,3.864,1.932l67.609,98.517C734.049,304.068,734.049,307.932,732.117,311.795z"/>
</g>
<path fill="#157813" d="M538.946,161.122l11.591,11.59v266.576l-11.591,11.59H253.054l-11.59-11.59V172.712l11.59-11.59H538.946z
	 M542.81,141.805H249.19c-7.727,0-27.044,19.317-27.044,27.044v274.303c0,7.727,19.317,27.044,27.044,27.044H542.81
	c7.728,0,27.044-19.317,27.044-27.044V168.849C569.854,161.122,550.537,141.805,542.81,141.805z"/>
<path fill="#157813" d="M529.288,161.122l11.59,11.59v266.576l-11.59,11.59H243.395l-11.59-11.59V172.712l11.59-11.59H529.288z
	 M533.151,141.805h-293.62c-7.727,0-27.044,19.317-27.044,27.044v274.303c0,7.727,19.317,27.044,27.044,27.044h293.62
	c7.727,0,27.044-19.317,27.044-27.044V168.849C560.195,161.122,540.878,141.805,533.151,141.805z"/>
<path id="Forma_x25_2013" fill="#157813" d="M10.526,265.209c27.044,0,38.634,0,73.405,0c11.59,0,23.181,0,23.181,0
	s0-27.044,0-44.429c0-17.386,11.59-1.932,11.59-1.932s94.654,71.473,106.244,81.132c7.727,7.727-1.932,15.453-1.932,15.453
	L118.702,402.36c0,0-11.59,11.59-11.59-1.932c0-13.522,0-48.293,0-48.293s-9.659,0-21.249,0c-36.703,0-46.361,0-73.405,0
	c0,0-7.727,1.932-7.727-9.658c0-11.591,0-59.883,0-69.541C4.731,265.209,10.526,265.209,10.526,265.209z"/>
<path id="Forma_x25_2014" fill="#157813" d="M782.564,265.209c-27.043,0-56.02,0-92.722,0c-11.59,0-21.249,0-21.249,0
	s0-27.044,0-44.429c0-17.386-13.521-1.932-13.521-1.932s-94.653,71.473-106.244,81.132c-5.795,7.727,1.932,15.453,1.932,15.453
	l104.313,86.927c0,0,13.521,11.59,13.521-1.932c0-13.522,0-48.293,0-48.293s7.728,0,21.249,0c36.702,0,63.746,0,92.722,0
	c0,0,5.796,1.932,5.796-9.658c0-11.591,0-59.883,0-69.541C788.36,265.209,782.564,265.209,782.564,265.209z"/>
<path fill="none" d="z"/>
</svg>
