<?xml version="1.0" standalone="no"?>

<svg viewBox="0 0 44 44" style="background-color:#ffffff00" version="1.1" xmlns="http://www.w3.org/2000/svg" xmlns:xlink="http://www.w3.org/1999/xlink" xml:space="preserve" x="0px" y="0px" width="100%" height="100%">
	<defs>
		<linearGradient id="gradient1" x1="50%" y1="100%" x2="50%" y2="0%">
			<stop stop-color="#4c4c4c" stop-opacity="1" offset="1%"/>
			<stop stop-color="#323232" stop-opacity="1" offset="50%"/>
			<stop stop-color="#191919" stop-opacity="1" offset="99%"/>
		</linearGradient>
		<linearGradient id="gradient2" x1="8.4%" y1="5.8%" x2="60.9%" y2="95.2%">
			<stop stop-color="#1cff57" stop-opacity="1" offset="1%"/>
			<stop stop-color="#16c845" stop-opacity="1" offset="99%"/>
		</linearGradient>
		<linearGradient id="gradient3" x1="8.4%" y1="5.8%" x2="60.9%" y2="95.2%">
			<stop stop-color="#1cff57" stop-opacity="1" offset="1%"/>
			<stop stop-color="#16c845" stop-opacity="1" offset="99%"/>
		</linearGradient>
		<clipPath id="mask1">
			<path d="M 22.5 19 C 23.8 19 25 19.9 25.4 21.1 L 36.4 17.4 C 34.3 11.6 28.9 7.5 22.4 7.5 L 22.4 19 C 22.4 19 22.5 19 22.5 19 Z" fill="url(#gradient3)"/>
		</clipPath>
		<linearGradient id="gradient4" x1="29.1%" y1="95.8%" x2="62.5%" y2="3.6%">
			<stop stop-color="#c81916" stop-opacity="1" offset="1%"/>
			<stop stop-color="#ff201c" stop-opacity="1" offset="50%"/>
			<stop stop-color="#ff5d5b" stop-opacity="1" offset="99%"/>
		</linearGradient>
		<clipPath id="mask2">
			<path d="M 38.5 16.5 L 25.4 20.9 C 25.5 21.3 25.6 21.7 25.6 22.2 C 25.6 23.5 24.8 24.6 23.7 25.1 L 28.7 37.9 C 35 35.4 39.4 29.3 39.4 22.1 C 39.4 20.1 39.1 18.3 38.5 16.5 Z" fill="none"/>
		</clipPath>
		<linearGradient id="gradient5" x1="50%" y1="100%" x2="50%" y2="0%">
			<stop stop-color="#1681c8" stop-opacity="1" offset="1%"/>
			<stop stop-color="#1ca4ff" stop-opacity="1" offset="50%"/>
			<stop stop-color="#5bbdff" stop-opacity="1" offset="99%"/>
		</linearGradient>
	</defs>
	<g>
		<path d="M 26.2 22.2 C 26.2 24.2 24.5 25.9 22.5 25.9 C 20.4 25.9 18.7 24.2 18.7 22.2 C 18.7 20.1 20.4 18.4 22.5 18.4 C 24.5 18.4 26.2 20.1 26.2 22.2 Z" fill="url(#gradient1)"/>
			<path d="M 22.5 19 C 23.8 19 25 19.9 25.4 21.1 L 36.4 17.4 C 34.3 11.6 28.9 7.5 22.4 7.5 L 22.4 19 C 22.4 19 22.5 19 22.5 19 Z" fill="url(#gradient2)"/>
		<g clip-path="url(#mask1)">
			<g opacity="0.6">
				<path opacity="0" d="M 22.1 5.6 C 23.4 5.3 24.2 9 24.2 12.7 C 24.3 16.4 23.7 20.2 22.4 20.1 C 20.5 22.7 20 22.3 20.1 21.3 C 20.1 20.2 20.7 18.6 20.7 18.6 C 20.7 18.6 20 15.1 19.9 11.7 C 19.7 8.4 20 5.1 22.1 5.6 Z" fill="#ffffff"/>
				<path opacity="0" d="M 22.1 5.6 C 22.2 5.6 22.3 5.6 22.4 5.6 C 23.1 5.8 23.6 7.2 23.9 8.9 C 24.1 10 24.2 11.4 24.2 12.7 C 24.2 16 23.8 19.5 22.7 20 C 22.6 20.1 22.5 20.1 22.4 20.1 C 20.5 22.6 20.1 22.2 20.1 21.2 C 20.2 20.2 20.7 18.5 20.7 18.5 C 20.7 18.5 20.1 15 19.9 11.8 C 19.8 8.7 20.1 5.5 21.8 5.6 C 21.9 5.6 22 5.6 22.1 5.6 Z" fill="#fcf7f7"/>
				<path opacity="0.1" d="M 22.1 5.7 C 22.2 5.6 22.3 5.6 22.4 5.6 C 23.1 5.8 23.5 7.2 23.8 8.9 C 24 10 24.1 11.4 24.1 12.7 C 24.2 15.9 23.7 19.5 22.7 20 C 22.6 20 22.5 20.1 22.4 20 C 20.5 22.4 20.1 22.1 20.2 21.1 C 20.2 20.1 20.8 18.5 20.8 18.5 C 20.8 18.5 20.1 15 20 11.8 C 19.8 8.8 20.1 5.6 21.8 5.6 C 21.9 5.6 22 5.6 22.1 5.7 Z" fill="#fbf0f1"/>
				<path opacity="0.1" d="M 22.1 5.7 C 22.2 5.7 22.3 5.7 22.4 5.7 C 23 5.8 23.5 7.3 23.8 9 C 23.9 10 24 11.5 24.1 12.7 C 24.1 15.8 23.7 19.5 22.7 20 C 22.6 20 22.5 20 22.4 20 C 20.6 22.3 20.2 22 20.2 21 C 20.3 20.1 20.8 18.4 20.8 18.4 C 20.8 18.4 20.2 14.9 20 11.8 C 19.9 8.9 20.2 5.6 21.8 5.7 C 21.9 5.7 22 5.7 22.1 5.7 Z" fill="#f9e9ea"/>
				<path opacity="0.1" d="M 22.1 5.7 C 22.2 5.7 22.3 5.7 22.4 5.7 C 23 5.9 23.5 7.4 23.7 9 C 23.9 10 24 11.5 24 12.7 C 24.1 15.7 23.6 19.5 22.7 19.9 C 22.6 20 22.5 20 22.4 20 C 20.6 22.2 20.2 21.8 20.3 20.9 C 20.3 20 20.8 18.4 20.8 18.4 C 20.8 18.4 20.2 14.8 20.1 11.9 C 19.9 9.1 20.2 5.7 21.8 5.7 C 21.9 5.7 22 5.7 22.1 5.7 Z" fill="#f7e3e3"/>
				<path opacity="0.1" d="M 22.1 5.8 C 22.2 5.8 22.3 5.7 22.4 5.8 C 23 5.9 23.4 7.5 23.7 9 C 23.8 10 23.9 11.6 23.9 12.7 C 24 15.6 23.6 19.5 22.7 19.9 C 22.6 19.9 22.5 19.9 22.4 19.9 C 20.7 22.1 20.3 21.7 20.3 20.9 C 20.4 20 20.9 18.3 20.9 18.3 C 20.9 18.3 20.3 14.8 20.1 11.9 C 20 9.2 20.3 5.7 21.8 5.8 C 21.9 5.8 22 5.8 22.1 5.8 Z" fill="#f5dcdd"/>
				<path opacity="0.2" d="M 22.1 5.8 C 22.2 5.8 22.3 5.8 22.4 5.8 C 23 5.9 23.4 7.6 23.6 9.1 C 23.8 10 23.9 11.6 23.9 12.7 C 23.9 15.5 23.5 19.4 22.7 19.9 C 22.6 19.9 22.5 19.9 22.4 19.9 C 20.7 22 20.3 21.6 20.4 20.8 C 20.4 19.9 20.9 18.3 20.9 18.3 C 20.9 18.3 20.3 14.7 20.2 11.9 C 20.1 9.3 20.3 5.7 21.8 5.8 C 21.9 5.8 22 5.8 22.1 5.8 Z" fill="#f4d5d6"/>
				<path opacity="0.2" d="M 22.1 5.8 C 22.2 5.8 22.3 5.8 22.4 5.8 C 22.9 5.9 23.3 7.6 23.6 9.1 C 23.7 10 23.8 11.7 23.8 12.7 C 23.9 15.4 23.5 19.4 22.6 19.8 C 22.6 19.9 22.4 19.9 22.3 19.9 C 20.8 21.9 20.4 21.5 20.4 20.7 C 20.5 19.9 20.9 18.2 20.9 18.2 C 20.9 18.2 20.4 14.6 20.3 12 C 20.1 9.4 20.4 5.8 21.8 5.8 C 21.9 5.8 22 5.8 22.1 5.8 Z" fill="#f2cecf"/>
				<path opacity="0.2" d="M 22.1 5.9 C 22.2 5.9 22.3 5.8 22.4 5.9 C 22.9 6 23.3 7.7 23.5 9.1 C 23.7 10 23.8 11.7 23.8 12.7 C 23.8 15.3 23.4 19.4 22.6 19.8 C 22.6 19.8 22.4 19.8 22.3 19.8 C 20.8 21.8 20.4 21.4 20.5 20.6 C 20.5 19.8 21 18.2 21 18.2 C 21 18.2 20.4 14.6 20.3 12 C 20.2 9.6 20.4 5.8 21.8 5.9 C 21.9 5.9 22 5.9 22.1 5.9 Z" fill="#f0c7c9"/>
				<path opacity="0.3" d="M 22.1 5.9 C 22.1 5.9 22.3 5.9 22.4 5.9 C 22.9 6 23.3 7.8 23.5 9.1 C 23.6 10 23.7 11.8 23.7 12.7 C 23.8 15.2 23.4 19.4 22.6 19.8 C 22.5 19.8 22.4 19.8 22.3 19.8 C 20.9 21.6 20.5 21.3 20.5 20.5 C 20.6 19.8 21 18.1 21 18.1 C 21 18.1 20.5 14.5 20.4 12 C 20.3 9.7 20.5 5.9 21.8 5.9 C 21.8 5.9 22 5.9 22.1 5.9 Z" fill="#eec0c2"/>
				<path opacity="0.3" d="M 22.1 6 C 22.1 5.9 22.3 5.9 22.3 5.9 C 22.9 6 23.2 7.9 23.4 9.2 C 23.6 10 23.6 11.8 23.7 12.7 C 23.7 15.1 23.4 19.4 22.6 19.7 C 22.5 19.8 22.4 19.7 22.3 19.7 C 20.9 21.5 20.6 21.2 20.6 20.5 C 20.6 19.7 21 18.1 21 18.1 C 21 18.1 20.5 14.4 20.4 12 C 20.3 9.8 20.5 5.9 21.8 6 C 21.8 6 22 5.9 22.1 6 Z" fill="#edb9bc"/>
				<path opacity="0.3" d="M 22.1 6 C 22.1 6 22.3 5.9 22.3 6 C 22.8 6.1 23.2 8 23.4 9.2 C 23.5 10 23.6 11.8 23.6 12.7 C 23.6 15 23.3 19.4 22.6 19.7 C 22.5 19.7 22.4 19.7 22.3 19.7 C 21 21.4 20.6 21.1 20.7 20.4 C 20.7 19.7 21.1 18 21.1 18 C 21.1 18 20.6 14.3 20.5 12.1 C 20.4 9.9 20.6 6 21.8 6 C 21.8 6 22 6 22.1 6 Z" fill="#ebb3b5"/>
				<path opacity="0.3" d="M 22.1 6 C 22.1 6 22.3 6 22.3 6 C 22.8 6.1 23.1 8 23.3 9.2 C 23.5 9.9 23.5 11.9 23.5 12.7 C 23.6 15 23.3 19.3 22.6 19.7 C 22.5 19.7 22.4 19.7 22.3 19.7 C 21 21.3 20.7 21 20.7 20.3 C 20.7 19.6 21.1 18 21.1 18 C 21.1 18 20.7 14.3 20.5 12.1 C 20.4 10 20.6 6 21.8 6.1 C 21.8 6.1 22 6 22.1 6 Z" fill="#e9acae"/>
				<path opacity="0.4" d="M 22.1 6.1 C 22.1 6.1 22.3 6 22.3 6 C 22.8 6.1 23.1 8.1 23.3 9.2 C 23.4 9.9 23.5 11.9 23.5 12.8 C 23.5 14.9 23.2 19.3 22.6 19.6 C 22.5 19.7 22.4 19.6 22.3 19.6 C 21.1 21.2 20.7 20.9 20.8 20.2 C 20.8 19.6 21.1 17.9 21.1 17.9 C 21.1 17.9 20.7 14.2 20.6 12.1 C 20.5 10.2 20.7 6.1 21.8 6.1 C 21.8 6.1 22 6.1 22.1 6.1 Z" fill="#e7a5a8"/>
				<path opacity="0.4" d="M 22.1 6.1 C 22.1 6.1 22.3 6 22.3 6.1 C 22.8 6.1 23.1 8.2 23.2 9.3 C 23.3 9.9 23.4 12 23.4 12.8 C 23.5 14.8 23.2 19.3 22.5 19.6 C 22.5 19.6 22.3 19.6 22.3 19.6 C 21.1 21.1 20.8 20.8 20.8 20.2 C 20.8 19.5 21.2 17.9 21.2 17.9 C 21.2 17.9 20.8 14.1 20.7 12.2 C 20.6 10.3 20.7 6.1 21.8 6.1 C 21.8 6.1 22 6.1 22.1 6.1 Z" fill="#e69ea1"/>
				<path opacity="0.4" d="M 22.1 6.1 C 22.1 6.1 22.3 6.1 22.3 6.1 C 22.7 6.2 23 8.3 23.2 9.3 C 23.3 9.9 23.4 12 23.4 12.8 C 23.4 14.7 23.1 19.3 22.5 19.6 C 22.5 19.6 22.3 19.5 22.3 19.5 C 21.2 21 20.8 20.6 20.9 20.1 C 20.9 19.5 21.2 17.8 21.2 17.8 C 21.2 17.8 20.8 14.1 20.7 12.2 C 20.6 10.4 20.8 6.1 21.8 6.2 C 21.8 6.2 22 6.1 22.1 6.1 Z" fill="#e4979a"/>
				<path opacity="0.5" d="M 22.1 6.2 C 22.1 6.2 22.3 6.1 22.3 6.1 C 22.7 6.2 23 8.4 23.1 9.3 C 23.2 9.9 23.3 12.1 23.3 12.8 C 23.3 14.6 23.1 19.3 22.5 19.6 C 22.5 19.6 22.3 19.5 22.2 19.5 C 21.2 20.8 20.9 20.5 20.9 20 C 20.9 19.4 21.2 17.8 21.2 17.8 C 21.2 17.8 20.9 14 20.8 12.2 C 20.7 10.5 20.8 6.2 21.8 6.2 C 21.8 6.2 22 6.2 22.1 6.2 Z" fill="#e29094"/>
				<path opacity="0.5" d="M 22.1 6.2 C 22.1 6.2 22.3 6.1 22.3 6.2 C 22.7 6.2 22.9 8.4 23.1 9.3 C 23.2 9.9 23.2 12.1 23.3 12.8 C 23.3 14.5 23 19.3 22.5 19.5 C 22.5 19.5 22.3 19.5 22.2 19.5 C 21.3 20.7 20.9 20.4 21 19.9 C 21 19.4 21.3 17.7 21.3 17.7 C 21.3 17.7 20.9 13.9 20.8 12.3 C 20.8 10.7 20.9 6.2 21.8 6.3 C 21.8 6.3 22 6.2 22.1 6.2 Z" fill="#e18a8d"/>
				<path opacity="0.5" d="M 22.1 6.3 C 22.1 6.2 22.3 6.2 22.3 6.2 C 22.7 6.3 22.9 8.5 23 9.4 C 23.1 9.9 23.2 12.2 23.2 12.8 C 23.2 14.4 23 19.2 22.5 19.5 C 22.4 19.5 22.3 19.4 22.2 19.4 C 21.3 20.6 21 20.3 21 19.8 C 21 19.4 21.3 17.7 21.3 17.7 C 21.3 17.7 21 13.9 20.9 12.3 C 20.8 10.8 20.9 6.3 21.8 6.3 C 21.8 6.3 22 6.2 22.1 6.3 Z" fill="#df8386"/>
				<path opacity="0.6" d="M 22 6.3 C 22.1 6.3 22.3 6.2 22.3 6.2 C 22.6 6.3 22.9 8.6 23 9.4 C 23.1 9.9 23.1 12.2 23.1 12.8 C 23.2 14.3 22.9 19.2 22.5 19.5 C 22.4 19.5 22.3 19.4 22.2 19.4 C 21.3 20.5 21 20.2 21.1 19.8 C 21.1 19.3 21.3 17.6 21.3 17.6 C 21.3 17.6 21 13.8 20.9 12.3 C 20.9 10.9 21 6.3 21.8 6.3 C 21.8 6.3 22 6.3 22 6.3 Z" fill="#dd7c80"/>
				<path opacity="0.6" d="M 22 6.3 C 22.1 6.3 22.3 6.3 22.3 6.3 C 22.6 6.3 22.8 8.7 22.9 9.4 C 23 9.9 23.1 12.2 23.1 12.8 C 23.1 14.2 22.9 19.2 22.5 19.4 C 22.4 19.4 22.3 19.3 22.2 19.3 C 21.4 20.4 21.1 20.1 21.1 19.7 C 21.1 19.3 21.4 17.6 21.4 17.6 C 21.4 17.6 21.1 13.7 21 12.3 C 20.9 11 21 6.4 21.8 6.4 C 21.8 6.4 22 6.3 22 6.3 Z" fill="#db7579"/>
				<path opacity="0.6" d="M 22 6.4 C 22.1 6.4 22.3 6.3 22.3 6.3 C 22.6 6.4 22.8 8.8 22.9 9.5 C 23 9.9 23 12.3 23 12.8 C 23 14.1 22.9 19.2 22.4 19.4 C 22.4 19.4 22.2 19.3 22.2 19.3 C 21.4 20.3 21.1 20 21.2 19.6 C 21.2 19.2 21.4 17.5 21.4 17.5 C 21.4 17.5 21.1 13.7 21.1 12.4 C 21 11.2 21.1 6.4 21.8 6.4 C 21.8 6.4 22 6.4 22 6.4 Z" fill="#da6e72"/>
				<path opacity="0.6" d="M 22 6.4 C 22.1 6.4 22.3 6.3 22.3 6.3 C 22.6 6.4 22.7 8.8 22.8 9.5 C 22.9 9.9 23 12.3 23 12.8 C 23 14 22.8 19.2 22.4 19.4 C 22.4 19.4 22.2 19.3 22.2 19.3 C 21.5 20.2 21.2 19.9 21.2 19.5 C 21.2 19.2 21.4 17.5 21.4 17.5 C 21.4 17.5 21.2 13.6 21.1 12.4 C 21.1 11.3 21.1 6.5 21.8 6.5 C 21.8 6.5 22 6.4 22 6.4 Z" fill="#d8676c"/>
				<path opacity="0.7" d="M 22 6.4 C 22.1 6.4 22.3 6.4 22.3 6.4 C 22.5 6.4 22.7 8.9 22.8 9.5 C 22.9 9.9 22.9 12.4 22.9 12.8 C 22.9 13.9 22.8 19.2 22.4 19.3 C 22.4 19.3 22.2 19.2 22.2 19.2 C 21.5 20 21.3 19.8 21.3 19.4 C 21.3 19.1 21.5 17.4 21.5 17.4 C 21.5 17.4 21.2 13.5 21.2 12.4 C 21.1 11.4 21.2 6.5 21.8 6.5 C 21.8 6.5 22 6.4 22 6.4 Z" fill="#d66065"/>
				<path opacity="0.7" d="M 22 6.5 C 22.1 6.5 22.3 6.4 22.3 6.4 C 22.5 6.4 22.7 9 22.7 9.5 C 22.8 9.9 22.8 12.4 22.8 12.8 C 22.9 13.8 22.7 19.1 22.4 19.3 C 22.4 19.3 22.2 19.2 22.2 19.2 C 21.6 19.9 21.3 19.7 21.3 19.4 C 21.3 19.1 21.5 17.4 21.5 17.4 C 21.5 17.4 21.3 13.5 21.2 12.5 C 21.2 11.5 21.2 6.5 21.8 6.6 C 21.8 6.6 22 6.5 22 6.5 Z" fill="#d45a5e"/>
				<path opacity="0.7" d="M 22 6.5 C 22.1 6.5 22.3 6.4 22.3 6.4 C 22.5 6.5 22.6 9.1 22.7 9.6 C 22.7 9.9 22.8 12.5 22.8 12.8 C 22.8 13.7 22.7 19.1 22.4 19.3 C 22.4 19.3 22.2 19.1 22.2 19.1 C 21.6 19.8 21.4 19.6 21.4 19.3 C 21.4 19 21.5 17.3 21.5 17.3 C 21.5 17.3 21.3 13.4 21.3 12.5 C 21.2 11.7 21.3 6.6 21.8 6.6 C 21.8 6.6 22 6.5 22 6.5 Z" fill="#d35358"/>
				<path opacity="0.8" d="M 22 6.6 C 22.1 6.6 22.3 6.5 22.3 6.5 C 22.5 6.5 22.6 9.2 22.6 9.6 C 22.7 9.9 22.7 12.5 22.7 12.8 C 22.7 13.6 22.6 19.1 22.4 19.2 C 22.3 19.2 22.2 19.1 22.1 19.1 C 21.7 19.7 21.4 19.4 21.4 19.2 C 21.4 19 21.6 17.3 21.6 17.3 C 21.6 17.3 21.4 13.3 21.3 12.5 C 21.3 11.8 21.4 6.6 21.8 6.6 C 21.8 6.6 22 6.6 22 6.6 Z" fill="#d14c51"/>
				<path opacity="0.8" d="M 22 6.6 C 22 6.6 22.3 6.5 22.3 6.5 C 22.4 6.5 22.5 9.2 22.6 9.6 C 22.6 9.8 22.7 12.5 22.7 12.8 C 22.7 13.5 22.6 19.1 22.4 19.2 C 22.3 19.2 22.2 19.1 22.1 19.1 C 21.7 19.6 21.5 19.3 21.5 19.1 C 21.5 18.9 21.6 17.3 21.6 17.3 C 21.6 17.3 21.4 13.3 21.4 12.6 C 21.4 11.9 21.4 6.7 21.8 6.7 C 21.8 6.7 22 6.6 22 6.6 Z" fill="#cf454b"/>
				<path opacity="0.8" d="M 22 6.6 C 22 6.6 22.3 6.5 22.3 6.5 C 22.4 6.6 22.5 9.3 22.6 9.6 C 22.6 9.8 22.6 12.6 22.6 12.8 C 22.6 13.4 22.5 19.1 22.3 19.2 C 22.3 19.2 22.1 19 22.1 19 C 21.8 19.5 21.5 19.2 21.5 19 C 21.5 18.9 21.6 17.2 21.6 17.2 C 21.6 17.2 21.5 13.2 21.5 12.6 C 21.4 12 21.5 6.7 21.8 6.7 C 21.8 6.7 22 6.6 22 6.6 Z" fill="#cd3e44"/>
				<path opacity="0.9" d="M 22 6.7 C 22 6.7 22.3 6.6 22.3 6.6 C 22.4 6.6 22.5 9.4 22.5 9.7 C 22.5 9.8 22.5 12.6 22.5 12.8 C 22.6 13.3 22.5 19.1 22.3 19.1 C 22.3 19.1 22.1 19 22.1 19 C 21.8 19.3 21.6 19.1 21.6 19 C 21.6 18.8 21.7 17.2 21.7 17.2 C 21.7 17.2 21.5 13.1 21.5 12.6 C 21.5 12.2 21.5 6.8 21.8 6.8 C 21.8 6.8 22 6.7 22 6.7 Z" fill="#cc373d"/>
				<path opacity="0.9" d="M 22 6.7 C 22 6.7 22.3 6.6 22.3 6.6 C 22.4 6.6 22.4 9.5 22.5 9.7 C 22.5 9.8 22.5 12.7 22.5 12.8 C 22.5 13.2 22.4 19 22.3 19.1 C 22.3 19.1 22.1 18.9 22.1 18.9 C 21.9 19.2 21.6 19 21.6 18.9 C 21.6 18.8 21.7 17.1 21.7 17.1 C 21.7 17.1 21.6 13 21.6 12.7 C 21.6 12.3 21.6 6.8 21.8 6.8 C 21.8 6.8 22 6.7 22 6.7 Z" fill="#ca3037"/>
				<path opacity="0.9" d="M 22 6.7 C 22 6.7 22.3 6.6 22.3 6.6 C 22.3 6.6 22.4 9.6 22.4 9.7 C 22.4 9.8 22.4 12.7 22.4 12.8 C 22.4 13.1 22.4 19 22.3 19.1 C 22.3 19.1 22.1 18.9 22.1 18.9 C 21.9 19.1 21.7 18.9 21.7 18.8 C 21.7 18.7 21.7 17.1 21.7 17.1 C 21.7 17.1 21.6 13 21.6 12.7 C 21.6 12.4 21.6 6.8 21.8 6.9 C 21.8 6.9 22 6.7 22 6.7 Z" fill="#c82a30"/>
				<path opacity="0.9" d="M 22 6.8 C 22 6.8 22.3 6.7 22.3 6.7 C 22.3 6.7 22.3 9.6 22.4 9.7 C 22.4 9.8 22.4 12.8 22.4 12.8 C 22.4 13 22.4 19 22.3 19 C 22.3 19 22.1 18.9 22.1 18.9 C 22 19 21.7 18.8 21.7 18.7 C 21.7 18.7 21.8 17 21.8 17 C 21.8 17 21.7 12.9 21.7 12.7 C 21.7 12.5 21.7 6.9 21.8 6.9 C 21.8 6.9 22 6.8 22 6.8 Z" fill="#c62329"/>
				<path opacity="1" d="M 22 6.8 C 22 6.8 22.3 6.7 22.3 6.7 C 22.3 6.7 22.3 9.7 22.3 9.8 C 22.3 9.8 22.3 12.8 22.3 12.9 C 22.3 13 22.3 19 22.3 19 C 22.3 19 22.1 18.8 22.1 18.8 C 22 18.9 21.8 18.7 21.8 18.6 C 21.8 18.6 21.8 17 21.8 17 C 21.8 17 21.8 12.8 21.7 12.7 C 21.7 12.7 21.7 6.9 21.8 6.9 C 21.8 6.9 22 6.8 22 6.8 Z" fill="#c51c23"/>
				<path d="M 22.3 6.7 L 22.3 9.8 L 22.3 12.9 L 22.3 19 L 22.1 18.8 L 21.8 18.6 L 21.8 12.8 L 21.8 7 L 22 6.9 L 22.3 6.7 Z" fill="#c3151c"/>
			</g>
			<g opacity="0.6">
				<path opacity="0" d="M 24.1 21.9 C 23.4 20.8 26.6 18.9 30.1 17.6 C 33.7 16.4 37.4 15.7 37.8 17 C 43.9 19.1 36.8 19.1 36.8 19.1 C 36.8 19.1 33.8 20.9 30.6 22.1 C 27.5 23.3 24.3 24 24.1 21.9 Z" fill="#ffffff"/>
				<path opacity="0" d="M 37.7 17 C 38.1 17.1 38.4 17.3 38.6 17.4 C 42.9 19.1 36.7 19.1 36.7 19.1 C 36.7 19.1 35.2 20 33.3 20.9 C 32.5 21.3 31.5 21.7 30.6 22.1 C 28 23.1 25.3 23.7 24.4 22.7 C 24.3 22.5 24.2 22.3 24.1 21.9 C 23.7 21.2 24.9 20.2 26.6 19.3 C 27.6 18.7 28.9 18.1 30.2 17.7 C 33.6 16.5 37.4 15.8 37.7 17 Z" fill="#fcf7f7"/>
				<path opacity="0.1" d="M 37.7 17 C 38 17.1 38.3 17.3 38.6 17.4 C 42.7 19 36.6 19.1 36.6 19.1 C 36.6 19.1 35.1 20 33.2 20.9 C 32.4 21.2 31.4 21.7 30.6 22 C 28.1 23 25.3 23.7 24.5 22.7 C 24.3 22.5 24.2 22.2 24.2 21.9 C 23.7 21.2 25 20.2 26.6 19.3 C 27.6 18.8 29 18.2 30.2 17.8 C 33.5 16.6 37.4 15.9 37.7 17 Z" fill="#fbf0f1"/>
				<path opacity="0.1" d="M 37.7 17 C 38 17.1 38.2 17.3 38.5 17.4 C 42.5 19 36.5 19.1 36.5 19.1 C 36.5 19.1 35 20 33.2 20.8 C 32.4 21.2 31.4 21.6 30.5 22 C 28.1 22.9 25.3 23.6 24.5 22.7 C 24.4 22.5 24.2 22.2 24.2 21.9 C 23.8 21.2 25.1 20.2 26.7 19.3 C 27.6 18.8 29 18.2 30.2 17.8 C 33.4 16.7 37.4 15.9 37.7 17 Z" fill="#f9e9ea"/>
				<path opacity="0.1" d="M 37.6 17.1 C 38 17.2 38.2 17.3 38.4 17.4 C 42.3 19 36.4 19.1 36.4 19.1 C 36.4 19.1 34.8 20 33.1 20.8 C 32.3 21.2 31.3 21.6 30.5 21.9 C 28.2 22.8 25.4 23.6 24.5 22.6 C 24.4 22.5 24.2 22.2 24.2 21.9 C 23.8 21.2 25.2 20.2 26.7 19.4 C 27.6 18.9 29.1 18.3 30.2 17.9 C 33.3 16.8 37.4 16 37.6 17.1 Z" fill="#f7e3e3"/>
				<path opacity="0.1" d="M 37.6 17.1 C 37.9 17.2 38.1 17.3 38.4 17.4 C 42.1 19 36.3 19.1 36.3 19.1 C 36.3 19.1 34.7 20 33 20.8 C 32.3 21.1 31.2 21.6 30.4 21.9 C 28.2 22.7 25.4 23.5 24.6 22.6 C 24.4 22.4 24.3 22.2 24.2 21.9 C 23.9 21.2 25.2 20.2 26.8 19.4 C 27.6 18.9 29.2 18.3 30.3 17.9 C 33.3 16.8 37.3 16 37.6 17.1 Z" fill="#f5dcdd"/>
				<path opacity="0.2" d="M 37.6 17.1 C 37.9 17.2 38.1 17.4 38.3 17.5 C 41.9 18.9 36.2 19.1 36.2 19.1 C 36.2 19.1 34.6 20 33 20.7 C 32.3 21.1 31.2 21.5 30.4 21.8 C 28.2 22.7 25.4 23.4 24.6 22.6 C 24.5 22.4 24.3 22.1 24.3 21.9 C 23.9 21.2 25.3 20.2 26.8 19.4 C 27.7 19 29.2 18.3 30.3 18 C 33.2 16.9 37.3 16.1 37.6 17.1 Z" fill="#f4d5d6"/>
				<path opacity="0.2" d="M 37.6 17.1 C 37.8 17.2 38 17.4 38.2 17.5 C 41.7 18.9 36.1 19.1 36.1 19.1 C 36.1 19.1 34.4 20 32.9 20.7 C 32.2 21 31.1 21.5 30.4 21.8 C 28.3 22.6 25.4 23.4 24.6 22.5 C 24.5 22.4 24.3 22.1 24.3 21.8 C 23.9 21.2 25.4 20.2 26.8 19.5 C 27.7 19 29.3 18.4 30.3 18 C 33.1 17 37.3 16.1 37.6 17.1 Z" fill="#f2cecf"/>
				<path opacity="0.2" d="M 37.5 17.1 C 37.8 17.2 38 17.4 38.2 17.5 C 41.5 18.9 36 19.1 36 19.1 C 36 19.1 34.3 20 32.8 20.7 C 32.2 21 31 21.4 30.3 21.7 C 28.3 22.5 25.4 23.3 24.7 22.5 C 24.5 22.4 24.4 22.1 24.3 21.8 C 24 21.2 25.5 20.2 26.9 19.5 C 27.7 19.1 29.3 18.4 30.3 18.1 C 33 17.1 37.3 16.2 37.5 17.1 Z" fill="#f0c7c9"/>
				<path opacity="0.3" d="M 37.5 17.1 C 37.8 17.2 37.9 17.4 38.1 17.5 C 41.3 18.8 35.9 19.1 35.9 19.1 C 35.9 19.1 34.2 20 32.7 20.7 C 32.1 20.9 31 21.4 30.3 21.7 C 28.3 22.4 25.4 23.3 24.7 22.5 C 24.6 22.3 24.4 22 24.4 21.8 C 24 21.3 25.6 20.2 26.9 19.5 C 27.7 19.1 29.4 18.5 30.4 18.1 C 32.9 17.2 37.2 16.2 37.5 17.1 Z" fill="#eec0c2"/>
				<path opacity="0.3" d="M 37.5 17.1 C 37.7 17.2 37.8 17.5 38 17.5 C 41.1 18.8 35.8 19.1 35.8 19.1 C 35.8 19.1 34.1 20 32.7 20.6 C 32.1 20.9 30.9 21.4 30.2 21.6 C 28.4 22.4 25.4 23.2 24.7 22.5 C 24.6 22.3 24.4 22 24.4 21.8 C 24.1 21.3 25.7 20.3 27 19.6 C 27.7 19.2 29.5 18.5 30.4 18.2 C 32.9 17.3 37.2 16.3 37.5 17.1 Z" fill="#edb9bc"/>
				<path opacity="0.3" d="M 37.4 17.2 C 37.7 17.2 37.8 17.5 38 17.6 C 40.9 18.8 35.7 19.1 35.7 19.1 C 35.7 19.1 33.9 20 32.6 20.6 C 32 20.9 30.8 21.3 30.2 21.6 C 28.4 22.3 25.4 23.2 24.8 22.4 C 24.7 22.3 24.5 22 24.4 21.8 C 24.1 21.3 25.8 20.3 27 19.6 C 27.7 19.2 29.5 18.5 30.4 18.2 C 32.8 17.4 37.2 16.3 37.4 17.2 Z" fill="#ebb3b5"/>
				<path opacity="0.3" d="M 37.4 17.2 C 37.6 17.3 37.7 17.5 37.9 17.6 C 40.8 18.7 35.6 19.1 35.6 19.1 C 35.6 19.1 33.8 20 32.5 20.6 C 32 20.8 30.8 21.3 30.2 21.5 C 28.5 22.2 25.4 23.1 24.8 22.4 C 24.7 22.3 24.5 22 24.5 21.8 C 24.2 21.3 25.9 20.3 27.1 19.6 C 27.7 19.3 29.6 18.6 30.4 18.3 C 32.7 17.5 37.2 16.4 37.4 17.2 Z" fill="#e9acae"/>
				<path opacity="0.4" d="M 37.4 17.2 C 37.6 17.3 37.7 17.5 37.8 17.6 C 40.6 18.7 35.5 19.1 35.5 19.1 C 35.5 19.1 33.7 20 32.5 20.5 C 31.9 20.8 30.7 21.3 30.1 21.5 C 28.5 22.1 25.4 23 24.8 22.4 C 24.7 22.3 24.5 21.9 24.5 21.7 C 24.2 21.3 26 20.3 27.1 19.7 C 27.8 19.3 29.6 18.6 30.4 18.3 C 32.6 17.6 37.2 16.4 37.4 17.2 Z" fill="#e7a5a8"/>
				<path opacity="0.4" d="M 37.3 17.2 C 37.5 17.3 37.6 17.6 37.8 17.6 C 40.4 18.7 35.4 19.1 35.4 19.1 C 35.4 19.1 33.6 20 32.4 20.5 C 31.9 20.7 30.6 21.2 30.1 21.4 C 28.5 22.1 25.4 23 24.9 22.4 C 24.8 22.2 24.5 21.9 24.5 21.7 C 24.3 21.3 26.1 20.3 27.2 19.7 C 27.8 19.4 29.7 18.7 30.5 18.4 C 32.5 17.7 37.1 16.5 37.3 17.2 Z" fill="#e69ea1"/>
				<path opacity="0.4" d="M 37.3 17.2 C 37.5 17.3 37.6 17.6 37.7 17.6 C 40.2 18.6 35.3 19.1 35.3 19.1 C 35.3 19.1 33.4 20 32.3 20.5 C 31.8 20.7 30.6 21.2 30 21.4 C 28.6 22 25.4 22.9 24.9 22.3 C 24.8 22.2 24.6 21.9 24.5 21.7 C 24.3 21.3 26.2 20.3 27.2 19.8 C 27.8 19.4 29.8 18.7 30.5 18.4 C 32.5 17.7 37.1 16.5 37.3 17.2 Z" fill="#e4979a"/>
				<path opacity="0.5" d="M 37.3 17.2 C 37.5 17.3 37.5 17.6 37.6 17.7 C 40 18.6 35.2 19.1 35.2 19.1 C 35.2 19.1 33.3 20 32.3 20.4 C 31.8 20.7 30.5 21.2 30 21.4 C 28.6 21.9 25.4 22.9 24.9 22.3 C 24.8 22.2 24.6 21.9 24.6 21.7 C 24.3 21.3 26.3 20.3 27.2 19.8 C 27.8 19.5 29.8 18.7 30.5 18.5 C 32.4 17.8 37.1 16.6 37.3 17.2 Z" fill="#e29094"/>
				<path opacity="0.5" d="M 37.3 17.3 C 37.4 17.3 37.4 17.6 37.6 17.7 C 39.8 18.6 35 19.1 35 19.1 C 35 19.1 33.2 20 32.2 20.4 C 31.8 20.6 30.4 21.1 30 21.3 C 28.6 21.8 25.4 22.8 25 22.3 C 24.9 22.2 24.6 21.8 24.6 21.7 C 24.4 21.3 26.4 20.3 27.3 19.8 C 27.8 19.5 29.9 18.8 30.5 18.6 C 32.3 17.9 37.1 16.6 37.3 17.3 Z" fill="#e18a8d"/>
				<path opacity="0.5" d="M 37.2 17.3 C 37.4 17.3 37.4 17.7 37.5 17.7 C 39.6 18.5 34.9 19.1 34.9 19.1 C 34.9 19.1 33 20 32.1 20.4 C 31.7 20.6 30.4 21.1 29.9 21.3 C 28.7 21.7 25.4 22.7 25 22.2 C 24.9 22.2 24.7 21.8 24.6 21.7 C 24.4 21.3 26.5 20.3 27.3 19.9 C 27.8 19.6 29.9 18.8 30.6 18.6 C 32.2 18 37.1 16.7 37.2 17.3 Z" fill="#df8386"/>
				<path opacity="0.6" d="M 37.2 17.3 C 37.3 17.3 37.3 17.7 37.5 17.7 C 39.4 18.5 34.8 19.1 34.8 19.1 C 34.8 19.1 32.9 19.9 32 20.4 C 31.7 20.5 30.3 21.1 29.9 21.2 C 28.7 21.7 25.4 22.7 25 22.2 C 25 22.1 24.7 21.8 24.7 21.7 C 24.5 21.3 26.6 20.3 27.4 19.9 C 27.8 19.7 30 18.9 30.6 18.7 C 32.1 18.1 37 16.7 37.2 17.3 Z" fill="#dd7c80"/>
				<path opacity="0.6" d="M 37.2 17.3 C 37.3 17.4 37.3 17.7 37.4 17.7 C 39.2 18.5 34.7 19.1 34.7 19.1 C 34.7 19.1 32.8 19.9 32 20.3 C 31.6 20.5 30.2 21 29.8 21.2 C 28.8 21.6 25.4 22.6 25.1 22.2 C 25 22.1 24.7 21.8 24.7 21.6 C 24.5 21.3 26.7 20.3 27.4 19.9 C 27.8 19.7 30.1 18.9 30.6 18.7 C 32.1 18.2 37 16.8 37.2 17.3 Z" fill="#db7579"/>
				<path opacity="0.6" d="M 37.1 17.3 C 37.3 17.4 37.2 17.7 37.3 17.8 C 39 18.4 34.6 19.1 34.6 19.1 C 34.6 19.1 32.7 19.9 31.9 20.3 C 31.6 20.5 30.2 21 29.8 21.1 C 28.8 21.5 25.5 22.6 25.1 22.2 C 25 22.1 24.7 21.7 24.7 21.6 C 24.6 21.3 26.8 20.3 27.5 20 C 27.9 19.8 30.1 18.9 30.6 18.8 C 32 18.3 37 16.8 37.1 17.3 Z" fill="#da6e72"/>
				<path opacity="0.6" d="M 37.1 17.3 C 37.2 17.4 37.2 17.8 37.3 17.8 C 38.8 18.4 34.5 19.1 34.5 19.1 C 34.5 19.1 32.5 19.9 31.8 20.3 C 31.5 20.4 30.1 20.9 29.8 21.1 C 28.8 21.4 25.5 22.5 25.1 22.1 C 25.1 22.1 24.8 21.7 24.8 21.6 C 24.6 21.3 26.9 20.3 27.5 20 C 27.9 19.8 30.2 19 30.7 18.8 C 31.9 18.4 37 16.9 37.1 17.3 Z" fill="#d8676c"/>
				<path opacity="0.7" d="M 37.1 17.3 C 37.2 17.4 37.1 17.8 37.2 17.8 C 38.6 18.4 34.4 19.1 34.4 19.1 C 34.4 19.1 32.4 19.9 31.8 20.2 C 31.5 20.4 30 20.9 29.7 21 C 28.9 21.4 25.5 22.5 25.2 22.1 C 25.1 22 24.8 21.7 24.8 21.6 C 24.6 21.3 27 20.4 27.5 20 C 27.9 19.9 30.3 19 30.7 18.9 C 31.8 18.5 37 16.9 37.1 17.3 Z" fill="#d66065"/>
				<path opacity="0.7" d="M 37 17.4 C 37.1 17.4 37 17.8 37.1 17.8 C 38.4 18.4 34.3 19.1 34.3 19.1 C 34.3 19.1 32.3 19.9 31.7 20.2 C 31.4 20.3 30 20.9 29.7 21 C 28.9 21.3 25.5 22.4 25.2 22.1 C 25.1 22 24.8 21.7 24.8 21.6 C 24.7 21.4 27.1 20.4 27.6 20.1 C 27.9 19.9 30.3 19.1 30.7 18.9 C 31.7 18.6 36.9 17 37 17.4 Z" fill="#d45a5e"/>
				<path opacity="0.7" d="M 37 17.4 C 37.1 17.4 37 17.8 37.1 17.9 C 38.2 18.3 34.2 19.1 34.2 19.1 C 34.2 19.1 32.1 19.9 31.6 20.2 C 31.4 20.3 29.9 20.8 29.6 20.9 C 28.9 21.2 25.5 22.3 25.2 22.1 C 25.2 22 24.9 21.6 24.9 21.6 C 24.7 21.4 27.2 20.4 27.6 20.1 C 27.9 20 30.4 19.1 30.7 19 C 31.7 18.7 36.9 17 37 17.4 Z" fill="#d35358"/>
				<path opacity="0.8" d="M 37 17.4 C 37.1 17.4 36.9 17.8 37 17.9 C 38 18.3 34.1 19.1 34.1 19.1 C 34.1 19.1 32 19.9 31.6 20.2 C 31.4 20.3 29.8 20.8 29.6 20.9 C 29 21.1 25.5 22.3 25.3 22 C 25.2 22 24.9 21.6 24.9 21.5 C 24.8 21.4 27.3 20.4 27.7 20.2 C 27.9 20 30.4 19.1 30.7 19 C 31.6 18.7 36.9 17.1 37 17.4 Z" fill="#d14c51"/>
				<path opacity="0.8" d="M 36.9 17.4 C 37 17.4 36.9 17.9 36.9 17.9 C 37.8 18.3 34 19.1 34 19.1 C 34 19.1 31.9 19.9 31.5 20.1 C 31.3 20.2 29.8 20.8 29.6 20.8 C 29 21.1 25.5 22.2 25.3 22 C 25.3 22 24.9 21.6 24.9 21.5 C 24.8 21.4 27.4 20.4 27.7 20.2 C 27.9 20.1 30.5 19.2 30.8 19.1 C 31.5 18.8 36.9 17.2 36.9 17.4 Z" fill="#cf454b"/>
				<path opacity="0.8" d="M 36.9 17.4 C 37 17.4 36.8 17.9 36.9 17.9 C 37.6 18.2 33.9 19.1 33.9 19.1 C 33.9 19.1 31.8 19.9 31.4 20.1 C 31.3 20.2 29.7 20.7 29.5 20.8 C 29.1 21 25.5 22.2 25.3 22 C 25.3 21.9 25 21.6 24.9 21.5 C 24.9 21.4 27.5 20.4 27.8 20.2 C 28 20.1 30.6 19.2 30.8 19.1 C 31.4 18.9 36.9 17.2 36.9 17.4 Z" fill="#cd3e44"/>
				<path opacity="0.9" d="M 36.9 17.4 C 36.9 17.5 36.8 17.9 36.8 17.9 C 37.4 18.2 33.8 19.1 33.8 19.1 C 33.8 19.1 31.6 19.9 31.3 20.1 C 31.2 20.1 29.6 20.7 29.5 20.7 C 29.1 20.9 25.5 22.1 25.4 21.9 C 25.3 21.9 25 21.5 25 21.5 C 24.9 21.4 27.6 20.4 27.8 20.3 C 28 20.2 30.6 19.3 30.8 19.2 C 31.3 19 36.8 17.3 36.9 17.4 Z" fill="#cc373d"/>
				<path opacity="0.9" d="M 36.9 17.5 C 36.9 17.5 36.7 17.9 36.7 18 C 37.3 18.2 33.7 19.1 33.7 19.1 C 33.7 19.1 31.5 19.9 31.3 20 C 31.2 20.1 29.6 20.7 29.4 20.7 C 29.1 20.8 25.5 22 25.4 21.9 C 25.4 21.9 25 21.5 25 21.5 C 25 21.4 27.6 20.4 27.9 20.3 C 28 20.2 30.7 19.3 30.8 19.3 C 31.3 19.1 36.8 17.3 36.9 17.5 Z" fill="#ca3037"/>
				<path opacity="0.9" d="M 36.8 17.5 C 36.9 17.5 36.6 18 36.7 18 C 37.1 18.1 33.6 19.1 33.6 19.1 C 33.6 19.1 31.4 19.9 31.2 20 C 31.1 20 29.5 20.6 29.4 20.7 C 29.2 20.7 25.5 22 25.4 21.9 C 25.4 21.9 25 21.5 25 21.5 C 25 21.4 27.7 20.4 27.9 20.3 C 28 20.3 30.7 19.3 30.9 19.3 C 31.2 19.2 36.8 17.4 36.8 17.5 Z" fill="#c82a30"/>
				<path opacity="0.9" d="M 36.8 17.5 C 36.8 17.5 36.6 18 36.6 18 C 36.9 18.1 33.5 19.1 33.5 19.1 C 33.5 19.1 31.3 19.9 31.1 20 C 31.1 20 29.4 20.6 29.4 20.6 C 29.2 20.7 25.5 21.9 25.5 21.9 C 25.4 21.9 25.1 21.5 25.1 21.5 C 25 21.4 27.8 20.4 27.9 20.4 C 28 20.3 30.8 19.4 30.9 19.4 C 31.1 19.3 36.8 17.4 36.8 17.5 Z" fill="#c62329"/>
				<path opacity="1" d="M 36.8 17.5 C 36.8 17.5 36.5 18 36.5 18 C 36.7 18.1 33.4 19.1 33.4 19.1 C 33.4 19.1 31.1 19.9 31.1 20 C 31 20 29.3 20.6 29.3 20.6 C 29.2 20.6 25.5 21.9 25.5 21.8 C 25.5 21.8 25.1 21.4 25.1 21.4 C 25.1 21.4 27.9 20.4 28 20.4 C 28 20.4 30.9 19.4 30.9 19.4 C 31 19.4 36.8 17.5 36.8 17.5 Z" fill="#c51c23"/>
				<path d="M 25.1 21.4 L 28 20.4 L 30.9 19.5 L 36.7 17.5 L 36.5 18 L 31 19.9 L 25.5 21.8 L 25.1 21.4 Z" fill="#c3151c"/>
			</g>
		</g>
		<path d="M 38.5 16.5 L 25.4 20.9 C 25.5 21.3 25.6 21.7 25.6 22.2 C 25.6 23.5 24.8 24.6 23.7 25.1 L 28.7 37.9 C 35 35.4 39.4 29.3 39.4 22.1 C 39.4 20.1 39.1 18.3 38.5 16.5 Z" fill="url(#gradient4)"/>
		<g opacity="0.7">
			<path d="M 38.5 16.6 C 39.1 18.4 39.4 20.2 39.4 22.1 C 39.4 22.1 39.4 22.1 39.4 22.1 C 39.4 20.1 39.1 18.3 38.5 16.5 L 25.4 20.9 C 25.4 21 25.4 21 25.4 21 L 38.5 16.6 Z" fill="#ffffff"/>
			<path d="M 25.6 22.3 C 25.6 22.2 25.6 22.2 25.6 22.2 C 25.6 23.5 24.8 24.6 23.7 25.1 L 23.7 25.2 C 24.8 24.7 25.6 23.6 25.6 22.3 Z" fill="#ffffff"/>
		</g>
			<path d="M 38.5 16.5 L 25.4 20.9 C 25.5 21.3 25.6 21.7 25.6 22.2 C 25.6 23.5 24.8 24.6 23.7 25.1 L 28.7 37.9 C 35 35.4 39.4 29.3 39.4 22.1 C 39.4 20.1 39.1 18.3 38.5 16.5 Z" fill="none"/>
		<g clip-path="url(#mask2)">
			<g opacity="0.6">
				<path opacity="0" d="M 22.8 23.8 C 24 23 26.2 26.8 27.9 31 C 29.5 35.2 30.6 39.7 29.4 40 C 27.9 47.2 27.1 38.9 27.1 38.9 C 27.1 38.9 25 35.2 23.4 31.5 C 21.8 27.8 20.7 24 22.8 23.8 Z" fill="#ffffff"/>
				<path opacity="0" d="M 22.9 23.8 C 24 23 26.2 27 27.8 31 C 28.4 32.5 29 34.2 29.3 35.5 C 29.9 37.9 30.1 39.8 29.3 40 C 29.3 40.4 29.2 40.7 29.1 41 C 27.8 46.1 27.1 38.8 27.1 38.8 C 27.1 38.8 26 36.9 24.9 34.6 C 24.4 33.7 23.9 32.5 23.4 31.5 C 22.1 28.4 21.1 25.2 22.1 24.2 C 22.3 24 22.5 23.9 22.9 23.8 Z" fill="#faf7f7"/>
				<path opacity="0.1" d="M 22.9 23.9 C 23.9 23.1 26.2 27.1 27.8 31.1 C 28.4 32.5 28.9 34.2 29.3 35.5 C 29.9 37.8 30.1 39.7 29.3 40 C 29.2 40.3 29.1 40.6 29.1 40.9 C 27.8 45.8 27.1 38.6 27.1 38.6 C 27.1 38.6 26 36.8 24.9 34.5 C 24.4 33.6 23.9 32.4 23.5 31.4 C 22.2 28.5 21.2 25.3 22.1 24.2 C 22.3 24 22.6 23.9 22.9 23.9 Z" fill="#f6f0f0"/>
				<path opacity="0.1" d="M 22.9 23.9 C 23.9 23.2 26.2 27.3 27.7 31.1 C 28.3 32.5 28.9 34.2 29.2 35.5 C 29.8 37.7 30 39.7 29.3 39.9 C 29.2 40.3 29.1 40.6 29 40.8 C 27.8 45.6 27 38.5 27 38.5 C 27 38.5 26 36.6 24.9 34.5 C 24.5 33.6 23.9 32.4 23.5 31.4 C 22.3 28.5 21.3 25.3 22.1 24.3 C 22.3 24.1 22.6 23.9 22.9 23.9 Z" fill="#f1e9e9"/>
				<path opacity="0.1" d="M 22.9 23.9 C 23.9 23.2 26.2 27.4 27.7 31.1 C 28.2 32.5 28.8 34.3 29.2 35.5 C 29.7 37.6 30 39.7 29.3 39.9 C 29.2 40.2 29.1 40.5 29 40.8 C 27.8 45.4 27 38.4 27 38.4 C 27 38.4 26 36.5 24.9 34.4 C 24.5 33.5 24 32.3 23.5 31.3 C 22.4 28.6 21.3 25.3 22.2 24.3 C 22.3 24.1 22.6 24 22.9 23.9 Z" fill="#ede2e2"/>
				<path opacity="0.1" d="M 22.9 24 C 23.9 23.3 26.2 27.6 27.6 31.1 C 28.1 32.5 28.8 34.3 29.1 35.5 C 29.6 37.6 29.9 39.7 29.3 39.9 C 29.2 40.2 29 40.4 29 40.7 C 27.8 45.1 27 38.3 27 38.3 C 27 38.3 26 36.3 25 34.3 C 24.5 33.4 24 32.2 23.6 31.3 C 22.5 28.6 21.4 25.3 22.2 24.4 C 22.4 24.2 22.6 24 22.9 24 Z" fill="#e9dadb"/>
				<path opacity="0.2" d="M 23 24 C 23.9 23.3 26.2 27.7 27.6 31.2 C 28.1 32.4 28.7 34.4 29 35.5 C 29.5 37.5 29.9 39.6 29.2 39.8 C 29.2 40.1 29 40.4 29 40.6 C 27.8 44.9 27 38.2 27 38.2 C 27 38.2 26 36.2 25 34.2 C 24.6 33.4 24 32.1 23.6 31.2 C 22.5 28.7 21.4 25.3 22.2 24.4 C 22.4 24.2 22.7 24 23 24 Z" fill="#e5d3d4"/>
				<path opacity="0.2" d="M 23 24 C 23.9 23.4 26.2 27.9 27.5 31.2 C 28 32.4 28.7 34.4 29 35.5 C 29.5 37.4 29.8 39.6 29.2 39.8 C 29.2 40.1 29 40.3 28.9 40.5 C 27.9 44.7 27 38 27 38 C 27 38 26 36 25 34.1 C 24.6 33.3 24.1 32.1 23.7 31.2 C 22.6 28.7 21.5 25.3 22.3 24.4 C 22.4 24.3 22.7 24.1 23 24 Z" fill="#e1cccd"/>
				<path opacity="0.2" d="M 23 24.1 C 23.9 23.5 26.2 28 27.5 31.2 C 27.9 32.4 28.6 34.4 28.9 35.5 C 29.4 37.3 29.8 39.6 29.2 39.7 C 29.1 40 29 40.2 28.9 40.5 C 27.9 44.5 27 37.9 27 37.9 C 27 37.9 25.9 35.9 25 34.1 C 24.7 33.3 24.1 32 23.7 31.1 C 22.7 28.8 21.6 25.3 22.3 24.5 C 22.4 24.3 22.7 24.1 23 24.1 Z" fill="#dcc5c6"/>
				<path opacity="0.3" d="M 23 24.1 C 23.8 23.5 26.2 28.2 27.4 31.3 C 27.9 32.4 28.6 34.5 28.9 35.5 C 29.3 37.3 29.8 39.5 29.2 39.7 C 29.1 40 28.9 40.2 28.9 40.4 C 27.9 44.2 27 37.8 27 37.8 C 27 37.8 25.9 35.7 25.1 34 C 24.7 33.2 24.1 31.9 23.8 31.1 C 22.8 28.8 21.6 25.3 22.3 24.5 C 22.5 24.4 22.8 24.1 23 24.1 Z" fill="#d8bebf"/>
				<path opacity="0.3" d="M 23 24.2 C 23.8 23.6 26.2 28.3 27.4 31.3 C 27.8 32.4 28.5 34.5 28.8 35.5 C 29.2 37.2 29.7 39.5 29.2 39.7 C 29.1 39.9 28.9 40.1 28.8 40.3 C 27.9 44 27 37.7 27 37.7 C 27 37.7 25.9 35.6 25.1 33.9 C 24.7 33.2 24.1 31.8 23.8 31 C 22.9 28.8 21.7 25.3 22.4 24.5 C 22.5 24.4 22.8 24.2 23 24.2 Z" fill="#d4b7b8"/>
				<path opacity="0.3" d="M 23 24.2 C 23.8 23.6 26.2 28.5 27.3 31.3 C 27.7 32.3 28.5 34.5 28.7 35.5 C 29.2 37.1 29.7 39.5 29.2 39.6 C 29.1 39.9 28.9 40 28.8 40.2 C 27.9 43.8 27 37.5 27 37.5 C 27 37.5 25.9 35.4 25.1 33.8 C 24.8 33.1 24.2 31.7 23.9 31 C 23 28.9 21.7 25.3 22.4 24.6 C 22.5 24.4 22.8 24.2 23 24.2 Z" fill="#d0b0b1"/>
				<path opacity="0.3" d="M 23.1 24.2 C 23.8 23.7 26.2 28.6 27.3 31.3 C 27.6 32.3 28.5 34.6 28.7 35.5 C 29.1 37 29.6 39.4 29.1 39.6 C 29.1 39.8 28.8 40 28.8 40.2 C 27.9 43.5 27 37.4 27 37.4 C 27 37.4 25.9 35.3 25.1 33.7 C 24.8 33.1 24.2 31.7 23.9 31 C 23 28.9 21.8 25.3 22.4 24.6 C 22.5 24.5 22.8 24.2 23.1 24.2 Z" fill="#cca9aa"/>
				<path opacity="0.4" d="M 23.1 24.3 C 23.8 23.8 26.2 28.8 27.2 31.4 C 27.6 32.3 28.4 34.6 28.6 35.5 C 29 36.9 29.6 39.4 29.1 39.6 C 29.1 39.8 28.8 39.9 28.8 40.1 C 27.9 43.3 26.9 37.3 26.9 37.3 C 26.9 37.3 25.9 35.1 25.2 33.7 C 24.9 33 24.2 31.6 23.9 30.9 C 23.1 29 21.9 25.3 22.5 24.7 C 22.6 24.5 22.9 24.3 23.1 24.3 Z" fill="#c7a1a3"/>
				<path opacity="0.4" d="M 23.1 24.3 C 23.8 23.8 26.2 28.9 27.1 31.4 C 27.5 32.3 28.4 34.6 28.6 35.5 C 28.9 36.9 29.6 39.4 29.1 39.5 C 29 39.8 28.8 39.8 28.7 40 C 27.9 43.1 26.9 37.2 26.9 37.2 C 26.9 37.2 25.9 35 25.2 33.6 C 24.9 33 24.3 31.5 24 30.9 C 23.2 29 21.9 25.3 22.5 24.7 C 22.6 24.6 22.9 24.3 23.1 24.3 Z" fill="#c39a9c"/>
				<path opacity="0.4" d="M 23.1 24.3 C 23.8 23.9 26.2 29.1 27.1 31.4 C 27.4 32.3 28.3 34.7 28.5 35.5 C 28.9 36.8 29.5 39.4 29.1 39.5 C 29 39.7 28.7 39.8 28.7 39.9 C 27.9 42.8 26.9 37.1 26.9 37.1 C 26.9 37.1 25.9 34.8 25.2 33.5 C 24.9 32.9 24.3 31.4 24 30.8 C 23.3 29.1 22 25.3 22.5 24.7 C 22.6 24.6 22.9 24.4 23.1 24.3 Z" fill="#bf9395"/>
				<path opacity="0.5" d="M 23.1 24.4 C 23.7 23.9 26.2 29.2 27 31.4 C 27.4 32.3 28.3 34.7 28.5 35.5 C 28.8 36.7 29.5 39.3 29.1 39.5 C 29 39.7 28.7 39.7 28.7 39.8 C 28 42.6 26.9 36.9 26.9 36.9 C 26.9 36.9 25.8 34.7 25.2 33.4 C 25 32.9 24.3 31.3 24.1 30.8 C 23.4 29.1 22 25.3 22.6 24.8 C 22.7 24.7 23 24.4 23.1 24.4 Z" fill="#bb8c8e"/>
				<path opacity="0.5" d="M 23.2 24.4 C 23.7 24 26.2 29.4 27 31.5 C 27.3 32.2 28.2 34.7 28.4 35.4 C 28.7 36.6 29.4 39.3 29 39.4 C 29 39.6 28.7 39.6 28.6 39.8 C 28 42.4 26.9 36.8 26.9 36.8 C 26.9 36.8 25.8 34.5 25.2 33.3 C 25 32.8 24.3 31.3 24.1 30.7 C 23.4 29.2 22.1 25.4 22.6 24.8 C 22.7 24.7 23 24.4 23.2 24.4 Z" fill="#b78587"/>
				<path opacity="0.5" d="M 23.2 24.4 C 23.7 24.1 26.2 29.5 26.9 31.5 C 27.2 32.2 28.2 34.8 28.3 35.4 C 28.6 36.6 29.4 39.3 29 39.4 C 29 39.6 28.6 39.6 28.6 39.7 C 28 42.2 26.9 36.7 26.9 36.7 C 26.9 36.7 25.8 34.4 25.3 33.3 C 25 32.8 24.4 31.2 24.2 30.7 C 23.5 29.2 22.2 25.4 22.6 24.9 C 22.7 24.8 23 24.5 23.2 24.4 Z" fill="#b27e7f"/>
				<path opacity="0.6" d="M 23.2 24.5 C 23.7 24.1 26.2 29.7 26.9 31.5 C 27.2 32.2 28.1 34.8 28.3 35.4 C 28.6 36.5 29.3 39.2 29 39.3 C 29 39.5 28.6 39.5 28.6 39.6 C 28 41.9 26.9 36.6 26.9 36.6 C 26.9 36.6 25.8 34.2 25.3 33.2 C 25.1 32.7 24.4 31.1 24.2 30.6 C 23.6 29.3 22.2 25.4 22.6 24.9 C 22.7 24.8 23 24.5 23.2 24.5 Z" fill="#ae7778"/>
				<path opacity="0.6" d="M 23.2 24.5 C 23.7 24.2 26.2 29.8 26.8 31.5 C 27.1 32.2 28.1 34.9 28.2 35.4 C 28.5 36.4 29.3 39.2 29 39.3 C 28.9 39.5 28.6 39.4 28.6 39.5 C 28 41.7 26.9 36.4 26.9 36.4 C 26.9 36.4 25.8 34.1 25.3 33.1 C 25.1 32.7 24.4 31 24.2 30.6 C 23.7 29.3 22.3 25.4 22.7 24.9 C 22.8 24.8 23.1 24.5 23.2 24.5 Z" fill="#aa7071"/>
				<path opacity="0.6" d="M 23.2 24.6 C 23.7 24.2 26.1 30 26.8 31.6 C 27 32.2 28 34.9 28.2 35.4 C 28.4 36.3 29.3 39.2 29 39.3 C 28.9 39.4 28.6 39.4 28.5 39.5 C 28 41.5 26.9 36.3 26.9 36.3 C 26.9 36.3 25.8 33.9 25.3 33 C 25.2 32.6 24.5 31 24.3 30.5 C 23.8 29.3 22.3 25.4 22.7 25 C 22.8 24.9 23.1 24.6 23.2 24.6 Z" fill="#a6696a"/>
				<path opacity="0.6" d="M 23.3 24.6 C 23.7 24.3 26.1 30.1 26.7 31.6 C 26.9 32.1 28 34.9 28.1 35.4 C 28.3 36.3 29.2 39.2 28.9 39.2 C 28.9 39.4 28.5 39.3 28.5 39.4 C 28 41.2 26.8 36.2 26.8 36.2 C 26.8 36.2 25.8 33.8 25.4 32.9 C 25.2 32.6 24.5 30.9 24.3 30.5 C 23.9 29.4 22.4 25.4 22.7 25 C 22.8 24.9 23.1 24.6 23.3 24.6 Z" fill="#a16163"/>
				<path opacity="0.7" d="M 23.3 24.6 C 23.6 24.4 26.1 30.3 26.7 31.6 C 26.9 32.1 27.9 35 28 35.4 C 28.2 36.2 29.2 39.1 28.9 39.2 C 28.9 39.3 28.5 39.2 28.5 39.3 C 28 41 26.8 36.1 26.8 36.1 C 26.8 36.1 25.8 33.6 25.4 32.9 C 25.2 32.5 24.5 30.8 24.4 30.4 C 23.9 29.4 22.5 25.4 22.8 25.1 C 22.8 25 23.2 24.6 23.3 24.6 Z" fill="#9d5a5c"/>
				<path opacity="0.7" d="M 23.3 24.7 C 23.6 24.4 26.1 30.4 26.6 31.6 C 26.8 32.1 27.9 35 28 35.4 C 28.2 36.1 29.1 39.1 28.9 39.2 C 28.9 39.3 28.5 39.2 28.4 39.2 C 28 40.8 26.8 36 26.8 36 C 26.8 36 25.8 33.5 25.4 32.8 C 25.3 32.5 24.6 30.7 24.4 30.4 C 24 29.5 22.5 25.4 22.8 25.1 C 22.9 25 23.2 24.7 23.3 24.7 Z" fill="#995355"/>
				<path opacity="0.7" d="M 23.3 24.7 C 23.6 24.5 26.1 30.6 26.6 31.7 C 26.7 32.1 27.8 35 27.9 35.4 C 28.1 36 29.1 39.1 28.9 39.1 C 28.9 39.2 28.4 39.1 28.4 39.2 C 28 40.5 26.8 35.8 26.8 35.8 C 26.8 35.8 25.7 33.3 25.4 32.7 C 25.3 32.4 24.6 30.6 24.5 30.4 C 24.1 29.5 22.6 25.4 22.8 25.1 C 22.9 25.1 23.2 24.7 23.3 24.7 Z" fill="#954c4e"/>
				<path opacity="0.8" d="M 23.3 24.7 C 23.6 24.5 26.1 30.7 26.5 31.7 C 26.7 32.1 27.8 35.1 27.9 35.4 C 28 36 29.1 39 28.9 39.1 C 28.8 39.2 28.4 39 28.4 39.1 C 28.1 40.3 26.8 35.7 26.8 35.7 C 26.8 35.7 25.7 33.2 25.5 32.6 C 25.3 32.4 24.6 30.6 24.5 30.3 C 24.2 29.6 22.6 25.4 22.9 25.2 C 22.9 25.1 23.2 24.7 23.3 24.7 Z" fill="#914547"/>
				<path opacity="0.8" d="M 23.3 24.8 C 23.6 24.6 26.1 30.9 26.5 31.7 C 26.6 32 27.7 35.1 27.8 35.4 C 27.9 35.9 29 39 28.8 39.1 C 28.8 39.1 28.4 39 28.4 39 C 28.1 40.1 26.8 35.6 26.8 35.6 C 26.8 35.6 25.7 33 25.5 32.5 C 25.4 32.3 24.6 30.5 24.5 30.3 C 24.3 29.6 22.7 25.4 22.9 25.2 C 22.9 25.2 23.3 24.8 23.3 24.8 Z" fill="#8c3e40"/>
				<path opacity="0.8" d="M 23.4 24.8 C 23.6 24.7 26.1 31 26.4 31.8 C 26.5 32 27.7 35.1 27.8 35.4 C 27.9 35.8 29 39 28.8 39 C 28.8 39.1 28.3 38.9 28.3 38.9 C 28.1 39.9 26.8 35.5 26.8 35.5 C 26.8 35.5 25.7 32.9 25.5 32.5 C 25.4 32.3 24.7 30.4 24.6 30.2 C 24.4 29.7 22.8 25.4 22.9 25.2 C 23 25.2 23.3 24.8 23.4 24.8 Z" fill="#883739"/>
				<path opacity="0.9" d="M 23.4 24.8 C 23.6 24.7 26.1 31.2 26.4 31.8 C 26.5 32 27.6 35.2 27.7 35.4 C 27.8 35.7 28.9 38.9 28.8 39 C 28.8 39 28.3 38.8 28.3 38.9 C 28.1 39.6 26.8 35.3 26.8 35.3 C 26.8 35.3 25.7 32.7 25.5 32.4 C 25.5 32.2 24.7 30.3 24.6 30.2 C 24.4 29.7 22.8 25.4 23 25.3 C 23 25.3 23.3 24.8 23.4 24.8 Z" fill="#843032"/>
				<path opacity="0.9" d="M 23.4 24.9 C 23.5 24.8 26.1 31.3 26.3 31.8 C 26.4 32 27.6 35.2 27.6 35.4 C 27.7 35.7 28.9 38.9 28.8 38.9 C 28.8 39 28.3 38.8 28.3 38.8 C 28.1 39.4 26.8 35.2 26.8 35.2 C 26.8 35.2 25.7 32.6 25.5 32.3 C 25.5 32.2 24.7 30.3 24.7 30.1 C 24.5 29.8 22.9 25.4 23 25.3 C 23 25.3 23.4 24.9 23.4 24.9 Z" fill="#80282b"/>
				<path opacity="0.9" d="M 23.4 24.9 C 23.5 24.8 26.1 31.5 26.3 31.8 C 26.3 32 27.6 35.2 27.6 35.4 C 27.6 35.6 28.8 38.9 28.8 38.9 C 28.8 38.9 28.2 38.7 28.2 38.7 C 28.1 39.2 26.7 35.1 26.7 35.1 C 26.7 35.1 25.7 32.4 25.6 32.2 C 25.5 32.1 24.8 30.2 24.7 30.1 C 24.6 29.8 22.9 25.5 23 25.4 C 23 25.3 23.4 24.9 23.4 24.9 Z" fill="#7c2124"/>
				<path opacity="0.9" d="M 23.4 25 C 23.5 24.9 26.1 31.6 26.2 31.9 C 26.2 31.9 27.5 35.3 27.5 35.4 C 27.6 35.5 28.8 38.9 28.8 38.9 C 28.8 38.9 28.2 38.6 28.2 38.6 C 28.1 38.9 26.7 35 26.7 35 C 26.7 35 25.7 32.3 25.6 32.1 C 25.6 32.1 24.8 30.1 24.8 30 C 24.7 29.8 23 25.5 23.1 25.4 C 23.1 25.4 23.4 25 23.4 25 Z" fill="#771a1d"/>
				<path opacity="1" d="M 23.5 25 C 23.5 25 26.1 31.8 26.2 31.9 C 26.2 31.9 27.5 35.3 27.5 35.4 C 27.5 35.4 28.8 38.8 28.7 38.8 C 28.7 38.8 28.2 38.5 28.2 38.6 C 28.1 38.7 26.7 34.9 26.7 34.9 C 26.7 34.9 25.7 32.1 25.6 32.1 C 25.6 32 24.8 30 24.8 30 C 24.8 29.9 23.1 25.5 23.1 25.4 C 23.1 25.4 23.5 25 23.5 25 Z" fill="#731316"/>
				<path d="M 23.5 25 L 26.1 31.9 L 27.4 35.4 L 28.7 38.8 L 28.2 38.5 L 25.6 32 L 23.1 25.5 L 23.5 25 Z" fill="#6f0c0f"/>
			</g>
		</g>
		<path d="M 23.8 25.1 C 23.4 25.2 22.9 25.3 22.5 25.3 C 20.7 25.3 19.3 23.9 19.3 22.2 C 19.3 20.4 20.7 19 22.5 19 C 22.5 19 22.5 19 22.5 19 L 22.5 4.1 C 12.6 4.2 4.6 12.2 4.6 22.2 C 4.6 32.1 12.6 40.2 22.6 40.2 C 24.9 40.2 27.1 39.8 29.2 39 L 23.8 25.1 Z" fill="url(#gradient5)"/>
		<g opacity="0.7">
			<path d="M 19.3 22.2 C 19.3 22.2 19.3 22.2 19.3 22.3 C 19.3 24 20.7 25.4 22.5 25.4 C 22.9 25.4 23.4 25.3 23.8 25.1 L 29.2 39 C 29.2 39 29.2 39 29.2 39 L 23.8 25.1 C 23.4 25.2 22.9 25.3 22.5 25.3 C 20.7 25.3 19.3 23.9 19.3 22.2 Z" fill="#ffffff"/>
			<path d="M 22.5 4.2 L 22.5 4.1 C 12.6 4.2 4.6 12.2 4.6 22.2 C 4.6 22.2 4.6 22.2 4.6 22.2 C 4.6 12.3 12.6 4.2 22.5 4.2 Z" fill="#ffffff"/>
		</g>
	</g>
</svg>