<?xml version="1.0" standalone="no"?>

<svg viewBox="0 0 36 36" style="background-color:#ffffff00" version="1.1" xmlns="http://www.w3.org/2000/svg" xmlns:xlink="http://www.w3.org/1999/xlink" xml:space="preserve" x="0px" y="0px" width="100%" height="100%">
	<g id="Layer%201">
		<path visibility="hidden" d="M 35 18.5 C 35 27.6 27.6 35 18.5 35 C 9.4 35 2 27.6 2 18.5 C 2 9.4 9.4 2 18.5 2 C 27.6 2 35 9.4 35 18.5 Z" stroke="#000000" stroke-width="1" fill="#1f1f1f"/>
		<path d="M 35 18 C 35 27.4 27.4 35 18 35 C 8.6 35 1 27.4 1 18 C 1 8.6 8.6 1 18 1 C 27.4 1 35 8.6 35 18 Z" fill="#1f0303"/>
		<g id="queues">
			<path d="M 20.3 19.2 L 27.3 11.9 L 27.3 13.4 C 27.3 13.8 27.6 14.1 28 14.1 C 28.4 14.1 28.7 13.8 28.7 13.4 L 28.7 10.2 C 28.7 10.2 28.7 10.1 28.7 10.1 C 28.7 10 28.7 10 28.6 10 C 28.6 10 28.6 10 28.6 9.9 C 28.6 9.9 28.6 9.9 28.6 9.9 C 28.6 9.8 28.6 9.8 28.6 9.8 C 28.5 9.7 28.5 9.7 28.4 9.6 C 28.4 9.6 28.3 9.6 28.3 9.6 C 28.3 9.6 28.3 9.6 28.3 9.6 C 28.2 9.5 28.2 9.5 28.2 9.5 C 28.2 9.5 28.2 9.5 28.1 9.5 C 28.1 9.5 28 9.5 28 9.5 L 24.7 9.5 C 24.3 9.5 24 9.8 24 10.2 C 24 10.6 24.3 10.9 24.7 10.9 L 26.4 10.9 L 19.3 18.2 L 20.3 19.2 Z" fill="#ff7f00"/>
			<path d="M 13.8 21.6 L 12.9 22.6 L 14.5 24.3 C 14.6 24.4 14.8 24.5 15 24.5 C 15.1 24.5 15.3 24.4 15.4 24.3 L 18.2 21.4 L 17.2 20.4 L 15 22.8 L 13.8 21.6 Z" fill="#ff7f00"/>
			<path d="M 10.7 20.4 L 11.7 19.4 L 8.3 15.8 C 8 15.6 7.6 15.6 7.3 15.8 C 7.1 16.1 7.1 16.6 7.3 16.8 L 10.7 20.4 Z" fill="#ff7f00"/>
			<path d="M 28.3 25.6 C 28.7 25.6 29 25.3 29 24.9 L 29 21.7 C 29 21.3 28.7 21 28.3 21 L 25 21 C 24.7 21 24.4 21.3 24.4 21.7 C 24.4 22.1 24.7 22.4 25 22.4 L 26.7 22.4 L 24.5 24.8 L 16.6 16.5 C 16.4 16.4 16.3 16.3 16.1 16.3 C 15.9 16.3 15.7 16.4 15.6 16.5 L 7.2 25.3 C 6.9 25.6 6.9 26 7.2 26.3 C 7.3 26.4 7.5 26.5 7.7 26.5 C 7.9 26.5 8 26.4 8.2 26.3 L 16.1 18 L 24 26.3 C 24.1 26.4 24.3 26.5 24.5 26.5 C 24.6 26.5 24.8 26.4 24.9 26.3 L 27.6 23.4 L 27.6 24.9 C 27.6 25.3 27.9 25.6 28.3 25.6 Z" fill="#ffff00"/>
		</g>
		<g id="dashboard" visibility="hidden">
			<path d="M 22.5 24.6 L 24.8 28.6 C 27.9 26.6 29.9 23.2 30 19.2 L 25.4 19.2 C 25.3 21.4 24.2 23.4 22.5 24.6 ZM 29.4 19.8 C 29.2 23 27.5 25.9 25 27.8 L 23.3 24.8 C 24.8 23.5 25.7 21.7 25.9 19.8 L 29.4 19.8 Z" fill="#ffff73"/>
			<path d="M 18.5 30.5 C 20.5 30.5 22.3 30 23.9 29.1 L 21.7 25.1 C 20.7 25.6 19.6 25.9 18.5 25.9 C 14.7 25.9 11.6 22.8 11.6 19 C 11.6 15.3 14.5 12.3 18.2 12.1 L 18.2 7.5 C 12 7.7 7 12.8 7 19 C 7 25.3 12.1 30.5 18.5 30.5 Z" fill="#ff7f00"/>
			<path d="M 24.5 9.2 C 24.3 9 24.1 8.9 23.9 8.8 L 20.4 12.4 C 20.6 12.4 20.8 12.5 21 12.6 L 24.5 9.2 Z" fill="#efece8"/>
			<path d="M 25.3 9.7 C 25.1 9.6 25 9.5 24.8 9.4 L 21.4 12.7 C 21.6 12.8 21.8 12.9 22 13 L 25.3 9.7 Z" fill="#efece8"/>
			<path d="M 27.5 11.8 C 27.3 11.6 27.2 11.5 27.1 11.3 L 23.8 14.6 C 23.9 14.7 24.1 14.9 24.2 15.1 L 27.5 11.8 Z" fill="#efece8"/>
			<path d="M 26.1 10.3 C 25.9 10.2 25.8 10.1 25.6 10 L 22.3 13.2 C 22.5 13.4 22.7 13.5 22.8 13.6 L 26.1 10.3 Z" fill="#efece8"/>
			<path d="M 19.1 11.7 L 22.6 8.2 C 22.4 8.2 22.2 8.1 21.9 8 L 19.1 10.8 L 19.1 11.7 Z" fill="#efece8"/>
			<path d="M 19.1 10.3 L 21.5 7.9 C 21.3 7.8 21.1 7.8 20.8 7.7 L 19.1 9.4 L 19.1 10.3 Z" fill="#efece8"/>
			<path d="M 23.6 8.7 C 23.4 8.6 23.2 8.5 23 8.4 L 19.2 12.1 C 19.5 12.2 19.7 12.2 20 12.2 L 23.6 8.7 Z" fill="#efece8"/>
			<path d="M 26.8 11 C 26.7 10.9 26.5 10.7 26.4 10.6 L 23.1 13.9 C 23.3 14 23.4 14.1 23.5 14.3 L 26.8 11 Z" fill="#efece8"/>
			<path d="M 28 12.6 C 27.9 12.4 27.8 12.2 27.7 12.1 L 24.4 15.4 C 24.5 15.6 24.6 15.8 24.7 15.9 L 28 12.6 Z" fill="#efece8"/>
			<path d="M 28 18.2 L 29.7 16.5 C 29.7 16.3 29.6 16.1 29.6 15.8 L 27.2 18.2 L 28 18.2 Z" fill="#efece8"/>
			<path d="M 30 18.2 C 29.9 17.8 29.9 17.4 29.8 17 L 28.6 18.2 L 30 18.2 Z" fill="#efece8"/>
			<path d="M 26.6 18.2 L 29.4 15.4 C 29.4 15.2 29.3 15 29.2 14.8 L 25.8 18.2 L 26.6 18.2 Z" fill="#efece8"/>
			<path d="M 25.1 16.9 L 28.6 13.5 C 28.5 13.3 28.4 13.1 28.3 12.9 L 24.9 16.3 C 25 16.5 25 16.7 25.1 16.9 Z" fill="#efece8"/>
			<path d="M 25.3 18.1 L 29 14.4 C 29 14.2 28.9 14 28.8 13.8 L 25.2 17.4 C 25.3 17.6 25.3 17.9 25.3 18.1 Z" fill="#efece8"/>
		</g>
		<g id="compensation" visibility="hidden">
			<g>
				<path d="M 20.3 14.2 C 18.8 14.2 17.5 15.4 17.5 17 C 17.5 18.6 18.8 19.8 20.3 19.8 C 21.9 19.8 23.1 18.6 23.1 17 C 23.1 15.4 21.9 14.2 20.3 14.2 ZM 21.3 18.2 C 21.1 18.3 20.9 18.4 20.5 18.5 L 20.5 18.7 L 20.1 18.7 L 20.1 18.5 C 19.8 18.4 19.6 18.4 19.4 18.2 C 19.2 18.1 19.1 17.9 19.1 17.5 L 19.1 17.4 L 20.1 17.4 L 20.1 17.6 C 20.1 17.8 20.1 17.9 20.1 17.9 C 20.1 18 20.2 18 20.3 18 C 20.3 18 20.4 18 20.4 18 C 20.5 17.9 20.5 17.9 20.5 17.8 C 20.5 17.7 20.5 17.5 20.4 17.5 C 20.4 17.4 20.3 17.3 20.1 17.2 C 19.8 17.1 19.6 17 19.5 16.9 C 19.4 16.9 19.3 16.8 19.2 16.6 C 19.1 16.5 19.1 16.4 19.1 16.2 C 19.1 16 19.2 15.8 19.3 15.7 C 19.5 15.6 19.7 15.5 20.1 15.5 L 20.1 15.3 L 20.5 15.3 L 20.5 15.5 C 20.9 15.5 21.1 15.6 21.2 15.7 C 21.4 15.8 21.5 16 21.5 16.2 C 21.5 16.3 21.5 16.3 21.5 16.4 L 20.5 16.4 L 20.5 16.2 C 20.5 16.1 20.4 16 20.4 16 C 20.4 16 20.4 15.9 20.3 15.9 C 20.2 15.9 20.2 15.9 20.1 16 C 20.1 16 20.1 16.1 20.1 16.1 C 20.1 16.3 20.1 16.3 20.2 16.4 C 20.2 16.4 20.4 16.5 20.7 16.6 C 21 16.8 21.2 16.8 21.2 16.9 C 21.3 17 21.4 17.1 21.5 17.2 C 21.5 17.3 21.6 17.4 21.6 17.6 C 21.6 17.8 21.5 18 21.3 18.2 Z" fill="#ebeb0b"/>
				<path d="M 25.8 18.6 C 24.7 18.6 23.9 19.5 23.9 20.6 C 23.9 21.7 24.7 22.5 25.8 22.5 C 26.9 22.5 27.7 21.7 27.7 20.6 C 27.7 19.5 26.9 18.6 25.8 18.6 ZM 26.5 21.4 C 26.4 21.5 26.2 21.6 26 21.6 L 26 21.8 L 25.6 21.8 L 25.6 21.6 C 25.5 21.6 25.3 21.5 25.2 21.4 C 25 21.3 25 21.2 25 21 L 25 20.9 L 25.6 20.9 L 25.6 21 C 25.6 21.1 25.6 21.2 25.7 21.2 C 25.7 21.3 25.7 21.3 25.8 21.3 C 25.8 21.3 25.8 21.3 25.9 21.3 C 25.9 21.2 25.9 21.2 25.9 21.1 C 25.9 21 25.9 21 25.9 20.9 C 25.8 20.9 25.8 20.8 25.6 20.7 C 25.4 20.7 25.3 20.6 25.2 20.5 C 25.1 20.5 25.1 20.4 25 20.3 C 25 20.3 24.9 20.2 24.9 20.1 C 24.9 19.9 25 19.8 25.1 19.7 C 25.2 19.6 25.4 19.6 25.6 19.6 L 25.6 19.4 L 26 19.4 L 26 19.6 C 26.2 19.6 26.3 19.6 26.4 19.7 C 26.5 19.8 26.6 19.9 26.6 20.1 C 26.6 20.1 26.6 20.1 26.6 20.2 L 25.9 20.2 L 25.9 20.1 C 25.9 20 25.9 19.9 25.9 19.9 C 25.9 19.9 25.8 19.9 25.8 19.9 C 25.7 19.9 25.7 19.9 25.7 19.9 C 25.7 19.9 25.6 19.9 25.6 20 C 25.6 20.1 25.7 20.1 25.7 20.2 C 25.8 20.2 25.9 20.3 26.1 20.3 C 26.3 20.4 26.4 20.5 26.4 20.5 C 26.5 20.6 26.6 20.6 26.6 20.7 C 26.6 20.8 26.7 20.9 26.7 21 C 26.7 21.2 26.6 21.3 26.5 21.4 Z" fill="#ebeb0b"/>
				<path d="M 25.8 11.8 C 24.9 11.8 24.2 12.5 24.2 13.4 C 24.2 14.3 24.9 15.1 25.8 15.1 C 26.7 15.1 27.5 14.3 27.5 13.4 C 27.5 12.5 26.7 11.8 25.8 11.8 ZM 26.4 14.1 C 26.3 14.2 26.1 14.3 25.9 14.3 L 25.9 14.4 L 25.7 14.4 L 25.7 14.3 C 25.5 14.3 25.4 14.2 25.3 14.1 C 25.1 14.1 25.1 13.9 25.1 13.7 L 25.1 13.7 L 25.7 13.7 L 25.7 13.8 C 25.7 13.9 25.7 13.9 25.7 14 C 25.7 14 25.7 14 25.8 14 C 25.8 14 25.8 14 25.9 14 C 25.9 14 25.9 13.9 25.9 13.9 C 25.9 13.8 25.9 13.7 25.9 13.7 C 25.8 13.7 25.8 13.6 25.7 13.6 C 25.5 13.5 25.4 13.4 25.3 13.4 C 25.2 13.3 25.2 13.3 25.1 13.2 C 25.1 13.1 25.1 13.1 25.1 13 C 25.1 12.8 25.1 12.7 25.2 12.7 C 25.3 12.6 25.5 12.6 25.7 12.5 L 25.7 12.4 L 25.9 12.4 L 25.9 12.5 C 26.1 12.6 26.3 12.6 26.3 12.7 C 26.4 12.7 26.5 12.8 26.5 13 C 26.5 13 26.5 13 26.5 13.1 L 25.9 13.1 L 25.9 13 C 25.9 12.9 25.9 12.9 25.9 12.8 C 25.9 12.8 25.8 12.8 25.8 12.8 C 25.7 12.8 25.7 12.8 25.7 12.8 C 25.7 12.8 25.7 12.9 25.7 12.9 C 25.7 13 25.7 13 25.7 13.1 C 25.8 13.1 25.9 13.1 26 13.2 C 26.2 13.3 26.3 13.3 26.3 13.4 C 26.4 13.4 26.4 13.5 26.5 13.5 C 26.5 13.6 26.5 13.7 26.5 13.8 C 26.5 13.9 26.5 14 26.4 14.1 Z" fill="#ebeb0b"/>
				<path d="M 22.1 8 C 21.3 8 20.6 8.7 20.6 9.5 C 20.6 10.3 21.3 11 22.1 11 C 22.9 11 23.6 10.3 23.6 9.5 C 23.6 8.7 22.9 8 22.1 8 ZM 22.6 10.1 C 22.5 10.2 22.4 10.2 22.2 10.2 L 22.2 10.4 L 22 10.4 L 22 10.2 C 21.8 10.2 21.7 10.2 21.6 10.1 C 21.5 10.1 21.5 9.9 21.5 9.8 L 21.5 9.7 L 22 9.7 L 22 9.8 C 22 9.9 22 10 22 10 C 22 10 22 10 22.1 10 C 22.1 10 22.1 10 22.2 10 C 22.2 10 22.2 9.9 22.2 9.9 C 22.2 9.8 22.2 9.8 22.2 9.7 C 22.1 9.7 22.1 9.7 22 9.6 C 21.8 9.5 21.7 9.5 21.7 9.4 C 21.6 9.4 21.6 9.4 21.5 9.3 C 21.5 9.2 21.4 9.2 21.4 9.1 C 21.4 9 21.5 8.9 21.6 8.8 C 21.7 8.8 21.8 8.7 22 8.7 L 22 8.6 L 22.2 8.6 L 22.2 8.7 C 22.4 8.7 22.5 8.8 22.6 8.8 C 22.7 8.9 22.7 9 22.7 9.1 C 22.7 9.1 22.7 9.1 22.7 9.2 L 22.2 9.2 L 22.2 9.1 C 22.2 9 22.2 9 22.2 9 C 22.1 8.9 22.1 8.9 22.1 8.9 C 22 8.9 22 8.9 22 9 C 22 9 22 9 22 9 C 22 9.1 22 9.1 22 9.2 C 22.1 9.2 22.2 9.2 22.3 9.3 C 22.4 9.4 22.5 9.4 22.6 9.4 C 22.6 9.5 22.7 9.5 22.7 9.6 C 22.7 9.6 22.8 9.7 22.8 9.8 C 22.8 9.9 22.7 10 22.6 10.1 Z" fill="#ebeb0b"/>
			</g>
			<g>
				<path d="M 15.1 22.4 C 15.1 22.4 15.2 22.3 15.3 22.3 L 15.1 22.3 L 15.1 22.4 Z" fill="#efece8"/>
				<path d="M 29.2 24 C 29.1 23.8 28.8 23.8 28.6 23.8 L 23.6 24.3 C 23.3 24.7 22.8 24.9 22.3 24.9 L 18.8 24.9 L 18.8 24.4 L 20.4 24.4 L 22.3 24.4 C 22.9 24.4 23.4 24 23.4 23.4 C 23.4 22.8 22.9 22.3 22.3 22.3 L 20.4 22.3 L 17.2 22.3 L 15.3 22.3 C 15.2 22.3 15.1 22.4 15.1 22.4 L 15.1 27.9 C 15.1 27.9 15.2 27.9 15.2 27.9 L 18.3 28.2 C 19.3 28.2 20.4 28.1 21.5 27.8 L 28.8 25.8 C 29.2 25.7 29.5 25.2 29.5 24.8 L 29.5 24.7 C 29.5 24.4 29.4 24.2 29.2 24 Z" fill="#ff7f00"/>
				<path d="M 14.2 23.4 L 14.2 21.7 L 7.5 21.7 L 7.5 30 L 14.2 30 L 14.2 26.9 L 14.2 23.4 ZM 12.6 24 C 12.1 24 11.7 23.7 11.7 23.2 C 11.7 22.7 12.1 22.3 12.6 22.3 C 13 22.3 13.4 22.7 13.4 23.2 C 13.4 23.7 13 24 12.6 24 Z" fill="#ff7f00"/>
			</g>
		</g>
		<g id="inv.return" visibility="hidden">
			<g>
				<path d="M 22.4 12.8 C 22.4 11.8 22.3 11.6 22.2 11.4 C 22.2 11.4 22.2 11 21.4 10.7 C 20.9 10.5 20.2 10.5 19.6 10.2 C 19.6 10.1 19.6 10.1 19.6 10 C 19.5 9.9 19.5 9.8 19.5 9.6 C 19.6 9.5 19.7 9.3 19.8 9.1 C 19.9 8.9 19.9 8.8 20 8.6 C 20 8.6 20 8.6 20 8.6 L 20.1 8.6 C 20.1 8.6 20.2 8.6 20.2 8.5 L 20.3 7.9 C 20.3 7.9 20.2 7.8 20.2 7.8 L 20.2 7.8 C 20.2 7.1 20.1 6.8 20.1 6.8 C 20.1 6.8 19.8 6.2 19 6 C 18.8 6 18.7 6 18.6 6 L 18.6 6 C 18.6 6 18.6 6 18.6 6 C 18.6 6 18.6 6 18.6 6 L 18.6 6 C 18.5 6 18.4 6 18.2 6 C 17.4 6.2 17.1 6.8 17.1 6.8 C 17.1 6.8 17 7.1 17 7.8 L 17 7.8 C 17 7.8 16.9 7.9 16.9 7.9 L 17 8.5 C 17 8.6 17 8.6 17.1 8.6 L 17.2 8.6 C 17.2 8.6 17.2 8.6 17.2 8.6 C 17.3 8.8 17.3 8.9 17.4 9.1 C 17.5 9.3 17.6 9.5 17.7 9.6 C 17.7 9.8 17.6 9.9 17.6 10 C 17.6 10.1 17.6 10.1 17.6 10.2 C 17 10.5 16.3 10.5 15.8 10.7 C 15 11 15 11.4 15 11.4 C 14.9 11.6 14.8 11.8 14.8 12.8 C 14.8 12.9 14.8 13.1 15.2 13.3 C 16.1 13.6 17.3 13.7 18.5 13.8 C 18.5 13.8 18.6 13.8 18.6 13.8 C 18.6 13.8 18.6 13.8 18.7 13.8 C 19.8 13.7 21.1 13.6 22 13.3 C 22.4 13.1 22.4 12.9 22.4 12.8 Z" fill="#efece8"/>
				<path d="M 31 25.7 C 31 24.7 30.9 24.4 30.8 24.3 C 30.8 24.2 30.8 23.8 30 23.5 C 29.5 23.3 28.7 23.4 28.2 23 C 28.2 23 28.1 22.9 28.1 22.8 C 28.1 22.7 28.1 22.6 28.1 22.5 C 28.2 22.3 28.3 22.2 28.4 21.9 C 28.5 21.8 28.5 21.6 28.6 21.5 C 28.6 21.5 28.6 21.5 28.6 21.5 L 28.7 21.5 C 28.7 21.5 28.8 21.5 28.8 21.4 L 28.8 20.7 C 28.8 20.7 28.8 20.6 28.7 20.6 L 28.7 20.6 C 28.8 20 28.6 19.7 28.6 19.7 C 28.6 19.7 28.4 19 27.5 18.9 C 27.4 18.9 27.3 18.9 27.2 18.9 L 27.2 18.9 C 27.2 18.9 27.2 18.9 27.2 18.9 C 27.2 18.9 27.2 18.9 27.2 18.9 L 27.2 18.9 C 27.1 18.9 26.9 18.9 26.8 18.9 C 26 19 25.7 19.7 25.7 19.7 C 25.7 19.7 25.6 20 25.6 20.6 L 25.6 20.6 C 25.6 20.6 25.5 20.7 25.5 20.7 L 25.6 21.4 C 25.6 21.5 25.6 21.5 25.7 21.5 L 25.7 21.5 C 25.8 21.5 25.8 21.5 25.8 21.5 C 25.8 21.6 25.9 21.8 26 21.9 C 26.1 22.2 26.2 22.3 26.2 22.5 C 26.2 22.6 26.2 22.7 26.2 22.8 C 26.2 22.9 26.2 23 26.2 23 C 25.6 23.4 24.9 23.3 24.3 23.5 C 23.6 23.8 23.6 24.2 23.5 24.3 C 23.5 24.4 23.4 24.7 23.3 25.7 C 23.3 25.8 23.3 26 23.8 26.2 C 24.7 26.5 25.9 26.6 27.1 26.7 C 27.1 26.7 27.1 26.7 27.2 26.7 C 27.2 26.7 27.2 26.7 27.2 26.7 C 28.4 26.6 29.6 26.5 30.6 26.2 C 31 26 31 25.8 31 25.7 Z" fill="#d6d30b"/>
				<path d="M 13.7 25.7 C 13.6 24.7 13.5 24.4 13.5 24.3 C 13.4 24.2 13.4 23.8 12.7 23.5 C 12.1 23.3 11.4 23.4 10.8 23 C 10.8 23 10.8 22.9 10.8 22.8 C 10.8 22.7 10.8 22.6 10.8 22.5 C 10.8 22.3 10.9 22.2 11 21.9 C 11.1 21.8 11.2 21.6 11.2 21.5 C 11.2 21.5 11.2 21.5 11.3 21.5 L 11.3 21.5 C 11.4 21.5 11.4 21.5 11.4 21.4 L 11.5 20.7 C 11.5 20.7 11.4 20.6 11.4 20.6 L 11.4 20.6 C 11.4 20 11.3 19.7 11.3 19.7 C 11.3 19.7 11 19 10.2 18.9 C 10.1 18.9 9.9 18.9 9.8 18.9 L 9.8 18.9 C 9.8 18.9 9.8 18.9 9.8 18.9 C 9.8 18.9 9.8 18.9 9.8 18.9 L 9.8 18.9 C 9.7 18.9 9.6 18.9 9.5 18.9 C 8.6 19 8.4 19.7 8.4 19.7 C 8.4 19.7 8.2 20 8.3 20.6 L 8.3 20.6 C 8.2 20.6 8.2 20.7 8.2 20.7 L 8.2 21.4 C 8.2 21.5 8.3 21.5 8.3 21.5 L 8.4 21.5 C 8.4 21.5 8.4 21.5 8.4 21.5 C 8.5 21.6 8.5 21.8 8.6 21.9 C 8.7 22.2 8.8 22.3 8.9 22.5 C 8.9 22.6 8.9 22.7 8.9 22.8 C 8.9 22.9 8.8 23 8.8 23 C 8.3 23.4 7.5 23.3 7 23.5 C 6.2 23.8 6.2 24.2 6.2 24.3 C 6.1 24.4 6 24.7 6 25.7 C 6 25.8 6 26 6.4 26.2 C 7.4 26.5 8.6 26.6 9.8 26.7 C 9.8 26.7 9.8 26.7 9.8 26.7 C 9.9 26.7 9.9 26.7 9.9 26.7 C 11.1 26.6 12.3 26.5 13.2 26.2 C 13.7 26 13.7 25.8 13.7 25.7 Z" fill="#ff7f00"/>
				<g>
					<g>
						<path d="M 19.2 27.4 C 19.2 27.7 18.9 28 18.5 28 C 18.2 28 17.9 27.7 17.9 27.4 C 17.9 27.1 18.2 26.8 18.5 26.8 C 18.9 26.8 19.2 27.1 19.2 27.4 Z" fill="#efece8"/>
					</g>
					<g>
						<path d="M 21.8 26.8 C 21.9 27.1 21.8 27.5 21.4 27.6 C 21.1 27.7 20.7 27.5 20.6 27.2 C 20.5 26.9 20.7 26.6 21 26.5 C 21.4 26.4 21.7 26.5 21.8 26.8 Z" fill="#efece8"/>
					</g>
					<g>
						<path d="M 13.9 12.6 C 14.1 12.9 14 13.3 13.8 13.5 C 13.5 13.7 13.1 13.6 12.9 13.3 C 12.6 13.1 12.7 12.7 13 12.5 C 13.3 12.3 13.7 12.4 13.9 12.6 Z" fill="#efece8"/>
					</g>
					<g>
						<path d="M 11.8 14.3 C 12.1 14.5 12.2 14.8 12 15.1 C 11.8 15.4 11.4 15.4 11.1 15.2 C 10.8 15 10.7 14.7 10.9 14.4 C 11.1 14.1 11.5 14.1 11.8 14.3 Z" fill="#efece8"/>
					</g>
					<g>
						<path d="M 10.4 16.4 C 10.7 16.5 10.9 16.9 10.8 17.2 C 10.7 17.5 10.3 17.6 10 17.5 C 9.7 17.4 9.5 17.1 9.6 16.8 C 9.7 16.5 10.1 16.3 10.4 16.4 Z" fill="#efece8"/>
					</g>
					<g>
						<path d="M 26.6 16.4 C 27 16.3 27.3 16.5 27.4 16.8 C 27.5 17.1 27.4 17.4 27 17.5 C 26.7 17.6 26.3 17.5 26.2 17.2 C 26.1 16.9 26.3 16.5 26.6 16.4 Z" fill="#efece8"/>
					</g>
					<g>
						<path d="M 25.2 14.3 C 25.5 14.1 25.9 14.1 26.1 14.4 C 26.3 14.7 26.3 15 26 15.2 C 25.7 15.4 25.3 15.4 25.1 15.1 C 24.8 14.8 24.9 14.5 25.2 14.3 Z" fill="#efece8"/>
					</g>
					<g>
						<path d="M 23.1 12.6 C 23.3 12.4 23.7 12.3 24 12.5 C 24.3 12.7 24.4 13.1 24.2 13.3 C 24 13.6 23.6 13.7 23.3 13.5 C 23 13.3 22.9 12.9 23.1 12.6 Z" fill="#efece8"/>
					</g>
					<g>
						<path d="M 15.2 26.8 C 15.3 26.5 15.7 26.4 16 26.5 C 16.4 26.6 16.5 26.9 16.4 27.2 C 16.3 27.5 16 27.7 15.6 27.6 C 15.3 27.5 15.1 27.1 15.2 26.8 Z" fill="#efece8"/>
					</g>
				</g>
			</g>
		</g>
		<g id="policy%20statistics" visibility="hidden">
			<g>
				<path d="M 15.1 24.7 L 15.1 16 C 15.1 15.5 14.6 15 14 15 L 12 15 C 11.5 15 11 15.5 11 16 L 11 24.7 L 15.1 24.7 Z" fill="#ff7f00"/>
				<path d="M 20.5 24.7 L 20.5 11.7 C 20.5 11.1 20 10.7 19.4 10.7 L 17.4 10.7 C 16.9 10.7 16.4 11.1 16.4 11.7 L 16.4 24.7 L 20.5 24.7 Z" fill="#d6d30b"/>
				<path d="M 25.9 24.7 L 25.9 18.2 C 25.9 17.6 25.4 17.2 24.9 17.2 L 22.8 17.2 C 22.3 17.2 21.8 17.6 21.8 18.2 L 21.8 24.7 L 25.9 24.7 Z" fill="#ffffff"/>
			</g>
			<path d="M 26.8 26.3 L 10.1 26.3 L 10.1 25.2 L 26.8 25.2 L 26.8 26.3 Z" fill="#ffffff"/>
		</g>
		<g id="renewals" visibility="hidden">
			<g>
				<path d="M 12.8 24 C 12.4 23.5 12.2 23.3 12.8 22.9 L 13 22.8 C 12.6 22.8 12.1 22.6 11.9 22.3 C 11.4 21.7 11.6 21 12.1 20.6 L 17.6 16.8 C 17.9 16.6 17.5 16.5 17.4 16.2 C 17.4 15.9 17.7 15.6 17.5 15.5 C 17 15.2 18.2 13.9 18.2 13.9 C 19.9 13.9 21.1 13.7 22.7 13.8 C 23.5 14.1 24.1 14.4 24.5 14.6 L 25.1 14.2 L 28.8 19 C 28.8 19 28 19.6 27.7 19.9 C 27.6 21.1 26.4 22.1 25.6 22.6 L 18.5 27.4 C 17.9 27.8 17.5 27.1 17.1 26.6 C 16.8 26.3 16.4 26.5 16.5 26.1 L 16.4 26.2 C 15.8 26.6 15.2 25.8 14.7 25.2 C 14.5 24.9 14.2 25.2 14.4 24.9 L 14.3 24.9 C 13.8 25.3 13.2 24.5 12.8 24 Z" fill="#ffffff"/>
				<path d="M 30.1 19.1 L 32.5 17.4 L 27.9 11.5 L 25.4 13.1 L 30.1 19.1 Z" fill="#ffffff"/>
			</g>
			<g>
				<g>
					<path d="M 24.7 24.9 C 25.2 24.4 25.2 23.7 24.6 23.3 L 24.4 23.2 C 24.8 23.2 25.3 23 25.5 22.7 C 26 22.2 25.8 21.4 25.3 21 L 19.8 17.2 C 19.4 17 19.3 16.9 19.3 16.6 C 19.3 16.3 20.6 15.2 21.1 14.9 C 21.7 14.6 16.3 14.1 14.7 14.2 C 13.9 14.5 13.3 14.8 12.9 15 L 12.3 14.6 L 8.6 19.4 C 8.6 19.4 9.4 20 9.7 20.3 C 9.8 21.6 11.2 22.6 11.9 23.2 C 14.3 25.2 18.9 27.8 18.9 27.8 C 19.5 28.2 20.3 28.1 20.7 27.6 C 21 27.3 21 26.9 20.9 26.5 L 21 26.6 C 21.6 27 22.4 26.9 22.9 26.3 C 23.1 26 23.2 25.6 23 25.3 L 23.1 25.3 C 23.6 25.7 24.3 25.5 24.7 24.9 Z" fill="#ff7f00"/>
					<path d="M 19.7 28.5 C 19.3 28.5 18.9 28.4 18.6 28.2 L 18.6 28.2 C 18.3 28 13.9 25.5 11.5 23.5 L 11.5 23.5 C 10.9 23 9.5 21.9 9.3 20.5 L 9.3 20.5 C 9.1 20.4 8.9 20.2 8.7 20.1 L 8.7 20.1 C 8.5 19.9 8.3 19.7 8.3 19.7 L 8.3 19.7 C 8.1 19.6 8 19.3 8.2 19.1 L 8.2 19.1 L 11.9 14.4 C 11.9 14.3 12.1 14.2 12.2 14.2 L 12.2 14.2 C 12.3 14.2 12.5 14.2 12.6 14.3 L 12.6 14.3 L 12.9 14.5 C 13.3 14.3 13.9 14 14.5 13.8 L 14.5 13.8 L 14.6 13.8 C 14.8 13.8 15 13.8 15.2 13.8 L 15.2 13.8 C 16.8 13.8 19.8 14 20.9 14.3 L 20.9 14.3 C 21.1 14.4 21.2 14.4 21.4 14.5 L 21.4 14.5 C 21.4 14.5 21.6 14.6 21.6 14.9 L 21.6 14.9 C 21.6 15 21.6 15.1 21.5 15.2 L 21.5 15.2 C 21.4 15.3 21.4 15.3 21.3 15.3 L 21.3 15.3 C 21.2 15.4 20.8 15.7 20.5 16 L 20.5 16 C 20.2 16.2 19.9 16.6 19.8 16.7 L 19.8 16.7 C 19.8 16.7 19.8 16.7 19.8 16.7 L 19.8 16.7 C 19.8 16.7 19.9 16.8 20 16.9 L 20 16.9 L 25.6 20.7 C 26 21 26.3 21.5 26.3 22 L 26.3 22 C 26.3 22.3 26.2 22.6 25.9 22.9 L 25.9 22.9 C 25.8 23.1 25.6 23.3 25.3 23.4 L 25.3 23.4 C 25.5 23.6 25.5 23.9 25.5 24.1 L 25.5 24.1 C 25.5 24.5 25.4 24.9 25.1 25.2 L 25.1 25.2 L 24.7 24.9 L 25.1 25.2 C 24.8 25.6 24.3 25.9 23.7 25.9 L 23.7 25.9 C 23.7 25.9 23.6 25.9 23.6 25.9 L 23.6 25.9 C 23.5 26.1 23.4 26.4 23.3 26.6 L 23.3 26.6 C 22.9 27 22.4 27.3 21.8 27.3 L 21.8 27.3 C 21.7 27.3 21.5 27.2 21.4 27.2 L 21.4 27.2 C 21.4 27.4 21.3 27.6 21.1 27.8 L 21.1 27.8 C 20.8 28.3 20.2 28.5 19.7 28.5 L 19.7 28.5 C 19.7 28.5 19.7 28.5 19.7 28.5 L 19.7 28.5 ZM 10.1 20.1 C 10.2 20.1 10.2 20.2 10.2 20.3 L 10.2 20.3 C 10.3 21.3 11.5 22.3 12.2 22.9 L 12.2 22.9 C 13.4 23.9 15.1 25 16.6 25.9 L 16.6 25.9 C 18 26.8 19.2 27.5 19.2 27.5 L 19.2 27.5 L 19.2 27.5 C 19.4 27.6 19.5 27.6 19.7 27.6 L 19.7 27.6 C 19.9 27.6 20.2 27.5 20.3 27.3 L 20.3 27.3 C 20.4 27.2 20.5 27 20.5 26.9 L 20.5 26.9 C 20.5 26.8 20.5 26.7 20.4 26.6 L 20.4 26.6 C 20.4 26.5 20.5 26.3 20.6 26.2 L 20.6 26.2 C 20.8 26 21 26.1 21.2 26.2 L 21.2 26.2 L 21.3 26.3 C 21.5 26.3 21.6 26.4 21.8 26.4 L 21.8 26.4 C 22 26.4 22.3 26.3 22.5 26.1 L 22.5 26.1 C 22.6 25.9 22.6 25.8 22.6 25.6 L 22.6 25.6 C 22.6 25.5 22.6 25.5 22.6 25.4 L 22.6 25.4 C 22.5 25.2 22.6 25 22.8 24.9 L 22.8 24.9 C 22.9 24.8 23.2 24.8 23.3 24.9 L 23.3 24.9 L 23.3 24.9 C 23.5 25 23.6 25 23.7 25 L 23.7 25 C 23.9 25 24.1 24.9 24.3 24.7 L 24.3 24.7 L 24.3 24.7 C 24.5 24.5 24.5 24.3 24.5 24.1 L 24.5 24.1 C 24.5 23.9 24.5 23.8 24.3 23.7 L 24.3 23.7 L 24.1 23.5 C 23.9 23.4 23.8 23.2 23.9 23 L 23.9 23 C 24 22.8 24.2 22.7 24.4 22.7 L 24.4 22.7 C 24.4 22.8 24.5 22.8 24.5 22.8 L 24.5 22.8 C 24.7 22.8 25 22.6 25.1 22.4 L 25.1 22.4 C 25.2 22.3 25.3 22.1 25.3 22 L 25.3 22 C 25.3 21.7 25.2 21.5 25 21.3 L 25 21.3 L 19.5 17.6 C 19.3 17.5 19.2 17.4 19 17.2 L 19 17.2 C 18.9 17.1 18.8 16.9 18.8 16.6 L 18.8 16.6 C 18.8 16.6 18.8 16.6 18.8 16.6 L 18.8 16.6 C 18.9 16.3 19 16.2 19.2 16 L 19.2 16 C 19.3 15.8 19.5 15.6 19.7 15.4 L 19.7 15.4 C 19.8 15.3 20 15.2 20.1 15 L 20.1 15 C 19.8 15 19.3 14.9 18.8 14.9 L 18.8 14.9 C 17.6 14.7 16.1 14.7 15.2 14.7 L 15.2 14.7 C 15 14.7 14.9 14.7 14.8 14.7 L 14.8 14.7 C 14.1 14.9 13.5 15.2 13.1 15.4 L 13.1 15.4 C 13 15.5 12.7 15.5 12.6 15.4 L 12.6 15.4 L 12.4 15.3 L 9.2 19.3 C 9.5 19.5 9.9 19.8 10.1 20.1 L 10.1 20.1 Z" fill="#ffffff"/>
				</g>
				<path d="M 6.9 19.2 L 4.5 17.5 L 9.1 11.6 L 11.6 13.2 L 6.9 19.2 Z" fill="#ffffff"/>
			</g>
			<g>
				<path d="M 24.3 23.7 L 20.9 21.4 C 20.7 21.2 20.6 20.9 20.8 20.7 L 20.8 20.7 C 21 20.6 21.3 20.5 21.5 20.7 L 21.5 20.7 L 24.9 23 C 25.1 23.1 25.1 23.4 25 23.6 L 25 23.6 C 24.9 23.7 24.7 23.8 24.6 23.8 L 24.6 23.8 C 24.5 23.8 24.4 23.7 24.3 23.7 L 24.3 23.7 Z" fill="#ffffff"/>
			</g>
			<g>
				<path d="M 23.1 25.6 L 19.2 22.9 C 19 22.8 19 22.5 19.1 22.3 L 19.1 22.3 C 19.3 22.1 19.6 22.1 19.8 22.2 L 19.8 22.2 L 23.7 24.9 C 23.9 25.1 23.9 25.4 23.8 25.6 L 23.8 25.6 C 23.7 25.7 23.5 25.7 23.4 25.7 L 23.4 25.7 C 23.3 25.7 23.2 25.7 23.1 25.6 L 23.1 25.6 Z" fill="#ffffff"/>
			</g>
			<g>
				<path d="M 21.3 27.2 L 17.8 24.7 C 17.5 24.6 17.5 24.3 17.7 24.1 L 17.7 24.1 C 17.8 23.9 18.2 23.9 18.4 24.1 L 18.4 24.1 L 21.9 26.5 C 22.1 26.7 22.2 27 22 27.1 L 22 27.1 C 21.9 27.2 21.7 27.3 21.6 27.3 L 21.6 27.3 C 21.5 27.3 21.4 27.3 21.3 27.2 L 21.3 27.2 Z" fill="#ffffff"/>
			</g>
			<path d="M 20.1 14 C 20.1 14 17.4 14.5 17.1 14.7 C 16.7 14.8 13.8 18 13.8 18 C 13.8 18 15 19.5 16.1 18.6 C 17.1 17.7 19.1 16.1 19.1 16.1 L 21 16 L 21.6 13.9 L 20.1 14 Z" fill="#ffffff"/>
		</g>
		<g id="advisor" visibility="hidden">
			<g>
				<path d="M 27.1 9 C 27.9 9 28.5 9.6 28.5 10.4 L 28.5 24.5 C 28.5 25.3 27.9 25.9 27.1 25.9 L 9.9 25.9 C 9.1 25.9 8.5 25.3 8.5 24.5 L 8.5 10.4 C 8.5 9.6 9.1 9 9.9 9 L 27.1 9 L 27.1 9 ZM 27.1 10 L 9.9 10 C 9.7 10 9.5 10.2 9.5 10.4 L 9.5 24.5 C 9.5 24.7 9.7 24.9 9.9 24.9 L 27.1 24.9 C 27.3 24.9 27.5 24.7 27.5 24.5 L 27.5 10.4 C 27.5 10.2 27.3 10 27.1 10 L 27.1 10 Z" fill="#ff7f00"/>
			</g>
			<path d="M 24.3 29 L 12.7 29 L 12.7 28.1 L 24.3 28.1 L 24.3 29 Z" fill="#ff7f00"/>
			<path d="M 21.1 28.4 L 15.9 28.4 L 15.9 26.7 L 21.1 26.7 L 21.1 28.4 Z" fill="#ff7f00"/>
			<g>
				<path d="M 12.2 21.7 L 14.7 21.7 L 14.7 18.9 L 12.2 18.9 L 12.2 21.7 Z" fill="#d6d30b"/>
				<path d="M 15.5 21.7 L 18.1 21.7 L 18.1 15.5 L 15.5 15.5 L 15.5 21.7 Z" fill="#d6d30b"/>
				<path d="M 18.9 21.7 L 21.5 21.7 L 21.5 13.2 L 18.9 13.2 L 18.9 21.7 Z" fill="#d6d30b"/>
				<path d="M 22.3 21.7 L 24.8 21.7 L 24.8 16.1 L 22.3 16.1 L 22.3 21.7 Z" fill="#d6d30b"/>
			</g>
		</g>
		<g id="forms" visibility="hidden">
			<path d="M 26.5 29.5 L 10.5 29.5 L 10.5 10.1 L 26.5 10.1 L 26.5 29.5 Z" fill="#ff7f00"/>
			<path d="M 23.1 11.9 C 23.1 12.9 22.3 13.7 21.3 13.7 L 15.7 13.7 C 14.7 13.7 13.9 12.9 13.9 11.9 L 13.9 10.3 C 13.9 9.3 14.7 8.5 15.7 8.5 L 21.3 8.5 C 22.3 8.5 23.1 9.3 23.1 10.3 L 23.1 11.9 Z" fill="#ff7f00"/>
			<g>
				<path d="M 24.8 22.6 L 24.8 11.6 L 12.2 11.6 L 12.2 27.8 L 19.7 27.8 L 19.7 22.6 L 24.8 22.6 Z" fill="#ffffff"/>
				<path d="M 20.6 27.8 L 20.6 23.5 L 24.8 23.5 L 20.6 27.8 Z" fill="#ffffff"/>
			</g>
			<path d="M 19.2 10.2 C 19.2 10.6 18.9 10.9 18.5 10.9 C 18.1 10.9 17.8 10.6 17.8 10.2 C 17.8 9.8 18.1 9.4 18.5 9.4 C 18.9 9.4 19.2 9.8 19.2 10.2 Z" fill="#ffffff"/>
			<g>
				<path d="M 14.1 15.6 C 13.9 15.6 13.7 15.4 13.7 15.2 L 13.7 15.2 C 13.7 15 13.9 14.8 14.1 14.8 L 14.1 14.8 L 22.9 14.8 C 23.1 14.8 23.3 15 23.3 15.2 L 23.3 15.2 C 23.3 15.4 23.1 15.6 22.9 15.6 L 22.9 15.6 L 14.1 15.6 L 14.1 15.6 Z" fill="#ff7f00"/>
			</g>
			<g>
				<path d="M 14.1 17.8 C 13.9 17.8 13.7 17.6 13.7 17.4 L 13.7 17.4 C 13.7 17.2 13.9 17 14.1 17 L 14.1 17 L 22.9 17 C 23.1 17 23.3 17.2 23.3 17.4 L 23.3 17.4 C 23.3 17.6 23.1 17.8 22.9 17.8 L 22.9 17.8 L 14.1 17.8 L 14.1 17.8 Z" fill="#ff7f00"/>
			</g>
			<g>
				<path d="M 14.1 20 C 13.9 20 13.7 19.8 13.7 19.6 L 13.7 19.6 C 13.7 19.4 13.9 19.2 14.1 19.2 L 14.1 19.2 L 22.9 19.2 C 23.1 19.2 23.3 19.4 23.3 19.6 L 23.3 19.6 C 23.3 19.8 23.1 20 22.9 20 L 22.9 20 L 14.1 20 L 14.1 20 Z" fill="#ff7f00"/>
			</g>
		</g>
		<g id="reminders" visibility="hidden">
			<path d="M 23.6 12.4 C 26.5 15.3 26.9 14.8 27.5 14.3 L 21.7 8.5 C 21.2 9.1 20.7 9.6 23.6 12.4 ZM 21.4 23.6 C 22.8 22.2 22.9 19.9 21.8 17.8 L 24.9 14.7 L 21.3 11.1 L 18.2 14.2 C 16.1 13.1 13.8 13.2 12.4 14.6 L 21.4 23.6 Z" fill="#ff7f00"/>
			<path d="M 8.5 26.3 L 8.6 27.4 L 9.7 27.5 L 16.8 20.4 L 15.6 19.2 L 8.5 26.3 Z" fill="#9d9709"/>
			<path d="M 18.6 15.8 C 18.4 16 17.9 16.1 17.4 15.8 C 17 15.5 16.7 15.1 16.9 14.8 C 17.1 14.5 17.6 14.5 18 14.8 C 18.5 15 18.7 15.5 18.6 15.8 Z" fill="#ffffff"/>
			<path d="M 16.5 14.6 C 16.4 14.8 16.2 14.9 15.9 14.8 C 15.7 14.7 15.5 14.5 15.5 14.4 C 15.6 14.2 15.8 14.1 16.1 14.2 C 16.3 14.3 16.5 14.4 16.5 14.6 Z" fill="#ffffff"/>
			<g>
				<path d="M 8.9 26.8 C 8.9 26.7 8.9 26.6 8.9 26.5 L 8.9 26.5 L 15.9 19.5 C 16 19.4 16.1 19.4 16.2 19.5 L 16.2 19.5 C 16.3 19.6 16.3 19.7 16.2 19.7 L 16.2 19.7 L 9.2 26.8 C 9.2 26.8 9.1 26.8 9.1 26.8 L 9.1 26.8 C 9 26.8 9 26.8 8.9 26.8 L 8.9 26.8 Z" fill="#ffffff"/>
			</g>
		</g>
		<g id="pending" visibility="hidden">
			<path d="M 26.5 9.6 L 10.5 9.6 C 9.9 9.6 9.5 10.1 9.5 10.6 L 9.5 26.6 C 9.5 27.2 9.9 27.6 10.5 27.6 L 12 27.6 L 12 28.2 C 12 28.4 12.1 28.5 12.3 28.5 L 14.2 28.5 C 14.4 28.5 14.5 28.4 14.5 28.2 L 14.5 27.6 L 22.5 27.6 L 22.5 28.2 C 22.5 28.4 22.6 28.5 22.8 28.5 L 24.7 28.5 C 24.9 28.5 25 28.4 25 28.2 L 25 27.6 L 26.5 27.6 C 27.1 27.6 27.5 27.2 27.5 26.6 L 27.5 10.6 C 27.5 10.1 27.1 9.6 26.5 9.6 ZM 25.5 24 C 25.5 24.9 24.8 25.6 23.9 25.6 L 13.1 25.6 C 12.2 25.6 11.5 24.9 11.5 24 L 11.5 13.2 C 11.5 12.3 12.2 11.6 13.1 11.6 L 23.9 11.6 C 24.8 11.6 25.5 12.3 25.5 13.2 L 25.5 24 Z" fill="#d6d30b"/>
			<path d="M 23.9 12.7 L 13.1 12.7 C 12.8 12.7 12.6 12.9 12.6 13.2 L 12.6 24 C 12.6 24.3 12.8 24.5 13.1 24.5 L 23.9 24.5 C 24.2 24.5 24.4 24.3 24.4 24 L 24.4 13.2 C 24.4 12.9 24.2 12.7 23.9 12.7 ZM 14.9 20.2 C 14.9 20.3 14.8 20.3 14.8 20.3 L 14.2 20.3 C 14.1 20.3 14.1 20.3 14.1 20.2 L 14.1 19.6 C 14.1 19.6 14.1 19.5 14.2 19.5 L 14.8 19.5 C 14.8 19.5 14.9 19.6 14.9 19.6 L 14.9 20.2 ZM 14.9 18.9 C 14.9 19 14.8 19 14.8 19 L 14.2 19 C 14.1 19 14.1 19 14.1 18.9 L 14.1 18.3 C 14.1 18.3 14.1 18.2 14.2 18.2 L 14.8 18.2 C 14.8 18.2 14.9 18.3 14.9 18.3 L 14.9 18.9 ZM 14.9 17.6 C 14.9 17.7 14.8 17.7 14.8 17.7 L 14.2 17.7 C 14.1 17.7 14.1 17.7 14.1 17.6 L 14.1 17 C 14.1 17 14.1 16.9 14.2 16.9 L 14.8 16.9 C 14.8 16.9 14.9 17 14.9 17 L 14.9 17.6 ZM 16.3 20.2 C 16.3 20.3 16.2 20.3 16.2 20.3 L 15.6 20.3 C 15.5 20.3 15.5 20.3 15.5 20.2 L 15.5 19.6 C 15.5 19.6 15.5 19.5 15.6 19.5 L 16.2 19.5 C 16.2 19.5 16.3 19.6 16.3 19.6 L 16.3 20.2 ZM 16.3 18.9 C 16.3 19 16.2 19 16.2 19 L 15.6 19 C 15.5 19 15.5 19 15.5 18.9 L 15.5 18.3 C 15.5 18.3 15.5 18.2 15.6 18.2 L 16.2 18.2 C 16.2 18.2 16.3 18.3 16.3 18.3 L 16.3 18.9 ZM 16.3 17.6 C 16.3 17.7 16.2 17.7 16.2 17.7 L 15.6 17.7 C 15.5 17.7 15.5 17.7 15.5 17.6 L 15.5 17 C 15.5 17 15.5 16.9 15.6 16.9 L 16.2 16.9 C 16.2 16.9 16.3 17 16.3 17 L 16.3 17.6 ZM 17.7 20.2 C 17.7 20.3 17.6 20.3 17.6 20.3 L 17 20.3 C 16.9 20.3 16.9 20.3 16.9 20.2 L 16.9 19.6 C 16.9 19.6 16.9 19.5 17 19.5 L 17.6 19.5 C 17.6 19.5 17.7 19.6 17.7 19.6 L 17.7 20.2 ZM 17.7 18.9 C 17.7 19 17.6 19 17.6 19 L 17 19 C 16.9 19 16.9 19 16.9 18.9 L 16.9 18.3 C 16.9 18.3 16.9 18.2 17 18.2 L 17.6 18.2 C 17.6 18.2 17.7 18.3 17.7 18.3 L 17.7 18.9 ZM 17.7 17.6 C 17.7 17.7 17.6 17.7 17.6 17.7 L 17 17.7 C 16.9 17.7 16.9 17.7 16.9 17.6 L 16.9 17 C 16.9 17 16.9 16.9 17 16.9 L 17.6 16.9 C 17.6 16.9 17.7 17 17.7 17 L 17.7 17.6 ZM 21.2 20.3 C 20.3 20.3 19.6 19.5 19.6 18.6 C 19.6 17.7 20.3 16.9 21.2 16.9 C 22.2 16.9 22.9 17.7 22.9 18.6 C 22.9 19.5 22.2 20.3 21.2 20.3 Z" fill="#ff7f00"/>
		</g>
	</g>
</svg>