<?xml version="1.0" standalone="no"?>

<svg viewBox="0 0 20 20" style="background-color:#ffffff00" version="1.1" xmlns="http://www.w3.org/2000/svg" xmlns:xlink="http://www.w3.org/1999/xlink" xml:space="preserve" x="0px" y="0px" width="100%" height="100%">
	<g id="Layer%201">
		<g>
			<path id="Forma%201" d="M 17.5 2 L 2.5 2 C 2.2 2 2 2.2 2 2.5 L 2 17.5 C 2 17.8 2.2 18 2.5 18 L 17.5 18 C 17.8 18 18 17.8 18 17.5 L 18 2.5 C 18 2.2 17.8 2 17.5 2 ZM 5.1 2.8 L 14.9 2.8 L 14.9 7.4 L 5.1 7.4 L 5.1 2.8 ZM 15.4 16.8 L 4.6 16.8 L 4.6 10 L 15.4 10 L 15.4 16.8 ZM 12.1 3.5 L 13.5 3.5 L 13.5 6.8 L 12.1 6.8 L 12.1 3.5 ZM 14.4 11.7 L 5.6 11.7 L 5.6 11.1 L 14.4 11.1 L 14.4 11.7 ZM 14.4 13.6 L 5.6 13.6 L 5.6 13.1 L 14.4 13.1 L 14.4 13.6 ZM 14.4 15.5 L 5.6 15.5 L 5.6 14.9 L 14.4 14.9 L 14.4 15.5 Z" fill="#158818"/>
		</g>
	</g>
</svg>