<?xml version="1.0" encoding="utf-8"?>
<!-- Generator: Adobe Illustrator 16.0.0, SVG Export Plug-In . SVG Version: 6.00 Build 0)  -->
<!DOCTYPE svg PUBLIC "-//W3C//DTD SVG 1.0//EN" "http://www.w3.org/TR/2001/REC-SVG-20010904/DTD/svg10.dtd">
<svg version="1.0" id="Layer_1" xmlns="http://www.w3.org/2000/svg" xmlns:xlink="http://www.w3.org/1999/xlink" x="0px" y="0px"
	 width="100%" height="100%" viewBox="379 289 34 34" xml:space="preserve">
<path fill="none" d="z"/>
<g>
	<g>
		<g>
			<g>
				<g>
					<path fill="none" stroke="#D7E4BD" d="M411.807,306c0,8.738-7.068,15.807-15.807,15.807s-15.807-7.068-15.807-15.807
						s7.069-15.807,15.807-15.807S411.807,297.262,411.807,306z"/>
				</g>
			</g>
		</g>
	</g>
</g>
<path fill="none" d="z"/>
<g>
	<polygon fill="#FFFFFF" points="390.867,311.02 389.326,310.551 388.686,308.204 386.752,314.995 394.025,313.144 391.143,312.472 
			"/>
	<polygon fill="#FFFFFF" points="392.216,311.331 401.552,301.994 399.928,300.3 390.764,309.738 391.8,310.085 	"/>
	<polygon fill="#FFFFFF" points="399.305,299.711 398.06,298.432 389.346,307.354 389.968,309.003 	"/>
	<polygon fill="#FFFFFF" points="392.995,312.054 394.602,312.402 403.352,303.792 402.277,302.754 	"/>
	<path fill="#FFFFFF" d="M403.973,297.81c-0.865-0.968-3.201-1.971-4.134-1.072c-0.934,0.899-1.067,1.008-1.067,1.008l5.235,5.251
		c0,0,1.003-1.002,1.28-1.832C405.596,300.236,404.838,298.778,403.973,297.81z"/>
</g>
</svg>
