<?xml version="1.0" standalone="no"?>

<svg viewBox="0 0 20 20" style="background-color:#ffffff00" version="1.1" xmlns="http://www.w3.org/2000/svg" xmlns:xlink="http://www.w3.org/1999/xlink" xml:space="preserve" x="0px" y="0px" width="100%" height="100%">
	<g>
		<path d="M 10.7 14.8 C 10.4 14.9 10.2 14.9 10 14.9 C 6.9 15.1 4.3 12.7 4.1 9.6 C 4.1 8 4.6 6.6 5.6 5.5 C 6.6 4.3 7.9 3.7 9.4 3.6 C 9.5 3.6 9.6 3.6 9.7 3.6 C 12.6 3.6 15.1 5.9 15.2 9 C 15.3 9.4 15.2 9.7 15.2 10.1 L 17.2 12 C 17.3 11.6 17.4 11.2 17.5 10.7 L 19.4 10.3 L 19.4 9.8 L 19.3 8.5 L 19.3 7.9 L 17.5 7.8 C 17.4 7.4 17.3 7 17.2 6.6 L 18.6 5.3 L 18.3 4.9 L 17.6 3.7 L 17.3 3.3 L 15.7 4 C 15.5 3.7 15.2 3.4 14.9 3.1 L 15.4 1.3 L 15 1.1 L 13.8 0.5 L 13.3 0.3 L 12.4 1.6 C 12 1.5 11.5 1.4 11.1 1.3 L 10.7 -0.5 L 10.2 -0.5 L 8.9 -0.4 L 8.4 -0.4 L 8.2 1.3 C 7.8 1.4 7.4 1.5 7 1.6 L 5.8 0.3 L 5.3 0.6 L 4.2 1.3 L 3.8 1.6 L 4.5 3.1 C 4.2 3.4 4 3.6 3.8 3.8 C 3.7 3.9 3.7 4 3.6 4 L 1.8 3.5 L 1.6 3.9 L 1 5.1 L 0.8 5.6 L 2.2 6.6 C 2 7 1.9 7.4 1.9 7.8 L 0 8.2 L 0 8.7 L 0.1 10.1 L 0.1 10.6 L 1.9 10.8 C 2 11.2 2.1 11.6 2.2 11.9 L 0.8 13.2 L 1.1 13.7 L 1.8 14.8 L 2.1 15.2 L 3.6 14.5 C 3.9 14.8 4.2 15.1 4.5 15.4 L 3.9 17.2 L 4.4 17.4 L 5.6 18 L 6 18.3 L 7 16.9 C 7.4 17 7.8 17.1 8.3 17.2 L 8.6 19 L 9.2 19 L 10.5 18.9 L 11 18.9 L 11.2 17.2 C 11.6 17.1 12.1 17 12.6 16.8 L 10.7 14.8 Z" fill="#ffffff"/>
		<path d="M 20 17 C 20 16.7 19.9 16.3 19.7 16.1 C 17.6 14.1 15.5 12 13.4 10 C 13.7 8.7 13.4 7.4 12.4 6.4 C 11.3 5.2 9.6 4.9 8.2 5.5 L 10.4 7.7 C 10.6 7.8 10.6 8.1 10.4 8.3 L 8.9 9.8 C 8.7 10 8.4 10 8.2 9.8 L 6.1 7.7 C 5.5 9.1 5.8 10.7 7 11.9 C 7.9 12.9 9.3 13.2 10.6 12.9 C 12.6 15 14.6 17.1 16.6 19.2 C 16.8 19.4 17.2 19.5 17.5 19.5 C 18.8 19.3 19.8 18.3 20 17 Z" fill="#ffffff"/>
	</g>
</svg>