<?xml version="1.0" standalone="no"?>

<svg viewBox="0 0 44 44" style="background-color:#ffffff00" version="1.1" xmlns="http://www.w3.org/2000/svg" xmlns:xlink="http://www.w3.org/1999/xlink" xml:space="preserve" x="0px" y="0px" width="100%" height="100%">
	<defs>
		<linearGradient id="gradient1" x1="89.4%" y1="87.4%" x2="19%" y2="49%">
			<stop stop-color="#000000" stop-opacity="1" offset="1%"/>
			<stop stop-color="#ffffff" stop-opacity="1" offset="99%"/>
		</linearGradient>
		<linearGradient id="gradient2" x1="11.5%" y1="88.1%" x2="56.2%" y2="15.2%">
			<stop stop-color="#000000" stop-opacity="1" offset="1%"/>
			<stop stop-color="#ffffff" stop-opacity="1" offset="99%"/>
		</linearGradient>
		<linearGradient id="gradient3" x1="87.2%" y1="10.5%" x2="48.4%" y2="83.1%">
			<stop stop-color="#000000" stop-opacity="1" offset="1%"/>
			<stop stop-color="#ffffff" stop-opacity="1" offset="99%"/>
		</linearGradient>
		<linearGradient id="gradient4" x1="12.8%" y1="10.1%" x2="86.2%" y2="60.3%">
			<stop stop-color="#000000" stop-opacity="1" offset="1%"/>
			<stop stop-color="#ffffff" stop-opacity="1" offset="99%"/>
		</linearGradient>
	</defs>
	<g>
		<g>
			<path d="M 29 29 L 13 29 L 13 29 C 6.4 29 2 24.3 2 18.5 L 2 29.5 C 2 35.3 6.7 40 12.5 40 L 18.5 40 L 18.5 40 C 24.3 40 29 35.6 29 29 Z" fill="#765f44"/>
		</g>
		<g>
			<path d="M 13 29 L 13 13 C 13 6.4 17.7 2 23.5 2 L 12.5 2 C 6.7 2 2 6.7 2 12.5 L 2 18.5 C 2 24.3 6.4 29 13 29 Z" fill="#a7c444"/>
		</g>
		<g>
			<path d="M 29 13 L 29 29 L 29 29 C 29 35.6 24.3 40 18.5 40 L 18.5 40 L 29.5 40 C 35.3 40 40 35.3 40 29.5 L 40 23.5 C 40 17.7 35.6 13 29 13 Z" fill="#0091b1"/>
		</g>
		<g>
			<path d="M 29.5 2 L 23.5 2 C 17.7 2 13 6.4 13 13 L 29 13 L 29 13 L 29 13 C 35.6 13 40 17.7 40 23.5 L 40 12.5 C 40 6.7 35.3 2 29.5 2 Z" fill="#ffffff"/>
		</g>
		<path d="M 29 13 L 29 13 L 29 13 L 29 13 Z" fill="#ffffff"/>
		<path d="M 40 21.1 L 40 21.1 C 40 21.1 40 21.1 40 21.1 Z" fill="none"/>
		<path opacity="0.4" d="M 19.7 2.2 C 18.9 2.4 18.6 2.5 18.6 2.5 C 14.9 4.3 12.5 8.2 12.5 13 L 12.5 28.3 C 12.5 28.4 12.5 28.6 12.5 28.7 C 12.5 28.8 12.5 28.9 12.5 28.9 C 12.7 29 12.9 29 13 29 L 13 13 C 13 6.4 17.7 2 23.5 2 L 21.1 2 L 21.1 2 C 21.1 2 20.6 2 19.7 2.2 Z" fill="#221e1f"/>
		<path opacity="0.4" d="M 2.2 22.3 C 2.4 23.1 2.5 23.4 2.5 23.4 C 4.3 27.1 8.2 29.5 13 29.5 L 28.3 29.5 C 28.4 29.5 28.6 29.5 28.7 29.5 C 28.8 29.5 28.9 29.5 28.9 29.5 C 29 29.3 29 29.1 29 29 L 13 29 C 6.4 29 2 24.3 2 18.5 L 2 20.9 L 2 20.9 C 2 20.9 2 21.4 2.2 22.3 Z" fill="#221e1f"/>
		<path opacity="0.4" d="M 22.3 39.8 C 23.1 39.6 23.4 39.5 23.4 39.5 C 27.1 37.7 29.5 33.8 29.5 29 L 29.5 13.7 C 29.5 13.6 29.5 13.4 29.5 13.3 C 29.5 13.2 29.5 13.1 29.5 13.1 C 29.3 13 29.1 13 29 13 L 29 29 C 29 35.6 24.3 40 18.5 40 L 20.9 40 L 20.9 40 C 20.9 40 21.4 40 22.3 39.8 Z" fill="#221e1f"/>
		<path opacity="0.4" d="M 39.8 19.7 C 39.6 18.9 39.5 18.6 39.5 18.6 C 37.7 14.9 33.8 12.5 29 12.5 L 13.7 12.5 C 13.6 12.5 13.4 12.5 13.3 12.5 C 13.2 12.5 13.1 12.5 13.1 12.5 C 13 12.7 13 12.9 13 13 L 29 13 C 35.6 13 40 17.7 40 23.5 L 40 21.1 L 40 21.1 C 40 21.1 40 20.6 39.8 19.7 Z" fill="#221e1f"/>
		<g>
			<path opacity="0.6" d="M 29 29 L 13 29 L 13 29 C 6.4 29 2 24.3 2 18.5 L 2 29.5 C 2 35.3 6.7 40 12.5 40 L 18.5 40 L 18.5 40 C 24.3 40 29 35.6 29 29 Z" fill="url(#gradient1)"/>
			<path opacity="0.6" d="M 13 29 L 13 13 C 13 6.4 17.7 2 23.5 2 L 12.5 2 C 6.7 2 2 6.7 2 12.5 L 2 18.5 C 2 24.3 6.4 29 13 29 Z" fill="url(#gradient2)"/>
			<path opacity="0.6" d="M 29 13 L 29 29 L 29 29 C 29 35.6 24.3 40 18.5 40 L 18.5 40 L 29.5 40 C 35.3 40 40 35.3 40 29.5 L 40 23.5 C 40 17.7 35.6 13 29 13 Z" fill="url(#gradient3)"/>
			<path opacity="0.6" d="M 29.5 2 L 23.5 2 C 17.7 2 13 6.4 13 13 L 29 13 L 29 13 L 29 13 C 35.6 13 40 17.7 40 23.5 L 40 12.5 C 40 6.7 35.3 2 29.5 2 Z" fill="url(#gradient4)"/>
		</g>
	</g>
</svg>