<?xml version="1.0" standalone="no"?>

<svg viewBox="0 0 290 90" style="background-color:#ffffff" version="1.1" xmlns="http://www.w3.org/2000/svg" xmlns:xlink="http://www.w3.org/1999/xlink" xml:space="preserve" x="0px" y="0px" width="100%" height="100%">
	<defs>
		<filter id="filter1" x="-100%" y="-100%" width="300%" height="300%">
			<!-- Drop Shadow -->
			<feOffset result="out" in="SourceGraphic" dx="0.7" dy="0.7"/>
			<feColorMatrix result="out" in="out" type="matrix" values="0 0 0 0.7 0  0 0 0 0.7 0  0 0 0 0.5 0  0 0 0 0.7 0"/>
			<feGaussianBlur result="out" in="out" stdDeviation="6"/>
			<feBlend in="SourceGraphic" in2="out" mode="normal" result="Drop_Shadow1"/>
		</filter>
		<filter id="filter2" x="-100%" y="-100%" width="300%" height="300%">
			<!-- Gaussian Blur... -->
			<feGaussianBlur in="SourceGraphic" stdDeviation="34" result="Gaussian_Blur___1"/>
		</filter>
		<linearGradient id="gradient1" x1="23%" y1="47.4%" x2="106.4%" y2="53.7%">
			<stop stop-color="#ffffff" stop-opacity="0.1" offset="0%"/>
			<stop stop-color="#ffffff" stop-opacity="0.1" offset="1.1%"/>
			<stop stop-color="#fffefe" stop-opacity="0.7" offset="32.2%"/>
			<stop stop-color="#fefdfd" stop-opacity="0.7" offset="66.1%"/>
			<stop stop-color="#fefdfc" stop-opacity="0" offset="96.7%"/>
			<stop stop-color="#fefdfc" stop-opacity="0" offset="97.2%"/>
		</linearGradient>
		<filter id="filter3" x="-100%" y="-100%" width="300%" height="300%">
			<!-- Gaussian Blur... -->
			<feGaussianBlur in="SourceGraphic" stdDeviation="34" result="Gaussian_Blur___2"/>
		</filter>
		<linearGradient id="gradient2" x1="12.3%" y1="58.2%" x2="95.7%" y2="64.6%">
			<stop stop-color="#ffffff" stop-opacity="0.1" offset="0%"/>
			<stop stop-color="#ffffff" stop-opacity="0.1" offset="1.1%"/>
			<stop stop-color="#fffefe" stop-opacity="0.7" offset="32.2%"/>
			<stop stop-color="#fefdfd" stop-opacity="0.7" offset="66.1%"/>
			<stop stop-color="#fefdfc" stop-opacity="0" offset="96.7%"/>
			<stop stop-color="#fefdfc" stop-opacity="0" offset="97.2%"/>
		</linearGradient>
		<linearGradient id="gradient3" x1="43.1%" y1="0%" x2="43.1%" y2="92.3%">
			<stop stop-color="#ffffff" stop-opacity="0.8" offset="0%"/>
			<stop stop-color="#fbf3ec" stop-opacity="0.5" offset="99.4%"/>
		</linearGradient>
		<linearGradient id="gradient4" x1="43%" y1="0%" x2="43%" y2="92.3%">
			<stop stop-color="#ffffff" stop-opacity="0.8" offset="0%"/>
			<stop stop-color="#fbf3ec" stop-opacity="0.5" offset="99.4%"/>
		</linearGradient>
		<clipPath id="mask1">
			<rect x="-3.6" y="-3" width="293" height="98.9" stroke="#ffffff" stroke-width="2" fill="url(#gradient3)"/>
			<rect opacity="0.7" x="-2.5" y="-1.9" width="293" height="98.9" stroke="#ffffff" stroke-width="2" fill="url(#gradient4)"/>
		</clipPath>
		<filter id="filter4" x="-100%" y="-100%" width="300%" height="300%">
			<!-- Gaussian Blur... -->
			<feGaussianBlur in="SourceGraphic" stdDeviation="34" result="Gaussian_Blur___3"/>
		</filter>
		<linearGradient id="gradient5" x1="117.8%" y1="49.2%" x2="6.1%" y2="-28.3%">
			<stop stop-color="#ffffff" stop-opacity="0.1" offset="0%"/>
			<stop stop-color="#ffffff" stop-opacity="0.1" offset="1.1%"/>
			<stop stop-color="#fffefe" stop-opacity="0.7" offset="32.2%"/>
			<stop stop-color="#fefdfd" stop-opacity="0.7" offset="66.1%"/>
			<stop stop-color="#fefdfc" stop-opacity="0" offset="96.7%"/>
			<stop stop-color="#fefdfc" stop-opacity="0" offset="97.2%"/>
		</linearGradient>
		<linearGradient id="gradient6" x1="35%" y1="46.5%" x2="41.4%" y2="59.1%">
			<stop stop-color="#ffffff" stop-opacity="0.6" offset="0%"/>
			<stop stop-color="#ffffff" stop-opacity="0.6" offset="1.1%"/>
			<stop stop-color="#ffffff" stop-opacity="0.4" offset="13.3%"/>
			<stop stop-color="#ffffff" stop-opacity="0" offset="97.8%"/>
		</linearGradient>
		<linearGradient id="gradient7" x1="63%" y1="27.4%" x2="58.9%" y2="21%">
			<stop stop-color="#ffffff" stop-opacity="0.6" offset="0%"/>
			<stop stop-color="#ffffff" stop-opacity="0.6" offset="1.1%"/>
			<stop stop-color="#ffffff" stop-opacity="0.4" offset="13.3%"/>
			<stop stop-color="#ffffff" stop-opacity="0" offset="97.8%"/>
		</linearGradient>
		<filter id="filter5" x="-100%" y="-100%" width="300%" height="300%">
			<!-- Gaussian Blur... -->
			<feGaussianBlur in="SourceGraphic" stdDeviation="1" result="Gaussian_Blur___4"/>
		</filter>
		<linearGradient id="gradient8" x1="37.6%" y1="71.3%" x2="42.6%" y2="76%">
			<stop stop-color="#ffffff" stop-opacity="0.6" offset="0%"/>
			<stop stop-color="#ffffff" stop-opacity="0.6" offset="1.1%"/>
			<stop stop-color="#ffffff" stop-opacity="0.4" offset="13.3%"/>
			<stop stop-color="#ffffff" stop-opacity="0" offset="97.8%"/>
		</linearGradient>
		<clipPath id="mask2">
			<rect x="13" y="-50" width="258" height="48" fill="#2f445b"/>
		</clipPath>
		<filter id="filter6" x="-100%" y="-100%" width="300%" height="300%">
			<!-- Gaussian Blur... -->
			<feGaussianBlur in="SourceGraphic" stdDeviation="34" result="Gaussian_Blur___5"/>
		</filter>
		<linearGradient id="gradient9" x1="117.8%" y1="49.2%" x2="6.1%" y2="-28.3%">
			<stop stop-color="#ffffff" stop-opacity="0.1" offset="0%"/>
			<stop stop-color="#ffffff" stop-opacity="0.1" offset="1.1%"/>
			<stop stop-color="#fffefe" stop-opacity="0.7" offset="32.2%"/>
			<stop stop-color="#fefdfd" stop-opacity="0.7" offset="66.1%"/>
			<stop stop-color="#fefdfc" stop-opacity="0" offset="96.7%"/>
			<stop stop-color="#fefdfc" stop-opacity="0" offset="97.2%"/>
		</linearGradient>
		<linearGradient id="gradient10" x1="44.3%" y1="36.1%" x2="49.7%" y2="45.9%">
			<stop stop-color="#ffffff" stop-opacity="0.6" offset="0%"/>
			<stop stop-color="#ffffff" stop-opacity="0.6" offset="0.6%"/>
			<stop stop-color="#ffffff" stop-opacity="0.4" offset="28.9%"/>
			<stop stop-color="#ffffff" stop-opacity="0" offset="97.2%"/>
		</linearGradient>
		<linearGradient id="gradient11" x1="63%" y1="27.4%" x2="58.9%" y2="21%">
			<stop stop-color="#ffffff" stop-opacity="0.6" offset="0%"/>
			<stop stop-color="#ffffff" stop-opacity="0.6" offset="1.1%"/>
			<stop stop-color="#ffffff" stop-opacity="0.4" offset="13.3%"/>
			<stop stop-color="#ffffff" stop-opacity="0" offset="97.8%"/>
		</linearGradient>
		<filter id="filter7" x="-100%" y="-100%" width="300%" height="300%">
			<!-- Gaussian Blur... -->
			<feGaussianBlur in="SourceGraphic" stdDeviation="34" result="Gaussian_Blur___6"/>
		</filter>
		<linearGradient id="gradient12" x1="117.8%" y1="49.2%" x2="6.1%" y2="-28.3%">
			<stop stop-color="#ffffff" stop-opacity="0.1" offset="0%"/>
			<stop stop-color="#ffffff" stop-opacity="0.1" offset="1.1%"/>
			<stop stop-color="#fffefe" stop-opacity="0.7" offset="32.2%"/>
			<stop stop-color="#fefdfd" stop-opacity="0.7" offset="66.1%"/>
			<stop stop-color="#fefdfc" stop-opacity="0" offset="96.7%"/>
			<stop stop-color="#fefdfc" stop-opacity="0" offset="97.2%"/>
		</linearGradient>
		<filter id="filter8" x="-100%" y="-100%" width="300%" height="300%">
			<!-- Gaussian Blur... -->
			<feGaussianBlur in="SourceGraphic" stdDeviation="1" result="Gaussian_Blur___7"/>
		</filter>
		<linearGradient id="gradient13" x1="37.6%" y1="71.3%" x2="42.6%" y2="76%">
			<stop stop-color="#ffffff" stop-opacity="0.6" offset="0%"/>
			<stop stop-color="#ffffff" stop-opacity="0.6" offset="1.1%"/>
			<stop stop-color="#ffffff" stop-opacity="0.4" offset="13.3%"/>
			<stop stop-color="#ffffff" stop-opacity="0" offset="97.8%"/>
		</linearGradient>
		<linearGradient id="gradient14" x1="43%" y1="0%" x2="43%" y2="92.3%">
			<stop stop-color="#ffffff" stop-opacity="0.8" offset="0%"/>
			<stop stop-color="#fbf3ec" stop-opacity="0.5" offset="99.4%"/>
		</linearGradient>
		<linearGradient id="gradient15" x1="43%" y1="0%" x2="43%" y2="92.3%">
			<stop stop-color="#ffffff" stop-opacity="0.8" offset="0%"/>
			<stop stop-color="#fbf3ec" stop-opacity="0.5" offset="99.4%"/>
		</linearGradient>
		<clipPath id="mask3">
			<rect x="-2.5" y="-3" width="293" height="98.9" stroke="#ffffff" stroke-width="2" fill="url(#gradient14)"/>
			<rect opacity="0.7" x="-1.3" y="-1.9" width="293" height="98.9" stroke="#ffffff" stroke-width="2" fill="url(#gradient15)"/>
		</clipPath>
		<filter id="filter9" x="-100%" y="-100%" width="300%" height="300%">
			<!-- Gaussian Blur... -->
			<feGaussianBlur in="SourceGraphic" stdDeviation="34" result="Gaussian_Blur___8"/>
		</filter>
		<linearGradient id="gradient16" x1="117.8%" y1="49.2%" x2="6.1%" y2="-28.3%">
			<stop stop-color="#ffffff" stop-opacity="0.1" offset="0%"/>
			<stop stop-color="#ffffff" stop-opacity="0.1" offset="1.1%"/>
			<stop stop-color="#fffefe" stop-opacity="0.7" offset="32.2%"/>
			<stop stop-color="#fefdfd" stop-opacity="0.7" offset="66.1%"/>
			<stop stop-color="#fefdfc" stop-opacity="0" offset="96.7%"/>
			<stop stop-color="#fefdfc" stop-opacity="0" offset="97.2%"/>
		</linearGradient>
		<linearGradient id="gradient17" x1="35%" y1="46.5%" x2="41.4%" y2="59.1%">
			<stop stop-color="#ffffff" stop-opacity="0.6" offset="0%"/>
			<stop stop-color="#ffffff" stop-opacity="0.6" offset="1.1%"/>
			<stop stop-color="#ffffff" stop-opacity="0.4" offset="13.3%"/>
			<stop stop-color="#ffffff" stop-opacity="0" offset="97.8%"/>
		</linearGradient>
		<linearGradient id="gradient18" x1="63%" y1="27.4%" x2="58.9%" y2="21%">
			<stop stop-color="#ffffff" stop-opacity="0.6" offset="0%"/>
			<stop stop-color="#ffffff" stop-opacity="0.6" offset="1.1%"/>
			<stop stop-color="#ffffff" stop-opacity="0.4" offset="13.3%"/>
			<stop stop-color="#ffffff" stop-opacity="0" offset="97.8%"/>
		</linearGradient>
		<filter id="filter10" x="-100%" y="-100%" width="300%" height="300%">
			<!-- Gaussian Blur... -->
			<feGaussianBlur in="SourceGraphic" stdDeviation="1" result="Gaussian_Blur___9"/>
		</filter>
		<linearGradient id="gradient19" x1="37.6%" y1="71.3%" x2="42.6%" y2="76%">
			<stop stop-color="#ffffff" stop-opacity="0.6" offset="0%"/>
			<stop stop-color="#ffffff" stop-opacity="0.6" offset="1.1%"/>
			<stop stop-color="#ffffff" stop-opacity="0.4" offset="13.3%"/>
			<stop stop-color="#ffffff" stop-opacity="0" offset="97.8%"/>
		</linearGradient>
		<filter id="filter11" x="-100%" y="-100%" width="300%" height="300%">
			<!-- Gaussian Blur... -->
			<feGaussianBlur in="SourceGraphic" stdDeviation="34" result="Gaussian_Blur___10"/>
		</filter>
		<linearGradient id="gradient20" x1="117.8%" y1="49.2%" x2="6.1%" y2="-28.3%">
			<stop stop-color="#ffffff" stop-opacity="0.1" offset="0%"/>
			<stop stop-color="#ffffff" stop-opacity="0.1" offset="1.1%"/>
			<stop stop-color="#fffefe" stop-opacity="0.7" offset="32.2%"/>
			<stop stop-color="#fefdfd" stop-opacity="0.7" offset="66.1%"/>
			<stop stop-color="#fefdfc" stop-opacity="0" offset="96.7%"/>
			<stop stop-color="#fefdfc" stop-opacity="0" offset="97.2%"/>
		</linearGradient>
		<linearGradient id="gradient21" x1="35%" y1="46.5%" x2="41.4%" y2="59.1%">
			<stop stop-color="#ffffff" stop-opacity="0.6" offset="0%"/>
			<stop stop-color="#ffffff" stop-opacity="0.6" offset="1.1%"/>
			<stop stop-color="#ffffff" stop-opacity="0.4" offset="13.3%"/>
			<stop stop-color="#ffffff" stop-opacity="0" offset="97.8%"/>
		</linearGradient>
		<linearGradient id="gradient22" x1="63%" y1="27.4%" x2="58.9%" y2="21%">
			<stop stop-color="#ffffff" stop-opacity="0.6" offset="0%"/>
			<stop stop-color="#ffffff" stop-opacity="0.6" offset="1.1%"/>
			<stop stop-color="#ffffff" stop-opacity="0.4" offset="13.3%"/>
			<stop stop-color="#ffffff" stop-opacity="0" offset="97.8%"/>
		</linearGradient>
		<filter id="filter12" x="-100%" y="-100%" width="300%" height="300%">
			<!-- Gaussian Blur... -->
			<feGaussianBlur in="SourceGraphic" stdDeviation="1" result="Gaussian_Blur___11"/>
		</filter>
		<linearGradient id="gradient23" x1="37.6%" y1="71.3%" x2="42.6%" y2="76%">
			<stop stop-color="#ffffff" stop-opacity="0.6" offset="0%"/>
			<stop stop-color="#ffffff" stop-opacity="0.6" offset="1.1%"/>
			<stop stop-color="#ffffff" stop-opacity="0.4" offset="13.3%"/>
			<stop stop-color="#ffffff" stop-opacity="0" offset="97.8%"/>
		</linearGradient>
		<filter id="filter13" x="-100%" y="-100%" width="300%" height="300%">
			<!-- Gaussian Blur... -->
			<feGaussianBlur in="SourceGraphic" stdDeviation="1" result="Gaussian_Blur___12"/>
		</filter>
		<linearGradient id="gradient24" x1="62.4%" y1="28.7%" x2="57.4%" y2="24%">
			<stop stop-color="#ffffff" stop-opacity="0.6" offset="0%"/>
			<stop stop-color="#ffffff" stop-opacity="0.6" offset="1.1%"/>
			<stop stop-color="#ffffff" stop-opacity="0.4" offset="13.3%"/>
			<stop stop-color="#ffffff" stop-opacity="0" offset="97.8%"/>
		</linearGradient>
		<filter id="filter14" x="-100%" y="-100%" width="300%" height="300%">
			<!-- Gaussian Blur... -->
			<feGaussianBlur in="SourceGraphic" stdDeviation="1" result="Gaussian_Blur___13"/>
		</filter>
		<linearGradient id="gradient25" x1="62.4%" y1="28.7%" x2="57.4%" y2="24%">
			<stop stop-color="#ffffff" stop-opacity="0.6" offset="0%"/>
			<stop stop-color="#ffffff" stop-opacity="0.6" offset="1.1%"/>
			<stop stop-color="#ffffff" stop-opacity="0.4" offset="13.3%"/>
			<stop stop-color="#ffffff" stop-opacity="0" offset="97.8%"/>
		</linearGradient>
	</defs>
	<g id="Layer%201">
		<rect filter="url(#filter1)" x="-1.9" y="-8" width="294.1" height="1800" stroke="#fbfbf9" stroke-width="1" fill="#eae8db"/>
		<g id="luz">
			<path opacity="0.6" filter="url(#filter2)" d="M 40 191.8 C 40 191.8 222.1 461.2 227 98.5 C 229 -47.4 110.4 -90 110.4 -90 L 100.5 -77.1 L 40 191.8 Z" fill="url(#gradient1)"/>
			<path opacity="0.5" filter="url(#filter3)" d="M 36 497.8 C 36 497.8 218.1 767.2 223 404.5 C 225 258.6 106.4 216 106.4 216 L 96.5 228.9 L 36 497.8 Z" fill="url(#gradient2)"/>
		</g>
		<g opacity="0.4" clip-path="url(#mask1)">
			<path filter="url(#filter4)" d="M 10.1 74.6 C 10.1 74.6 228.2 134.8 234.1 53.8 C 236.5 21.2 94.5 11.6 94.5 11.6 L 82.5 14.5 L 10.1 74.6 Z" fill="url(#gradient5)"/>
			<path opacity="0.7" d="M 85.3 -0.2 L -20 93.9 L 163.9 93.9 L 161.4 -0.2 L 85.3 -0.2 Z" fill="url(#gradient6)"/>
			<path opacity="0.5" d="M 297.4 22.4 L 118.8 148 L 362.9 10.2 L 356.6 11.2 L 297.4 22.4 Z" fill="url(#gradient7)"/>
			<path opacity="0.8" filter="url(#filter5)" d="M -29.9 68.1 L 87.8 -38 L -76 82 L -71.6 80.8 L -29.9 68.1 Z" fill="url(#gradient8)"/>
		</g>
		<g clip-path="url(#mask2)">
			<path filter="url(#filter6)" d="M 44 -46.2 C 44 -46.2 200.7 -14.8 205 -57.1 C 206.7 -74 104.6 -79 104.6 -79 L 96.1 -77.5 L 44 -46.2 Z" fill="url(#gradient9)"/>
			<path opacity="0.5" d="M 87.8 -75.3 L -9.7 23 L 144.2 1.1 L 142.4 -75.3 L 87.8 -75.3 Z" fill="url(#gradient10)"/>
			<path opacity="0.5" d="M 240 -57 L 111.8 45 L 287 -66.9 L 282.5 -66.1 L 240 -57 Z" fill="url(#gradient11)"/>
		</g>
		<g opacity="0.6">
			<path filter="url(#filter7)" d="M 16 -5 C 16 -5 198.4 51.6 203.3 -24.7 C 205.3 -55.3 86.6 -64.3 86.6 -64.3 L 76.6 -61.6 L 16 -5 Z" fill="url(#gradient12)"/>
			<path opacity="0.8" filter="url(#filter8)" d="M -17.4 -11.2 L 81 -111 L -56 1.9 L -52.3 0.8 L -17.4 -11.2 Z" fill="url(#gradient13)"/>
		</g>
		<g clip-path="url(#mask3)">
			<path filter="url(#filter9)" d="M 11.2 74.6 C 11.2 74.6 229.3 134.8 235.2 53.8 C 237.6 21.2 95.6 11.6 95.6 11.6 L 83.7 14.5 L 11.2 74.6 Z" fill="url(#gradient16)"/>
			<path opacity="0.7" d="M 86.5 -0.2 L -18.9 93.9 L 165 93.9 L 162.5 -0.2 L 86.5 -0.2 Z" fill="url(#gradient17)"/>
			<path opacity="0.5" d="M 298.5 22.4 L 119.9 148 L 364 10.2 L 357.7 11.2 L 298.5 22.4 Z" fill="url(#gradient18)"/>
			<path opacity="0.8" filter="url(#filter10)" d="M -28.7 68.1 L 89 -38 L -74.9 82 L -70.4 80.8 L -28.7 68.1 Z" fill="url(#gradient19)"/>
		</g>
		<g opacity="0.3">
			<path filter="url(#filter11)" d="M 15.6 131 C 15.6 131 221.9 187.6 227.5 111.3 C 229.7 80.7 95.4 71.7 95.4 71.7 L 84.1 74.4 L 15.6 131 Z" fill="url(#gradient20)"/>
			<path opacity="0.7" d="M 86.8 60.6 L -12.8 149.1 L 161.1 149.1 L 158.7 60.6 L 86.8 60.6 Z" fill="url(#gradient21)"/>
			<path opacity="0.5" d="M 287.4 81.8 L 118.4 200 L 349.3 70.3 L 343.4 71.3 L 287.4 81.8 Z" fill="url(#gradient22)"/>
			<path opacity="0.8" filter="url(#filter12)" d="M -22.2 124.8 L 89.2 25 L -65.8 137.9 L -61.6 136.8 L -22.2 124.8 Z" fill="url(#gradient23)"/>
		</g>
		<g>
			<path d="M 173.2 65.4 L 172.8 65.4 L 172.6 65.7 C 172.3 66.2 172.1 66.6 172 66.7 C 171.7 66.9 171.5 67.1 171.2 67.2 C 170.7 67.4 170.2 67.5 169.5 67.5 L 168.5 67.5 C 168.2 67.5 168 67.5 167.9 67.4 C 167.8 67.3 167.7 67.2 167.7 67.1 C 167.7 66.9 167.8 66.6 167.9 66.2 L 169.7 60.4 C 169.9 59.8 170 59.4 170.1 59.2 C 170.2 59.1 170.4 58.9 170.6 58.8 C 170.8 58.7 171.1 58.7 171.5 58.7 L 171.6 58.4 L 167.7 58.4 L 167.7 58.7 C 167.7 58.7 167.8 58.7 167.9 58.7 C 168.2 58.7 168.5 58.8 168.6 58.9 C 168.7 59 168.8 59.1 168.8 59.3 C 168.8 59.5 168.7 59.8 168.6 60.3 L 166.8 66 C 166.6 66.5 166.5 66.9 166.3 67.1 C 166.2 67.2 166.1 67.3 165.9 67.4 C 165.7 67.5 165.5 67.5 165.1 67.5 L 165 67.8 L 172.2 67.8 L 173.2 65.4 L 173.2 65.4 Z" fill="#8d8469"/>
			<path d="M 176.4 59.2 C 176.3 59.3 176.3 59.4 176.3 59.6 C 176.3 59.7 176.3 59.9 176.4 60 C 176.5 60.1 176.7 60.1 176.8 60.1 C 177 60.1 177.1 60.1 177.2 60 C 177.3 59.9 177.4 59.7 177.4 59.6 C 177.4 59.4 177.3 59.3 177.2 59.2 C 177.1 59.1 177 59.1 176.8 59.1 C 176.7 59.1 176.5 59.1 176.4 59.2 L 176.4 59.2 ZM 174.7 61.9 L 174.7 62.2 C 175 62.2 175.2 62.1 175.3 62.1 C 175.4 62.1 175.5 62.2 175.6 62.2 C 175.7 62.3 175.7 62.4 175.7 62.4 C 175.7 62.6 175.6 62.8 175.5 63.3 L 174.4 66.5 C 174.2 66.9 174.2 67.2 174.2 67.4 C 174.2 67.5 174.2 67.6 174.3 67.7 C 174.4 67.8 174.6 67.8 174.8 67.8 C 175 67.8 175.3 67.8 175.6 67.6 C 176 67.3 176.3 67 176.6 66.5 L 176.3 66.4 C 176.1 66.7 175.9 67 175.7 67.2 C 175.6 67.3 175.6 67.3 175.5 67.3 C 175.5 67.3 175.5 67.3 175.4 67.2 C 175.4 67.2 175.4 67.1 175.4 67.1 C 175.4 67 175.4 66.8 175.6 66.5 L 177.2 61.5 L 174.7 61.9 L 174.7 61.9 Z" fill="#8d8469"/>
			<path d="M 181.5 61.5 C 181.8 60.7 182.1 60.1 182.2 59.9 C 182.4 59.3 182.7 58.9 183 58.6 C 183.2 58.5 183.5 58.4 183.8 58.4 C 183.9 58.4 184 58.4 184 58.4 C 184.1 58.5 184.1 58.5 184.1 58.6 C 184.1 58.6 184 58.7 183.9 58.8 C 183.8 58.9 183.7 58.9 183.7 59 C 183.7 59.1 183.8 59.2 183.9 59.3 C 183.9 59.4 184.1 59.4 184.2 59.4 C 184.4 59.4 184.5 59.4 184.7 59.2 C 184.8 59.1 184.8 59 184.8 58.8 C 184.8 58.6 184.7 58.4 184.5 58.3 C 184.3 58.1 184 58 183.7 58 C 183.4 58 183 58.1 182.7 58.3 C 182.3 58.5 182 58.8 181.6 59.2 C 181.4 59.4 181.1 59.9 180.9 60.4 C 180.7 60.8 180.5 61 180.3 61.2 C 180.2 61.3 180 61.4 179.8 61.4 C 179.6 61.5 179.3 61.5 178.8 61.5 L 178.7 61.9 L 180.3 61.9 L 178.8 66.9 C 178.5 68 178.3 68.6 178.2 68.8 C 178 69.3 177.8 69.6 177.6 69.9 C 177.4 70.1 177.2 70.3 176.9 70.5 C 176.7 70.6 176.4 70.6 176.2 70.6 C 176.1 70.6 176 70.6 176 70.6 C 175.9 70.6 175.9 70.5 175.9 70.5 C 175.9 70.5 176 70.4 176.1 70.3 C 176.2 70.2 176.3 70.1 176.3 70 C 176.3 69.9 176.2 69.8 176.1 69.7 C 176 69.6 175.9 69.6 175.8 69.6 C 175.6 69.6 175.5 69.7 175.3 69.8 C 175.2 69.9 175.1 70 175.1 70.2 C 175.1 70.4 175.2 70.6 175.4 70.7 C 175.6 70.9 175.9 71 176.1 71 C 176.6 71 177.1 70.8 177.5 70.5 C 178.1 70.1 178.7 69.4 179.2 68.4 C 179.6 67.6 180 66.6 180.4 65.3 L 181.4 61.9 L 182.5 61.9 L 182.6 61.5 L 181.5 61.5 L 181.5 61.5 Z" fill="#8d8469"/>
			<path d="M 185.6 64.6 C 186.4 64.3 186.9 64 187.3 63.5 C 187.6 63.2 187.8 62.8 187.8 62.5 C 187.8 62.2 187.7 62 187.5 61.8 C 187.2 61.6 186.9 61.5 186.4 61.5 C 185.7 61.5 185.1 61.7 184.4 62.1 C 183.8 62.5 183.3 63.1 182.9 63.8 C 182.4 64.5 182.2 65.2 182.2 65.8 C 182.2 66.3 182.4 66.8 182.7 67.2 C 183.1 67.6 183.5 67.8 184.2 67.8 C 185.2 67.8 186.2 67.3 187.3 66.2 L 187.1 65.9 C 186.5 66.4 186.1 66.7 185.8 66.9 C 185.5 67.1 185.2 67.1 184.8 67.1 C 184.4 67.1 184.1 67 183.8 66.7 C 183.5 66.4 183.4 66 183.4 65.6 L 183.4 65 C 184.3 64.9 185.1 64.8 185.6 64.6 L 185.6 64.6 ZM 184.6 62.6 C 185.1 62.1 185.6 61.9 186 61.9 C 186.2 61.9 186.4 61.9 186.5 62 C 186.6 62.2 186.7 62.3 186.7 62.5 C 186.7 62.8 186.5 63.1 186.3 63.4 C 186 63.8 185.6 64.1 185 64.3 C 184.6 64.5 184.1 64.6 183.4 64.7 C 183.7 63.8 184.1 63.1 184.6 62.6 L 184.6 62.6 Z" fill="#8d8469"/>
			<path d="M 200 62.9 C 200.3 62.9 200.4 63 200.5 63 C 200.6 63.1 200.7 63.2 200.7 63.3 C 200.7 63.8 200.2 64.5 199.2 65.4 C 198.6 64.5 198.2 63.3 197.9 62 C 199 61.6 199.7 61.3 200.2 60.8 C 200.6 60.3 200.8 59.9 200.8 59.4 C 200.8 59 200.7 58.7 200.4 58.4 C 200.1 58.1 199.8 58 199.3 58 C 198.6 58 198 58.3 197.5 58.8 C 197 59.4 196.7 60.1 196.7 61.1 L 196.7 61.5 L 196.7 62 C 195.4 62.5 194.5 62.9 194 63.3 C 193.4 63.9 193 64.7 193 65.5 C 193 66.2 193.2 66.8 193.7 67.2 C 194.1 67.6 194.8 67.8 195.6 67.8 C 196.2 67.8 196.7 67.8 197.1 67.6 C 197.6 67.4 198.1 67.2 198.6 66.8 C 198.9 67.2 199.2 67.4 199.6 67.6 C 199.9 67.8 200.3 67.8 200.7 67.8 C 201.1 67.8 201.5 67.8 201.8 67.7 C 202.1 67.6 202.4 67.4 202.7 67.1 L 202.3 67.1 C 202 67.4 201.6 67.5 201.2 67.5 C 200.5 67.5 199.9 66.9 199.3 65.9 C 199.7 65.5 200.1 64.9 200.7 64.3 C 201.1 63.8 201.4 63.4 201.7 63.3 C 202.1 63.1 202.4 63 202.9 62.9 L 202.9 62.6 L 200 62.6 L 200 62.9 L 200 62.9 ZM 197.9 60.9 L 197.9 60.3 C 197.9 59.6 198 59.1 198.2 58.8 C 198.5 58.5 198.8 58.4 199.1 58.4 C 199.4 58.4 199.7 58.4 199.8 58.6 C 200 58.8 200.1 59 200.1 59.3 C 200.1 59.8 199.9 60.2 199.5 60.6 C 199.2 60.9 198.7 61.2 197.9 61.5 L 197.9 60.9 L 197.9 60.9 ZM 197.4 64.6 C 197.6 65.3 197.9 65.9 198.2 66.4 C 197.8 66.8 197.4 67.1 197.1 67.3 C 196.9 67.4 196.5 67.5 196.2 67.5 C 195.6 67.5 195.1 67.3 194.7 66.9 C 194.3 66.5 194.1 66 194.1 65.3 C 194.1 64.8 194.3 64.2 194.7 63.7 C 195.2 63.2 195.8 62.8 196.7 62.4 C 196.9 63.1 197.1 63.8 197.4 64.6 L 197.4 64.6 Z" fill="#8d8469"/>
			<path d="M 214.6 58 L 208.5 66.1 C 208 66.7 207.6 67 207.3 67.2 C 207 67.4 206.7 67.5 206.4 67.5 L 206.3 67.8 L 209.2 67.8 L 209.3 67.5 C 209 67.5 208.8 67.4 208.7 67.3 C 208.5 67.2 208.5 67.1 208.5 66.9 C 208.5 66.8 208.5 66.7 208.6 66.6 C 208.6 66.5 208.8 66.3 209 66 L 210 64.7 L 213.6 64.7 L 213.5 66 C 213.4 66.5 213.4 66.8 213.3 66.9 C 213.3 67.1 213.2 67.2 213 67.3 C 212.8 67.4 212.6 67.5 212.2 67.5 L 212.1 67.5 L 212 67.8 L 215.7 67.8 L 215.8 67.5 C 215.5 67.5 215.2 67.5 215 67.4 C 214.9 67.3 214.7 67.2 214.7 67.1 C 214.6 67 214.5 66.9 214.5 66.7 C 214.5 66.6 214.6 66.4 214.6 66.1 L 215 58 L 214.6 58 L 214.6 58 ZM 213.6 64.3 L 210.2 64.3 L 213.8 59.6 L 213.6 64.3 L 213.6 64.3 Z" fill="#8d8469"/>
			<path d="M 217.2 61.9 L 216.8 62.2 L 217.2 62.2 C 217.4 62.2 217.5 62.2 217.6 62.2 C 217.8 62.2 217.9 62.2 218 62.2 C 218.1 62.3 218.1 62.4 218.1 62.5 C 218.1 62.6 218.1 62.8 217.9 63.3 L 216.5 67.8 L 217.6 67.8 L 218 66.6 C 218.1 66.2 218.3 65.7 218.6 65.3 C 219.1 64.6 219.5 63.9 220 63.4 C 220.4 63 220.8 62.6 221.3 62.4 C 221.5 62.3 221.6 62.2 221.8 62.2 C 221.9 62.2 222 62.2 222.1 62.3 C 222.1 62.4 222.2 62.4 222.2 62.5 C 222.2 62.7 222.1 63 222 63.4 L 221 66.3 C 220.8 66.8 220.7 67.2 220.7 67.4 C 220.7 67.6 220.7 67.7 220.8 67.7 C 220.9 67.8 221.1 67.8 221.3 67.8 C 221.5 67.8 221.7 67.8 222 67.6 C 222.3 67.4 222.7 67.1 223.2 66.5 L 222.8 66.4 C 222.6 66.8 222.4 67 222.2 67.2 C 222.1 67.3 222.1 67.3 222 67.3 C 222 67.3 222 67.3 222 67.2 C 221.9 67.2 221.9 67.2 221.9 67.1 C 221.9 67 222 66.8 222.1 66.5 L 223.1 63.6 C 223.3 63.1 223.4 62.8 223.4 62.5 C 223.4 62.2 223.3 62 223.1 61.8 C 222.9 61.6 222.7 61.5 222.4 61.5 C 221.9 61.5 221.4 61.7 220.9 62.1 C 220.4 62.5 219.6 63.3 218.6 64.6 L 219.5 61.5 L 217.2 61.9 L 217.2 61.9 Z" fill="#8d8469"/>
			<path d="M 224.6 61.9 L 224.3 62.2 L 224.7 62.2 C 224.9 62.2 225 62.2 225.1 62.2 C 225.2 62.2 225.4 62.2 225.4 62.2 C 225.5 62.3 225.6 62.4 225.6 62.5 C 225.6 62.6 225.5 62.8 225.4 63.3 L 223.9 67.8 L 225 67.8 L 225.4 66.6 C 225.6 66.2 225.8 65.7 226 65.3 C 226.5 64.6 227 63.9 227.4 63.4 C 227.9 63 228.3 62.6 228.7 62.4 C 228.9 62.3 229.1 62.2 229.2 62.2 C 229.3 62.2 229.4 62.2 229.5 62.3 C 229.6 62.4 229.6 62.4 229.6 62.5 C 229.6 62.7 229.6 63 229.4 63.4 L 228.4 66.3 C 228.2 66.8 228.1 67.2 228.1 67.4 C 228.1 67.6 228.2 67.7 228.3 67.7 C 228.4 67.8 228.5 67.8 228.7 67.8 C 228.9 67.8 229.1 67.8 229.4 67.6 C 229.8 67.4 230.2 67.1 230.6 66.5 L 230.2 66.4 C 230 66.8 229.8 67 229.6 67.2 C 229.6 67.3 229.5 67.3 229.5 67.3 C 229.5 67.3 229.4 67.3 229.4 67.2 C 229.4 67.2 229.4 67.2 229.4 67.1 C 229.4 67 229.4 66.8 229.5 66.5 L 230.6 63.6 C 230.7 63.1 230.8 62.8 230.8 62.5 C 230.8 62.2 230.7 62 230.6 61.8 C 230.4 61.6 230.2 61.5 229.9 61.5 C 229.4 61.5 228.9 61.7 228.3 62.1 C 227.8 62.5 227 63.3 226 64.6 L 227 61.5 L 224.6 61.9 L 224.6 61.9 Z" fill="#8d8469"/>
			<path d="M 237 61.5 L 236.8 62.2 C 236.4 63.3 236.1 64 235.8 64.5 C 235.6 65 235.2 65.5 234.8 66 C 234.3 66.5 234 66.9 233.7 67 C 233.5 67.2 233.3 67.3 233.1 67.3 C 233 67.3 232.9 67.2 232.9 67.2 C 232.8 67.1 232.8 67.1 232.8 67 C 232.8 66.8 232.9 66.4 233.1 65.9 L 233.9 63.7 C 234.1 63.1 234.2 62.6 234.2 62.4 C 234.2 62.1 234.2 61.9 234 61.8 C 233.9 61.6 233.8 61.5 233.6 61.5 C 233.3 61.5 233 61.6 232.7 61.8 C 232.3 62.1 231.9 62.5 231.5 63 L 231.9 63.2 C 232.2 62.7 232.4 62.5 232.5 62.4 C 232.6 62.3 232.7 62.3 232.8 62.3 C 232.9 62.3 232.9 62.3 233 62.3 C 233 62.4 233 62.4 233 62.5 C 233 62.6 232.9 62.9 232.7 63.5 L 232 65.6 C 231.7 66.3 231.6 66.9 231.6 67.2 C 231.6 67.4 231.6 67.6 231.8 67.7 C 232 67.8 232.2 67.8 232.4 67.8 C 232.9 67.8 233.4 67.6 234 67.1 C 234.6 66.7 235.3 65.8 236.1 64.5 C 235.8 65.7 235.5 66.4 235.4 66.8 C 235.3 67.1 235.3 67.2 235.3 67.4 C 235.3 67.5 235.4 67.6 235.5 67.7 C 235.6 67.8 235.7 67.8 235.9 67.8 C 236.1 67.8 236.3 67.8 236.6 67.6 C 237 67.4 237.3 67.1 237.7 66.5 L 237.3 66.4 C 237 66.9 236.8 67.2 236.8 67.2 C 236.7 67.3 236.6 67.3 236.6 67.3 C 236.5 67.3 236.5 67.3 236.5 67.2 C 236.5 67.2 236.5 67.2 236.5 67.1 C 236.5 66.9 236.6 66.5 236.8 65.9 L 238.1 61.5 L 237 61.5 L 237 61.5 Z" fill="#8d8469"/>
			<path d="M 241.6 59.2 C 241.5 59.3 241.4 59.4 241.4 59.6 C 241.4 59.7 241.5 59.9 241.6 60 C 241.7 60.1 241.8 60.1 242 60.1 C 242.1 60.1 242.2 60.1 242.4 60 C 242.5 59.9 242.5 59.7 242.5 59.6 C 242.5 59.4 242.5 59.3 242.4 59.2 C 242.3 59.1 242.1 59.1 242 59.1 C 241.8 59.1 241.7 59.1 241.6 59.2 L 241.6 59.2 ZM 239.9 61.9 L 239.9 62.2 C 240.2 62.2 240.4 62.1 240.4 62.1 C 240.6 62.1 240.7 62.2 240.7 62.2 C 240.8 62.3 240.8 62.4 240.8 62.4 C 240.8 62.6 240.8 62.8 240.6 63.3 L 239.5 66.5 C 239.4 66.9 239.3 67.2 239.3 67.4 C 239.3 67.5 239.4 67.6 239.5 67.7 C 239.6 67.8 239.7 67.8 239.9 67.8 C 240.2 67.8 240.5 67.8 240.7 67.6 C 241.1 67.3 241.5 67 241.8 66.5 L 241.4 66.4 C 241.2 66.7 241 67 240.9 67.2 C 240.8 67.3 240.7 67.3 240.7 67.3 C 240.6 67.3 240.6 67.3 240.6 67.2 C 240.5 67.2 240.5 67.1 240.5 67.1 C 240.5 67 240.6 66.8 240.7 66.5 L 242.3 61.5 L 239.9 61.9 L 239.9 61.9 Z" fill="#8d8469"/>
			<path d="M 246.5 59.8 C 246.1 60.4 245.7 60.9 245.3 61.1 C 244.9 61.4 244.5 61.5 243.9 61.6 L 243.9 61.9 L 245 61.9 L 243.7 66.1 C 243.5 66.7 243.4 67.1 243.4 67.3 C 243.4 67.5 243.5 67.6 243.6 67.7 C 243.8 67.8 244 67.8 244.2 67.8 C 244.4 67.8 244.7 67.8 245 67.6 C 245.4 67.5 245.8 67.1 246.3 66.5 L 245.9 66.3 C 245.5 66.8 245.3 67.1 245.2 67.2 C 245 67.3 244.9 67.4 244.8 67.4 C 244.7 67.4 244.7 67.3 244.7 67.3 C 244.6 67.3 244.6 67.2 244.6 67.2 C 244.6 67 244.7 66.8 244.9 66.3 L 246.3 61.9 L 247.4 61.9 L 247.4 61.5 L 246.4 61.5 L 246.9 59.8 L 246.5 59.8 L 246.5 59.8 Z" fill="#8d8469"/>
			<path d="M 249.8 59.2 C 249.7 59.3 249.6 59.4 249.6 59.6 C 249.6 59.7 249.7 59.9 249.8 60 C 249.9 60.1 250 60.1 250.2 60.1 C 250.3 60.1 250.4 60.1 250.5 60 C 250.7 59.9 250.7 59.7 250.7 59.6 C 250.7 59.4 250.7 59.3 250.6 59.2 C 250.4 59.1 250.3 59.1 250.2 59.1 C 250 59.1 249.9 59.1 249.8 59.2 L 249.8 59.2 ZM 248.1 61.9 L 248.1 62.2 C 248.3 62.2 248.5 62.1 248.6 62.1 C 248.7 62.1 248.8 62.2 248.9 62.2 C 249 62.3 249 62.4 249 62.4 C 249 62.6 249 62.8 248.8 63.3 L 247.7 66.5 C 247.6 66.9 247.5 67.2 247.5 67.4 C 247.5 67.5 247.6 67.6 247.7 67.7 C 247.8 67.8 247.9 67.8 248.1 67.8 C 248.4 67.8 248.6 67.8 248.9 67.6 C 249.3 67.3 249.7 67 250 66.5 L 249.6 66.4 C 249.4 66.7 249.2 67 249.1 67.2 C 249 67.3 248.9 67.3 248.9 67.3 C 248.8 67.3 248.8 67.3 248.8 67.2 C 248.7 67.2 248.7 67.1 248.7 67.1 C 248.7 67 248.8 66.8 248.9 66.5 L 250.5 61.5 L 248.1 61.9 L 248.1 61.9 Z" fill="#8d8469"/>
			<path d="M 254.8 64.6 C 255.6 64.3 256.2 64 256.6 63.5 C 256.9 63.2 257 62.8 257 62.5 C 257 62.2 256.9 62 256.7 61.8 C 256.5 61.6 256.1 61.5 255.6 61.5 C 255 61.5 254.3 61.7 253.7 62.1 C 253 62.5 252.5 63.1 252.1 63.8 C 251.7 64.5 251.5 65.2 251.5 65.8 C 251.5 66.3 251.6 66.8 252 67.2 C 252.3 67.6 252.8 67.8 253.4 67.8 C 254.4 67.8 255.4 67.3 256.5 66.2 L 256.3 65.9 C 255.7 66.4 255.3 66.7 255 66.9 C 254.7 67.1 254.4 67.1 254.1 67.1 C 253.7 67.1 253.3 67 253.1 66.7 C 252.8 66.4 252.6 66 252.6 65.6 L 252.6 65 C 253.6 64.9 254.3 64.8 254.8 64.6 L 254.8 64.6 ZM 253.8 62.6 C 254.3 62.1 254.8 61.9 255.2 61.9 C 255.5 61.9 255.6 61.9 255.7 62 C 255.9 62.2 255.9 62.3 255.9 62.5 C 255.9 62.8 255.8 63.1 255.5 63.4 C 255.2 63.8 254.8 64.1 254.3 64.3 C 253.9 64.5 253.3 64.6 252.7 64.7 C 252.9 63.8 253.3 63.1 253.8 62.6 L 253.8 62.6 Z" fill="#8d8469"/>
			<path d="M 262.7 61.5 C 262.6 61.7 262.5 61.9 262.3 61.9 C 262.2 61.9 262 61.8 261.8 61.7 C 261.6 61.6 261.4 61.6 261.4 61.6 C 261.2 61.5 261.1 61.5 261 61.5 C 260.5 61.5 260.1 61.7 259.7 62 C 259.4 62.3 259.3 62.6 259.3 63.1 C 259.3 63.3 259.3 63.6 259.5 63.8 C 259.6 64 259.8 64.4 260.2 64.9 C 260.6 65.4 260.9 65.7 261 66 C 261.1 66.1 261.1 66.3 261.1 66.5 C 261.1 66.8 261 67 260.8 67.2 C 260.6 67.4 260.4 67.5 260 67.5 C 259.6 67.5 259.2 67.4 259 67.1 C 258.7 66.8 258.6 66.4 258.5 65.7 L 258.2 65.7 L 257.8 67.8 L 258.1 67.8 C 258.2 67.6 258.3 67.5 258.5 67.5 C 258.6 67.5 258.7 67.5 258.9 67.6 C 259.3 67.8 259.7 67.8 260.1 67.8 C 260.7 67.8 261.2 67.7 261.6 67.3 C 262 66.9 262.3 66.5 262.3 66 C 262.3 65.7 262.2 65.4 262 65.1 C 261.8 64.8 261.5 64.3 260.9 63.7 C 260.7 63.4 260.6 63.2 260.5 63.1 C 260.4 63 260.4 62.8 260.4 62.7 C 260.4 62.4 260.5 62.2 260.6 62.1 C 260.7 61.9 260.9 61.9 261.2 61.9 C 261.5 61.9 261.7 62 261.9 62.3 C 262.1 62.6 262.2 63 262.3 63.6 L 262.6 63.6 L 263 61.5 L 262.7 61.5 L 262.7 61.5 Z" fill="#8d8469"/>
		</g>
		<g>
			<path d="M 173.2 65.4 L 172.8 65.4 L 172.6 65.7 C 172.3 66.2 172.1 66.6 172 66.7 C 171.7 66.9 171.5 67.1 171.2 67.2 C 170.7 67.4 170.2 67.5 169.5 67.5 L 168.5 67.5 C 168.2 67.5 168 67.5 167.9 67.4 C 167.8 67.3 167.7 67.2 167.7 67.1 C 167.7 66.9 167.8 66.6 167.9 66.2 L 169.7 60.4 C 169.9 59.8 170 59.4 170.1 59.2 C 170.2 59.1 170.4 58.9 170.6 58.8 C 170.8 58.7 171.1 58.7 171.5 58.7 L 171.6 58.4 L 167.7 58.4 L 167.7 58.7 C 167.7 58.7 167.8 58.7 167.9 58.7 C 168.2 58.7 168.5 58.8 168.6 58.9 C 168.7 59 168.8 59.1 168.8 59.3 C 168.8 59.5 168.7 59.8 168.6 60.3 L 166.8 66 C 166.6 66.5 166.5 66.9 166.3 67.1 C 166.2 67.2 166.1 67.3 165.9 67.4 C 165.7 67.5 165.5 67.5 165.1 67.5 L 165 67.8 L 172.2 67.8 L 173.2 65.4 L 173.2 65.4 Z" fill="#8d8469"/>
			<path d="M 176.4 59.2 C 176.3 59.3 176.3 59.4 176.3 59.6 C 176.3 59.7 176.3 59.9 176.4 60 C 176.5 60.1 176.7 60.1 176.8 60.1 C 177 60.1 177.1 60.1 177.2 60 C 177.3 59.9 177.4 59.7 177.4 59.6 C 177.4 59.4 177.3 59.3 177.2 59.2 C 177.1 59.1 177 59.1 176.8 59.1 C 176.7 59.1 176.5 59.1 176.4 59.2 L 176.4 59.2 ZM 174.7 61.9 L 174.7 62.2 C 175 62.2 175.2 62.1 175.3 62.1 C 175.4 62.1 175.5 62.2 175.6 62.2 C 175.7 62.3 175.7 62.4 175.7 62.4 C 175.7 62.6 175.6 62.8 175.5 63.3 L 174.4 66.5 C 174.2 66.9 174.2 67.2 174.2 67.4 C 174.2 67.5 174.2 67.6 174.3 67.7 C 174.4 67.8 174.6 67.8 174.8 67.8 C 175 67.8 175.3 67.8 175.6 67.6 C 176 67.3 176.3 67 176.6 66.5 L 176.3 66.4 C 176.1 66.7 175.9 67 175.7 67.2 C 175.6 67.3 175.6 67.3 175.5 67.3 C 175.5 67.3 175.5 67.3 175.4 67.2 C 175.4 67.2 175.4 67.1 175.4 67.1 C 175.4 67 175.4 66.8 175.6 66.5 L 177.2 61.5 L 174.7 61.9 L 174.7 61.9 Z" fill="#8d8469"/>
			<path d="M 181.5 61.5 C 181.8 60.7 182.1 60.1 182.2 59.9 C 182.4 59.3 182.7 58.9 183 58.6 C 183.2 58.5 183.5 58.4 183.8 58.4 C 183.9 58.4 184 58.4 184 58.4 C 184.1 58.5 184.1 58.5 184.1 58.6 C 184.1 58.6 184 58.7 183.9 58.8 C 183.8 58.9 183.7 58.9 183.7 59 C 183.7 59.1 183.8 59.2 183.9 59.3 C 183.9 59.4 184.1 59.4 184.2 59.4 C 184.4 59.4 184.5 59.4 184.7 59.2 C 184.8 59.1 184.8 59 184.8 58.8 C 184.8 58.6 184.7 58.4 184.5 58.3 C 184.3 58.1 184 58 183.7 58 C 183.4 58 183 58.1 182.7 58.3 C 182.3 58.5 182 58.8 181.6 59.2 C 181.4 59.4 181.1 59.9 180.9 60.4 C 180.7 60.8 180.5 61 180.3 61.2 C 180.2 61.3 180 61.4 179.8 61.4 C 179.6 61.5 179.3 61.5 178.8 61.5 L 178.7 61.9 L 180.3 61.9 L 178.8 66.9 C 178.5 68 178.3 68.6 178.2 68.8 C 178 69.3 177.8 69.6 177.6 69.9 C 177.4 70.1 177.2 70.3 176.9 70.5 C 176.7 70.6 176.4 70.6 176.2 70.6 C 176.1 70.6 176 70.6 176 70.6 C 175.9 70.6 175.9 70.5 175.9 70.5 C 175.9 70.5 176 70.4 176.1 70.3 C 176.2 70.2 176.3 70.1 176.3 70 C 176.3 69.9 176.2 69.8 176.1 69.7 C 176 69.6 175.9 69.6 175.8 69.6 C 175.6 69.6 175.5 69.7 175.3 69.8 C 175.2 69.9 175.1 70 175.1 70.2 C 175.1 70.4 175.2 70.6 175.4 70.7 C 175.6 70.9 175.9 71 176.1 71 C 176.6 71 177.1 70.8 177.5 70.5 C 178.1 70.1 178.7 69.4 179.2 68.4 C 179.6 67.6 180 66.6 180.4 65.3 L 181.4 61.9 L 182.5 61.9 L 182.6 61.5 L 181.5 61.5 L 181.5 61.5 Z" fill="#8d8469"/>
			<path d="M 185.6 64.6 C 186.4 64.3 186.9 64 187.3 63.5 C 187.6 63.2 187.8 62.8 187.8 62.5 C 187.8 62.2 187.7 62 187.5 61.8 C 187.2 61.6 186.9 61.5 186.4 61.5 C 185.7 61.5 185.1 61.7 184.4 62.1 C 183.8 62.5 183.3 63.1 182.9 63.8 C 182.4 64.5 182.2 65.2 182.2 65.8 C 182.2 66.3 182.4 66.8 182.7 67.2 C 183.1 67.6 183.5 67.8 184.2 67.8 C 185.2 67.8 186.2 67.3 187.3 66.2 L 187.1 65.9 C 186.5 66.4 186.1 66.7 185.8 66.9 C 185.5 67.1 185.2 67.1 184.8 67.1 C 184.4 67.1 184.1 67 183.8 66.7 C 183.5 66.4 183.4 66 183.4 65.6 L 183.4 65 C 184.3 64.9 185.1 64.8 185.6 64.6 L 185.6 64.6 ZM 184.6 62.6 C 185.1 62.1 185.6 61.9 186 61.9 C 186.2 61.9 186.4 61.9 186.5 62 C 186.6 62.2 186.7 62.3 186.7 62.5 C 186.7 62.8 186.5 63.1 186.3 63.4 C 186 63.8 185.6 64.1 185 64.3 C 184.6 64.5 184.1 64.6 183.4 64.7 C 183.7 63.8 184.1 63.1 184.6 62.6 L 184.6 62.6 Z" fill="#8d8469"/>
			<path d="M 200 62.9 C 200.3 62.9 200.4 63 200.5 63 C 200.6 63.1 200.7 63.2 200.7 63.3 C 200.7 63.8 200.2 64.5 199.2 65.4 C 198.6 64.5 198.2 63.3 197.9 62 C 199 61.6 199.7 61.3 200.2 60.8 C 200.6 60.3 200.8 59.9 200.8 59.4 C 200.8 59 200.7 58.7 200.4 58.4 C 200.1 58.1 199.8 58 199.3 58 C 198.6 58 198 58.3 197.5 58.8 C 197 59.4 196.7 60.1 196.7 61.1 L 196.7 61.5 L 196.7 62 C 195.4 62.5 194.5 62.9 194 63.3 C 193.4 63.9 193 64.7 193 65.5 C 193 66.2 193.2 66.8 193.7 67.2 C 194.1 67.6 194.8 67.8 195.6 67.8 C 196.2 67.8 196.7 67.8 197.1 67.6 C 197.6 67.4 198.1 67.2 198.6 66.8 C 198.9 67.2 199.2 67.4 199.6 67.6 C 199.9 67.8 200.3 67.8 200.7 67.8 C 201.1 67.8 201.5 67.8 201.8 67.7 C 202.1 67.6 202.4 67.4 202.7 67.1 L 202.3 67.1 C 202 67.4 201.6 67.5 201.2 67.5 C 200.5 67.5 199.9 66.9 199.3 65.9 C 199.7 65.5 200.1 64.9 200.7 64.3 C 201.1 63.8 201.4 63.4 201.7 63.3 C 202.1 63.1 202.4 63 202.9 62.9 L 202.9 62.6 L 200 62.6 L 200 62.9 L 200 62.9 ZM 197.9 60.9 L 197.9 60.3 C 197.9 59.6 198 59.1 198.2 58.8 C 198.5 58.5 198.8 58.4 199.1 58.4 C 199.4 58.4 199.7 58.4 199.8 58.6 C 200 58.8 200.1 59 200.1 59.3 C 200.1 59.8 199.9 60.2 199.5 60.6 C 199.2 60.9 198.7 61.2 197.9 61.5 L 197.9 60.9 L 197.9 60.9 ZM 197.4 64.6 C 197.6 65.3 197.9 65.9 198.2 66.4 C 197.8 66.8 197.4 67.1 197.1 67.3 C 196.9 67.4 196.5 67.5 196.2 67.5 C 195.6 67.5 195.1 67.3 194.7 66.9 C 194.3 66.5 194.1 66 194.1 65.3 C 194.1 64.8 194.3 64.2 194.7 63.7 C 195.2 63.2 195.8 62.8 196.7 62.4 C 196.9 63.1 197.1 63.8 197.4 64.6 L 197.4 64.6 Z" fill="#8d8469"/>
			<path d="M 214.6 58 L 208.5 66.1 C 208 66.7 207.6 67 207.3 67.2 C 207 67.4 206.7 67.5 206.4 67.5 L 206.3 67.8 L 209.2 67.8 L 209.3 67.5 C 209 67.5 208.8 67.4 208.7 67.3 C 208.5 67.2 208.5 67.1 208.5 66.9 C 208.5 66.8 208.5 66.7 208.6 66.6 C 208.6 66.5 208.8 66.3 209 66 L 210 64.7 L 213.6 64.7 L 213.5 66 C 213.4 66.5 213.4 66.8 213.3 66.9 C 213.3 67.1 213.2 67.2 213 67.3 C 212.8 67.4 212.6 67.5 212.2 67.5 L 212.1 67.5 L 212 67.8 L 215.7 67.8 L 215.8 67.5 C 215.5 67.5 215.2 67.5 215 67.4 C 214.9 67.3 214.7 67.2 214.7 67.1 C 214.6 67 214.5 66.9 214.5 66.7 C 214.5 66.6 214.6 66.4 214.6 66.1 L 215 58 L 214.6 58 L 214.6 58 ZM 213.6 64.3 L 210.2 64.3 L 213.8 59.6 L 213.6 64.3 L 213.6 64.3 Z" fill="#8d8469"/>
			<path d="M 217.2 61.9 L 216.8 62.2 L 217.2 62.2 C 217.4 62.2 217.5 62.2 217.6 62.2 C 217.8 62.2 217.9 62.2 218 62.2 C 218.1 62.3 218.1 62.4 218.1 62.5 C 218.1 62.6 218.1 62.8 217.9 63.3 L 216.5 67.8 L 217.6 67.8 L 218 66.6 C 218.1 66.2 218.3 65.7 218.6 65.3 C 219.1 64.6 219.5 63.9 220 63.4 C 220.4 63 220.8 62.6 221.3 62.4 C 221.5 62.3 221.6 62.2 221.8 62.2 C 221.9 62.2 222 62.2 222.1 62.3 C 222.1 62.4 222.2 62.4 222.2 62.5 C 222.2 62.7 222.1 63 222 63.4 L 221 66.3 C 220.8 66.8 220.7 67.2 220.7 67.4 C 220.7 67.6 220.7 67.7 220.8 67.7 C 220.9 67.8 221.1 67.8 221.3 67.8 C 221.5 67.8 221.7 67.8 222 67.6 C 222.3 67.4 222.7 67.1 223.2 66.5 L 222.8 66.4 C 222.6 66.8 222.4 67 222.2 67.2 C 222.1 67.3 222.1 67.3 222 67.3 C 222 67.3 222 67.3 222 67.2 C 221.9 67.2 221.9 67.2 221.9 67.1 C 221.9 67 222 66.8 222.1 66.5 L 223.1 63.6 C 223.3 63.1 223.4 62.8 223.4 62.5 C 223.4 62.2 223.3 62 223.1 61.8 C 222.9 61.6 222.7 61.5 222.4 61.5 C 221.9 61.5 221.4 61.7 220.9 62.1 C 220.4 62.5 219.6 63.3 218.6 64.6 L 219.5 61.5 L 217.2 61.9 L 217.2 61.9 Z" fill="#8d8469"/>
			<path d="M 224.6 61.9 L 224.3 62.2 L 224.7 62.2 C 224.9 62.2 225 62.2 225.1 62.2 C 225.2 62.2 225.4 62.2 225.4 62.2 C 225.5 62.3 225.6 62.4 225.6 62.5 C 225.6 62.6 225.5 62.8 225.4 63.3 L 223.9 67.8 L 225 67.8 L 225.4 66.6 C 225.6 66.2 225.8 65.7 226 65.3 C 226.5 64.6 227 63.9 227.4 63.4 C 227.9 63 228.3 62.6 228.7 62.4 C 228.9 62.3 229.1 62.2 229.2 62.2 C 229.3 62.2 229.4 62.2 229.5 62.3 C 229.6 62.4 229.6 62.4 229.6 62.5 C 229.6 62.7 229.6 63 229.4 63.4 L 228.4 66.3 C 228.2 66.8 228.1 67.2 228.1 67.4 C 228.1 67.6 228.2 67.7 228.3 67.7 C 228.4 67.8 228.5 67.8 228.7 67.8 C 228.9 67.8 229.1 67.8 229.4 67.6 C 229.8 67.4 230.2 67.1 230.6 66.5 L 230.2 66.4 C 230 66.8 229.8 67 229.6 67.2 C 229.6 67.3 229.5 67.3 229.5 67.3 C 229.5 67.3 229.4 67.3 229.4 67.2 C 229.4 67.2 229.4 67.2 229.4 67.1 C 229.4 67 229.4 66.8 229.5 66.5 L 230.6 63.6 C 230.7 63.1 230.8 62.8 230.8 62.5 C 230.8 62.2 230.7 62 230.6 61.8 C 230.4 61.6 230.2 61.5 229.9 61.5 C 229.4 61.5 228.9 61.7 228.3 62.1 C 227.8 62.5 227 63.3 226 64.6 L 227 61.5 L 224.6 61.9 L 224.6 61.9 Z" fill="#8d8469"/>
			<path d="M 237 61.5 L 236.8 62.2 C 236.4 63.3 236.1 64 235.8 64.5 C 235.6 65 235.2 65.5 234.8 66 C 234.3 66.5 234 66.9 233.7 67 C 233.5 67.2 233.3 67.3 233.1 67.3 C 233 67.3 232.9 67.2 232.9 67.2 C 232.8 67.1 232.8 67.1 232.8 67 C 232.8 66.8 232.9 66.4 233.1 65.9 L 233.9 63.7 C 234.1 63.1 234.2 62.6 234.2 62.4 C 234.2 62.1 234.2 61.9 234 61.8 C 233.9 61.6 233.8 61.5 233.6 61.5 C 233.3 61.5 233 61.6 232.7 61.8 C 232.3 62.1 231.9 62.5 231.5 63 L 231.9 63.2 C 232.2 62.7 232.4 62.5 232.5 62.4 C 232.6 62.3 232.7 62.3 232.8 62.3 C 232.9 62.3 232.9 62.3 233 62.3 C 233 62.4 233 62.4 233 62.5 C 233 62.6 232.9 62.9 232.7 63.5 L 232 65.6 C 231.7 66.3 231.6 66.9 231.6 67.2 C 231.6 67.4 231.6 67.6 231.8 67.7 C 232 67.8 232.2 67.8 232.4 67.8 C 232.9 67.8 233.4 67.6 234 67.1 C 234.6 66.7 235.3 65.8 236.1 64.5 C 235.8 65.7 235.5 66.4 235.4 66.8 C 235.3 67.1 235.3 67.2 235.3 67.4 C 235.3 67.5 235.4 67.6 235.5 67.7 C 235.6 67.8 235.7 67.8 235.9 67.8 C 236.1 67.8 236.3 67.8 236.6 67.6 C 237 67.4 237.3 67.1 237.7 66.5 L 237.3 66.4 C 237 66.9 236.8 67.2 236.8 67.2 C 236.7 67.3 236.6 67.3 236.6 67.3 C 236.5 67.3 236.5 67.3 236.5 67.2 C 236.5 67.2 236.5 67.2 236.5 67.1 C 236.5 66.9 236.6 66.5 236.8 65.9 L 238.1 61.5 L 237 61.5 L 237 61.5 Z" fill="#8d8469"/>
			<path d="M 241.6 59.2 C 241.5 59.3 241.4 59.4 241.4 59.6 C 241.4 59.7 241.5 59.9 241.6 60 C 241.7 60.1 241.8 60.1 242 60.1 C 242.1 60.1 242.2 60.1 242.4 60 C 242.5 59.9 242.5 59.7 242.5 59.6 C 242.5 59.4 242.5 59.3 242.4 59.2 C 242.3 59.1 242.1 59.1 242 59.1 C 241.8 59.1 241.7 59.1 241.6 59.2 L 241.6 59.2 ZM 239.9 61.9 L 239.9 62.2 C 240.2 62.2 240.4 62.1 240.4 62.1 C 240.6 62.1 240.7 62.2 240.7 62.2 C 240.8 62.3 240.8 62.4 240.8 62.4 C 240.8 62.6 240.8 62.8 240.6 63.3 L 239.5 66.5 C 239.4 66.9 239.3 67.2 239.3 67.4 C 239.3 67.5 239.4 67.6 239.5 67.7 C 239.6 67.8 239.7 67.8 239.9 67.8 C 240.2 67.8 240.5 67.8 240.7 67.6 C 241.1 67.3 241.5 67 241.8 66.5 L 241.4 66.4 C 241.2 66.7 241 67 240.9 67.2 C 240.8 67.3 240.7 67.3 240.7 67.3 C 240.6 67.3 240.6 67.3 240.6 67.2 C 240.5 67.2 240.5 67.1 240.5 67.1 C 240.5 67 240.6 66.8 240.7 66.5 L 242.3 61.5 L 239.9 61.9 L 239.9 61.9 Z" fill="#8d8469"/>
			<path d="M 246.5 59.8 C 246.1 60.4 245.7 60.9 245.3 61.1 C 244.9 61.4 244.5 61.5 243.9 61.6 L 243.9 61.9 L 245 61.9 L 243.7 66.1 C 243.5 66.7 243.4 67.1 243.4 67.3 C 243.4 67.5 243.5 67.6 243.6 67.7 C 243.8 67.8 244 67.8 244.2 67.8 C 244.4 67.8 244.7 67.8 245 67.6 C 245.4 67.5 245.8 67.1 246.3 66.5 L 245.9 66.3 C 245.5 66.8 245.3 67.1 245.2 67.2 C 245 67.3 244.9 67.4 244.8 67.4 C 244.7 67.4 244.7 67.3 244.7 67.3 C 244.6 67.3 244.6 67.2 244.6 67.2 C 244.6 67 244.7 66.8 244.9 66.3 L 246.3 61.9 L 247.4 61.9 L 247.4 61.5 L 246.4 61.5 L 246.9 59.8 L 246.5 59.8 L 246.5 59.8 Z" fill="#8d8469"/>
			<path d="M 249.8 59.2 C 249.7 59.3 249.6 59.4 249.6 59.6 C 249.6 59.7 249.7 59.9 249.8 60 C 249.9 60.1 250 60.1 250.2 60.1 C 250.3 60.1 250.4 60.1 250.5 60 C 250.7 59.9 250.7 59.7 250.7 59.6 C 250.7 59.4 250.7 59.3 250.6 59.2 C 250.4 59.1 250.3 59.1 250.2 59.1 C 250 59.1 249.9 59.1 249.8 59.2 L 249.8 59.2 ZM 248.1 61.9 L 248.1 62.2 C 248.3 62.2 248.5 62.1 248.6 62.1 C 248.7 62.1 248.8 62.2 248.9 62.2 C 249 62.3 249 62.4 249 62.4 C 249 62.6 249 62.8 248.8 63.3 L 247.7 66.5 C 247.6 66.9 247.5 67.2 247.5 67.4 C 247.5 67.5 247.6 67.6 247.7 67.7 C 247.8 67.8 247.9 67.8 248.1 67.8 C 248.4 67.8 248.6 67.8 248.9 67.6 C 249.3 67.3 249.7 67 250 66.5 L 249.6 66.4 C 249.4 66.7 249.2 67 249.1 67.2 C 249 67.3 248.9 67.3 248.9 67.3 C 248.8 67.3 248.8 67.3 248.8 67.2 C 248.7 67.2 248.7 67.1 248.7 67.1 C 248.7 67 248.8 66.8 248.9 66.5 L 250.5 61.5 L 248.1 61.9 L 248.1 61.9 Z" fill="#8d8469"/>
			<path d="M 254.8 64.6 C 255.6 64.3 256.2 64 256.6 63.5 C 256.9 63.2 257 62.8 257 62.5 C 257 62.2 256.9 62 256.7 61.8 C 256.5 61.6 256.1 61.5 255.6 61.5 C 255 61.5 254.3 61.7 253.7 62.1 C 253 62.5 252.5 63.1 252.1 63.8 C 251.7 64.5 251.5 65.2 251.5 65.8 C 251.5 66.3 251.6 66.8 252 67.2 C 252.3 67.6 252.8 67.8 253.4 67.8 C 254.4 67.8 255.4 67.3 256.5 66.2 L 256.3 65.9 C 255.7 66.4 255.3 66.7 255 66.9 C 254.7 67.1 254.4 67.1 254.1 67.1 C 253.7 67.1 253.3 67 253.1 66.7 C 252.8 66.4 252.6 66 252.6 65.6 L 252.6 65 C 253.6 64.9 254.3 64.8 254.8 64.6 L 254.8 64.6 ZM 253.8 62.6 C 254.3 62.1 254.8 61.9 255.2 61.9 C 255.5 61.9 255.6 61.9 255.7 62 C 255.9 62.2 255.9 62.3 255.9 62.5 C 255.9 62.8 255.8 63.1 255.5 63.4 C 255.2 63.8 254.8 64.1 254.3 64.3 C 253.9 64.5 253.3 64.6 252.7 64.7 C 252.9 63.8 253.3 63.1 253.8 62.6 L 253.8 62.6 Z" fill="#8d8469"/>
			<path d="M 262.7 61.5 C 262.6 61.7 262.5 61.9 262.3 61.9 C 262.2 61.9 262 61.8 261.8 61.7 C 261.6 61.6 261.4 61.6 261.4 61.6 C 261.2 61.5 261.1 61.5 261 61.5 C 260.5 61.5 260.1 61.7 259.7 62 C 259.4 62.3 259.3 62.6 259.3 63.1 C 259.3 63.3 259.3 63.6 259.5 63.8 C 259.6 64 259.8 64.4 260.2 64.9 C 260.6 65.4 260.9 65.7 261 66 C 261.1 66.1 261.1 66.3 261.1 66.5 C 261.1 66.8 261 67 260.8 67.2 C 260.6 67.4 260.4 67.5 260 67.5 C 259.6 67.5 259.2 67.4 259 67.1 C 258.7 66.8 258.6 66.4 258.5 65.7 L 258.2 65.7 L 257.8 67.8 L 258.1 67.8 C 258.2 67.6 258.3 67.5 258.5 67.5 C 258.6 67.5 258.7 67.5 258.9 67.6 C 259.3 67.8 259.7 67.8 260.1 67.8 C 260.7 67.8 261.2 67.7 261.6 67.3 C 262 66.9 262.3 66.5 262.3 66 C 262.3 65.7 262.2 65.4 262 65.1 C 261.8 64.8 261.5 64.3 260.9 63.7 C 260.7 63.4 260.6 63.2 260.5 63.1 C 260.4 63 260.4 62.8 260.4 62.7 C 260.4 62.4 260.5 62.2 260.6 62.1 C 260.7 61.9 260.9 61.9 261.2 61.9 C 261.5 61.9 261.7 62 261.9 62.3 C 262.1 62.6 262.2 63 262.3 63.6 L 262.6 63.6 L 263 61.5 L 262.7 61.5 L 262.7 61.5 Z" fill="#8d8469"/>
		</g>
		<rect x="7.7" y="95" width="294.1" height="30" fill="#152839"/>
		<g>
			<path d="M 265.8 49.2 L 265.8 51.3 L 117.7 51.3 L 117.7 49.2 L 265.8 49.2 Z" fill="#baaf83"/>
		</g>
		<text visibility="hidden" x="124.7" y="54.5" width="140.3" fill="#072852" style="font-size: 21px; font-family: Times New Roman; color: #072852; text-align: left; "><tspan><![CDATA[S]]></tspan><tspan style="font-size: 17px; "><![CDATA[TATE]]></tspan><tspan style="font-size: 20px; "><![CDATA[T]]></tspan><tspan style="font-size: 17px; "><![CDATA[RUST]]></tspan></text>
		<g opacity="0.9">
			<path d="M 129.2 27.5 L 130 27.5 L 131.2 32.5 L 130.2 32.9 C 129.5 31.5 128.7 30.4 127.6 29.6 C 126.7 28.9 125.7 28.5 124.6 28.5 C 124 28.5 123.4 28.7 122.9 28.9 C 122.3 29.2 122 29.5 121.7 29.9 C 121.4 30.2 121.3 30.6 121.3 31 C 121.3 31.4 121.4 31.7 121.6 32.1 C 121.8 32.4 122.1 32.7 122.5 33 C 122.9 33.2 123.6 33.5 124.5 33.8 L 127.4 34.7 C 127.8 34.8 128.3 35 129 35.3 C 129.7 35.6 130.2 36 130.6 36.3 C 131 36.6 131.3 37.1 131.5 37.6 C 131.7 38.1 131.8 38.6 131.8 39.2 C 131.8 40.5 131.3 41.6 130.2 42.6 C 129.1 43.5 127.7 44 126 44 C 125.1 44 124.3 43.9 123.6 43.6 C 122.9 43.3 122.1 42.9 121.3 42.2 L 120.8 43.7 L 120 43.7 L 119 37.9 L 120 37.7 C 120.4 38.8 120.9 39.7 121.6 40.4 C 122.2 41.2 122.9 41.7 123.6 42.1 C 124.4 42.5 125.2 42.7 126 42.7 C 127 42.7 128 42.4 128.8 41.7 C 129.4 41.1 129.8 40.5 129.8 39.7 C 129.8 39 129.5 38.4 129.1 38 C 128.6 37.5 127.7 37.1 126.4 36.7 L 123.6 35.9 C 122.1 35.4 121 34.8 120.3 34.1 C 119.7 33.3 119.4 32.5 119.4 31.5 C 119.4 30.8 119.6 30.1 120 29.5 C 120.4 28.9 121.1 28.3 121.9 27.9 C 122.8 27.5 123.7 27.3 124.7 27.3 C 125.6 27.3 126.4 27.4 127.2 27.7 C 127.8 27.9 128.3 28.3 128.8 28.7 L 129.2 27.5 Z" fill="#0a356b"/>
			<path d="M 134.5 28.8 L 135.2 28.8 L 135.3 29.2 L 143.9 29.2 L 144 28.8 L 144.7 28.8 L 146.2 33 L 145.3 33.3 C 144.8 32.2 144.3 31.4 143.7 31 C 143.1 30.5 142.4 30.3 141.5 30.3 C 141.1 30.3 140.8 30.3 140.8 30.3 C 140.7 30.3 140.6 30.4 140.6 30.5 C 140.6 30.5 140.6 30.8 140.6 31.2 L 140.6 41.2 C 140.6 41.7 140.6 42 140.6 42.2 C 140.7 42.4 140.8 42.5 140.9 42.6 C 140.9 42.7 141.1 42.7 141.2 42.8 C 141.4 42.8 141.8 42.8 142.3 42.8 L 142.3 43.7 L 137 43.7 L 137 42.8 C 137.5 42.8 137.9 42.8 138 42.8 C 138.3 42.7 138.4 42.6 138.5 42.4 C 138.6 42.2 138.7 41.8 138.7 41.3 L 138.7 31.1 C 138.7 30.7 138.7 30.6 138.6 30.5 C 138.6 30.4 138.6 30.4 138.5 30.3 C 138.4 30.3 138.2 30.3 138 30.3 C 137.2 30.3 136.7 30.4 136.2 30.6 C 135.8 30.8 135.4 31.1 135 31.5 C 134.6 32 134.3 32.6 134 33.3 L 133.1 33 L 134.5 28.8 Z" fill="#0a356b"/>
			<path d="M 152.6 29.2 L 154.2 29.2 L 158.6 41.3 C 158.8 42 159 42.4 159.2 42.6 C 159.4 42.8 159.7 42.8 160.1 42.8 L 160.3 42.8 L 160.3 43.7 L 155.4 43.7 L 155.4 42.8 C 155.5 42.8 155.7 42.8 155.8 42.8 C 156.2 42.8 156.4 42.8 156.5 42.7 C 156.7 42.6 156.8 42.4 156.8 42.2 C 156.8 42.1 156.7 41.7 156.5 41.2 L 155.6 38.4 L 150.5 38.4 L 149.4 41.5 C 149.3 41.8 149.2 42 149.2 42.2 C 149.2 42.3 149.3 42.4 149.4 42.5 C 149.4 42.6 149.5 42.7 149.6 42.8 C 149.8 42.8 149.9 42.8 150.2 42.8 C 150.4 42.8 150.5 42.8 150.7 42.8 L 150.7 43.7 L 146.5 43.7 L 146.5 42.8 C 146.9 42.8 147.2 42.8 147.3 42.7 C 147.5 42.7 147.6 42.5 147.8 42.3 C 147.9 42.2 148.1 41.8 148.3 41.2 L 152.6 29.2 ZM 150.9 37.3 L 155.2 37.3 L 153 31.1 L 150.9 37.3 Z" fill="#0a356b"/>
			<path d="M 162.1 28.8 L 162.8 28.8 L 162.9 29.2 L 171.5 29.2 L 171.5 28.8 L 172.3 28.8 L 173.7 33 L 172.8 33.3 C 172.4 32.2 171.9 31.4 171.3 31 C 170.7 30.5 170 30.3 169 30.3 C 168.6 30.3 168.4 30.3 168.3 30.3 C 168.3 30.3 168.2 30.4 168.2 30.5 C 168.2 30.5 168.1 30.8 168.1 31.2 L 168.1 41.2 C 168.1 41.7 168.2 42 168.2 42.2 C 168.3 42.4 168.3 42.5 168.4 42.6 C 168.5 42.7 168.7 42.7 168.8 42.8 C 169 42.8 169.3 42.8 169.9 42.8 L 169.9 43.7 L 164.5 43.7 L 164.5 42.8 C 165.1 42.8 165.5 42.8 165.6 42.8 C 165.9 42.7 166 42.6 166.1 42.4 C 166.2 42.2 166.3 41.8 166.3 41.3 L 166.3 31.1 C 166.3 30.7 166.3 30.6 166.2 30.5 C 166.2 30.4 166.1 30.4 166.1 30.3 C 166 30.3 165.8 30.3 165.5 30.3 C 164.8 30.3 164.2 30.4 163.8 30.6 C 163.4 30.8 163 31.1 162.6 31.5 C 162.2 32 161.9 32.6 161.6 33.3 L 160.7 33 L 162.1 28.8 Z" fill="#0a356b"/>
			<path d="M 175 29.2 L 186.3 29.2 L 187.6 33.1 L 186.8 33.4 C 186.5 32.8 186.3 32.3 186 31.9 C 185.8 31.6 185.5 31.3 185.1 31 C 184.7 30.8 184.4 30.6 184 30.5 C 183.6 30.4 183 30.4 182 30.4 L 178.6 30.4 L 178.6 35.7 L 180.3 35.7 C 180.9 35.7 181.4 35.6 181.7 35.4 C 182 35.2 182.2 34.9 182.4 34.6 C 182.5 34.3 182.5 33.9 182.5 33.3 L 182.5 33.1 L 183.5 33.1 L 183.5 39.4 L 182.5 39.4 L 182.5 38.9 C 182.5 38.4 182.5 38 182.4 37.8 C 182.3 37.6 182.2 37.4 182 37.2 C 181.8 37 181.6 36.9 181.4 36.8 C 181.2 36.7 180.8 36.7 180.3 36.7 L 178.6 36.7 L 178.6 41.4 C 178.6 41.9 178.6 42.2 178.7 42.3 C 178.7 42.4 178.8 42.5 178.9 42.5 C 179 42.6 179.3 42.6 179.7 42.6 L 181.8 42.6 C 183 42.6 183.9 42.5 184.5 42.2 C 185.2 41.9 185.8 41.4 186.3 40.8 C 186.7 40.4 187.1 39.7 187.4 38.9 L 188.3 39.2 L 186.8 43.7 L 175 43.7 L 175 42.8 L 175.4 42.8 C 175.9 42.8 176.2 42.8 176.3 42.8 C 176.4 42.7 176.6 42.5 176.7 42.3 C 176.7 42.2 176.8 41.9 176.8 41.4 L 176.8 31.5 C 176.8 31 176.7 30.7 176.6 30.5 C 176.6 30.4 176.4 30.3 176.2 30.2 C 176.1 30.1 175.7 30.1 175 30.1 L 175 29.2 Z" fill="#0a356b"/>
			<path d="M 190.6 27 L 191.4 27 L 191.5 27.5 L 201.1 27.5 L 201.2 27 L 202 27 L 203.6 31.8 L 202.6 32.1 C 202.1 30.9 201.6 30 200.9 29.5 C 200.2 28.9 199.4 28.7 198.4 28.7 C 197.9 28.7 197.7 28.7 197.6 28.7 C 197.5 28.8 197.4 28.8 197.4 28.9 C 197.4 29 197.4 29.3 197.4 29.7 L 197.4 41 C 197.4 41.5 197.4 41.8 197.4 42 C 197.5 42.2 197.6 42.4 197.7 42.5 C 197.8 42.6 197.9 42.6 198.1 42.7 C 198.3 42.7 198.7 42.7 199.3 42.7 L 199.3 43.7 L 193.3 43.7 L 193.3 42.7 C 194 42.7 194.4 42.7 194.5 42.7 C 194.8 42.6 195 42.5 195.1 42.2 C 195.2 42 195.3 41.6 195.3 41 L 195.3 29.6 C 195.3 29.2 195.3 29 195.2 28.9 C 195.2 28.8 195.1 28.8 195 28.7 C 194.9 28.7 194.7 28.7 194.5 28.7 C 193.6 28.7 193 28.8 192.5 29 C 192 29.2 191.6 29.6 191.1 30.1 C 190.7 30.6 190.3 31.3 190 32.1 L 189 31.8 L 190.6 27 Z" fill="#0a356b"/>
			<path d="M 204.9 29.2 L 212.1 29.2 C 213.5 29.2 214.5 29.4 215.2 29.7 C 215.9 30 216.4 30.4 216.8 31 C 217.2 31.5 217.4 32.2 217.4 32.9 C 217.4 33.7 217.2 34.3 216.8 34.9 C 216.4 35.5 215.9 36 215.2 36.3 C 214.5 36.6 213.6 36.8 212.5 36.8 L 216.2 41.5 C 216.5 41.9 216.7 42.1 216.8 42.2 C 217 42.4 217.2 42.6 217.5 42.7 C 217.7 42.8 218 42.8 218.4 42.8 L 218.6 42.8 L 218.6 43.7 L 215.4 43.7 L 210.3 36.8 L 208.5 36.8 L 208.5 41.3 C 208.5 41.8 208.5 42.1 208.6 42.2 C 208.6 42.4 208.8 42.6 208.9 42.7 C 209.1 42.8 209.4 42.8 209.9 42.8 L 210.2 42.8 L 210.2 43.7 L 204.9 43.7 L 204.9 42.8 L 205.4 42.8 C 205.7 42.8 206 42.8 206.1 42.8 C 206.2 42.7 206.3 42.6 206.4 42.5 C 206.5 42.4 206.6 42.2 206.6 42.1 C 206.7 42 206.7 41.6 206.7 41 L 206.7 31.5 C 206.7 31.1 206.6 30.8 206.5 30.6 C 206.5 30.5 206.4 30.3 206.2 30.2 C 206.1 30.2 205.8 30.1 205.5 30.1 L 204.9 30.1 L 204.9 29.2 ZM 208.5 30.4 L 208.5 35.8 L 211.4 35.8 C 212.4 35.8 213 35.8 213.4 35.6 C 214 35.5 214.4 35.2 214.8 34.7 C 215.1 34.3 215.2 33.7 215.2 33 C 215.2 32.5 215.1 32 214.9 31.6 C 214.7 31.2 214.3 30.9 213.9 30.7 C 213.5 30.5 212.9 30.4 212.1 30.4 L 208.5 30.4 Z" fill="#0a356b"/>
			<path d="M 220.1 29.2 L 225.5 29.2 L 225.5 30.1 L 225.1 30.1 C 224.7 30.1 224.4 30.2 224.2 30.3 C 224 30.3 223.9 30.4 223.9 30.6 C 223.8 30.8 223.7 31.1 223.7 31.6 L 223.7 38.1 C 223.7 39.3 223.9 40.2 224.1 40.7 C 224.4 41.3 224.9 41.8 225.5 42.1 C 226.1 42.5 226.8 42.7 227.6 42.7 C 228.3 42.7 229 42.5 229.7 42.1 C 230.4 41.7 230.9 41.2 231.2 40.6 C 231.4 40.1 231.6 39.2 231.6 38 L 231.6 31.7 C 231.6 31.2 231.5 30.9 231.4 30.7 C 231.3 30.5 231.2 30.4 231 30.3 C 230.9 30.2 230.6 30.1 230.2 30.1 L 229.8 30.1 L 229.8 29.2 L 234.5 29.2 L 234.5 30.1 L 234.2 30.1 C 233.6 30.1 233.3 30.2 233.1 30.4 C 232.9 30.6 232.8 31 232.8 31.6 L 232.8 38.3 C 232.8 39.5 232.6 40.5 232.1 41.3 C 231.7 42.1 231.1 42.8 230.2 43.3 C 229.4 43.7 228.4 44 227.3 44 C 226.2 44 225.3 43.7 224.4 43.2 C 223.5 42.8 222.9 42.2 222.5 41.4 C 222.1 40.7 221.9 39.8 221.9 38.7 L 221.9 31.6 C 221.9 31.2 221.8 30.8 221.7 30.6 C 221.7 30.5 221.6 30.3 221.4 30.2 C 221.2 30.2 221 30.1 220.6 30.1 L 220.1 30.1 L 220.1 29.2 Z" fill="#0a356b"/>
			<path d="M 246.3 29.2 L 247 29.2 L 248.1 33.7 L 247.2 34 C 246.6 32.7 245.8 31.8 244.8 31 C 244 30.4 243.1 30.1 242.2 30.1 C 241.6 30.1 241.1 30.3 240.6 30.5 C 240.1 30.7 239.8 31 239.5 31.3 C 239.3 31.7 239.2 32 239.2 32.4 C 239.2 32.7 239.3 33 239.5 33.3 C 239.6 33.6 239.9 33.9 240.3 34.1 C 240.6 34.3 241.2 34.6 242.1 34.8 L 244.7 35.6 C 245 35.7 245.5 35.9 246.1 36.2 C 246.7 36.5 247.2 36.8 247.5 37.1 C 247.8 37.4 248.1 37.8 248.3 38.2 C 248.5 38.7 248.6 39.1 248.6 39.7 C 248.6 40.8 248.1 41.8 247.1 42.7 C 246.2 43.5 244.9 44 243.4 44 C 242.6 44 241.9 43.9 241.3 43.6 C 240.6 43.4 239.9 43 239.2 42.3 L 238.8 43.7 L 238.1 43.7 L 237.1 38.5 L 238.1 38.3 C 238.4 39.3 238.9 40.1 239.4 40.8 C 240 41.4 240.6 42 241.3 42.3 C 242 42.6 242.7 42.8 243.4 42.8 C 244.3 42.8 245.2 42.5 245.9 41.9 C 246.5 41.4 246.8 40.8 246.8 40.1 C 246.8 39.5 246.6 39 246.1 38.6 C 245.7 38.2 244.9 37.8 243.8 37.5 L 241.3 36.7 C 239.9 36.3 238.9 35.7 238.3 35.1 C 237.8 34.4 237.5 33.7 237.5 32.8 C 237.5 32.2 237.6 31.6 238 31 C 238.4 30.4 239 30 239.7 29.6 C 240.5 29.2 241.4 29 242.3 29 C 243.1 29 243.8 29.1 244.5 29.4 C 245 29.6 245.5 29.9 245.9 30.2 L 246.3 29.2 Z" fill="#0a356b"/>
			<path d="M 251.4 28.8 L 252.1 28.8 L 252.2 29.2 L 260.7 29.2 L 260.8 28.8 L 261.5 28.8 L 263 33 L 262.1 33.3 C 261.7 32.2 261.2 31.4 260.6 31 C 260 30.5 259.2 30.3 258.3 30.3 C 257.9 30.3 257.7 30.3 257.6 30.3 C 257.5 30.3 257.5 30.4 257.4 30.5 C 257.4 30.5 257.4 30.8 257.4 31.2 L 257.4 41.2 C 257.4 41.7 257.4 42 257.5 42.2 C 257.5 42.4 257.6 42.5 257.7 42.6 C 257.8 42.7 257.9 42.7 258.1 42.8 C 258.2 42.8 258.6 42.8 259.2 42.8 L 259.2 43.7 L 253.8 43.7 L 253.8 42.8 C 254.4 42.8 254.7 42.8 254.9 42.8 C 255.1 42.7 255.3 42.6 255.4 42.4 C 255.5 42.2 255.5 41.8 255.5 41.3 L 255.5 31.1 C 255.5 30.7 255.5 30.6 255.5 30.5 C 255.5 30.4 255.4 30.4 255.3 30.3 C 255.2 30.3 255.1 30.3 254.8 30.3 C 254.1 30.3 253.5 30.4 253.1 30.6 C 252.6 30.8 252.2 31.1 251.8 31.5 C 251.4 32 251.1 32.6 250.8 33.3 L 249.9 33 L 251.4 28.8 Z" fill="#0a356b"/>
		</g>
		<g>
			<g>
				<path d="M 57.6 46.2 L 41.3 62.9 L 24.9 46.2 L 41.3 29.5 L 57.6 46.2 Z" fill="#b6a985"/>
				<path d="M 103.8 46.2 L 87.5 62.9 L 71.1 46.2 L 87.5 29.5 L 103.8 46.2 Z" fill="#b6a985"/>
				<path d="M 41.7 24.1 L 63 45.9 L 41.7 24.1 Z" fill="#726c54"/>
				<path d="M 20.5 45.9 L 41.7 24.1 L 20.5 45.9 Z" fill="#9a9170"/>
				<path d="M 41.7 62.2 L 41.7 67.7 L 20.5 45.9 L 25.8 45.9 L 41.7 62.2 Z" fill="#b1a781"/>
				<path d="M 25.8 45.9 L 20.5 45.9 L 41.7 24.1 L 41.7 29.6 L 25.8 45.9 Z" fill="#e2d4a4"/>
				<path d="M 57.7 45.9 L 63 45.9 L 41.7 67.7 L 41.7 62.2 L 57.7 45.9 Z" fill="#898064"/>
				<path d="M 41.7 29.6 L 41.7 24.1 L 63 45.9 L 57.7 45.9 L 41.7 29.6 Z" fill="#a79c7a"/>
				<path d="M 41.7 29.6 L 57.7 45.9 L 41.7 62.2 L 25.8 45.9 L 41.7 29.6 Z" fill="#bdb288"/>
				<path d="M 86.6 24.1 L 107.9 45.9 L 86.6 24.1 Z" fill="#726c54"/>
				<path d="M 65.4 45.9 L 86.6 24.1 L 65.4 45.9 Z" fill="#9a9170"/>
				<path d="M 86.6 62.2 L 86.6 67.7 L 65.4 45.9 L 70.7 45.9 L 86.6 62.2 Z" fill="#b1a781"/>
				<path d="M 70.7 45.9 L 65.4 45.9 L 86.6 24.1 L 86.6 29.6 L 70.7 45.9 Z" fill="#e2d4a4"/>
				<path d="M 102.6 45.9 L 107.9 45.9 L 86.6 67.7 L 86.6 62.2 L 102.6 45.9 Z" fill="#898064"/>
				<path d="M 86.6 29.6 L 86.6 24.1 L 107.9 45.9 L 102.6 45.9 L 86.6 29.6 Z" fill="#a79c7a"/>
				<path d="M 86.6 29.6 L 102.6 45.9 L 86.6 62.2 L 70.7 45.9 L 86.6 29.6 Z" fill="#bdb288"/>
				<path d="M 64.3 49.5 L 66.5 51.6 L 64.2 50.7 L 64.3 50.8 L 64.3 49.5 Z" fill="#766e56"/>
				<path d="M 62.1 51.6 L 64.3 49.5 L 64.3 50.8 L 64.4 50.7 L 62.1 51.6 Z" fill="#5c5543"/>
			</g>
			<path d="M 64.3 50.7 L 64.3 50.8 L 64.3 50.7 L 62.1 51.6 L 66.5 51.6 L 64.3 50.7 ZM 64.3 50.7 L 64.3 50.7 L 64.2 50.7 L 64.3 50.7 Z" fill="#6c644f"/>
			<path d="M 62.1 51.6 L 64.3 49.5 L 62.1 51.6 Z" fill="#6d6650"/>
			<path d="M 64.3 49.5 L 66.5 51.6 L 64.3 49.5 Z" fill="#5c5543"/>
			<path d="M 64.4 50.7 L 62.1 51.6 L 64.3 49.5 L 64.3 50.8 L 64.4 50.7 Z" fill="#897f66"/>
			<path d="M 64.3 50.8 L 64.3 49.5 L 66.5 51.6 L 64.2 50.7 L 64.3 50.8 Z" fill="#5c5543"/>
			<path d="M 64.2 50.7 L 66.5 51.6 L 62.1 51.6 L 64.4 50.7 L 64.2 50.7 Z" fill="#5d5745"/>
			<path d="M 64.2 50.7 L 64.3 50.8 L 64.4 50.7 L 64.2 50.7 Z" fill="#9c9174"/>
			<path d="M 59.6 55.8 L 59.3 56.1 L 69.6 56.1 L 69.3 55.8 L 59.6 55.8 Z" fill="#9c9174"/>
			<path d="M 70 55.2 L 71.4 56.8 L 69.3 55.8 L 69.6 56.1 L 70 55.2 Z" fill="#776e58"/>
			<path d="M 57.2 56.8 L 58.9 55.2 L 59.3 56.1 L 59.6 55.8 L 57.2 56.8 Z" fill="#5c5543"/>
			<path d="M 58.9 55.2 L 70 55.2 L 58.9 55.2 Z" fill="#5c5644"/>
			<path d="M 57.2 56.8 L 58.9 55.2 L 57.2 56.8 Z" fill="#6c654f"/>
			<path d="M 70 55.2 L 71.4 56.8 L 70 55.2 Z" fill="#5c5543"/>
			<path d="M 59.3 56.1 L 58.9 55.2 L 70 55.2 L 69.6 56.1 L 59.3 56.1 Z" fill="#6c644f"/>
			<path d="M 69.3 55.8 L 71.4 56.8 L 57.2 56.8 L 59.6 55.8 L 69.3 55.8 Z" fill="#5d5745"/>
			<path d="M 69.6 56.1 L 70 55.2 L 71.4 56.8 L 69.3 55.8 L 69.6 56.1 Z" fill="#5c5543"/>
			<path d="M 59.6 55.8 L 57.2 56.8 L 58.9 55.2 L 59.3 56.1 L 59.6 55.8 Z" fill="#877f64"/>
			<path d="M 49.8 77 L 49.9 77.1 L 78.6 77.1 L 78.7 77 L 49.8 77 Z" fill="#9c9174"/>
			<path d="M 81 76.2 L 79.1 78 L 78.7 77 L 78.6 77.1 L 81 76.2 Z" fill="#897f66"/>
			<path d="M 49.4 78 L 47.8 76.2 L 49.9 77.1 L 49.8 77 L 49.4 78 Z" fill="#5c5543"/>
			<path d="M 47.8 76.2 L 81 76.2 L 47.8 76.2 Z" fill="#5c5644"/>
			<path d="M 49.9 77.1 L 47.8 76.2 L 81 76.2 L 78.6 77.1 L 49.9 77.1 Z" fill="#6c644f"/>
			<path d="M 78.6 77.1 L 81 76.2 L 79.1 78 L 78.7 77 L 78.6 77.1 Z" fill="#5c5543"/>
			<path d="M 78.7 77 L 79.1 78 L 49.4 78 L 49.8 77 L 78.7 77 Z" fill="#5d5745"/>
			<path d="M 49.8 77 L 49.4 78 L 47.8 76.2 L 49.9 77.1 L 49.8 77 Z" fill="#796f58"/>
			<path d="M 49.2 66.4 L 49 66.5 L 79.7 66.5 L 79.6 66.4 L 49.2 66.4 Z" fill="#9c9174"/>
			<path d="M 80 65.6 L 81.8 67.4 L 79.6 66.4 L 79.7 66.5 L 80 65.6 Z" fill="#766d57"/>
			<path d="M 46.9 67.4 L 48.7 65.6 L 49 66.5 L 49.2 66.4 L 46.9 67.4 Z" fill="#5c5543"/>
			<path d="M 48.7 65.6 L 80 65.6 L 48.7 65.6 Z" fill="#5c5644"/>
			<path d="M 46.9 67.4 L 48.7 65.6 L 46.9 67.4 Z" fill="#6d6650"/>
			<path d="M 80 65.6 L 81.8 67.4 L 80 65.6 Z" fill="#5c5543"/>
			<path d="M 49 66.5 L 48.7 65.6 L 80 65.6 L 79.7 66.5 L 49 66.5 Z" fill="#6c644f"/>
			<path d="M 79.6 66.4 L 81.8 67.4 L 46.9 67.4 L 49.2 66.4 L 79.6 66.4 Z" fill="#5d5745"/>
			<path d="M 79.7 66.5 L 80 65.6 L 81.8 67.4 L 79.6 66.4 L 79.7 66.5 Z" fill="#5c5543"/>
			<path d="M 49.2 66.4 L 46.9 67.4 L 48.7 65.6 L 49 66.5 L 49.2 66.4 Z" fill="#897f66"/>
			<path d="M 54.3 61.1 L 54.2 61.2 L 74.5 61.2 L 74.3 61.1 L 54.3 61.1 Z" fill="#9c9174"/>
			<path d="M 74.8 60.3 L 76.6 62.1 L 74.3 61.1 L 74.5 61.2 L 74.8 60.3 Z" fill="#766d57"/>
			<path d="M 52.2 62.1 L 53.8 60.3 L 54.2 61.2 L 54.3 61.1 L 52.2 62.1 Z" fill="#5c5543"/>
			<path d="M 53.8 60.3 L 74.8 60.3 L 53.8 60.3 Z" fill="#5c5644"/>
			<path d="M 52.2 62.1 L 53.8 60.3 L 52.2 62.1 Z" fill="#6e6651"/>
			<path d="M 74.8 60.3 L 76.6 62.1 L 74.8 60.3 Z" fill="#5c5543"/>
			<path d="M 54.3 61.1 L 52.2 62.1 L 53.8 60.3 L 54.2 61.2 L 54.3 61.1 Z" fill="#8a8066"/>
			<path d="M 54.2 61.2 L 53.8 60.3 L 74.8 60.3 L 74.5 61.2 L 54.2 61.2 Z" fill="#6c644f"/>
			<path d="M 74.3 61.1 L 54.3 61.1 L 54.2 61.2 L 54.2 61.2 L 52.2 62.1 L 76.6 62.1 L 74.3 61.1 Z" fill="#5d5745"/>
			<path d="M 74.5 61.2 L 74.8 60.3 L 76.6 62.1 L 74.3 61.1 L 74.5 61.2 Z" fill="#5c5543"/>
			<path d="M 84.9 71.9 L 43.9 71.9 L 44.4 71.3 L 44.8 71.7 L 84 71.7 L 84.4 71.3 L 84.9 71.9 Z" fill="#9c9174"/>
			<path d="M 85.3 70.9 L 84.9 71.9 L 84.4 71.3 L 85.7 71.3 L 85.3 70.9 Z" fill="#746c55"/>
			<path d="M 43.1 71.3 L 44.4 71.3 L 43.9 71.9 L 43.5 70.9 L 43.1 71.3 Z" fill="#5c5543"/>
			<path d="M 43.5 70.9 L 85.3 70.9 L 43.5 70.9 Z" fill="#5c5644"/>
			<path d="M 84.4 71.3 L 85.7 71.3 L 84.3 72.7 L 84 71.7 L 84.4 71.3 Z" fill="#5c5543"/>
			<path d="M 44.8 71.7 L 44.5 72.7 L 43.1 71.3 L 44.4 71.3 L 44.8 71.7 Z" fill="#756c56"/>
			<path d="M 84 71.7 L 84.3 72.7 L 44.5 72.7 L 44.8 71.7 L 84 71.7 Z" fill="#5d5745"/>
			<path d="M 43.9 71.9 L 43.5 70.9 L 85.3 70.9 L 84.9 71.9 L 43.9 71.9 Z" fill="#6c644f"/>
			<path d="M 84.9 71.9 L 84.4 71.3 L 85.7 71.3 L 85.3 70.9 L 84.9 71.9 Z" fill="#5c5543"/>
			<path d="M 44.4 71.3 L 43.9 71.9 L 43.5 70.9 L 43.1 71.3 L 44.4 71.3 Z" fill="#8a8066"/>
			<path d="M 44.6 21.2 L 56.2 21.2 L 62.5 40.1 L 44.6 21.2 Z" fill="#bdb288"/>
			<path d="M 44.4 19.8 L 56.1 19.8 L 50.2 14.8 L 44.4 19.8 Z" fill="#bdb288"/>
			<path d="M 58.8 19.8 L 70.5 19.8 L 64.6 14.8 L 58.8 19.8 Z" fill="#bdb288"/>
			<path d="M 77.4 14 L 65.8 14 L 71.7 19 L 77.4 14 Z" fill="#bdb288"/>
			<path d="M 63.6 14 L 51.9 14 L 57.8 19 L 63.6 14 Z" fill="#bdb288"/>
			<path d="M 73.2 19.8 L 84.9 19.8 L 79 14.8 L 73.2 19.8 Z" fill="#bdb288"/>
			<path d="M 58.8 21.2 L 70.5 21.2 L 64.5 40.1 L 58.8 21.2 Z" fill="#a79c7a"/>
			<path d="M 84.5 21.2 L 72.8 21.2 L 66.5 40.1 L 84.5 21.2 Z" fill="#bdb288"/>
		</g>
		<path opacity="0.6" filter="url(#filter13)" d="M 142.4 -0.9 L -2 129 L 199 -18 L 193.6 -16.5 L 142.4 -0.9 Z" fill="url(#gradient24)"/>
		<path opacity="0.7" filter="url(#filter14)" d="M 94.4 -20.9 L -50 109 L 151 -38 L 145.6 -36.5 L 94.4 -20.9 Z" fill="url(#gradient25)"/>
	</g>
</svg>