<?xml version="1.0" standalone="no"?>

<svg viewBox="0 0 44 44" style="background-color:#ffffff00" version="1.1" xmlns="http://www.w3.org/2000/svg" xmlns:xlink="http://www.w3.org/1999/xlink" xml:space="preserve" x="0px" y="0px" width="100%" height="100%">
	<defs>
		<linearGradient id="gradient1" x1="50%" y1="-5.6%" x2="50%" y2="49.5%">
			<stop stop-color="#a77c2d" stop-opacity="1" offset="1%"/>
			<stop stop-color="#d8a752" stop-opacity="1" offset="11%"/>
			<stop stop-color="#ffc96a" stop-opacity="1" offset="99%"/>
		</linearGradient>
		<linearGradient id="gradient2" x1="50%" y1="44.2%" x2="50%" y2="-2.4%">
			<stop stop-color="#b18430" stop-opacity="1" offset="1%"/>
			<stop stop-color="#df9b25" stop-opacity="1" offset="11%"/>
			<stop stop-color="#ffc96a" stop-opacity="1" offset="99%"/>
		</linearGradient>
		<linearGradient id="gradient3" x1="50%" y1="30%" x2="50%" y2="-15.7%">
			<stop stop-color="#a77c2d" stop-opacity="1" offset="1%"/>
			<stop stop-color="#d8a752" stop-opacity="1" offset="11%"/>
			<stop stop-color="#ffc96a" stop-opacity="1" offset="99%"/>
		</linearGradient>
		<linearGradient id="gradient4" x1="50%" y1="26%" x2="50%" y2="0.1%">
			<stop stop-color="#d8d8d8" stop-opacity="1" offset="6%"/>
			<stop stop-color="#ffffff" stop-opacity="1" offset="99%"/>
		</linearGradient>
		<linearGradient id="gradient5" x1="52.8%" y1="23%" x2="59.9%" y2="-42.5%">
			<stop stop-color="#dacfc2" stop-opacity="1" offset="8%"/>
			<stop stop-color="#ffffff" stop-opacity="1" offset="99%"/>
		</linearGradient>
		<linearGradient id="gradient6" x1="65.7%" y1="1.4%" x2="34.5%" y2="97.9%">
			<stop stop-color="#a77c2d" stop-opacity="1" offset="1%"/>
			<stop stop-color="#d8a752" stop-opacity="1" offset="11%"/>
			<stop stop-color="#ffc96a" stop-opacity="1" offset="99%"/>
		</linearGradient>
		<linearGradient id="gradient7" x1="50%" y1="99.8%" x2="50%" y2="1.6%">
			<stop stop-color="#b18430" stop-opacity="1" offset="1%"/>
			<stop stop-color="#df9b25" stop-opacity="1" offset="11%"/>
			<stop stop-color="#ffc96a" stop-opacity="1" offset="99%"/>
		</linearGradient>
		<linearGradient id="gradient8" x1="50%" y1="99.2%" x2="50%" y2="-48.6%">
			<stop stop-color="#aa7e2e" stop-opacity="1" offset="1%"/>
			<stop stop-color="#d89624" stop-opacity="1" offset="11%"/>
			<stop stop-color="#f7c367" stop-opacity="1" offset="99%"/>
		</linearGradient>
	</defs>
	<g id="Layer%201">
		<path d="M 41 37 C 41 39 39.3 40.6 37.3 40.6 L 6.7 40.6 C 4.7 40.6 3 39 3 37 L 3 6.7 C 3 4.6 4.7 3 6.7 3 L 37.3 3 C 39.3 3 41 4.6 41 6.7 L 41 37 Z" fill="url(#gradient1)"/>
		<path d="M 41 37.3 C 41 39.4 39.3 41 37.3 41 L 6.7 41 C 4.7 41 3 39.4 3 37.3 L 3 7 C 3 5 4.7 3.4 6.7 3.4 L 37.3 3.4 C 39.3 3.4 41 5 41 7 L 41 37.3 Z" fill="url(#gradient2)"/>
		<path d="M 39.8 33 C 39.8 34.9 38.3 36.4 36.4 36.4 L 7.6 36.4 C 5.7 36.4 4.2 34.9 4.2 33 L 4.2 7.7 C 4.2 5.9 5.7 4.3 7.6 4.3 L 36.4 4.3 C 38.3 4.3 39.8 5.9 39.8 7.7 L 39.8 33 Z" fill="url(#gradient3)"/>
		<path d="M 39.8 33.4 C 39.8 35.3 38.3 36.9 36.4 36.9 L 7.6 36.9 C 5.7 36.9 4.2 35.3 4.2 33.4 L 4.2 8.2 C 4.2 6.3 5.7 4.8 7.6 4.8 L 36.4 4.8 C 38.3 4.8 39.8 6.3 39.8 8.2 L 39.8 33.4 Z" fill="#d5d2ce"/>
		<path d="M 39.8 33.6 C 39.8 35.5 38.3 37 36.4 37 L 7.6 37 C 5.7 37 4.2 35.5 4.2 33.6 L 4.2 8.4 C 4.2 6.5 5.7 4.9 7.6 4.9 L 36.4 4.9 C 38.3 4.9 39.8 6.5 39.8 8.4 L 39.8 33.6 Z" fill="#ffffff"/>
		<path d="M 39.8 34.1 C 39.8 36 38.3 37.5 36.4 37.5 L 7.6 37.5 C 5.7 37.5 4.2 36 4.2 34.1 L 4.2 8.9 C 4.2 7 5.7 5.4 7.6 5.4 L 36.4 5.4 C 38.3 5.4 39.8 7 39.8 8.9 L 39.8 34.1 Z" fill="#f1f1f1"/>
		<path d="M 39.8 34.5 C 39.8 36.4 38.3 37.9 36.4 37.9 L 7.6 37.9 C 5.7 37.9 4.2 36.4 4.2 34.5 L 4.2 9.3 C 4.2 7.4 5.7 5.8 7.6 5.8 L 36.4 5.8 C 38.3 5.8 39.8 7.4 39.8 9.3 L 39.8 34.5 Z" fill="#d5d2ce"/>
		<path d="M 39.8 34.6 C 39.8 36.5 38.3 38.1 36.4 38.1 L 7.6 38.1 C 5.7 38.1 4.2 36.5 4.2 34.6 L 4.2 9.4 C 4.2 7.5 5.7 6 7.6 6 L 36.4 6 C 38.3 6 39.8 7.5 39.8 9.4 L 39.8 34.6 Z" fill="#ffffff"/>
		<path d="M 39.8 35.3 C 39.8 37.2 38.3 38.7 36.4 38.7 L 7.6 38.7 C 5.7 38.7 4.2 37.2 4.2 35.3 L 4.2 10.1 C 4.2 8.2 5.7 6.7 7.6 6.7 L 36.4 6.7 C 38.3 6.7 39.8 8.2 39.8 10.1 L 39.8 35.3 Z" fill="#f1f1f1"/>
		<path d="M 39.8 35.7 C 39.8 37.6 38.3 39.1 36.4 39.1 L 7.6 39.1 C 5.7 39.1 4.2 37.6 4.2 35.7 L 4.2 10.5 C 4.2 8.6 5.7 7 7.6 7 L 36.4 7 C 38.3 7 39.8 8.6 39.8 10.5 L 39.8 35.7 Z" fill="#d5d2ce"/>
		<path d="M 39.8 35.9 C 39.8 37.8 38.3 39.3 36.4 39.3 L 7.6 39.3 C 5.7 39.3 4.2 37.8 4.2 35.9 L 4.2 10.6 C 4.2 8.7 5.7 7.2 7.6 7.2 L 36.4 7.2 C 38.3 7.2 39.8 8.7 39.8 10.6 L 39.8 35.9 Z" fill="url(#gradient4)"/>
		<path d="M 37.3 14.1 L 28.7 14.1 C 27.1 14.1 26.8 13.2 26.8 12.6 L 26.8 11.6 C 26.8 9.6 25.1 7.9 23.1 7.9 L 6.7 7.9 C 6.1 7.9 5.6 8 5.2 8.2 C 4.6 8.9 4.2 9.7 4.2 10.6 L 4.2 35.9 C 4.2 37.8 5.7 39.3 7.6 39.3 L 36.4 39.3 C 38.3 39.3 39.8 37.8 39.8 35.9 L 39.8 15.1 C 39.2 14.5 38.3 14.1 37.3 14.1 Z" fill="url(#gradient5)"/>
		<path d="M 37.3 14.7 L 28.7 14.7 C 27.1 14.7 26.8 13.8 26.8 13.2 L 26.8 12.2 C 26.8 10.1 25.1 8.5 23.1 8.5 L 6.7 8.5 C 4.7 8.5 3 10.1 3 12.2 L 3 18.4 L 3 37 C 3 37.8 3.3 38.7 3.8 39.3 C 4.5 40.1 5.5 40.6 6.7 40.6 L 6.7 40.6 L 23.1 40.6 L 37.3 40.6 C 39.3 40.6 41 39 41 37 L 41 18.4 C 41 16.3 39.3 14.7 37.3 14.7 Z" fill="url(#gradient6)"/>
		<path d="M 37.3 15.1 L 28.7 15.1 C 27.1 15.1 26.8 14.1 26.8 13.6 L 26.8 12.5 C 26.8 10.5 25.1 8.9 23.1 8.9 L 6.7 8.9 C 4.7 8.9 3 10.5 3 12.5 L 3 18.7 L 3 37.3 C 3 38.2 3.3 39 3.8 39.7 C 4.5 40.5 5.5 41 6.7 41 L 6.7 41 L 23.1 41 L 37.3 41 C 39.3 41 41 39.4 41 37.3 L 41 18.7 C 41 16.7 39.3 15.1 37.3 15.1 Z" fill="url(#gradient7)"/>
		<path d="M 3 19.6 L 3 37.3 C 3 38.2 3.3 39 3.8 39.7 C 4.5 40.5 5.5 41 6.7 41 L 6.7 41 L 23.1 41 L 37.3 41 C 39.3 41 40.9 39.4 41 37.4 C 18.6 33.9 8 26 3 19.6 Z" fill="url(#gradient8)"/>
	</g>
</svg>