<?xml version="1.0" standalone="no"?>

<svg viewBox="0 0 44 44" style="background-color:#ffffff00" version="1.1" xmlns="http://www.w3.org/2000/svg" xmlns:xlink="http://www.w3.org/1999/xlink" xml:space="preserve" x="0px" y="0px" width="100%" height="100%">
	<g id="Layer%201">
		<g>
			<path d="M 38.8 38 C 38.8 38.6 36 39 32.6 39 C 29.1 39 26.3 38.6 26.3 38 C 26.3 37.5 29.1 37.1 32.6 37.1 C 36 37.1 38.8 37.5 38.8 38 Z" fill="#728589"/>
			<g>
				<path d="M 3.5 25 L 27.3 25 L 27.3 5.9 L 3.5 5.9 L 3.5 25 Z" fill="#ffffff"/>
				<path d="M 27.4 25.1 L 3.4 25.1 L 3.4 5.8 L 27.4 5.8 L 27.4 25.1 ZM 3.6 24.9 L 27.2 24.9 L 27.2 6 L 3.6 6 L 3.6 24.9 Z" fill="#000000"/>
			</g>
			<g id="g9967">
				<path d="M 22.3 18.8 L 24.9 21.4 C 25.3 21.7 25.8 21.7 26.2 21.6 L 29 21.4 C 29.2 25 29.3 25.6 29.2 26.3 L 29.5 26.9 L 29.3 32.5 L 29.1 36.7 L 29.4 36.9 C 29.4 36.9 29.4 37.2 28.9 37.8 C 28.8 38 29.3 38.3 29.5 38.4 C 29.7 38.5 30.3 38.3 30.5 38.1 C 30.6 38.1 30.6 37.9 30.7 37.8 C 30.7 37.8 30.9 37.6 30.9 37.6 L 30.8 36.9 L 31.2 36.7 L 31.5 32 L 31.5 28.4 L 32.3 32.4 L 33.3 36.5 L 33.4 37 L 33.7 36.9 C 33.7 36.9 33.6 37 33.6 37.1 C 33.6 37.2 33.7 37.3 33.7 37.3 L 33.6 37.5 L 34.9 37.5 L 34.9 37.3 C 34.9 37.3 35.4 37.5 35.7 37.5 C 36 37.7 37.1 37.5 37.1 37.5 C 37.1 37.5 37 37.1 36.9 37 C 36.7 36.8 36.1 36.8 35.9 36.7 C 35.7 36.6 35.3 36.3 35.3 36.3 L 35.4 36.2 L 34.4 32.2 L 33.4 26.8 L 33.5 26.3 C 33.2 24.6 33.6 23.3 33.7 21.6 L 35.2 23.9 C 35.5 24.2 36 24.2 36.5 24.1 L 38.9 23.2 L 38.8 22.8 C 38.8 22.8 39.3 22.7 39.5 22.7 C 39.7 22.6 40.8 21.9 40.8 21.9 C 40.8 21.9 41.1 21.5 41 21.5 C 40.7 21.5 39.9 22.1 39.7 22.2 C 39.5 22.2 38.9 22.1 38.9 22.1 L 39.5 21.5 L 39.5 21.2 C 39.5 21.2 38.7 21.7 38.5 21.8 C 38.4 21.9 38.2 22.2 38.2 22.2 L 38.1 22 L 36.7 22.6 L 36.4 22.6 L 36.3 22.7 L 36.3 22.5 L 36.2 22.4 L 35 20.3 C 35 20.3 34.6 19.6 34.5 19.4 C 34.2 19.2 33.4 19 33.4 19 L 32.6 18.7 L 32.2 18.6 L 32.2 18.4 L 32.2 18.2 C 32.2 18.2 32.6 17.8 32.7 17.6 C 32.8 17.4 33 16.7 33 16.7 C 33.2 16.4 33.2 15.7 32.9 15.7 C 32.9 15.6 32.9 14.8 32.9 14.6 C 32.6 14 31.8 13.7 31.4 13.7 C 30.7 13.7 30 14.3 29.8 14.8 C 29.7 15 29.8 15.6 29.8 15.7 C 29.5 15.7 29.5 16.5 29.8 16.8 C 29.8 16.8 30 17.3 30.1 17.5 C 30.2 17.7 30.7 18.2 30.7 18.2 L 30.7 18.4 L 30.6 18.7 L 30.3 18.8 L 29.4 19 C 29.4 19 28.9 19 28.7 19 C 28.6 19.1 28.2 19.3 28.2 19.3 L 26.7 19.9 C 26.4 19.9 26.2 20 26.1 20 C 26 20 26 19.9 26 19.9 C 25.9 19.9 25.8 20 25.8 20 C 25.8 20 25.8 20 25.8 19.9 C 25.7 19.9 25.6 19.7 25.5 19.7 C 25.4 19.6 25.4 19.7 25.2 19.5 L 23.6 18.1 L 23.5 18.1 C 23.5 18.1 23.2 17.6 23.1 17.5 C 23 17.4 22.7 17.1 22.6 17 C 22.5 17 22.3 17 22.1 17 C 21.9 17 21.8 17 21.7 17.1 C 21.6 17.1 21.7 17.2 21.7 17.4 C 21.7 17.7 21.7 18.1 21.8 18.3 C 21.9 18.4 22.5 18.6 22.5 18.6 L 22.3 18.8 Z" fill="#e5e5e5"/>
			</g>
			<g>
				<path d="M 30.5 38.1 C 30.6 38.1 30.6 37.9 30.7 37.8 C 30.7 37.8 30.9 37.6 30.9 37.6 L 30.8 36.9 L 31.2 36.7 L 31.2 36.2 L 29.1 36.5 L 29.1 36.7 L 29.4 36.9 C 29.4 36.9 29.4 37.2 28.9 37.8 C 28.8 38 29.3 38.3 29.5 38.4 C 29.7 38.5 30.3 38.3 30.5 38.1 Z" fill="#191919"/>
				<path d="M 35.9 36.7 C 35.7 36.6 35.3 36.3 35.3 36.3 L 35.4 36.2 L 35.3 35.7 L 33.2 36 L 33.3 36.5 L 33.4 37 L 33.7 36.9 C 33.7 36.9 33.6 37 33.6 37.1 C 33.6 37.2 33.7 37.3 33.7 37.3 L 33.6 37.5 L 34.9 37.5 L 34.9 37.3 C 34.9 37.3 35.4 37.5 35.7 37.5 C 36 37.7 37.1 37.5 37.1 37.5 C 37.1 37.5 37 37.1 36.9 37 C 36.7 36.8 36.1 36.8 35.9 36.7 Z" fill="#191919"/>
			</g>
			<path d="M 31.4 18.3 L 30.4 18.4 L 30.4 18.7 L 32.4 18.7 L 32.4 18.4 L 31.4 18.3 Z" fill="#cbcbcb"/>
			<path d="M 32.9 15.7 C 32.9 15.6 32.9 14.8 32.9 14.6 C 32.6 14 31.8 13.7 31.4 13.7 C 30.7 13.7 30 14.3 29.8 14.8 C 29.7 15 29.8 15.6 29.8 15.7 C 29.5 15.7 29.5 16.5 29.8 16.8 C 29.8 16.8 30 17.3 30.1 17.5 C 30.2 17.7 30.7 18.2 30.7 18.2 L 30.7 18.4 L 30.6 18.7 L 31 19.2 L 31.7 19.3 L 32.3 18.7 L 32.2 18.6 L 32.2 18.4 L 32.2 18.2 C 32.2 18.2 32.6 17.8 32.7 17.6 C 32.8 17.4 33 16.7 33 16.7 C 33.2 16.4 33.2 15.7 32.9 15.7 Z" fill="#dab67c"/>
			<g>
				<path d="M 33 15.7 C 33 15.6 32.9 14.8 32.9 14.6 C 32.6 14 31.8 13.7 31.4 13.7 C 30.7 13.7 30 14.3 29.8 14.8 C 29.7 15 29.8 15.6 29.8 15.7 C 29.8 15.8 29.9 16 29.9 16 L 29.6 16 L 29.9 16.4 C 29.9 16.4 29.8 16.6 29.8 16.8 C 29.8 16.8 30 17.3 30.1 17.5 C 30.2 17.7 30.5 18.1 30.7 18.2 C 30.8 18.3 30.9 18.4 31 18.4 C 31.1 18.4 31.4 18.5 31.5 18.5 C 31.5 18.5 31.8 18.4 31.9 18.4 C 32 18.4 32.1 18.2 32.2 18.2 C 32.4 18 32.6 17.8 32.7 17.6 C 32.8 17.4 33 16.7 33 16.7 C 33 16.6 32.9 16.4 32.9 16.4 L 33.1 16 L 32.9 16 C 32.9 16 33 15.8 33 15.7 Z" fill="#f2d39a"/>
				<path d="M 22.6 17 C 22.5 17 22.3 17 22.1 17 C 21.9 17 21.8 17 21.7 17.1 C 21.6 17.1 21.7 17.2 21.7 17.4 C 21.7 17.7 21.7 18.1 21.8 18.3 C 21.9 18.4 22.5 18.6 22.5 18.6 C 22.5 18.6 22.7 18.4 23 18.3 C 23.2 18.2 23.5 18.1 23.5 18.1 C 23.5 18.1 23.2 17.6 23.1 17.5 C 23 17.4 22.7 17.1 22.6 17 Z" fill="#f2d39a"/>
			</g>
			<path d="M 41 21.5 C 40.7 21.5 39.9 22.1 39.7 22.2 C 39.5 22.2 38.9 22.1 38.9 22.1 L 39.5 21.5 L 39.5 21.2 C 39.5 21.2 38.7 21.7 38.5 21.8 C 38.5 21.8 38.5 21.8 38.5 21.8 C 38.4 21.9 38.2 22.1 38.2 22.2 L 38.8 22.8 C 38.8 22.8 39.3 22.7 39.5 22.7 C 39.7 22.6 40.8 21.9 40.8 21.9 C 40.8 21.9 41.1 21.5 41 21.5 Z" fill="#f2d39a"/>
			<path d="M 31.1 19.7 L 31.4 19.1 L 30.4 18.4 L 30.3 18.8 L 31.1 19.7 Z" fill="#f1f1f1"/>
			<path d="M 31.7 19.7 L 31.4 19.1 L 32.4 18.4 L 32.5 18.8 L 31.7 19.7 Z" fill="#f1f1f1"/>
			<path d="M 35.4 36.2 L 34.4 32.2 L 33.4 26.8 C 33.4 26.8 32 27.1 31.5 27.1 C 31 27.1 29.4 26.8 29.4 26.8 L 29.4 26.8 L 29.5 26.9 L 29.3 32.5 L 29.1 36.7 L 29.4 36.9 C 29.4 36.9 29.7 37 30.1 37 C 30.4 37 30.8 36.9 30.8 36.9 L 31.2 36.7 L 31.5 32 L 31.5 28.4 L 32.3 32.4 L 33.3 36.5 L 33.4 37 C 33.4 37 34.2 36.9 34.4 36.8 C 34.7 36.7 35.1 36.5 35.3 36.3 C 35.4 36.3 35.4 36.2 35.4 36.2 Z" fill="#323232"/>
			<path d="M 33.5 27.2 L 33.4 26.8 C 33.4 26.8 32 27.1 31.5 27.1 C 31 27.1 29.4 26.8 29.4 26.8 L 29.4 26.8 L 29.5 26.9 L 29.5 27.2 C 29.5 27.2 30.8 27.4 31.5 27.4 C 32.1 27.4 33.5 27.2 33.5 27.2 Z" fill="#191919"/>
			<path d="M 31.9 27.5 L 31.2 27.5 L 31.2 27 L 31.9 27 L 31.9 27.5 ZM 31.3 27.4 L 31.8 27.4 L 31.8 27.1 L 31.3 27.1 L 31.3 27.4 Z" fill="#656565"/>
			<path d="M 32.8 21 L 32.7 21 L 32.7 20.4 L 32.8 20.4 L 32.8 21 Z" fill="#28aae1"/>
			<path d="M 33 21.1 L 32.9 21.1 L 32.9 20.5 L 33 20.5 L 33 21.1 Z" fill="#ec1b23"/>
			<path d="M 33.1 21.2 L 33 21.2 L 33 20.6 L 33.1 20.6 L 33.1 21.2 Z" fill="#faaf3a"/>
			<g>
				<path d="M 35.2 37.3 L 35 37.3 C 35.2 37.4 35.5 37.5 35.7 37.5 C 36 37.7 37.1 37.5 37.1 37.5 C 37.1 37.5 37.1 37.5 37.1 37.4 C 35.8 37.5 35.2 37.3 35.2 37.3 Z" fill="#41200a"/>
				<path d="M 30.7 37.8 C 30.7 37.8 30.9 37.6 30.9 37.6 L 30.9 37.4 C 30.5 37.7 30.5 37.9 30.5 38 C 30.4 38.2 30 38.2 29.6 38.3 C 29.4 38.3 29.2 38.2 29 38 C 29.1 38.2 29.3 38.4 29.5 38.4 C 29.7 38.5 30.3 38.3 30.5 38.1 C 30.6 38.1 30.6 37.9 30.7 37.8 Z" fill="#41200a"/>
				<path d="M 34.9 37.3 L 34.8 37.3 L 33.7 37.3 L 33.6 37.5 L 34.9 37.5 L 34.9 37.3 Z" fill="#41200a"/>
			</g>
			<path d="M 32.6 21 C 32.6 21.1 32.6 21.1 32.5 21.1 L 32.5 21.1 C 32.5 21.1 32.5 21.1 32.5 21 L 32.5 20.2 C 32.5 20.2 32.5 20.2 32.5 20.2 L 32.5 20.2 C 32.6 20.2 32.6 20.2 32.6 20.2 L 32.6 21 Z" fill="#989898"/>
			<path d="M 31.1 16.6 L 30.3 16.6 C 30.2 16.6 30.1 16.6 30.1 16.5 L 30.1 16 C 30.1 15.8 30.2 15.8 30.3 15.8 L 31.1 15.8 C 31.2 15.8 31.3 15.8 31.3 16 L 31.3 16.5 C 31.3 16.6 31.2 16.6 31.1 16.6 ZM 30.3 15.8 C 30.2 15.8 30.1 15.9 30.1 16 L 30.1 16.5 C 30.1 16.5 30.2 16.6 30.3 16.6 L 31.1 16.6 C 31.2 16.6 31.2 16.5 31.2 16.5 L 31.2 16 C 31.2 15.9 31.2 15.8 31.1 15.8 L 30.3 15.8 Z" fill="#191919"/>
			<path d="M 32.5 16.6 L 31.7 16.6 C 31.6 16.6 31.5 16.6 31.5 16.5 L 31.5 16 C 31.5 15.8 31.6 15.8 31.7 15.8 L 32.5 15.8 C 32.6 15.8 32.7 15.8 32.7 16 L 32.7 16.5 C 32.7 16.6 32.6 16.6 32.5 16.6 ZM 31.7 15.8 C 31.6 15.8 31.5 15.9 31.5 16 L 31.5 16.5 C 31.5 16.5 31.6 16.6 31.7 16.6 L 32.5 16.6 C 32.6 16.6 32.7 16.5 32.7 16.5 L 32.7 16 C 32.7 15.9 32.6 15.8 32.5 15.8 L 31.7 15.8 Z" fill="#191919"/>
			<path d="M 19.8 10.7 L 22.1 17.2 L 22.3 17.1 L 19.8 10.7 Z" fill="#000000"/>
			<path d="M 32.5 13.8 C 32.5 13.8 32.1 13.3 31.4 13.3 L 31.4 13.3 C 31.4 13.3 31.4 13.3 31.3 13.3 C 31.3 13.3 31.3 13.3 31.3 13.3 L 31.3 13.3 C 30.6 13.3 30.2 13.8 30.2 13.8 C 29.6 13.9 29.5 14.7 29.5 14.7 L 29.6 15.7 C 29.9 15.7 30 15.9 30 15.9 C 30 15.9 29.8 14.9 30.1 14.5 C 30.3 14.2 31.2 14.5 31.3 14.6 C 31.3 14.6 31.3 14.6 31.3 14.6 C 31.4 14.6 31.4 14.6 31.4 14.6 C 31.5 14.5 32.3 14.2 32.6 14.5 C 32.9 14.9 32.7 15.9 32.7 15.9 C 32.7 15.9 32.7 15.7 33 15.7 L 33.2 14.7 C 33.2 14.7 33.1 13.9 32.5 13.8 Z" fill="#8b6138"/>
			<path d="M 32 15.9 C 32 16 31.9 16.2 31.8 16.2 C 31.7 16.2 31.7 16 31.7 15.9 C 31.7 15.8 31.7 15.7 31.8 15.7 C 31.9 15.7 32 15.8 32 15.9 Z" fill="#000000"/>
			<path d="M 30.6 15.9 C 30.6 16 30.6 16.2 30.5 16.2 C 30.4 16.2 30.3 16 30.3 15.9 C 30.3 15.8 30.4 15.7 30.5 15.7 C 30.6 15.7 30.6 15.8 30.6 15.9 Z" fill="#000000"/>
			<path d="M 31 17.4 C 31 17.4 31.4 17.7 31.9 17.4 C 31.9 17.4 31.5 18.2 31 17.4 Z" fill="#ffffff"/>
			<path d="M 26.8 37.1 C 26.8 37.8 21.7 38.4 15.4 38.4 C 9.2 38.4 4.1 37.8 4.1 37.1 C 4.1 36.3 9.2 35.7 15.4 35.7 C 21.7 35.7 26.8 36.3 26.8 37.1 Z" fill="#728589"/>
			<path d="M 31.2 17.2 C 31.2 17.2 31.4 17.3 31.5 17.3 C 31.5 17.3 31.7 17.2 31.7 17.2 C 31.7 17.2 31.5 17.2 31.5 17.2 C 31.4 17.2 31.2 17.2 31.2 17.2 Z" fill="#dab67c"/>
			<path d="M 31.9 15.4 L 31.8 15.5 L 32.4 15.7 L 32.4 15.5 L 31.9 15.4 Z" fill="#8b6138"/>
			<path d="M 30.6 15.1 L 30.7 15.3 L 30.1 15.5 L 30.1 15.3 L 30.6 15.1 Z" fill="#8b6138"/>
			<g>
				<path d="M 33.2 22.1 L 32.6 22.3 L 32 22.1 L 32 20.8 C 32 20.8 32.2 20.9 32.6 20.9 C 32.9 20.9 33.2 20.8 33.2 20.8 L 33.2 22.1 Z" fill="#e5e5e5"/>
				<path d="M 32.6 22.4 L 32 22.1 L 32 20.8 L 32 20.8 C 32 20.8 32.2 20.8 32.6 20.9 L 32.6 20.9 C 32.9 20.9 33.1 20.8 33.1 20.8 L 33.2 20.8 L 33.2 22.1 L 32.6 22.4 ZM 32 22.1 L 32.6 22.3 L 33.1 22.1 L 33.1 20.8 C 33.1 20.9 32.9 20.9 32.6 20.9 L 32.6 20.9 C 32.3 20.9 32.1 20.9 32 20.8 L 32 22.1 Z" fill="#989898"/>
			</g>
			<path d="M 32.4 21 C 32.4 21 32.4 21 32.4 21 L 32.4 20.3 C 32.4 20.3 32.4 20.2 32.5 20.2 C 32.5 20.2 32.5 20.3 32.5 20.3 C 32.5 20.3 32.5 20.3 32.5 20.3 C 32.5 20.3 32.5 20.3 32.5 20.3 L 32.5 21 C 32.5 21 32.4 21 32.4 21 Z" fill="#989898"/>
			<path d="M 22.4 17 L 22.1 17.1 L 22.1 17.8 L 22.4 17.7 L 22.4 17.5 L 22.4 17.6 L 22.6 17.9 L 22.5 17.5 L 22.4 17.3 L 22.3 17.4 L 22.3 17.6 L 22.1 17.7 L 22.1 17.2 L 22.4 17 Z" fill="#dab67c"/>
			<path d="M 27.8 5.9 L 3 5.9 L 3 5 L 27.8 5 L 27.8 5.9 Z" fill="#000000"/>
			<path d="M 27.8 25.5 L 3 25.5 L 3 24.6 L 27.8 24.6 L 27.8 25.5 Z" fill="#000000"/>
			<g>
				<path d="M 15.7 28 L 15.1 28 L 15.1 24.6 L 15.7 24.6 L 15.7 28 Z" fill="#000000"/>
				<path d="M 16.2 28.2 L 14.6 28.2 L 14.6 27.5 L 16.2 27.5 L 16.2 28.2 Z" fill="#000000"/>
				<g>
					<path d="M 15.2 36.1 L 15.1 36.4 L 15.7 36.4 L 15.6 36.1 L 15.2 36.1 Z" fill="#000000"/>
					<path d="M 24.2 37.3 L 24.1 37 L 24 37 L 15.5 27.5 L 15.5 27.3 L 15.3 27.3 L 15.3 27.5 L 6.8 37 L 6.7 37 L 6.6 37.3 L 7.2 37.3 L 7.1 37 L 15.3 27.9 L 15.3 36.1 L 15.5 36.1 L 15.5 27.9 L 23.7 37 L 23.6 37.3 L 24.2 37.3 Z" fill="#000000"/>
				</g>
			</g>
			<path d="M 31.6 19.9 L 31.7 19.6 L 31.4 19.1 L 31.1 19.6 L 31.2 19.9 L 31 24.4 L 31.5 25 L 32 24.4 L 31.6 19.9 Z" fill="#000000"/>
			<path d="M 22.1 17.7 L 22.1 17.2 L 21.9 17.1 L 22.1 17.3 L 22 17.3 L 22 17.5 L 21.7 17.4 L 22 17.6 L 22.1 17.8 L 22.3 17.7 L 22.4 17.8 L 22.3 17.9 L 22.1 17.9 L 21.7 17.7 L 21.7 17.8 L 21.8 17.7 L 22.1 17.9 L 22.3 18 L 22.3 18.1 L 22.1 18.1 L 21.8 18 L 22.1 18.1 L 22.3 18.2 L 22.3 18.2 L 22.3 18.3 L 22.2 18.3 L 21.9 18.3 L 22.3 18.4 L 22.3 18.2 L 22.4 18.1 L 22.4 17.8 L 22.3 17.6 L 22.1 17.7 Z" fill="#000000"/>
			<path d="M 31.3 16.2 L 31.2 16.1 C 31.3 16.1 31.4 16 31.6 16.1 L 31.5 16.2 C 31.4 16.1 31.3 16.2 31.3 16.2 Z" fill="#000000"/>
		</g>
	</g>
</svg>