<?xml version="1.0" encoding="utf-8"?>
<!-- Generator: Adobe Illustrator 16.0.0, SVG Export Plug-In . SVG Version: 6.00 Build 0)  -->
<!DOCTYPE svg PUBLIC "-//W3C//DTD SVG 1.1//EN" "http://www.w3.org/Graphics/SVG/1.1/DTD/svg11.dtd">
<svg version="1.1" id="Layer_1" xmlns="http://www.w3.org/2000/svg" xmlns:xlink="http://www.w3.org/1999/xlink" x="0px" y="0px"
	 width="100%" height="100%" viewBox="367.079 4.11 55.481 606.39" enable-background="new 367.079 4.11 55.481 606.39"
	 xml:space="preserve">
<path fill="none" d="z"/>
<g id="Layer_x25_202">
</g>
<path fill="none" d="z"/>
<g>
	<defs>
		<rect id="SVGID_1_" x="367.079" y="2.961" width="55.481" height="609.039"/>
	</defs>
	<clipPath id="SVGID_2_">
		<use xlink:href="#SVGID_1_"  overflow="visible"/>
	</clipPath>
	<g id="Layer_x25_201" clip-path="url(#SVGID_2_)">
		<path display="none" fill="#56AE00" stroke="#2B880B" stroke-width="2" d="M421.5,94.35V591.6c0,8.415-6.885,15.301-15.3,15.301
			h-38.25c-8.415,0-15.3-6.886-15.3-15.301l2.55-498.524L421.5,94.35z"/>
		<g>
			<g opacity="0.6">
				<path display="none" fill="#FFFFFF" stroke="#489100" stroke-width="2" d="M383.25,401.625v3.825l15.3,6.12l-15.3,6.63v3.825
					h22.95v-2.551h-19.635l15.81-6.63v-2.04l-15.81-6.63H406.2v-2.55H383.25L383.25,401.625z"/>
				<path display="none" fill="#FFFFFF" stroke="#489100" stroke-width="2" d="M383.25,384.285l11.22,5.865l-11.22,6.119v2.806
					l13.26-7.65h9.69v-2.55H396l-12.75-7.65V384.285L383.25,384.285z"/>
				<path display="none" fill="#FFFFFF" stroke="#489100" stroke-width="2" d="M387.075,353.94c-0.765,0.51-1.785,1.274-2.295,2.04
					c-0.51,0.765-0.765,1.784-1.02,2.55c-0.255,1.02-0.51,2.295-0.51,3.569v6.375h22.95v-2.55h-7.65v-3.314
					c0-1.785-0.255-3.061-0.51-4.335c-0.51-1.021-1.275-2.04-2.04-3.061c-0.51-0.51-1.53-1.02-2.295-1.53
					c-1.02-0.255-2.04-0.51-3.06-0.51C389.115,353.175,388.095,353.43,387.075,353.94L387.075,353.94z M392.685,355.98
					c0.765,0.255,1.275,0,1.785-0.511c0.51,1.785,1.02,3.061,1.275,4.08c0.255,0.766,0.255,2.04,0.255,3.315v3.06h-10.2v-3.569
					c0-1.021,0-2.04,0.255-2.806c0.255-0.51,0.51-1.53,0.765-2.805c0.255,0,1.02-0.255,1.53-0.51
					c0.765-0.255,1.53-0.511,2.295-0.511S392.175,355.725,392.685,355.98L392.685,355.98z"/>
				<path display="none" fill="#FFFFFF" stroke="#489100" stroke-width="2" d="M395.235,341.19c-0.51-1.785-1.275-3.315-2.295-4.335
					c-1.02-1.021-2.295-1.53-3.825-1.53c-1.275,0-2.04,0.255-2.805,0.765s-1.53,1.021-1.785,2.04c-0.51,0.765-0.765,1.53-1.02,2.55
					c-0.255,0.766-0.255,2.04-0.255,3.315v6.63h22.95v-2.55H396v-4.59l10.2-8.415v-2.295L395.235,341.19L395.235,341.19z
					 M391.155,338.385c0.51,0.255,0.765,0.255,1.275,0.51c0.51,1.021,0.765,1.785,0.765,2.806c0.255,0.765,0.255,1.785,0.255,2.805
					v3.57h-7.65v-4.08c0-1.021,0-1.785,0.255-2.55c0-0.766,0.255-1.275,0.51-1.785c0.255-0.766,0.51-1.021,1.02-1.275
					c0.51-0.255,1.02-0.51,1.53-0.51C389.88,337.875,390.645,338.13,391.155,338.385L391.155,338.385z"/>
				<path display="none" fill="#FFFFFF" stroke="#489100" stroke-width="2" d="M384.015,315.69c-0.51,1.274-0.765,2.805-0.765,4.335
					c0,1.529,0.255,3.06,0.765,4.335c0.51,1.274,1.275,2.295,2.295,3.06c1.02,1.021,2.04,1.53,3.57,2.04
					c1.53,0.51,3.06,0.765,4.845,0.765c1.785,0,3.57-0.255,4.845-0.765c1.529-0.51,2.805-1.02,3.569-2.04
					c1.021-0.765,1.785-1.785,2.295-3.06c0.511-1.275,0.766-2.806,0.766-4.335c0-1.53-0.255-3.061-0.766-4.08
					c-0.51-1.275-1.274-2.295-2.295-3.315c-0.765-0.765-2.04-1.53-3.569-2.04c-1.275-0.51-3.061-0.765-4.845-0.765
					c-1.785,0-3.315,0.255-4.845,0.765c-1.53,0.51-2.55,1.275-3.57,2.04S384.525,314.67,384.015,315.69L384.015,315.69z
					 M401.355,314.415c1.529,1.53,2.295,3.315,2.295,5.61s-0.766,4.335-2.295,5.609c-1.53,1.275-3.825,2.04-6.63,2.04
					s-5.1-0.765-6.63-2.04c-1.53-1.274-2.295-3.314-2.295-5.609s0.765-4.335,2.295-5.61c1.53-1.275,3.825-2.04,6.63-2.04
					S399.825,313.14,401.355,314.415L401.355,314.415z"/>
				<path display="none" fill="#FFFFFF" stroke="#489100" stroke-width="2" d="M383.25,291.975v15.3h22.95v-2.55H396v-10.2h-2.55
					v10.2h-7.65v-12.75H383.25L383.25,291.975z"/>
				<path display="none" fill="#FFFFFF" stroke="#489100" stroke-width="2" d="M403.65,281.775v2.55H385.8v-2.55h-2.55v7.65h2.55
					v-2.55h17.851v2.55h2.55v-7.65H403.65L403.65,281.775z"/>
				<path display="none" fill="#FFFFFF" stroke="#489100" stroke-width="2" d="M403.65,261.375v12.75h-20.4v2.55h22.95v-15.3H403.65
					L403.65,261.375z"/>
				<path display="none" fill="#FFFFFF" stroke="#489100" stroke-width="2" d="M403.65,243.525v12.75H396v-12.75h-2.55v12.75h-7.65
					v-12.75h-2.55v15.3h22.95v-15.3H403.65L403.65,243.525z"/>
			</g>
			<g>
				<path display="none" fill="#FFFFFF" d="M383.25,399.075v3.825l15.3,6.119l-15.3,6.631v3.824h22.95v-2.55h-19.635l15.81-6.63
					v-2.04l-15.81-6.63H406.2v-2.55H383.25L383.25,399.075z"/>
				<path display="none" fill="#FFFFFF" d="M383.25,381.735l11.22,5.864l-11.22,6.12v2.806l13.26-7.65h9.69v-2.55H396l-12.75-7.65
					V381.735L383.25,381.735z"/>
				<path display="none" fill="#FFFFFF" d="M387.075,351.39c-0.765,0.511-1.785,1.275-2.295,2.04
					c-0.51,0.766-0.765,1.785-1.02,2.551c-0.255,1.02-0.51,2.295-0.51,3.569v6.375h22.95v-2.55h-7.65v-3.315
					c0-1.784-0.255-3.06-0.51-4.335c-0.51-1.02-1.275-2.04-2.04-3.06c-0.51-0.51-1.53-1.021-2.295-1.53
					c-1.02-0.255-2.04-0.51-3.06-0.51C389.115,350.625,388.095,350.88,387.075,351.39L387.075,351.39z M392.685,353.43
					c0.765,0.255,1.275,0,1.785-0.51c0.51,1.785,1.02,3.061,1.275,4.08c0.255,0.765,0.255,2.04,0.255,3.315v3.06h-10.2v-3.57
					c0-1.02,0-2.04,0.255-2.805c0.255-0.51,0.51-1.53,0.765-2.805c0.255,0,1.02-0.255,1.53-0.511c0.765-0.255,1.53-0.51,2.295-0.51
					S392.175,353.175,392.685,353.43L392.685,353.43z"/>
				<path display="none" fill="#FFFFFF" d="M395.235,338.64c-0.51-1.784-1.275-3.314-2.295-4.335
					c-1.02-1.02-2.295-1.529-3.825-1.529c-1.275,0-2.04,0.255-2.805,0.765s-1.53,1.02-1.785,2.04c-0.51,0.765-0.765,1.53-1.02,2.55
					c-0.255,0.765-0.255,2.04-0.255,3.315v6.63h22.95v-2.55H396v-4.591l10.2-8.415v-2.295L395.235,338.64L395.235,338.64z
					 M391.155,335.835c0.51,0.255,0.765,0.255,1.275,0.51c0.51,1.021,0.765,1.785,0.765,2.806c0.255,0.765,0.255,1.784,0.255,2.805
					v3.57h-7.65v-4.08c0-1.021,0-1.785,0.255-2.551c0-0.765,0.255-1.274,0.51-1.784c0.255-0.766,0.51-1.021,1.02-1.275
					c0.51-0.255,1.02-0.51,1.53-0.51C389.88,335.325,390.645,335.58,391.155,335.835L391.155,335.835z"/>
				<path display="none" fill="#FFFFFF" d="M384.015,313.14c-0.51,1.275-0.765,2.806-0.765,4.335c0,1.53,0.255,3.061,0.765,4.335
					c0.51,1.275,1.275,2.296,2.295,3.061c1.02,1.02,2.04,1.53,3.57,2.04c1.53,0.51,3.06,0.765,4.845,0.765
					c1.785,0,3.57-0.255,4.845-0.765c1.529-0.51,2.805-1.021,3.569-2.04c1.021-0.765,1.785-1.785,2.295-3.061
					c0.511-1.274,0.766-2.805,0.766-4.335c0-1.529-0.255-3.06-0.766-4.08c-0.51-1.274-1.274-2.295-2.295-3.314
					c-0.765-0.765-2.04-1.53-3.569-2.04c-1.275-0.51-3.061-0.765-4.845-0.765c-1.785,0-3.315,0.255-4.845,0.765
					c-1.53,0.51-2.55,1.275-3.57,2.04S384.525,312.12,384.015,313.14L384.015,313.14z M401.355,311.865
					c1.529,1.529,2.295,3.314,2.295,5.609s-0.766,4.335-2.295,5.61c-1.53,1.275-3.825,2.04-6.63,2.04s-5.1-0.765-6.63-2.04
					c-1.53-1.275-2.295-3.315-2.295-5.61s0.765-4.335,2.295-5.609c1.53-1.275,3.825-2.04,6.63-2.04S399.825,310.59,401.355,311.865
					L401.355,311.865z"/>
				<path display="none" fill="#FFFFFF" d="M383.25,289.425v15.3h22.95v-2.55H396v-10.2h-2.55v10.2h-7.65v-12.75H383.25
					L383.25,289.425z"/>
				<path display="none" fill="#FFFFFF" d="M403.65,279.225v2.55H385.8v-2.55h-2.55v7.65h2.55v-2.55h17.851v2.55h2.55v-7.65H403.65
					L403.65,279.225z"/>
				<path display="none" fill="#FFFFFF" d="M403.65,258.825v12.75h-20.4v2.55h22.95v-15.3H403.65L403.65,258.825z"/>
				<path display="none" fill="#FFFFFF" d="M403.65,240.975v12.75H396v-12.75h-2.55v12.75h-7.65v-12.75h-2.55v15.3h22.95v-15.3
					H403.65L403.65,240.975z"/>
			</g>
			<g>
				<path display="none" fill="#FFFFFF" d="M383.25,399.075v3.825l15.3,6.119l-15.3,6.631v3.824h22.95v-2.55h-19.635l15.81-6.63
					v-2.04l-15.81-6.63H406.2v-2.55H383.25L383.25,399.075z"/>
				<path display="none" fill="#FFFFFF" d="M383.25,381.735l11.22,5.864l-11.22,6.12v2.806l13.26-7.65h9.69v-2.55H396l-12.75-7.65
					V381.735L383.25,381.735z"/>
				<path display="none" fill="#FFFFFF" d="M387.075,351.39c-0.765,0.511-1.785,1.275-2.295,2.04
					c-0.51,0.766-0.765,1.785-1.02,2.551c-0.255,1.02-0.51,2.295-0.51,3.569v6.375h22.95v-2.55h-7.65v-3.315
					c0-1.784-0.255-3.06-0.51-4.335c-0.51-1.02-1.275-2.04-2.04-3.06c-0.51-0.51-1.53-1.021-2.295-1.53
					c-1.02-0.255-2.04-0.51-3.06-0.51C389.115,350.625,388.095,350.88,387.075,351.39L387.075,351.39z M392.685,353.43
					c0.765,0.255,1.275,0,1.785-0.51c0.51,1.785,1.02,3.061,1.275,4.08c0.255,0.765,0.255,2.04,0.255,3.315v3.06h-10.2v-3.57
					c0-1.02,0-2.04,0.255-2.805c0.255-0.51,0.51-1.53,0.765-2.805c0.255,0,1.02-0.255,1.53-0.511c0.765-0.255,1.53-0.51,2.295-0.51
					S392.175,353.175,392.685,353.43L392.685,353.43z"/>
				<path display="none" fill="#FFFFFF" d="M395.235,338.64c-0.51-1.784-1.275-3.314-2.295-4.335
					c-1.02-1.02-2.295-1.529-3.825-1.529c-1.275,0-2.04,0.255-2.805,0.765s-1.53,1.02-1.785,2.04c-0.51,0.765-0.765,1.53-1.02,2.55
					c-0.255,0.765-0.255,2.04-0.255,3.315v6.63h22.95v-2.55H396v-4.591l10.2-8.415v-2.295L395.235,338.64L395.235,338.64z
					 M391.155,335.835c0.51,0.255,0.765,0.255,1.275,0.51c0.51,1.021,0.765,1.785,0.765,2.806c0.255,0.765,0.255,1.784,0.255,2.805
					v3.57h-7.65v-4.08c0-1.021,0-1.785,0.255-2.551c0-0.765,0.255-1.274,0.51-1.784c0.255-0.766,0.51-1.021,1.02-1.275
					c0.51-0.255,1.02-0.51,1.53-0.51C389.88,335.325,390.645,335.58,391.155,335.835L391.155,335.835z"/>
				<path display="none" fill="#FFFFFF" d="M384.015,313.14c-0.51,1.275-0.765,2.806-0.765,4.335c0,1.53,0.255,3.061,0.765,4.335
					c0.51,1.275,1.275,2.296,2.295,3.061c1.02,1.02,2.04,1.53,3.57,2.04c1.53,0.51,3.06,0.765,4.845,0.765
					c1.785,0,3.57-0.255,4.845-0.765c1.529-0.51,2.805-1.021,3.569-2.04c1.021-0.765,1.785-1.785,2.295-3.061
					c0.511-1.274,0.766-2.805,0.766-4.335c0-1.529-0.255-3.06-0.766-4.08c-0.51-1.274-1.274-2.295-2.295-3.314
					c-0.765-0.765-2.04-1.53-3.569-2.04c-1.275-0.51-3.061-0.765-4.845-0.765c-1.785,0-3.315,0.255-4.845,0.765
					c-1.53,0.51-2.55,1.275-3.57,2.04S384.525,312.12,384.015,313.14L384.015,313.14z M401.355,311.865
					c1.529,1.529,2.295,3.314,2.295,5.609s-0.766,4.335-2.295,5.61c-1.53,1.275-3.825,2.04-6.63,2.04s-5.1-0.765-6.63-2.04
					c-1.53-1.275-2.295-3.315-2.295-5.61s0.765-4.335,2.295-5.609c1.53-1.275,3.825-2.04,6.63-2.04S399.825,310.59,401.355,311.865
					L401.355,311.865z"/>
				<path display="none" fill="#FFFFFF" d="M383.25,289.425v15.3h22.95v-2.55H396v-10.2h-2.55v10.2h-7.65v-12.75H383.25
					L383.25,289.425z"/>
				<path display="none" fill="#FFFFFF" d="M403.65,279.225v2.55H385.8v-2.55h-2.55v7.65h2.55v-2.55h17.851v2.55h2.55v-7.65H403.65
					L403.65,279.225z"/>
				<path display="none" fill="#FFFFFF" d="M403.65,258.825v12.75h-20.4v2.55h22.95v-15.3H403.65L403.65,258.825z"/>
				<path display="none" fill="#FFFFFF" d="M403.65,240.975v12.75H396v-12.75h-2.55v12.75h-7.65v-12.75h-2.55v15.3h22.95v-15.3
					H403.65L403.65,240.975z"/>
			</g>
		</g>
		<g>
			<rect x="376.875" y="19.89" display="none" fill="#00661A" width="40.8" height="73.185"/>
			<path display="none" fill="#FFFFFF" d="M408.24,60.69c-2.295-1.02-4.59-1.785-7.141-2.04c0-0.51,0.256-1.275,0.256-1.785
				c0.51-0.51,1.02-1.021,1.02-1.275c0-0.765,0-1.275,0.255-1.785c0,0,0,0.255,0.255,0.255s0.51-0.255,0.51-0.51L403.65,51
				c0-0.255-0.256-0.51-0.511-0.51h-0.255c0-0.51,0.255-1.021,0.255-1.53s0.255-2.295-1.02-3.57c-1.785-1.785-5.61-1.785-7.65,0
				c-1.02,1.275-0.765,3.06-0.765,3.57s0,1.02,0.255,1.53c-0.255,0-0.255,0-0.255,0c-0.255,0-0.51,0.255-0.51,0.51l0.255,2.55
				c0,0.255,0.255,0.51,0.51,0.51l0.255-0.255c0,0.51,0.255,1.02,0.255,1.785c0,0.255,0.255,0.765,1.02,1.275
				c0,0.51,0,1.275,0.255,1.785c-2.55,0.255-4.845,1.02-7.14,2.04c-0.765,0.51-1.275,1.53-1.275,2.295
				c0.255,0.765,0.255,1.785,0.255,2.55c0,1.02,0.765,1.785,1.53,1.785c6.12,1.02,12.495,1.02,18.615,0
				c0.765,0,1.274-0.765,1.274-1.785c0.255-0.765,0.255-1.785,0.51-2.55C409.515,62.22,409.005,61.2,408.24,60.69z"/>
		</g>
		<path fill="#37611F" stroke="#2B880B" stroke-width="2" d="M367.95,609.45h38.25c8.415,0,15.3-4.845,15.3-10.71V104.55h-68.85
			v494.19C352.65,604.605,359.535,609.45,367.95,609.45z"/>
		<path fill="#37611F" stroke="#2B880B" stroke-width="2" d="M367.95,5.1h38.25c8.415,0,15.3,4.845,15.3,10.71V561h-68.85V15.81
			C352.65,9.945,359.535,5.1,367.95,5.1z"/>
		<path fill="#FFFFFF" d="M408.75,52.275c0,8.415-30.6,8.415-30.6,0c0-8.67,6.885-15.81,15.3-15.81S408.75,43.605,408.75,52.275z"/>
		<path fill="#FFFFFF" d="M402.885,24.99c0,5.354-4.335,9.69-9.435,9.69c-5.1,0-9.435-4.335-9.435-9.69
			c0-5.355,4.335-9.69,9.435-9.69C398.55,15.3,402.885,19.635,402.885,24.99z"/>
		
			<linearGradient id="SVGID_3_" gradientUnits="userSpaceOnUse" x1="1.4429" y1="612.002" x2="0.3239" y2="612.002" gradientTransform="matrix(53.55 0 0 -237.15 341.6625 145624.625)">
			<stop  offset="0" style="stop-color:#FFD75B"/>
			<stop  offset="0.989" style="stop-color:#CC9900"/>
		</linearGradient>
		<path fill="url(#SVGID_3_)" stroke="#008C23" d="M367.95,369.75h38.505c8.415,0,15.045,1.02,15.045,2.04v227.97
			c0,1.021-6.63,7.141-15.045,7.141H367.95C367.95,601.29,367.95,373.575,367.95,369.75z"/>
		
			<linearGradient id="SVGID_4_" gradientUnits="userSpaceOnUse" x1="1.2397" y1="612.0029" x2="-0.0363" y2="612.0029" gradientTransform="matrix(53.6258 0 0 -224.4 341.6246 137519.5)">
			<stop  offset="0" style="stop-color:#97B83F"/>
			<stop  offset="0.117" style="stop-color:#97B83F"/>
			<stop  offset="0.978" style="stop-color:#477320"/>
		</linearGradient>
		<path fill="url(#SVGID_4_)" stroke="#6A9134" d="M367.95,73.95h38.505c8.16,0,15.045,1.02,15.045,2.04v220.32
			c0,1.02,2.04,2.04-15.045,2.04H367.95C367.95,292.74,367.95,77.775,367.95,73.95z"/>
		<rect x="367.95" y="300.9" fill="#D9A300" stroke="#996600" width="53.55" height="71.4"/>
		<g>
			<g>
				<rect x="379.425" y="317.985" fill="#FFFFFF" width="30.601" height="7.14"/>
				<rect x="379.425" y="333.54" fill="#FFFFFF" width="30.601" height="7.14"/>
				<rect x="379.425" y="349.35" fill="#FFFFFF" width="30.601" height="7.141"/>
			</g>
		</g>
		<g>
			<g>
				<rect x="378.15" y="250.92" display="none" fill="#FFFFFF" width="5.1" height="22.695"/>
			</g>
			<path id="Forma_x25_201" display="none" fill="#FFFFFF" d="M415.635,270.555l-6.885-6.63c1.275-2.04,2.04-4.08,2.04-6.63
				c0-6.885-5.61-12.24-12.495-12.24s-12.24,5.355-12.24,12.24c0,6.885,5.355,12.495,12.24,12.495c2.55,0,4.59-0.765,6.63-2.04
				l6.63,6.885c1.021,1.02,2.806,1.02,4.08,0C416.655,273.36,416.655,271.575,415.635,270.555z M398.295,265.965
				c-4.59,0-8.415-3.825-8.415-8.67c0-4.59,3.825-8.415,8.415-8.415c4.845,0,8.67,3.825,8.67,8.415
				C406.965,262.14,403.14,265.965,398.295,265.965z"/>
			<path display="none" fill="#FFFFFF" d="M398.04,237.15v10.455c0.51,0,0.765,0,1.02,0c1.53,0,3.061,0.255,4.335,1.02V237.15
				H398.04z"/>
			<path display="none" fill="#FFFFFF" d="M392.94,273.615v-9.18c-2.04-1.785-3.57-4.335-3.57-7.395c0-2.805,1.53-5.61,3.57-7.395
				v-7.905h-5.1v31.875H392.94z"/>
			<path display="none" fill="#FFFFFF" d="M403.395,273.615v-7.905c-1.274,0.51-2.805,1.02-4.335,1.02c-0.255,0-0.51,0-1.02,0v6.885
				H403.395z"/>
		</g>
		<g>
			<path display="none" fill="#006519" stroke="#2B880B" stroke-width="2" d="M367.95,5.1h38.25c8.415,0,15.3,4.845,15.3,10.71
				v53.04h-68.85V15.81C352.65,9.945,359.535,5.1,367.95,5.1z"/>
			<path display="none" fill="#FFFFFF" d="M408.75,52.275c0,8.415-30.6,8.415-30.6,0c0-8.67,6.885-15.81,15.3-15.81
				S408.75,43.605,408.75,52.275z"/>
			<path display="none" fill="#FFFFFF" d="M402.885,24.99c0,5.354-4.335,9.69-9.435,9.69c-5.1,0-9.435-4.335-9.435-9.69
				c0-5.355,4.335-9.69,9.435-9.69C398.55,15.3,402.885,19.635,402.885,24.99z"/>
			
				<linearGradient id="SVGID_5_" gradientUnits="userSpaceOnUse" x1="1.1846" y1="612.0039" x2="-0.0924" y2="612.0039" gradientTransform="matrix(53.55 0 0 -127.5 341.6625 78576.25)">
				<stop  offset="0" style="stop-color:#8BC0FC"/>
				<stop  offset="1" style="stop-color:#6A96D3"/>
			</linearGradient>
			<path display="none" fill="url(#SVGID_5_)" stroke="#008C23" d="M367.95,481.95h38.505c8.415,0,15.045,1.02,15.045,2.04v123.42
				c0,1.02-6.63,2.04-15.045,2.04H367.95C367.95,603.84,367.95,485.775,367.95,481.95z"/>
			
				<linearGradient id="SVGID_6_" gradientUnits="userSpaceOnUse" x1="1.1846" y1="612.0029" x2="-0.0924" y2="612.0029" gradientTransform="matrix(53.55 0 0 -142.8 341.6625 87740.875)">
				<stop  offset="0" style="stop-color:#FFD86B"/>
				<stop  offset="1" style="stop-color:#F1A554"/>
			</linearGradient>
			<path display="none" fill="url(#SVGID_6_)" stroke="#008C23" d="M367.95,275.4h38.505c8.415,0,15.045,1.02,15.045,2.04v138.72
				c0,1.02-6.63,2.04-15.045,2.04H367.95C367.95,412.59,367.95,279.225,367.95,275.4z"/>
			
				<linearGradient id="SVGID_7_" gradientUnits="userSpaceOnUse" x1="1.2397" y1="612.0039" x2="-0.0363" y2="612.0039" gradientTransform="matrix(53.6258 0 0 -132.6 341.6246 81291.9922)">
				<stop  offset="0" style="stop-color:#57AF00"/>
				<stop  offset="1" style="stop-color:#3F9B07"/>
			</linearGradient>
			<path display="none" fill="url(#SVGID_7_)" stroke="#008C23" d="M367.95,73.95h38.505c8.16,0,15.045,1.02,15.045,2.04v128.52
				c0,1.02,2.04,2.04-15.045,2.04H367.95C367.95,200.94,367.95,77.775,367.95,73.95z"/>
			<rect x="367.95" y="209.1" display="none" fill="#D9A300" stroke="#008C23" width="53.55" height="63.75"/>
			<rect x="367.95" y="420.75" display="none" fill="#004C66" stroke="#008C23" width="53.55" height="63.75"/>
			<g>
				<rect x="379.425" y="437.835" display="none" fill="#FFFFFF" width="30.601" height="7.14"/>
				<rect x="379.425" y="448.29" display="none" fill="#FFFFFF" width="30.601" height="7.14"/>
				<rect x="379.425" y="459" display="none" fill="#FFFFFF" width="30.601" height="7.14"/>
			</g>
			
				<image display="none" overflow="visible" enable-background="new    " width="14" height="16" xlink:href="profile_btn.svg.images/image1.png"  transform="matrix(2.55 0 0 2.55 388.3496 443.7012)">
			</image>
		</g>
		<g enable-background="new    ">
			<path fill="#614100" d="M402.514,444.844c-0.092-2.478-0.184-5.476-0.184-8.475h-0.092c-0.643,2.632-1.499,5.568-2.295,7.985
				l-2.508,8.046h-3.641l-2.203-7.984c-0.673-2.417-1.376-5.354-1.866-8.047h-0.061c-0.123,2.784-0.214,5.966-0.367,8.536
				l-0.367,7.832h-4.314l1.316-20.62h6.21l2.019,6.884c0.643,2.386,1.285,4.956,1.744,7.373h0.092
				c0.581-2.387,1.285-5.109,1.958-7.404l2.203-6.853h6.088l1.133,20.62h-4.559L402.514,444.844z"/>
			<path fill="#614100" d="M402.117,474.617h-7.587v4.896h8.475v3.824h-13.156v-20.62h12.727v3.824h-8.046v4.283h7.587V474.617z"/>
			<path fill="#614100" d="M387.462,513.938v-20.62h5.446l4.284,7.557c1.223,2.172,2.447,4.742,3.365,7.067h0.092
				c-0.307-2.724-0.398-5.507-0.398-8.598v-6.026h4.283v20.62h-4.895l-4.406-7.954c-1.224-2.203-2.57-4.864-3.58-7.281l-0.092,0.03
				c0.123,2.723,0.184,5.629,0.184,8.994v6.211H387.462z"/>
			<path fill="#614100" d="M392.235,523.917v11.87c0,3.549,1.346,5.354,3.732,5.354c2.448,0,3.793-1.714,3.793-5.354v-11.87h4.65
				v11.564c0,6.363-3.212,9.393-8.597,9.393c-5.201,0-8.26-2.876-8.26-9.454v-11.503H392.235z"/>
		</g>
		<g id="SPANISH">
			<g>
				<path display="none" d="M383.505,97.41v2.295h7.395c0,0.765,0,1.53,0,2.295c0,3.06,0.765,5.355,2.295,6.885
					c1.275,0.765,3.315,1.275,5.865,1.275c2.296,0,4.335-0.51,5.355-1.53c1.275-1.275,1.785-3.315,1.785-6.12
					c0-2.55,0-4.08-0.255-5.1H383.505L383.505,97.41z M403.905,99.705c0,0.51,0.255,1.53,0.255,2.805
					c0,3.06-1.785,5.355-5.355,5.355c-3.57,0-5.865-2.295-5.865-5.61c0-1.02,0.255-2.04,0.255-2.55H403.905L403.905,99.705z"/>
				<path display="none" d="M395.745,126.225v-8.16h8.415v8.67h2.04V115.77h-22.95v11.475h2.04v-9.18h8.415v8.16H395.745
					L395.745,126.225z"/>
				<path display="none" d="M383.505,131.325v2.295h7.65v2.805c-0.255,2.805-1.02,4.08-3.57,4.59c-2.04,0.765-3.57,1.02-4.08,1.53
					v2.295c0.51-0.255,2.295-0.765,4.845-1.275c1.785-0.51,3.06-1.275,3.57-3.06h0.255c0.765,2.295,3.315,3.57,6.885,3.57
					c2.296,0,4.335-0.51,5.355-1.275c1.275-1.275,1.785-3.315,1.785-6.375c0-2.04,0-3.825-0.255-5.1H383.505L383.505,131.325z
					 M403.65,133.62c0.255,0.51,0.51,1.53,0.51,3.06c0,3.06-1.785,5.1-5.355,5.1c-3.314,0-5.61-1.785-5.61-5.1v-3.06H403.65
					L403.65,133.62z"/>
				<path display="none" d="M383.505,149.685v2.295h10.2v7.905h2.04v-7.905h8.415v8.67h2.04v-10.965H383.505L383.505,149.685z"/>
				<path display="none" d="M405.945,165.495h-22.44v2.295h22.44V165.495L405.945,165.495z"/>
				<path display="none" d="M383.25,173.4v11.22h2.04v-8.925h20.655V173.4H383.25L383.25,173.4z"/>
			</g>
			<g>
				<path display="none" d="M383.505,301.92v2.295h10.2v7.905h2.04v-7.905h8.415v8.415h2.04v-10.71H383.505L383.505,301.92z"/>
				<path display="none" d="M405.945,317.475h-22.44v2.295h22.44V317.475L405.945,317.475z"/>
				<path display="none" d="M383.25,325.38v11.22h2.04v-8.925h20.655v-2.295H383.25L383.25,325.38z"/>
				<path display="none" d="M383.505,343.74v2.295h20.655v6.375h2.04v-15.045h-2.04v6.375H383.505L383.505,343.74z"/>
				<path display="none" d="M383.505,356.745v2.295h7.65v2.805c-0.255,2.55-1.02,3.825-3.57,4.59c-2.04,0.511-3.57,1.021-4.08,1.275
					v2.55c0.51-0.51,2.295-1.02,4.845-1.529c1.785-0.256,3.06-1.275,3.57-2.806h0.255c0.765,2.04,3.315,3.57,6.885,3.57
					c2.296,0,4.335-0.51,5.355-1.275c1.275-1.274,1.785-3.314,1.785-6.375c0-2.04,0-3.825-0.255-5.1H383.505L383.505,356.745z
					 M403.65,359.04c0.255,0.51,0.51,1.53,0.51,2.805c0,3.315-1.785,5.355-5.355,5.355c-3.314,0-5.61-2.04-5.61-5.101v-3.06H403.65
					L403.65,359.04z"/>
				<path display="none" d="M406.2,383.01c0-6.885-4.335-10.455-11.73-10.455c-6.885,0-11.22,3.315-11.22,9.945
					c0,6.375,3.825,10.455,11.73,10.455C401.61,392.955,406.2,389.895,406.2,383.01L406.2,383.01z M404.16,382.755
					c0,5.355-4.845,7.905-9.435,7.905c-5.1,0-9.435-2.805-9.435-7.905c0-5.1,4.335-7.905,9.435-7.905
					C399.57,374.85,404.16,377.4,404.16,382.755L404.16,382.755z"/>
			</g>
			<g>
				<path display="none" d="M383.505,524.025v2.55L406.2,525.3v-3.314l-10.455-3.57c-3.06-0.765-5.61-1.53-8.16-2.04v-0.255
					c2.55-0.51,5.1-1.021,8.16-2.04l10.455-3.315v-3.314l-22.695-1.53v2.55l9.945,0.511c3.825,0.255,7.649,0.51,10.71,0.51l0,0
					c-2.805,0.51-5.865,1.274-9.435,2.295l-11.22,3.314v2.04l11.475,3.57c3.315,1.021,6.375,1.785,9.18,2.55l0,0
					c-3.061,0-7.141,0.255-10.455,0.255L383.505,524.025L383.505,524.025z"/>
				<path display="none" d="M395.745,542.64v-8.159h8.415v8.67h2.04v-10.966h-22.95v11.476h2.04v-9.18h8.415v8.159H395.745
					L395.745,542.64z"/>
				<path display="none" d="M383.505,550.29h9.69c4.845,0,7.65-0.255,10.71-0.255h0.255c-2.805,1.02-5.61,2.55-8.415,4.08
					l-12.24,6.63v2.55H406.2V561h-8.415c-6.12,0-8.925,0-12.24,0.255h-0.255c2.55-1.02,5.355-2.295,8.16-3.825l12.495-6.885v-2.55
					H383.25L383.505,550.29L383.505,550.29z"/>
				<path display="none" d="M405.945,568.905h-13.26c-7.14,0-9.435,2.805-9.435,7.395c0,4.845,2.55,7.905,9.435,7.905h13.26v-2.295
					h-13.26c-5.1,0-7.395-2.295-7.395-5.61c0-3.06,2.295-5.1,7.395-5.1h13.26V568.905L405.945,568.905z M408.495,578.085
					l-2.04-3.315v2.551l2.04,4.335V578.085L408.495,578.085z"/>
			</g>
		</g>
		<g enable-background="new    ">
			<path fill="#002D0C" d="M388.686,112.677V92.598h6.506c2.465,0,4.072,0.101,4.822,0.301c1.15,0.301,2.113,0.957,2.889,1.965
				c0.777,1.009,1.165,2.313,1.165,3.91c0,1.233-0.224,2.269-0.671,3.109c-0.447,0.84-1.016,1.5-1.705,1.979
				s-1.391,0.797-2.104,0.952c-0.967,0.192-2.369,0.288-4.204,0.288h-2.644v7.574H388.686z M392.74,95.995v5.698h2.219
				c1.598,0,2.666-0.105,3.205-0.315s0.961-0.539,1.268-0.986c0.305-0.447,0.458-0.968,0.458-1.562c0-0.73-0.214-1.333-0.644-1.808
				s-0.973-0.771-1.63-0.89c-0.483-0.091-1.457-0.137-2.917-0.137H392.74z"/>
			<path fill="#002D0C" d="M387.926,140.727v-20.079h8.533c2.146,0,3.705,0.18,4.678,0.541c0.972,0.361,1.75,1.002,2.334,1.924
				c0.585,0.922,0.877,1.977,0.877,3.164c0,1.507-0.443,2.751-1.328,3.732c-0.886,0.981-2.21,1.6-3.973,1.856
				c0.877,0.511,1.601,1.073,2.172,1.685c0.57,0.612,1.34,1.698,2.307,3.26l2.452,3.917h-4.849l-2.931-4.369
				c-1.041-1.562-1.753-2.545-2.137-2.952c-0.383-0.406-0.79-0.685-1.219-0.835c-0.429-0.15-1.109-0.226-2.041-0.226h-0.822v8.382
				H387.926z M391.98,129.14h3c1.944,0,3.159-0.083,3.644-0.247c0.484-0.165,0.863-0.447,1.137-0.849s0.41-0.904,0.41-1.507
				c0-0.675-0.18-1.221-0.541-1.637c-0.36-0.415-0.869-0.678-1.526-0.788c-0.329-0.045-1.315-0.068-2.958-0.068h-3.164V129.14z"/>
			<path fill="#002D0C" d="M386.31,158.861c0-2.045,0.306-3.762,0.918-5.15c0.457-1.022,1.08-1.94,1.87-2.753
				c0.79-0.813,1.655-1.415,2.595-1.808c1.251-0.529,2.693-0.794,4.328-0.794c2.958,0,5.325,0.918,7.102,2.753
				c1.776,1.835,2.664,4.387,2.664,7.656c0,3.242-0.882,5.778-2.644,7.608c-1.762,1.831-4.118,2.746-7.067,2.746
				c-2.986,0-5.36-0.911-7.122-2.732C387.191,164.565,386.31,162.057,386.31,158.861z M390.487,158.724
				c0,2.274,0.525,3.998,1.575,5.17c1.05,1.173,2.383,1.76,4,1.76s2.942-0.583,3.979-1.747c1.035-1.164,1.554-2.91,1.554-5.239
				c0-2.301-0.505-4.018-1.513-5.15c-1.01-1.132-2.35-1.698-4.021-1.698s-3.018,0.573-4.041,1.719
				C390.999,154.686,390.487,156.414,390.487,158.724z"/>
			<path fill="#002D0C" d="M389.501,196.826v-20.079h13.764v3.396h-9.71v4.752h8.382v3.397h-8.382v8.533H389.501z"/>
			<path fill="#002D0C" d="M394.021,224.876v-20.079h4.054v20.079H394.021z"/>
			<path fill="#002D0C" d="M389.583,252.927v-19.914h4.054v16.531h10.08v3.383H389.583z"/>
			<path fill="#002D0C" d="M388.686,280.977v-20.079h14.888v3.397H392.74v4.451h10.08v3.383h-10.08v5.465h11.217v3.383H388.686z"/>
		</g>
	</g>
</g>
</svg>
