<?xml version="1.0" standalone="no"?>

<svg viewBox="0 0 20 20" style="background-color:#ffffff00" version="1.1" xmlns="http://www.w3.org/2000/svg" xmlns:xlink="http://www.w3.org/1999/xlink" xml:space="preserve" x="0px" y="0px" width="100%" height="100%">
	<g id="Layer%201">
		<path d="M 18.7 17.7 C 18.6 17.9 18.5 18 18.2 18 L 1.8 18 C 1.5 18 1.4 17.9 1.3 17.7 C 1.1 17.6 1 17.5 1 17.3 L 1 15.7 C 1 15.5 1.1 15.4 1.3 15.3 C 1.4 15.1 1.5 15 1.8 15 L 18.2 15 C 18.5 15 18.6 15.1 18.7 15.3 C 18.9 15.4 19 15.5 19 15.7 L 19 17.3 C 19 17.5 18.9 17.6 18.7 17.7 ZM 18.2 12 L 1.8 12 C 1.5 12 1.4 11.9 1.3 11.7 C 1.1 11.6 1 11.5 1 11.2 L 1 9.8 C 1 9.5 1.1 9.4 1.3 9.3 C 1.4 9.1 1.5 9 1.8 9 L 18.2 9 C 18.5 9 18.6 9.1 18.7 9.3 C 18.9 9.4 19 9.5 19 9.8 L 19 11.2 C 19 11.5 18.9 11.6 18.7 11.7 C 18.6 11.9 18.5 12 18.2 12 ZM 18.2 6 L 1.8 6 C 1.5 6 1.4 5.9 1.3 5.7 C 1.1 5.6 1 5.5 1 5.3 L 1 3.7 C 1 3.5 1.1 3.4 1.3 3.3 C 1.4 3.1 1.5 3 1.8 3 L 18.2 3 C 18.5 3 18.6 3.1 18.7 3.3 C 18.9 3.4 19 3.5 19 3.7 L 19 5.3 C 19 5.5 18.9 5.6 18.7 5.7 C 18.6 5.9 18.5 6 18.2 6 Z" fill="#006519"/>
	</g>
</svg>