<?xml version="1.0" standalone="no"?>

<svg viewBox="0 0 44 44" style="background-color:#ffffff00" version="1.1" xmlns="http://www.w3.org/2000/svg" xmlns:xlink="http://www.w3.org/1999/xlink" xml:space="preserve" x="0px" y="0px" width="100%" height="100%">
	<defs>
		<radialGradient id="gradient1" cx="53.5%" cy="34%" r="101.7%">
			<stop stop-color="#f49b7e" stop-opacity="1" offset="1%"/>
			<stop stop-color="#a70803" stop-opacity="1" offset="53%"/>
		</radialGradient>
		<radialGradient id="gradient2" cx="50.6%" cy="18.1%" r="172.9%">
			<stop stop-color="#f5dcc3" stop-opacity="1" offset="1%"/>
			<stop stop-color="#ffb92a" stop-opacity="1" offset="23%"/>
			<stop stop-color="#ff8012" stop-opacity="1" offset="50%"/>
		</radialGradient>
		<radialGradient id="gradient3" cx="50.7%" cy="39%" r="217.3%">
			<stop stop-color="#f5dcc3" stop-opacity="1" offset="1%"/>
			<stop stop-color="#b8291e" stop-opacity="1" offset="23%"/>
			<stop stop-color="#a70803" stop-opacity="1" offset="50%"/>
		</radialGradient>
		<radialGradient id="gradient4" cx="50%" cy="42.7%" r="125.7%">
			<stop stop-color="#f5dcc3" stop-opacity="1" offset="1%"/>
			<stop stop-color="#c24929" stop-opacity="1" offset="39%"/>
			<stop stop-color="#aa0e08" stop-opacity="1" offset="69%"/>
		</radialGradient>
	</defs>
	<g>
		<path d="M 27.3 25.3 C 27.4 25.2 27.4 25.2 27.5 25.1 L 22.9 24 C 21.1 25.2 19 25.9 16.6 25.9 C 14.3 25.9 12.2 25.2 10.4 24 L 5.1 25.3 C 4.2 25.6 3.6 26.3 3.5 27.3 L 3 34.8 C 6.9 37.4 11.6 39 16.6 39 C 20.1 39 23.3 38.3 26.3 37 C 25.2 35.5 24.6 33.7 24.6 31.8 C 24.6 29.3 25.6 27 27.3 25.3 Z" fill="url(#gradient1)"/>
		<path d="M 25.5 14.8 C 25.5 19.7 21.5 23.7 16.6 23.7 C 11.8 23.7 7.8 19.7 7.8 14.8 C 7.8 10 11.8 6 16.6 6 C 21.5 6 25.5 10 25.5 14.8 Z" fill="url(#gradient2)"/>
		<path d="M 16.6 7.3 C 13.4 7.3 10.7 9.3 9.6 12.2 C 10.9 10.2 13.6 8.8 16.6 8.8 C 19.7 8.8 22.4 10.2 23.7 12.2 C 22.6 9.3 19.9 7.3 16.6 7.3 Z" fill="url(#gradient3)"/>
		<path d="M 23 25.4 C 21.1 26.5 18.9 27.2 16.6 27.2 C 14.4 27.2 12.2 26.5 10.3 25.3 C 9.5 25.5 5.6 26.5 5.5 26.6 C 5.1 26.7 4.9 27 4.8 27.3 C 4.8 27.3 4.8 27.7 4.8 28.1 C 4.9 28 5 27.9 5.2 27.9 C 5.3 27.9 9.4 26.8 10.1 26.7 C 12.1 27.8 14.3 32.4 16.6 32.4 C 19 32.4 21.2 27.8 23.2 26.7 C 23.5 26.8 24.7 27 25.8 27.3 C 26 26.9 26.2 26.6 26.5 26.2 C 25.2 25.9 23.5 25.5 23 25.4 Z" fill="#fdd67d"/>
		<path d="M 41 31.8 C 41 35.7 37.8 39 33.8 39 C 29.8 39 26.6 35.7 26.6 31.8 C 26.6 27.8 29.8 24.6 33.8 24.6 C 37.8 24.6 41 27.8 41 31.8 Z" fill="url(#gradient4)"/>
		<path d="M 29.6 36 C 28.9 35.2 28.9 34.1 29.6 33.4 L 31.2 31.8 L 29.6 30.2 C 28.9 29.5 28.9 28.3 29.6 27.6 C 30.3 26.9 31.5 26.9 32.2 27.6 L 33.8 29.2 L 35.4 27.6 C 36.1 26.9 37.3 26.9 38 27.6 C 38.7 28.3 38.7 29.5 38 30.2 L 36.4 31.8 L 38 33.4 C 38.7 34.1 38.7 35.2 38 36 C 37.3 36.7 36.1 36.7 35.4 36 L 33.8 34.4 L 32.2 36 C 31.5 36.7 30.3 36.7 29.6 36 L 29.6 36 Z" fill="#b72e1a"/>
		<path d="M 37.6 33.7 L 35.6 31.8 L 37.6 29.8 C 38.1 29.3 38.1 28.5 37.6 27.9 C 37.1 27.4 36.3 27.4 35.8 27.9 L 33.8 29.9 L 31.8 27.9 C 31.3 27.4 30.5 27.4 30 27.9 C 29.5 28.5 29.5 29.3 30 29.8 L 31.9 31.8 L 30 33.7 C 29.5 34.2 29.5 35.1 30 35.6 C 30.5 36.1 31.3 36.1 31.8 35.6 L 33.8 33.6 L 35.8 35.6 C 36.3 36.1 37.1 36.1 37.6 35.6 C 38.1 35.1 38.1 34.2 37.6 33.7 Z" fill="#ffffff"/>
	</g>
</svg>