<?xml version="1.0" standalone="no"?>

<svg viewBox="0 0 48 48" style="background-color:#ffffff00" version="1.1" xmlns="http://www.w3.org/2000/svg" xmlns:xlink="http://www.w3.org/1999/xlink" xml:space="preserve" x="0px" y="0px" width="100%" height="100%">
	<defs>
		<linearGradient id="gradient1" x1="50.3%" y1="-0.2%" x2="50.3%" y2="99.6%">
			<stop stop-color="#b8b8c1" stop-opacity="1" offset="1%"/>
			<stop stop-color="#5b5b68" stop-opacity="1" offset="99%"/>
		</linearGradient>
		<radialGradient id="gradient2" cx="73.2%" cy="6.1%" r="103.1%">
			<stop stop-color="#dedee5" stop-opacity="1" offset="1%"/>
			<stop stop-color="#d7d7df" stop-opacity="1" offset="25%"/>
			<stop stop-color="#d2d2da" stop-opacity="1" offset="42%"/>
			<stop stop-color="#dedee5" stop-opacity="1" offset="50%"/>
			<stop stop-color="#dedee5" stop-opacity="1" offset="64%"/>
			<stop stop-color="#ceced6" stop-opacity="1" offset="74%"/>
			<stop stop-color="#ceced6" stop-opacity="1" offset="83%"/>
			<stop stop-color="#dddde5" stop-opacity="1" offset="89%"/>
			<stop stop-color="#d0d0d8" stop-opacity="1" offset="99%"/>
		</radialGradient>
		<radialGradient id="gradient3" cx="74%" cy="7.3%" r="103.2%">
			<stop stop-color="#e1e1e7" stop-opacity="1" offset="1%"/>
			<stop stop-color="#d4d4dd" stop-opacity="1" offset="25%"/>
			<stop stop-color="#c9c9d2" stop-opacity="1" offset="42%"/>
			<stop stop-color="#e1e1e7" stop-opacity="1" offset="50%"/>
			<stop stop-color="#e1e1e7" stop-opacity="1" offset="64%"/>
			<stop stop-color="#c1c1c9" stop-opacity="1" offset="74%"/>
			<stop stop-color="#c1c1c9" stop-opacity="1" offset="83%"/>
			<stop stop-color="#dedee7" stop-opacity="1" offset="89%"/>
			<stop stop-color="#c5c5ce" stop-opacity="1" offset="99%"/>
		</radialGradient>
		<radialGradient id="gradient4" cx="74.4%" cy="7.6%" r="102.3%">
			<stop stop-color="#e5e5ea" stop-opacity="1" offset="1%"/>
			<stop stop-color="#d0d0da" stop-opacity="1" offset="25%"/>
			<stop stop-color="#c0c0ca" stop-opacity="1" offset="42%"/>
			<stop stop-color="#e5e5ea" stop-opacity="1" offset="50%"/>
			<stop stop-color="#e5e5ea" stop-opacity="1" offset="64%"/>
			<stop stop-color="#b3b3bd" stop-opacity="1" offset="74%"/>
			<stop stop-color="#b3b3bd" stop-opacity="1" offset="83%"/>
			<stop stop-color="#e0e0ea" stop-opacity="1" offset="89%"/>
			<stop stop-color="#b9b9c4" stop-opacity="1" offset="99%"/>
		</radialGradient>
		<radialGradient id="gradient5" cx="74.5%" cy="6.6%" r="102.3%">
			<stop stop-color="#e8e8ec" stop-opacity="1" offset="1%"/>
			<stop stop-color="#ccccd8" stop-opacity="1" offset="25%"/>
			<stop stop-color="#b7b7c2" stop-opacity="1" offset="42%"/>
			<stop stop-color="#e8e8ec" stop-opacity="1" offset="50%"/>
			<stop stop-color="#e8e8ec" stop-opacity="1" offset="64%"/>
			<stop stop-color="#a6a6b1" stop-opacity="1" offset="74%"/>
			<stop stop-color="#a6a6b1" stop-opacity="1" offset="83%"/>
			<stop stop-color="#e1e1ec" stop-opacity="1" offset="89%"/>
			<stop stop-color="#aeaeba" stop-opacity="1" offset="99%"/>
		</radialGradient>
		<radialGradient id="gradient6" cx="74.9%" cy="6.9%" r="102.2%">
			<stop stop-color="#ebebef" stop-opacity="1" offset="1%"/>
			<stop stop-color="#c8c8d5" stop-opacity="1" offset="25%"/>
			<stop stop-color="#aeaeba" stop-opacity="1" offset="42%"/>
			<stop stop-color="#ebebef" stop-opacity="1" offset="50%"/>
			<stop stop-color="#ebebef" stop-opacity="1" offset="64%"/>
			<stop stop-color="#9999a5" stop-opacity="1" offset="74%"/>
			<stop stop-color="#9999a5" stop-opacity="1" offset="83%"/>
			<stop stop-color="#e3e3ef" stop-opacity="1" offset="89%"/>
			<stop stop-color="#a3a3b0" stop-opacity="1" offset="99%"/>
		</radialGradient>
		<radialGradient id="gradient7" cx="74.7%" cy="6%" r="102%">
			<stop stop-color="#eeeef1" stop-opacity="1" offset="1%"/>
			<stop stop-color="#c5c5d3" stop-opacity="1" offset="25%"/>
			<stop stop-color="#a5a5b1" stop-opacity="1" offset="42%"/>
			<stop stop-color="#eeeef1" stop-opacity="1" offset="50%"/>
			<stop stop-color="#eeeef1" stop-opacity="1" offset="64%"/>
			<stop stop-color="#8c8c98" stop-opacity="1" offset="74%"/>
			<stop stop-color="#8c8c98" stop-opacity="1" offset="83%"/>
			<stop stop-color="#e4e4f1" stop-opacity="1" offset="89%"/>
			<stop stop-color="#9898a6" stop-opacity="1" offset="99%"/>
		</radialGradient>
		<radialGradient id="gradient8" cx="75.1%" cy="6.6%" r="103.4%">
			<stop stop-color="#f1f1f4" stop-opacity="1" offset="1%"/>
			<stop stop-color="#c1c1d0" stop-opacity="1" offset="25%"/>
			<stop stop-color="#9c9ca9" stop-opacity="1" offset="42%"/>
			<stop stop-color="#f1f1f4" stop-opacity="1" offset="50%"/>
			<stop stop-color="#f1f1f4" stop-opacity="1" offset="64%"/>
			<stop stop-color="#7f7f8c" stop-opacity="1" offset="74%"/>
			<stop stop-color="#7f7f8c" stop-opacity="1" offset="83%"/>
			<stop stop-color="#e6e6f4" stop-opacity="1" offset="89%"/>
			<stop stop-color="#8d8d9c" stop-opacity="1" offset="99%"/>
		</radialGradient>
		<radialGradient id="gradient9" cx="75.2%" cy="7.5%" r="102.4%">
			<stop stop-color="#f4f4f6" stop-opacity="1" offset="1%"/>
			<stop stop-color="#bdbdce" stop-opacity="1" offset="25%"/>
			<stop stop-color="#9393a1" stop-opacity="1" offset="42%"/>
			<stop stop-color="#f4f4f6" stop-opacity="1" offset="50%"/>
			<stop stop-color="#f4f4f6" stop-opacity="1" offset="64%"/>
			<stop stop-color="#727280" stop-opacity="1" offset="74%"/>
			<stop stop-color="#727280" stop-opacity="1" offset="83%"/>
			<stop stop-color="#e7e7f6" stop-opacity="1" offset="89%"/>
			<stop stop-color="#828292" stop-opacity="1" offset="99%"/>
		</radialGradient>
		<radialGradient id="gradient10" cx="75%" cy="7.6%" r="103.2%">
			<stop stop-color="#f8f8f9" stop-opacity="1" offset="1%"/>
			<stop stop-color="#b9b9cb" stop-opacity="1" offset="25%"/>
			<stop stop-color="#8a8a99" stop-opacity="1" offset="42%"/>
			<stop stop-color="#f8f8f9" stop-opacity="1" offset="50%"/>
			<stop stop-color="#f8f8f9" stop-opacity="1" offset="64%"/>
			<stop stop-color="#646474" stop-opacity="1" offset="74%"/>
			<stop stop-color="#646474" stop-opacity="1" offset="83%"/>
			<stop stop-color="#e9e9f9" stop-opacity="1" offset="89%"/>
			<stop stop-color="#767688" stop-opacity="1" offset="99%"/>
		</radialGradient>
		<radialGradient id="gradient11" cx="75.8%" cy="7.3%" r="103.4%">
			<stop stop-color="#fbfbfb" stop-opacity="1" offset="1%"/>
			<stop stop-color="#b6b6c9" stop-opacity="1" offset="25%"/>
			<stop stop-color="#818191" stop-opacity="1" offset="42%"/>
			<stop stop-color="#fbfbfb" stop-opacity="1" offset="50%"/>
			<stop stop-color="#fbfbfb" stop-opacity="1" offset="64%"/>
			<stop stop-color="#575767" stop-opacity="1" offset="74%"/>
			<stop stop-color="#575767" stop-opacity="1" offset="83%"/>
			<stop stop-color="#eaeafb" stop-opacity="1" offset="89%"/>
			<stop stop-color="#6b6b7e" stop-opacity="1" offset="99%"/>
		</radialGradient>
		<radialGradient id="gradient12" cx="75.7%" cy="7.2%" r="103.4%">
			<stop stop-color="#ffffff" stop-opacity="1" offset="1%"/>
			<stop stop-color="#b2b2c6" stop-opacity="1" offset="25%"/>
			<stop stop-color="#787889" stop-opacity="1" offset="42%"/>
			<stop stop-color="#ffffff" stop-opacity="1" offset="50%"/>
			<stop stop-color="#ffffff" stop-opacity="1" offset="64%"/>
			<stop stop-color="#4a4a5b" stop-opacity="1" offset="74%"/>
			<stop stop-color="#4a4a5b" stop-opacity="1" offset="83%"/>
			<stop stop-color="#ececff" stop-opacity="1" offset="89%"/>
			<stop stop-color="#606074" stop-opacity="1" offset="99%"/>
		</radialGradient>
		<linearGradient id="gradient13" x1="50%" y1="99.6%" x2="50%" y2="0%">
			<stop stop-color="#f1f4f6" stop-opacity="1" offset="1%"/>
			<stop stop-color="#6c6c7c" stop-opacity="1" offset="59%"/>
			<stop stop-color="#4a4a5b" stop-opacity="1" offset="99%"/>
		</linearGradient>
		<radialGradient id="gradient14" cx="78.2%" cy="5%" r="92.5%">
			<stop stop-color="#454542" stop-opacity="1" offset="1%"/>
			<stop stop-color="#2f2f2c" stop-opacity="1" offset="49%"/>
			<stop stop-color="#0e0e0e" stop-opacity="1" offset="99%"/>
		</radialGradient>
		<linearGradient id="gradient15" x1="50%" y1="0%" x2="50%" y2="90%">
			<stop stop-color="#ffffff" stop-opacity="1" offset="1%"/>
			<stop stop-color="#ffffff" stop-opacity="1" offset="99%"/>
		</linearGradient>
		<linearGradient id="gradient16" x1="122.2%" y1="158.6%" x2="53.6%" y2="61.2%">
			<stop stop-color="#720b00" stop-opacity="1" offset="1%"/>
			<stop stop-color="#ffc825" stop-opacity="1" offset="98%"/>
		</linearGradient>
		<linearGradient id="gradient17" x1="67.9%" y1="50.9%" x2="168.1%" y2="50.9%">
			<stop stop-color="#720b00" stop-opacity="1" offset="1%"/>
			<stop stop-color="#cb3743" stop-opacity="1" offset="99%"/>
		</linearGradient>
		<linearGradient id="gradient18" x1="46%" y1="17.3%" x2="73.8%" y2="116.5%">
			<stop stop-color="#720b00" stop-opacity="1" offset="1%"/>
			<stop stop-color="#007fff" stop-opacity="1" offset="98%"/>
		</linearGradient>
	</defs>
	<g id="Layer%201">
		<g>
			<path d="M 24 43 C 13.5 43 5 34.5 5 24 C 5 13.5 13.5 5 24 5 C 34.5 5 43 13.5 43 24 C 43 34.5 34.5 43 24 43 Z" fill="url(#gradient1)"/>
			<g>
				<path d="M 42.5 24 C 42.5 13.8 34.2 5.5 24 5.5 C 13.8 5.5 5.5 13.8 5.5 24 C 5.5 34.2 13.8 42.5 24 42.5 C 34.2 42.5 42.5 34.2 42.5 24 Z" fill="#dbdbe2"/>
				<path d="M 42.3 24 C 42.3 13.9 34.1 5.7 24 5.7 C 13.9 5.7 5.7 13.9 5.7 24 C 5.7 34.1 13.9 42.3 24 42.3 C 34.1 42.3 42.3 34.1 42.3 24 Z" fill="url(#gradient2)"/>
				<path d="M 42.2 24 C 42.2 14 34 5.8 24 5.8 C 14 5.8 5.8 14 5.8 24 C 5.8 34 14 42.2 24 42.2 C 34 42.2 42.2 34 42.2 24 Z" fill="url(#gradient3)"/>
				<path d="M 42 24 C 42 14 34 6 24 6 C 14 6 6 14 6 24 C 6 34 14 42 24 42 C 34 42 42 34 42 24 Z" fill="url(#gradient4)"/>
				<path d="M 41.9 24 C 41.9 14.1 33.9 6.1 24 6.1 C 14.1 6.1 6.1 14.1 6.1 24 C 6.1 33.9 14.1 41.9 24 41.9 C 33.9 41.9 41.9 33.9 41.9 24 Z" fill="url(#gradient5)"/>
				<path d="M 41.7 24 C 41.7 14.2 33.8 6.3 24 6.3 C 14.2 6.3 6.3 14.2 6.3 24 C 6.3 33.8 14.2 41.7 24 41.7 C 33.8 41.7 41.7 33.8 41.7 24 Z" fill="url(#gradient6)"/>
				<path d="M 41.6 24 C 41.6 14.3 33.7 6.4 24 6.4 C 14.3 6.4 6.4 14.3 6.4 24 C 6.4 33.7 14.3 41.6 24 41.6 C 33.7 41.6 41.6 33.7 41.6 24 Z" fill="url(#gradient7)"/>
				<path d="M 41.4 24 C 41.4 14.4 33.6 6.6 24 6.6 C 14.4 6.6 6.6 14.4 6.6 24 C 6.6 33.6 14.4 41.4 24 41.4 C 33.6 41.4 41.4 33.6 41.4 24 Z" fill="url(#gradient8)"/>
				<path d="M 41.3 24 C 41.3 14.5 33.5 6.7 24 6.7 C 14.5 6.7 6.7 14.5 6.7 24 C 6.7 33.5 14.5 41.3 24 41.3 C 33.5 41.3 41.3 33.5 41.3 24 Z" fill="url(#gradient9)"/>
				<path d="M 41.1 24 C 41.1 14.5 33.5 6.9 24 6.9 C 14.5 6.9 6.9 14.5 6.9 24 C 6.9 33.5 14.5 41.1 24 41.1 C 33.5 41.1 41.1 33.5 41.1 24 Z" fill="url(#gradient10)"/>
				<path d="M 41 24 C 41 14.6 33.4 7 24 7 C 14.6 7 7 14.6 7 24 C 7 33.4 14.6 41 24 41 C 33.4 41 41 33.4 41 24 Z" fill="url(#gradient11)"/>
				<path d="M 40.8 24 C 40.8 14.7 33.3 7.2 24 7.2 C 14.7 7.2 7.2 14.7 7.2 24 C 7.2 33.3 14.7 40.8 24 40.8 C 33.3 40.8 40.8 33.3 40.8 24 Z" fill="url(#gradient12)"/>
			</g>
			<path d="M 24 39.8 C 15.3 39.8 8.2 32.7 8.2 24 C 8.2 15.3 15.3 8.2 24 8.2 C 32.7 8.2 39.8 15.3 39.8 24 C 39.8 32.7 32.7 39.8 24 39.8 Z" fill="url(#gradient13)"/>
			<path d="M 24 39.4 C 15.5 39.4 8.6 32.5 8.6 24 C 8.6 15.5 15.5 8.6 24 8.6 C 32.5 8.6 39.4 15.5 39.4 24 C 39.4 32.5 32.5 39.4 24 39.4 Z" fill="url(#gradient14)"/>
			<path d="M 24 6.2 C 34.1 6.2 42.3 14.3 42.5 24.3 C 42.5 24.2 42.5 24.1 42.5 24 C 42.5 13.8 34.2 5.5 24 5.5 C 13.8 5.5 5.5 13.8 5.5 24 C 5.5 24.1 5.5 24.2 5.5 24.3 C 5.7 14.3 13.9 6.2 24 6.2 Z" fill="url(#gradient15)"/>
			<path d="M 23.4 24.4 C 23.2 24.1 23.2 23.7 23.6 23.4 C 23.9 23.2 24.3 23.2 24.6 23.5 C 24.8 23.9 24.8 24.3 24.4 24.6 C 24.1 24.8 23.7 24.7 23.4 24.4 Z" fill="#cb0600"/>
			<path d="M 14.1 34.8 C 10.6 31.7 8.8 26.9 9.4 22.2 L 12.6 22.6 C 12.2 26.2 13.6 29.9 16.3 32.3 L 14.1 34.8 Z" fill="url(#gradient16)"/>
			<g>
				<path d="M 15.2 16.8 L 12.7 14.7 C 15.6 11.1 20.4 9.1 25.1 9.5 L 24.8 12.8 C 21.2 12.4 17.5 14 15.2 16.8 Z" fill="url(#gradient17)"/>
			</g>
			<path d="M 38.4 24 L 38.4 24 L 38.4 24 C 38.4 24 38.4 24 38.4 23.9 L 38.4 23.9 C 38.4 20.8 37.4 17.8 35.5 15.3 C 33.6 12.8 30.9 10.9 27.9 10.1 L 27 13.2 C 29.3 13.8 31.4 15.3 32.9 17.2 C 34.4 19.2 35.2 21.6 35.2 24 L 36.8 24 L 35.2 24 C 35.2 27.9 32.9 31.8 29.4 33.7 L 31 36.6 C 33.2 35.4 35.1 33.5 36.4 31.3 C 37.8 29 38.4 26.5 38.4 24 Z" fill="url(#gradient18)"/>
			<path d="M 9.4 22.3 C 8.9 26.9 10.7 31.6 14.1 34.7 L 16.2 32.3 C 13.5 29.9 12.1 26.3 12.6 22.7 L 12.7 22.6 L 12.7 22.6 C 12.2 26.2 13.6 29.9 16.3 32.3 L 16.4 32.3 L 16.3 32.4 L 14.1 34.8 L 14.1 34.8 C 10.6 31.7 8.8 26.9 9.4 22.2 L 9.4 22.2 L 9.4 22.3 Z" fill="#b12c00"/>
			<g>
				<path d="M 24.8 12.8 L 24.8 12.8 C 24.4 12.8 24.1 12.8 23.8 12.8 C 20.5 12.8 17.3 14.3 15.2 16.8 L 15.2 16.8 L 12.6 14.7 L 12.6 14.7 C 15.3 11.4 19.5 9.4 23.8 9.4 C 24.2 9.4 24.7 9.4 25.1 9.5 L 25.1 9.5 L 25 9.6 C 24.6 9.5 24.2 9.5 23.8 9.5 C 19.5 9.5 15.4 11.4 12.7 14.7 L 15.2 16.7 C 17.3 14.2 20.5 12.7 23.8 12.7 C 24.1 12.7 24.4 12.7 24.7 12.7 L 24.8 12.8 Z" fill="#ffffff"/>
			</g>
			<g>
				<path d="M 27.1 13.2 C 29.4 13.8 31.5 15.3 32.9 17.2 C 34.4 19.1 35.2 21.5 35.2 23.9 L 36.8 23.9 L 36.8 24 L 35.2 24 C 35.2 27.9 32.9 31.8 29.5 33.8 L 31 36.5 C 33.2 35.3 35.1 33.5 36.4 31.2 C 37.7 29 38.4 26.5 38.4 24 L 38.4 23.9 C 38.4 20.9 37.4 17.8 35.5 15.3 C 33.6 12.8 30.9 11 28 10.1 L 27.9 10 L 28 10 C 30.9 10.9 33.6 12.7 35.5 15.3 C 37.4 17.7 38.5 20.8 38.5 23.9 L 38.5 24 C 38.5 26.5 37.8 29 36.5 31.3 C 35.1 33.5 33.3 35.4 31 36.6 L 31 36.6 L 31 36.6 L 29.4 33.7 L 29.4 33.7 C 32.9 31.8 35.1 27.9 35.1 24 L 35.1 24 L 35.1 24 L 35.1 23.9 L 35.1 23.9 C 35.1 21.5 34.3 19.2 32.9 17.3 C 31.4 15.3 29.3 13.9 27 13.2 L 27 13.2 L 27.1 13.2 Z" fill="#ffffff"/>
			</g>
			<g opacity="0.2">
				<path d="M 22.9 36.1 C 20.3 35.9 17.8 34.8 15.8 33.1 C 13.8 31.4 12.5 29 11.9 26.5 L 15.1 25.8 C 15.5 27.7 16.5 29.4 18 30.6 C 19.4 31.9 21.3 32.7 23.2 32.8 L 22.9 36.1 Z" fill="#ffffff"/>
			</g>
			<g>
				<g>
					<g>
						<path d="M 14.2 26.2 L 14.1 26 L 15.4 25.7 L 15.4 25.9 L 14.2 26.2 Z" fill="#ffffff"/>
					</g>
					<g>
						<path d="M 14.3 26.7 L 14.3 26.5 L 15.5 26.2 L 15.5 26.3 L 14.3 26.7 Z" fill="#ffffff"/>
					</g>
					<g>
						<path d="M 14.4 27.1 L 14.4 27 L 15.6 26.6 L 15.6 26.7 L 14.4 27.1 Z" fill="#ffffff"/>
					</g>
					<g>
						<path d="M 14.6 27.6 L 14.6 27.5 L 15.7 27 L 15.8 27.2 L 14.6 27.6 Z" fill="#ffffff"/>
					</g>
					<g>
						<path d="M 14.8 28.1 L 14.7 27.9 L 15.9 27.4 L 16 27.6 L 14.8 28.1 Z" fill="#ffffff"/>
					</g>
					<g>
						<path d="M 15 28.5 L 15 28.4 L 16.1 27.8 L 16.2 27.9 L 15 28.5 Z" fill="#ffffff"/>
					</g>
					<g>
						<path d="M 15.3 29 L 15.2 28.8 L 16.3 28.2 L 16.4 28.3 L 15.3 29 Z" fill="#ffffff"/>
					</g>
					<g>
						<path d="M 15.5 29.4 L 15.5 29.2 L 16.5 28.6 L 16.6 28.7 L 15.5 29.4 Z" fill="#ffffff"/>
					</g>
					<g>
						<path d="M 15.8 29.8 L 15.7 29.7 L 16.8 28.9 L 16.9 29.1 L 15.8 29.8 Z" fill="#ffffff"/>
					</g>
					<g>
						<path d="M 16.1 30.2 L 16 30.1 L 17 29.3 L 17.1 29.4 L 16.1 30.2 Z" fill="#ffffff"/>
					</g>
					<g>
						<path d="M 16.5 30.6 L 16.4 30.5 L 17.3 29.6 L 17.4 29.7 L 16.5 30.6 Z" fill="#ffffff"/>
					</g>
				</g>
				<g>
					<g>
						<path d="M 16.6 30.7 L 16.5 30.6 L 17.4 29.7 L 17.5 29.8 L 16.6 30.7 Z" fill="#ffffff"/>
					</g>
					<g>
						<path d="M 16.9 31.1 L 16.8 30.9 L 17.7 30 L 17.8 30.2 L 16.9 31.1 Z" fill="#ffffff"/>
					</g>
					<g>
						<path d="M 17.3 31.4 L 17.2 31.3 L 18 30.3 L 18.1 30.5 L 17.3 31.4 Z" fill="#ffffff"/>
					</g>
					<g>
						<path d="M 17.7 31.7 L 17.6 31.6 L 18.3 30.6 L 18.5 30.7 L 17.7 31.7 Z" fill="#ffffff"/>
					</g>
					<g>
						<path d="M 18.1 32 L 18 31.9 L 18.7 30.9 L 18.8 31 L 18.1 32 Z" fill="#ffffff"/>
					</g>
					<g>
						<path d="M 18.5 32.3 L 18.4 32.2 L 19.1 31.2 L 19.2 31.2 L 18.5 32.3 Z" fill="#ffffff"/>
					</g>
					<g>
						<path d="M 18.9 32.6 L 18.8 32.5 L 19.4 31.4 L 19.6 31.5 L 18.9 32.6 Z" fill="#ffffff"/>
					</g>
					<g>
						<path d="M 19.4 32.8 L 19.2 32.7 L 19.8 31.6 L 20 31.7 L 19.4 32.8 Z" fill="#ffffff"/>
					</g>
					<g>
						<path d="M 19.8 33 L 19.7 32.9 L 20.2 31.8 L 20.4 31.9 L 19.8 33 Z" fill="#ffffff"/>
					</g>
					<g>
						<path d="M 20.3 33.2 L 20.1 33.1 L 20.6 32 L 20.8 32 L 20.3 33.2 Z" fill="#ffffff"/>
					</g>
					<g>
						<path d="M 20.8 33.4 L 20.6 33.3 L 21 32.1 L 21.2 32.2 L 20.8 33.4 Z" fill="#ffffff"/>
					</g>
				</g>
				<g>
					<g>
						<path d="M 20.9 33.4 L 20.8 33.4 L 21.2 32.2 L 21.3 32.2 L 20.9 33.4 Z" fill="#ffffff"/>
					</g>
					<g>
						<path d="M 21.4 33.6 L 21.3 33.5 L 21.6 32.3 L 21.7 32.3 L 21.4 33.6 Z" fill="#ffffff"/>
					</g>
					<g>
						<path d="M 21.9 33.7 L 21.7 33.6 L 22 32.4 L 22.2 32.4 L 21.9 33.7 Z" fill="#ffffff"/>
					</g>
					<g>
						<path d="M 22.4 33.7 L 22.2 33.7 L 22.4 32.5 L 22.6 32.5 L 22.4 33.7 Z" fill="#ffffff"/>
					</g>
					<g>
						<path d="M 22.9 33.8 L 22.7 33.8 L 22.9 32.5 L 23 32.6 L 22.9 33.8 Z" fill="#ffffff"/>
					</g>
					<g>
						<path d="M 23.4 33.8 L 23.2 33.8 L 23.3 32.6 L 23.5 32.6 L 23.4 33.8 Z" fill="#ffffff"/>
					</g>
					<g>
						<path d="M 23.9 33.9 L 23.7 33.9 L 23.7 32.6 L 23.9 32.6 L 23.9 33.9 Z" fill="#ffffff"/>
					</g>
					<g>
						<path d="M 24.2 33.8 L 24.2 32.6 L 24.3 32.6 L 24.4 33.8 L 24.2 33.8 Z" fill="#ffffff"/>
					</g>
					<g>
						<path d="M 24.8 33.8 L 24.6 32.6 L 24.8 32.5 L 24.9 33.8 L 24.8 33.8 Z" fill="#ffffff"/>
					</g>
					<g>
						<path d="M 25.2 33.8 L 25.1 32.5 L 25.2 32.5 L 25.4 33.7 L 25.2 33.8 Z" fill="#ffffff"/>
					</g>
					<g>
						<path d="M 25.7 33.7 L 25.5 32.4 L 25.7 32.4 L 25.9 33.6 L 25.7 33.7 Z" fill="#ffffff"/>
					</g>
				</g>
				<g>
					<g>
						<path d="M 25.9 33.6 L 25.6 32.4 L 25.8 32.4 L 26.1 33.6 L 25.9 33.6 Z" fill="#ffffff"/>
					</g>
					<g>
						<path d="M 26.4 33.5 L 26.1 32.3 L 26.2 32.3 L 26.6 33.5 L 26.4 33.5 Z" fill="#ffffff"/>
					</g>
					<g>
						<path d="M 26.9 33.4 L 26.5 32.2 L 26.6 32.1 L 27 33.3 L 26.9 33.4 Z" fill="#ffffff"/>
					</g>
					<g>
						<path d="M 27.4 33.2 L 26.9 32 L 27.1 32 L 27.5 33.2 L 27.4 33.2 Z" fill="#ffffff"/>
					</g>
					<g>
						<path d="M 27.8 33 L 27.3 31.9 L 27.5 31.8 L 28 33 L 27.8 33 Z" fill="#ffffff"/>
					</g>
					<g>
						<path d="M 28.3 32.8 L 27.7 31.7 L 27.8 31.6 L 28.4 32.7 L 28.3 32.8 Z" fill="#ffffff"/>
					</g>
					<g>
						<path d="M 28.7 32.6 L 28.1 31.5 L 28.2 31.4 L 28.9 32.5 L 28.7 32.6 Z" fill="#ffffff"/>
					</g>
					<g>
						<path d="M 29.2 32.3 L 28.5 31.3 L 28.6 31.2 L 29.3 32.2 L 29.2 32.3 Z" fill="#ffffff"/>
					</g>
					<g>
						<path d="M 29.6 32.1 L 28.8 31 L 29 30.9 L 29.7 32 L 29.6 32.1 Z" fill="#ffffff"/>
					</g>
					<g>
						<path d="M 30 31.7 L 29.2 30.8 L 29.3 30.7 L 30.1 31.6 L 30 31.7 Z" fill="#ffffff"/>
					</g>
					<g>
						<path d="M 30.4 31.4 L 29.5 30.5 L 29.7 30.4 L 30.5 31.3 L 30.4 31.4 Z" fill="#ffffff"/>
					</g>
				</g>
				<g>
					<g>
						<path d="M 30.5 31.3 L 29.6 30.4 L 29.8 30.3 L 30.6 31.2 L 30.5 31.3 Z" fill="#ffffff"/>
					</g>
					<g>
						<path d="M 30.9 31 L 30 30.1 L 30.1 30 L 31 30.9 L 30.9 31 Z" fill="#ffffff"/>
					</g>
					<g>
						<path d="M 31.2 30.6 L 30.3 29.8 L 30.4 29.7 L 31.3 30.5 L 31.2 30.6 Z" fill="#ffffff"/>
					</g>
					<g>
						<path d="M 31.5 30.2 L 30.6 29.4 L 30.7 29.3 L 31.6 30.1 L 31.5 30.2 Z" fill="#ffffff"/>
					</g>
					<g>
						<path d="M 31.8 29.8 L 30.8 29.1 L 30.9 29 L 31.9 29.7 L 31.8 29.8 Z" fill="#ffffff"/>
					</g>
					<g>
						<path d="M 32.1 29.4 L 31.1 28.7 L 31.2 28.6 L 32.2 29.3 L 32.1 29.4 Z" fill="#ffffff"/>
					</g>
					<g>
						<path d="M 32.4 29 L 31.3 28.4 L 31.4 28.2 L 32.5 28.9 L 32.4 29 Z" fill="#ffffff"/>
					</g>
					<g>
						<path d="M 32.7 28.6 L 31.5 28 L 31.6 27.8 L 32.7 28.4 L 32.7 28.6 Z" fill="#ffffff"/>
					</g>
					<g>
						<path d="M 32.9 28.1 L 31.7 27.6 L 31.8 27.5 L 32.9 28 L 32.9 28.1 Z" fill="#ffffff"/>
					</g>
					<g>
						<path d="M 33.1 27.7 L 31.9 27.2 L 32 27 L 33.1 27.5 L 33.1 27.7 Z" fill="#ffffff"/>
					</g>
					<g>
						<path d="M 33.2 27.2 L 32 26.8 L 32.1 26.6 L 33.3 27 L 33.2 27.2 Z" fill="#ffffff"/>
					</g>
				</g>
				<g>
					<g>
						<path d="M 33.3 27 L 32.1 26.6 L 32.1 26.5 L 33.3 26.9 L 33.3 27 Z" fill="#ffffff"/>
					</g>
					<g>
						<path d="M 33.4 26.5 L 32.2 26.2 L 32.3 26.1 L 33.5 26.4 L 33.4 26.5 Z" fill="#ffffff"/>
					</g>
					<g>
						<path d="M 33.6 26.1 L 32.3 25.8 L 32.4 25.7 L 33.6 25.9 L 33.6 26.1 Z" fill="#ffffff"/>
					</g>
					<g>
						<path d="M 33.7 25.6 L 32.4 25.4 L 32.4 25.2 L 33.7 25.4 L 33.7 25.6 Z" fill="#ffffff"/>
					</g>
					<g>
						<path d="M 33.7 25.1 L 32.5 24.9 L 32.5 24.8 L 33.7 24.9 L 33.7 25.1 Z" fill="#ffffff"/>
					</g>
					<g>
						<path d="M 33.8 24.6 L 32.5 24.5 L 32.5 24.3 L 33.8 24.4 L 33.8 24.6 Z" fill="#ffffff"/>
					</g>
					<g>
						<path d="M 33.8 24.1 L 32.5 24.1 L 32.5 23.9 L 33.8 23.9 L 33.8 24.1 Z" fill="#ffffff"/>
					</g>
					<g>
						<path d="M 32.5 23.6 L 32.5 23.5 L 33.8 23.4 L 33.8 23.6 L 32.5 23.6 Z" fill="#ffffff"/>
					</g>
					<g>
						<path d="M 32.5 23.2 L 32.5 23 L 33.7 22.9 L 33.8 23.1 L 32.5 23.2 Z" fill="#ffffff"/>
					</g>
					<g>
						<path d="M 32.4 22.8 L 32.4 22.6 L 33.7 22.4 L 33.7 22.6 L 32.4 22.8 Z" fill="#ffffff"/>
					</g>
					<g>
						<path d="M 32.4 22.3 L 32.3 22.2 L 33.6 21.9 L 33.6 22.1 L 32.4 22.3 Z" fill="#ffffff"/>
					</g>
				</g>
				<g>
					<g>
						<path d="M 32.3 22.2 L 32.3 22 L 33.5 21.8 L 33.6 21.9 L 32.3 22.2 Z" fill="#ffffff"/>
					</g>
					<g>
						<path d="M 32.2 21.8 L 32.2 21.6 L 33.4 21.3 L 33.4 21.4 L 32.2 21.8 Z" fill="#ffffff"/>
					</g>
					<g>
						<path d="M 32.1 21.3 L 32.1 21.2 L 33.3 20.8 L 33.3 20.9 L 32.1 21.3 Z" fill="#ffffff"/>
					</g>
					<g>
						<path d="M 32 20.9 L 31.9 20.8 L 33.1 20.3 L 33.1 20.5 L 32 20.9 Z" fill="#ffffff"/>
					</g>
					<g>
						<path d="M 31.8 20.5 L 31.7 20.4 L 32.9 19.9 L 33 20 L 31.8 20.5 Z" fill="#ffffff"/>
					</g>
					<g>
						<path d="M 31.6 20.1 L 31.5 20 L 32.7 19.4 L 32.7 19.6 L 31.6 20.1 Z" fill="#ffffff"/>
					</g>
					<g>
						<path d="M 31.4 19.7 L 31.3 19.6 L 32.4 19 L 32.5 19.1 L 31.4 19.7 Z" fill="#ffffff"/>
					</g>
					<g>
						<path d="M 31.2 19.4 L 31.1 19.2 L 32.2 18.6 L 32.3 18.7 L 31.2 19.4 Z" fill="#ffffff"/>
					</g>
					<g>
						<path d="M 30.9 19 L 30.9 18.9 L 31.9 18.1 L 32 18.3 L 30.9 19 Z" fill="#ffffff"/>
					</g>
					<g>
						<path d="M 30.7 18.7 L 30.6 18.5 L 31.6 17.7 L 31.7 17.9 L 30.7 18.7 Z" fill="#ffffff"/>
					</g>
					<g>
						<path d="M 30.4 18.3 L 30.3 18.2 L 31.2 17.4 L 31.4 17.5 L 30.4 18.3 Z" fill="#ffffff"/>
					</g>
				</g>
				<g>
					<g>
						<path d="M 30.3 18.2 L 30.2 18.1 L 31.1 17.2 L 31.2 17.4 L 30.3 18.2 Z" fill="#ffffff"/>
					</g>
					<g>
						<path d="M 30 17.9 L 29.9 17.8 L 30.8 16.9 L 30.9 17 L 30 17.9 Z" fill="#ffffff"/>
					</g>
					<g>
						<path d="M 29.7 17.6 L 29.6 17.5 L 30.4 16.5 L 30.5 16.6 L 29.7 17.6 Z" fill="#ffffff"/>
					</g>
					<g>
						<path d="M 29.4 17.3 L 29.2 17.2 L 30 16.2 L 30.2 16.3 L 29.4 17.3 Z" fill="#ffffff"/>
					</g>
					<g>
						<path d="M 29 17 L 28.9 16.9 L 29.6 15.9 L 29.7 16 L 29 17 Z" fill="#ffffff"/>
					</g>
					<g>
						<path d="M 28.7 16.8 L 28.5 16.7 L 29.2 15.6 L 29.3 15.7 L 28.7 16.8 Z" fill="#ffffff"/>
					</g>
					<g>
						<path d="M 28.3 16.6 L 28.1 16.5 L 28.8 15.4 L 28.9 15.5 L 28.3 16.6 Z" fill="#ffffff"/>
					</g>
					<g>
						<path d="M 27.9 16.3 L 27.8 16.3 L 28.3 15.1 L 28.5 15.2 L 27.9 16.3 Z" fill="#ffffff"/>
					</g>
					<g>
						<path d="M 27.5 16.1 L 27.4 16.1 L 27.9 14.9 L 28 15 L 27.5 16.1 Z" fill="#ffffff"/>
					</g>
					<g>
						<path d="M 27.1 16 L 26.9 15.9 L 27.4 14.7 L 27.6 14.8 L 27.1 16 Z" fill="#ffffff"/>
					</g>
					<g>
						<path d="M 26.7 15.8 L 26.5 15.8 L 26.9 14.6 L 27.1 14.6 L 26.7 15.8 Z" fill="#ffffff"/>
					</g>
				</g>
				<g>
					<g>
						<path d="M 26.5 15.8 L 26.4 15.7 L 26.8 14.5 L 26.9 14.6 L 26.5 15.8 Z" fill="#ffffff"/>
					</g>
					<g>
						<path d="M 26.1 15.6 L 26 15.6 L 26.3 14.4 L 26.4 14.4 L 26.1 15.6 Z" fill="#ffffff"/>
					</g>
					<g>
						<path d="M 25.7 15.5 L 25.5 15.5 L 25.8 14.3 L 26 14.3 L 25.7 15.5 Z" fill="#ffffff"/>
					</g>
					<g>
						<path d="M 25.3 15.5 L 25.1 15.4 L 25.3 14.2 L 25.5 14.2 L 25.3 15.5 Z" fill="#ffffff"/>
					</g>
					<g>
						<path d="M 24.8 15.4 L 24.7 15.4 L 24.8 14.1 L 25 14.1 L 24.8 15.4 Z" fill="#ffffff"/>
					</g>
					<g>
						<path d="M 24.4 15.4 L 24.2 15.3 L 24.3 14.1 L 24.5 14.1 L 24.4 15.4 Z" fill="#ffffff"/>
					</g>
					<g>
						<path d="M 24 15.3 L 23.8 15.3 L 23.8 14.1 L 24 14.1 L 24 15.3 Z" fill="#ffffff"/>
					</g>
					<g>
						<path d="M 23.4 15.4 L 23.3 14.1 L 23.5 14.1 L 23.5 15.3 L 23.4 15.4 Z" fill="#ffffff"/>
					</g>
					<g>
						<path d="M 22.9 15.4 L 22.8 14.1 L 23 14.1 L 23.1 15.4 L 22.9 15.4 Z" fill="#ffffff"/>
					</g>
					<g>
						<path d="M 22.5 15.5 L 22.3 14.2 L 22.5 14.2 L 22.6 15.4 L 22.5 15.5 Z" fill="#ffffff"/>
					</g>
					<g>
						<path d="M 22.1 15.5 L 21.8 14.3 L 22 14.3 L 22.2 15.5 L 22.1 15.5 Z" fill="#ffffff"/>
					</g>
				</g>
				<g>
					<g>
						<path d="M 21.9 15.6 L 21.6 14.3 L 21.8 14.3 L 22.1 15.5 L 21.9 15.6 Z" fill="#ffffff"/>
					</g>
					<g>
						<path d="M 21.5 15.7 L 21.2 14.5 L 21.3 14.4 L 21.6 15.6 L 21.5 15.7 Z" fill="#ffffff"/>
					</g>
					<g>
						<path d="M 21.1 15.8 L 20.7 14.6 L 20.8 14.5 L 21.2 15.7 L 21.1 15.8 Z" fill="#ffffff"/>
					</g>
					<g>
						<path d="M 20.7 16 L 20.2 14.8 L 20.3 14.7 L 20.8 15.9 L 20.7 16 Z" fill="#ffffff"/>
					</g>
					<g>
						<path d="M 20.2 16.1 L 19.7 15 L 19.9 14.9 L 20.4 16.1 L 20.2 16.1 Z" fill="#ffffff"/>
					</g>
					<g>
						<path d="M 19.9 16.3 L 19.3 15.2 L 19.4 15.1 L 20 16.2 L 19.9 16.3 Z" fill="#ffffff"/>
					</g>
					<g>
						<path d="M 19.5 16.5 L 18.8 15.4 L 19 15.3 L 19.6 16.4 L 19.5 16.5 Z" fill="#ffffff"/>
					</g>
					<g>
						<path d="M 19.1 16.8 L 18.4 15.7 L 18.5 15.6 L 19.2 16.7 L 19.1 16.8 Z" fill="#ffffff"/>
					</g>
					<g>
						<path d="M 18.7 17 L 18 16 L 18.1 15.9 L 18.9 16.9 L 18.7 17 Z" fill="#ffffff"/>
					</g>
					<g>
						<path d="M 18.4 17.3 L 17.6 16.3 L 17.7 16.2 L 18.5 17.2 L 18.4 17.3 Z" fill="#ffffff"/>
					</g>
					<g>
						<path d="M 18.1 17.6 L 17.2 16.6 L 17.3 16.5 L 18.2 17.4 L 18.1 17.6 Z" fill="#ffffff"/>
					</g>
				</g>
				<g>
					<g>
						<path d="M 17.9 17.7 L 17.1 16.7 L 17.2 16.6 L 18.1 17.5 L 17.9 17.7 Z" fill="#ffffff"/>
					</g>
					<g>
						<path d="M 17.6 18 L 16.7 17.1 L 16.8 17 L 17.7 17.8 L 17.6 18 Z" fill="#ffffff"/>
					</g>
					<g>
						<path d="M 17.3 18.3 L 16.4 17.4 L 16.5 17.3 L 17.4 18.2 L 17.3 18.3 Z" fill="#ffffff"/>
					</g>
					<g>
						<path d="M 17 18.6 L 16.1 17.8 L 16.2 17.7 L 17.1 18.5 L 17 18.6 Z" fill="#ffffff"/>
					</g>
					<g>
						<path d="M 16.8 19 L 15.8 18.2 L 15.9 18.1 L 16.9 18.8 L 16.8 19 Z" fill="#ffffff"/>
					</g>
					<g>
						<path d="M 16.5 19.3 L 15.5 18.6 L 15.6 18.5 L 16.6 19.2 L 16.5 19.3 Z" fill="#ffffff"/>
					</g>
					<g>
						<path d="M 16.3 19.7 L 15.2 19.1 L 15.3 18.9 L 16.4 19.6 L 16.3 19.7 Z" fill="#ffffff"/>
					</g>
					<g>
						<path d="M 16.1 20.1 L 15 19.5 L 15.1 19.4 L 16.2 19.9 L 16.1 20.1 Z" fill="#ffffff"/>
					</g>
					<g>
						<path d="M 15.9 20.5 L 14.8 20 L 14.8 19.8 L 16 20.3 L 15.9 20.5 Z" fill="#ffffff"/>
					</g>
					<g>
						<path d="M 15.7 20.9 L 14.6 20.4 L 14.6 20.3 L 15.8 20.7 L 15.7 20.9 Z" fill="#ffffff"/>
					</g>
					<g>
						<path d="M 15.6 21.3 L 14.4 20.9 L 14.5 20.7 L 15.7 21.1 L 15.6 21.3 Z" fill="#ffffff"/>
					</g>
				</g>
				<g>
					<g>
						<path d="M 15.6 21.4 L 14.4 21.1 L 14.4 20.9 L 15.6 21.3 L 15.6 21.4 Z" fill="#ffffff"/>
					</g>
					<g>
						<path d="M 15.4 21.9 L 14.2 21.5 L 14.3 21.4 L 15.5 21.7 L 15.4 21.9 Z" fill="#ffffff"/>
					</g>
					<g>
						<path d="M 15.3 22.3 L 14.1 22 L 14.1 21.9 L 15.4 22.1 L 15.3 22.3 Z" fill="#ffffff"/>
					</g>
					<g>
						<path d="M 15.3 22.7 L 14 22.5 L 14 22.4 L 15.3 22.6 L 15.3 22.7 Z" fill="#ffffff"/>
					</g>
					<g>
						<path d="M 15.2 23.1 L 14 23 L 14 22.9 L 15.2 23 L 15.2 23.1 Z" fill="#ffffff"/>
					</g>
					<g>
						<path d="M 15.2 23.6 L 13.9 23.5 L 13.9 23.4 L 15.2 23.4 L 15.2 23.6 Z" fill="#ffffff"/>
					</g>
					<g>
						<path d="M 15.2 24 L 13.9 24 L 13.9 23.9 L 15.2 23.9 L 15.2 24 Z" fill="#ffffff"/>
					</g>
					<g>
						<path d="M 13.9 24.5 L 13.9 24.4 L 15.2 24.3 L 15.2 24.5 L 13.9 24.5 Z" fill="#ffffff"/>
					</g>
					<g>
						<path d="M 14 25 L 14 24.9 L 15.2 24.7 L 15.2 24.9 L 14 25 Z" fill="#ffffff"/>
					</g>
					<g>
						<path d="M 14 25.5 L 14 25.4 L 15.3 25.2 L 15.3 25.3 L 14 25.5 Z" fill="#ffffff"/>
					</g>
					<g>
						<path d="M 14.1 26 L 14.1 25.9 L 15.3 25.6 L 15.4 25.8 L 14.1 26 Z" fill="#ffffff"/>
					</g>
				</g>
			</g>
			<path d="M 21.4 12.2 C 27.9 10.8 34.3 15 35.7 21.5 C 37 28 32.9 34.4 26.3 35.7 C 19.8 37.1 13.4 32.9 12 26.5 C 10.7 20 14.8 13.6 21.4 12.2 Z" fill="none"/>
			<path d="M 28.5 28.2 C 28.5 28.6 28.1 29 27.7 29 C 27.3 29 27 28.6 27 28.2 C 27 27.8 27.3 27.5 27.7 27.5 C 28.1 27.5 28.5 27.8 28.5 28.2 Z" fill="#ffffff"/>
			<path d="M 24 32.2 C 19.4 32.2 15.7 28.5 15.7 24 C 15.7 19.4 19.4 15.7 24 15.7 C 28.6 15.7 32.3 19.4 32.3 24 C 32.3 28.5 28.6 32.2 24 32.2 ZM 24 15.9 C 19.6 15.9 15.9 19.5 15.9 24 C 15.9 28.4 19.6 32 24 32 C 28.5 32 32.1 28.4 32.1 24 C 32.1 19.5 28.5 15.9 24 15.9 Z" fill="#aab5d7"/>
			<path d="M 24 34.7 C 18.1 34.7 13.2 29.9 13.2 24 C 13.2 18 18.1 13.2 24 13.2 C 30 13.2 34.8 18 34.8 24 C 34.8 29.9 30 34.7 24 34.7 ZM 24 13.5 C 18.2 13.5 13.5 18.2 13.5 24 C 13.5 29.7 18.2 34.4 24 34.4 C 29.8 34.4 34.5 29.7 34.5 24 C 34.5 18.2 29.8 13.5 24 13.5 Z" fill="#aab5d7"/>
			<path opacity="0.4" d="M 22.4 36.8 C 16 36 11 30.6 11 24 C 11 17.3 16 11.9 22.4 11.1 L 22.4 10.7 C 15.7 11.5 10.6 17.1 10.6 24 C 10.6 30.8 15.7 36.4 22.4 37.2 L 22.4 36.8 Z" fill="#aab5d7"/>
			<path d="M 24 31.3 C 19.9 31.3 16.6 28 16.6 24 C 16.6 19.9 19.9 16.6 24 16.6 C 28.1 16.6 31.4 19.9 31.4 24 C 31.4 28 28.1 31.3 24 31.3 ZM 24 16.6 C 20 16.6 16.7 19.9 16.7 24 C 16.7 28 20 31.3 24 31.3 C 28.1 31.3 31.3 28 31.3 24 C 31.3 19.9 28.1 16.6 24 16.6 Z" fill="#aab5d7"/>
			<path d="M 24 37.7 C 16.4 37.7 10.2 31.6 10.2 24 C 10.2 16.4 16.4 10.2 24 10.2 C 31.6 10.2 37.9 16.4 37.9 24 C 37.9 31.6 31.6 37.7 24 37.7 ZM 24 10.2 C 16.4 10.2 10.2 16.4 10.2 24 C 10.2 31.5 16.4 37.7 24 37.7 C 31.6 37.7 37.8 31.5 37.8 24 C 37.8 16.4 31.6 10.2 24 10.2 Z" fill="#aab5d7"/>
			<path d="M 24.6 24.9 C 24.9 24.6 25 24.1 24.8 23.7 L 30.6 19 L 30.5 18.9 L 24.6 23.4 C 24.3 23.1 23.8 23.1 23.4 23.4 C 23.1 23.7 23 24.1 23.1 24.5 L 21.8 25.5 C 21.6 25.4 21.3 25.5 21.2 25.6 C 20.9 25.8 20.8 26.2 21.1 26.5 C 21.3 26.7 21.7 26.8 21.9 26.6 C 22.1 26.4 22.2 26.2 22.1 26 L 23.4 24.9 C 23.8 25.2 24.2 25.2 24.6 24.9 Z" fill="#000000"/>
			<path d="M 24.2 24.5 C 24.6 24.2 24.7 23.7 24.5 23.3 L 30.2 18.6 L 30.2 18.5 L 24.2 23 C 23.9 22.7 23.4 22.7 23.1 23 C 22.7 23.3 22.6 23.7 22.8 24.1 L 21.4 25.1 C 21.2 25 21 25 20.8 25.2 C 20.5 25.4 20.5 25.8 20.7 26.1 C 20.9 26.3 21.3 26.4 21.6 26.2 C 21.8 26 21.8 25.8 21.8 25.6 L 23.1 24.5 C 23.4 24.7 23.9 24.7 24.2 24.5 ZM 23.3 24 C 23.2 23.8 23.2 23.6 23.4 23.4 C 23.6 23.3 23.8 23.3 24 23.5 C 24.1 23.7 24.1 23.9 23.9 24 C 23.7 24.2 23.5 24.2 23.3 24 Z" fill="#e51913"/>
		</g>
	</g>
</svg>