<?xml version="1.0" standalone="no"?>

<svg viewBox="0 0 35 22" style="background-color:#ffffff00" version="1.1" xmlns="http://www.w3.org/2000/svg" xmlns:xlink="http://www.w3.org/1999/xlink" xml:space="preserve" x="0px" y="0px" width="100%" height="100%">
	<g id="Layer%201">
		<rect opacity="0.5" x="9" y="3" width="17" height="15" fill="#ffffff"/>
		<g>
			<path id="Forma%201" d="M 0.1 11.3 L 3.6 16.4 C 3.6 16.5 3.7 16.5 3.8 16.5 C 3.8 16.5 3.9 16.5 3.9 16.4 L 3.9 16.4 C 4 16.3 4 16.2 4 16.1 L 4 13.6 C 4 13.5 4 13.5 3.9 13.4 L 2.3 11 L 3.9 8.6 C 4 8.5 4 8.5 4 8.4 L 4 5.9 C 4 5.8 4 5.7 3.9 5.6 L 3.9 5.6 C 3.9 5.5 3.8 5.5 3.8 5.5 C 3.7 5.5 3.6 5.5 3.6 5.6 L 0.1 10.7 C 0 10.9 0 11.1 0.1 11.3 Z" fill="#157813"/>
		</g>
		<g>
			<path id="Forma%2012" d="M 34.9 11.3 L 31.4 16.4 C 31.4 16.5 31.3 16.5 31.2 16.5 C 31.2 16.5 31.1 16.5 31.1 16.4 L 31.1 16.4 C 31 16.3 31 16.2 31 16.1 L 31 13.6 C 31 13.5 31 13.5 31.1 13.4 L 32.7 11 L 31.1 8.6 C 31 8.5 31 8.5 31 8.4 L 31 5.9 C 31 5.8 31 5.7 31.1 5.6 L 31.1 5.6 C 31.1 5.5 31.2 5.5 31.2 5.5 C 31.3 5.5 31.4 5.5 31.4 5.6 L 34.9 10.7 C 35 10.9 35 11.1 34.9 11.3 Z" fill="#157813"/>
		</g>
		<path d="M 24.9 3.5 L 25.5 4.1 L 25.5 17.9 L 24.9 18.5 L 10.1 18.5 L 9.5 17.9 L 9.5 4.1 L 10.1 3.5 L 24.9 3.5 ZM 25.1 2.5 L 9.9 2.5 C 9.5 2.5 8.5 3.5 8.5 3.9 L 8.5 18.1 C 8.5 18.5 9.5 19.5 9.9 19.5 L 25.1 19.5 C 25.5 19.5 26.5 18.5 26.5 18.1 L 26.5 3.9 C 26.5 3.5 25.5 2.5 25.1 2.5 Z" fill="#157813"/>
		<path d="M 24.9 3.5 L 25.5 4.1 L 25.5 17.9 L 24.9 18.5 L 10.1 18.5 L 9.5 17.9 L 9.5 4.1 L 10.1 3.5 L 24.9 3.5 ZM 25.1 2.5 L 9.9 2.5 C 9.5 2.5 8.5 3.5 8.5 3.9 L 8.5 18.1 C 8.5 18.5 9.5 19.5 9.9 19.5 L 25.1 19.5 C 25.5 19.5 26.5 18.5 26.5 18.1 L 26.5 3.9 C 26.5 3.5 25.5 2.5 25.1 2.5 Z" fill="#157813"/>
	</g>
</svg>