<?xml version="1.0" standalone="no"?>

<svg viewBox="0 0 38 38" style="background-color:#ffffff00" version="1.1" xmlns="http://www.w3.org/2000/svg" xmlns:xlink="http://www.w3.org/1999/xlink" xml:space="preserve" x="0px" y="0px" width="100%" height="100%">
	<defs>
		<linearGradient id="gradient1" x1="50%" y1="0.2%" x2="50%" y2="100%">
			<stop stop-color="#13b52c" stop-opacity="1" offset="1%"/>
			<stop stop-color="#008100" stop-opacity="1" offset="99%"/>
		</linearGradient>
		<linearGradient id="gradient2" x1="50%" y1="0.9%" x2="50%" y2="98%">
			<stop stop-color="#3fc900" stop-opacity="1" offset="1%"/>
			<stop stop-color="#008b00" stop-opacity="1" offset="99%"/>
		</linearGradient>
		<linearGradient id="gradient3" x1="50%" y1="0%" x2="50%" y2="111.1%">
			<stop stop-color="#82dc59" stop-opacity="1" offset="1%"/>
			<stop stop-color="#3fc900" stop-opacity="1" offset="99%"/>
		</linearGradient>
	</defs>
	<g id="Layer%201">
		<g>
			<g>
				<g>
					<path d="M 38 30.6 C 38 34.7 34.7 38 30.8 38 L 7.2 38 C 3.3 38 0 34.7 0 30.6 L 0 6.4 C 0 2.3 3.3 -1 7.2 -1 L 30.8 -1 C 34.7 -1 38 2.3 38 6.4 L 38 30.6 Z" fill="url(#gradient1)"/>
				</g>
				<path d="M 1.4 30.6 L 1.4 6.4 C 1.4 3.1 4 0.4 7.2 0.4 L 30.8 0.4 C 34 0.4 36.6 3.1 36.6 6.4 L 36.6 30.6 C 36.6 33.9 34 36.6 30.8 36.6 L 7.2 36.6 C 4 36.6 1.4 33.9 1.4 30.6 Z" fill="url(#gradient2)"/>
				<g>
					<path d="M 7.7 1.3 C 4.7 1.3 2.3 3.8 2.3 6.9 C 2.3 7.7 2.9 8.3 3.6 8.3 C 4.4 8.3 5 7.7 5 6.9 C 5 5.4 6.2 4.1 7.7 4.1 L 30.3 4.1 C 31.8 4.1 33 5.4 33 6.9 C 33 7.7 33.6 8.3 34.4 8.3 C 35.1 8.3 35.7 7.7 35.7 6.9 C 35.7 3.8 33.3 1.3 30.3 1.3 L 7.7 1.3 Z" fill="url(#gradient3)"/>
				</g>
				<path d="M 31 34.4 C 32.9 34.4 34.4 32.8 34.4 30.9 C 34.4 30.5 34.7 30.2 35.1 30.2 C 35.4 30.2 35.7 30.5 35.7 30.9 C 35.7 33.6 33.6 35.8 31 35.8 L 7 35.8 C 4.4 35.8 2.3 33.6 2.3 30.9 C 2.3 30.5 2.6 30.2 2.9 30.2 C 3.3 30.2 3.6 30.5 3.6 30.9 C 3.6 32.8 5.1 34.4 7 34.4 L 31 34.4 Z" fill="#23ab3a"/>
			</g>
			<g>
				<path d="M 19 14.4 C 21.1 14.4 22.8 12.6 22.8 10.3 C 22.8 8.1 21.1 6.2 19 6.2 C 16.9 6.2 15.2 8.1 15.2 10.3 C 15.2 12.6 16.9 14.4 19 14.4 Z" fill="#ffffff"/>
				<path d="M 16.4 26.7 C 16.8 28.6 16.8 29.8 17.7 29.8 C 18.1 29.8 19.5 29.8 20.3 29.8 C 21.2 29.8 21.2 28.6 21.6 26.7 C 21.7 26.1 21.8 25.3 21.9 24.3 L 16.1 24.3 C 16.2 25.3 16.3 26.1 16.4 26.7 Z" fill="#ffffff"/>
				<path d="M 19 14.9 L 19 14.9 L 19 14.9 C 16.9 15 15.1 15.3 13.9 15.7 L 24.1 15.7 C 22.9 15.3 21.1 15 19 14.9 Z" fill="#ffffff"/>
				<path d="M 11.5 16.4 L 11.5 17 L 11.5 17 C 11.5 18.8 11.5 20 11.5 20.6 C 11.5 20.9 11.3 21.2 11.1 21.4 C 11 21.5 10.9 21.6 10.8 21.6 L 10.8 23.6 L 27.2 23.6 L 27.2 21.6 C 27.1 21.6 27 21.5 26.9 21.4 C 26.7 21.2 26.5 20.9 26.5 20.6 C 26.5 19.8 26.5 17.9 26.5 17.1 L 26.5 17 L 26.5 16.4 L 11.5 16.4 ZM 17.2 22.5 L 13.8 22.5 C 13.8 21.7 13.2 21.1 12.4 21.1 L 12.4 18.9 C 13.2 18.9 13.8 18.3 13.8 17.5 L 17.2 17.5 C 16.5 18.1 16 19 16 20 C 16 21 16.5 21.9 17.2 22.5 ZM 20.4 21.2 C 20.4 21.6 20.2 21.8 19.6 21.9 L 19.6 22.4 L 18.5 22.4 L 18.5 21.9 C 17.9 21.8 17.7 21.6 17.7 21.3 L 17.7 20.4 L 18.8 20.4 L 18.8 21.3 C 18.8 21.3 18.9 21.4 19 21.4 C 19.2 21.4 19.2 21.3 19.2 21.3 L 19.2 20.8 C 19.2 20.7 19.2 20.6 19.1 20.5 C 19 20.4 18.6 20.2 18.1 19.8 C 17.8 19.6 17.7 19.4 17.7 19.2 L 17.7 18.8 C 17.7 18.4 17.9 18.1 18.5 18.1 L 18.5 17.6 L 19.6 17.6 L 19.6 18.1 C 20.1 18.1 20.3 18.4 20.3 18.7 L 20.3 19.4 L 19.2 19.4 L 19.2 18.7 C 19.2 18.6 19.2 18.6 19 18.6 C 18.9 18.6 18.8 18.6 18.8 18.8 L 18.9 19 C 18.9 19.2 19 19.3 19.3 19.5 C 19.8 19.9 20.2 20.2 20.3 20.3 C 20.4 20.4 20.4 20.5 20.4 20.7 L 20.4 21.2 ZM 25.6 21.1 C 24.8 21.1 24.2 21.7 24.2 22.5 L 20.8 22.5 C 21.5 21.9 22 21 22 20 C 22 19 21.5 18.1 20.8 17.5 L 24.2 17.5 C 24.2 18.3 24.8 18.9 25.6 18.9 L 25.6 21.1 Z" fill="#ffffff"/>
				<path d="M 28.7 19.3 C 28.5 18.4 27.9 17.6 27.2 17 C 27.2 17.5 27.2 19.7 27.2 20.6 C 27.2 20.7 27.3 20.8 27.4 20.9 C 27.4 20.9 27.5 21 27.6 21 C 27.6 21 27.7 21 27.7 21 C 28.3 20.8 28.8 20 28.7 19.3 Z" fill="#ffffff"/>
				<path d="M 10.3 21 C 10.3 21 10.4 21 10.4 21 C 10.5 21 10.6 20.9 10.6 20.9 C 10.7 20.8 10.8 20.7 10.8 20.6 C 10.8 19.7 10.8 17.5 10.8 17 C 10.1 17.6 9.5 18.4 9.3 19.3 C 9.2 20 9.7 20.8 10.3 21 Z" fill="#ffffff"/>
			</g>
		</g>
	</g>
</svg>