<?xml version="1.0" standalone="no"?>

<svg viewBox="0 0 65 38" style="background-color:#ffffff00" version="1.1" xmlns="http://www.w3.org/2000/svg" xmlns:xlink="http://www.w3.org/1999/xlink" xml:space="preserve" x="0px" y="0px" width="100%" height="100%">
	<defs>
		<radialGradient id="gradient1" cx="324.2%" cy="123.7%" r="106.5%">
			<stop stop-color="#ecab8c" stop-opacity="1" offset="1%"/>
			<stop stop-color="#e49974" stop-opacity="1" offset="61%"/>
			<stop stop-color="#bf6843" stop-opacity="1" offset="99%"/>
		</radialGradient>
		<radialGradient id="gradient2" cx="292.9%" cy="50%" r="40.1%">
			<stop stop-color="#e49974" stop-opacity="1" offset="1%"/>
			<stop stop-color="#c7724d" stop-opacity="1" offset="99%"/>
		</radialGradient>
		<linearGradient id="gradient3" x1="120.2%" y1="8.8%" x2="120.2%" y2="107.7%">
			<stop stop-color="#363f45" stop-opacity="1" offset="1%"/>
			<stop stop-color="#626566" stop-opacity="1" offset="11%"/>
			<stop stop-color="#101825" stop-opacity="1" offset="33%"/>
			<stop stop-color="#1c2330" stop-opacity="1" offset="61%"/>
			<stop stop-color="#5f656c" stop-opacity="1" offset="79%"/>
		</linearGradient>
		<linearGradient id="gradient4" x1="123.8%" y1="9.1%" x2="123.8%" y2="107.7%">
			<stop stop-color="#565c5e" stop-opacity="1" offset="1%"/>
			<stop stop-color="#4a5154" stop-opacity="1" offset="17%"/>
			<stop stop-color="#1e2632" stop-opacity="1" offset="69%"/>
			<stop stop-color="#83888c" stop-opacity="1" offset="96%"/>
			<stop stop-color="#5d6469" stop-opacity="1" offset="99%"/>
		</linearGradient>
		<linearGradient id="gradient5" x1="11471.3%" y1="254.7%" x2="11471.3%" y2="-134.1%">
			<stop stop-color="#565c5e" stop-opacity="1" offset="1%"/>
			<stop stop-color="#363f45" stop-opacity="1" offset="49%"/>
			<stop stop-color="#343d43" stop-opacity="1" offset="99%"/>
		</linearGradient>
		<linearGradient id="gradient6" x1="139.2%" y1="-50.7%" x2="139.2%" y2="117.6%">
			<stop stop-color="#52585a" stop-opacity="1" offset="1%"/>
			<stop stop-color="#93969d" stop-opacity="1" offset="36%"/>
			<stop stop-color="#454c50" stop-opacity="1" offset="81%"/>
			<stop stop-color="#333d48" stop-opacity="1" offset="99%"/>
		</linearGradient>
		<linearGradient id="gradient7" x1="477.7%" y1="50%" x2="577.7%" y2="50%">
			<stop stop-color="#1e2632" stop-opacity="1" offset="1%"/>
			<stop stop-color="#353d44" stop-opacity="1" offset="80%"/>
			<stop stop-color="#343c47" stop-opacity="1" offset="99%"/>
		</linearGradient>
		<linearGradient id="gradient8" x1="385%" y1="50.5%" x2="431.1%" y2="49.3%">
			<stop stop-color="#8d9197" stop-opacity="1" offset="1%"/>
			<stop stop-color="#767a81" stop-opacity="1" offset="99%"/>
		</linearGradient>
		<linearGradient id="gradient9" x1="282.1%" y1="10.4%" x2="287.2%" y2="58.5%">
			<stop stop-color="#bfcce0" stop-opacity="1" offset="1%"/>
			<stop stop-color="#dee4ef" stop-opacity="1" offset="47%"/>
			<stop stop-color="#bfcce0" stop-opacity="1" offset="76%"/>
		</linearGradient>
		<linearGradient id="gradient10" x1="238.7%" y1="50.8%" x2="312.4%" y2="49.2%">
			<stop stop-color="#7284b3" stop-opacity="1" offset="1%"/>
			<stop stop-color="#a8b7d3" stop-opacity="1" offset="44%"/>
			<stop stop-color="#6a7aa6" stop-opacity="1" offset="82%"/>
		</linearGradient>
		<linearGradient id="gradient11" x1="482.9%" y1="71.6%" x2="435.3%" y2="9.2%">
			<stop stop-color="#7284b3" stop-opacity="1" offset="1%"/>
			<stop stop-color="#a8b7d3" stop-opacity="1" offset="44%"/>
			<stop stop-color="#6a7aa6" stop-opacity="1" offset="82%"/>
		</linearGradient>
		<linearGradient id="gradient12" x1="459.5%" y1="88.8%" x2="487%" y2="8.2%">
			<stop stop-color="#7284b3" stop-opacity="1" offset="1%"/>
			<stop stop-color="#a8b7d3" stop-opacity="1" offset="44%"/>
			<stop stop-color="#6a7aa6" stop-opacity="1" offset="82%"/>
		</linearGradient>
		<linearGradient id="gradient13" x1="372.6%" y1="93.8%" x2="371.5%" y2="68.7%">
			<stop stop-color="#09539b" stop-opacity="1" offset="10%"/>
			<stop stop-color="#0472b9" stop-opacity="1" offset="99%"/>
		</linearGradient>
		<linearGradient id="gradient14" x1="410.2%" y1="67.7%" x2="363.1%" y2="14.6%">
			<stop stop-color="#bfcce0" stop-opacity="1" offset="1%"/>
			<stop stop-color="#dee4ef" stop-opacity="1" offset="47%"/>
			<stop stop-color="#8f9ab2" stop-opacity="1" offset="99%"/>
		</linearGradient>
		<linearGradient id="gradient15" x1="525.8%" y1="29.6%" x2="606.2%" y2="65.3%">
			<stop stop-color="#bfcce0" stop-opacity="1" offset="15%"/>
			<stop stop-color="#ffffff" stop-opacity="1" offset="99%"/>
		</linearGradient>
		<linearGradient id="gradient16" x1="694.1%" y1="9.2%" x2="712.2%" y2="95.5%">
			<stop stop-color="#475270" stop-opacity="1" offset="1%"/>
			<stop stop-color="#a8b7d3" stop-opacity="1" offset="99%"/>
		</linearGradient>
		<linearGradient id="gradient17" x1="395.2%" y1="63.5%" x2="443.5%" y2="12.5%">
			<stop stop-color="#bfcce0" stop-opacity="1" offset="1%"/>
			<stop stop-color="#dee4ef" stop-opacity="1" offset="47%"/>
			<stop stop-color="#8f9ab2" stop-opacity="1" offset="99%"/>
		</linearGradient>
		<linearGradient id="gradient18" x1="668%" y1="8.4%" x2="745.9%" y2="105%">
			<stop stop-color="#475270" stop-opacity="1" offset="1%"/>
			<stop stop-color="#a8b7d3" stop-opacity="1" offset="99%"/>
		</linearGradient>
		<linearGradient id="gradient19" x1="627.5%" y1="29.6%" x2="547.1%" y2="65.3%">
			<stop stop-color="#bfcce0" stop-opacity="1" offset="15%"/>
			<stop stop-color="#ffffff" stop-opacity="1" offset="99%"/>
		</linearGradient>
		<linearGradient id="gradient20" x1="705.3%" y1="80.8%" x2="626.3%" y2="29.2%">
			<stop stop-color="#7284b3" stop-opacity="1" offset="1%"/>
			<stop stop-color="#a8b7d3" stop-opacity="1" offset="44%"/>
			<stop stop-color="#6a7aa6" stop-opacity="1" offset="82%"/>
		</linearGradient>
		<linearGradient id="gradient21" x1="713.4%" y1="67.7%" x2="800.1%" y2="25.7%">
			<stop stop-color="#018ed4" stop-opacity="1" offset="1%"/>
			<stop stop-color="#3c9bff" stop-opacity="1" offset="23%"/>
			<stop stop-color="#0a7efb" stop-opacity="1" offset="55%"/>
			<stop stop-color="#09539b" stop-opacity="1" offset="73%"/>
			<stop stop-color="#0a7efb" stop-opacity="1" offset="99%"/>
		</linearGradient>
		<linearGradient id="gradient22" x1="515.4%" y1="50%" x2="615.4%" y2="50%">
			<stop stop-color="#096c9e" stop-opacity="1" offset="2%"/>
			<stop stop-color="#2991ff" stop-opacity="1" offset="23%"/>
			<stop stop-color="#0e6ed4" stop-opacity="1" offset="42%"/>
			<stop stop-color="#096c9e" stop-opacity="1" offset="92%"/>
			<stop stop-color="#0e6ed4" stop-opacity="1" offset="99%"/>
		</linearGradient>
		<linearGradient id="gradient23" x1="327.4%" y1="92%" x2="372.2%" y2="8%">
			<stop stop-color="#4b515a" stop-opacity="1" offset="1%"/>
			<stop stop-color="#131b28" stop-opacity="1" offset="29%"/>
			<stop stop-color="#131b28" stop-opacity="1" offset="76%"/>
			<stop stop-color="#2d3540" stop-opacity="1" offset="92%"/>
			<stop stop-color="#454c50" stop-opacity="1" offset="99%"/>
		</linearGradient>
		<linearGradient id="gradient24" x1="513.6%" y1="50%" x2="613.6%" y2="50%">
			<stop stop-color="#0d6dca" stop-opacity="1" offset="1%"/>
			<stop stop-color="#074b8e" stop-opacity="1" offset="99%"/>
		</linearGradient>
		<linearGradient id="gradient25" x1="274.3%" y1="5.8%" x2="341.1%" y2="101.1%">
			<stop stop-color="#434951" stop-opacity="1" offset="1%"/>
			<stop stop-color="#7b7e87" stop-opacity="1" offset="13%"/>
			<stop stop-color="#585d60" stop-opacity="1" offset="34%"/>
			<stop stop-color="#28313f" stop-opacity="1" offset="70%"/>
			<stop stop-color="#404a52" stop-opacity="1" offset="99%"/>
		</linearGradient>
		<linearGradient id="gradient26" x1="381.9%" y1="3%" x2="478.2%" y2="98.3%">
			<stop stop-color="#434951" stop-opacity="1" offset="1%"/>
			<stop stop-color="#7b7e87" stop-opacity="1" offset="13%"/>
			<stop stop-color="#28313f" stop-opacity="1" offset="46%"/>
			<stop stop-color="#28313f" stop-opacity="1" offset="83%"/>
			<stop stop-color="#404a52" stop-opacity="1" offset="99%"/>
		</linearGradient>
		<linearGradient id="gradient27" x1="326%" y1="6.4%" x2="425.5%" y2="97.6%">
			<stop stop-color="#434951" stop-opacity="1" offset="1%"/>
			<stop stop-color="#888b93" stop-opacity="1" offset="19%"/>
			<stop stop-color="#585d60" stop-opacity="1" offset="34%"/>
			<stop stop-color="#28313f" stop-opacity="1" offset="70%"/>
			<stop stop-color="#404a52" stop-opacity="1" offset="99%"/>
		</linearGradient>
		<linearGradient id="gradient28" x1="321.4%" y1="98.5%" x2="369.3%" y2="5.5%">
			<stop stop-color="#4e545d" stop-opacity="1" offset="1%"/>
			<stop stop-color="#131b28" stop-opacity="1" offset="29%"/>
			<stop stop-color="#131b28" stop-opacity="1" offset="76%"/>
			<stop stop-color="#2d3540" stop-opacity="1" offset="92%"/>
			<stop stop-color="#454c50" stop-opacity="1" offset="99%"/>
		</linearGradient>
		<linearGradient id="gradient29" x1="4829.7%" y1="28.8%" x2="4826.1%" y2="52.6%">
			<stop stop-color="#434951" stop-opacity="1" offset="1%"/>
			<stop stop-color="#7b7e87" stop-opacity="1" offset="13%"/>
			<stop stop-color="#28313f" stop-opacity="1" offset="46%"/>
			<stop stop-color="#28313f" stop-opacity="1" offset="83%"/>
			<stop stop-color="#404a52" stop-opacity="1" offset="99%"/>
		</linearGradient>
		<linearGradient id="gradient30" x1="1162%" y1="36.9%" x2="1135.8%" y2="112.1%">
			<stop stop-color="#1e2732" stop-opacity="1" offset="1%"/>
			<stop stop-color="#3f4951" stop-opacity="1" offset="99%"/>
		</linearGradient>
		<linearGradient id="gradient31" x1="364.9%" y1="7.3%" x2="278.1%" y2="98.8%">
			<stop stop-color="#434951" stop-opacity="1" offset="1%"/>
			<stop stop-color="#7b7e87" stop-opacity="1" offset="13%"/>
			<stop stop-color="#585d60" stop-opacity="1" offset="34%"/>
			<stop stop-color="#28313f" stop-opacity="1" offset="70%"/>
			<stop stop-color="#555b63" stop-opacity="1" offset="99%"/>
		</linearGradient>
		<linearGradient id="gradient32" x1="409.6%" y1="6.4%" x2="316.1%" y2="98.6%">
			<stop stop-color="#434951" stop-opacity="1" offset="1%"/>
			<stop stop-color="#8c8f96" stop-opacity="1" offset="16%"/>
			<stop stop-color="#585d60" stop-opacity="1" offset="34%"/>
			<stop stop-color="#28313f" stop-opacity="1" offset="70%"/>
			<stop stop-color="#525861" stop-opacity="1" offset="99%"/>
		</linearGradient>
		<linearGradient id="gradient33" x1="516.3%" y1="4.6%" x2="654.5%" y2="95.3%">
			<stop stop-color="#434951" stop-opacity="1" offset="1%"/>
			<stop stop-color="#7b7e86" stop-opacity="1" offset="17%"/>
			<stop stop-color="#84878f" stop-opacity="1" offset="42%"/>
			<stop stop-color="#293240" stop-opacity="1" offset="78%"/>
			<stop stop-color="#36404a" stop-opacity="1" offset="99%"/>
		</linearGradient>
		<linearGradient id="gradient34" x1="647.9%" y1="4.5%" x2="512.3%" y2="95.4%">
			<stop stop-color="#434951" stop-opacity="1" offset="1%"/>
			<stop stop-color="#7b7e86" stop-opacity="1" offset="17%"/>
			<stop stop-color="#84878f" stop-opacity="1" offset="42%"/>
			<stop stop-color="#293240" stop-opacity="1" offset="78%"/>
			<stop stop-color="#333d48" stop-opacity="1" offset="99%"/>
		</linearGradient>
		<linearGradient id="gradient35" x1="1066.7%" y1="-2%" x2="1122.2%" y2="110.6%">
			<stop stop-color="#565c5e" stop-opacity="1" offset="1%"/>
			<stop stop-color="#626566" stop-opacity="1" offset="11%"/>
			<stop stop-color="#4a5154" stop-opacity="1" offset="21%"/>
			<stop stop-color="#1f2733" stop-opacity="1" offset="69%"/>
			<stop stop-color="#464d56" stop-opacity="1" offset="89%"/>
		</linearGradient>
		<linearGradient id="gradient36" x1="1245.4%" y1="49.9%" x2="1148.2%" y2="50.2%">
			<stop stop-color="#101825" stop-opacity="1" offset="1%"/>
			<stop stop-color="#2d343d" stop-opacity="1" offset="99%"/>
		</linearGradient>
		<linearGradient id="gradient37" x1="1314.4%" y1="50%" x2="1414.4%" y2="50%">
			<stop stop-color="#101825" stop-opacity="1" offset="1%"/>
			<stop stop-color="#2d343d" stop-opacity="1" offset="99%"/>
		</linearGradient>
		<linearGradient id="gradient38" x1="597.1%" y1="2.3%" x2="598.9%" y2="99.3%">
			<stop stop-color="#868b90" stop-opacity="1" offset="1%"/>
			<stop stop-color="#272e39" stop-opacity="1" offset="64%"/>
			<stop stop-color="#272e39" stop-opacity="1" offset="75%"/>
			<stop stop-color="#5b6168" stop-opacity="1" offset="99%"/>
		</linearGradient>
		<linearGradient id="gradient39" x1="537.6%" y1="6.2%" x2="631.3%" y2="94.6%">
			<stop stop-color="#4e545d" stop-opacity="1" offset="1%"/>
			<stop stop-color="#272e39" stop-opacity="1" offset="45%"/>
			<stop stop-color="#272e39" stop-opacity="1" offset="75%"/>
			<stop stop-color="#5b6168" stop-opacity="1" offset="99%"/>
		</linearGradient>
		<linearGradient id="gradient40" x1="511.1%" y1="48.5%" x2="528.3%" y2="9.2%">
			<stop stop-color="#8d9197" stop-opacity="1" offset="1%"/>
			<stop stop-color="#555a5c" stop-opacity="1" offset="99%"/>
		</linearGradient>
		<linearGradient id="gradient41" x1="2118.3%" y1="-1.3%" x2="2136%" y2="109.4%">
			<stop stop-color="#85898e" stop-opacity="1" offset="1%"/>
			<stop stop-color="#484f53" stop-opacity="1" offset="41%"/>
			<stop stop-color="#282f39" stop-opacity="1" offset="92%"/>
		</linearGradient>
		<linearGradient id="gradient42" x1="796.5%" y1="50%" x2="896.5%" y2="50%">
			<stop stop-color="#096c9e" stop-opacity="1" offset="2%"/>
			<stop stop-color="#0e6ed4" stop-opacity="1" offset="36%"/>
			<stop stop-color="#07488c" stop-opacity="1" offset="55%"/>
			<stop stop-color="#096c9e" stop-opacity="1" offset="92%"/>
			<stop stop-color="#0e6ed4" stop-opacity="1" offset="99%"/>
		</linearGradient>
		<linearGradient id="gradient43" x1="6024.6%" y1="50%" x2="6124.6%" y2="50%">
			<stop stop-color="#1484fb" stop-opacity="1" offset="1%"/>
			<stop stop-color="#0b6cb4" stop-opacity="1" offset="99%"/>
		</linearGradient>
		<linearGradient id="gradient44" x1="4018.5%" y1="4.2%" x2="4049.9%" y2="98.3%">
			<stop stop-color="#8bc3ff" stop-opacity="1" offset="1%"/>
			<stop stop-color="#1486fd" stop-opacity="1" offset="99%"/>
		</linearGradient>
		<linearGradient id="gradient45" x1="944.9%" y1="3.6%" x2="983.9%" y2="34.9%">
			<stop stop-color="#8bc3ff" stop-opacity="1" offset="1%"/>
			<stop stop-color="#1887ff" stop-opacity="1" offset="99%"/>
		</linearGradient>
		<linearGradient id="gradient46" x1="1075.5%" y1="95%" x2="1050.7%" y2="59.5%">
			<stop stop-color="#8bc3ff" stop-opacity="1" offset="1%"/>
			<stop stop-color="#1887ff" stop-opacity="1" offset="99%"/>
		</linearGradient>
		<linearGradient id="gradient47" x1="494.4%" y1="4.6%" x2="371.5%" y2="96.1%">
			<stop stop-color="#434951" stop-opacity="1" offset="1%"/>
			<stop stop-color="#7b7e87" stop-opacity="1" offset="13%"/>
			<stop stop-color="#28313f" stop-opacity="1" offset="46%"/>
			<stop stop-color="#28313f" stop-opacity="1" offset="83%"/>
			<stop stop-color="#535962" stop-opacity="1" offset="99%"/>
		</linearGradient>
		<radialGradient id="gradient48" cx="193.4%" cy="36%" r="58.6%">
			<stop stop-color="#ffd6c7" stop-opacity="1" offset="1%"/>
			<stop stop-color="#df936e" stop-opacity="1" offset="35%"/>
			<stop stop-color="#c7724d" stop-opacity="1" offset="90%"/>
		</radialGradient>
		<radialGradient id="gradient49" cx="199%" cy="36%" r="58.6%">
			<stop stop-color="#ffd6c7" stop-opacity="1" offset="13%"/>
			<stop stop-color="#df936e" stop-opacity="1" offset="76%"/>
			<stop stop-color="#eaaa8d" stop-opacity="1" offset="99%"/>
		</radialGradient>
		<radialGradient id="gradient50" cx="282.6%" cy="91.2%" r="47.3%">
			<stop stop-color="#f5c1aa" stop-opacity="1" offset="21%"/>
			<stop stop-color="#e49e7c" stop-opacity="1" offset="99%"/>
		</radialGradient>
		<linearGradient id="gradient51" x1="206.3%" y1="11.4%" x2="206.3%" y2="61.4%">
			<stop stop-color="#531908" stop-opacity="1" offset="1%"/>
			<stop stop-color="#421200" stop-opacity="1" offset="99%"/>
		</linearGradient>
		<linearGradient id="gradient52" x1="217.8%" y1="7.6%" x2="218.1%" y2="67.3%">
			<stop stop-color="#77483c" stop-opacity="1" offset="1%"/>
			<stop stop-color="#511604" stop-opacity="1" offset="99%"/>
		</linearGradient>
		<linearGradient id="gradient53" x1="287.3%" y1="-0.3%" x2="283.6%" y2="99.8%">
			<stop stop-color="#ceaca1" stop-opacity="1" offset="1%"/>
			<stop stop-color="#764434" stop-opacity="1" offset="77%"/>
			<stop stop-color="#5d2615" stop-opacity="1" offset="99%"/>
		</linearGradient>
		<linearGradient id="gradient54" x1="869.5%" y1="10.1%" x2="909.2%" y2="64.5%">
			<stop stop-color="#ceaca1" stop-opacity="1" offset="1%"/>
			<stop stop-color="#5d2615" stop-opacity="1" offset="99%"/>
		</linearGradient>
		<linearGradient id="gradient55" x1="349.2%" y1="-3.5%" x2="347.6%" y2="99.3%">
			<stop stop-color="#ffffff" stop-opacity="1" offset="1%"/>
			<stop stop-color="#f6c4af" stop-opacity="1" offset="76%"/>
			<stop stop-color="#efb59b" stop-opacity="1" offset="98%"/>
		</linearGradient>
		<linearGradient id="gradient56" x1="499.4%" y1="-62.1%" x2="554.7%" y2="104.4%">
			<stop stop-color="#996d60" stop-opacity="1" offset="1%"/>
			<stop stop-color="#a67d70" stop-opacity="1" offset="99%"/>
		</linearGradient>
		<linearGradient id="gradient57" x1="544%" y1="-100%" x2="587.8%" y2="122.4%">
			<stop stop-color="#805041" stop-opacity="1" offset="1%"/>
			<stop stop-color="#946759" stop-opacity="1" offset="96%"/>
		</linearGradient>
		<linearGradient id="gradient58" x1="1112.5%" y1="-145.9%" x2="1150.9%" y2="145.1%">
			<stop stop-color="#7b4a3a" stop-opacity="1" offset="1%"/>
			<stop stop-color="#996d5f" stop-opacity="1" offset="99%"/>
		</linearGradient>
		<linearGradient id="gradient59" x1="1348.5%" y1="11.2%" x2="1375.2%" y2="59.9%">
			<stop stop-color="#996d60" stop-opacity="1" offset="1%"/>
			<stop stop-color="#a67d70" stop-opacity="1" offset="99%"/>
		</linearGradient>
		<linearGradient id="gradient60" x1="1803.3%" y1="18.1%" x2="1819%" y2="55.6%">
			<stop stop-color="#996d60" stop-opacity="1" offset="1%"/>
			<stop stop-color="#a67d70" stop-opacity="1" offset="99%"/>
		</linearGradient>
		<linearGradient id="gradient61" x1="223.7%" y1="-3%" x2="241.7%" y2="141%">
			<stop stop-color="#c7724d" stop-opacity="1" offset="1%"/>
			<stop stop-color="#e09570" stop-opacity="1" offset="70%"/>
			<stop stop-color="#c7724d" stop-opacity="1" offset="99%"/>
		</linearGradient>
		<linearGradient id="gradient62" x1="2202.6%" y1="91.8%" x2="2201%" y2="16.1%">
			<stop stop-color="#fcd0bf" stop-opacity="1" offset="1%"/>
			<stop stop-color="#ce7b56" stop-opacity="1" offset="99%"/>
		</linearGradient>
		<linearGradient id="gradient63" x1="2243.4%" y1="91.6%" x2="2247.2%" y2="16.2%">
			<stop stop-color="#fcd0bf" stop-opacity="1" offset="1%"/>
			<stop stop-color="#ce7b56" stop-opacity="1" offset="99%"/>
		</linearGradient>
		<linearGradient id="gradient64" x1="189.9%" y1="98.8%" x2="194.2%" y2="-2.5%">
			<stop stop-color="#848383" stop-opacity="1" offset="1%"/>
			<stop stop-color="#dfdfdf" stop-opacity="1" offset="59%"/>
			<stop stop-color="#f5f5f5" stop-opacity="1" offset="69%"/>
			<stop stop-color="#d3d2d2" stop-opacity="1" offset="87%"/>
			<stop stop-color="#b4b3b3" stop-opacity="1" offset="99%"/>
		</linearGradient>
		<linearGradient id="gradient65" x1="209%" y1="101.9%" x2="206.9%" y2="-2.7%">
			<stop stop-color="#ffffff" stop-opacity="1" offset="1%"/>
			<stop stop-color="#666361" stop-opacity="1" offset="99%"/>
		</linearGradient>
		<radialGradient id="gradient66" cx="223.1%" cy="99.7%" r="91.4%">
			<stop stop-color="#d2f185" stop-opacity="1" offset="1%"/>
			<stop stop-color="#7ebc52" stop-opacity="1" offset="51%"/>
			<stop stop-color="#61ad2b" stop-opacity="1" offset="99%"/>
		</radialGradient>
		<linearGradient id="gradient67" x1="272.8%" y1="9.5%" x2="272.8%" y2="90%">
			<stop stop-color="#d2f185" stop-opacity="1" offset="1%"/>
			<stop stop-color="#c3ea3a" stop-opacity="1" offset="11%"/>
			<stop stop-color="#81be54" stop-opacity="1" offset="96%"/>
		</linearGradient>
		<linearGradient id="gradient68" x1="300.8%" y1="103.3%" x2="293.9%" y2="-1.5%">
			<stop stop-color="#d3d2d2" stop-opacity="1" offset="1%"/>
			<stop stop-color="#f5f5f5" stop-opacity="1" offset="20%"/>
			<stop stop-color="#f5f5f5" stop-opacity="1" offset="39%"/>
			<stop stop-color="#f5f5f5" stop-opacity="1" offset="51%"/>
			<stop stop-color="#dfdfdf" stop-opacity="1" offset="68%"/>
		</linearGradient>
	</defs>
	<g id="Layer%201">
		<g>
			<path d="M 35.3 17.5 C 35.3 22.5 26.9 23.5 26.9 17.6 C 26.9 15.4 26.8 13.5 26.8 13.5 L 35.4 13.5 C 35.4 13.5 35.3 15.4 35.3 17.5 Z" fill="#c7724d"/>
			<path d="M 30.8 21.3 C 29.2 21.3 27.3 20.3 27.3 17.6 C 27.3 16 27.2 14.5 27.1 13.8 L 35 13.8 C 35 14.5 34.9 16 34.9 17.5 C 34.9 19.9 32.9 21.3 30.8 21.3 Z" fill="url(#gradient1)"/>
			<path d="M 26.8 17.4 C 31 21.5 34.6 18.4 35.1 17.5 C 35.7 16.6 33.8 20.9 33.8 20.9 L 30.9 21.9 L 27.8 19.9 C 27.8 19.9 26.7 18.2 26.8 17.4 Z" fill="url(#gradient2)"/>
			<path d="M 41.9 19.7 C 41.8 19.6 41.6 19.6 41.5 19.6 C 38.6 19 37.2 18.8 36 17.9 C 36 17.5 35.8 17.2 35.7 17.1 L 35.7 22.8 L 25.7 22.8 L 25.7 18.2 C 24.6 18.9 23.3 19.1 20.7 19.6 C 20.6 19.6 20.4 19.6 20.3 19.7 C 18 20.9 16.8 28.6 16.5 30.9 C 17 31.9 21 33.5 22.8 32.9 C 25.3 35.3 37.2 35 39.7 32.9 C 41.4 33.5 45.2 31.9 45.7 30.9 C 45.4 28.6 44.1 21 41.9 19.7 Z" fill="url(#gradient3)"/>
			<path d="M 41.5 20.3 C 41.5 20.3 41.4 20.3 41.3 20.2 L 41 20.2 C 38.2 19.7 36.8 19.4 35.6 18.5 L 35.4 18.3 L 35.4 22.1 L 25.8 22.1 L 25.8 18.9 C 24.7 19.5 23.3 19.8 21.1 20.2 L 20.8 20.2 C 20.7 20.3 20.6 20.3 20.6 20.3 C 19.1 21.2 17.8 26.1 17.2 30.8 C 17.7 31.4 20.6 32.4 21.9 32.4 C 22.1 32.4 22.3 32.4 22.5 32.3 L 22.9 32.2 L 23.2 32.5 C 25.4 34.5 36.8 34.6 39.1 32.5 L 39.4 32.2 L 39.8 32.3 C 40 32.4 40.2 32.4 40.4 32.4 C 41.8 32.4 44.4 31.4 44.9 30.8 C 44.3 26.2 43 21.2 41.5 20.3 Z" fill="url(#gradient4)"/>
			<path d="M 38.8 29.2 C 38.7 29.6 38.6 30 38.6 30 L 35.7 29.8 C 35.7 29.8 36.1 28.8 38.8 29.2 Z" fill="#1d2531"/>
			<path d="M 35.7 17.8 C 35.8 17.7 35.8 17.5 35.8 17.4 C 35.8 17.3 35.7 17.2 35.7 17.1 L 35.7 17.8 Z" fill="url(#gradient5)"/>
			<path d="M 41.5 20.3 C 41.5 20.3 41.4 20.3 41.3 20.2 L 41 20.2 C 38.3 19.7 36.9 19.4 35.7 18.5 L 35.7 22.8 L 25.7 22.8 L 25.7 19 C 24.6 19.5 23.3 19.8 21.1 20.2 L 20.8 20.2 C 20.7 20.3 20.6 20.3 20.6 20.3 C 20.4 20.4 19.7 21 19.6 21.5 C 22.7 25.6 37.9 28 42.5 21.6 C 42.3 21.3 41.7 20.4 41.5 20.3 Z" fill="url(#gradient6)"/>
			<path d="M 34.9 29.8 C 34.9 29.8 38.1 29.5 38.8 29.1 C 38.6 30 38.6 30.5 38.6 30.5 L 34.5 31.1 L 34.9 29.8 Z" fill="url(#gradient7)"/>
			<path d="M 20.5 20.6 C 20.6 20.6 20.7 20.6 20.8 20.6 L 21.1 20.5 C 22.2 20.4 23 20.2 23.8 20.1 C 24.2 19.9 24.7 19.8 25.1 19.6 C 24.9 19.6 24.7 19.5 24.6 19.4 C 23.7 19.7 22.6 19.9 21.1 20.2 L 20.8 20.2 C 20.7 20.2 20.6 20.3 20.6 20.3 C 20.2 20.5 19.8 21 19.4 21.8 C 19.4 21.8 19.4 21.8 19.5 21.8 C 19.8 21.2 20.2 20.8 20.5 20.6 Z" fill="url(#gradient8)"/>
			<path d="M 26.7 21.5 L 31.1 34.4 L 35.5 21.9 L 33.3 19.9 L 31.6 20.2 L 31.1 20.9 L 30.4 20 L 29.4 20.1 L 26.7 21.5 Z" fill="url(#gradient9)"/>
			<path d="M 28 22.3 C 28.4 25.1 29.8 29.4 30 30 C 30.2 30.5 32.9 29 33.1 27.5 C 33.3 26 34.3 22.5 34.3 22.5 L 35.6 22.1 L 31 34.1 L 26.4 22.2 L 28 22.3 Z" fill="url(#gradient10)"/>
			<path d="M 34.2 23.3 C 33.6 22.7 31.7 21.7 31.7 21.7 L 31.5 20.6 L 32 20 L 33.6 19.8 L 36.2 19.4 L 36.6 21.6 L 34.2 23.3 Z" fill="url(#gradient11)"/>
			<path d="M 28.1 23.3 C 28.7 22.7 30.6 21.7 30.6 21.7 L 30.7 20.6 L 30.3 20 L 28.6 19.8 L 26 19.4 L 25.9 22.3 L 28.1 23.3 Z" fill="url(#gradient12)"/>
			<path d="M 28 22.1 C 28.9 22.7 32.5 22.9 33.9 22 C 35.4 21.1 33.1 20.3 33.1 20.3 C 33.1 20.3 30.2 22 29.7 20.5 C 29.2 19.3 28 22.1 28 22.1 Z" fill="url(#gradient13)"/>
			<path d="M 29.9 19.7 C 29.3 19.4 27.2 18.4 26.9 17.4 L 26.9 16.8 C 26.9 16.8 26.7 16.8 26.5 17 C 26.1 17.6 25.4 18.2 25.4 18.2 L 28 23.3 L 28.1 23.3 C 28.3 22.9 29 21.2 29.7 20.6 C 30.4 19.8 30.6 20.4 31.2 21.5 C 30.8 20.5 30.9 20 29.9 19.7 Z" fill="url(#gradient14)"/>
			<path d="M 25.6 18 C 25.8 17.9 26.7 16.7 26.9 16.8 L 26.6 17.6 C 26.8 18.6 29.4 20.1 29.5 20.1 C 29.4 20.2 29.1 20.4 28.9 20.6 C 28.5 21.1 28.1 21.9 27.8 22.4 L 25.6 18 Z" fill="url(#gradient15)"/>
			<path d="M 31 21 C 30.9 20.7 30.8 20.4 30.7 20.2 C 29.8 19.1 28.1 22.5 28 23.3 L 28.1 23.3 C 28.3 22.9 29 21.2 29.7 20.6 C 30.4 19.9 30.5 20.3 31.1 21.2 C 31.1 21.1 31.1 21 31 21 Z" fill="url(#gradient16)"/>
			<path d="M 32.3 19.7 C 33 19.4 35.1 18.4 35.3 17.4 L 35.3 16.8 C 35.3 16.8 35.5 16.8 35.7 17 C 36.2 17.6 36.8 18.2 36.8 18.2 L 34.3 23.3 L 34.2 23.3 C 34 22.9 33.2 21.2 32.6 20.6 C 31.8 19.8 31.7 20.4 31 21.5 C 31.4 20.5 31.4 20 32.3 19.7 Z" fill="url(#gradient17)"/>
			<path d="M 31.2 21 C 31.3 20.7 31.4 20.4 31.5 20.2 C 32.4 19.1 34.1 22.5 34.3 23.3 L 34.2 23.3 C 34 22.9 33.2 21.2 32.6 20.6 C 31.9 19.9 31.7 20.3 31.2 21.2 C 31.2 21.1 31.2 21 31.2 21 Z" fill="url(#gradient18)"/>
			<path d="M 36.6 18 C 36.4 17.9 35.6 16.7 35.3 16.8 L 35.6 17.6 C 35.4 18.6 32.8 20.1 32.7 20.1 C 32.9 20.2 33.1 20.4 33.3 20.6 C 33.7 21.1 34.1 21.9 34.4 22.4 L 36.6 18 Z" fill="url(#gradient19)"/>
			<path d="M 29.7 22.2 L 29.6 28.6 L 32.9 27.7 L 32.4 22.2 L 29.7 22.2 Z" fill="url(#gradient20)"/>
			<path d="M 29.6 20.5 C 30.2 20.3 31.7 20.3 32.4 20.6 C 32.7 21.4 32.2 23 32.2 23 C 31.8 23.1 30.1 23 30.1 23 C 29.7 22.7 29.4 21.1 29.6 20.5 Z" fill="url(#gradient21)"/>
			<path d="M 30.1 23 L 29.4 31.2 L 31.1 33.8 L 33.4 30.2 L 32.2 23 L 30.1 23 Z" fill="url(#gradient22)"/>
			<path d="M 24.2 23.6 C 24.2 22.2 24.3 19.8 24 18.9 C 25.1 18.2 25.1 18.4 25.9 17.9 C 25.1 19.3 27.7 25.2 30.8 34.6 C 30 34.6 29.2 34.5 28.4 34.5 C 26.8 31.9 24.6 28.1 23.9 24.7 C 24.5 24.6 25.3 24.3 25.9 24 C 25.1 23.8 24.9 23.8 24.2 23.6 Z" fill="url(#gradient23)"/>
			<path d="M 32.8 27 C 32.7 27.8 31 31.7 31 31.7 C 31 31.7 29.9 29.3 29.6 28.6 C 29.5 30.1 29.5 32.5 29.4 32.6 C 29.3 32.7 29.5 33.2 29.5 33.2 C 29.5 33.2 31 33.6 31 33.6 C 31 33.6 33.4 30.3 33.4 30.3 L 32.8 27 Z" fill="url(#gradient24)"/>
			<path d="M 26.6 16.9 C 25.8 18.3 28 24.8 31.7 34.6 L 29.6 34.6 C 27.9 32.1 25 27.9 24.1 24.2 C 24.6 24 25.4 23.7 26 23.4 C 25.4 23.4 24.9 23.5 24.2 23.3 C 24.2 22 24.4 19.6 24.6 18.4 C 25.6 17.7 25.9 17.4 26.6 16.9 Z" fill="url(#gradient25)"/>
			<g>
				<path d="M 30.9 34.6 L 31.7 34.6 C 28 24.8 25.8 18.3 26.6 16.9 C 25.8 18.3 27.8 24.9 30.9 34.6 Z" fill="url(#gradient26)"/>
			</g>
			<path d="M 30.7 34.2 C 27.1 24.7 26 19.8 26.1 17.7 C 26 17.8 25.9 17.8 25.8 17.9 C 25.6 18.1 25.3 18.3 24.8 18.6 C 24.7 19.7 24.6 21.5 24.6 22.7 C 24.7 22.7 24.8 22.8 24.9 22.8 C 25.2 22.8 25.5 22.9 26 23.1 L 26.8 23.3 L 26.1 23.7 C 25.7 24 25 24.2 24.5 24.4 C 25.4 28 28.1 31.8 29.7 34.2 L 29.7 34.2 L 30.7 34.2 Z" fill="url(#gradient27)"/>
			<path d="M 37.9 23.1 C 37.9 21.8 38.1 19.4 38.4 18.9 C 37.2 18.6 37 18.4 36.2 17.9 C 37 19.3 34.3 25.2 31.3 34.6 C 32.1 34.6 32.9 34.5 33.7 34.5 C 35.3 31.9 37.5 28.1 38.1 24.7 C 37.6 24.6 36.8 24.3 36.2 24 C 37 23.8 37.2 23.3 37.9 23.1 Z" fill="url(#gradient28)"/>
			<g>
				<path d="M 37.7 24 C 37.8 24.1 38 24.1 38.1 24.2 C 38.1 24.2 38.1 24.2 38.1 24.2 C 38 24.1 37.8 24.1 37.7 24 Z" fill="url(#gradient29)"/>
			</g>
			<path d="M 29.9 34.6 L 31.8 34.6 C 31.5 33.7 31.2 33.2 30.9 32.4 L 29.9 34.6 Z" fill="url(#gradient30)"/>
			<path d="M 35.6 16.9 C 36.4 18.3 34.2 24.9 30.5 34.6 L 32.7 34.5 C 34.4 32.1 37.2 27.9 38.1 24.2 C 37.6 24 36.8 23.7 36.2 23.4 C 37 23.2 37.2 23.2 37.9 23 C 37.9 21.7 37.8 19.7 37.7 18.4 C 36.6 17.7 36.3 17.4 35.6 16.9 Z" fill="url(#gradient31)"/>
			<path d="M 31 34.2 C 34.6 24.7 36.1 19.8 36.1 17.7 C 36.2 17.8 36.2 17.8 36.3 17.9 C 36.6 18.1 36.9 18.3 37.3 18.6 C 37.4 19.7 37.6 21.5 37.6 22.7 C 37.4 22.7 37.3 22.8 37.2 22.8 C 36.9 22.8 36.6 22.9 36.1 23.1 L 35.3 23.3 L 36 23.7 C 36.5 24 37.1 24.2 37.7 24.4 C 36.7 28 34.1 31.8 32.5 34.2 L 32.5 34.2 L 31 34.2 Z" fill="url(#gradient32)"/>
			<path d="M 26.3 23.6 C 27.1 26.5 28.8 29.5 29.8 31.8 C 26.9 23.9 26 19.7 26.1 17.7 C 25.8 19.1 26.3 23.6 26.3 23.6 Z" fill="url(#gradient33)"/>
			<path d="M 35.7 23.6 C 35 26.5 33.3 29.5 32.3 31.8 C 35 24.4 36.1 19.1 36.1 17.7 C 36.3 19.1 35.7 23.6 35.7 23.6 Z" fill="url(#gradient34)"/>
			<path d="M 22.5 25.3 C 23.1 25.9 24.5 32.2 24.5 32.2 C 24.5 32.2 22.7 31.1 22.5 25.3 Z" fill="url(#gradient35)"/>
			<path d="M 22.2 25.7 C 22.1 25.8 22 25.9 22 26.1 C 21.8 28.4 22.3 31.4 21.1 32.4 C 21.8 32.5 22.5 32.5 22.9 32.2 C 22.7 30.3 22.2 27 22.2 25.7 Z" fill="url(#gradient36)"/>
			<path d="M 41 32.4 C 40.2 31.4 40.3 28.6 39.9 25.7 C 39.9 27 39.6 30.3 39.5 32.2 C 39.8 32.4 40.4 32.5 41 32.4 Z" fill="url(#gradient37)"/>
			<path d="M 20.8 20.2 C 19.8 22.7 18.8 27.2 19.1 31.9 C 18.7 31.7 17.4 31.2 17.1 30.8 C 16.8 30.5 18.6 21.6 20.4 20.4 C 20.4 20.4 20.6 20.2 20.8 20.2 Z" fill="url(#gradient38)"/>
			<path d="M 41.2 20.2 C 42.2 22.7 43.2 27.2 42.9 31.9 C 43.3 31.7 44.6 31.2 44.9 30.8 C 45.2 30.5 43.4 21.6 41.7 20.4 C 41.7 20.4 41.4 20.2 41.2 20.2 Z" fill="url(#gradient39)"/>
			<path d="M 41.6 20.3 C 41.5 20.3 41.4 20.3 41.3 20.2 L 41 20.2 C 39.9 20 39 19.8 38.2 19.6 C 38.2 19.8 38.2 19.9 38.2 20 C 38.3 20.1 38.3 20.1 38.3 20.1 C 39.1 20.2 39.9 20.4 41 20.5 L 41.3 20.6 C 41.4 20.6 41.5 20.6 41.6 20.7 C 41.9 20.8 42.3 21.2 42.6 21.8 C 42.7 21.8 42.7 21.8 42.7 21.8 C 42.3 21 42 20.5 41.6 20.3 Z" fill="url(#gradient40)"/>
			<path d="M 40.4 22.1 C 40.4 24.5 41.1 29.4 41.1 29.4 C 41.1 29.4 42.1 24.8 40.4 22.1 Z" fill="url(#gradient41)"/>
			<path d="M 30.8 23.3 C 31.1 23.4 31.1 25.6 31.4 25.8 C 31.7 25.9 31.8 23.2 31.9 23.4 C 32 23.6 32.6 27.7 32.6 27.7 L 32.2 23 L 30.1 23 L 30 24.1 C 30 24.1 30.1 23.2 30.4 23.2 L 30.8 23.3 Z" fill="url(#gradient42)"/>
			<path d="M 31.8 24.9 L 31.8 29.4 C 31.8 29.4 32.6 27.1 31.8 24.9 Z" fill="url(#gradient43)"/>
			<path d="M 30.3 29.9 L 30.5 24.1 C 30.4 23.4 30.6 23.5 30.7 23.8 C 30.7 23.8 31.2 24.9 30.3 29.9 Z" fill="url(#gradient44)"/>
			<path d="M 30.3 22.5 C 29.9 21.9 29.8 20.7 29.8 20.7 C 29.8 20.7 31.6 20.6 32 20.7 C 31.4 21 30.7 21.1 30.6 21.1 C 30.6 21.1 30.7 23.1 30.3 22.5 Z" fill="url(#gradient45)"/>
			<path d="M 32.3 21 C 32.3 21.7 31 22.8 30.3 22.8 C 30.3 22.8 30.2 22.8 30.2 22.8 C 30.6 22.8 31.7 22.9 32 22.8 C 32 22.8 32.3 21.8 32.3 21 Z" fill="url(#gradient46)"/>
			<path d="M 29.6 20.5 C 29.5 20.7 29.6 21.4 29.6 21.8 C 29.7 21.4 30.1 20.5 30.3 20.4 C 30.3 20.4 29.8 20.4 29.6 20.5 Z" fill="#0a68cb"/>
			<path d="M 31.5 20.4 C 31.7 20.4 32.6 21.4 32.4 22.3 C 32.5 21.7 32.6 20.8 32.4 20.6 C 32.2 20.5 31.8 20.4 31.5 20.4 Z" fill="#0959aa"/>
			<path d="M 31.3 34.6 C 35.3 23.8 36.5 18 35.6 16.9 C 36.5 18.6 33.9 25.6 30.5 34.6 L 31.3 34.6 Z" fill="url(#gradient47)"/>
			<path d="M 37.7 8.1 C 37.6 8.1 37.1 8.1 36.7 8.9 C 36.6 7.6 36.7 6.5 36 5.8 C 35.4 5.2 35 6.2 32.9 6.1 C 30.5 5.9 28.9 4.7 28.3 4 C 28.3 4 25.6 4 25.6 8.9 C 25.2 8 24.8 8 24.8 8 C 24.8 8 24.8 8 24.8 8 C 24.4 8.2 24.3 9.1 24.6 10.1 C 24.8 11.1 25.3 11.8 25.8 11.8 C 26.3 13.6 27.2 15.4 28.1 16.3 C 29.1 17.3 29.7 17.8 31.2 17.8 L 31.2 17.8 C 31.2 17.8 31.2 17.8 31.2 17.8 C 31.2 17.8 31.2 17.8 31.2 17.8 L 31.2 17.8 C 32.8 17.8 33.3 17.3 34.3 16.3 C 35.2 15.4 36.2 13.6 36.6 11.8 C 37.1 11.8 37.6 11.1 37.9 10.1 C 38.1 9.2 38 8.3 37.7 8.1 Z" fill="url(#gradient48)"/>
			<path d="M 31.2 17.5 C 29.7 17.5 29.3 17.1 28.3 16.1 C 27.4 15.2 26.5 13.5 26 11.7 L 26 11.5 L 25.8 11.5 C 25.5 11.5 25 11 24.8 10 C 24.5 9.1 24.7 8.5 24.9 8.3 C 25 8.3 25.2 8.5 25.4 9 L 25.7 10 C 25.7 8.1 26.2 5.6 27 4.9 C 27.5 4.4 28 4.3 28.2 4.3 C 29 5.1 30.6 6.2 32.9 6.3 C 33 6.3 33.1 6.3 33.3 6.3 C 34.1 6.3 34.7 6.1 35.1 6 C 35.3 5.9 35.5 5.8 35.6 5.8 C 35.7 5.8 35.7 5.9 35.9 6 C 36.4 6.5 36.4 7.3 36.5 8.4 C 36.5 8.6 36.5 9.9 36.6 10.1 L 36.9 9.1 C 37.2 8.5 37.5 8.3 37.6 8.3 C 37.8 8.5 37.9 9.2 37.7 10 C 37.4 11 36.9 11.5 36.6 11.5 L 36.5 11.5 L 36.4 11.7 C 36 13.5 35.1 15.2 34.2 16.1 C 33.2 17.1 32.7 17.5 31.2 17.5 L 31.2 17.5 L 31.2 17.5 Z" fill="url(#gradient49)"/>
			<g>
				<path d="M 34.1 15.1 C 33 16 32.6 16.3 31.2 16.3 L 31.2 16.3 L 31.2 16.3 C 29.8 16.3 29.3 16 28.3 15.1 C 27.7 14.6 27.1 13.8 26.7 12.8 C 27.1 14 27.8 15 28.4 15.6 C 29.4 16.6 29.8 17 31.2 17 L 31.2 17 L 31.2 17 C 32.6 17 33.1 16.6 34.1 15.6 C 34.8 14.9 35.6 13.4 36.1 11.9 C 35.6 13.2 34.8 14.4 34.1 15.1 Z" fill="url(#gradient50)"/>
			</g>
			<path d="M 28.3 4 C 28.9 4.7 30.5 5.9 32.9 6.1 C 35 6.2 35.4 5.2 36 5.8 C 36.7 6.5 36.6 7.6 36.7 8.9 C 37.2 8 37.7 8.1 37.7 8.1 C 38 6.1 37.7 2.9 36.2 1.6 C 34.5 0.1 29.9 -0.9 27.5 1.2 C 26.2 1.4 24.6 2.8 24.7 5.3 C 24.8 7.8 24.8 8 24.8 8 C 24.8 8 25.2 8 25.6 8.9 C 25.6 4 28.3 4 28.3 4 Z" fill="url(#gradient51)"/>
			<path d="M 37.1 7.8 C 37.1 6.9 36.9 6.1 36.4 5.5 C 36.1 5.3 35.9 5.2 35.6 5.2 C 35.3 5.2 35.1 5.2 34.9 5.3 C 34.8 5.4 34.7 5.4 34.6 5.4 C 34.3 5.5 33.9 5.6 33.3 5.6 C 33.2 5.6 33 5.6 32.9 5.6 C 30.7 5.5 29.2 4.4 28.6 3.7 L 28.5 3.6 L 28.3 3.6 C 28.2 3.6 27.3 3.6 26.5 4.4 C 25.8 5 25.4 6.1 25.2 7.4 C 25.2 7 25.2 6.4 25.1 5.3 C 25 2.9 26.6 1.8 27.6 1.6 L 27.7 1.6 L 27.8 1.5 C 28.8 0.6 30.2 0.4 31.2 0.4 C 33.2 0.4 35.1 1.2 35.9 2 C 37.2 3.1 37.5 5.9 37.3 7.7 C 37.2 7.7 37.2 7.7 37.1 7.8 L 37.1 7.8 Z" fill="url(#gradient52)"/>
			<path d="M 36.4 4.2 C 36 3.6 35.3 3.1 34.6 2.7 C 34.2 2.5 33.8 2.3 33.5 2.2 C 33.2 2.1 32.7 1.9 32.7 1.6 C 32.8 1.5 33 1.5 33.2 1.5 C 33.4 1.5 33.7 1.5 34 1.6 C 34.5 1.7 35 2 35.4 2.3 C 34 0.7 32 0.4 31.2 0.4 C 30.3 0.4 29 0.6 28 1.4 C 27.9 1.6 28.2 1.9 28.4 2.2 C 28.8 2.7 29.3 3.2 29.9 3.6 C 31 4.2 32.2 4.4 33.4 4.5 C 33.7 4.5 34 4.5 34.3 4.5 C 34.5 4.5 34.8 4.4 35.1 4.4 C 35.6 4.4 36.3 4.4 36.7 4.8 C 36.7 4.6 36.6 4.4 36.4 4.2 Z" fill="url(#gradient53)"/>
			<path d="M 26.8 3.3 C 27.1 3 27.2 2.8 27.3 2.4 C 27.3 2.3 27.4 1.7 27.6 1.7 C 26.9 1.7 26.2 2.1 25.8 2.7 C 25.3 3.4 25.3 3.9 25.2 4.7 C 25.6 4.1 26.1 3.8 26.7 3.3 C 26.7 3.3 26.8 3.3 26.8 3.3 Z" fill="url(#gradient54)"/>
			<path d="M 27.7 10.2 C 27.5 9.8 27.3 9.4 27.2 9 C 27.1 8.6 27 8.1 27 7.7 C 27 7.1 27.2 6.5 27.4 6 C 27.6 5.8 27.7 5.5 27.9 5.3 C 27.9 5.3 28.3 5 28.3 5.1 C 28.4 6.4 29.5 6.9 30.6 7.5 C 31.7 8 33.1 7.8 33.8 9.4 C 34 9.8 33.9 10.5 33.7 11 C 33.3 11.8 32.6 12.1 31.7 12.2 C 30.9 12.2 30.1 12.2 29.4 11.8 C 29 11.7 28.6 11.4 28.3 11.1 C 28.1 10.8 27.8 10.5 27.7 10.2 Z" fill="url(#gradient55)"/>
			<path d="M 28.3 2 C 28.9 2.7 30 4.4 32.5 4.5 C 31.6 4.2 29.3 3.1 28.3 2 Z" fill="url(#gradient56)"/>
			<path d="M 30.5 3.2 C 31.4 3.7 33.2 4.6 34.4 4.5 C 32.9 4 31.7 3.8 30.5 3.2 Z" fill="url(#gradient57)"/>
			<path d="M 33.8 4 C 34.5 4.3 34.9 4.3 35.6 4.4 C 34.9 4.1 34.5 4 33.8 4 Z" fill="url(#gradient58)"/>
			<path d="M 27.6 3 C 26.5 3.6 26.1 4.4 26.1 4.4 C 26.4 3.6 26.9 2.8 27.6 3 Z" fill="url(#gradient59)"/>
			<path d="M 26.3 3.3 C 26.6 3.2 27.2 2.5 27.5 2.6 C 27.4 2.3 26.7 2.6 26.3 3.3 Z" fill="url(#gradient60)"/>
			<path d="M 36.2 5.2 C 36.6 5.7 37.1 7 37.1 7.5 C 37.3 6.5 37 5.2 36.2 5.2 Z" fill="#673224"/>
			<path d="M 29.6 4.5 C 30.1 4.9 32.1 5.8 33.6 5.6 C 35.1 5.4 35.3 5.2 35.3 5.2 C 34.4 5.2 32.7 5.5 29.6 4.5 Z" fill="#673224"/>
			<path d="M 25.2 7.3 C 25.3 6.8 25.7 5.5 26 5.1 C 25.2 5.3 25.1 5.9 25.2 7.3 Z" fill="#673224"/>
			<path d="M 36 5.8 C 35.4 5.2 35 6.2 32.9 6.1 C 30.5 5.9 28.9 4.7 28.3 4 C 28.3 4 25.7 4 25.6 8.6 C 25.6 8.7 25.6 8.7 25.6 8.7 C 25.9 4.7 28.3 4.8 28.3 4.8 C 28.9 5.4 30.5 6.7 32.9 6.8 C 35 6.9 35.4 5.9 36 6.6 C 36.5 7.1 36.6 7.7 36.7 8.6 C 36.7 8.6 36.7 8.6 36.7 8.6 C 36.7 7.4 36.6 6.4 36 5.8 Z" fill="url(#gradient61)"/>
			<path d="M 37.7 8.9 C 37.7 8.5 37.2 9.5 36.8 10.9 C 36.5 12.2 38 10.6 37.7 8.9 Z" fill="url(#gradient62)"/>
			<path d="M 24.8 8.9 C 24.8 8.5 25.2 9.5 25.6 10.9 C 26 12.2 24.5 10.6 24.8 8.9 Z" fill="url(#gradient63)"/>
			<path d="M 48.5 30.8 C 48.5 34.8 45.3 38 41.3 38 C 37.3 38 34.1 34.8 34.1 30.8 C 34.1 26.9 37.3 23.7 41.3 23.7 C 45.3 23.7 48.5 26.9 48.5 30.8 Z" fill="url(#gradient64)"/>
			<path d="M 47.8 30.8 C 47.8 34.4 44.9 37.3 41.3 37.3 C 37.7 37.3 34.8 34.4 34.8 30.8 C 34.8 27.3 37.7 24.4 41.3 24.4 C 44.9 24.4 47.8 27.3 47.8 30.8 Z" fill="url(#gradient65)"/>
			<path d="M 47.3 30.8 C 47.3 34.1 44.6 36.8 41.3 36.8 C 38 36.8 35.3 34.1 35.3 30.8 C 35.3 27.6 38 24.9 41.3 24.9 C 44.6 24.9 47.3 27.6 47.3 30.8 Z" fill="url(#gradient66)"/>
			<path d="M 45.9 29 C 45.9 31 43.8 32.7 41.3 32.7 C 38.7 32.7 36.7 31 36.7 29 C 36.7 26.9 38.7 25.3 41.3 25.3 C 43.8 25.3 45.9 26.9 45.9 29 Z" fill="url(#gradient67)"/>
			<path d="M 40.8 35.1 L 37.2 31.5 L 37 31.4 L 37.2 31.2 L 38.8 29.6 L 39 29.4 L 39.1 29.7 L 40.9 31.8 L 43.9 27.6 L 44.1 27.4 L 44.3 27.6 L 45.8 29.1 L 46 29.3 L 45.9 29.5 L 41.2 35.1 L 41 35.3 L 40.8 35.1 Z" fill="#54a619"/>
			<path d="M 45.7 29.3 L 44.1 27.7 L 40.9 32.2 L 39 29.8 L 37.4 31.4 L 41 35 L 45.7 29.3 Z" fill="url(#gradient68)"/>
			<path d="M 44.1 27.7 L 41.1 32 L 41.3 32.2 L 44.3 27.9 L 44.1 27.7 ZM 39.1 30 L 39 29.8 L 37.4 31.4 L 41 35 L 41.2 34.8 L 37.7 31.4 L 39.1 30 Z" fill="#ffffff"/>
		</g>
	</g>
</svg>