<?xml version="1.0" standalone="no"?>

<svg viewBox="0 0 65 38" style="background-color:#ffffff00" version="1.1" xmlns="http://www.w3.org/2000/svg" xmlns:xlink="http://www.w3.org/1999/xlink" xml:space="preserve" x="0px" y="0px" width="100%" height="100%">
	<defs>
		<radialGradient id="gradient1" cx="9.9%" cy="139.6%" r="104.8%">
			<stop stop-color="#cf3300" stop-opacity="1" offset="1%"/>
			<stop stop-color="#4a1311" stop-opacity="1" offset="99%"/>
		</radialGradient>
		<radialGradient id="gradient2" cx="13.8%" cy="400.2%" r="139.5%">
			<stop stop-color="#e35200" stop-opacity="1" offset="1%"/>
			<stop stop-color="#4a1311" stop-opacity="1" offset="99%"/>
		</radialGradient>
		<radialGradient id="gradient3" cx="49.5%" cy="470.8%" r="86.9%">
			<stop stop-color="#fcdede" stop-opacity="1" offset="1%"/>
			<stop stop-color="#fcccbe" stop-opacity="1" offset="44%"/>
			<stop stop-color="#cc8d88" stop-opacity="1" offset="99%"/>
		</radialGradient>
		<radialGradient id="gradient4" cx="25.1%" cy="337.5%" r="118.7%">
			<stop stop-color="#cf3300" stop-opacity="1" offset="1%"/>
			<stop stop-color="#4a1311" stop-opacity="1" offset="99%"/>
		</radialGradient>
		<radialGradient id="gradient5" cx="43.8%" cy="508.2%" r="407.3%">
			<stop stop-color="#cf3300" stop-opacity="1" offset="1%"/>
			<stop stop-color="#4a1311" stop-opacity="1" offset="99%"/>
		</radialGradient>
		<radialGradient id="gradient6" cx="74.9%" cy="337.5%" r="118.7%">
			<stop stop-color="#cf3300" stop-opacity="1" offset="1%"/>
			<stop stop-color="#4a1311" stop-opacity="1" offset="99%"/>
		</radialGradient>
		<radialGradient id="gradient7" cx="56.2%" cy="508.2%" r="407.3%">
			<stop stop-color="#cf3300" stop-opacity="1" offset="1%"/>
			<stop stop-color="#4a1311" stop-opacity="1" offset="99%"/>
		</radialGradient>
		<radialGradient id="gradient8" cx="-404.5%" cy="280.1%" r="166.9%">
			<stop stop-color="#cf3300" stop-opacity="1" offset="1%"/>
			<stop stop-color="#4a1311" stop-opacity="1" offset="99%"/>
		</radialGradient>
		<radialGradient id="gradient9" cx="90.2%" cy="94%" r="86.4%">
			<stop stop-color="#00aeef" stop-opacity="1" offset="1%"/>
			<stop stop-color="#00aeef" stop-opacity="1" offset="3%"/>
			<stop stop-color="#2b3990" stop-opacity="1" offset="99%"/>
		</radialGradient>
		<radialGradient id="gradient10" cx="73.8%" cy="93.2%" r="98.4%">
			<stop stop-color="#00aeef" stop-opacity="1" offset="1%"/>
			<stop stop-color="#00aeef" stop-opacity="1" offset="3%"/>
			<stop stop-color="#2b3990" stop-opacity="1" offset="93%"/>
			<stop stop-color="#2b3990" stop-opacity="1" offset="99%"/>
		</radialGradient>
		<radialGradient id="gradient11" cx="49%" cy="91.9%" r="103.3%">
			<stop stop-color="#00aeef" stop-opacity="1" offset="1%"/>
			<stop stop-color="#00aeef" stop-opacity="1" offset="3%"/>
			<stop stop-color="#2b3990" stop-opacity="1" offset="84%"/>
			<stop stop-color="#2b3990" stop-opacity="1" offset="99%"/>
		</radialGradient>
		<radialGradient id="gradient12" cx="42%" cy="87.6%" r="93.4%">
			<stop stop-color="#00aeef" stop-opacity="1" offset="1%"/>
			<stop stop-color="#00aeef" stop-opacity="1" offset="3%"/>
			<stop stop-color="#2b3990" stop-opacity="1" offset="99%"/>
		</radialGradient>
		<radialGradient id="gradient13" cx="50.3%" cy="185.8%" r="61.6%">
			<stop stop-color="#fcdede" stop-opacity="1" offset="1%"/>
			<stop stop-color="#fcccbe" stop-opacity="1" offset="44%"/>
			<stop stop-color="#cc8d88" stop-opacity="1" offset="99%"/>
		</radialGradient>
		<radialGradient id="gradient14" cx="52.3%" cy="544.9%" r="77.5%">
			<stop stop-color="#fcdede" stop-opacity="1" offset="1%"/>
			<stop stop-color="#fcccbe" stop-opacity="1" offset="44%"/>
			<stop stop-color="#cc8d88" stop-opacity="1" offset="99%"/>
		</radialGradient>
		<linearGradient id="gradient15" x1="0%" y1="243.4%" x2="100%" y2="243.4%">
			<stop stop-color="#231f20" stop-opacity="1" offset="1%"/>
			<stop stop-color="#636467" stop-opacity="1" offset="99%"/>
		</linearGradient>
		<linearGradient id="gradient16" x1="54.9%" y1="470.8%" x2="52.1%" y2="563.9%">
			<stop stop-color="#231f20" stop-opacity="1" offset="1%"/>
			<stop stop-color="#636467" stop-opacity="1" offset="99%"/>
		</linearGradient>
		<linearGradient id="gradient17" x1="0%" y1="292%" x2="100%" y2="292%">
			<stop stop-color="#231f20" stop-opacity="1" offset="1%"/>
			<stop stop-color="#636467" stop-opacity="1" offset="99%"/>
		</linearGradient>
		<linearGradient id="gradient18" x1="0%" y1="478.1%" x2="100%" y2="478.1%">
			<stop stop-color="#231f20" stop-opacity="1" offset="1%"/>
			<stop stop-color="#636467" stop-opacity="1" offset="99%"/>
		</linearGradient>
		<linearGradient id="gradient19" x1="0%" y1="310.1%" x2="100%" y2="310.1%">
			<stop stop-color="#231f20" stop-opacity="1" offset="1%"/>
			<stop stop-color="#636467" stop-opacity="1" offset="99%"/>
		</linearGradient>
		<linearGradient id="gradient20" x1="-10.5%" y1="693.8%" x2="76.6%" y2="459.2%">
			<stop stop-color="#231f20" stop-opacity="1" offset="1%"/>
			<stop stop-color="#636467" stop-opacity="1" offset="99%"/>
		</linearGradient>
		<linearGradient id="gradient21" x1="-36.6%" y1="126.2%" x2="26.9%" y2="156.7%">
			<stop stop-color="#dc8124" stop-opacity="1" offset="1%"/>
			<stop stop-color="#f39a2e" stop-opacity="1" offset="16%"/>
			<stop stop-color="#ffa833" stop-opacity="1" offset="27%"/>
			<stop stop-color="#b75814" stop-opacity="1" offset="99%"/>
		</linearGradient>
		<linearGradient id="gradient22" x1="51.4%" y1="156.4%" x2="102.8%" y2="150.5%">
			<stop stop-color="#dc8124" stop-opacity="1" offset="1%"/>
			<stop stop-color="#f39a2e" stop-opacity="1" offset="16%"/>
			<stop stop-color="#ffa833" stop-opacity="1" offset="27%"/>
			<stop stop-color="#b75814" stop-opacity="1" offset="99%"/>
		</linearGradient>
		<linearGradient id="gradient23" x1="-47.2%" y1="315.6%" x2="127.6%" y2="343%">
			<stop stop-color="#dc8124" stop-opacity="1" offset="1%"/>
			<stop stop-color="#963e0c" stop-opacity="1" offset="99%"/>
		</linearGradient>
		<linearGradient id="gradient24" x1="225.5%" y1="292.8%" x2="36.3%" y2="317.3%">
			<stop stop-color="#dc8124" stop-opacity="1" offset="1%"/>
			<stop stop-color="#963e0c" stop-opacity="1" offset="99%"/>
		</linearGradient>
		<radialGradient id="gradient25" cx="309.6%" cy="246.4%" r="113.1%">
			<stop stop-color="#ffdc6c" stop-opacity="1" offset="1%"/>
			<stop stop-color="#ffa833" stop-opacity="1" offset="43%"/>
			<stop stop-color="#b75814" stop-opacity="1" offset="99%"/>
		</radialGradient>
		<radialGradient id="gradient26" cx="-310.6%" cy="334.5%" r="134.3%">
			<stop stop-color="#ffdc6c" stop-opacity="1" offset="1%"/>
			<stop stop-color="#ffa833" stop-opacity="1" offset="43%"/>
			<stop stop-color="#b75814" stop-opacity="1" offset="99%"/>
		</radialGradient>
		<radialGradient id="gradient27" cx="42.5%" cy="156.1%" r="61.8%">
			<stop stop-color="#636467" stop-opacity="1" offset="1%"/>
			<stop stop-color="#231f20" stop-opacity="1" offset="99%"/>
		</radialGradient>
		<linearGradient id="gradient28" x1="67.8%" y1="664.6%" x2="56.7%" y2="559.4%">
			<stop stop-color="#231f20" stop-opacity="1" offset="1%"/>
			<stop stop-color="#636467" stop-opacity="1" offset="99%"/>
		</linearGradient>
		<radialGradient id="gradient29" cx="42.1%" cy="184.3%" r="52.8%">
			<stop stop-color="#fcdede" stop-opacity="1" offset="1%"/>
			<stop stop-color="#fcccbe" stop-opacity="1" offset="44%"/>
			<stop stop-color="#cc8d88" stop-opacity="1" offset="99%"/>
		</radialGradient>
		<linearGradient id="gradient30" x1="54.9%" y1="479.8%" x2="92.7%" y2="494.1%">
			<stop stop-color="#ffffff" stop-opacity="1" offset="1%"/>
			<stop stop-color="#cfcfcf" stop-opacity="1" offset="78%"/>
			<stop stop-color="#ffffff" stop-opacity="1" offset="99%"/>
		</linearGradient>
		<linearGradient id="gradient31" x1="-55.5%" y1="582.4%" x2="122.2%" y2="624.9%">
			<stop stop-color="#ffffff" stop-opacity="1" offset="1%"/>
			<stop stop-color="#cfcfcf" stop-opacity="1" offset="78%"/>
			<stop stop-color="#ffffff" stop-opacity="1" offset="99%"/>
		</linearGradient>
		<linearGradient id="gradient32" x1="25.4%" y1="454.3%" x2="72.9%" y2="465.3%">
			<stop stop-color="#ffffff" stop-opacity="1" offset="1%"/>
			<stop stop-color="#cfcfcf" stop-opacity="1" offset="78%"/>
			<stop stop-color="#ffffff" stop-opacity="1" offset="99%"/>
		</linearGradient>
		<linearGradient id="gradient33" x1="45.1%" y1="479.8%" x2="7.3%" y2="494.1%">
			<stop stop-color="#ffffff" stop-opacity="1" offset="1%"/>
			<stop stop-color="#cfcfcf" stop-opacity="1" offset="78%"/>
			<stop stop-color="#ffffff" stop-opacity="1" offset="99%"/>
		</linearGradient>
		<linearGradient id="gradient34" x1="74.6%" y1="454.3%" x2="27.1%" y2="465.3%">
			<stop stop-color="#ffffff" stop-opacity="1" offset="1%"/>
			<stop stop-color="#cfcfcf" stop-opacity="1" offset="78%"/>
			<stop stop-color="#ffffff" stop-opacity="1" offset="99%"/>
		</linearGradient>
		<radialGradient id="gradient35" cx="50.2%" cy="186.5%" r="45.1%">
			<stop stop-color="#fcdede" stop-opacity="1" offset="1%"/>
			<stop stop-color="#fcccbe" stop-opacity="1" offset="44%"/>
			<stop stop-color="#cc8d88" stop-opacity="1" offset="99%"/>
		</radialGradient>
		<linearGradient id="gradient36" x1="11%" y1="246.6%" x2="99.1%" y2="235.7%">
			<stop stop-color="#dc8124" stop-opacity="1" offset="1%"/>
			<stop stop-color="#f39a2e" stop-opacity="1" offset="16%"/>
			<stop stop-color="#ffa833" stop-opacity="1" offset="27%"/>
			<stop stop-color="#b75814" stop-opacity="1" offset="99%"/>
		</linearGradient>
		<linearGradient id="gradient37" x1="24.7%" y1="183.2%" x2="86.7%" y2="235.1%">
			<stop stop-color="#dc8124" stop-opacity="1" offset="1%"/>
			<stop stop-color="#f39a2e" stop-opacity="1" offset="16%"/>
			<stop stop-color="#ffa833" stop-opacity="1" offset="27%"/>
			<stop stop-color="#b75814" stop-opacity="1" offset="99%"/>
		</linearGradient>
		<radialGradient id="gradient38" cx="40%" cy="340.3%" r="90.1%">
			<stop stop-color="#ffdc6c" stop-opacity="1" offset="1%"/>
			<stop stop-color="#ffa833" stop-opacity="1" offset="43%"/>
			<stop stop-color="#b75814" stop-opacity="1" offset="99%"/>
		</radialGradient>
		<radialGradient id="gradient39" cx="44.1%" cy="382.1%" r="88.9%">
			<stop stop-color="#ffdc6c" stop-opacity="1" offset="1%"/>
			<stop stop-color="#ffa833" stop-opacity="1" offset="43%"/>
			<stop stop-color="#b75814" stop-opacity="1" offset="99%"/>
		</radialGradient>
		<linearGradient id="gradient40" x1="-0.3%" y1="260.8%" x2="99.7%" y2="260.8%">
			<stop stop-color="#4b2917" stop-opacity="1" offset="1%"/>
			<stop stop-color="#74442e" stop-opacity="1" offset="72%"/>
			<stop stop-color="#74442e" stop-opacity="1" offset="99%"/>
		</linearGradient>
		<linearGradient id="gradient41" x1="84%" y1="1047.6%" x2="-66.4%" y2="983.3%">
			<stop stop-color="#4b2917" stop-opacity="1" offset="1%"/>
			<stop stop-color="#ed1c24" stop-opacity="1" offset="99%"/>
		</linearGradient>
		<linearGradient id="gradient42" x1="-16.3%" y1="611%" x2="53.3%" y2="715.5%">
			<stop stop-color="#4b2917" stop-opacity="1" offset="1%"/>
			<stop stop-color="#74442e" stop-opacity="1" offset="72%"/>
			<stop stop-color="#74442e" stop-opacity="1" offset="99%"/>
		</linearGradient>
		<linearGradient id="gradient43" x1="-47.2%" y1="421.9%" x2="83.5%" y2="561.7%">
			<stop stop-color="#4b2917" stop-opacity="1" offset="1%"/>
			<stop stop-color="#74442e" stop-opacity="1" offset="72%"/>
			<stop stop-color="#74442e" stop-opacity="1" offset="99%"/>
		</linearGradient>
		<linearGradient id="gradient44" x1="-196%" y1="292.7%" x2="8.3%" y2="335.8%">
			<stop stop-color="#4b2917" stop-opacity="1" offset="1%"/>
			<stop stop-color="#74442e" stop-opacity="1" offset="72%"/>
			<stop stop-color="#74442e" stop-opacity="1" offset="99%"/>
		</linearGradient>
		<linearGradient id="gradient45" x1="-104.2%" y1="280.9%" x2="83.4%" y2="389.3%">
			<stop stop-color="#4b2917" stop-opacity="1" offset="1%"/>
			<stop stop-color="#4b2917" stop-opacity="1" offset="7%"/>
			<stop stop-color="#7f4b34" stop-opacity="1" offset="99%"/>
		</linearGradient>
		<linearGradient id="gradient46" x1="100.3%" y1="260.8%" x2="0.2%" y2="260.8%">
			<stop stop-color="#4b2917" stop-opacity="1" offset="1%"/>
			<stop stop-color="#74442e" stop-opacity="1" offset="72%"/>
			<stop stop-color="#74442e" stop-opacity="1" offset="99%"/>
		</linearGradient>
		<linearGradient id="gradient47" x1="71.1%" y1="1038.4%" x2="-3.8%" y2="974.2%">
			<stop stop-color="#4b2917" stop-opacity="1" offset="1%"/>
			<stop stop-color="#ed1c24" stop-opacity="1" offset="99%"/>
		</linearGradient>
		<linearGradient id="gradient48" x1="115.6%" y1="611.1%" x2="46%" y2="715.6%">
			<stop stop-color="#4b2917" stop-opacity="1" offset="1%"/>
			<stop stop-color="#74442e" stop-opacity="1" offset="72%"/>
			<stop stop-color="#74442e" stop-opacity="1" offset="99%"/>
		</linearGradient>
		<linearGradient id="gradient49" x1="146.8%" y1="422.2%" x2="16.5%" y2="561.6%">
			<stop stop-color="#4b2917" stop-opacity="1" offset="1%"/>
			<stop stop-color="#74442e" stop-opacity="1" offset="72%"/>
			<stop stop-color="#74442e" stop-opacity="1" offset="99%"/>
		</linearGradient>
		<linearGradient id="gradient50" x1="295.7%" y1="292.8%" x2="91.4%" y2="335.9%">
			<stop stop-color="#4b2917" stop-opacity="1" offset="1%"/>
			<stop stop-color="#74442e" stop-opacity="1" offset="72%"/>
			<stop stop-color="#74442e" stop-opacity="1" offset="99%"/>
		</linearGradient>
		<linearGradient id="gradient51" x1="206.6%" y1="280.7%" x2="19%" y2="389.1%">
			<stop stop-color="#4b2917" stop-opacity="1" offset="1%"/>
			<stop stop-color="#4b2917" stop-opacity="1" offset="7%"/>
			<stop stop-color="#7f4b34" stop-opacity="1" offset="99%"/>
		</linearGradient>
		<linearGradient id="gradient52" x1="49.6%" y1="280.3%" x2="51.9%" y2="142.1%">
			<stop stop-color="#4b2917" stop-opacity="1" offset="1%"/>
			<stop stop-color="#74442e" stop-opacity="1" offset="72%"/>
			<stop stop-color="#74442e" stop-opacity="1" offset="99%"/>
		</linearGradient>
		<radialGradient id="gradient53" cx="41.2%" cy="188.9%" r="83.3%">
			<stop stop-color="#ffb8de" stop-opacity="1" offset="1%"/>
			<stop stop-color="#cf0087" stop-opacity="1" offset="99%"/>
		</radialGradient>
		<radialGradient id="gradient54" cx="58%" cy="557.3%" r="103.6%">
			<stop stop-color="#ffb8de" stop-opacity="1" offset="1%"/>
			<stop stop-color="#cf0087" stop-opacity="1" offset="99%"/>
		</radialGradient>
		<radialGradient id="gradient55" cx="77.5%" cy="344.3%" r="85.2%">
			<stop stop-color="#616264" stop-opacity="1" offset="1%"/>
			<stop stop-color="#231f20" stop-opacity="1" offset="99%"/>
		</radialGradient>
		<radialGradient id="gradient56" cx="54.5%" cy="455.2%" r="169.1%">
			<stop stop-color="#fcdedd" stop-opacity="1" offset="1%"/>
			<stop stop-color="#fbccbf" stop-opacity="1" offset="44%"/>
			<stop stop-color="#cb8d88" stop-opacity="1" offset="99%"/>
		</radialGradient>
		<linearGradient id="gradient57" x1="850%" y1="541.3%" x2="-1239.7%" y2="759%">
			<stop stop-color="#4b2917" stop-opacity="1" offset="1%"/>
			<stop stop-color="#74442e" stop-opacity="1" offset="72%"/>
			<stop stop-color="#74442e" stop-opacity="1" offset="99%"/>
		</linearGradient>
		<radialGradient id="gradient58" cx="50.6%" cy="213.6%" r="60.1%">
			<stop stop-color="#fcdedd" stop-opacity="1" offset="1%"/>
			<stop stop-color="#fbccbf" stop-opacity="1" offset="44%"/>
			<stop stop-color="#cb8d88" stop-opacity="1" offset="99%"/>
		</radialGradient>
		<linearGradient id="gradient59" x1="47.7%" y1="411.9%" x2="51.4%" y2="151.8%">
			<stop stop-color="#4b2917" stop-opacity="1" offset="1%"/>
			<stop stop-color="#74442e" stop-opacity="1" offset="72%"/>
			<stop stop-color="#74442e" stop-opacity="1" offset="99%"/>
		</linearGradient>
		<linearGradient id="gradient60" x1="195.7%" y1="351.1%" x2="36.5%" y2="460%">
			<stop stop-color="#4b2917" stop-opacity="1" offset="1%"/>
			<stop stop-color="#4b2917" stop-opacity="1" offset="7%"/>
			<stop stop-color="#7f4b34" stop-opacity="1" offset="99%"/>
		</linearGradient>
	</defs>
	<g id="Layer%201">
		<g>
			<path d="M 42.4 26.4 C 46.6 26.4 47.7 28.4 47.9 29.3 C 48 29.6 48 30.2 48 30.2 L 48 33 C 48 33 46.7 34.6 42.3 34.6 C 38 34.6 36.6 33 36.6 33 L 36.6 30.1 C 36.6 30.1 36.6 29.6 36.6 29.3 C 36.8 28.6 37.5 27.4 39.5 26.8 C 40.2 26.6 41.1 26.4 42.1 26.4 L 42.4 26.4 Z" fill="url(#gradient1)"/>
			<path d="M 36.6 29.6 C 36.6 29.6 36.6 29.6 36.6 29.5 C 36.8 28.9 37.5 27.6 39.5 27 C 39.6 27 39.8 27 39.9 26.9 C 40.1 27.3 40.3 27.7 40.6 28.4 C 38.5 28.4 37.1 29.3 36.6 29.6 ZM 47.9 29.6 C 47.9 29.6 47.9 29.6 47.9 29.5 C 47.7 28.9 47.1 27.6 45 27 C 44.9 27 44.8 27 44.6 26.9 C 44.5 27.3 44.3 27.7 44 28.4 C 46.1 28.4 47.5 29.3 47.9 29.6 Z" fill="url(#gradient2)"/>
			<path opacity="0.5" d="M 42.1 26.7 C 41.9 26.7 41.9 26.7 41.9 26.7 C 41.6 26.7 41 26.7 39.8 26.7 C 40.1 28.1 41.3 29.1 41.3 29.2 C 41.3 29.2 41.3 29.2 41.4 29.2 C 41.4 29.2 41.5 29.2 41.5 29.2 L 42 27.9 L 42.5 27.9 L 43.1 29.2 C 43.1 29.2 43.2 29.3 43.3 29.2 C 43.3 29.2 44.4 28.2 44.8 26.7 C 43.3 26.7 42.5 26.7 42.1 26.7 Z" fill="#850000"/>
			<path d="M 44.3 27.4 L 44.1 27.9 L 43.6 28.1 L 42.3 28.1 L 41.1 28.1 L 40.4 28 L 40.2 27.5 L 40.2 25.3 L 44.3 25.3 L 44.3 27.4 Z" fill="url(#gradient3)"/>
			<path d="M 42 28.1 C 42 28.1 41.5 28.5 41.4 29.4 C 41.4 29.5 41.3 29.4 41.3 29.4 C 41.3 29.4 40.3 28.6 39.8 27 C 40 26.3 40.1 26.2 40.1 26.2 C 40.1 26.2 40.2 26.1 40.2 26.2 C 40.3 26.2 40.7 27.4 42 28.1 Z" fill="url(#gradient4)"/>
			<path d="M 41.9 28.3 C 42 28.2 42 28.1 42 28.1 C 40.7 27.4 40.3 26.2 40.2 26.2 C 40.2 26.1 40.1 26.2 40.1 26.2 C 40.1 26.2 40.1 26.2 40.1 26.2 C 40.3 26.7 40.8 27.8 41.9 28.3 Z" fill="url(#gradient5)"/>
			<path d="M 42.5 28.1 C 42.5 28.1 43 28.5 43.2 29.4 C 43.2 29.5 43.3 29.4 43.3 29.4 C 43.3 29.4 44.2 28.6 44.8 27 C 44.5 26.3 44.5 26.2 44.5 26.2 C 44.5 26.2 44.4 26.1 44.3 26.2 C 44.3 26.2 43.9 27.4 42.5 28.1 Z" fill="url(#gradient6)"/>
			<path d="M 42.7 28.3 C 42.6 28.2 42.5 28.1 42.5 28.1 C 43.9 27.4 44.3 26.2 44.3 26.2 C 44.4 26.1 44.5 26.2 44.5 26.2 C 44.5 26.2 44.5 26.2 44.5 26.2 C 44.3 26.7 43.8 27.8 42.7 28.3 Z" fill="url(#gradient7)"/>
			<path d="M 42.1 31.5 L 42.1 31.5 L 42.1 31.5 ZM 42.2 28.1 L 42 28.1 L 42 31.4 L 42 31.4 L 42 31.5 C 42 31.5 42 31.5 42 31.6 C 42.1 31.6 42.1 31.6 42.2 31.6 C 42.2 31.6 42.2 31.6 42.2 31.6 C 42.4 31.6 42.6 31.6 42.6 31.6 L 42.6 31.5 C 42.6 31.5 42.4 31.5 42.2 31.5 C 42.2 31.5 42.2 31.5 42.2 31.5 L 42.2 31.5 L 42.2 31.5 L 42.2 31.5 L 42.2 28.1 L 42.2 28.1 Z" fill="url(#gradient8)"/>
			<path opacity="0.3" d="M 42.6 28.6 C 42.6 28.7 42.5 28.7 42.4 28.7 C 42.3 28.7 42.3 28.7 42.3 28.6 C 42.3 28.5 42.3 28.4 42.4 28.4 C 42.5 28.4 42.6 28.5 42.6 28.6 Z" fill="#000000"/>
			<path opacity="0.3" d="M 42.6 29.8 C 42.6 29.9 42.5 29.9 42.4 29.9 C 42.3 29.9 42.3 29.9 42.3 29.8 C 42.3 29.7 42.3 29.6 42.4 29.6 C 42.5 29.6 42.6 29.7 42.6 29.8 Z" fill="#000000"/>
			<path opacity="0.3" d="M 42.6 31 C 42.6 31.1 42.5 31.1 42.4 31.1 C 42.3 31.1 42.3 31.1 42.3 31 C 42.3 30.9 42.3 30.9 42.4 30.9 C 42.5 30.9 42.6 30.9 42.6 31 Z" fill="#000000"/>
			<path d="M 33 24.6 L 33 8.4 C 33 8.2 32.8 8 32.5 8 C 32.2 8 32 8.2 32 8.4 L 32 24.6 L 33 24.6 Z" fill="#a9a19e"/>
			<path d="M 32.8 3.5 L 32.8 -1.2 C 32.8 -1.4 32.7 -1.5 32.5 -1.5 C 32.3 -1.5 32.2 -1.4 32.2 -1.2 L 32.2 3.5 C 32.2 3.7 32.3 3.8 32.5 3.8 C 32.7 3.8 32.8 3.7 32.8 3.5 L 32.8 3.5 Z" fill="#333333"/>
			<path d="M 24.6 14.4 C 24.6 14.5 24.6 14.7 24.6 14.8 C 25.5 13.6 26.9 12.7 28.5 12.7 C 30.2 12.7 31.7 13.6 32.5 14.8 L 32.5 2 L 32.5 2 C 27.9 3.9 24.6 8.7 24.6 14.4 Z" fill="url(#gradient9)"/>
			<path d="M 24.6 14.4 C 24.6 8.7 27.9 3.9 32.5 2 C 24.9 2 18.5 7.3 17 14.4 C 17.9 13.4 19.2 12.7 20.6 12.7 C 22.3 12.7 23.7 13.6 24.6 14.8 L 24.6 14.8 C 24.6 14.7 24.6 14.5 24.6 14.4 Z" fill="url(#gradient10)"/>
			<path d="M 40.4 14.4 C 40.4 14.5 40.4 14.7 40.4 14.8 C 39.5 13.6 38.1 12.7 36.5 12.7 C 34.8 12.7 33.3 13.6 32.5 14.8 L 32.5 2 L 32.6 2 C 37.1 3.9 40.4 8.7 40.4 14.4 Z" fill="url(#gradient11)"/>
			<path d="M 40.4 14.4 C 40.4 8.7 37.1 3.9 32.6 2 C 40.2 2 46.5 7.3 48 14.4 C 47.1 13.4 45.8 12.7 44.4 12.7 C 42.7 12.7 41.3 13.6 40.4 14.8 L 40.4 14.8 C 40.4 14.7 40.4 14.5 40.4 14.4 Z" fill="url(#gradient12)"/>
			<path d="M 45.7 22.8 C 45.7 22.8 45.7 22.8 45.7 22.8 C 45.6 20.6 44.7 19.1 42.3 19.1 C 39.6 19.2 39 20.6 38.9 22.8 C 38.9 22.8 38.9 22.8 38.9 22.8 C 38.6 22.9 38.4 23.3 38.5 23.7 C 38.6 24.1 38.9 24.4 39.2 24.4 C 39.8 26 41.4 27.1 42.3 27.1 C 43.2 27.1 44.8 26 45.4 24.4 C 45.6 24.4 45.9 24.1 46 23.7 C 46.1 23.3 46 22.9 45.7 22.8 Z" fill="url(#gradient13)"/>
			<path d="M 39.6 21.7 C 39.6 21.7 40.2 21.4 40.7 20.7 C 41.2 20.8 41.7 21 42.1 21 C 42.5 21.1 43.8 20.5 44.3 20.8 C 44.7 21 45.1 21.3 45.3 22 C 45.5 21.8 45.6 19.3 42.2 19.3 C 38.9 19.3 39.6 21.7 39.6 21.7 Z" fill="url(#gradient14)"/>
			<path d="M 39.2 19.4 L 39.8 18.5 C 39.8 18.5 40.1 18 41 18 C 42.1 18.1 44.2 18.5 44.6 18.7 C 45.1 18.9 45.4 19.2 45.8 19.9 C 46.2 20.5 46.3 21.2 45.9 21.9 C 45.5 22.7 45.6 23.5 45.6 23.5 L 45.5 23.5 C 45.5 23.5 45.3 22.9 45.3 22 C 45.3 21.2 45.1 20.9 44.5 20.4 C 44 20.1 43.5 20.4 43.2 20.5 C 43.1 20.6 42.8 20.7 42.7 20.8 C 42.4 20.9 42 21 41.6 20.8 C 40.8 20.3 40.5 20.4 40.5 20.4 C 40.5 20.4 39.8 20.2 39.2 19.4 Z" fill="url(#gradient15)"/>
			<path d="M 41.9 20.9 C 41.9 20.9 42.2 21 42.4 20.4 C 42.6 19.9 42.7 19.5 42.7 19.5 C 42.7 19.5 43 18.8 43.9 19.1 C 44.8 19.3 45.8 19.9 46 20.5 C 45.1 20.1 43.7 18.7 43.1 19.7 C 42.5 20.7 42.4 20.9 42.4 20.9 C 42.4 20.9 42.2 21 41.9 20.9 Z" fill="url(#gradient16)"/>
			<path d="M 44 19.2 C 43.1 18.9 42.8 19.6 42.8 19.6 L 42.2 20.9 C 42.6 20.9 43.1 20.6 43.3 20.5 C 43.6 20.3 44 20.2 44.5 20.4 C 45.1 20.9 45.3 21.2 45.3 22 C 45.3 22.9 45.4 23.5 45.4 23.5 L 45.6 23.5 C 45.6 23.5 45.5 22.7 45.9 21.9 C 46.2 21.4 46.2 20.9 46 20.4 C 45.5 19.8 44.7 19.4 44 19.2 Z" fill="url(#gradient17)"/>
			<path d="M 42.6 19.5 C 42.6 19.4 42.6 19.3 42.7 19.2 C 42.5 19.3 42.3 19.5 42.3 19.5 C 42.3 19.5 42.4 19.2 42.6 19.1 C 42.3 19.2 42.1 19.4 42.1 19.4 C 42.1 19.4 42.1 19.1 42.4 18.9 C 42 19 41.8 19.3 41.8 19.3 C 41.8 19.3 41.8 19.2 41.9 19.1 C 41.9 19.1 42 19 42 19 C 42 19 41.9 19 41.8 19.1 C 41.7 19.1 41.6 19.2 41.6 19.2 C 41.6 19.2 41.6 19 41.8 18.8 C 41.5 18.9 41.2 19.2 41.2 19.2 C 41.2 19.2 41.3 18.9 41.5 18.7 C 41.1 18.8 40.9 18.9 40.9 18.9 C 40.9 18.9 41 18.8 41.2 18.6 C 40.8 18.6 40.5 19 40.5 19 C 40.5 19 40.5 18.7 40.9 18.4 C 40.5 18.4 40.2 18.7 40.2 18.7 C 40.2 18.7 40.3 18.4 40.6 18.3 C 40.3 18.3 40.1 18.4 40 18.6 C 39.9 18.7 39.6 19.1 39.6 19.1 L 39.3 19.5 L 40.4 20.3 C 40.4 20.3 40.8 20.2 41.6 20.6 C 41.7 20.7 41.9 20.7 42 20.7 C 42.1 20.6 42.2 20.5 42.2 20.3 C 42.3 20.2 42.5 19.6 42.6 19.5 Z" fill="url(#gradient18)"/>
			<path d="M 39.2 19.4 C 39.2 19.4 40.1 19.9 40.5 20.4 C 40.5 20.4 40.5 21.1 39.5 21.8 C 39.2 22.1 39.2 23.5 39.2 23.5 L 39 23.5 C 39 23.5 39 22.6 38.5 21.7 C 38.1 20.8 38 20.4 39.2 19.4 Z" fill="url(#gradient19)"/>
			<path d="M 38.5 21.1 C 38.5 21.1 38.3 20.8 38.4 20.5 C 38.6 20.2 39 19.9 39.2 19.8 C 39 20 38.9 20.2 38.9 20.2 C 38.9 20.2 39.2 20 39.5 19.9 C 39.2 20.2 39.1 20.4 39.1 20.4 C 39.1 20.4 39.3 20.3 39.4 20.2 C 39.5 20.1 39.6 20.1 39.6 20.1 C 39.6 20.1 39.6 20.2 39.5 20.3 C 39.4 20.5 39.3 20.6 39.3 20.6 C 39.3 20.6 39.7 20.4 39.8 20.3 C 39.8 20.5 39.6 20.8 39.6 20.8 C 39.6 20.8 39.8 20.7 40 20.5 C 39.9 20.8 39.8 20.8 39.4 21.1 C 39 21.4 39 21.9 39 21.9 C 39 21.9 39 21.7 38.9 21.6 C 38.9 21.5 38.9 21.3 38.9 21.3 C 38.9 21.3 38.9 21.4 38.9 21.5 C 38.9 21.6 38.9 21.8 38.9 21.8 C 38.9 21.8 38.8 21.6 38.7 21.5 C 38.7 21.4 38.6 21.2 38.6 21.2 L 38.7 21.6 L 38.5 21.1 Z" fill="url(#gradient20)"/>
			<path d="M 27.5 28.7 C 28.2 28.7 28.4 27.9 28.1 27.3 C 28.2 27.6 27.8 28.1 27.2 27.7 C 26.7 27.3 27.2 26.4 27.2 26.4 C 27.2 26.4 27.9 25.4 27.2 24.3 C 26.5 23.3 26.7 22.6 26.7 22.4 C 26.7 21.1 26.1 20.2 26.1 20.2 C 26.1 20.2 25.1 18.3 23.4 18.4 C 23.2 18.4 23 18.4 22.8 18.5 L 22.8 28.8 C 24.9 28.8 27.1 28.8 27.5 28.7 Z" fill="url(#gradient21)"/>
			<path d="M 22.8 18.5 L 22.7 18.5 C 22.7 18.5 21.3 18.1 20.1 19.4 C 19 20.6 18.7 21.7 19 22.8 C 19.3 23.8 18 24.1 18.4 25.8 C 18.8 27.6 17.7 27.9 17 28.1 C 17.4 28.5 18.4 28.2 18.4 28.2 C 18.4 28.2 20.3 28.8 22.8 28.8 L 22.8 18.5 Z" fill="url(#gradient22)"/>
			<path d="M 18.8 27.6 C 18.8 27.6 19.2 27.4 19 26.2 C 18.8 25 19 24.6 19.5 24.1 C 19.9 24.4 20.7 24.6 20.7 24.6 L 21.4 25.1 L 21.4 26.1 L 21.3 27.2 L 20.7 27.4 L 19.1 27.9 L 18.8 27.6 Z" fill="url(#gradient23)"/>
			<path d="M 24.2 24.4 L 25.9 23.7 L 26.3 23.5 C 26.3 23.5 27.1 24.4 26.4 25.9 C 25.9 26.9 26.1 27.5 26.1 27.5 L 24.1 27 L 23.9 25.5 L 24.2 24.4 Z" fill="url(#gradient24)"/>
			<path d="M 25.4 22.8 C 25.4 22.8 26.7 23.5 26.9 24.9 C 27 26.2 26.4 26.4 26.4 27.4 C 26.2 27.2 26 27.2 25.9 27.2 C 25.9 27 25.9 26.6 26.3 25.9 C 26.7 25 26.8 23.8 25.4 22.8 Z" fill="url(#gradient25)"/>
			<path d="M 19.3 24.2 C 19.3 24.2 18.8 24.6 18.8 25.3 C 18.8 25.9 19.2 26.9 18.7 27.6 C 18.9 27.5 19 27.4 19.2 27.3 C 19.2 27.2 19.2 26.9 19.2 26.5 C 19 25.7 18.8 24.9 19.4 24.3 C 19.3 24.2 19.3 24.2 19.3 24.2 Z" fill="url(#gradient26)"/>
			<path d="M 22.9 26.4 C 27.1 26.4 28.1 28.4 28.4 29.3 C 28.5 29.6 28.5 30.2 28.5 30.2 L 28.5 33 C 28.5 33 27.2 34.6 22.8 34.6 C 18.4 34.6 17 33 17 33 L 17 30.1 C 17 30.1 17 29.5 17.1 29.3 C 17.3 28.6 17.9 27.4 20 26.8 C 20.7 26.6 21.5 26.4 22.6 26.4 L 22.9 26.4 Z" fill="url(#gradient27)"/>
			<path d="M 17.1 29.6 C 17.1 29.6 17.1 29.6 17.1 29.5 C 17.3 28.9 17.9 27.6 20 27 C 20.1 27 20.2 27 20.4 26.9 C 20.6 27.3 20.8 27.7 21 28.4 C 18.9 28.4 17.5 29.3 17.1 29.6 ZM 28.4 29.6 C 28.4 29.6 28.4 29.6 28.4 29.5 C 28.2 28.9 27.5 27.6 25.5 27 C 25.4 27 25.2 27 25.1 26.9 C 24.9 27.3 24.7 27.7 24.5 28.4 C 26.5 28.4 28 29.3 28.4 29.6 Z" fill="url(#gradient28)"/>
			<path d="M 24.8 26.8 C 24.6 26.4 24.7 25.9 24.7 25.9 C 24.5 25.6 24.3 25.4 24 25.2 L 22.8 25.2 L 21.5 25.2 C 21.3 25.4 21 25.6 20.9 25.9 C 20.9 25.9 20.9 26.4 20.8 26.8 L 20.3 27 C 20.3 27 20.3 28.7 20.9 30.8 C 21.1 31.4 21.4 32.3 21.7 33 L 23.8 33 C 24.1 32.3 24.4 31.4 24.6 30.8 C 25.3 28.7 25.3 27 25.3 27 L 24.8 26.8 Z" fill="url(#gradient29)"/>
			<path d="M 20.8 26.1 C 20.8 26.1 20.8 26.1 20.8 26.2 C 20.6 26.5 20.2 27.1 19.6 27.5 C 19.1 27.8 19.1 28.6 19.7 29.1 C 19.9 29.4 20.5 29.6 20 30.1 C 19.9 30.3 19.9 30.4 20.3 30.7 C 20.7 30.9 21 31 20.6 31.3 C 20.3 31.7 20.2 31.9 20.7 32.3 C 21.2 32.6 21.9 32.5 21.7 33 C 21.5 33.6 21.9 33.4 22.5 33.8 C 22.6 33.8 22.8 33.9 22.8 33.9 L 22.7 32.2 C 22.7 32.2 22.7 32.1 22.6 32.1 C 21.9 31.2 20.4 28.9 20.9 26.2 C 20.9 26.2 20.9 26.2 20.9 26.2 L 20.8 26.1 Z" fill="#ffffff"/>
			<path d="M 20.2 29.9 C 20.2 29.9 20.5 29.5 20.9 28.7 C 20.8 28 20.7 27.5 20.7 27.5 L 19.3 28.7 C 19.3 28.7 19.5 29 19.8 29.2 C 20.1 29.4 20.3 29.7 20.2 29.9 Z" fill="url(#gradient30)"/>
			<path d="M 22.4 31.8 C 22.4 31.8 21.8 32.8 22.4 33.7 C 22.3 33 22.4 32.7 22.8 32.2 C 22.5 32 22.4 31.8 22.4 31.8 Z" fill="url(#gradient31)"/>
			<path d="M 20.3 30.7 L 21 28.9 L 21.4 30 C 21.4 30 20.7 31.2 20.5 31.5 C 20.8 31.1 21 30.9 20.3 30.7 Z" fill="url(#gradient32)"/>
			<path d="M 24.7 26.1 C 24.7 26.1 24.7 26.1 24.8 26.1 C 24.9 26.5 25.3 27.1 25.9 27.5 C 26.4 27.8 26.5 28.6 25.8 29.1 C 25.6 29.4 25 29.6 25.5 30.1 C 25.6 30.3 25.6 30.4 25.2 30.7 C 24.8 30.9 24.6 31 24.9 31.3 C 25.3 31.7 25.3 31.9 24.8 32.3 C 24.3 32.6 23.7 32.5 23.8 33 C 24 33.6 23.6 33.4 23.1 33.8 C 22.5 34.1 23.1 34.2 22.7 34.9 C 22.7 34.5 21.9 33.1 22.7 32.3 C 23.2 31.7 25.2 29.2 24.7 26.2 C 24.7 26.2 24.7 26.2 24.7 26.2 L 24.7 26.1 Z" fill="#ffffff"/>
			<path d="M 25.4 29.9 C 25.4 29.9 25 29.5 24.6 28.7 C 24.8 28 24.8 27.5 24.8 27.5 L 26.2 28.7 C 26.2 28.7 26.1 29 25.8 29.2 C 25.4 29.4 25.3 29.7 25.4 29.9 Z" fill="url(#gradient33)"/>
			<path d="M 25.2 30.7 L 24.6 28.9 L 24.2 30 C 24.2 30 24.8 31.2 25.1 31.5 C 24.8 31.1 24.6 30.9 25.2 30.7 Z" fill="url(#gradient34)"/>
			<path d="M 25.9 27.2 L 25.9 27.2 L 25.9 27.2 C 25.3 26.8 25 26.2 24.8 25.9 L 24.8 25.9 C 24.8 25.9 24.8 25.8 24.8 25.8 L 24.8 25.8 L 24.7 25.8 L 24.6 25.9 L 24.6 25.9 C 24.6 25.9 24.6 26 24.6 26 L 24.6 26 C 24.7 26.3 24.7 26.7 24.7 27 C 24.7 29.3 23.3 31.2 22.8 31.9 C 22.7 31.9 22.7 31.8 22.7 31.8 C 22 31 20.8 29.2 20.8 27 C 20.8 26.7 20.9 26.4 20.9 26 C 20.9 26 20.9 26 20.9 26 L 20.9 26 L 20.8 25.8 L 20.7 25.8 C 20.7 25.8 20.7 25.9 20.7 25.9 C 20.6 26.2 20.2 26.8 19.6 27.2 L 19.6 27.2 L 19.6 27.2 C 19.3 27.3 19.2 27.6 19.2 27.9 C 19.2 28.3 19.3 28.6 19.7 28.9 L 19.7 28.9 C 19.8 29 19.9 29.1 20 29.2 C 20 29.2 20.1 29.3 20.1 29.3 C 20.2 29.4 20.2 29.4 20.2 29.5 C 20.2 29.6 20.1 29.7 20 29.8 L 20 29.8 L 20 29.8 C 20 29.9 20 29.9 19.9 29.9 C 19.9 30 19.9 30 19.9 30.1 C 19.9 30.1 19.9 30.2 20 30.2 C 20.1 30.3 20.2 30.4 20.3 30.4 C 20.4 30.5 20.6 30.6 20.6 30.6 C 20.7 30.6 20.7 30.7 20.7 30.7 C 20.7 30.7 20.7 30.7 20.7 30.8 C 20.7 30.8 20.7 30.8 20.7 30.9 C 20.7 30.9 20.6 30.9 20.6 31 C 20.5 31.1 20.4 31.2 20.4 31.3 C 20.3 31.3 20.3 31.4 20.3 31.5 C 20.3 31.6 20.3 31.7 20.4 31.8 C 20.5 31.9 20.6 31.9 20.7 32 C 20.9 32.2 21.2 32.2 21.4 32.3 C 21.5 32.4 21.5 32.4 21.6 32.4 C 21.6 32.5 21.7 32.5 21.7 32.6 C 21.7 32.7 21.7 32.7 21.7 32.8 C 21.6 32.9 21.6 32.9 21.6 33 C 21.6 33.1 21.6 33.1 21.7 33.2 C 21.8 33.2 21.9 33.3 22 33.3 C 22.1 33.4 22.2 33.4 22.4 33.5 C 22.4 33.6 22.4 33.7 22.5 33.9 C 22.6 34.1 22.7 34.4 22.7 34.5 L 22.7 34.5 L 22.7 34.5 C 22.7 34.5 22.7 34.6 22.7 34.6 L 22.7 34.6 C 22.7 34.6 22.7 34.6 22.7 34.6 C 22.7 34.6 22.7 34.6 22.7 34.6 C 22.8 34.6 22.8 34.6 22.8 34.6 C 22.8 34.6 22.8 34.6 22.8 34.6 L 22.8 34.6 C 22.8 34.6 22.8 34.6 22.8 34.6 L 22.8 34.6 L 22.8 34.6 C 22.9 34.4 22.9 34.3 22.9 34.2 C 22.9 34 22.8 33.9 22.8 33.8 C 22.8 33.8 22.9 33.7 22.9 33.7 C 22.9 33.6 23 33.6 23.1 33.5 C 23.3 33.4 23.5 33.3 23.7 33.3 C 23.7 33.2 23.8 33.2 23.8 33.2 C 23.9 33.1 23.9 33.1 23.9 33 C 23.9 32.9 23.9 32.9 23.9 32.8 C 23.9 32.7 23.9 32.7 23.9 32.6 C 23.9 32.5 23.9 32.5 23.9 32.4 C 24 32.4 24.2 32.3 24.3 32.3 C 24.5 32.2 24.7 32.1 24.8 32 C 25 31.9 25.1 31.9 25.1 31.8 C 25.2 31.7 25.2 31.6 25.2 31.5 C 25.2 31.4 25.2 31.3 25.2 31.3 C 25.1 31.2 25 31.1 24.9 31 C 24.9 30.9 24.8 30.9 24.8 30.9 C 24.8 30.8 24.8 30.8 24.8 30.8 C 24.8 30.7 24.8 30.7 24.8 30.7 C 24.8 30.7 24.9 30.6 25 30.6 C 25 30.5 25.1 30.5 25.2 30.4 C 25.4 30.4 25.5 30.3 25.5 30.2 C 25.6 30.2 25.6 30.1 25.6 30.1 C 25.6 30 25.6 30 25.6 29.9 C 25.6 29.9 25.6 29.9 25.5 29.8 L 25.5 29.8 L 25.5 29.8 C 25.4 29.7 25.4 29.6 25.4 29.5 C 25.4 29.4 25.4 29.4 25.4 29.3 C 25.5 29.2 25.5 29.2 25.6 29.1 C 25.7 29 25.8 29 25.9 28.9 C 26.2 28.6 26.4 28.3 26.4 27.9 C 26.4 27.6 26.2 27.3 25.9 27.2 ZM 21.9 33.2 C 21.8 33.2 21.8 33.1 21.7 33.1 C 21.7 33.1 21.7 33.1 21.7 33 C 21.7 32.9 21.7 32.9 21.7 32.8 C 21.8 32.7 21.8 32.7 21.8 32.6 C 21.8 32.5 21.7 32.4 21.7 32.4 C 21.6 32.3 21.4 32.2 21.2 32.2 C 21.1 32.1 20.9 32.1 20.7 31.9 C 20.6 31.9 20.5 31.8 20.5 31.7 C 20.4 31.6 20.4 31.6 20.4 31.5 C 20.4 31.4 20.4 31.4 20.5 31.3 C 20.5 31.2 20.6 31.1 20.6 31.1 C 20.7 31 20.8 31 20.8 30.9 C 20.8 30.9 20.8 30.8 20.8 30.8 C 20.8 30.7 20.8 30.7 20.8 30.6 C 20.8 30.6 20.7 30.6 20.6 30.5 C 20.5 30.5 20.4 30.4 20.3 30.4 C 20.2 30.3 20.1 30.2 20.1 30.2 C 20 30.1 20 30.1 20 30.1 C 20 30 20 30 20 30 C 20 30 20.1 29.9 20.1 29.9 L 20.1 29.9 C 20.2 29.7 20.3 29.6 20.3 29.5 C 20.3 29.4 20.2 29.3 20.2 29.3 C 20.1 29.2 20 29.1 20 29 C 19.9 29 19.8 28.9 19.7 28.8 L 19.7 28.8 L 19.7 28.8 C 19.4 28.6 19.3 28.2 19.3 27.9 C 19.3 27.6 19.4 27.4 19.6 27.2 C 20.3 26.9 20.6 26.3 20.8 25.9 L 20.8 26 C 20.8 26.3 20.7 26.7 20.7 27 C 20.7 29.2 22 31.1 22.6 31.8 C 22.6 31.9 22.7 31.9 22.7 32 L 22.7 32 C 22.7 32 22.7 32 22.6 32.1 C 22.4 32.3 22.3 32.6 22.3 32.9 C 22.3 33.1 22.3 33.2 22.4 33.4 C 22.2 33.3 22 33.2 21.9 33.2 ZM 25.8 28.8 L 25.8 28.8 L 25.8 28.8 C 25.7 28.9 25.6 29 25.5 29.1 C 25.4 29.2 25.4 29.2 25.3 29.3 C 25.3 29.3 25.3 29.4 25.3 29.5 C 25.3 29.6 25.3 29.7 25.5 29.9 L 25.5 29.9 L 25.5 29.9 C 25.5 29.9 25.5 30 25.5 30 C 25.5 30 25.5 30 25.5 30.1 C 25.5 30.1 25.5 30.1 25.5 30.2 C 25.4 30.2 25.3 30.3 25.2 30.4 C 25.1 30.4 24.9 30.5 24.8 30.6 C 24.8 30.6 24.8 30.6 24.7 30.6 C 24.7 30.7 24.7 30.7 24.7 30.8 C 24.7 30.8 24.7 30.9 24.7 30.9 C 24.8 31 24.8 31 24.9 31.1 C 25 31.1 25 31.2 25.1 31.3 C 25.1 31.4 25.1 31.4 25.1 31.5 C 25.1 31.6 25.1 31.6 25.1 31.7 C 25 31.8 24.9 31.9 24.8 31.9 C 24.6 32.1 24.3 32.2 24.1 32.2 C 24 32.3 23.9 32.3 23.9 32.4 C 23.8 32.4 23.8 32.5 23.8 32.6 C 23.8 32.7 23.8 32.7 23.8 32.8 C 23.8 32.9 23.8 32.9 23.8 33 C 23.8 33.1 23.8 33.1 23.8 33.1 C 23.7 33.2 23.6 33.2 23.5 33.2 C 23.4 33.3 23.2 33.3 23 33.5 C 22.9 33.5 22.9 33.6 22.8 33.6 C 22.8 33.7 22.8 33.8 22.8 33.8 C 22.8 33.9 22.8 34.1 22.8 34.2 C 22.8 34.3 22.8 34.4 22.8 34.5 C 22.7 34.3 22.6 34.1 22.6 33.8 C 22.5 33.6 22.4 33.2 22.4 32.9 C 22.4 32.6 22.5 32.3 22.7 32.1 L 22.7 32.1 L 22.7 32.1 C 23.2 31.6 24.8 29.5 24.8 27 C 24.8 26.7 24.8 26.3 24.7 26 L 24.7 26 C 24.7 26 24.7 25.9 24.7 25.9 L 24.7 25.9 C 24.9 26.3 25.3 26.9 25.9 27.2 C 26.1 27.4 26.3 27.6 26.3 27.9 C 26.3 28.2 26.1 28.6 25.8 28.8 Z" fill="#979797"/>
			<path d="M 22.8 33.8 L 22.8 33.7 C 22.8 33.7 22.8 33.7 22.8 33.8 L 22.8 33.8 Z" fill="#979797"/>
			<path d="M 26.2 22.8 C 26.1 22.8 26.1 22.8 26.1 22.8 C 26.1 20.6 24.6 18.8 22.7 18.8 C 20.9 18.8 19.4 20.6 19.4 22.8 C 19.4 22.8 19.4 22.8 19.3 22.8 C 19.1 22.9 18.9 23.3 19 23.7 C 19.1 24.1 19.4 24.4 19.7 24.4 C 20.3 26 21.9 27.1 22.7 27.1 C 23.7 27.1 25.2 26 25.8 24.4 C 26.1 24.4 26.4 24.1 26.5 23.7 C 26.6 23.3 26.4 22.9 26.2 22.8 Z" fill="url(#gradient35)"/>
			<path d="M 21.2 20.2 C 21.2 20.2 20.5 20.7 20.1 21.6 C 19.8 22.6 20 24.1 20 24.1 L 19.7 23.9 C 19.7 23.9 19.7 23.1 19.4 22.8 C 18.8 21.7 19.6 20 21 18.9 C 21.5 18.5 22.2 18.5 22.4 18.6 C 21.8 19.6 21.2 20.2 21.2 20.2 Z" fill="url(#gradient36)"/>
			<path d="M 21.1 20.2 C 21.1 20.2 21.1 19.2 22.7 18.5 C 24.2 18.4 24.6 18.4 25.7 19.9 C 26.5 21 26.5 21.9 26.5 23.1 C 26.8 24.1 26.6 24.6 26.6 24.6 C 26.6 24.6 26.5 23.1 24 22.2 C 21.6 21.2 21.1 20.2 21.1 20.2 Z" fill="url(#gradient37)"/>
			<path d="M 23.1 18.7 C 23.1 18.7 24.4 18.6 25.3 19.9 C 25.8 20.4 26.1 21.1 26.1 21.9 C 25.9 21.4 25.6 21.1 25.6 21.1 C 25.6 21.1 25.8 21.4 25.8 21.6 C 25.6 21.4 25.2 21.2 25.2 21.2 C 25.2 21.2 25.5 21.7 25.8 22 C 25.4 21.8 24.8 21.4 24.8 21.4 C 24.8 21.4 25.1 21.8 25.3 22 C 24.3 21.6 23.9 21.4 23.5 21.2 C 23 20.9 22.2 20.4 21.9 20 C 22.2 20.1 22.7 20.4 22.7 20.4 C 22.7 20.4 22.6 20.1 22.4 19.9 C 22.8 19.9 23.2 20.2 23.2 20.2 C 23.2 20.2 22.9 19.7 22.5 19.5 C 22.9 19.5 23.3 19.6 23.6 19.7 C 23.4 19.5 22.9 19.2 22.9 19.2 C 22.9 19.2 23.4 19.2 23.9 19.5 C 23.7 19.2 23.7 19.2 23.7 19.2 C 23.7 19.2 23.9 19.2 24 19.3 C 23.7 19 23.4 18.9 23.1 18.7 Z" fill="url(#gradient38)"/>
			<path d="M 19.4 21 C 19.4 21 20.1 19.1 21.6 18.7 C 21.1 19 20.9 19.3 20.9 19.3 C 20.9 19.3 21.1 19.2 21.3 19.2 C 21 19.4 20.7 19.9 20.7 19.9 C 20.7 19.9 20.9 19.7 21.1 19.7 C 20.7 20 20 20.6 19.7 21.8 C 19.7 21.3 19.8 20.8 19.8 20.8 C 19.8 20.8 19.6 21 19.5 21.3 C 19.6 20.9 19.7 20.7 19.7 20.7 L 19.4 21 Z" fill="url(#gradient39)"/>
			<path d="M 35.5 25 C 35.5 25 36.1 24.4 36.8 24.6 C 37.5 24.9 37.4 25.5 37.2 27.3 C 37 29.1 37.2 29.5 37.2 29.5 C 37.3 29.6 36 29.2 36 26.7 C 36 25.3 35.5 25.4 35.5 25.4 L 35.5 25 Z" fill="url(#gradient40)"/>
			<path d="M 35.2 24.8 C 35.6 24.7 35.7 25.8 35.4 25.9 L 35.2 24.8 Z" fill="url(#gradient41)"/>
			<path d="M 35.6 25.1 C 35.6 25.1 36.2 24.6 36.8 24.8 C 37.4 25.1 37.2 26.3 37.2 26.3 C 37.2 26.3 37.2 24.3 35.6 25.1 Z" fill="url(#gradient42)"/>
			<path d="M 35.7 25.1 C 35.7 25.1 36.4 24.8 36.8 25.3 C 37.2 25.7 37 27.1 37 27.1 C 37 27.1 37.2 24.7 35.7 25.1 Z" fill="url(#gradient43)"/>
			<path d="M 35.8 25.3 C 35.8 25.3 36.3 25.4 36.3 26.8 C 36.2 28.1 36.6 28.8 36.6 28.8 C 36.6 28.8 36.1 28.1 36.1 26.8 C 36.1 25.5 35.8 25.3 35.8 25.3 Z" fill="url(#gradient44)"/>
			<path d="M 36 25.2 C 36 25.2 36.6 25.3 36.7 26.4 C 36.7 27.5 36.7 28.2 36.8 28.4 C 36.3 27.8 36.9 25.8 36 25.2 Z" fill="url(#gradient45)"/>
			<path d="M 29.6 25 C 29.6 25 29 24.4 28.3 24.6 C 27.6 24.9 27.6 25.5 27.8 27.3 C 28 29.1 27.8 29.5 27.8 29.5 C 27.8 29.6 29 29.2 29 26.7 C 29 25.3 29.5 25.4 29.5 25.4 L 29.6 25 Z" fill="url(#gradient46)"/>
			<path d="M 29.8 24.8 C 29.4 24.7 29.3 25.8 29.6 25.9 L 29.8 24.8 Z" fill="url(#gradient47)"/>
			<path d="M 29.4 25.1 C 29.4 25.1 28.9 24.6 28.3 24.8 C 27.7 25.1 27.9 26.3 27.9 26.3 C 27.9 26.3 27.8 24.3 29.4 25.1 Z" fill="url(#gradient48)"/>
			<path d="M 29.3 25.1 C 29.3 25.1 28.7 24.8 28.3 25.3 C 27.8 25.7 28.1 27.1 28.1 27.1 C 28.1 27.1 27.8 24.7 29.3 25.1 Z" fill="url(#gradient49)"/>
			<path d="M 29.2 25.3 C 29.2 25.3 28.7 25.4 28.8 26.8 C 28.8 28.1 28.4 28.8 28.4 28.8 C 28.4 28.8 28.9 28.1 28.9 26.8 C 28.9 25.5 29.2 25.3 29.2 25.3 Z" fill="url(#gradient50)"/>
			<path d="M 29 25.2 C 29 25.2 28.4 25.3 28.4 26.4 C 28.3 27.5 28.3 28.2 28.2 28.4 C 28.7 27.8 28.1 25.8 29 25.2 Z" fill="url(#gradient51)"/>
			<path d="M 30.5 28.9 L 34.6 28.9 C 35.6 28.1 35.5 26.5 35.5 26.1 C 35.5 25.3 35.2 24.5 35 24.3 C 34.4 23.2 33.1 23.1 32.8 23 C 32.2 23 31.6 23.1 31.1 23.4 C 30.6 23.6 29.9 24.3 29.7 25.2 C 29.6 25.6 29.5 26 29.5 26.4 C 29.5 27.6 29.9 28.3 30.5 28.9 Z" fill="url(#gradient52)"/>
			<path d="M 32.6 30.2 C 35.9 30.2 36.7 31.7 36.9 32.4 C 37 32.6 37 33.1 37 33.1 L 37 35.3 C 37 35.3 36 36.5 32.5 36.5 C 29.1 36.5 28 35.3 28 35.3 L 28 33 C 28 33 28 32.6 28.1 32.4 C 28.2 31.8 28.7 30.9 30.3 30.4 C 30.9 30.3 31.5 30.2 32.4 30.2 L 32.6 30.2 Z" fill="url(#gradient53)"/>
			<path d="M 32.5 31.3 C 34.2 31.3 35.7 31.7 36.9 32.4 C 36.7 31.6 35.9 30.2 32.6 30.2 L 32.4 30.2 C 31.5 30.2 30.9 30.3 30.3 30.4 C 28.7 30.9 28.2 31.8 28.1 32.4 C 28.1 32.4 28.1 32.4 28.1 32.4 C 29.3 31.7 30.8 31.3 32.5 31.3 Z" fill="url(#gradient54)"/>
			<path d="M 32.6 33.1 L 32.5 33 C 31.3 32.3 30.4 31.4 30.4 30.9 C 30.4 30.4 31.1 30 32.6 30 C 34.1 30 34.7 30.4 34.7 30.9 C 34.7 31.4 33.8 32.3 32.6 33 L 32.6 33.1 Z" fill="url(#gradient55)"/>
			<path d="M 34.3 30.6 C 34 30.2 34 29.5 34 29.5 C 33.9 29.3 33.8 29.1 33.5 29 L 32.6 29 L 31.6 29 C 31.4 29.1 31.2 29.3 31.1 29.5 C 31.1 29.5 31.1 30.2 30.8 30.6 C 30.5 30.9 31.6 32.1 32.6 32.6 C 33.6 32.1 34.7 30.9 34.3 30.6 Z" fill="url(#gradient56)"/>
			<path d="M 35.2 26.7 C 35.2 26.7 35.3 26 35.1 24.9 C 35.4 25.5 35.3 26.8 35.3 26.8 L 35.2 26.7 Z" fill="url(#gradient57)"/>
			<path d="M 35.2 26.7 C 35.2 26.7 35.2 26.7 35.2 26.7 C 35.1 24.9 34 23.5 32.5 23.5 C 31.1 23.5 29.9 24.9 29.9 26.7 C 29.8 26.7 29.8 26.7 29.8 26.7 C 29.6 26.7 29.5 27.1 29.6 27.4 C 29.6 27.7 29.9 28 30.1 27.9 C 30.6 29.2 31.8 30.1 32.5 30.1 C 33.3 30.1 34.5 29.2 35 27.9 C 35.2 27.9 35.4 27.7 35.5 27.4 C 35.5 27.1 35.4 26.7 35.2 26.7 Z" fill="url(#gradient58)"/>
			<path d="M 34.3 23.8 C 33.7 23.1 32.5 23.1 32 23.2 C 31.6 23.3 31.1 23.5 30.7 23.9 C 30.4 24.2 30 24.7 29.9 25.4 C 29.7 26.1 29.7 26.8 29.8 27 C 30 27.7 30.1 27.8 30.1 27.8 C 30.1 27.8 30 27.4 30.1 26.6 C 30.7 26.6 32.5 26.4 33.8 25.2 C 33.5 25.6 33 25.9 32.4 26.4 C 33.7 25.8 34.3 25.1 34.4 24.8 C 34.4 24.8 34.4 24.8 34.4 24.8 C 34.6 25.1 34.8 25.5 34.9 26.2 C 35 27.2 34.8 27.8 34.8 27.8 C 34.8 27.8 35 27.7 35.2 27 C 35.3 26.4 35.2 24.7 34.3 23.8 Z" fill="url(#gradient59)"/>
			<path d="M 33.8 23.7 C 33.6 23.7 33.4 23.8 33.2 24 C 33.5 23.9 33.7 23.9 33.9 23.9 C 33.8 24.1 33.6 24.2 33.4 24.3 C 33.6 24.3 33.8 24.2 34 24.2 C 33.8 24.4 33.7 24.5 33.4 24.7 C 33.5 24.7 33.7 24.6 33.8 24.6 C 33.3 25.2 31.2 26 30.4 26 C 30.6 25.7 30.8 25.5 31.2 25.2 C 30.8 25.3 30.6 25.4 30.4 25.5 C 30.6 25.1 30.9 24.8 31.4 24.4 C 31.1 24.4 30.6 24.7 30.4 24.9 C 30.5 24.7 30.7 24.5 30.9 24.3 C 30.8 24.3 30.6 24.4 30.4 24.6 C 31.2 23.4 33 23.2 33.8 23.7 Z" fill="url(#gradient60)"/>
		</g>
	</g>
</svg>