<?xml version="1.0" standalone="no"?>

<svg viewBox="0 0 65 38" style="background-color:#ffffff00" version="1.1" xmlns="http://www.w3.org/2000/svg" xmlns:xlink="http://www.w3.org/1999/xlink" xml:space="preserve" x="0px" y="0px" width="100%" height="100%">
	<defs>
		<radialGradient id="gradient1" cx="50%" cy="-4225.6%" r="50.9%">
			<stop stop-color="#cfcfcf" stop-opacity="1" offset="1%"/>
			<stop stop-color="#ffffff" stop-opacity="1" offset="99%"/>
		</radialGradient>
		<radialGradient id="gradient2" cx="50%" cy="-10893.9%" r="46.4%">
			<stop stop-color="#dfdfdf" stop-opacity="1" offset="1%"/>
			<stop stop-color="#ffffff" stop-opacity="1" offset="99%"/>
		</radialGradient>
		<linearGradient id="gradient3" x1="5%" y1="-637.2%" x2="98.4%" y2="-624.3%">
			<stop stop-color="#bbbdbf" stop-opacity="1" offset="1%"/>
			<stop stop-color="#e6e7e8" stop-opacity="1" offset="35%"/>
			<stop stop-color="#e6e7e8" stop-opacity="1" offset="65%"/>
			<stop stop-color="#bbbdbf" stop-opacity="1" offset="99%"/>
		</linearGradient>
		<radialGradient id="gradient4" cx="49.1%" cy="-721.4%" r="66%">
			<stop stop-color="#dbdcdd" stop-opacity="1" offset="1%"/>
			<stop stop-color="#94979a" stop-opacity="1" offset="99%"/>
		</radialGradient>
		<radialGradient id="gradient5" cx="49.9%" cy="-858.2%" r="41.6%">
			<stop stop-color="#dbdcdd" stop-opacity="1" offset="1%"/>
			<stop stop-color="#333333" stop-opacity="1" offset="99%"/>
		</radialGradient>
		<radialGradient id="gradient6" cx="50%" cy="-854.2%" r="44.1%">
			<stop stop-color="#dbdcdd" stop-opacity="1" offset="1%"/>
			<stop stop-color="#333333" stop-opacity="1" offset="99%"/>
		</radialGradient>
		<linearGradient id="gradient7" x1="6.5%" y1="-894.2%" x2="94.3%" y2="-845.5%">
			<stop stop-color="#f1f1f2" stop-opacity="1" offset="1%"/>
			<stop stop-color="#f1f1f2" stop-opacity="1" offset="93%"/>
		</linearGradient>
		<linearGradient id="gradient8" x1="7.5%" y1="-1122.2%" x2="100.2%" y2="-1113.3%">
			<stop stop-color="#f1f1f2" stop-opacity="1" offset="1%"/>
			<stop stop-color="#9b9fa1" stop-opacity="1" offset="2%"/>
			<stop stop-color="#f1f1f2" stop-opacity="1" offset="28%"/>
		</linearGradient>
		<linearGradient id="gradient9" x1="91.3%" y1="-1112.4%" x2="0.2%" y2="-1121.3%">
			<stop stop-color="#f1f1f2" stop-opacity="1" offset="1%"/>
			<stop stop-color="#9b9fa1" stop-opacity="1" offset="2%"/>
			<stop stop-color="#f1f1f2" stop-opacity="1" offset="28%"/>
		</linearGradient>
		<linearGradient id="gradient10" x1="49.7%" y1="-1568.6%" x2="54.7%" y2="-1654.8%">
			<stop stop-color="#f1f1f2" stop-opacity="1" offset="1%"/>
			<stop stop-color="#9b9fa1" stop-opacity="1" offset="2%"/>
			<stop stop-color="#f1f1f2" stop-opacity="1" offset="28%"/>
		</linearGradient>
		<linearGradient id="gradient11" x1="24.9%" y1="-1701.2%" x2="76.1%" y2="-1624.4%">
			<stop stop-color="#b3b3b3" stop-opacity="1" offset="1%"/>
			<stop stop-color="#000000" stop-opacity="1" offset="12%"/>
			<stop stop-color="#000000" stop-opacity="1" offset="34%"/>
			<stop stop-color="#676767" stop-opacity="1" offset="56%"/>
			<stop stop-color="#000000" stop-opacity="1" offset="60%"/>
			<stop stop-color="#808080" stop-opacity="1" offset="75%"/>
			<stop stop-color="#000000" stop-opacity="1" offset="88%"/>
			<stop stop-color="#666666" stop-opacity="1" offset="99%"/>
		</linearGradient>
		<radialGradient id="gradient12" cx="50%" cy="-3072.1%" r="48.1%">
			<stop stop-color="#b2b2b5" stop-opacity="1" offset="1%"/>
			<stop stop-color="#ffffff" stop-opacity="1" offset="99%"/>
		</radialGradient>
		<radialGradient id="gradient13" cx="50%" cy="-7483.4%" r="46.4%">
			<stop stop-color="#c5c5c5" stop-opacity="1" offset="1%"/>
			<stop stop-color="#ffffff" stop-opacity="1" offset="99%"/>
		</radialGradient>
		<linearGradient id="gradient14" x1="45.5%" y1="-11851.2%" x2="53.9%" y2="-11957.5%">
			<stop stop-color="#0090ff" stop-opacity="1" offset="1%"/>
			<stop stop-color="#29abe2" stop-opacity="1" offset="22%"/>
			<stop stop-color="#0694f1" stop-opacity="1" offset="53%"/>
			<stop stop-color="#0034b5" stop-opacity="1" offset="82%"/>
		</linearGradient>
		<linearGradient id="gradient15" x1="44.9%" y1="-10495.3%" x2="54.2%" y2="-10598.8%">
			<stop stop-color="#0090ff" stop-opacity="1" offset="1%"/>
			<stop stop-color="#29abe2" stop-opacity="1" offset="22%"/>
			<stop stop-color="#0694f1" stop-opacity="1" offset="53%"/>
			<stop stop-color="#0034b5" stop-opacity="1" offset="82%"/>
		</linearGradient>
		<linearGradient id="gradient16" x1="44.3%" y1="-9784.3%" x2="54.6%" y2="-9885.8%">
			<stop stop-color="#0090ff" stop-opacity="1" offset="1%"/>
			<stop stop-color="#29abe2" stop-opacity="1" offset="22%"/>
			<stop stop-color="#0694f1" stop-opacity="1" offset="53%"/>
			<stop stop-color="#0034b5" stop-opacity="1" offset="82%"/>
		</linearGradient>
		<linearGradient id="gradient17" x1="44.6%" y1="-6120%" x2="55.3%" y2="-6212%">
			<stop stop-color="#0034b5" stop-opacity="1" offset="15%"/>
			<stop stop-color="#0694f1" stop-opacity="1" offset="82%"/>
			<stop stop-color="#29abe2" stop-opacity="1" offset="99%"/>
		</linearGradient>
		<linearGradient id="gradient18" x1="46.3%" y1="-7159%" x2="53.7%" y2="-7250.9%">
			<stop stop-color="#0034b5" stop-opacity="1" offset="15%"/>
			<stop stop-color="#0694f1" stop-opacity="1" offset="82%"/>
			<stop stop-color="#29abe2" stop-opacity="1" offset="99%"/>
		</linearGradient>
		<linearGradient id="gradient19" x1="47.3%" y1="-8401.3%" x2="52.8%" y2="-8492.3%">
			<stop stop-color="#0034b5" stop-opacity="1" offset="15%"/>
			<stop stop-color="#0694f1" stop-opacity="1" offset="82%"/>
			<stop stop-color="#29abe2" stop-opacity="1" offset="99%"/>
		</linearGradient>
		<linearGradient id="gradient20" x1="48.4%" y1="-10928.5%" x2="51.6%" y2="-11017.2%">
			<stop stop-color="#0034b5" stop-opacity="1" offset="15%"/>
			<stop stop-color="#0694f1" stop-opacity="1" offset="82%"/>
			<stop stop-color="#29abe2" stop-opacity="1" offset="99%"/>
		</linearGradient>
		<linearGradient id="gradient21" x1="43.7%" y1="-9433.5%" x2="54.7%" y2="-9533.9%">
			<stop stop-color="#0090ff" stop-opacity="1" offset="1%"/>
			<stop stop-color="#29abe2" stop-opacity="1" offset="22%"/>
			<stop stop-color="#0694f1" stop-opacity="1" offset="53%"/>
			<stop stop-color="#0034b5" stop-opacity="1" offset="82%"/>
		</linearGradient>
		<linearGradient id="gradient22" x1="41%" y1="-5666.3%" x2="56.1%" y2="-5763%">
			<stop stop-color="#0090ff" stop-opacity="1" offset="1%"/>
			<stop stop-color="#29abe2" stop-opacity="1" offset="22%"/>
			<stop stop-color="#0694f1" stop-opacity="1" offset="53%"/>
			<stop stop-color="#0034b5" stop-opacity="1" offset="82%"/>
		</linearGradient>
		<linearGradient id="gradient23" x1="106.3%" y1="-776%" x2="-29.5%" y2="-857.7%">
			<stop stop-color="#0046cd" stop-opacity="1" offset="1%"/>
			<stop stop-color="#71c2f7" stop-opacity="1" offset="21%"/>
			<stop stop-color="#036bd7" stop-opacity="1" offset="50%"/>
			<stop stop-color="#0046cd" stop-opacity="1" offset="64%"/>
			<stop stop-color="#002399" stop-opacity="1" offset="88%"/>
		</linearGradient>
		<linearGradient id="gradient24" x1="124.3%" y1="-459.4%" x2="-9.1%" y2="-542.3%">
			<stop stop-color="#0034b5" stop-opacity="1" offset="1%"/>
			<stop stop-color="#0694f1" stop-opacity="1" offset="31%"/>
			<stop stop-color="#0694f1" stop-opacity="1" offset="47%"/>
			<stop stop-color="#0694f1" stop-opacity="1" offset="70%"/>
			<stop stop-color="#0034b5" stop-opacity="1" offset="99%"/>
		</linearGradient>
		<linearGradient id="gradient25" x1="55.3%" y1="-892.5%" x2="40.3%" y2="-993.5%">
			<stop stop-color="#0694f1" stop-opacity="1" offset="1%"/>
			<stop stop-color="#f2f2f2" stop-opacity="1" offset="64%"/>
			<stop stop-color="#17287c" stop-opacity="1" offset="99%"/>
		</linearGradient>
		<linearGradient id="gradient26" x1="148%" y1="-1494.4%" x2="-17%" y2="-1582.9%">
			<stop stop-color="#000000" stop-opacity="1" offset="1%"/>
			<stop stop-color="#0694f1" stop-opacity="1" offset="99%"/>
		</linearGradient>
		<linearGradient id="gradient27" x1="74.7%" y1="-1518.9%" x2="13.2%" y2="-1627%">
			<stop stop-color="#0034b5" stop-opacity="1" offset="1%"/>
			<stop stop-color="#ffffff" stop-opacity="1" offset="99%"/>
		</linearGradient>
		<linearGradient id="gradient28" x1="1.5%" y1="-2862.2%" x2="98.5%" y2="-2867.2%">
			<stop stop-color="#00cfff" stop-opacity="1" offset="1%"/>
			<stop stop-color="#0049a2" stop-opacity="1" offset="99%"/>
		</linearGradient>
		<linearGradient id="gradient29" x1="2.3%" y1="-3811%" x2="97.7%" y2="-3818.6%">
			<stop stop-color="#0049a2" stop-opacity="1" offset="1%"/>
			<stop stop-color="#00cfff" stop-opacity="1" offset="99%"/>
		</linearGradient>
		<linearGradient id="gradient30" x1="91.5%" y1="-1976.3%" x2="8.5%" y2="-2062.7%">
			<stop stop-color="#0694f1" stop-opacity="1" offset="1%"/>
			<stop stop-color="#0090ff" stop-opacity="1" offset="47%"/>
			<stop stop-color="#0694f1" stop-opacity="1" offset="99%"/>
		</linearGradient>
		<linearGradient id="gradient31" x1="55.3%" y1="-1551%" x2="35.3%" y2="-1648.7%">
			<stop stop-color="#093b9b" stop-opacity="1" offset="1%"/>
			<stop stop-color="#00a5ed" stop-opacity="1" offset="73%"/>
		</linearGradient>
		<linearGradient id="gradient32" x1="0%" y1="-1582%" x2="98.6%" y2="-1586.6%">
			<stop stop-color="#0c3896" stop-opacity="1" offset="1%"/>
			<stop stop-color="#0694f1" stop-opacity="1" offset="99%"/>
		</linearGradient>
		<linearGradient id="gradient33" x1="1.7%" y1="-2414.1%" x2="98.3%" y2="-2417.3%">
			<stop stop-color="#00cfff" stop-opacity="1" offset="1%"/>
			<stop stop-color="#0049a2" stop-opacity="1" offset="99%"/>
		</linearGradient>
		<linearGradient id="gradient34" x1="7.5%" y1="-4277.3%" x2="103.8%" y2="-4280.4%">
			<stop stop-color="#0049a2" stop-opacity="1" offset="1%"/>
			<stop stop-color="#00cfff" stop-opacity="1" offset="99%"/>
		</linearGradient>
		<linearGradient id="gradient35" x1="1.3%" y1="-2501%" x2="98.6%" y2="-2505.8%">
			<stop stop-color="#0034b5" stop-opacity="1" offset="1%"/>
			<stop stop-color="#0694f1" stop-opacity="1" offset="99%"/>
		</linearGradient>
		<linearGradient id="gradient36" x1="1.4%" y1="-2156.1%" x2="98.6%" y2="-2159.6%">
			<stop stop-color="#0034b5" stop-opacity="1" offset="1%"/>
			<stop stop-color="#0694f1" stop-opacity="1" offset="99%"/>
		</linearGradient>
		<linearGradient id="gradient37" x1="87.9%" y1="-1717.8%" x2="12.1%" y2="-1807%">
			<stop stop-color="#0694f1" stop-opacity="1" offset="1%"/>
			<stop stop-color="#0090ff" stop-opacity="1" offset="47%"/>
			<stop stop-color="#0694f1" stop-opacity="1" offset="99%"/>
		</linearGradient>
		<linearGradient id="gradient38" x1="14.8%" y1="-1727.6%" x2="69.5%" y2="-1634.9%">
			<stop stop-color="#8ccdff" stop-opacity="1" offset="1%"/>
			<stop stop-color="#0090ff" stop-opacity="1" offset="25%"/>
			<stop stop-color="#7dc7f8" stop-opacity="1" offset="47%"/>
			<stop stop-color="#0090ff" stop-opacity="1" offset="58%"/>
			<stop stop-color="#191c6d" stop-opacity="1" offset="99%"/>
		</linearGradient>
		<linearGradient id="gradient39" x1="64.8%" y1="-1806%" x2="-2.8%" y2="-1891.9%">
			<stop stop-color="#1048a4" stop-opacity="1" offset="18%"/>
			<stop stop-color="#0090ff" stop-opacity="1" offset="41%"/>
			<stop stop-color="#7dc7f8" stop-opacity="1" offset="52%"/>
			<stop stop-color="#0090ff" stop-opacity="1" offset="74%"/>
			<stop stop-color="#8ccdff" stop-opacity="1" offset="98%"/>
		</linearGradient>
		<linearGradient id="gradient40" x1="65.1%" y1="-1973.2%" x2="30.5%" y2="-2079.5%">
			<stop stop-color="#0694f1" stop-opacity="1" offset="1%"/>
			<stop stop-color="#f2f2f2" stop-opacity="1" offset="53%"/>
			<stop stop-color="#f2f2f2" stop-opacity="1" offset="64%"/>
			<stop stop-color="#0024e3" stop-opacity="1" offset="99%"/>
		</linearGradient>
		<linearGradient id="gradient41" x1="87.8%" y1="-1719.1%" x2="10.5%" y2="-1806.4%">
			<stop stop-color="#0694f1" stop-opacity="1" offset="1%"/>
			<stop stop-color="#f2f2f2" stop-opacity="1" offset="53%"/>
			<stop stop-color="#f2f2f2" stop-opacity="1" offset="64%"/>
			<stop stop-color="#0024e3" stop-opacity="1" offset="99%"/>
		</linearGradient>
		<linearGradient id="gradient42" x1="5.3%" y1="-1924.8%" x2="104.6%" y2="-1834.6%">
			<stop stop-color="#0694f1" stop-opacity="1" offset="1%"/>
			<stop stop-color="#f2f2f2" stop-opacity="1" offset="53%"/>
			<stop stop-color="#f2f2f2" stop-opacity="1" offset="64%"/>
			<stop stop-color="#0024e3" stop-opacity="1" offset="99%"/>
		</linearGradient>
		<linearGradient id="gradient43" x1="97.1%" y1="-2011.4%" x2="-13.2%" y2="-2092.2%">
			<stop stop-color="#0694f1" stop-opacity="1" offset="1%"/>
			<stop stop-color="#f2f2f2" stop-opacity="1" offset="53%"/>
			<stop stop-color="#f2f2f2" stop-opacity="1" offset="64%"/>
			<stop stop-color="#0024e3" stop-opacity="1" offset="99%"/>
		</linearGradient>
	</defs>
	<g id="Layer%201">
		<g>
			<path d="M 52 -2.5 L 14 -2.5 L 14 35.5 L 52 35.5 L 52 -2.5 Z" fill="none"/>
			<g>
				<path d="M 50.2 27 C 50.2 26.2 48.7 25.4 42.8 25.1 C 36.9 24.8 32 25.3 32 26.2 C 31.9 27 36.7 28 42.6 28.2 C 48.6 28.5 50.2 27.9 50.2 27 Z" fill="url(#gradient1)"/>
				<path d="M 49.5 27 C 49.5 26.7 47.5 26.3 44.9 26.2 C 42.3 26.1 40.2 26.3 40.2 26.6 C 40.1 26.9 42.2 27.3 44.8 27.4 C 47.4 27.5 49.5 27.4 49.5 27 Z" fill="url(#gradient2)"/>
			</g>
			<path d="M 49.7 12.6 L 41.7 4.7 C 41.2 4.2 40.1 4 39.4 4.4 L 29.7 10 L 28.1 20.8 C 27.9 21.7 28.5 22.4 29.3 22.5 L 46.6 24.9 C 47.4 25 48.2 24.4 48.3 23.6 L 49.7 12.6 Z" fill="url(#gradient3)"/>
			<path d="M 40.1 5.7 L 40.1 5.7 C 40.1 5.7 32.2 10.3 31 11 C 30.8 12.3 29.5 21 29.5 21 L 46.8 23.4 C 46.8 23.4 48 14.5 48.1 13.1 C 47.2 12.2 40.7 5.8 40.7 5.8 C 40.6 5.7 40.2 5.7 40.1 5.7 Z" fill="url(#gradient4)"/>
			<path d="M 46.6 24.9 L 29.3 22.6 C 28.5 22.5 27.9 21.7 28 20.8 L 29.7 10 C 29.7 10 29.7 10 29.7 10 L 39.4 4.4 C 39.7 4.2 40.2 4.1 40.6 4.2 C 41.1 4.2 41.5 4.4 41.8 4.7 L 49.8 12.5 C 49.8 12.6 49.8 12.6 49.8 12.6 L 48.3 23.6 C 48.2 24.4 47.4 25.1 46.6 24.9 ZM 29.7 10.1 L 28.1 20.8 C 28 21.7 28.5 22.4 29.3 22.5 L 46.6 24.9 C 47.4 25 48.2 24.4 48.3 23.6 L 49.7 12.6 L 41.7 4.7 C 41.4 4.5 41.1 4.3 40.6 4.2 C 40.2 4.2 39.8 4.3 39.4 4.5 L 29.7 10.1 Z" fill="#807f7f"/>
			<path d="M 29.6 14.6 C 29.4 15.2 29.8 15.9 30.4 16.1 L 45.4 20.3 C 46.1 20.5 46.7 20.1 46.9 19.4 L 49.4 10.5 C 49.5 9.8 49.2 9.1 48.5 8.9 L 33.7 4.9 C 33 4.8 32.4 5.2 32.2 5.8 L 29.6 14.6 Z" fill="url(#gradient5)"/>
			<path d="M 45.6 20.4 L 45.6 20.4 C 45.5 20.4 45.4 20.4 45.4 20.4 L 30.4 16.1 C 29.8 16 29.4 15.3 29.6 14.6 L 32.1 5.8 C 32.3 5.2 32.9 4.8 33.5 4.9 C 33.6 4.9 33.6 4.9 33.7 4.9 L 48.5 8.9 C 49.2 9.1 49.6 9.8 49.4 10.5 L 47 19.4 C 46.8 20.1 46.2 20.5 45.6 20.4 ZM 33.5 4.9 C 32.9 4.9 32.4 5.2 32.2 5.8 L 29.7 14.6 C 29.5 15.2 29.8 15.9 30.5 16.1 L 45.4 20.3 C 45.5 20.3 45.5 20.3 45.6 20.3 C 46.2 20.4 46.7 20 46.9 19.4 L 49.3 10.4 C 49.5 9.8 49.1 9.1 48.5 9 L 33.7 5 C 33.6 5 33.6 4.9 33.5 4.9 Z" fill="url(#gradient6)"/>
			<path d="M 45.6 20.3 C 45.6 20.3 45.5 20.2 45.5 20.2 L 30.5 16 C 30.2 15.9 30 15.7 29.8 15.5 C 29.7 15.2 29.6 14.9 29.7 14.6 L 32.3 5.8 C 32.4 5.3 32.9 5 33.4 5 C 33.5 5 33.6 5 33.6 5 L 48.5 9 C 49.1 9.2 49.5 9.8 49.3 10.4 L 46.9 19.4 C 46.7 20 46.2 20.3 45.7 20.3 C 45.7 20.3 45.6 20.3 45.6 20.3 Z" fill="url(#gradient7)"/>
			<path d="M 29.7 10 L 28.1 20.8 C 28 21.3 28.1 21.7 28.4 22 L 36.8 17.2 L 29.7 10 Z" fill="url(#gradient8)"/>
			<path d="M 48.3 23.6 L 49.7 12.6 L 40.8 17.7 L 47.6 24.7 C 48 24.4 48.2 24 48.3 23.6 Z" fill="url(#gradient9)"/>
			<path d="M 47.8 24.5 L 41.2 17.5 L 40.5 17.9 L 47.4 24.8 C 47.6 24.7 47.8 24.6 47.8 24.5 Z" fill="#ffffff"/>
			<path d="M 28.2 21.8 L 36.4 16.9 L 36.9 17.4 L 28.5 22.2 C 28.4 22.1 28.3 21.9 28.2 21.8 Z" fill="#ffffff"/>
			<path d="M 40.8 17.7 L 40 17 C 39.5 16.4 38.4 16.3 37.7 16.7 L 36.8 17.2 L 28.4 22 C 28.6 22.3 28.9 22.5 29.3 22.5 L 46.6 24.9 C 47 25 47.3 24.9 47.6 24.7 L 40.8 17.7 Z" fill="url(#gradient10)"/>
			<path d="M 40.8 17.8 L 40.8 17.7 L 49.7 12.5 L 49.7 12.6 L 40.8 17.8 Z" fill="#807f7f"/>
			<path d="M 36.7 17.2 L 29.7 10.1 L 29.7 10 L 36.8 17.2 L 36.7 17.2 Z" fill="#807f7f"/>
			<path d="M 46.6 24.9 L 29.3 22.6 C 28.5 22.5 27.9 21.7 28 20.8 L 29.7 10 L 29.7 10 L 28.1 20.8 C 27.9 21.7 28.5 22.4 29.3 22.5 L 46.6 24.9 C 47.4 25 48.2 24.4 48.3 23.6 L 49.7 12.6 L 49.7 12.6 L 48.3 23.6 C 48.2 24.4 47.4 25 46.6 24.9 Z" fill="#606060"/>
			<path d="M 36.8 17.2 L 29.7 10 L 29.7 10 L 36.8 17.2 C 36.9 17.1 38 16.3 38.8 16.4 C 39.6 16.5 40.2 17.2 40.6 17.5 C 40.7 17.6 40.7 17.6 40.8 17.7 C 41.4 17.3 49.6 12.6 49.7 12.6 L 49.7 12.6 C 49.6 12.6 41.4 17.4 40.8 17.7 L 40.8 17.7 L 40.8 17.7 C 40.7 17.7 40.7 17.6 40.6 17.6 C 40.2 17.2 39.6 16.6 38.8 16.5 C 37.9 16.4 36.8 17.2 36.8 17.2 L 36.8 17.2 Z" fill="#494949"/>
			<path d="M 36.8 17.2 L 29.7 10 L 29.7 10 L 36.8 17.2 C 36.9 17.1 38 16.3 38.8 16.4 C 39.6 16.5 40.2 17.1 40.6 17.5 C 40.7 17.6 40.7 17.6 40.8 17.7 C 41.4 17.3 49.6 12.6 49.7 12.5 L 49.7 12.6 C 49.6 12.6 41.4 17.4 40.8 17.7 L 40.8 17.7 L 40.8 17.7 C 40.7 17.7 40.7 17.6 40.6 17.6 C 40.2 17.2 39.6 16.6 38.8 16.5 C 37.9 16.3 36.8 17.2 36.8 17.2 L 36.8 17.2 Z" fill="#4d4d4d"/>
			<path d="M 36.8 17.2 L 29.7 10 L 29.7 10 L 36.8 17.2 C 36.9 17.1 38 16.3 38.8 16.4 C 39.7 16.5 40.2 17.1 40.6 17.5 C 40.7 17.6 40.7 17.6 40.8 17.7 C 41.5 17.3 49.6 12.6 49.7 12.5 L 49.7 12.6 C 49.6 12.6 41.4 17.4 40.8 17.7 L 40.8 17.7 L 40.8 17.7 C 40.7 17.6 40.7 17.6 40.6 17.5 C 40.2 17.1 39.6 16.6 38.8 16.5 C 37.9 16.3 36.8 17.2 36.8 17.2 L 36.8 17.2 Z" fill="#505050"/>
			<path d="M 36.8 17.2 L 29.7 10 L 29.7 10 L 36.8 17.2 C 36.9 17.1 38 16.3 38.8 16.4 C 39.7 16.5 40.3 17.1 40.6 17.5 C 40.7 17.6 40.7 17.6 40.8 17.6 C 41.5 17.3 49.6 12.6 49.7 12.5 L 49.7 12.6 C 49.6 12.6 41.4 17.4 40.8 17.7 L 40.8 17.7 L 40.8 17.7 C 40.7 17.6 40.7 17.6 40.6 17.5 C 40.2 17.1 39.6 16.6 38.8 16.4 C 37.9 16.3 36.8 17.2 36.8 17.2 L 36.8 17.2 Z" fill="#545454"/>
			<path d="M 36.8 17.2 L 29.7 10 L 29.8 10 L 36.8 17.1 C 36.9 17.1 38 16.3 38.8 16.4 C 39.7 16.5 40.3 17.1 40.7 17.5 C 40.7 17.5 40.7 17.6 40.8 17.6 C 41.5 17.3 49.6 12.6 49.7 12.5 L 49.7 12.5 C 49.6 12.6 41.4 17.3 40.8 17.7 L 40.8 17.7 L 40.8 17.7 C 40.7 17.6 40.7 17.6 40.6 17.5 C 40.2 17.1 39.6 16.5 38.8 16.4 C 37.9 16.3 36.8 17.2 36.8 17.2 L 36.8 17.2 Z" fill="#575757"/>
			<path d="M 36.8 17.2 L 29.7 10 L 29.8 10 L 36.8 17.1 C 36.9 17 38 16.3 38.8 16.4 C 39.7 16.5 40.3 17.1 40.7 17.5 C 40.7 17.5 40.7 17.6 40.8 17.6 C 41.5 17.3 49.6 12.6 49.6 12.5 L 49.7 12.5 C 49.6 12.6 41.4 17.3 40.8 17.6 L 40.8 17.7 L 40.8 17.6 C 40.7 17.6 40.7 17.6 40.6 17.5 C 40.2 17.1 39.6 16.5 38.8 16.4 C 37.9 16.3 36.8 17.1 36.8 17.2 L 36.8 17.2 Z" fill="#5b5b5b"/>
			<path d="M 36.8 17.2 L 29.7 10 L 29.8 10 L 36.8 17.1 C 36.9 17 38 16.3 38.8 16.4 C 39.7 16.5 40.3 17.1 40.7 17.5 C 40.7 17.5 40.7 17.6 40.8 17.6 C 41.5 17.3 49.6 12.6 49.6 12.5 L 49.7 12.5 C 49.6 12.6 41.4 17.3 40.8 17.6 L 40.8 17.6 L 40.8 17.6 C 40.7 17.6 40.7 17.5 40.6 17.5 C 40.2 17.1 39.6 16.5 38.8 16.4 C 38 16.3 36.8 17.1 36.8 17.1 L 36.8 17.2 Z" fill="#5e5e5e"/>
			<path d="M 36.8 17.1 L 29.8 10 L 29.8 10 L 36.8 17.1 C 36.9 17 38 16.3 38.8 16.4 C 39.7 16.5 40.3 17.1 40.7 17.4 C 40.7 17.5 40.8 17.5 40.8 17.6 C 41.5 17.2 49.6 12.5 49.6 12.5 L 49.7 12.5 C 49.6 12.6 41.4 17.3 40.8 17.6 L 40.8 17.6 L 40.8 17.6 C 40.7 17.6 40.7 17.5 40.6 17.5 C 40.2 17.1 39.6 16.5 38.8 16.4 C 38 16.3 36.8 17.1 36.8 17.1 L 36.8 17.1 Z" fill="#626262"/>
			<path d="M 36.8 17.1 L 29.8 10 L 29.8 10 L 36.8 17.1 C 36.9 17 38 16.3 38.8 16.4 C 39.7 16.5 40.3 17 40.7 17.4 C 40.7 17.5 40.8 17.5 40.8 17.6 C 41.5 17.2 49.5 12.5 49.6 12.5 L 49.6 12.5 C 49.6 12.6 41.4 17.3 40.8 17.6 L 40.8 17.6 L 40.8 17.6 C 40.7 17.6 40.7 17.5 40.6 17.5 C 40.2 17.1 39.6 16.5 38.8 16.4 C 38 16.3 36.8 17.1 36.8 17.1 L 36.8 17.1 Z" fill="#666666"/>
			<path d="M 36.8 17.1 L 29.8 10 L 29.8 10 L 36.8 17.1 C 36.9 17 38 16.2 38.8 16.4 C 39.7 16.5 40.3 17 40.7 17.4 C 40.7 17.5 40.8 17.5 40.8 17.6 C 41.5 17.2 49.5 12.5 49.6 12.5 L 49.6 12.5 C 49.6 12.5 41.4 17.3 40.8 17.6 L 40.8 17.6 L 40.8 17.6 C 40.7 17.5 40.7 17.5 40.6 17.4 C 40.2 17 39.6 16.5 38.8 16.4 C 38 16.3 36.8 17.1 36.8 17.1 L 36.8 17.1 Z" fill="#696969"/>
			<path d="M 36.8 17.1 L 29.8 10 L 29.8 10 L 36.8 17.1 C 36.9 17 38 16.2 38.9 16.4 C 39.7 16.5 40.3 17 40.7 17.4 C 40.7 17.5 40.8 17.5 40.8 17.5 C 41.5 17.2 49.5 12.5 49.6 12.5 L 49.6 12.5 C 49.6 12.5 41.4 17.3 40.8 17.6 L 40.8 17.6 L 40.8 17.6 C 40.7 17.5 40.7 17.5 40.6 17.4 C 40.2 17 39.6 16.5 38.8 16.4 C 38 16.3 36.8 17.1 36.8 17.1 L 36.8 17.1 Z" fill="#6d6d6d"/>
			<path d="M 36.8 17.1 L 29.8 10 L 29.8 10 L 36.8 17 C 36.9 17 38 16.2 38.9 16.3 C 39.7 16.4 40.3 17 40.7 17.4 C 40.7 17.4 40.8 17.5 40.8 17.5 C 41.5 17.2 49.5 12.5 49.6 12.5 L 49.6 12.5 C 49.5 12.5 41.4 17.2 40.8 17.6 L 40.8 17.6 L 40.8 17.6 C 40.7 17.5 40.7 17.5 40.6 17.4 C 40.2 17 39.6 16.5 38.8 16.4 C 38 16.3 36.8 17.1 36.8 17.1 L 36.8 17.1 Z" fill="#707070"/>
			<path d="M 36.8 17.1 L 29.8 10 L 29.8 10 L 36.8 17 C 36.9 16.9 38 16.2 38.9 16.3 C 39.7 16.4 40.3 17 40.7 17.4 C 40.7 17.4 40.8 17.5 40.8 17.5 C 41.5 17.2 49.5 12.5 49.6 12.5 L 49.6 12.5 C 49.5 12.5 41.4 17.2 40.8 17.5 L 40.8 17.6 L 40.8 17.5 C 40.7 17.5 40.7 17.5 40.6 17.4 C 40.3 17 39.6 16.5 38.8 16.4 C 38 16.2 36.8 17 36.8 17.1 L 36.8 17.1 Z" fill="#747474"/>
			<path d="M 36.8 17.1 L 29.8 10 L 29.8 10 L 36.8 17 C 36.9 16.9 38 16.2 38.9 16.3 C 39.7 16.4 40.3 17 40.7 17.4 C 40.7 17.4 40.8 17.5 40.8 17.5 C 41.5 17.2 49.5 12.5 49.6 12.5 L 49.6 12.5 C 49.5 12.5 41.4 17.2 40.8 17.5 L 40.8 17.5 L 40.8 17.5 C 40.7 17.5 40.7 17.4 40.6 17.4 C 40.3 17 39.7 16.5 38.9 16.4 C 38 16.2 36.8 17 36.8 17 L 36.8 17.1 Z" fill="#777777"/>
			<path d="M 36.8 17 L 29.8 10 L 29.9 9.9 L 36.8 17 C 36.9 16.9 38 16.2 38.9 16.3 C 39.7 16.4 40.3 17 40.7 17.3 C 40.7 17.4 40.8 17.4 40.8 17.5 C 41.5 17.1 49.5 12.5 49.6 12.4 L 49.6 12.5 C 49.5 12.5 41.4 17.2 40.8 17.5 L 40.8 17.5 L 40.8 17.5 C 40.7 17.5 40.7 17.4 40.6 17.4 C 40.3 17 39.7 16.5 38.9 16.3 C 38 16.2 36.8 17 36.8 17 L 36.8 17 Z" fill="#7b7b7b"/>
			<path d="M 36.8 17 L 29.8 10 L 29.9 9.9 L 36.8 17 C 36.9 16.9 38 16.2 38.9 16.3 C 39.7 16.4 40.3 16.9 40.7 17.3 C 40.7 17.4 40.8 17.4 40.8 17.5 C 41.5 17.1 49.5 12.5 49.6 12.4 L 49.6 12.5 C 49.5 12.5 41.4 17.2 40.8 17.5 L 40.8 17.5 L 40.8 17.5 C 40.8 17.5 40.7 17.4 40.7 17.4 C 40.3 17 39.7 16.4 38.9 16.3 C 38 16.2 36.8 17 36.8 17 L 36.8 17 Z" fill="#7f7f7f"/>
			<path d="M 36.8 17 L 29.8 10 L 29.9 9.9 L 36.8 17 C 36.9 16.9 38 16.2 38.9 16.3 C 39.7 16.4 40.3 16.9 40.7 17.3 C 40.7 17.4 40.8 17.4 40.8 17.5 C 41.5 17.1 49.5 12.5 49.6 12.4 L 49.6 12.5 C 49.5 12.5 41.4 17.2 40.8 17.5 L 40.8 17.5 L 40.8 17.5 C 40.8 17.4 40.7 17.4 40.7 17.3 C 40.3 16.9 39.7 16.4 38.9 16.3 C 38 16.2 36.8 17 36.8 17 L 36.8 17 Z" fill="#828282"/>
			<path d="M 36.8 17 L 29.9 10 L 29.9 9.9 L 36.8 17 C 36.9 16.9 38 16.2 38.9 16.3 C 39.7 16.4 40.3 16.9 40.7 17.3 C 40.7 17.4 40.8 17.4 40.8 17.4 C 41.5 17.1 49.5 12.5 49.5 12.4 L 49.6 12.4 C 49.5 12.5 41.4 17.2 40.8 17.5 L 40.8 17.5 L 40.8 17.5 C 40.8 17.4 40.7 17.4 40.7 17.3 C 40.3 16.9 39.7 16.4 38.9 16.3 C 38 16.2 36.8 17 36.8 17 L 36.8 17 Z" fill="#868686"/>
			<path d="M 36.8 17 L 29.9 9.9 L 29.9 9.9 L 36.8 16.9 C 36.9 16.9 38 16.2 38.9 16.3 C 39.7 16.4 40.3 16.9 40.7 17.3 C 40.7 17.3 40.8 17.4 40.8 17.4 C 41.5 17.1 49.5 12.5 49.5 12.4 L 49.6 12.4 C 49.5 12.5 41.4 17.1 40.8 17.5 L 40.8 17.5 L 40.8 17.5 C 40.8 17.4 40.7 17.4 40.7 17.3 C 40.3 16.9 39.7 16.4 38.9 16.3 C 38 16.2 36.8 17 36.8 17 L 36.8 17 Z" fill="#898989"/>
			<path d="M 36.8 17 L 29.9 9.9 L 29.9 9.9 L 36.8 16.9 C 36.9 16.8 38 16.2 38.9 16.3 C 39.7 16.4 40.3 16.9 40.7 17.3 C 40.7 17.3 40.8 17.4 40.8 17.4 C 41.5 17.1 49.5 12.4 49.5 12.4 L 49.6 12.4 C 49.5 12.5 41.4 17.1 40.8 17.4 L 40.8 17.5 L 40.8 17.4 C 40.8 17.4 40.7 17.4 40.7 17.3 C 40.3 16.9 39.7 16.4 38.9 16.3 C 38 16.2 36.8 17 36.8 17 L 36.8 17 Z" fill="#8d8d8d"/>
			<path d="M 36.8 17 L 29.9 9.9 L 29.9 9.9 L 36.8 16.9 C 36.9 16.8 38 16.1 38.9 16.3 C 39.7 16.4 40.3 16.9 40.7 17.3 C 40.7 17.3 40.8 17.4 40.8 17.4 C 41.5 17.1 49.4 12.4 49.5 12.4 L 49.5 12.4 C 49.5 12.5 41.4 17.1 40.8 17.4 L 40.8 17.4 L 40.8 17.4 C 40.8 17.4 40.7 17.3 40.7 17.3 C 40.3 16.9 39.7 16.4 38.9 16.3 C 38 16.2 36.8 16.9 36.8 16.9 L 36.8 17 Z" fill="#909090"/>
			<path d="M 36.8 16.9 L 29.9 9.9 L 29.9 9.9 L 36.8 16.9 C 36.9 16.8 38 16.1 38.9 16.3 C 39.7 16.4 40.3 16.9 40.7 17.3 C 40.7 17.3 40.8 17.3 40.8 17.4 C 41.5 17 49.4 12.4 49.5 12.4 L 49.5 12.4 C 49.5 12.5 41.4 17.1 40.8 17.4 L 40.8 17.4 L 40.8 17.4 C 40.8 17.4 40.7 17.3 40.7 17.3 C 40.3 16.9 39.7 16.4 38.9 16.3 C 38 16.2 36.8 16.9 36.8 16.9 L 36.8 16.9 Z" fill="#949494"/>
			<path d="M 36.8 16.9 L 29.9 9.9 L 29.9 9.9 L 36.8 16.9 C 36.9 16.8 38 16.1 38.9 16.2 C 39.7 16.3 40.3 16.8 40.7 17.2 C 40.7 17.3 40.8 17.3 40.8 17.4 C 41.5 17 49.4 12.4 49.5 12.4 L 49.5 12.4 C 49.5 12.4 41.4 17.1 40.8 17.4 L 40.8 17.4 L 40.8 17.4 C 40.8 17.4 40.7 17.3 40.7 17.3 C 40.3 16.9 39.7 16.4 38.9 16.3 C 38 16.2 36.8 16.9 36.8 16.9 L 36.8 16.9 Z" fill="#989898"/>
			<path d="M 36.8 16.9 L 29.9 9.9 L 29.9 9.9 L 36.8 16.9 C 36.9 16.8 38 16.1 38.9 16.2 C 39.7 16.3 40.3 16.8 40.7 17.2 C 40.7 17.3 40.8 17.3 40.8 17.4 C 41.5 17 49.4 12.4 49.5 12.4 L 49.5 12.4 C 49.4 12.4 41.4 17.1 40.8 17.4 L 40.8 17.4 L 40.8 17.4 C 40.8 17.3 40.7 17.3 40.7 17.2 C 40.3 16.8 39.7 16.4 38.9 16.3 C 38 16.1 36.8 16.9 36.8 16.9 L 36.8 16.9 Z" fill="#9b9b9b"/>
			<path d="M 36.8 16.9 L 29.9 9.9 L 30 9.9 L 36.8 16.9 C 36.9 16.8 38 16.1 38.9 16.2 C 39.7 16.3 40.3 16.8 40.7 17.2 C 40.7 17.3 40.8 17.3 40.8 17.3 C 41.5 17 49.4 12.4 49.5 12.4 L 49.5 12.4 C 49.4 12.4 41.4 17.1 40.8 17.4 L 40.8 17.4 L 40.8 17.4 C 40.8 17.3 40.7 17.3 40.7 17.2 C 40.3 16.8 39.7 16.4 38.9 16.3 C 38 16.1 36.8 16.9 36.8 16.9 L 36.8 16.9 Z" fill="#9f9f9f"/>
			<path d="M 36.8 16.9 L 29.9 9.9 L 30 9.9 L 36.8 16.8 C 36.9 16.8 38 16.1 38.9 16.2 C 39.7 16.3 40.3 16.8 40.7 17.2 C 40.7 17.2 40.8 17.3 40.8 17.3 C 41.5 17 49.4 12.4 49.5 12.4 L 49.5 12.4 C 49.4 12.4 41.4 17 40.8 17.4 L 40.8 17.4 L 40.8 17.4 C 40.8 17.3 40.7 17.3 40.7 17.2 C 40.3 16.8 39.7 16.3 38.9 16.2 C 38 16.1 36.8 16.9 36.8 16.9 L 36.8 16.9 Z" fill="#a2a2a2"/>
			<path d="M 36.8 16.9 L 29.9 9.9 L 30 9.9 L 36.8 16.8 C 36.9 16.7 38 16.1 38.9 16.2 C 39.7 16.3 40.3 16.8 40.7 17.2 C 40.7 17.2 40.8 17.3 40.8 17.3 C 41.5 17 49.4 12.4 49.5 12.3 L 49.5 12.4 C 49.4 12.4 41.4 17 40.8 17.3 L 40.8 17.4 L 40.8 17.3 C 40.8 17.3 40.7 17.3 40.7 17.2 C 40.3 16.8 39.7 16.3 38.9 16.2 C 38 16.1 36.8 16.9 36.8 16.9 L 36.8 16.9 Z" fill="#a6a6a6"/>
			<path d="M 36.8 16.9 L 30 9.9 L 30 9.9 L 36.8 16.8 C 36.9 16.7 38 16.1 38.9 16.2 C 39.7 16.3 40.3 16.8 40.7 17.2 C 40.7 17.2 40.8 17.3 40.8 17.3 C 41.5 17 49.4 12.4 49.5 12.3 L 49.5 12.4 C 49.4 12.4 41.4 17 40.8 17.3 L 40.8 17.3 L 40.8 17.3 C 40.8 17.3 40.7 17.2 40.7 17.2 C 40.3 16.8 39.7 16.3 38.9 16.2 C 38 16.1 36.8 16.8 36.8 16.8 L 36.8 16.9 Z" fill="#a9a9a9"/>
			<path d="M 36.8 16.8 L 30 9.9 L 30 9.9 L 36.8 16.8 C 36.9 16.7 38 16.1 38.9 16.2 C 39.7 16.3 40.3 16.8 40.7 17.2 C 40.7 17.2 40.8 17.2 40.8 17.3 C 41.5 16.9 49.4 12.4 49.5 12.3 L 49.5 12.4 C 49.4 12.4 41.4 17 40.8 17.3 L 40.8 17.3 L 40.8 17.3 C 40.8 17.3 40.7 17.2 40.7 17.2 C 40.3 16.8 39.7 16.3 38.9 16.2 C 38 16.1 36.8 16.8 36.8 16.8 L 36.8 16.8 Z" fill="#adadad"/>
			<path d="M 36.8 16.8 L 30 9.9 L 30 9.9 L 36.8 16.8 C 36.9 16.7 38 16.1 38.9 16.2 C 39.7 16.3 40.3 16.7 40.7 17.1 C 40.7 17.2 40.8 17.2 40.8 17.3 C 41.5 16.9 49.4 12.4 49.4 12.3 L 49.5 12.3 C 49.4 12.4 41.4 17 40.8 17.3 L 40.8 17.3 L 40.8 17.3 C 40.8 17.3 40.7 17.2 40.7 17.2 C 40.3 16.8 39.7 16.3 38.9 16.2 C 38 16.1 36.8 16.8 36.8 16.8 L 36.8 16.8 Z" fill="#b0b0b0"/>
			<path d="M 36.8 16.8 L 30 9.9 L 30 9.9 L 36.8 16.8 C 36.9 16.7 38 16.1 38.9 16.2 C 39.7 16.3 40.3 16.7 40.7 17.1 C 40.8 17.2 40.8 17.2 40.8 17.3 C 41.5 16.9 49.4 12.4 49.4 12.3 L 49.5 12.3 C 49.4 12.4 41.4 17 40.8 17.3 L 40.8 17.3 L 40.8 17.3 C 40.8 17.2 40.7 17.2 40.7 17.1 C 40.3 16.7 39.7 16.3 38.9 16.2 C 38 16.1 36.8 16.8 36.8 16.8 L 36.8 16.8 Z" fill="#b4b4b4"/>
			<path d="M 36.8 16.8 L 30 9.9 L 30 9.8 L 36.8 16.8 C 36.9 16.7 38 16 38.9 16.2 C 39.7 16.3 40.3 16.7 40.7 17.1 C 40.8 17.2 40.8 17.2 40.8 17.2 C 41.5 16.9 49.4 12.3 49.4 12.3 L 49.5 12.3 C 49.4 12.4 41.5 17 40.8 17.3 L 40.8 17.3 L 40.8 17.3 C 40.8 17.2 40.7 17.2 40.7 17.1 C 40.3 16.7 39.7 16.3 38.9 16.2 C 38 16.1 36.8 16.8 36.8 16.8 L 36.8 16.8 Z" fill="#b8b8b8"/>
			<path d="M 36.8 16.8 L 30 9.9 L 30 9.8 L 36.8 16.7 C 36.9 16.7 38 16 38.9 16.1 C 39.7 16.3 40.3 16.7 40.7 17.1 C 40.8 17.1 40.8 17.2 40.8 17.2 C 41.5 16.9 49.3 12.3 49.4 12.3 L 49.4 12.3 C 49.4 12.4 41.5 16.9 40.8 17.3 L 40.8 17.3 L 40.8 17.3 C 40.8 17.2 40.7 17.2 40.7 17.1 C 40.3 16.7 39.7 16.3 38.9 16.2 C 38 16.1 36.8 16.8 36.8 16.8 L 36.8 16.8 Z" fill="#bbbbbb"/>
			<path d="M 36.8 16.8 L 30 9.9 L 30 9.8 L 36.8 16.7 C 36.9 16.6 38 16 38.9 16.1 C 39.7 16.2 40.3 16.7 40.7 17.1 C 40.8 17.1 40.8 17.2 40.8 17.2 C 41.5 16.9 49.3 12.3 49.4 12.3 L 49.4 12.3 C 49.4 12.4 41.5 16.9 40.8 17.2 L 40.8 17.3 L 40.8 17.2 C 40.8 17.2 40.7 17.2 40.7 17.1 C 40.3 16.7 39.7 16.3 38.9 16.2 C 38 16.1 36.8 16.8 36.8 16.8 L 36.8 16.8 Z" fill="#bfbfbf"/>
			<path d="M 36.8 16.8 L 30 9.9 L 30.1 9.8 L 36.8 16.7 C 36.9 16.6 38 16 38.9 16.1 C 39.7 16.2 40.3 16.7 40.7 17.1 C 40.8 17.1 40.8 17.2 40.8 17.2 C 41.5 16.9 49.3 12.3 49.4 12.3 L 49.4 12.3 C 49.4 12.3 41.5 16.9 40.9 17.2 L 40.8 17.2 L 40.8 17.2 C 40.8 17.2 40.7 17.1 40.7 17.1 C 40.3 16.7 39.7 16.3 38.9 16.2 C 38 16 36.8 16.7 36.8 16.7 L 36.8 16.8 Z" fill="#c2c2c2"/>
			<path d="M 36.8 16.7 L 30 9.8 L 30.1 9.8 L 36.8 16.7 C 36.9 16.6 38 16 38.9 16.1 C 39.7 16.2 40.3 16.7 40.7 17.1 C 40.8 17.1 40.8 17.1 40.8 17.2 C 41.5 16.8 49.3 12.3 49.4 12.3 L 49.4 12.3 C 49.3 12.3 41.5 16.9 40.9 17.2 L 40.8 17.2 L 40.8 17.2 C 40.8 17.2 40.7 17.1 40.7 17.1 C 40.3 16.7 39.7 16.3 38.9 16.2 C 38 16 36.8 16.7 36.8 16.7 L 36.8 16.7 Z" fill="#c6c6c6"/>
			<path d="M 36.8 16.7 L 30 9.8 L 30.1 9.8 L 36.8 16.7 C 37 16.6 38 16 38.9 16.1 C 39.7 16.2 40.3 16.6 40.7 17 C 40.8 17.1 40.8 17.1 40.9 17.2 C 41.5 16.8 49.3 12.3 49.4 12.3 L 49.4 12.3 C 49.3 12.3 41.5 16.9 40.9 17.2 L 40.8 17.2 L 40.8 17.2 C 40.8 17.2 40.7 17.1 40.7 17.1 C 40.3 16.7 39.7 16.2 38.9 16.1 C 38 16 36.9 16.7 36.8 16.7 L 36.8 16.7 Z" fill="#c9c9c9"/>
			<path d="M 36.8 16.7 L 30.1 9.8 L 30.1 9.8 L 36.8 16.7 C 37 16.6 38 16 38.9 16.1 C 39.7 16.2 40.3 16.6 40.7 17 C 40.8 17.1 40.8 17.1 40.9 17.2 C 41.5 16.8 49.3 12.3 49.4 12.3 L 49.4 12.3 C 49.3 12.3 41.5 16.9 40.9 17.2 L 40.8 17.2 L 40.8 17.2 C 40.8 17.1 40.7 17.1 40.7 17 C 40.3 16.7 39.7 16.2 38.9 16.1 C 38 16 36.9 16.7 36.8 16.7 L 36.8 16.7 Z" fill="#cdcdcd"/>
			<path d="M 36.8 16.7 L 30.1 9.8 L 30.1 9.8 L 36.8 16.7 C 37 16.6 38 16 38.9 16.1 C 39.7 16.2 40.3 16.6 40.7 17 C 40.8 17.1 40.8 17.1 40.9 17.1 C 41.5 16.8 49.3 12.3 49.4 12.2 L 49.4 12.3 C 49.3 12.3 41.5 16.9 40.9 17.2 L 40.8 17.2 L 40.8 17.2 C 40.8 17.1 40.7 17.1 40.7 17 C 40.3 16.6 39.7 16.2 38.9 16.1 C 38 16 36.9 16.7 36.8 16.7 L 36.8 16.7 Z" fill="#d1d1d1"/>
			<path d="M 36.8 16.7 L 30.1 9.8 L 30.1 9.8 L 36.8 16.6 C 37 16.6 38 16 38.9 16.1 C 39.7 16.2 40.3 16.6 40.7 17 C 40.8 17 40.8 17.1 40.9 17.1 C 41.5 16.8 49.3 12.3 49.4 12.2 L 49.4 12.3 C 49.3 12.3 41.5 16.8 40.9 17.2 L 40.9 17.2 L 40.8 17.2 C 40.8 17.1 40.7 17.1 40.7 17 C 40.3 16.6 39.7 16.2 38.9 16.1 C 38 16 36.9 16.7 36.8 16.7 L 36.8 16.7 Z" fill="#d4d4d4"/>
			<path d="M 36.8 16.7 L 30.1 9.8 L 30.1 9.8 L 36.8 16.6 C 37 16.5 38 16 38.9 16.1 C 39.7 16.2 40.3 16.6 40.7 17 C 40.8 17 40.8 17.1 40.9 17.1 C 41.5 16.8 49.3 12.3 49.4 12.2 L 49.4 12.3 C 49.3 12.3 41.5 16.8 40.9 17.1 L 40.9 17.2 L 40.8 17.1 C 40.8 17.1 40.8 17.1 40.7 17 C 40.3 16.6 39.7 16.2 38.9 16.1 C 38 16 36.9 16.7 36.8 16.7 L 36.8 16.7 Z" fill="#d8d8d8"/>
			<path d="M 36.8 16.7 L 30.1 9.8 L 30.1 9.8 L 36.8 16.6 C 37 16.5 38 16 38.9 16.1 C 39.7 16.2 40.3 16.6 40.7 17 C 40.8 17 40.8 17.1 40.9 17.1 C 41.5 16.8 49.3 12.3 49.3 12.2 L 49.4 12.2 C 49.3 12.3 41.5 16.8 40.9 17.1 L 40.9 17.1 L 40.8 17.1 C 40.8 17.1 40.8 17 40.7 17 C 40.3 16.6 39.7 16.2 38.9 16.1 C 38 16 36.9 16.6 36.8 16.6 L 36.8 16.7 Z" fill="#dbdbdb"/>
			<path d="M 36.8 16.6 L 30.1 9.8 L 30.1 9.8 L 36.8 16.6 C 37 16.5 38 15.9 38.9 16.1 C 39.7 16.2 40.3 16.6 40.7 17 C 40.8 17 40.8 17 40.9 17.1 C 41.5 16.7 49.3 12.3 49.3 12.2 L 49.4 12.2 C 49.3 12.3 41.5 16.8 40.9 17.1 L 40.9 17.1 L 40.9 17.1 C 40.8 17.1 40.8 17 40.7 17 C 40.3 16.6 39.7 16.2 38.9 16.1 C 38 16 36.9 16.6 36.9 16.6 L 36.8 16.6 Z" fill="#dfdfdf"/>
			<path d="M 36.8 16.6 L 30.1 9.8 L 30.1 9.8 L 36.8 16.6 C 37 16.5 38 15.9 38.9 16 C 39.7 16.2 40.3 16.5 40.7 16.9 C 40.8 17 40.8 17 40.9 17.1 C 41.5 16.7 49.3 12.2 49.3 12.2 L 49.4 12.2 C 49.3 12.3 41.5 16.8 40.9 17.1 L 40.9 17.1 L 40.9 17.1 C 40.8 17.1 40.8 17 40.7 17 C 40.3 16.6 39.7 16.2 38.9 16.1 C 38 16 36.9 16.6 36.9 16.6 L 36.8 16.6 Z" fill="#e2e2e2"/>
			<path d="M 36.8 16.6 L 30.1 9.8 L 30.2 9.8 L 36.8 16.6 C 37 16.5 38 15.9 38.9 16 C 39.7 16.1 40.3 16.5 40.7 16.9 C 40.8 17 40.8 17 40.9 17.1 C 41.5 16.7 49.2 12.2 49.3 12.2 L 49.3 12.2 C 49.3 12.3 41.5 16.8 40.9 17.1 L 40.9 17.1 L 40.9 17.1 C 40.8 17 40.8 17 40.7 16.9 C 40.3 16.6 39.7 16.2 38.9 16.1 C 38 16 36.9 16.6 36.9 16.6 L 36.8 16.6 Z" fill="#e6e6e6"/>
			<path d="M 36.8 16.6 L 30.1 9.8 L 30.2 9.8 L 36.9 16.6 C 37 16.5 38 15.9 38.9 16 C 39.7 16.1 40.3 16.5 40.7 16.9 C 40.8 17 40.8 17 40.9 17 C 41.5 16.7 49.2 12.2 49.3 12.2 L 49.3 12.2 C 49.3 12.3 41.5 16.8 40.9 17.1 L 40.9 17.1 L 40.9 17.1 C 40.8 17 40.8 17 40.7 16.9 C 40.3 16.5 39.7 16.2 38.9 16.1 C 38 15.9 36.9 16.6 36.9 16.6 L 36.8 16.6 Z" fill="#eaeaea"/>
			<path d="M 36.8 16.6 L 30.1 9.8 L 30.2 9.8 L 36.9 16.5 C 37 16.5 38 15.9 38.9 16 C 39.7 16.1 40.3 16.5 40.7 16.9 C 40.8 16.9 40.8 17 40.9 17 C 41.5 16.7 49.2 12.2 49.3 12.2 L 49.3 12.2 C 49.3 12.2 41.5 16.8 40.9 17.1 L 40.9 17.1 L 40.9 17.1 C 40.8 17 40.8 17 40.7 16.9 C 40.3 16.5 39.7 16.2 38.9 16.1 C 38 15.9 36.9 16.6 36.9 16.6 L 36.8 16.6 Z" fill="#ededed"/>
			<path d="M 36.9 16.6 L 30.2 9.8 L 30.2 9.8 L 36.9 16.5 C 37 16.4 38 15.9 38.9 16 C 39.7 16.1 40.3 16.5 40.7 16.9 C 40.8 16.9 40.8 17 40.9 17 C 41.5 16.7 49.2 12.2 49.3 12.2 L 49.3 12.2 C 49.2 12.2 41.5 16.7 40.9 17.1 L 40.9 17.1 L 40.9 17 C 40.8 17 40.8 17 40.7 16.9 C 40.3 16.5 39.7 16.1 38.9 16 C 38 15.9 36.9 16.6 36.9 16.6 L 36.9 16.6 Z" fill="#f1f1f1"/>
			<path d="M 36.9 16.6 L 30.2 9.8 L 30.2 9.7 L 36.9 16.5 C 37 16.4 38 15.9 38.9 16 C 39.7 16.1 40.3 16.5 40.7 16.9 C 40.8 16.9 40.8 17 40.9 17 C 41.5 16.7 49.2 12.2 49.3 12.2 L 49.3 12.2 C 49.2 12.2 41.5 16.7 40.9 17 L 40.9 17 L 40.9 17 C 40.8 17 40.8 16.9 40.7 16.9 C 40.3 16.5 39.7 16.1 38.9 16 C 38 15.9 36.9 16.5 36.9 16.5 L 36.9 16.6 Z" fill="#f4f4f4"/>
			<path d="M 36.9 16.5 L 30.2 9.8 L 30.2 9.7 L 36.9 16.5 C 37 16.4 38 15.9 38.9 16 C 39.7 16.1 40.3 16.5 40.7 16.9 C 40.8 16.9 40.8 16.9 40.9 17 C 41.5 16.6 49.2 12.2 49.3 12.2 L 49.3 12.2 C 49.2 12.2 41.5 16.7 40.9 17 L 40.9 17 L 40.9 17 C 40.8 17 40.8 16.9 40.7 16.9 C 40.3 16.5 39.7 16.1 38.9 16 C 38 15.9 36.9 16.5 36.9 16.5 L 36.9 16.5 Z" fill="#f8f8f8"/>
			<path d="M 36.9 16.5 L 30.2 9.8 L 30.2 9.7 L 36.9 16.5 C 37 16.4 38 15.9 38.9 16 C 39.7 16.1 40.3 16.4 40.7 16.8 C 40.8 16.9 40.8 16.9 40.9 17 C 41.5 16.6 49.2 12.2 49.3 12.1 L 49.3 12.2 C 49.2 12.2 41.5 16.7 40.9 17 L 40.9 17 L 40.9 17 C 40.8 17 40.8 16.9 40.7 16.9 C 40.3 16.5 39.7 16.1 38.9 16 C 38 15.9 36.9 16.5 36.9 16.5 L 36.9 16.5 Z" fill="#fbfbfb"/>
			<path d="M 36.9 16.5 L 30.2 9.8 L 30.2 9.7 L 36.9 16.5 C 37 16.4 38 15.9 38.9 16 C 39.7 16.1 40.3 16.4 40.7 16.8 C 40.8 16.9 40.8 16.9 40.9 17 C 41.5 16.6 49.2 12.2 49.3 12.1 L 49.3 12.2 C 49.2 12.2 41.5 16.7 40.9 17 L 40.9 17 L 40.9 17 C 40.8 16.9 40.8 16.9 40.7 16.8 C 40.3 16.5 39.7 16.1 38.9 16 C 38 15.9 36.9 16.5 36.9 16.5 L 36.9 16.5 Z" fill="#ffffff"/>
			<path d="M 47.6 24.7 L 40 17 C 39.4 16.4 38.4 16.3 37.7 16.7 L 36.8 17.2 L 28.4 22.1 L 28.4 22 L 37.7 16.6 C 38.4 16.2 39.5 16.4 40.1 17 L 47.7 24.6 L 47.6 24.7 Z" fill="#606060"/>
			<path d="M 39.9 12.8 C 39.5 13 39.3 13.2 39 13.3 C 38.8 13.4 38.6 13.5 38.4 13.4 C 38.1 13.4 37.9 13.2 37.8 13.1 C 37.7 12.9 37.7 12.7 37.7 12.4 C 37.8 12.1 38 11.8 38.2 11.5 C 38.5 11.2 38.8 10.9 39.2 10.7 C 39.8 10.4 40.3 10.2 40.6 10.3 C 41 10.4 41.1 10.5 41 10.8 C 41 11 40.9 11.1 40.7 11.1 C 40.6 11.1 40.6 11.1 40.5 11 C 40.5 11 40.5 10.9 40.5 10.8 C 40.5 10.8 40.5 10.8 40.6 10.7 L 40.6 10.7 C 40.6 10.7 40.6 10.7 40.6 10.7 C 40.5 10.6 40.3 10.7 40.2 10.8 C 40.1 10.9 40 10.9 39.9 11 C 39.8 11.1 39.7 11.2 39.6 11.3 C 39.4 11.5 39.2 11.7 39.1 12 C 38.9 12.2 38.8 12.4 38.8 12.6 C 38.8 12.7 38.8 12.8 39 12.8 C 39.1 12.8 39.3 12.8 39.6 12.6 C 39.8 12.5 40 12.3 40.3 12 C 40.7 11.5 41 11.1 41.1 10.7 C 41.1 10.6 41.1 10.6 41.2 10.6 C 41.2 10.6 41.3 10.6 41.4 10.6 C 41.5 10.6 41.7 10.6 41.9 10.6 L 42.1 10.6 C 42.2 10.6 42.2 10.7 42.2 10.8 C 42.1 11.1 41.8 11.6 41.2 12.4 C 41 12.7 40.9 13 40.8 13.2 C 40.8 13.3 40.8 13.4 40.9 13.5 C 41 13.6 41 13.6 41.1 13.6 C 41.3 13.7 41.5 13.6 41.8 13.5 C 42.1 13.4 42.3 13.3 42.5 13.1 C 42.9 12.7 43.2 12.3 43.3 11.8 C 43.4 11.1 43.4 10.5 43 10 C 42.9 9.7 42.6 9.4 42.3 9.2 C 42 8.9 41.6 8.8 41.3 8.7 C 41 8.6 40.8 8.6 40.5 8.6 C 40.3 8.6 40 8.7 39.7 8.8 C 39.2 8.9 38.7 9.1 38.3 9.5 C 37.9 9.8 37.5 10.3 37.2 10.7 C 36.9 11.2 36.7 11.7 36.5 12.2 C 36.3 13.1 36.5 13.9 37 14.6 C 37.3 15 37.8 15.3 38.5 15.5 C 38.8 15.6 39.1 15.6 39.4 15.6 C 39.7 15.6 40.1 15.5 40.4 15.5 C 40.6 15.4 41 15.3 41.5 15.1 C 41.5 15.1 41.6 15.1 41.7 15.1 C 41.7 15.1 41.7 15.1 41.8 15.2 C 41.8 15.2 41.8 15.2 41.8 15.3 C 41.7 15.4 41.5 15.6 40.9 15.8 C 40.1 16.2 39.2 16.3 38.3 16.1 C 37.4 15.9 36.8 15.5 36.3 14.8 C 36 14.3 35.8 13.7 35.8 13.1 C 35.7 12.7 35.8 12.2 35.8 11.8 C 36 10.9 36.5 10.1 37.3 9.4 C 38 8.7 38.8 8.2 39.8 8.1 C 40.3 8 40.8 8 41.3 8.1 C 41.9 8.2 42.4 8.4 42.9 8.8 C 43.4 9.2 43.7 9.7 43.9 10.4 C 44 10.8 44 11.3 43.9 11.7 C 43.7 12.5 43.3 13.1 42.7 13.6 C 42.3 13.8 42 14 41.6 14.1 C 41.2 14.2 40.9 14.2 40.5 14.1 C 40.2 14 40 13.9 39.8 13.7 C 39.7 13.6 39.6 13.3 39.7 13.1 C 39.7 13 39.8 12.9 39.9 12.8 Z" fill="#000000"/>
			<path d="M 39.7 12.7 C 39.4 13 39.1 13.2 38.9 13.3 C 38.7 13.4 38.4 13.4 38.2 13.4 C 38 13.3 37.8 13.2 37.7 13 C 37.6 12.9 37.6 12.6 37.6 12.4 C 37.7 12.1 37.8 11.8 38.1 11.5 C 38.4 11.2 38.7 10.9 39 10.7 C 39.6 10.3 40.1 10.2 40.5 10.3 C 40.8 10.4 41 10.5 40.9 10.8 C 40.9 11 40.7 11.1 40.5 11.1 C 40.5 11.1 40.4 11 40.4 11 C 40.4 11 40.4 10.9 40.4 10.8 C 40.4 10.8 40.4 10.7 40.4 10.7 L 40.5 10.7 C 40.5 10.7 40.4 10.6 40.4 10.6 C 40.3 10.6 40.2 10.7 40 10.8 C 39.9 10.8 39.8 10.9 39.7 11 C 39.6 11.1 39.5 11.2 39.4 11.3 C 39.3 11.5 39.1 11.7 38.9 12 C 38.8 12.2 38.7 12.4 38.7 12.5 C 38.6 12.7 38.7 12.8 38.8 12.8 C 39 12.8 39.2 12.8 39.4 12.6 C 39.7 12.5 39.9 12.3 40.1 12 C 40.6 11.5 40.9 11.1 40.9 10.7 C 41 10.6 41 10.6 41 10.6 C 41.1 10.5 41.1 10.5 41.2 10.6 C 41.4 10.6 41.6 10.6 41.8 10.6 L 41.9 10.6 C 42 10.6 42.1 10.7 42 10.8 C 42 11.1 41.7 11.6 41.1 12.4 C 40.9 12.7 40.7 13 40.7 13.2 C 40.7 13.3 40.7 13.4 40.8 13.4 C 40.8 13.5 40.9 13.6 41 13.6 C 41.2 13.7 41.4 13.6 41.7 13.5 C 41.9 13.4 42.2 13.3 42.4 13.1 C 42.8 12.7 43 12.3 43.2 11.8 C 43.3 11.1 43.2 10.5 42.9 10 C 42.7 9.6 42.5 9.4 42.2 9.1 C 41.9 8.9 41.5 8.8 41.1 8.7 C 40.9 8.6 40.6 8.6 40.4 8.6 C 40.1 8.6 39.9 8.7 39.6 8.7 C 39.1 8.9 38.6 9.1 38.2 9.5 C 37.7 9.8 37.4 10.2 37 10.7 C 36.7 11.2 36.5 11.7 36.4 12.2 C 36.2 13.1 36.3 13.9 36.8 14.5 C 37.2 15 37.7 15.3 38.3 15.5 C 38.7 15.5 39 15.6 39.3 15.6 C 39.6 15.6 39.9 15.5 40.3 15.4 C 40.5 15.4 40.8 15.3 41.3 15.1 C 41.4 15.1 41.5 15.1 41.5 15.1 C 41.6 15.1 41.6 15.1 41.6 15.1 C 41.6 15.2 41.6 15.2 41.6 15.3 C 41.6 15.4 41.3 15.6 40.8 15.8 C 39.9 16.2 39.1 16.3 38.2 16.1 C 37.3 15.9 36.6 15.4 36.2 14.8 C 35.9 14.3 35.7 13.7 35.6 13.1 C 35.6 12.6 35.6 12.2 35.7 11.8 C 35.9 10.9 36.4 10.1 37.2 9.4 C 37.9 8.7 38.7 8.2 39.6 8.1 C 40.2 7.9 40.7 7.9 41.2 8 C 41.7 8.2 42.3 8.4 42.7 8.8 C 43.2 9.2 43.6 9.7 43.7 10.4 C 43.8 10.8 43.8 11.2 43.7 11.7 C 43.6 12.5 43.2 13.1 42.5 13.6 C 42.2 13.8 41.8 14 41.5 14.1 C 41.1 14.2 40.7 14.2 40.4 14.1 C 40.1 14 39.9 13.9 39.7 13.7 C 39.5 13.5 39.5 13.3 39.6 13.1 C 39.6 13 39.6 12.9 39.7 12.7 Z" fill="#0052c9"/>
			<path d="M 39.7 12.7 C 39.4 13 39.1 13.2 38.9 13.3 C 38.7 13.4 38.4 13.4 38.2 13.4 C 38 13.3 37.8 13.2 37.7 13 C 37.6 12.9 37.6 12.6 37.6 12.4 C 37.7 12.1 37.8 11.8 38.1 11.5 C 38.4 11.2 38.7 10.9 39 10.7 C 39.6 10.3 40.1 10.2 40.5 10.3 C 40.8 10.4 41 10.5 40.9 10.8 C 40.9 11 40.7 11.1 40.5 11.1 C 40.5 11.1 40.4 11 40.4 11 C 40.4 11 40.4 10.9 40.4 10.8 C 40.4 10.8 40.4 10.7 40.4 10.7 L 40.5 10.7 C 40.5 10.7 40.4 10.6 40.4 10.6 C 40.3 10.6 40.2 10.7 40 10.8 C 39.9 10.8 39.8 10.9 39.7 11 C 39.6 11.1 39.5 11.2 39.4 11.3 C 39.3 11.5 39.1 11.7 38.9 12 C 38.8 12.2 38.7 12.4 38.7 12.5 C 38.6 12.7 38.7 12.8 38.8 12.8 C 39 12.8 39.2 12.8 39.4 12.6 C 39.7 12.5 39.9 12.3 40.1 12 C 40.6 11.5 40.9 11.1 40.9 10.7 C 41 10.6 41 10.6 41 10.6 C 41.1 10.5 41.1 10.5 41.2 10.6 C 41.4 10.6 41.6 10.6 41.8 10.6 L 41.9 10.6 C 42 10.6 42.1 10.7 42 10.8 C 42 11.1 41.7 11.6 41.1 12.4 C 40.9 12.7 40.7 13 40.7 13.2 C 40.7 13.3 40.7 13.4 40.8 13.4 C 40.8 13.5 40.9 13.6 41 13.6 C 41.2 13.7 41.4 13.6 41.7 13.5 C 41.9 13.4 42.2 13.3 42.4 13.1 C 42.8 12.7 43 12.3 43.2 11.8 C 43.3 11.1 43.2 10.5 42.9 10 C 42.7 9.6 42.5 9.4 42.2 9.1 C 41.9 8.9 41.5 8.8 41.1 8.7 C 40.9 8.6 40.6 8.6 40.4 8.6 C 40.1 8.6 39.9 8.7 39.6 8.7 C 39.1 8.9 38.6 9.1 38.2 9.5 C 37.7 9.8 37.4 10.2 37 10.7 C 36.7 11.2 36.5 11.7 36.4 12.2 C 36.2 13.1 36.3 13.9 36.8 14.5 C 37.2 15 37.7 15.3 38.3 15.5 C 38.7 15.5 39 15.6 39.3 15.6 C 39.6 15.6 39.9 15.5 40.3 15.4 C 40.5 15.4 40.8 15.3 41.3 15.1 C 41.4 15.1 41.5 15.1 41.5 15.1 C 41.6 15.1 41.6 15.1 41.6 15.1 C 41.6 15.2 41.6 15.2 41.6 15.3 C 41.6 15.4 41.3 15.6 40.8 15.8 C 39.9 16.2 39.1 16.3 38.2 16.1 C 37.3 15.9 36.6 15.4 36.2 14.8 C 35.9 14.3 35.7 13.7 35.6 13.1 C 35.6 12.6 35.6 12.2 35.7 11.8 C 35.9 10.9 36.4 10.1 37.2 9.4 C 37.9 8.7 38.7 8.2 39.6 8.1 C 40.2 7.9 40.7 7.9 41.2 8 C 41.7 8.2 42.3 8.4 42.7 8.8 C 43.2 9.2 43.6 9.7 43.7 10.4 C 43.8 10.8 43.8 11.2 43.7 11.7 C 43.6 12.5 43.2 13.1 42.5 13.6 C 42.2 13.8 41.8 14 41.5 14.1 C 41.1 14.2 40.7 14.2 40.4 14.1 C 40.1 14 39.9 13.9 39.7 13.7 C 39.5 13.5 39.5 13.3 39.6 13.1 C 39.6 13 39.6 12.9 39.7 12.7 Z" fill="url(#gradient11)"/>
			<path d="M 36.5 32 C 36.4 30.8 31.1 30.1 24.5 30.4 C 17.9 30.7 14.2 32 14.2 33.2 C 14.3 34.4 18.2 35.1 24.7 34.8 C 31.3 34.4 36.5 33.2 36.5 32 Z" fill="url(#gradient12)"/>
			<path d="M 30.9 32.3 C 30.9 31.8 28.7 31.5 26 31.6 C 23.2 31.8 21.1 32.3 21.1 32.8 C 21.1 33.3 23.3 33.6 26.1 33.4 C 28.8 33.3 31 32.8 30.9 32.3 Z" fill="url(#gradient13)"/>
			<path d="M 18 30.6 C 17.8 30.6 17.6 30.7 17.3 30.9 C 17.1 31 17 31 16.9 31.1 C 16.9 31.1 16.9 31.1 16.9 31.1 C 17 31.4 17.1 31.8 17.2 31.8 C 17.5 31.8 17.8 31.6 18 31.5 C 18.2 31.3 18.4 31.2 18.5 31.2 C 18.4 30.9 18.3 30.6 18 30.6 Z" fill="url(#gradient14)"/>
			<path d="M 20.7 31.5 C 20.5 31.6 20.4 31.7 20.1 32 C 19.9 32.1 19.8 32.1 19.8 32.2 C 19.8 32.2 19.8 32.2 19.8 32.2 C 19.9 32.5 20.1 32.8 20.1 32.8 C 20.4 32.7 20.7 32.6 20.9 32.3 C 21.1 32.1 21.2 32 21.3 32 C 21.1 31.7 21 31.5 20.7 31.5 Z" fill="url(#gradient15)"/>
			<path d="M 23.3 31.8 C 23.1 31.9 23 32.1 22.8 32.4 C 22.7 32.5 22.6 32.6 22.5 32.7 C 22.5 32.7 22.6 32.7 22.6 32.7 C 22.8 32.9 23.1 33.2 23.1 33.2 C 23.3 33.1 23.6 32.9 23.7 32.6 C 23.8 32.4 23.9 32.3 24 32.2 C 23.8 31.9 23.5 31.7 23.3 31.8 Z" fill="url(#gradient16)"/>
			<path d="M 18 30.6 C 18.1 30.6 18.4 30.6 18.7 30.7 C 19.1 30.8 19.2 31.1 19.3 31.2 C 19.3 31.4 19.5 32 19.7 32.2 C 19.8 32.5 20 32.8 20 32.8 C 20 32.8 19.8 32.9 19.5 32.8 C 19.4 32.8 19.3 32.7 19.2 32.7 C 18.9 32.5 18.6 31.9 18.5 31.5 C 18.4 31 18.3 30.6 18 30.6 Z" fill="url(#gradient17)"/>
			<path d="M 20.7 31.5 C 20.8 31.4 21.1 31.4 21.4 31.4 C 21.8 31.4 22 31.7 22.1 31.8 C 22.2 32 22.5 32.5 22.7 32.7 C 22.9 32.9 23.2 33.2 23.2 33.2 C 23.2 33.2 23 33.3 22.7 33.3 C 22.6 33.3 22.5 33.3 22.4 33.3 C 22 33.2 21.6 32.7 21.4 32.2 C 21.2 31.7 21 31.5 20.7 31.5 Z" fill="url(#gradient18)"/>
			<path d="M 23.3 31.8 C 23.3 31.8 23.6 31.6 24 31.6 C 24.3 31.5 24.6 31.7 24.7 31.9 C 24.8 32 25.3 32.5 25.5 32.6 C 25.8 32.8 26.1 33 26.1 33 C 26.1 33 26 33.2 25.6 33.2 C 25.6 33.2 25.5 33.2 25.4 33.2 C 25 33.2 24.5 32.8 24.2 32.4 C 23.9 32 23.6 31.7 23.3 31.8 Z" fill="url(#gradient19)"/>
			<path d="M 26 31.6 C 26.1 31.5 26.4 31.3 26.8 31.2 C 27.2 31 27.6 31.2 27.8 31.2 C 27.9 31.3 28.6 31.6 28.9 31.7 C 29.2 31.8 29.7 31.9 29.7 31.9 C 29.7 31.9 29.5 32.1 29.2 32.3 C 29.1 32.3 29 32.3 28.9 32.4 C 28.4 32.5 27.7 32.2 27.2 31.9 C 26.7 31.6 26.4 31.4 26 31.6 Z" fill="url(#gradient20)"/>
			<path d="M 26 31.6 C 26 31.6 26 31.6 26 31.6 C 26 31.6 26 31.6 26 31.6 C 25.9 31.7 25.8 31.9 25.7 32.3 C 25.6 32.4 25.5 32.5 25.5 32.6 C 25.5 32.6 25.5 32.6 25.5 32.6 C 25.8 32.8 26.1 33 26.1 33 C 26.4 32.8 26.6 32.5 26.7 32.2 C 26.7 32 26.8 31.8 26.9 31.7 C 26.6 31.5 26.3 31.5 26 31.6 Z" fill="url(#gradient21)"/>
			<path d="M 29.2 29.4 C 29.2 29.5 28.1 29.5 28.5 29.9 C 28.9 30.4 29.1 30.8 29 31.3 C 28.9 31.5 28.9 31.6 28.8 31.7 C 28.8 31.7 28.9 31.7 28.9 31.7 C 29.2 31.8 29.7 31.9 29.7 31.9 C 29.9 31.6 30 31.3 30 31 C 30 29.8 29.2 29.5 29.2 29.4 Z" fill="url(#gradient22)"/>
			<path d="M 23 11.2 C 23 11.2 22.5 10.6 21.8 9.1 C 21.1 9.8 20.5 10.6 20.4 10.8 C 20.3 10.8 20.3 10.9 20.3 10.9 C 20.1 11.1 20 11.3 19.9 11.5 C 19.7 11.9 19.6 12.4 19.5 12.9 C 19.3 14 19.3 15.1 19.4 16.1 C 19.5 17.7 19.9 19.2 20.5 20.6 C 21 21.6 21.5 22.5 22.1 23.3 C 22.4 23.7 22.8 24 23.1 24.4 C 23.4 24.6 23.7 24.8 24 24.9 C 24 24.9 24.7 25.3 25.5 25.4 L 25.7 22.5 C 25.7 22.5 23.7 21.5 22.6 18.1 C 21.2 13.7 23 11.2 23 11.2 Z" fill="url(#gradient23)"/>
			<path d="M 23.9 24.9 C 23.6 24.8 23.3 24.6 23 24.4 C 22.7 24 22.3 23.7 22 23.3 C 21.4 22.5 20.8 21.6 20.4 20.6 C 19.8 19.2 19.4 17.7 19.3 16.1 C 19.2 15.1 19.2 14 19.4 12.9 C 19.5 12.4 19.6 11.9 19.8 11.5 C 19.9 11.3 20 11.1 20.2 10.9 C 20.2 10.9 20.2 10.8 20.2 10.8 C 20.4 10.6 21 9.8 21.7 9.1 C 21.2 7.9 20.6 6.2 19.9 4 C 16.9 6.3 15.8 12.7 17.7 19.6 C 19.6 26.6 25.2 29.3 25.2 29.3 L 25.4 25.4 C 24.6 25.3 23.9 24.9 23.9 24.9 Z" fill="url(#gradient24)"/>
			<path d="M 24 24.8 C 24 24.8 24 24.8 24 24.8 C 23.8 24.7 23.6 24.6 23.4 24.5 C 23.1 24.2 22.8 23.9 22.5 23.6 C 21.9 22.9 21.5 22.1 21 21.3 C 20.6 20.4 20.3 19.5 20.1 18.6 C 19.9 17.9 19.7 17.3 19.7 16.6 C 19.6 16.1 19.6 15.6 19.6 15 C 19.5 14.5 19.6 13.9 19.6 13.4 C 19.7 12.8 19.8 12.3 20 11.8 C 20 11.6 20.1 11.4 20.2 11.2 C 20.3 11 20.4 10.9 20.4 10.8 C 20.4 10.8 20.4 10.8 20.4 10.8 C 20.3 10.8 20.3 10.9 20.3 10.9 C 20.1 11.1 20 11.3 19.9 11.5 C 19.7 11.9 19.6 12.4 19.5 12.9 C 19.3 14 19.3 15.1 19.4 16.1 C 19.5 17.7 19.9 19.2 20.5 20.6 C 21 21.6 21.5 22.5 22.1 23.3 C 22.4 23.7 22.8 24 23.1 24.4 C 23.4 24.6 23.7 24.8 24 24.9 C 24 24.9 24 24.9 24 24.8 Z" fill="url(#gradient25)"/>
			<path opacity="0.2" d="M 23.9 25.5 C 22.4 24.7 20.2 22.6 19.1 19.1 C 18.1 15.6 19.1 11.5 19.5 10.3 C 18.9 9.7 18.5 9 18.4 8.5 C 18.1 9.2 17.6 10.4 17.5 12 C 17.3 14 17.5 16.4 18.1 19 C 19.5 24.3 24.3 28 24.3 28 L 24.3 28 C 24 27.3 23.8 26.4 23.9 25.5 Z" fill="#0024e3"/>
			<path opacity="0.3" d="M 22.7 10.9 C 22.7 10.9 20.6 13.9 21.9 17.9 C 22 18.4 22.1 20.8 21.1 17 C 20.4 13.8 20.5 12.1 21.3 10.7 C 22.1 9.5 22.7 10.9 22.7 10.9 Z" fill="url(#gradient26)"/>
			<path opacity="0.3" d="M 24.2 24.7 C 24.2 24.7 20.4 22.7 20 16.8 C 20 16.4 20.2 15.3 20.5 16.8 C 20.8 18.3 22.6 23.1 25 23.3 C 27.4 23.5 24.2 24.7 24.2 24.7 Z" fill="url(#gradient27)"/>
			<path d="M 27.9 22.6 C 26.7 22.5 26.4 23.6 27.2 24.9 C 28 26.3 29.6 27.5 30.8 27.4 C 31.8 27.3 32 26.2 31.2 24.9 C 30.4 23.6 28.9 22.6 27.9 22.6 Z" fill="url(#gradient28)"/>
			<path d="M 28 23.1 C 27.1 23.1 27 24 27.7 25 C 28.4 26 29.6 26.8 30.4 26.7 C 31.2 26.7 31.3 25.9 30.7 24.9 C 30.1 23.9 28.9 23.1 28 23.1 Z" fill="url(#gradient29)"/>
			<path d="M 32 24.5 C 31.1 22.7 29.2 21.4 27.7 21.5 C 26.2 21.5 25.5 23 26.3 24.8 C 27.1 26.8 29.2 28.3 30.8 28.2 C 32.5 28.1 33 26.4 32 24.5 ZM 30.9 27.6 C 29.5 27.6 27.7 26.2 27 24.7 C 26.4 23.4 26.6 22.3 27.5 22.1 C 28.5 21.8 30.1 22.6 31.2 24 C 32.6 25.7 32.5 27.5 30.9 27.6 Z" fill="url(#gradient30)"/>
			<path d="M 25.3 10.5 C 23.9 10.6 22.3 9 21.6 6.9 C 21 4.8 21.6 2.9 23 2.7 C 23 2.7 20.8 3 19.4 4.5 C 18 6 18.1 7.7 18.2 8.5 C 18.4 9.3 19.4 10.6 20.9 11 C 22.3 11.4 24.2 11.4 25.3 10.5 C 25.3 10.5 25.3 10.5 25.3 10.5 Z" fill="url(#gradient31)"/>
			<path d="M 27.2 21.5 C 27.2 21.5 27.2 21.5 27.2 21.5 C 27.2 21.5 27.2 21.5 27.2 21.5 C 27.2 21.5 27.2 21.5 27.2 21.5 ZM 26.3 24.8 C 25.7 23.4 26 22.2 26.8 21.7 C 26.2 22 25 22.6 24.3 23.9 C 23.3 25.6 24 27.8 24.6 28.7 C 25.3 29.8 26.7 30.4 28.7 30 C 30.3 29.7 31.3 28.6 31.8 27.9 C 31.6 28.1 31.2 28.2 30.8 28.2 C 29.1 28.3 27.1 26.8 26.3 24.8 Z" fill="url(#gradient32)"/>
			<path d="M 28.1 24.2 C 28.1 24.3 28.1 24.3 28.1 24.4 C 28.1 24.4 28.2 24.4 28.3 24.4 C 28.3 24.4 28.3 24.3 28.3 24.3 C 28.2 24.2 28.1 24.2 28.1 24.2 ZM 28.8 24 C 28.7 24 28.7 24 28.8 24.1 C 28.8 24.1 28.9 24.1 28.9 24.1 C 29 24.1 29 24.1 28.9 24 C 28.9 24 28.8 23.9 28.8 24 ZM 28.5 24.1 C 28.4 24.1 28.4 24.2 28.5 24.2 C 28.5 24.3 28.6 24.3 28.6 24.3 C 28.6 24.2 28.6 24.2 28.6 24.2 C 28.6 24.1 28.5 24.1 28.5 24.1 ZM 29.4 24.4 C 29.4 24.4 29.4 24.3 29.4 24.3 C 29.3 24.2 29.3 24.2 29.2 24.2 C 29.2 24.2 29.2 24.3 29.3 24.3 C 29.3 24.4 29.4 24.4 29.4 24.4 ZM 29.1 24.5 C 29.1 24.5 29.1 24.5 29.1 24.4 C 29 24.4 29 24.4 28.9 24.4 C 28.9 24.4 28.9 24.4 28.9 24.5 C 29 24.5 29.1 24.6 29.1 24.5 ZM 28.8 24.7 C 28.8 24.7 28.8 24.6 28.8 24.6 C 28.7 24.5 28.6 24.5 28.6 24.5 C 28.6 24.5 28.6 24.6 28.6 24.6 C 28.7 24.7 28.7 24.7 28.8 24.7 ZM 28.4 24.9 C 28.5 24.8 28.5 24.8 28.4 24.7 C 28.4 24.7 28.3 24.7 28.3 24.7 C 28.2 24.7 28.2 24.8 28.3 24.8 C 28.3 24.9 28.4 24.9 28.4 24.9 ZM 29.7 24.5 C 29.7 24.5 29.7 24.5 29.7 24.5 C 29.7 24.5 29.7 24.5 29.7 24.5 C 29.7 24.5 29.7 24.6 29.7 24.6 C 29.8 24.6 29.8 24.7 29.9 24.7 C 29.9 24.7 29.9 24.7 29.9 24.7 C 29.9 24.7 29.9 24.7 29.9 24.6 C 29.9 24.6 29.9 24.6 29.8 24.5 C 29.8 24.5 29.8 24.5 29.7 24.5 ZM 29.4 24.6 C 29.4 24.6 29.4 24.6 29.4 24.6 C 29.4 24.6 29.4 24.6 29.4 24.6 C 29.4 24.7 29.4 24.7 29.4 24.8 C 29.5 24.8 29.5 24.8 29.6 24.8 C 29.6 24.8 29.6 24.8 29.6 24.8 C 29.6 24.8 29.6 24.8 29.6 24.8 C 29.6 24.8 29.6 24.7 29.6 24.7 C 29.5 24.7 29.5 24.6 29.4 24.6 ZM 28.8 25 C 28.8 25 28.8 25 28.8 25 C 28.8 25 28.8 25 28.8 25 C 28.7 25 28.7 25 28.8 25.1 C 28.8 25.1 28.9 25.2 28.9 25.2 C 28.9 25.2 28.9 25.1 28.9 25.1 C 28.9 25.1 28.9 25.1 28.9 25.1 C 29 25.1 29 25.1 28.9 25 C 28.9 25 28.8 25 28.8 25 ZM 28.4 25.1 C 28.4 25.1 28.4 25.1 28.4 25.1 C 28.4 25.1 28.4 25.1 28.4 25.2 C 28.4 25.2 28.4 25.2 28.4 25.3 C 28.5 25.3 28.5 25.3 28.6 25.3 C 28.6 25.3 28.6 25.3 28.6 25.3 C 28.6 25.3 28.6 25.3 28.6 25.3 C 28.6 25.3 28.6 25.2 28.6 25.2 C 28.5 25.2 28.5 25.1 28.4 25.1 ZM 30.1 25.3 C 30 25.4 30.1 25.4 30.1 25.5 C 30.1 25.5 30.2 25.5 30.2 25.5 C 30.3 25.5 30.3 25.4 30.2 25.4 C 30.2 25.3 30.1 25.3 30.1 25.3 ZM 29.5 25.7 C 29.4 25.7 29.4 25.8 29.5 25.9 C 29.5 25.9 29.6 25.9 29.6 25.9 C 29.7 25.9 29.7 25.8 29.6 25.8 C 29.6 25.7 29.5 25.7 29.5 25.7 ZM 29.1 24.8 C 29.1 24.8 29.1 24.8 29.1 24.8 C 29.1 24.8 29.1 24.8 29.1 24.8 C 29.1 24.8 29.1 24.9 29.1 24.9 C 29.2 25 29.2 25 29.2 25 C 29.3 25 29.3 25 29.3 25 C 29.3 25 29.3 25 29.3 25 C 29.3 24.9 29.3 24.9 29.3 24.9 C 29.2 24.8 29.1 24.8 29.1 24.8 ZM 29.8 25.5 C 29.7 25.6 29.8 25.6 29.8 25.7 C 29.8 25.7 29.9 25.7 29.9 25.7 C 30 25.7 30 25.6 29.9 25.6 C 29.9 25.5 29.8 25.5 29.8 25.5 ZM 28.9 25.4 C 28.9 25.5 28.9 25.5 29 25.6 C 29 25.6 29.1 25.6 29.1 25.6 C 29.2 25.6 29.1 25.5 29.1 25.5 C 29.1 25.4 29 25.4 28.9 25.4 ZM 29.3 25.3 C 29.2 25.3 29.2 25.3 29.3 25.4 C 29.3 25.4 29.4 25.5 29.4 25.4 C 29.5 25.4 29.5 25.3 29.4 25.3 C 29.4 25.3 29.3 25.2 29.3 25.3 ZM 29.6 25.1 C 29.6 25.1 29.6 25.1 29.6 25.2 C 29.7 25.2 29.7 25.3 29.8 25.2 C 29.8 25.2 29.8 25.2 29.7 25.1 C 29.7 25.1 29.6 25.1 29.6 25.1 ZM 29.9 24.9 C 29.9 24.9 29.9 25 29.9 25 C 30 25.1 30 25.1 30 25.1 C 30.1 25.1 30.1 25 30 25 C 30 24.9 29.9 24.9 29.9 24.9 Z" fill="#0090ff"/>
			<path d="M 29.6 25.9 C 29.6 25.9 29.5 25.9 29.5 25.9 C 29.4 25.8 29.4 25.8 29.4 25.8 C 29.4 25.7 29.4 25.7 29.5 25.7 C 29.5 25.7 29.6 25.7 29.6 25.8 C 29.6 25.8 29.7 25.8 29.7 25.9 C 29.7 25.9 29.7 25.9 29.6 25.9 C 29.6 25.9 29.6 25.9 29.6 25.9 ZM 29.5 25.7 C 29.5 25.7 29.5 25.7 29.5 25.7 C 29.5 25.7 29.4 25.8 29.4 25.8 C 29.4 25.8 29.5 25.8 29.5 25.9 C 29.5 25.9 29.6 25.9 29.6 25.9 C 29.6 25.9 29.6 25.9 29.6 25.9 C 29.6 25.9 29.6 25.9 29.7 25.9 C 29.7 25.8 29.6 25.8 29.6 25.8 C 29.6 25.7 29.5 25.7 29.5 25.7 ZM 29.9 25.7 L 29.9 25.7 C 29.9 25.7 29.8 25.7 29.8 25.7 C 29.8 25.6 29.8 25.6 29.8 25.6 C 29.8 25.5 29.8 25.5 29.8 25.5 C 29.8 25.5 29.9 25.5 29.9 25.6 C 30 25.6 30 25.6 30 25.7 C 30 25.7 30 25.7 30 25.7 C 29.9 25.7 29.9 25.7 29.9 25.7 ZM 29.8 25.5 C 29.8 25.5 29.8 25.5 29.8 25.5 C 29.8 25.5 29.8 25.6 29.8 25.6 C 29.8 25.6 29.8 25.6 29.8 25.7 C 29.8 25.7 29.9 25.7 29.9 25.7 C 30 25.7 30 25.7 30 25.7 C 30 25.6 29.9 25.6 29.9 25.6 C 29.9 25.5 29.8 25.5 29.8 25.5 ZM 30.2 25.5 C 30.2 25.5 30.1 25.5 30.1 25.5 C 30.1 25.4 30.1 25.4 30.1 25.4 C 30.1 25.4 30.1 25.3 30.1 25.3 C 30.1 25.3 30.2 25.3 30.2 25.4 C 30.3 25.4 30.3 25.5 30.3 25.5 C 30.3 25.5 30.3 25.5 30.2 25.5 C 30.2 25.5 30.2 25.5 30.2 25.5 ZM 30.1 25.3 C 30.1 25.4 30.1 25.4 30.1 25.4 C 30.1 25.4 30.1 25.4 30.1 25.4 C 30.1 25.4 30.1 25.4 30.1 25.5 C 30.1 25.5 30.2 25.5 30.2 25.5 L 30.2 25.5 C 30.2 25.5 30.2 25.5 30.2 25.5 C 30.2 25.5 30.3 25.5 30.3 25.5 C 30.3 25.5 30.2 25.4 30.2 25.4 C 30.2 25.4 30.1 25.3 30.1 25.3 ZM 29.1 25.6 C 29.1 25.7 29 25.6 28.9 25.6 C 28.9 25.5 28.9 25.5 28.9 25.5 C 28.9 25.5 28.9 25.4 28.9 25.4 C 29 25.4 29.1 25.4 29.1 25.5 C 29.1 25.5 29.1 25.5 29.1 25.6 C 29.1 25.6 29.1 25.6 29.1 25.6 C 29.1 25.6 29.1 25.6 29.1 25.6 ZM 29 25.4 C 29 25.4 28.9 25.4 28.9 25.4 C 28.9 25.5 28.9 25.5 28.9 25.5 C 28.9 25.5 28.9 25.5 29 25.6 C 29 25.6 29.1 25.6 29.1 25.6 L 29.1 25.6 C 29.1 25.6 29.1 25.6 29.1 25.6 C 29.1 25.6 29.1 25.6 29.1 25.6 C 29.1 25.6 29.1 25.5 29.1 25.5 C 29.1 25.5 29 25.4 29 25.4 ZM 29.4 25.4 C 29.4 25.5 29.3 25.4 29.3 25.4 C 29.3 25.4 29.2 25.3 29.2 25.3 C 29.2 25.3 29.3 25.3 29.3 25.2 C 29.3 25.2 29.4 25.2 29.4 25.3 C 29.5 25.3 29.5 25.4 29.5 25.4 C 29.5 25.4 29.5 25.4 29.4 25.4 C 29.4 25.4 29.4 25.4 29.4 25.4 ZM 29.3 25.3 C 29.3 25.3 29.3 25.3 29.3 25.3 C 29.3 25.3 29.3 25.3 29.3 25.3 C 29.3 25.3 29.3 25.3 29.3 25.4 C 29.3 25.4 29.4 25.4 29.4 25.4 C 29.5 25.4 29.5 25.4 29.5 25.4 C 29.5 25.4 29.4 25.3 29.4 25.3 C 29.4 25.3 29.3 25.2 29.3 25.3 ZM 29.8 25.3 C 29.7 25.3 29.7 25.2 29.6 25.2 C 29.6 25.2 29.6 25.1 29.6 25.1 C 29.6 25.1 29.6 25.1 29.6 25.1 C 29.6 25 29.7 25.1 29.7 25.1 C 29.8 25.1 29.8 25.2 29.8 25.2 C 29.8 25.2 29.8 25.2 29.8 25.3 C 29.8 25.3 29.8 25.3 29.8 25.3 ZM 29.6 25.1 C 29.6 25.1 29.6 25.1 29.6 25.1 C 29.6 25.1 29.6 25.1 29.6 25.1 C 29.6 25.1 29.6 25.2 29.6 25.2 C 29.7 25.2 29.7 25.3 29.7 25.2 L 29.7 25.2 C 29.7 25.2 29.8 25.2 29.8 25.2 C 29.8 25.2 29.8 25.2 29.8 25.2 C 29.8 25.2 29.8 25.2 29.7 25.1 C 29.7 25.1 29.6 25.1 29.6 25.1 ZM 30 25.1 L 30 25.1 C 30 25.1 29.9 25.1 29.9 25 C 29.9 25 29.9 25 29.9 24.9 C 29.9 24.9 29.9 24.9 29.9 24.9 C 29.9 24.9 30 24.9 30 25 C 30.1 25 30.1 25 30.1 25 C 30.1 25.1 30.1 25.1 30.1 25.1 C 30.1 25.1 30 25.1 30 25.1 ZM 29.9 24.9 C 29.9 24.9 29.9 24.9 29.9 24.9 C 29.9 24.9 29.9 24.9 29.9 24.9 C 29.9 25 29.9 25 29.9 25 C 30 25.1 30 25.1 30 25.1 C 30.1 25.1 30.1 25.1 30.1 25 C 30.1 25 30 25 30 25 C 30 24.9 29.9 24.9 29.9 24.9 ZM 28.6 25.3 L 28.6 25.3 C 28.6 25.3 28.6 25.3 28.6 25.3 C 28.5 25.4 28.5 25.3 28.4 25.3 C 28.4 25.3 28.4 25.2 28.4 25.2 C 28.4 25.2 28.4 25.2 28.4 25.1 C 28.4 25.1 28.4 25.1 28.4 25.1 C 28.4 25.1 28.4 25.1 28.4 25.1 C 28.5 25.1 28.5 25.1 28.6 25.2 C 28.6 25.2 28.6 25.3 28.6 25.3 C 28.6 25.3 28.6 25.3 28.6 25.3 C 28.6 25.3 28.6 25.3 28.6 25.3 C 28.6 25.3 28.6 25.3 28.6 25.3 ZM 28.4 25.2 C 28.4 25.2 28.4 25.2 28.4 25.2 C 28.4 25.2 28.4 25.2 28.4 25.2 C 28.4 25.2 28.4 25.2 28.4 25.2 C 28.4 25.2 28.4 25.2 28.4 25.3 C 28.5 25.3 28.5 25.3 28.6 25.3 C 28.6 25.3 28.6 25.3 28.6 25.3 C 28.6 25.3 28.6 25.3 28.6 25.3 C 28.6 25.3 28.6 25.3 28.6 25.3 C 28.6 25.3 28.6 25.2 28.6 25.2 C 28.5 25.2 28.5 25.1 28.4 25.2 C 28.4 25.2 28.4 25.2 28.4 25.2 ZM 28.9 25.2 C 28.9 25.2 28.9 25.2 28.9 25.2 C 28.9 25.2 28.8 25.1 28.8 25.1 C 28.7 25.1 28.7 25 28.7 25 C 28.7 25 28.7 25 28.8 25 C 28.8 25 28.8 25 28.8 25 C 28.8 25 28.8 25 28.8 25 L 28.8 25 C 28.8 24.9 28.9 25 28.9 25 C 29 25 29 25.1 29 25.1 C 29 25.1 29 25.1 29 25.1 C 28.9 25.1 28.9 25.2 28.9 25.2 C 28.9 25.2 28.9 25.2 28.9 25.2 ZM 28.8 25 C 28.8 25 28.8 25 28.8 25 C 28.8 25 28.8 25 28.8 25 C 28.8 25 28.7 25 28.7 25 C 28.7 25 28.8 25.1 28.8 25.1 C 28.8 25.1 28.9 25.2 28.9 25.1 C 28.9 25.1 28.9 25.1 28.9 25.1 C 28.9 25.1 28.9 25.1 28.9 25.1 C 28.9 25.1 29 25.1 29 25.1 C 29 25.1 28.9 25 28.9 25 C 28.9 25 28.8 25 28.8 25 L 28.8 25 ZM 29.3 25 C 29.3 25 29.3 25 29.3 25 C 29.2 25 29.2 25 29.1 24.9 C 29.1 24.9 29.1 24.9 29.1 24.8 C 29.1 24.8 29.1 24.8 29.1 24.8 C 29.1 24.8 29.1 24.8 29.1 24.8 C 29.1 24.8 29.1 24.8 29.1 24.8 L 29.1 24.8 C 29.1 24.8 29.2 24.8 29.3 24.8 C 29.3 24.9 29.3 24.9 29.3 24.9 C 29.3 24.9 29.3 25 29.3 25 C 29.3 25 29.3 25 29.3 25 C 29.3 25 29.3 25 29.3 25 ZM 29.1 24.8 C 29.1 24.8 29.1 24.8 29.1 24.8 C 29.1 24.8 29.1 24.8 29.1 24.8 C 29.1 24.8 29.1 24.8 29.1 24.8 C 29.1 24.9 29.1 24.9 29.1 24.9 C 29.2 25 29.2 25 29.2 25 C 29.3 25 29.3 25 29.3 25 C 29.3 25 29.3 25 29.3 25 C 29.3 24.9 29.3 24.9 29.3 24.9 C 29.3 24.9 29.3 24.9 29.2 24.9 C 29.2 24.8 29.1 24.8 29.1 24.8 L 29.1 24.8 ZM 29.6 24.8 C 29.6 24.8 29.6 24.8 29.6 24.8 C 29.5 24.8 29.5 24.8 29.4 24.8 C 29.4 24.7 29.4 24.7 29.4 24.7 C 29.4 24.7 29.4 24.6 29.4 24.6 C 29.4 24.6 29.4 24.6 29.4 24.6 C 29.4 24.6 29.4 24.6 29.4 24.6 C 29.5 24.6 29.5 24.6 29.6 24.7 C 29.6 24.7 29.6 24.7 29.6 24.8 C 29.6 24.8 29.6 24.8 29.6 24.8 C 29.6 24.8 29.6 24.8 29.6 24.8 C 29.6 24.8 29.6 24.8 29.6 24.8 ZM 29.4 24.6 C 29.4 24.7 29.4 24.7 29.4 24.7 C 29.4 24.7 29.4 24.7 29.4 24.7 C 29.4 24.7 29.4 24.7 29.4 24.7 C 29.4 24.7 29.4 24.7 29.4 24.8 C 29.5 24.8 29.5 24.8 29.6 24.8 C 29.6 24.8 29.6 24.8 29.6 24.8 C 29.6 24.8 29.6 24.8 29.6 24.8 C 29.6 24.8 29.6 24.8 29.6 24.8 C 29.6 24.7 29.6 24.7 29.6 24.7 C 29.5 24.7 29.5 24.6 29.4 24.6 C 29.4 24.6 29.4 24.6 29.4 24.6 ZM 29.9 24.7 C 29.9 24.7 29.9 24.7 29.9 24.7 C 29.8 24.7 29.8 24.7 29.7 24.6 C 29.7 24.6 29.7 24.6 29.7 24.5 C 29.7 24.5 29.7 24.5 29.7 24.5 C 29.7 24.5 29.7 24.5 29.7 24.5 C 29.7 24.5 29.7 24.5 29.7 24.5 C 29.8 24.5 29.8 24.5 29.9 24.5 C 29.9 24.6 29.9 24.6 29.9 24.6 C 29.9 24.6 29.9 24.6 29.9 24.7 C 29.9 24.7 29.9 24.7 29.9 24.7 C 29.9 24.7 29.9 24.7 29.9 24.7 ZM 29.7 24.5 C 29.7 24.5 29.7 24.5 29.7 24.5 C 29.7 24.5 29.7 24.5 29.7 24.5 C 29.7 24.5 29.7 24.5 29.7 24.5 C 29.7 24.6 29.7 24.6 29.7 24.6 C 29.8 24.6 29.8 24.7 29.8 24.7 C 29.9 24.6 29.9 24.6 29.9 24.6 C 29.9 24.6 29.9 24.6 29.9 24.6 C 29.9 24.6 29.9 24.6 29.9 24.6 C 29.9 24.6 29.9 24.6 29.8 24.6 C 29.8 24.5 29.8 24.5 29.7 24.5 ZM 28.4 24.9 C 28.4 24.9 28.3 24.9 28.3 24.8 C 28.2 24.8 28.2 24.8 28.2 24.7 C 28.2 24.7 28.2 24.7 28.2 24.7 C 28.3 24.7 28.4 24.7 28.4 24.7 C 28.4 24.8 28.5 24.8 28.4 24.8 C 28.4 24.8 28.4 24.9 28.4 24.9 C 28.4 24.9 28.4 24.9 28.4 24.9 ZM 28.3 24.7 C 28.3 24.7 28.3 24.7 28.3 24.7 C 28.2 24.7 28.2 24.7 28.2 24.7 C 28.2 24.7 28.2 24.8 28.3 24.8 C 28.3 24.8 28.4 24.9 28.4 24.8 C 28.4 24.8 28.4 24.8 28.4 24.8 C 28.4 24.8 28.4 24.8 28.4 24.7 C 28.4 24.7 28.3 24.7 28.3 24.7 ZM 28.8 24.7 C 28.7 24.7 28.7 24.7 28.6 24.6 C 28.6 24.6 28.6 24.6 28.6 24.6 C 28.6 24.5 28.6 24.5 28.6 24.5 C 28.6 24.5 28.6 24.5 28.6 24.5 C 28.6 24.5 28.7 24.5 28.8 24.6 C 28.8 24.6 28.8 24.6 28.8 24.7 C 28.8 24.7 28.8 24.7 28.8 24.7 C 28.8 24.7 28.8 24.7 28.8 24.7 ZM 28.6 24.5 L 28.6 24.5 C 28.6 24.5 28.6 24.5 28.6 24.6 C 28.6 24.6 28.6 24.6 28.6 24.6 C 28.7 24.7 28.7 24.7 28.8 24.7 C 28.8 24.7 28.8 24.7 28.8 24.7 C 28.8 24.6 28.8 24.6 28.8 24.6 C 28.7 24.5 28.6 24.5 28.6 24.5 ZM 29.1 24.5 C 29.1 24.6 29 24.5 28.9 24.5 C 28.9 24.5 28.9 24.4 28.9 24.4 C 28.9 24.4 28.9 24.4 28.9 24.4 C 29 24.3 29 24.4 29.1 24.4 C 29.1 24.4 29.1 24.5 29.1 24.5 C 29.1 24.5 29.1 24.5 29.1 24.5 C 29.1 24.5 29.1 24.5 29.1 24.5 ZM 28.9 24.4 L 28.9 24.4 C 28.9 24.4 28.9 24.4 28.9 24.4 C 28.9 24.4 28.9 24.5 29 24.5 C 29 24.5 29 24.5 29.1 24.5 L 29.1 24.5 C 29.1 24.5 29.1 24.5 29.1 24.5 C 29.1 24.5 29.1 24.5 29.1 24.5 C 29.1 24.5 29.1 24.5 29.1 24.4 C 29 24.4 29 24.4 28.9 24.4 ZM 29.4 24.4 C 29.4 24.4 29.3 24.4 29.3 24.3 C 29.2 24.3 29.2 24.3 29.2 24.3 C 29.2 24.2 29.2 24.2 29.2 24.2 L 29.2 24.2 C 29.3 24.2 29.3 24.2 29.4 24.3 C 29.4 24.3 29.4 24.3 29.4 24.4 C 29.4 24.4 29.4 24.4 29.4 24.4 C 29.4 24.4 29.4 24.4 29.4 24.4 ZM 29.3 24.2 L 29.3 24.2 C 29.2 24.2 29.2 24.3 29.2 24.3 C 29.2 24.3 29.2 24.3 29.3 24.3 C 29.3 24.4 29.4 24.4 29.4 24.4 C 29.4 24.4 29.4 24.4 29.4 24.4 C 29.4 24.3 29.4 24.3 29.4 24.3 C 29.3 24.3 29.3 24.2 29.3 24.2 ZM 28.3 24.4 C 28.2 24.4 28.1 24.4 28.1 24.4 C 28.1 24.3 28.1 24.3 28.1 24.3 C 28.1 24.3 28.1 24.2 28.1 24.2 C 28.1 24.2 28.2 24.2 28.3 24.3 C 28.3 24.3 28.3 24.3 28.3 24.4 C 28.3 24.4 28.3 24.4 28.3 24.4 L 28.3 24.4 ZM 28.1 24.2 C 28.1 24.3 28.1 24.3 28.1 24.3 C 28.1 24.3 28.1 24.3 28.1 24.3 C 28.1 24.4 28.2 24.4 28.3 24.4 L 28.3 24.4 C 28.3 24.4 28.3 24.4 28.3 24.4 C 28.3 24.3 28.3 24.3 28.2 24.3 C 28.2 24.3 28.1 24.2 28.1 24.2 ZM 28.6 24.3 C 28.6 24.3 28.5 24.3 28.5 24.2 C 28.4 24.2 28.4 24.2 28.4 24.1 C 28.4 24.1 28.4 24.1 28.4 24.1 C 28.5 24.1 28.6 24.1 28.6 24.1 C 28.6 24.2 28.6 24.2 28.6 24.2 C 28.6 24.2 28.6 24.3 28.6 24.3 L 28.6 24.3 ZM 28.5 24.1 C 28.4 24.1 28.4 24.1 28.4 24.1 C 28.4 24.2 28.4 24.2 28.5 24.2 C 28.5 24.2 28.6 24.3 28.6 24.3 L 28.6 24.3 C 28.6 24.2 28.6 24.2 28.6 24.2 C 28.6 24.2 28.6 24.2 28.6 24.2 C 28.6 24.1 28.5 24.1 28.5 24.1 ZM 28.9 24.1 C 28.9 24.1 28.8 24.1 28.8 24.1 C 28.8 24.1 28.7 24 28.7 24 C 28.7 24 28.8 24 28.8 24 C 28.8 23.9 28.9 24 28.9 24 C 29 24 29 24.1 29 24.1 C 29 24.1 29 24.1 28.9 24.1 L 28.9 24.1 ZM 28.8 24 C 28.8 24 28.8 24 28.8 24 C 28.8 24 28.8 24 28.8 24.1 C 28.8 24.1 28.9 24.1 28.9 24.1 L 28.9 24.1 C 28.9 24.1 28.9 24.1 28.9 24.1 C 28.9 24.1 28.9 24 28.9 24 C 28.9 24 28.8 24 28.8 24 Z" fill="#0090ff"/>
			<path d="M 28.1 24.2 C 28 24.2 28 24.3 28.1 24.3 C 28.1 24.4 28.2 24.4 28.2 24.4 C 28.3 24.4 28.3 24.3 28.2 24.3 C 28.2 24.2 28.1 24.2 28.1 24.2 ZM 28.8 24 C 28.7 24 28.7 24 28.8 24.1 C 28.8 24.1 28.9 24.1 28.9 24.1 C 29 24.1 28.9 24.1 28.9 24 C 28.9 24 28.8 23.9 28.8 24 ZM 28.4 24.1 C 28.4 24.1 28.4 24.2 28.4 24.2 C 28.5 24.2 28.6 24.3 28.6 24.3 C 28.6 24.2 28.6 24.2 28.6 24.1 C 28.5 24.1 28.5 24.1 28.4 24.1 ZM 29.4 24.4 C 29.4 24.4 29.4 24.3 29.4 24.3 C 29.3 24.2 29.3 24.2 29.2 24.2 C 29.2 24.2 29.2 24.3 29.2 24.3 C 29.3 24.4 29.4 24.4 29.4 24.4 ZM 29.1 24.5 C 29.1 24.5 29.1 24.5 29.1 24.4 C 29 24.4 29 24.3 28.9 24.4 C 28.9 24.4 28.9 24.4 28.9 24.5 C 29 24.5 29 24.5 29.1 24.5 ZM 28.8 24.7 C 28.8 24.7 28.8 24.6 28.7 24.6 C 28.7 24.5 28.6 24.5 28.6 24.5 C 28.6 24.5 28.6 24.6 28.6 24.6 C 28.6 24.7 28.7 24.7 28.8 24.7 ZM 28.4 24.8 C 28.4 24.8 28.4 24.8 28.4 24.7 C 28.3 24.7 28.3 24.7 28.2 24.7 C 28.2 24.7 28.2 24.7 28.2 24.8 C 28.3 24.8 28.4 24.9 28.4 24.8 ZM 29.7 24.5 C 29.7 24.5 29.7 24.5 29.7 24.5 C 29.7 24.5 29.7 24.5 29.7 24.5 C 29.7 24.5 29.7 24.6 29.7 24.6 C 29.8 24.6 29.8 24.7 29.8 24.6 C 29.8 24.6 29.8 24.6 29.9 24.6 C 29.9 24.6 29.9 24.6 29.9 24.6 C 29.9 24.6 29.9 24.6 29.8 24.5 C 29.8 24.5 29.7 24.5 29.7 24.5 ZM 29.4 24.6 C 29.4 24.6 29.4 24.6 29.4 24.6 C 29.4 24.6 29.4 24.6 29.4 24.6 C 29.4 24.7 29.4 24.7 29.4 24.7 C 29.5 24.8 29.5 24.8 29.5 24.8 C 29.6 24.8 29.6 24.8 29.6 24.8 C 29.6 24.8 29.6 24.8 29.6 24.8 C 29.6 24.8 29.6 24.7 29.5 24.7 C 29.5 24.6 29.4 24.6 29.4 24.6 ZM 28.8 25 C 28.8 25 28.8 25 28.8 25 C 28.8 25 28.8 25 28.7 25 C 28.7 25 28.7 25 28.8 25.1 C 28.8 25.1 28.9 25.2 28.9 25.1 C 28.9 25.1 28.9 25.1 28.9 25.1 C 28.9 25.1 28.9 25.1 28.9 25.1 C 29 25.1 28.9 25.1 28.9 25 C 28.9 25 28.8 24.9 28.8 25 ZM 28.4 25.1 C 28.4 25.1 28.4 25.1 28.4 25.1 C 28.4 25.1 28.4 25.1 28.4 25.1 C 28.4 25.2 28.4 25.2 28.4 25.3 C 28.4 25.3 28.5 25.3 28.5 25.3 C 28.6 25.3 28.6 25.3 28.6 25.3 C 28.6 25.3 28.6 25.3 28.6 25.3 C 28.6 25.3 28.6 25.2 28.6 25.2 C 28.5 25.1 28.4 25.1 28.4 25.1 ZM 30.1 25.3 C 30 25.4 30 25.4 30.1 25.5 C 30.1 25.5 30.2 25.5 30.2 25.5 C 30.3 25.5 30.3 25.4 30.2 25.4 C 30.2 25.3 30.1 25.3 30.1 25.3 ZM 29.5 25.7 C 29.4 25.7 29.4 25.8 29.5 25.9 C 29.5 25.9 29.6 25.9 29.6 25.9 C 29.7 25.9 29.7 25.8 29.6 25.8 C 29.6 25.7 29.5 25.7 29.5 25.7 ZM 29.1 24.8 C 29.1 24.8 29.1 24.8 29.1 24.8 C 29.1 24.8 29.1 24.8 29.1 24.8 C 29.1 24.8 29.1 24.9 29.1 24.9 C 29.1 25 29.2 25 29.2 25 C 29.2 25 29.2 25 29.3 25 C 29.3 25 29.3 25 29.3 25 C 29.3 24.9 29.3 24.9 29.2 24.8 C 29.2 24.8 29.1 24.8 29.1 24.8 ZM 29.8 25.5 C 29.7 25.5 29.7 25.6 29.8 25.6 C 29.8 25.7 29.9 25.7 29.9 25.7 C 30 25.7 30 25.6 29.9 25.6 C 29.9 25.5 29.8 25.5 29.8 25.5 ZM 28.9 25.4 C 28.9 25.5 28.9 25.5 28.9 25.6 C 29 25.6 29.1 25.6 29.1 25.6 C 29.1 25.6 29.1 25.5 29.1 25.5 C 29 25.4 29 25.4 28.9 25.4 ZM 29.3 25.2 C 29.2 25.3 29.2 25.3 29.3 25.4 C 29.3 25.4 29.4 25.4 29.4 25.4 C 29.5 25.4 29.5 25.3 29.4 25.3 C 29.4 25.2 29.3 25.2 29.3 25.2 ZM 29.6 25.1 C 29.5 25.1 29.6 25.1 29.6 25.2 C 29.6 25.2 29.7 25.3 29.7 25.2 C 29.8 25.2 29.8 25.2 29.7 25.1 C 29.7 25.1 29.6 25 29.6 25.1 ZM 29.9 24.9 C 29.8 24.9 29.9 25 29.9 25 C 29.9 25.1 30 25.1 30 25.1 C 30.1 25 30.1 25 30 24.9 C 30 24.9 29.9 24.9 29.9 24.9 Z" fill="#000000"/>
			<path d="M 23.2 3.9 C 22.3 3.8 21.9 5 22.3 6.6 C 22.8 8.3 24.1 9.6 25 9.6 C 26 9.5 26.3 8.1 25.7 6.6 C 25.2 5.1 24.1 3.9 23.2 3.9 Z" fill="url(#gradient33)"/>
			<path d="M 23.6 4.9 C 23.1 4.9 22.9 5.7 23.2 6.6 C 23.5 7.5 24.3 8.3 24.8 8.2 C 25.3 8.1 25.4 7.3 25 6.4 C 24.7 5.6 24.1 4.9 23.6 4.9 Z" fill="url(#gradient34)"/>
			<path d="M 31.2 24 C 30.1 22.6 28.5 21.8 27.5 22.1 C 26.6 22.3 26.4 23.4 27 24.7 C 27.7 26.2 29.5 27.6 30.9 27.6 C 32.5 27.5 32.6 25.7 31.2 24 ZM 30.7 27.4 C 29.6 27.5 28 26.3 27.2 24.9 C 26.4 23.6 26.7 22.5 27.9 22.6 C 28.9 22.6 30.4 23.6 31.2 24.9 C 32 26.2 31.8 27.3 30.7 27.4 Z" fill="url(#gradient35)"/>
			<path d="M 26.4 6.3 C 25.8 4.7 24.6 3.4 23.5 3.4 C 22.4 3.4 21.8 4.7 22.2 6.5 C 22.7 8.4 24.2 9.9 25.5 9.8 C 26.6 9.6 27 8 26.4 6.3 ZM 25 9.6 C 24.1 9.6 22.8 8.3 22.3 6.6 C 21.8 5 22.3 3.8 23.2 3.9 C 24.1 3.9 25.3 5.1 25.8 6.6 C 26.3 8.1 26 9.5 25 9.6 Z" fill="url(#gradient36)"/>
			<path d="M 26.8 6.4 C 26.1 4.2 24.4 2.6 23 2.7 C 21.6 2.9 21 4.8 21.6 6.9 C 22.3 9 23.9 10.6 25.3 10.5 C 26.7 10.4 27.4 8.6 26.8 6.4 Z" fill="url(#gradient37)"/>
			<path d="M 24.3 6.2 C 24.3 6.2 24.3 6.1 24.3 6.1 C 24.3 6 24.2 6 24.2 6 C 24.1 6 24.1 6 24.1 6.1 C 24.2 6.1 24.2 6.2 24.3 6.2 ZM 23.8 6.3 C 23.9 6.2 23.9 6.2 23.9 6.1 C 23.9 6.1 23.8 6 23.8 6 C 23.7 6 23.7 6.1 23.7 6.2 C 23.7 6.2 23.8 6.3 23.8 6.3 ZM 24.6 6.4 C 24.6 6.4 24.6 6.4 24.6 6.4 C 24.6 6.4 24.6 6.4 24.6 6.4 C 24.5 6.4 24.5 6.4 24.5 6.5 C 24.5 6.6 24.6 6.6 24.6 6.6 C 24.6 6.6 24.7 6.6 24.7 6.6 C 24.7 6.6 24.7 6.6 24.7 6.6 C 24.7 6.6 24.7 6.5 24.7 6.5 C 24.7 6.4 24.6 6.4 24.6 6.4 ZM 23.7 6.5 C 23.7 6.5 23.7 6.5 23.7 6.5 C 23.7 6.5 23.7 6.5 23.7 6.5 C 23.6 6.6 23.6 6.6 23.6 6.7 C 23.7 6.7 23.7 6.8 23.8 6.8 C 23.8 6.8 23.8 6.8 23.8 6.8 C 23.8 6.8 23.8 6.8 23.8 6.8 C 23.8 6.8 23.9 6.7 23.8 6.6 C 23.8 6.6 23.8 6.5 23.7 6.5 ZM 24.2 6.5 C 24.1 6.5 24.1 6.5 24.1 6.5 C 24.1 6.5 24.1 6.5 24.1 6.5 C 24.1 6.5 24.1 6.5 24.1 6.6 C 24.1 6.6 24.2 6.7 24.2 6.7 C 24.2 6.7 24.2 6.7 24.2 6.7 C 24.2 6.7 24.2 6.7 24.2 6.7 C 24.3 6.7 24.3 6.6 24.3 6.6 C 24.3 6.5 24.2 6.5 24.2 6.5 ZM 24.1 7 C 24.1 7 24 7.1 24.1 7.1 C 24.1 7.2 24.1 7.3 24.2 7.3 C 24.2 7.2 24.3 7.2 24.2 7.1 C 24.2 7 24.2 7 24.1 7 ZM 24.6 6.9 C 24.5 6.9 24.5 7 24.5 7 C 24.5 7.1 24.6 7.2 24.6 7.1 C 24.7 7.1 24.7 7.1 24.7 7 C 24.7 6.9 24.6 6.9 24.6 6.9 Z" fill="#0090ff"/>
			<path d="M 24.2 7.3 C 24.1 7.3 24.1 7.2 24 7.2 C 24 7.1 24 7.1 24.1 7 C 24.1 7 24.1 7 24.1 7 C 24.2 7 24.2 7 24.3 7.1 C 24.3 7.1 24.3 7.2 24.2 7.2 C 24.2 7.2 24.2 7.3 24.2 7.3 C 24.2 7.3 24.2 7.3 24.2 7.3 ZM 24.1 7 C 24.1 7 24.1 7 24.1 7 C 24.1 7 24.1 7 24.1 7 C 24 7.1 24 7.1 24.1 7.1 C 24.1 7.2 24.1 7.3 24.2 7.2 C 24.2 7.2 24.2 7.2 24.2 7.2 C 24.2 7.2 24.3 7.1 24.2 7.1 C 24.2 7 24.2 7 24.1 7 ZM 24.6 7.2 C 24.6 7.2 24.5 7.1 24.5 7 C 24.5 7 24.5 7 24.5 6.9 C 24.5 6.9 24.5 6.9 24.6 6.9 C 24.6 6.9 24.7 6.9 24.7 7 C 24.7 7 24.7 7.1 24.7 7.1 C 24.7 7.1 24.7 7.1 24.6 7.2 C 24.6 7.2 24.6 7.2 24.6 7.2 ZM 24.6 6.9 C 24.6 6.9 24.6 6.9 24.6 6.9 C 24.5 6.9 24.5 6.9 24.5 6.9 C 24.5 7 24.5 7 24.5 7 C 24.5 7.1 24.6 7.1 24.6 7.1 C 24.7 7.1 24.7 7.1 24.7 7.1 C 24.7 7.1 24.7 7 24.7 7 C 24.7 6.9 24.6 6.9 24.6 6.9 ZM 23.8 6.8 C 23.8 6.8 23.8 6.8 23.8 6.8 C 23.7 6.8 23.6 6.7 23.6 6.7 C 23.6 6.6 23.6 6.6 23.6 6.6 C 23.6 6.6 23.7 6.5 23.7 6.5 C 23.7 6.5 23.7 6.5 23.7 6.5 L 23.7 6.5 C 23.7 6.5 23.7 6.5 23.7 6.5 C 23.8 6.5 23.8 6.6 23.8 6.6 C 23.9 6.7 23.9 6.7 23.8 6.7 C 23.8 6.8 23.8 6.8 23.8 6.8 C 23.8 6.8 23.8 6.8 23.8 6.8 C 23.8 6.8 23.8 6.8 23.8 6.8 ZM 23.7 6.5 L 23.7 6.5 C 23.7 6.5 23.7 6.6 23.7 6.6 C 23.7 6.6 23.7 6.6 23.6 6.6 C 23.6 6.6 23.6 6.6 23.6 6.7 C 23.7 6.7 23.7 6.8 23.8 6.8 C 23.8 6.8 23.8 6.8 23.8 6.8 L 23.8 6.8 C 23.8 6.8 23.8 6.8 23.8 6.8 C 23.8 6.8 23.8 6.7 23.8 6.7 C 23.8 6.7 23.8 6.7 23.8 6.6 C 23.8 6.6 23.7 6.5 23.7 6.5 C 23.7 6.5 23.7 6.5 23.7 6.5 ZM 24.2 6.7 C 24.2 6.7 24.2 6.7 24.2 6.7 C 24.2 6.7 24.1 6.7 24.1 6.6 C 24.1 6.6 24.1 6.5 24.1 6.5 C 24.1 6.5 24.1 6.5 24.1 6.5 C 24.1 6.5 24.1 6.5 24.1 6.4 L 24.1 6.4 C 24.1 6.4 24.2 6.4 24.2 6.4 C 24.2 6.4 24.3 6.5 24.3 6.6 C 24.3 6.6 24.3 6.6 24.3 6.7 C 24.3 6.7 24.3 6.7 24.3 6.7 C 24.2 6.7 24.2 6.7 24.2 6.7 C 24.2 6.7 24.2 6.7 24.2 6.7 ZM 24.1 6.5 C 24.1 6.5 24.1 6.5 24.1 6.5 C 24.1 6.5 24.1 6.5 24.1 6.5 C 24.1 6.5 24.1 6.6 24.1 6.6 C 24.1 6.6 24.2 6.7 24.2 6.7 C 24.2 6.7 24.2 6.7 24.2 6.7 L 24.2 6.7 C 24.2 6.7 24.2 6.7 24.2 6.7 C 24.3 6.7 24.3 6.7 24.3 6.6 C 24.3 6.6 24.3 6.6 24.3 6.6 C 24.2 6.5 24.2 6.5 24.2 6.5 C 24.1 6.5 24.1 6.5 24.1 6.5 ZM 24.7 6.6 C 24.7 6.6 24.6 6.6 24.6 6.6 C 24.6 6.6 24.5 6.6 24.5 6.5 C 24.5 6.5 24.5 6.4 24.5 6.4 C 24.5 6.4 24.5 6.4 24.6 6.4 C 24.6 6.4 24.6 6.4 24.6 6.4 L 24.6 6.4 C 24.6 6.4 24.6 6.4 24.6 6.4 C 24.6 6.4 24.7 6.4 24.7 6.5 C 24.7 6.5 24.7 6.5 24.7 6.6 C 24.7 6.6 24.7 6.6 24.7 6.6 C 24.7 6.6 24.7 6.6 24.7 6.6 L 24.7 6.6 ZM 24.6 6.4 C 24.6 6.4 24.6 6.4 24.6 6.4 C 24.6 6.4 24.5 6.4 24.5 6.4 C 24.5 6.4 24.5 6.5 24.5 6.5 C 24.6 6.6 24.6 6.6 24.6 6.6 C 24.6 6.6 24.7 6.6 24.7 6.6 L 24.7 6.6 C 24.7 6.6 24.7 6.6 24.7 6.6 C 24.7 6.6 24.7 6.6 24.7 6.6 C 24.7 6.5 24.7 6.5 24.7 6.5 C 24.7 6.4 24.6 6.4 24.6 6.4 C 24.6 6.4 24.6 6.4 24.6 6.4 ZM 23.8 6.3 C 23.8 6.3 23.7 6.2 23.7 6.2 C 23.7 6.1 23.7 6.1 23.7 6.1 C 23.7 6 23.7 6 23.8 6 C 23.8 6 23.9 6.1 23.9 6.1 C 23.9 6.2 23.9 6.2 23.9 6.2 C 23.9 6.2 23.9 6.3 23.8 6.3 L 23.8 6.3 ZM 23.8 6 C 23.7 6 23.7 6.1 23.7 6.1 C 23.7 6.1 23.7 6.1 23.7 6.2 C 23.7 6.2 23.8 6.2 23.8 6.2 L 23.8 6.3 L 23.8 6.2 C 23.8 6.2 23.9 6.2 23.9 6.2 C 23.9 6.2 23.9 6.2 23.9 6.1 C 23.9 6.1 23.8 6 23.8 6 ZM 24.3 6.2 C 24.2 6.2 24.1 6.2 24.1 6.1 C 24.1 6.1 24.1 6 24.1 6 C 24.1 6 24.2 6 24.2 6 C 24.2 6 24.3 6 24.3 6.1 C 24.3 6.1 24.3 6.1 24.3 6.2 C 24.3 6.2 24.3 6.2 24.3 6.2 L 24.3 6.2 ZM 24.2 6 C 24.2 6 24.2 6 24.1 6 C 24.1 6 24.1 6 24.1 6.1 C 24.2 6.1 24.2 6.2 24.3 6.2 L 24.3 6.2 L 24.3 6.2 C 24.3 6.2 24.3 6.2 24.3 6.1 C 24.3 6.1 24.3 6.1 24.3 6.1 C 24.3 6 24.2 6 24.2 6 Z" fill="#0090ff"/>
			<path d="M 24.3 6.2 C 24.3 6.2 24.3 6.1 24.3 6 C 24.3 6 24.2 5.9 24.2 6 C 24.1 6 24.1 6 24.1 6.1 C 24.1 6.1 24.2 6.2 24.3 6.2 ZM 23.8 6.2 C 23.9 6.2 23.9 6.2 23.9 6.1 C 23.9 6.1 23.8 6 23.7 6 C 23.7 6 23.7 6.1 23.7 6.1 C 23.7 6.2 23.8 6.2 23.8 6.2 ZM 24.6 6.4 C 24.6 6.4 24.6 6.4 24.6 6.4 C 24.6 6.4 24.6 6.4 24.6 6.4 C 24.5 6.4 24.5 6.4 24.5 6.5 C 24.5 6.6 24.6 6.6 24.6 6.6 C 24.6 6.6 24.6 6.6 24.7 6.6 C 24.7 6.6 24.7 6.6 24.7 6.6 C 24.7 6.6 24.7 6.5 24.7 6.5 C 24.7 6.4 24.6 6.4 24.6 6.4 ZM 23.7 6.5 C 23.7 6.5 23.7 6.5 23.7 6.5 C 23.7 6.5 23.7 6.5 23.7 6.5 C 23.6 6.5 23.6 6.6 23.6 6.7 C 23.6 6.7 23.7 6.8 23.7 6.8 C 23.8 6.8 23.8 6.8 23.8 6.8 C 23.8 6.8 23.8 6.8 23.8 6.8 C 23.8 6.7 23.8 6.7 23.8 6.6 C 23.8 6.6 23.7 6.5 23.7 6.5 ZM 24.1 6.4 C 24.1 6.4 24.1 6.4 24.1 6.4 C 24.1 6.4 24.1 6.4 24.1 6.4 C 24.1 6.5 24.1 6.5 24.1 6.6 C 24.1 6.6 24.2 6.7 24.2 6.7 C 24.2 6.7 24.2 6.7 24.2 6.7 C 24.2 6.7 24.2 6.7 24.2 6.7 C 24.3 6.7 24.3 6.6 24.3 6.5 C 24.2 6.5 24.2 6.4 24.1 6.4 ZM 24.1 7 C 24 7 24 7.1 24 7.1 C 24.1 7.2 24.1 7.3 24.2 7.2 C 24.2 7.2 24.3 7.2 24.2 7.1 C 24.2 7 24.1 7 24.1 7 ZM 24.5 6.9 C 24.5 6.9 24.5 7 24.5 7 C 24.5 7.1 24.6 7.1 24.6 7.1 C 24.7 7.1 24.7 7.1 24.7 7 C 24.7 6.9 24.6 6.9 24.5 6.9 Z" fill="#000000"/>
			<path d="M 25.8 6.6 C 25.3 5.1 24.2 3.9 23.2 3.8 C 22.3 3.8 21.8 5 22.3 6.6 C 22.8 8.3 24.1 9.7 25.1 9.6 C 26.1 9.5 26.4 8.2 25.8 6.6 ZM 25 9.6 C 24.1 9.6 22.8 8.3 22.3 6.6 C 21.9 5 22.3 3.8 23.2 3.9 C 24.1 3.9 25.2 5.1 25.7 6.6 C 26.3 8.1 26 9.5 25 9.6 Z" fill="#000000"/>
			<path d="M 31.3 24.9 C 30.5 23.6 29 22.6 27.9 22.5 C 26.7 22.5 26.3 23.5 27.1 24.9 C 28 26.4 29.7 27.5 30.8 27.4 C 32 27.4 32.2 26.2 31.3 24.9 ZM 30.8 27.4 C 29.6 27.5 28 26.3 27.2 24.9 C 26.4 23.6 26.7 22.5 27.9 22.6 C 28.9 22.6 30.4 23.6 31.2 24.9 C 32 26.2 31.8 27.3 30.8 27.4 Z" fill="#000000"/>
			<path d="M 21.6 6.9 C 21 4.8 21.5 3 22.9 2.8 C 22.9 2.7 22.9 2.7 22.9 2.7 C 20.4 3.2 19.7 5.2 20.2 7.4 C 20.7 9.7 23.1 11.7 25.3 10.5 C 23.9 10.6 22.3 9 21.6 6.9 Z" fill="url(#gradient38)"/>
			<path d="M 30.8 28.2 C 29.1 28.3 27.1 26.8 26.3 24.8 C 25.7 23.4 26 22.2 26.8 21.7 L 26.8 21.7 C 24.8 22.5 24.2 25 26 27.2 C 27.7 29.4 30.6 29.8 31.7 28 C 31.7 28 31.7 28 31.7 28 C 31.5 28.1 31.2 28.2 30.8 28.2 Z" fill="url(#gradient39)"/>
			<path d="M 31.3 24 C 30.3 22.7 28.9 22 27.9 22.1 C 28.9 22 30.3 22.8 31.2 24 C 32.6 25.7 32.5 27.4 31 27.5 C 31 27.5 31 27.5 31 27.5 C 32.6 27.5 32.7 25.7 31.3 24 ZM 26.4 24.8 C 25.7 23 26.3 21.6 27.8 21.5 C 27.7 21.5 27.7 21.5 27.7 21.5 C 26.2 21.5 25.5 23 26.3 24.8 C 27.1 26.8 29.2 28.3 30.8 28.2 C 30.8 28.2 30.9 28.2 30.9 28.2 C 29.2 28.3 27.2 26.7 26.4 24.8 Z" fill="url(#gradient40)"/>
			<path d="M 26.6 6.3 C 26.1 4.7 24.8 3.4 23.7 3.4 C 23.7 3.4 23.6 3.4 23.6 3.4 C 23.6 3.4 23.6 3.4 23.6 3.4 C 24.7 3.4 25.9 4.7 26.5 6.3 C 27.1 8 26.7 9.6 25.6 9.8 C 25.6 9.8 25.5 9.8 25.5 9.8 C 25.6 9.8 25.7 9.8 25.7 9.8 C 26.9 9.6 27.2 8 26.6 6.3 ZM 21.9 6.9 C 21.2 4.8 21.8 2.9 23.2 2.7 C 23.2 2.7 23.3 2.7 23.3 2.7 C 23.2 2.7 23.2 2.7 23.1 2.7 C 21.7 2.9 21.1 4.8 21.7 6.9 C 22.4 9 24 10.6 25.4 10.5 C 25.4 10.5 25.5 10.5 25.5 10.5 C 24.1 10.5 22.5 8.9 21.9 6.9 Z" fill="url(#gradient41)"/>
			<path d="M 20.3 7.5 C 19.9 5.7 20.3 4.1 21.5 3.2 C 20.2 4.1 19.8 5.6 20.2 7.4 C 20.5 8.8 21.4 10 22.6 10.5 C 21.5 9.9 20.6 8.7 20.3 7.5 Z" fill="url(#gradient42)"/>
			<path d="M 26.1 27.3 C 24.6 25.3 24.8 23.2 26.1 22.1 C 24.7 23.1 24.4 25.2 26 27.2 C 26.6 27.9 27.3 28.5 28 28.8 C 27.3 28.5 26.7 28 26.1 27.3 Z" fill="url(#gradient43)"/>
		</g>
	</g>
</svg>