<?xml version="1.0" standalone="no"?>

<svg viewBox="0 0 65 38" style="background-color:#ffffff00" version="1.1" xmlns="http://www.w3.org/2000/svg" xmlns:xlink="http://www.w3.org/1999/xlink" xml:space="preserve" x="0px" y="0px" width="100%" height="100%">
	<defs>
		<linearGradient id="gradient1" x1="23.5%" y1="90.8%" x2="54.9%" y2="42.3%">
			<stop stop-color="#ebeaeb" stop-opacity="1" offset="1%"/>
			<stop stop-color="#ebeaeb" stop-opacity="1" offset="20%"/>
			<stop stop-color="#cbcaca" stop-opacity="1" offset="48%"/>
			<stop stop-color="#818282" stop-opacity="1" offset="90%"/>
			<stop stop-color="#818282" stop-opacity="1" offset="99%"/>
		</linearGradient>
		<linearGradient id="gradient2" x1="50.2%" y1="49.7%" x2="94%" y2="4.4%">
			<stop stop-color="#f3f4f5" stop-opacity="1" offset="1%"/>
			<stop stop-color="#f3f4f5" stop-opacity="1" offset="42%"/>
			<stop stop-color="#d4d6d7" stop-opacity="1" offset="66%"/>
			<stop stop-color="#515151" stop-opacity="1" offset="84%"/>
		</linearGradient>
		<linearGradient id="gradient3" x1="21.6%" y1="22.3%" x2="77.6%" y2="80.7%">
			<stop stop-color="#2c2929" stop-opacity="1" offset="1%"/>
			<stop stop-color="#4f5053" stop-opacity="1" offset="19%"/>
			<stop stop-color="#808185" stop-opacity="1" offset="29%"/>
			<stop stop-color="#d3d4d4" stop-opacity="1" offset="45%"/>
			<stop stop-color="#808185" stop-opacity="1" offset="60%"/>
			<stop stop-color="#4a4548" stop-opacity="1" offset="73%"/>
			<stop stop-color="#7a7c80" stop-opacity="1" offset="92%"/>
			<stop stop-color="#7a7c80" stop-opacity="1" offset="99%"/>
		</linearGradient>
		<linearGradient id="gradient4" x1="-10%" y1="1.9%" x2="90%" y2="101.9%">
			<stop stop-color="#2c2929" stop-opacity="1" offset="1%"/>
			<stop stop-color="#4f5053" stop-opacity="1" offset="19%"/>
			<stop stop-color="#808185" stop-opacity="1" offset="29%"/>
			<stop stop-color="#d3d4d4" stop-opacity="1" offset="45%"/>
			<stop stop-color="#808185" stop-opacity="1" offset="60%"/>
			<stop stop-color="#4a4548" stop-opacity="1" offset="73%"/>
			<stop stop-color="#7a7c80" stop-opacity="1" offset="92%"/>
			<stop stop-color="#7a7c80" stop-opacity="1" offset="99%"/>
		</linearGradient>
		<linearGradient id="gradient5" x1="-5.8%" y1="-0.2%" x2="84.4%" y2="89.9%">
			<stop stop-color="#683a20" stop-opacity="1" offset="1%"/>
			<stop stop-color="#cf9a4a" stop-opacity="1" offset="29%"/>
			<stop stop-color="#ffe9ad" stop-opacity="1" offset="50%"/>
			<stop stop-color="#cf9a4a" stop-opacity="1" offset="73%"/>
			<stop stop-color="#683a20" stop-opacity="1" offset="99%"/>
		</linearGradient>
		<linearGradient id="gradient6" x1="38.2%" y1="37.7%" x2="63.5%" y2="63%">
			<stop stop-color="#371a0d" stop-opacity="1" offset="1%"/>
			<stop stop-color="#371a0d" stop-opacity="1" offset="5%"/>
			<stop stop-color="#663919" stop-opacity="1" offset="17%"/>
			<stop stop-color="#885329" stop-opacity="1" offset="26%"/>
			<stop stop-color="#965e2f" stop-opacity="1" offset="38%"/>
			<stop stop-color="#90592b" stop-opacity="1" offset="44%"/>
			<stop stop-color="#7d4a1e" stop-opacity="1" offset="50%"/>
			<stop stop-color="#5b3312" stop-opacity="1" offset="59%"/>
			<stop stop-color="#371a0d" stop-opacity="1" offset="64%"/>
			<stop stop-color="#371a0d" stop-opacity="1" offset="75%"/>
			<stop stop-color="#5b3312" stop-opacity="1" offset="86%"/>
			<stop stop-color="#965e2f" stop-opacity="1" offset="99%"/>
		</linearGradient>
		<linearGradient id="gradient7" x1="28%" y1="-1.7%" x2="101.7%" y2="72.1%">
			<stop stop-color="#595354" stop-opacity="1" offset="1%"/>
			<stop stop-color="#808084" stop-opacity="1" offset="13%"/>
			<stop stop-color="#d3d4d4" stop-opacity="1" offset="40%"/>
			<stop stop-color="#808185" stop-opacity="1" offset="56%"/>
			<stop stop-color="#4a4548" stop-opacity="1" offset="77%"/>
			<stop stop-color="#7a7c80" stop-opacity="1" offset="92%"/>
			<stop stop-color="#7a7c80" stop-opacity="1" offset="99%"/>
		</linearGradient>
		<linearGradient id="gradient8" x1="50%" y1="49.2%" x2="50%" y2="-4.4%">
			<stop stop-color="#9ce889" stop-opacity="1" offset="10%"/>
			<stop stop-color="#71c16f" stop-opacity="1" offset="89%"/>
			<stop stop-color="#87a152" stop-opacity="1" offset="99%"/>
		</linearGradient>
		<linearGradient id="gradient9" x1="50%" y1="66.5%" x2="50%" y2="149.8%">
			<stop stop-color="#7f8d42" stop-opacity="1" offset="62%"/>
			<stop stop-color="#77813a" stop-opacity="1" offset="74%"/>
			<stop stop-color="#676829" stop-opacity="1" offset="88%"/>
			<stop stop-color="#5b561d" stop-opacity="1" offset="94%"/>
			<stop stop-color="#4d400d" stop-opacity="1" offset="99%"/>
		</linearGradient>
		<linearGradient id="gradient10" x1="50%" y1="49.4%" x2="50%" y2="-4.8%">
			<stop stop-color="#9ce889" stop-opacity="1" offset="10%"/>
			<stop stop-color="#71c16f" stop-opacity="1" offset="89%"/>
			<stop stop-color="#87a152" stop-opacity="1" offset="99%"/>
		</linearGradient>
		<linearGradient id="gradient11" x1="50%" y1="66.5%" x2="50%" y2="149.8%">
			<stop stop-color="#7f8d42" stop-opacity="1" offset="62%"/>
			<stop stop-color="#77813a" stop-opacity="1" offset="74%"/>
			<stop stop-color="#676829" stop-opacity="1" offset="88%"/>
			<stop stop-color="#5b561d" stop-opacity="1" offset="94%"/>
			<stop stop-color="#4d400d" stop-opacity="1" offset="99%"/>
		</linearGradient>
		<linearGradient id="gradient12" x1="50%" y1="50%" x2="50%" y2="-8.2%">
			<stop stop-color="#9ce889" stop-opacity="1" offset="10%"/>
			<stop stop-color="#71c16f" stop-opacity="1" offset="89%"/>
			<stop stop-color="#87a152" stop-opacity="1" offset="99%"/>
		</linearGradient>
		<linearGradient id="gradient13" x1="50%" y1="66.5%" x2="50%" y2="149.8%">
			<stop stop-color="#7f8d42" stop-opacity="1" offset="62%"/>
			<stop stop-color="#77813a" stop-opacity="1" offset="74%"/>
			<stop stop-color="#676829" stop-opacity="1" offset="88%"/>
			<stop stop-color="#5b561d" stop-opacity="1" offset="94%"/>
			<stop stop-color="#4d400d" stop-opacity="1" offset="99%"/>
		</linearGradient>
		<linearGradient id="gradient14" x1="50%" y1="83.7%" x2="50%" y2="-23.9%">
			<stop stop-color="#9ce889" stop-opacity="1" offset="10%"/>
			<stop stop-color="#71c16f" stop-opacity="1" offset="89%"/>
			<stop stop-color="#87a152" stop-opacity="1" offset="99%"/>
		</linearGradient>
		<linearGradient id="gradient15" x1="50%" y1="66.5%" x2="50%" y2="149.8%">
			<stop stop-color="#7f8d42" stop-opacity="1" offset="62%"/>
			<stop stop-color="#77813a" stop-opacity="1" offset="74%"/>
			<stop stop-color="#676829" stop-opacity="1" offset="88%"/>
			<stop stop-color="#5b561d" stop-opacity="1" offset="94%"/>
			<stop stop-color="#4d400d" stop-opacity="1" offset="99%"/>
		</linearGradient>
		<linearGradient id="gradient16" x1="41.1%" y1="55.1%" x2="6.4%" y2="74.8%">
			<stop stop-color="#007c3a" stop-opacity="1" offset="1%"/>
			<stop stop-color="#009345" stop-opacity="1" offset="15%"/>
			<stop stop-color="#40b66f" stop-opacity="1" offset="99%"/>
		</linearGradient>
		<linearGradient id="gradient17" x1="11.1%" y1="95.8%" x2="97.5%" y2="-5.8%">
			<stop stop-color="#9ce889" stop-opacity="1" offset="10%"/>
			<stop stop-color="#71c16f" stop-opacity="1" offset="89%"/>
			<stop stop-color="#87a152" stop-opacity="1" offset="99%"/>
		</linearGradient>
		<linearGradient id="gradient18" x1="0%" y1="50%" x2="100%" y2="50%">
			<stop stop-color="#9ce889" stop-opacity="1" offset="10%"/>
			<stop stop-color="#71c16f" stop-opacity="1" offset="89%"/>
			<stop stop-color="#87a152" stop-opacity="1" offset="99%"/>
		</linearGradient>
		<linearGradient id="gradient19" x1="87.4%" y1="-0.7%" x2="1.8%" y2="116.5%">
			<stop stop-color="#007c3a" stop-opacity="1" offset="1%"/>
			<stop stop-color="#009345" stop-opacity="1" offset="15%"/>
			<stop stop-color="#40b66f" stop-opacity="1" offset="99%"/>
		</linearGradient>
		<linearGradient id="gradient20" x1="0%" y1="50%" x2="100%" y2="50%">
			<stop stop-color="#ffff59" stop-opacity="1" offset="1%"/>
			<stop stop-color="#f8ac3a" stop-opacity="1" offset="29%"/>
			<stop stop-color="#f7941e" stop-opacity="1" offset="54%"/>
			<stop stop-color="#b94e18" stop-opacity="1" offset="78%"/>
			<stop stop-color="#231f20" stop-opacity="1" offset="99%"/>
		</linearGradient>
		<linearGradient id="gradient21" x1="50%" y1="-10.8%" x2="50%" y2="167.1%">
			<stop stop-color="#ffff59" stop-opacity="1" offset="1%"/>
			<stop stop-color="#f8ac3a" stop-opacity="1" offset="29%"/>
			<stop stop-color="#f7941e" stop-opacity="1" offset="54%"/>
			<stop stop-color="#b94e18" stop-opacity="1" offset="78%"/>
			<stop stop-color="#231f20" stop-opacity="1" offset="99%"/>
		</linearGradient>
		<linearGradient id="gradient22" x1="46.7%" y1="161.1%" x2="54.3%" y2="-95.7%">
			<stop stop-color="#ffff59" stop-opacity="1" offset="1%"/>
			<stop stop-color="#f8ac3a" stop-opacity="1" offset="29%"/>
			<stop stop-color="#f7941e" stop-opacity="1" offset="54%"/>
			<stop stop-color="#b94e18" stop-opacity="1" offset="78%"/>
			<stop stop-color="#231f20" stop-opacity="1" offset="99%"/>
		</linearGradient>
		<linearGradient id="gradient23" x1="-17.3%" y1="-6.4%" x2="33.2%" y2="36%">
			<stop stop-color="#ffff59" stop-opacity="1" offset="1%"/>
			<stop stop-color="#f8ac3a" stop-opacity="1" offset="29%"/>
			<stop stop-color="#f7941e" stop-opacity="1" offset="54%"/>
			<stop stop-color="#b94e18" stop-opacity="1" offset="78%"/>
			<stop stop-color="#231f20" stop-opacity="1" offset="99%"/>
		</linearGradient>
		<linearGradient id="gradient24" x1="-34.5%" y1="45.5%" x2="95.4%" y2="50.9%">
			<stop stop-color="#ffff59" stop-opacity="1" offset="1%"/>
			<stop stop-color="#f8ac3a" stop-opacity="1" offset="29%"/>
			<stop stop-color="#f7941e" stop-opacity="1" offset="54%"/>
			<stop stop-color="#b94e18" stop-opacity="1" offset="78%"/>
			<stop stop-color="#231f20" stop-opacity="1" offset="99%"/>
		</linearGradient>
		<linearGradient id="gradient25" x1="0%" y1="50%" x2="100%" y2="50%">
			<stop stop-color="#ffff59" stop-opacity="1" offset="1%"/>
			<stop stop-color="#f8ac3a" stop-opacity="1" offset="29%"/>
			<stop stop-color="#f7941e" stop-opacity="1" offset="54%"/>
			<stop stop-color="#b94e18" stop-opacity="1" offset="78%"/>
			<stop stop-color="#231f20" stop-opacity="1" offset="99%"/>
		</linearGradient>
		<linearGradient id="gradient26" x1="50%" y1="-10.8%" x2="50%" y2="167.1%">
			<stop stop-color="#ffff59" stop-opacity="1" offset="1%"/>
			<stop stop-color="#f8ac3a" stop-opacity="1" offset="29%"/>
			<stop stop-color="#f7941e" stop-opacity="1" offset="54%"/>
			<stop stop-color="#b94e18" stop-opacity="1" offset="78%"/>
			<stop stop-color="#231f20" stop-opacity="1" offset="99%"/>
		</linearGradient>
		<linearGradient id="gradient27" x1="46.7%" y1="161.1%" x2="54.3%" y2="-95.7%">
			<stop stop-color="#ffff59" stop-opacity="1" offset="1%"/>
			<stop stop-color="#f8ac3a" stop-opacity="1" offset="29%"/>
			<stop stop-color="#f7941e" stop-opacity="1" offset="54%"/>
			<stop stop-color="#b94e18" stop-opacity="1" offset="78%"/>
			<stop stop-color="#231f20" stop-opacity="1" offset="99%"/>
		</linearGradient>
		<linearGradient id="gradient28" x1="117.3%" y1="-6.3%" x2="66.8%" y2="36%">
			<stop stop-color="#ffff59" stop-opacity="1" offset="1%"/>
			<stop stop-color="#f8ac3a" stop-opacity="1" offset="29%"/>
			<stop stop-color="#f7941e" stop-opacity="1" offset="54%"/>
			<stop stop-color="#b94e18" stop-opacity="1" offset="78%"/>
			<stop stop-color="#231f20" stop-opacity="1" offset="99%"/>
		</linearGradient>
		<linearGradient id="gradient29" x1="-34.5%" y1="45.5%" x2="95.4%" y2="50.9%">
			<stop stop-color="#ffff59" stop-opacity="1" offset="1%"/>
			<stop stop-color="#f8ac3a" stop-opacity="1" offset="29%"/>
			<stop stop-color="#f7941e" stop-opacity="1" offset="54%"/>
			<stop stop-color="#b94e18" stop-opacity="1" offset="78%"/>
			<stop stop-color="#231f20" stop-opacity="1" offset="99%"/>
		</linearGradient>
		<linearGradient id="gradient30" x1="0%" y1="50%" x2="100%" y2="50%">
			<stop stop-color="#ffff59" stop-opacity="1" offset="1%"/>
			<stop stop-color="#f8ac3a" stop-opacity="1" offset="29%"/>
			<stop stop-color="#f7941e" stop-opacity="1" offset="54%"/>
			<stop stop-color="#b94e18" stop-opacity="1" offset="78%"/>
			<stop stop-color="#231f20" stop-opacity="1" offset="99%"/>
		</linearGradient>
		<linearGradient id="gradient31" x1="50%" y1="-10.8%" x2="50%" y2="167.1%">
			<stop stop-color="#ffff59" stop-opacity="1" offset="1%"/>
			<stop stop-color="#f8ac3a" stop-opacity="1" offset="29%"/>
			<stop stop-color="#f7941e" stop-opacity="1" offset="54%"/>
			<stop stop-color="#b94e18" stop-opacity="1" offset="78%"/>
			<stop stop-color="#231f20" stop-opacity="1" offset="99%"/>
		</linearGradient>
		<linearGradient id="gradient32" x1="46.7%" y1="161.1%" x2="54.3%" y2="-95.7%">
			<stop stop-color="#ffff59" stop-opacity="1" offset="1%"/>
			<stop stop-color="#f8ac3a" stop-opacity="1" offset="29%"/>
			<stop stop-color="#f7941e" stop-opacity="1" offset="54%"/>
			<stop stop-color="#b94e18" stop-opacity="1" offset="78%"/>
			<stop stop-color="#231f20" stop-opacity="1" offset="99%"/>
		</linearGradient>
		<linearGradient id="gradient33" x1="-17.3%" y1="-6.3%" x2="33.2%" y2="36%">
			<stop stop-color="#ffff59" stop-opacity="1" offset="1%"/>
			<stop stop-color="#f8ac3a" stop-opacity="1" offset="29%"/>
			<stop stop-color="#f7941e" stop-opacity="1" offset="54%"/>
			<stop stop-color="#b94e18" stop-opacity="1" offset="78%"/>
			<stop stop-color="#231f20" stop-opacity="1" offset="99%"/>
		</linearGradient>
		<linearGradient id="gradient34" x1="-34.5%" y1="45.5%" x2="95.4%" y2="50.9%">
			<stop stop-color="#ffff59" stop-opacity="1" offset="1%"/>
			<stop stop-color="#f8ac3a" stop-opacity="1" offset="29%"/>
			<stop stop-color="#f7941e" stop-opacity="1" offset="54%"/>
			<stop stop-color="#b94e18" stop-opacity="1" offset="78%"/>
			<stop stop-color="#231f20" stop-opacity="1" offset="99%"/>
		</linearGradient>
		<linearGradient id="gradient35" x1="0%" y1="50%" x2="100%" y2="50%">
			<stop stop-color="#ffff59" stop-opacity="1" offset="1%"/>
			<stop stop-color="#f8ac3a" stop-opacity="1" offset="29%"/>
			<stop stop-color="#f7941e" stop-opacity="1" offset="54%"/>
			<stop stop-color="#b94e18" stop-opacity="1" offset="78%"/>
			<stop stop-color="#231f20" stop-opacity="1" offset="99%"/>
		</linearGradient>
		<linearGradient id="gradient36" x1="50%" y1="-10.8%" x2="50%" y2="167.1%">
			<stop stop-color="#ffff59" stop-opacity="1" offset="1%"/>
			<stop stop-color="#f8ac3a" stop-opacity="1" offset="29%"/>
			<stop stop-color="#f7941e" stop-opacity="1" offset="54%"/>
			<stop stop-color="#b94e18" stop-opacity="1" offset="78%"/>
			<stop stop-color="#231f20" stop-opacity="1" offset="99%"/>
		</linearGradient>
		<linearGradient id="gradient37" x1="46.7%" y1="161.1%" x2="54.3%" y2="-95.7%">
			<stop stop-color="#ffff59" stop-opacity="1" offset="1%"/>
			<stop stop-color="#f8ac3a" stop-opacity="1" offset="29%"/>
			<stop stop-color="#f7941e" stop-opacity="1" offset="54%"/>
			<stop stop-color="#b94e18" stop-opacity="1" offset="78%"/>
			<stop stop-color="#231f20" stop-opacity="1" offset="99%"/>
		</linearGradient>
		<linearGradient id="gradient38" x1="-17.3%" y1="-6.3%" x2="33.2%" y2="36%">
			<stop stop-color="#ffff59" stop-opacity="1" offset="1%"/>
			<stop stop-color="#f8ac3a" stop-opacity="1" offset="29%"/>
			<stop stop-color="#f7941e" stop-opacity="1" offset="54%"/>
			<stop stop-color="#b94e18" stop-opacity="1" offset="78%"/>
			<stop stop-color="#231f20" stop-opacity="1" offset="99%"/>
		</linearGradient>
		<linearGradient id="gradient39" x1="-34.5%" y1="45.5%" x2="95.4%" y2="50.9%">
			<stop stop-color="#ffff59" stop-opacity="1" offset="1%"/>
			<stop stop-color="#f8ac3a" stop-opacity="1" offset="29%"/>
			<stop stop-color="#f7941e" stop-opacity="1" offset="54%"/>
			<stop stop-color="#b94e18" stop-opacity="1" offset="78%"/>
			<stop stop-color="#231f20" stop-opacity="1" offset="99%"/>
		</linearGradient>
		<linearGradient id="gradient40" x1="0%" y1="50%" x2="100%" y2="50%">
			<stop stop-color="#ffff59" stop-opacity="1" offset="1%"/>
			<stop stop-color="#f8ac3a" stop-opacity="1" offset="29%"/>
			<stop stop-color="#f7941e" stop-opacity="1" offset="54%"/>
			<stop stop-color="#b94e18" stop-opacity="1" offset="78%"/>
			<stop stop-color="#231f20" stop-opacity="1" offset="99%"/>
		</linearGradient>
		<linearGradient id="gradient41" x1="50%" y1="-10.8%" x2="50%" y2="167.1%">
			<stop stop-color="#ffff59" stop-opacity="1" offset="1%"/>
			<stop stop-color="#f8ac3a" stop-opacity="1" offset="29%"/>
			<stop stop-color="#f7941e" stop-opacity="1" offset="54%"/>
			<stop stop-color="#b94e18" stop-opacity="1" offset="78%"/>
			<stop stop-color="#231f20" stop-opacity="1" offset="99%"/>
		</linearGradient>
		<linearGradient id="gradient42" x1="46.7%" y1="161.1%" x2="54.3%" y2="-95.8%">
			<stop stop-color="#ffff59" stop-opacity="1" offset="1%"/>
			<stop stop-color="#f8ac3a" stop-opacity="1" offset="29%"/>
			<stop stop-color="#f7941e" stop-opacity="1" offset="54%"/>
			<stop stop-color="#b94e18" stop-opacity="1" offset="78%"/>
			<stop stop-color="#231f20" stop-opacity="1" offset="99%"/>
		</linearGradient>
		<linearGradient id="gradient43" x1="44.5%" y1="-34.9%" x2="59.3%" y2="194.9%">
			<stop stop-color="#ffff59" stop-opacity="1" offset="1%"/>
			<stop stop-color="#f8ac3a" stop-opacity="1" offset="29%"/>
			<stop stop-color="#f7941e" stop-opacity="1" offset="54%"/>
			<stop stop-color="#b94e18" stop-opacity="1" offset="78%"/>
			<stop stop-color="#231f20" stop-opacity="1" offset="99%"/>
		</linearGradient>
		<linearGradient id="gradient44" x1="-22.6%" y1="50%" x2="91.2%" y2="50%">
			<stop stop-color="#ffff59" stop-opacity="1" offset="1%"/>
			<stop stop-color="#f8ac3a" stop-opacity="1" offset="29%"/>
			<stop stop-color="#f7941e" stop-opacity="1" offset="54%"/>
			<stop stop-color="#b94e18" stop-opacity="1" offset="78%"/>
			<stop stop-color="#231f20" stop-opacity="1" offset="99%"/>
		</linearGradient>
	</defs>
	<g id="Layer%201">
		<g>
			<path d="M 20.4 34.1 C 19.8 34.1 19.2 33.6 19.2 33 L 19.2 1.2 C 19.2 0.5 19.8 0 20.4 0 L 38.6 0 C 38.6 0 39.9 0 40.5 0.9 C 40.9 1.4 41.2 2.2 41.3 3.5 C 41.5 5.2 41.8 6.1 43.6 6.2 C 44 6.3 45.8 6.4 46.6 6.5 C 48.3 6.6 48.6 7.4 48.6 8.5 L 48.6 33 C 48.6 33.6 48.1 34.1 47.4 34.1 L 20.4 34.1 Z" fill="#58595b"/>
			<path d="M 43.6 6.2 C 44 6.3 45.8 6.4 46.6 6.5 C 47.2 6.5 47.7 6.7 48 6.9 L 40.3 0.6 C 40.4 0.7 40.5 0.8 40.5 0.9 C 40.9 1.4 41.2 2.2 41.3 3.5 C 41.5 5.2 41.8 6.1 43.6 6.2 Z" fill="url(#gradient1)"/>
			<path d="M 48.3 8.7 C 48.3 7 46.6 7.1 46.6 7.1 C 46.6 7.1 44 7.1 42.5 7.1 C 40.4 7.1 40.5 4.9 40.5 4.9 L 40.5 2.2 C 40.5 2.2 40.5 1.9 40.5 1.8 C 40.3 0.9 39.7 0.6 39.2 0.4 C 39 0.4 38.8 0.4 38.8 0.4 C 38.4 0.4 20.6 0.4 20.6 0.4 C 20 0.4 19.6 0.8 19.6 1.4 L 19.6 32.7 C 19.6 33.3 20 33.7 20.6 33.7 L 47.3 33.7 C 47.8 33.7 48.3 33.3 48.3 32.7 C 48.3 32.7 48.3 10.3 48.3 8.7 Z" fill="#ffffff"/>
			<path d="M 47.9 7.6 C 47.4 7.1 46.6 7.1 46.6 7.1 C 46.6 7.1 44 7.1 42.5 7.1 C 40.4 7.1 40.5 4.9 40.5 4.9 L 40.5 2.2 C 40.5 2.2 40.5 1.9 40.5 1.8 C 40.4 1.3 40.1 0.9 39.8 0.7 L 20.6 0.7 C 20.2 0.7 19.9 1 19.9 1.4 L 19.9 32.7 C 19.9 33.1 20.2 33.4 20.6 33.4 L 47.3 33.4 C 47.6 33.4 47.9 33.1 47.9 32.7 L 47.9 7.6 Z" fill="url(#gradient2)"/>
			<path d="M 41.3 2.9 C 41.3 2.9 41.6 4.6 42.4 5.3 C 43.1 6 44.2 6.3 45 6.3 C 43.6 6.2 43.6 6.2 43.6 6.2 C 43.6 6.2 42.7 6.2 42.1 5.7 C 41.5 5.1 41.4 4.3 41.4 4.3 L 41.3 2.9 Z" fill="#ffffff"/>
			<path d="M 22.7 11.1 L 45.2 11.1 C 45.3 11.1 45.3 11 45.3 10.9 C 45.3 10.8 45.3 10.7 45.2 10.7 L 22.7 10.7 C 22.6 10.7 22.5 10.8 22.5 10.9 C 22.5 11 22.6 11.1 22.7 11.1 Z" fill="#595959"/>
			<path d="M 45.2 16.7 L 22.7 16.7 C 22.6 16.7 22.5 16.8 22.5 16.9 C 22.5 17 22.6 17.1 22.7 17.1 L 45.2 17.1 C 45.3 17.1 45.3 17 45.3 16.9 C 45.3 16.8 45.3 16.7 45.2 16.7 Z" fill="#595959"/>
			<path d="M 45.2 22.7 L 22.7 22.7 C 22.6 22.7 22.5 22.8 22.5 22.9 C 22.5 23 22.6 23.1 22.7 23.1 L 45.2 23.1 C 45.3 23.1 45.3 23 45.3 22.9 C 45.3 22.8 45.3 22.7 45.2 22.7 Z" fill="#595959"/>
			<path d="M 45.2 28.7 L 22.7 28.7 C 22.6 28.7 22.5 28.8 22.5 28.9 C 22.5 29 22.6 29 22.7 29 L 45.2 29 C 45.3 29 45.3 29 45.3 28.9 C 45.3 28.8 45.3 28.7 45.2 28.7 Z" fill="#595959"/>
			<path opacity="0.2" d="M 48.6 22.7 C 45.2 26.2 43.8 28.7 43.8 28.7 L 43.8 28.8 L 43.7 28.8 C 43.7 28.8 43.3 29.8 42.2 30.9 C 41.1 31.9 40.6 32.3 40.6 32.3 L 40.6 32.8 L 40.6 32.8 L 38.1 34.1 L 41.8 34.1 L 41.9 34.1 L 41.9 34.1 L 42.3 34 C 42.3 34 42.8 33.5 43.7 32.4 C 44.8 31.3 45.8 30.9 45.8 30.9 L 45.8 30.8 L 45.9 30.8 C 45.9 30.8 47 30.2 48.6 28.9 L 48.6 22.7 Z" fill="#000000"/>
			<path d="M 45.4 29 L 45.5 28.7 L 43.3 26.4 L 43 26.5 C 43 26.5 42.5 27.7 41.2 28.9 C 40 30.1 39.4 30.5 39.4 30.5 L 41.4 32.5 C 41.4 32.5 41.8 32 43.1 30.7 C 44.3 29.4 45.4 29 45.4 29 Z" fill="url(#gradient3)"/>
			<path d="M 39.4 30.5 L 39.3 31.1 L 40.9 32.6 L 41.4 32.5 L 39.4 30.5 Z" fill="url(#gradient4)"/>
			<path d="M 40.9 32.6 L 39.3 31.1 L 36 33 C 36 33 35.7 35.2 33.9 37.3 C 34 37.3 34.1 37.5 34.2 37.6 L 37 34.8 C 37 34.7 37 34.6 37.1 34.5 C 37.2 34.4 37.4 34.4 37.5 34.5 C 37.6 34.6 37.6 34.7 37.5 34.8 C 37.4 34.9 37.3 34.9 37.2 34.9 L 34.4 37.7 C 34.4 37.8 34.5 37.8 34.5 37.8 C 34.5 37.8 34.5 37.8 34.7 38 C 36.7 36.2 38.9 35.9 38.9 35.9 L 40.9 32.6 Z" fill="url(#gradient5)"/>
			<path d="M 59.2 15 C 58.2 17.1 55.7 20.1 53.1 22.7 C 48.8 27 45.6 28.9 45.6 28.9 L 45.3 28.7 L 43.3 26.7 L 43.1 26.4 C 43.1 26.4 44.9 23.2 49.3 18.9 C 51.9 16.3 54.9 13.8 57 12.8 L 59.2 15 Z" fill="url(#gradient6)"/>
			<path d="M 57 12.8 L 59.2 15 C 60 13.4 60.2 12.7 59.8 12.2 C 59.3 11.8 58.6 12.1 57 12.8 Z" fill="url(#gradient7)"/>
			<path opacity="0.3" d="M 19.2 20.4 L 30.6 20.4 C 30.6 20.4 31.2 20.5 31.3 21 L 33.8 34.1 L 27.3 34.1 L 19.2 20.8 L 19.2 20.4 Z" fill="#000000"/>
			<g>
				<path d="M 30.2 20.8 L 8 20.8 C 7.7 20.8 7.5 21 7.5 21.3 L 7.5 31.9 C 7.5 32.2 7.7 32.5 8 32.5 L 30.2 32.5 C 30.5 32.5 30.7 32.2 30.7 31.9 L 30.7 21.3 C 30.7 21 30.5 20.8 30.2 20.8 Z" fill="#585858"/>
				<path d="M 30.1 21 L 8.1 21 C 7.9 21 7.7 21.2 7.7 21.4 L 7.7 31.8 C 7.7 32.1 7.9 32.3 8.1 32.3 L 30.1 32.3 C 30.3 32.3 30.6 32.1 30.6 31.8 L 30.6 21.4 C 30.6 21.2 30.3 21 30.1 21 Z" fill="url(#gradient8)"/>
				<path d="M 29.6 29.3 L 29.6 24 C 29.6 24 29.6 23.7 29.3 23.6 C 28.6 23.5 28.1 23 28 22.3 C 27.9 21.9 27.6 21.9 27.6 21.9 L 10.6 21.9 C 10.6 21.9 10.3 21.9 10.3 22.3 C 10.1 23 9.6 23.5 8.9 23.6 C 8.6 23.7 8.6 24 8.6 24 L 8.6 29.3 C 8.6 29.3 8.6 29.7 8.9 29.8 C 9.6 29.9 10.1 30.3 10.2 30.9 C 10.3 31.4 10.8 31.3 10.8 31.3 L 27.5 31.3 C 27.5 31.3 27.9 31.4 28 30.9 C 28.2 30.3 28.6 29.9 29.3 29.8 C 29.7 29.7 29.6 29.3 29.6 29.3 ZM 20.3 27.2 C 20.3 27.7 20 28.2 19.4 28.3 L 19.4 28.9 L 18.9 28.9 L 18.9 28.4 C 18.3 28.3 17.9 28.1 17.8 28 L 18.1 27.4 C 18.2 27.5 18.3 27.6 18.4 27.6 C 18.6 27.7 18.8 27.8 19 27.8 C 19.4 27.8 19.6 27.6 19.6 27.3 C 19.6 27 19.4 26.9 19 26.7 C 18.3 26.5 17.9 26.2 17.9 25.6 C 17.9 25.1 18.3 24.7 18.9 24.6 L 18.9 24.1 L 19.4 24.1 L 19.4 24.6 C 19.8 24.7 20.2 24.8 20.3 24.9 L 20 25.4 C 19.9 25.4 19.8 25.3 19.7 25.3 C 19.6 25.2 19.4 25.2 19.2 25.2 C 18.9 25.2 18.7 25.2 18.7 25.5 C 18.7 25.8 18.9 26 19.4 26.2 C 20 26.4 20.3 26.7 20.3 27.2 ZM 26.7 26.9 C 26.7 27.1 26.5 27.4 26.2 27.4 L 26.2 27.7 L 26 27.7 L 26 27.4 C 25.7 27.4 25.5 27.3 25.5 27.3 L 25.6 27 C 25.6 27 25.7 27.1 25.7 27.1 C 25.8 27.1 25.9 27.2 26 27.2 C 26.2 27.2 26.3 27.1 26.3 26.9 C 26.3 26.8 26.2 26.7 26 26.7 C 25.7 26.6 25.5 26.4 25.5 26.1 C 25.5 25.9 25.7 25.7 26 25.7 L 26 25.5 L 26.2 25.5 L 26.2 25.7 C 26.4 25.7 26.6 25.8 26.6 25.8 L 26.5 26.1 C 26.5 26 26.4 26 26.4 26 C 26.3 26 26.2 25.9 26.1 25.9 C 26 25.9 25.9 26 25.9 26.1 C 25.9 26.3 26 26.3 26.2 26.4 C 26.5 26.5 26.7 26.6 26.7 26.9 ZM 12.5 26.9 C 12.5 27.1 12.3 27.4 12 27.4 L 12 27.7 L 11.8 27.7 L 11.8 27.4 C 11.6 27.4 11.4 27.3 11.3 27.3 L 11.4 27 C 11.5 27 11.5 27.1 11.6 27.1 C 11.7 27.1 11.8 27.2 11.9 27.2 C 12.1 27.2 12.2 27.1 12.2 26.9 C 12.2 26.8 12.1 26.7 11.9 26.7 C 11.6 26.6 11.4 26.4 11.4 26.1 C 11.4 25.9 11.5 25.7 11.8 25.7 L 11.8 25.5 L 12 25.5 L 12 25.7 C 12.3 25.7 12.4 25.8 12.5 25.8 L 12.4 26.1 C 12.3 26 12.3 26 12.2 26 C 12.1 26 12 25.9 12 25.9 C 11.8 25.9 11.7 26 11.7 26.1 C 11.7 26.3 11.8 26.3 12 26.4 C 12.3 26.5 12.5 26.6 12.5 26.9 Z" fill="url(#gradient9)"/>
			</g>
			<g>
				<path d="M 30.2 21.4 L 8 21.4 C 7.7 21.4 7.5 21.7 7.5 22 L 7.5 32.6 C 7.5 32.9 7.7 33.1 8 33.1 L 30.2 33.1 C 30.5 33.1 30.7 32.9 30.7 32.6 L 30.7 22 C 30.7 21.7 30.5 21.4 30.2 21.4 Z" fill="#585858"/>
				<path d="M 30.1 21.6 L 8.1 21.6 C 7.9 21.6 7.7 21.8 7.7 22.1 L 7.7 32.5 C 7.7 32.7 7.9 32.9 8.1 32.9 L 30.1 32.9 C 30.3 32.9 30.6 32.7 30.6 32.5 L 30.6 22.1 C 30.6 21.8 30.3 21.6 30.1 21.6 Z" fill="url(#gradient10)"/>
				<path d="M 29.6 30 L 29.6 24.6 C 29.6 24.6 29.6 24.3 29.3 24.3 C 28.6 24.2 28.1 23.6 28 22.9 C 27.9 22.6 27.6 22.6 27.6 22.6 L 10.6 22.6 C 10.6 22.6 10.3 22.6 10.3 22.9 C 10.1 23.6 9.6 24.2 8.9 24.3 C 8.6 24.3 8.6 24.6 8.6 24.6 L 8.6 30 C 8.6 30 8.6 30.4 8.9 30.4 C 9.6 30.5 10.1 31 10.2 31.6 C 10.3 32 10.8 32 10.8 32 L 27.5 32 C 27.5 32 27.9 32 28 31.6 C 28.2 31 28.6 30.5 29.3 30.4 C 29.7 30.4 29.6 30 29.6 30 ZM 20.3 27.9 C 20.3 28.4 20 28.8 19.4 29 L 19.4 29.6 L 18.9 29.6 L 18.9 29 C 18.3 29 17.9 28.7 17.8 28.6 L 18.1 28.1 C 18.2 28.2 18.3 28.2 18.4 28.3 C 18.6 28.4 18.8 28.4 19 28.4 C 19.4 28.4 19.6 28.3 19.6 27.9 C 19.6 27.6 19.4 27.5 19 27.4 C 18.3 27.1 17.9 26.8 17.9 26.2 C 17.9 25.8 18.3 25.4 18.9 25.3 L 18.9 24.8 L 19.4 24.8 L 19.4 25.3 C 19.8 25.3 20.2 25.5 20.3 25.5 L 20 26.1 C 19.9 26 19.8 26 19.7 25.9 C 19.6 25.9 19.4 25.8 19.2 25.8 C 18.9 25.8 18.7 25.9 18.7 26.2 C 18.7 26.5 18.9 26.6 19.4 26.8 C 20 27.1 20.3 27.3 20.3 27.9 ZM 26.7 27.6 C 26.7 27.8 26.5 28 26.2 28.1 L 26.2 28.4 L 26 28.4 L 26 28.1 C 25.7 28.1 25.5 28 25.5 27.9 L 25.6 27.7 C 25.6 27.7 25.7 27.7 25.7 27.7 C 25.8 27.8 25.9 27.8 26 27.8 C 26.2 27.8 26.3 27.7 26.3 27.6 C 26.3 27.4 26.2 27.4 26 27.3 C 25.7 27.2 25.5 27.1 25.5 26.8 C 25.5 26.6 25.7 26.4 26 26.3 L 26 26.1 L 26.2 26.1 L 26.2 26.3 C 26.4 26.4 26.6 26.4 26.6 26.5 L 26.5 26.7 C 26.5 26.7 26.4 26.7 26.4 26.6 C 26.3 26.6 26.2 26.6 26.1 26.6 C 26 26.6 25.9 26.6 25.9 26.7 C 25.9 26.9 26 27 26.2 27.1 C 26.5 27.2 26.7 27.3 26.7 27.6 ZM 12.5 27.6 C 12.5 27.8 12.3 28 12 28.1 L 12 28.4 L 11.8 28.4 L 11.8 28.1 C 11.6 28.1 11.4 28 11.3 27.9 L 11.4 27.7 C 11.5 27.7 11.5 27.7 11.6 27.7 C 11.7 27.8 11.8 27.8 11.9 27.8 C 12.1 27.8 12.2 27.7 12.2 27.6 C 12.2 27.4 12.1 27.4 11.9 27.3 C 11.6 27.2 11.4 27.1 11.4 26.8 C 11.4 26.6 11.5 26.4 11.8 26.3 L 11.8 26.1 L 12 26.1 L 12 26.3 C 12.3 26.4 12.4 26.4 12.5 26.5 L 12.4 26.7 C 12.3 26.7 12.3 26.7 12.2 26.6 C 12.1 26.6 12 26.6 12 26.6 C 11.8 26.6 11.7 26.6 11.7 26.7 C 11.7 26.9 11.8 27 12 27.1 C 12.3 27.2 12.5 27.3 12.5 27.6 Z" fill="url(#gradient11)"/>
			</g>
			<g>
				<path d="M 30.2 22.1 L 8 22.1 C 7.7 22.1 7.5 22.3 7.5 22.6 L 7.5 33.2 C 7.5 33.5 7.7 33.8 8 33.8 L 30.2 33.8 C 30.5 33.8 30.7 33.5 30.7 33.2 L 30.7 22.6 C 30.7 22.3 30.5 22.1 30.2 22.1 Z" fill="#585858"/>
				<path d="M 30.1 22.3 L 8.1 22.3 C 7.9 22.3 7.7 22.5 7.7 22.7 L 7.7 33.1 C 7.7 33.4 7.9 33.6 8.1 33.6 L 30.1 33.6 C 30.3 33.6 30.6 33.4 30.6 33.1 L 30.6 22.7 C 30.6 22.5 30.3 22.3 30.1 22.3 Z" fill="url(#gradient12)"/>
				<path d="M 29.6 30.6 L 29.6 25.3 C 29.6 25.3 29.6 25 29.3 24.9 C 28.6 24.8 28.1 24.3 28 23.6 C 27.9 23.2 27.6 23.2 27.6 23.2 L 10.6 23.2 C 10.6 23.2 10.3 23.2 10.3 23.6 C 10.1 24.3 9.6 24.8 8.9 24.9 C 8.6 25 8.6 25.3 8.6 25.3 L 8.6 30.6 C 8.6 30.6 8.6 31 8.9 31 C 9.6 31.2 10.1 31.6 10.2 32.2 C 10.3 32.6 10.8 32.6 10.8 32.6 L 27.5 32.6 C 27.5 32.6 27.9 32.6 28 32.2 C 28.2 31.6 28.6 31.2 29.3 31 C 29.7 31 29.6 30.6 29.6 30.6 ZM 20.3 28.5 C 20.3 29 20 29.5 19.4 29.6 L 19.4 30.2 L 18.9 30.2 L 18.9 29.6 C 18.3 29.6 17.9 29.4 17.8 29.3 L 18.1 28.7 C 18.2 28.8 18.3 28.9 18.4 28.9 C 18.6 29 18.8 29.1 19 29.1 C 19.4 29.1 19.6 28.9 19.6 28.6 C 19.6 28.2 19.4 28.2 19 28 C 18.3 27.8 17.9 27.5 17.9 26.9 C 17.9 26.4 18.3 26 18.9 25.9 L 18.9 25.4 L 19.4 25.4 L 19.4 25.9 C 19.8 26 20.2 26.1 20.3 26.2 L 20 26.7 C 19.9 26.7 19.8 26.6 19.7 26.6 C 19.6 26.5 19.4 26.4 19.2 26.4 C 18.9 26.4 18.7 26.5 18.7 26.8 C 18.7 27.1 18.9 27.3 19.4 27.5 C 20 27.7 20.3 28 20.3 28.5 ZM 26.7 28.2 C 26.7 28.4 26.5 28.7 26.2 28.7 L 26.2 29 L 26 29 L 26 28.7 C 25.7 28.7 25.5 28.6 25.5 28.6 L 25.6 28.3 C 25.6 28.3 25.7 28.4 25.7 28.4 C 25.8 28.4 25.9 28.5 26 28.5 C 26.2 28.5 26.3 28.4 26.3 28.2 C 26.3 28.1 26.2 28 26 28 C 25.7 27.9 25.5 27.7 25.5 27.4 C 25.5 27.2 25.7 27 26 27 L 26 26.7 L 26.2 26.7 L 26.2 27 C 26.4 27 26.6 27.1 26.6 27.1 L 26.5 27.3 C 26.5 27.3 26.4 27.3 26.4 27.3 C 26.3 27.3 26.2 27.2 26.1 27.2 C 26 27.2 25.9 27.3 25.9 27.4 C 25.9 27.5 26 27.6 26.2 27.7 C 26.5 27.8 26.7 27.9 26.7 28.2 ZM 12.5 28.2 C 12.5 28.4 12.3 28.7 12 28.7 L 12 29 L 11.8 29 L 11.8 28.7 C 11.6 28.7 11.4 28.6 11.3 28.6 L 11.4 28.3 C 11.5 28.3 11.5 28.4 11.6 28.4 C 11.7 28.4 11.8 28.5 11.9 28.5 C 12.1 28.5 12.2 28.4 12.2 28.2 C 12.2 28.1 12.1 28 11.9 28 C 11.6 27.9 11.4 27.7 11.4 27.4 C 11.4 27.2 11.5 27 11.8 27 L 11.8 26.7 L 12 26.7 L 12 27 C 12.3 27 12.4 27.1 12.5 27.1 L 12.4 27.3 C 12.3 27.3 12.3 27.3 12.2 27.3 C 12.1 27.3 12 27.2 12 27.2 C 11.8 27.2 11.7 27.3 11.7 27.4 C 11.7 27.5 11.8 27.6 12 27.7 C 12.3 27.8 12.5 27.9 12.5 28.2 Z" fill="url(#gradient13)"/>
			</g>
			<g>
				<path d="M 30.2 22.7 L 8 22.7 C 7.7 22.7 7.5 23 7.5 23.3 L 7.5 33.9 C 7.5 34.2 7.7 34.4 8 34.4 L 30.2 34.4 C 30.5 34.4 30.7 34.2 30.7 33.9 L 30.7 23.3 C 30.7 23 30.5 22.7 30.2 22.7 Z" fill="#585858"/>
				<path d="M 30.1 22.9 L 8.1 22.9 C 7.9 22.9 7.7 23.1 7.7 23.4 L 7.7 33.8 C 7.7 34 7.9 34.2 8.1 34.2 L 30.1 34.2 C 30.3 34.2 30.6 34 30.6 33.8 L 30.6 23.4 C 30.6 23.1 30.3 22.9 30.1 22.9 Z" fill="url(#gradient14)"/>
				<path d="M 29.6 31.3 L 29.6 26.5 L 28 24.2 L 27.6 23.9 L 10.6 23.9 C 10.6 23.9 10.3 23.9 10.3 24.2 C 10.1 24.9 9.6 25.5 8.9 25.6 C 8.6 25.6 8.6 25.9 8.6 25.9 L 8.6 31.3 C 8.6 31.3 8.6 31.7 8.9 31.7 C 9.6 31.8 10.1 32.3 10.2 32.9 C 10.3 33.3 10.8 33.3 10.8 33.3 L 27.5 33.3 C 27.5 33.3 27.9 33.3 28 32.9 C 28.2 32.3 28.6 31.8 29.3 31.7 C 29.7 31.7 29.6 31.3 29.6 31.3 ZM 20.3 29.2 C 20.3 29.7 20 30.1 19.4 30.3 L 19.4 30.9 L 18.9 30.9 L 18.9 30.3 C 18.3 30.2 17.9 30 17.8 29.9 L 18.1 29.4 C 18.2 29.5 18.3 29.5 18.4 29.6 C 18.6 29.7 18.8 29.7 19 29.7 C 19.4 29.7 19.6 29.6 19.6 29.2 C 19.6 28.9 19.4 28.8 19 28.7 C 18.3 28.4 17.9 28.1 17.9 27.5 C 17.9 27.1 18.3 26.7 18.9 26.6 L 18.9 26.1 L 19.4 26.1 L 19.4 26.6 C 19.8 26.6 20.2 26.8 20.3 26.8 L 20 27.3 C 19.9 27.3 19.8 27.3 19.7 27.2 C 19.6 27.2 19.4 27.1 19.2 27.1 C 18.9 27.1 18.7 27.2 18.7 27.4 C 18.7 27.8 18.9 27.9 19.4 28.1 C 20 28.4 20.3 28.6 20.3 29.2 ZM 26.7 28.9 C 26.7 29.1 26.5 29.3 26.2 29.4 L 26.2 29.7 L 26 29.7 L 26 29.4 C 25.7 29.4 25.5 29.3 25.5 29.2 L 25.6 29 C 25.6 29 25.7 29 25.7 29 C 25.8 29.1 25.9 29.1 26 29.1 C 26.2 29.1 26.3 29 26.3 28.9 C 26.3 28.7 26.2 28.7 26 28.6 C 25.7 28.5 25.5 28.4 25.5 28.1 C 25.5 27.9 25.7 27.7 26 27.6 L 26 27.4 L 26.2 27.4 L 26.2 27.6 C 26.4 27.6 26.6 27.7 26.6 27.8 L 26.5 28 C 26.5 28 26.4 28 26.4 27.9 C 26.3 27.9 26.2 27.9 26.1 27.9 C 26 27.9 25.9 27.9 25.9 28 C 25.9 28.2 26 28.3 26.2 28.4 C 26.5 28.5 26.7 28.6 26.7 28.9 ZM 12.5 28.9 C 12.5 29.1 12.3 29.3 12 29.4 L 12 29.7 L 11.8 29.7 L 11.8 29.4 C 11.6 29.4 11.4 29.3 11.3 29.2 L 11.4 29 C 11.5 29 11.5 29 11.6 29 C 11.7 29.1 11.8 29.1 11.9 29.1 C 12.1 29.1 12.2 29 12.2 28.9 C 12.2 28.7 12.1 28.7 11.9 28.6 C 11.6 28.5 11.4 28.4 11.4 28.1 C 11.4 27.9 11.5 27.7 11.8 27.6 L 11.8 27.4 L 12 27.4 L 12 27.6 C 12.3 27.6 12.4 27.7 12.5 27.8 L 12.4 28 C 12.3 28 12.3 28 12.2 27.9 C 12.1 27.9 12 27.9 12 27.9 C 11.8 27.9 11.7 27.9 11.7 28 C 11.7 28.2 11.8 28.3 12 28.4 C 12.3 28.5 12.5 28.6 12.5 28.9 Z" fill="url(#gradient15)"/>
			</g>
			<g>
				<path d="M 7.5 34.5 C 7.5 34.8 7.7 35.1 8 35.1 L 30.3 35.1 C 30.6 35.1 30.8 34.8 30.8 34.5 L 30.8 28.1 C 30.8 28.1 30.8 27.5 30.4 27.2 C 30.2 27 29.8 26.9 29.2 26.8 C 28.4 26.7 28 26.6 27.9 25.7 C 27.9 25.6 27.8 24.7 27.8 24.3 C 27.7 23.5 27.3 23.4 26.8 23.4 L 8 23.4 C 7.7 23.4 7.5 23.6 7.5 23.9 L 7.5 34.5 Z" fill="#585858"/>
				<path d="M 27.9 25.7 C 27.9 25.6 27.8 24.7 27.8 24.3 C 27.7 24 27.7 23.8 27.6 23.7 L 30.5 27.3 C 30.5 27.3 30.5 27.2 30.4 27.2 C 30.2 27 29.8 26.9 29.2 26.8 C 28.4 26.7 28 26.6 27.9 25.7 Z" fill="url(#gradient16)"/>
				<path d="M 26.7 23.6 C 27.5 23.6 27.4 24.3 27.4 24.3 C 27.4 24.3 27.4 25.6 27.4 26.3 C 27.4 27.2 28.5 27.2 28.5 27.2 L 29.8 27.2 C 29.8 27.2 29.9 27.2 30 27.2 C 30.4 27.3 30.6 27.6 30.6 27.8 C 30.6 27.9 30.7 28 30.7 28 C 30.7 28.2 30.7 34.4 30.7 34.4 C 30.7 34.7 30.4 34.9 30.2 34.9 L 8.1 34.9 C 7.9 34.9 7.7 34.7 7.7 34.4 L 7.7 24 C 7.7 23.8 7.9 23.5 8.1 23.5 C 8.1 23.5 25.9 23.6 26.7 23.6 Z" fill="url(#gradient17)"/>
				<path d="M 29.4 26.8 C 29.4 26.8 28.7 26.7 28.3 26.3 C 28 26 27.9 25.5 27.8 25.1 C 27.9 25.7 27.9 25.7 27.9 25.7 C 27.9 25.7 27.9 26.2 28.1 26.5 C 28.4 26.7 28.8 26.8 28.8 26.8 L 29.4 26.8 Z" fill="url(#gradient18)"/>
				<path d="M 19.4 26.7 L 19.4 27.2 C 19.9 27.3 20.2 27.4 20.3 27.5 L 20.1 28 C 20 27.9 19.9 27.9 19.8 27.9 C 19.6 27.8 19.4 27.7 19.2 27.7 C 19 27.7 18.7 27.8 18.7 28.1 C 18.7 28.4 18.9 28.6 19.4 28.8 C 20 29 20.4 29.3 20.4 29.8 C 20.4 30.3 20 30.8 19.4 30.9 L 19.4 31.5 L 18.9 31.5 L 18.9 30.9 C 18.4 30.9 18 30.7 17.8 30.6 L 18.1 30 C 18.2 30.1 18.3 30.2 18.5 30.2 C 18.6 30.3 18.9 30.4 19 30.4 C 19.4 30.4 19.7 30.2 19.7 29.9 C 19.7 29.5 19.4 29.5 19.1 29.3 C 18.4 29.1 18 28.8 18 28.2 C 18 27.7 18.3 27.3 18.9 27.2 L 18.9 26.7 L 19.4 26.7 ZM 26.3 28 L 26.3 28.3 C 26.5 28.3 26.6 28.4 26.7 28.4 L 26.6 28.6 C 26.5 28.6 26.5 28.6 26.4 28.6 C 26.3 28.5 26.2 28.5 26.2 28.5 C 26 28.5 25.9 28.6 25.9 28.7 C 25.9 28.8 26 28.9 26.2 29 C 26.5 29.1 26.7 29.2 26.7 29.5 C 26.7 29.7 26.5 30 26.3 30 L 26.3 30.3 L 26 30.3 L 26 30 C 25.8 30 25.6 29.9 25.5 29.9 L 25.6 29.6 C 25.7 29.6 25.7 29.7 25.8 29.7 C 25.9 29.7 26 29.8 26.1 29.8 C 26.3 29.8 26.4 29.7 26.4 29.5 C 26.4 29.4 26.3 29.3 26.1 29.3 C 25.8 29.1 25.6 29 25.6 28.7 C 25.6 28.5 25.7 28.3 26 28.3 L 26 28 L 26.3 28 ZM 12.1 28 L 12.1 28.3 C 12.3 28.3 12.5 28.4 12.5 28.4 L 12.4 28.6 C 12.4 28.6 12.3 28.6 12.3 28.6 C 12.2 28.5 12.1 28.5 12 28.5 C 11.9 28.5 11.8 28.6 11.8 28.7 C 11.8 28.8 11.9 28.9 12.1 29 C 12.4 29.1 12.5 29.2 12.5 29.5 C 12.5 29.7 12.4 30 12.1 30 L 12.1 30.3 L 11.9 30.3 L 11.9 30 C 11.6 30 11.4 29.9 11.4 29.9 L 11.5 29.6 C 11.5 29.6 11.6 29.7 11.6 29.7 C 11.7 29.7 11.8 29.8 11.9 29.8 C 12.1 29.8 12.2 29.7 12.2 29.5 C 12.2 29.4 12.1 29.3 11.9 29.3 C 11.6 29.1 11.4 29 11.4 28.7 C 11.4 28.5 11.6 28.3 11.9 28.3 L 11.9 28 L 12.1 28 ZM 10.7 24.5 L 27.4 24.5 L 27.4 26.3 C 27.4 26.3 27.4 26.3 27.4 26.3 C 27.5 27.2 28.5 27.2 28.5 27.2 L 29.7 27.2 L 29.7 32.1 C 29.7 32.1 29.7 32.3 29.5 32.3 C 28.7 32.4 28.2 33 28.1 33.7 C 28 33.9 27.8 33.9 27.8 33.9 L 10.8 33.9 C 10.8 33.9 10.3 33.9 10.3 33.5 C 10.1 32.9 9.6 32.4 9 32.3 C 8.6 32.3 8.6 31.9 8.6 31.9 L 8.6 26.6 C 8.6 26.6 8.6 26.3 9 26.2 C 9.7 26.1 10.2 25.6 10.3 24.9 C 10.3 24.5 10.7 24.5 10.7 24.5 ZM 19.2 25.5 C 17.8 25.5 16.7 27.2 16.7 29.2 C 16.7 31.3 17.8 32.9 19.2 32.9 C 20.5 32.9 21.6 31.3 21.6 29.2 C 21.6 27.2 20.5 25.5 19.2 25.5 ZM 26.1 27.5 C 25.5 27.5 25 28.3 25 29.2 C 25 30.2 25.5 31 26.1 31 C 26.8 31 27.3 30.2 27.3 29.2 C 27.3 28.3 26.8 27.5 26.1 27.5 ZM 12 27.5 C 11.3 27.5 10.8 28.3 10.8 29.2 C 10.8 30.2 11.3 31 12 31 C 12.6 31 13.1 30.2 13.1 29.2 C 13.1 28.3 12.6 27.5 12 27.5 Z" fill="url(#gradient19)"/>
			</g>
			<path opacity="0.3" d="M 16.7 32.2 L 16.7 31.5 C 16.7 31.2 16.3 30.9 15.7 30.7 L 15.7 30.6 C 16.9 30.4 17.6 30 17.6 29.5 L 17.6 28.1 C 17.6 27.3 15.1 26.6 12 26.6 C 10.2 26.6 8.5 26.9 7.5 27.2 L 7.5 35 L 18.2 35 C 18.4 34.9 18.4 34.8 18.4 34.7 L 18.4 33.2 C 18.4 32.8 17.8 32.4 16.7 32.2 Z" fill="#000000"/>
			<g>
				<g>
					<path d="M 5.9 34.4 L 5.9 35.7 C 5.9 35.7 5.9 35.7 5.9 35.7 C 5.9 36.4 8.1 37 10.7 37 C 13.4 37 15.5 36.4 15.5 35.7 L 15.5 34.4 L 5.9 34.4 Z" fill="url(#gradient20)"/>
					<path d="M 15.5 34.4 C 15.5 35.1 13.4 35.7 10.7 35.7 C 8.1 35.7 5.9 35.1 5.9 34.4 C 5.9 33.7 8.1 33.1 10.7 33.1 C 13.4 33.1 15.5 33.7 15.5 34.4 Z" fill="url(#gradient21)"/>
					<path d="M 15.1 34.4 C 15.1 35 13.2 35.5 10.7 35.5 C 8.3 35.5 6.3 35 6.3 34.4 C 6.3 33.8 8.3 33.3 10.7 33.3 C 13.2 33.3 15.1 33.8 15.1 34.4 Z" fill="url(#gradient22)"/>
					<path d="M 15 34.5 C 15 35 13.1 35.5 10.7 35.5 C 8.4 35.5 6.4 35 6.4 34.5 C 6.4 34 8.4 33.6 10.7 33.6 C 13.1 33.6 15 34 15 34.5 Z" fill="url(#gradient23)"/>
					<path d="M 13 36.5 C 12.9 36.5 12.9 36.6 12.8 36.6 L 12.8 35.8 C 12.9 35.8 12.9 35.8 13 35.8 L 13 36.5 ZM 15.3 35.1 C 15.3 35.1 15.2 35.2 15.1 35.2 L 15.1 35.9 C 15.2 35.9 15.3 35.9 15.3 35.8 L 15.3 35.1 ZM 13.4 35.7 C 13.3 35.8 13.2 35.8 13.2 35.8 L 13.2 36.5 C 13.2 36.5 13.3 36.5 13.4 36.5 L 13.4 35.7 ZM 14.1 35.6 C 14.1 35.6 14 35.6 14 35.6 L 14 36.4 C 14 36.3 14.1 36.3 14.1 36.3 L 14.1 35.6 ZM 14.5 35.5 C 14.5 35.5 14.4 35.5 14.4 35.5 L 14.4 36.2 C 14.4 36.2 14.5 36.2 14.5 36.2 L 14.5 35.5 ZM 13.7 35.7 C 13.7 35.7 13.6 35.7 13.6 35.7 L 13.6 36.4 C 13.6 36.4 13.7 36.4 13.7 36.4 L 13.7 35.7 ZM 11.4 35.9 C 11.3 35.9 11.3 35.9 11.2 35.9 L 11.2 36.7 C 11.3 36.7 11.3 36.7 11.4 36.7 L 11.4 35.9 ZM 10.8 36.7 C 10.9 36.7 11 36.7 11 36.7 L 11 35.9 C 11 35.9 10.9 35.9 10.8 35.9 L 10.8 36.7 ZM 12.2 35.9 C 12.1 35.9 12.1 35.9 12 35.9 L 12 36.6 C 12.1 36.6 12.1 36.6 12.2 36.6 L 12.2 35.9 ZM 11.8 35.9 C 11.7 35.9 11.7 35.9 11.6 35.9 L 11.6 36.7 C 11.7 36.7 11.7 36.7 11.8 36.6 L 11.8 35.9 ZM 12.6 35.9 C 12.5 35.9 12.5 35.9 12.4 35.9 L 12.4 36.6 C 12.5 36.6 12.5 36.6 12.6 36.6 L 12.6 35.9 ZM 14.9 35.3 C 14.9 35.3 14.8 35.4 14.7 35.4 L 14.7 36.1 C 14.8 36.1 14.9 36.1 14.9 36 L 14.9 35.3 ZM 9.5 35.9 C 9.4 35.9 9.3 35.9 9.3 35.9 L 9.3 36.6 C 9.3 36.6 9.4 36.6 9.5 36.6 L 9.5 35.9 ZM 9.8 35.9 C 9.8 35.9 9.7 35.9 9.7 35.9 L 9.7 36.6 C 9.7 36.7 9.8 36.7 9.8 36.7 L 9.8 35.9 ZM 8.7 35.8 C 8.6 35.8 8.6 35.8 8.5 35.8 L 8.5 36.5 C 8.6 36.5 8.6 36.6 8.7 36.6 L 8.7 35.8 ZM 9.1 35.9 C 9 35.9 9 35.9 8.9 35.9 L 8.9 36.6 C 9 36.6 9 36.6 9.1 36.6 L 9.1 35.9 ZM 10.2 35.9 C 10.2 35.9 10.1 35.9 10.1 35.9 L 10.1 36.7 C 10.1 36.7 10.2 36.7 10.2 36.7 L 10.2 35.9 ZM 10.6 35.9 C 10.6 35.9 10.5 35.9 10.5 35.9 L 10.5 36.7 C 10.5 36.7 10.6 36.7 10.6 36.7 L 10.6 35.9 ZM 7.5 35.6 C 7.4 35.6 7.4 35.6 7.3 35.6 L 7.3 36.3 C 7.4 36.3 7.4 36.3 7.5 36.4 L 7.5 35.6 ZM 8.3 35.8 C 8.2 35.8 8.2 35.8 8.1 35.7 L 8.1 36.5 C 8.2 36.5 8.2 36.5 8.3 36.5 L 8.3 35.8 ZM 7.1 35.5 C 7.1 35.5 7 35.5 6.9 35.5 L 6.9 36.2 C 7 36.2 7.1 36.2 7.1 36.3 L 7.1 35.5 ZM 6.2 35.8 C 6.2 35.9 6.3 35.9 6.3 35.9 L 6.3 35.2 C 6.3 35.2 6.2 35.1 6.2 35.1 L 6.2 35.8 ZM 7.9 35.7 C 7.8 35.7 7.8 35.7 7.7 35.7 L 7.7 36.4 C 7.8 36.4 7.8 36.4 7.9 36.4 L 7.9 35.7 ZM 6.7 35.4 C 6.7 35.4 6.6 35.3 6.6 35.3 L 6.6 36 C 6.6 36.1 6.7 36.1 6.7 36.1 L 6.7 35.4 Z" fill="url(#gradient24)"/>
				</g>
				<g>
					<path d="M 7.4 32.9 L 7.4 34.2 C 7.4 34.2 7.4 34.2 7.4 34.2 C 7.4 34.9 9.5 35.5 12.2 35.5 C 14.8 35.5 17 34.9 17 34.2 L 17 32.9 L 7.4 32.9 Z" fill="url(#gradient25)"/>
					<path d="M 17 32.9 C 17 33.6 14.8 34.1 12.2 34.1 C 9.5 34.1 7.4 33.6 7.4 32.9 C 7.4 32.2 9.5 31.6 12.2 31.6 C 14.8 31.6 17 32.2 17 32.9 Z" fill="url(#gradient26)"/>
					<path d="M 16.6 32.9 C 16.6 33.5 14.6 33.9 12.2 33.9 C 9.7 33.9 7.8 33.5 7.8 32.9 C 7.8 32.3 9.7 31.8 12.2 31.8 C 14.6 31.8 16.6 32.3 16.6 32.9 Z" fill="url(#gradient27)"/>
					<path d="M 7.9 33 C 7.9 33.5 9.8 33.9 12.2 33.9 C 14.5 33.9 16.5 33.5 16.5 33 C 16.5 32.5 14.5 32 12.2 32 C 9.8 32 7.9 32.5 7.9 33 Z" fill="url(#gradient28)"/>
					<path d="M 14.4 35 C 14.4 35 14.3 35 14.3 35 L 14.3 34.3 C 14.3 34.3 14.4 34.3 14.4 34.3 L 14.4 35 ZM 16.8 33.6 C 16.7 33.6 16.7 33.6 16.6 33.7 L 16.6 34.4 C 16.7 34.4 16.7 34.3 16.8 34.3 L 16.8 33.6 ZM 14.8 34.2 C 14.8 34.2 14.7 34.2 14.6 34.2 L 14.6 35 C 14.7 35 14.8 35 14.8 34.9 L 14.8 34.2 ZM 15.6 34.1 C 15.5 34.1 15.5 34.1 15.4 34.1 L 15.4 34.8 C 15.5 34.8 15.5 34.8 15.6 34.8 L 15.6 34.1 ZM 16 33.9 C 15.9 34 15.9 34 15.8 34 L 15.8 34.7 C 15.9 34.7 15.9 34.7 16 34.7 L 16 33.9 ZM 15.2 34.1 C 15.1 34.2 15.1 34.2 15 34.2 L 15 34.9 C 15.1 34.9 15.1 34.9 15.2 34.9 L 15.2 34.1 ZM 12.9 34.4 C 12.8 34.4 12.7 34.4 12.7 34.4 L 12.7 35.1 C 12.7 35.1 12.8 35.1 12.9 35.1 L 12.9 34.4 ZM 12.3 35.2 C 12.4 35.2 12.4 35.2 12.5 35.2 L 12.5 34.4 C 12.4 34.4 12.4 34.4 12.3 34.4 L 12.3 35.2 ZM 13.6 34.4 C 13.6 34.4 13.5 34.4 13.5 34.4 L 13.5 35.1 C 13.5 35.1 13.6 35.1 13.6 35.1 L 13.6 34.4 ZM 13.3 34.4 C 13.2 34.4 13.1 34.4 13.1 34.4 L 13.1 35.1 C 13.1 35.1 13.2 35.1 13.3 35.1 L 13.3 34.4 ZM 14 34.3 C 14 34.3 13.9 34.3 13.9 34.3 L 13.9 35.1 C 13.9 35.1 14 35.1 14 35.1 L 14 34.3 ZM 16.4 33.8 C 16.3 33.8 16.3 33.8 16.2 33.9 L 16.2 34.6 C 16.3 34.6 16.3 34.5 16.4 34.5 L 16.4 33.8 ZM 10.9 34.4 C 10.9 34.4 10.8 34.4 10.7 34.4 L 10.7 35.1 C 10.8 35.1 10.9 35.1 10.9 35.1 L 10.9 34.4 ZM 11.3 34.4 C 11.2 34.4 11.2 34.4 11.1 34.4 L 11.1 35.1 C 11.2 35.1 11.2 35.1 11.3 35.1 L 11.3 34.4 ZM 10.1 34.3 C 10.1 34.3 10 34.3 10 34.3 L 10 35 C 10 35 10.1 35 10.1 35 L 10.1 34.3 ZM 10.5 34.3 C 10.5 34.3 10.4 34.3 10.4 34.3 L 10.4 35.1 C 10.4 35.1 10.5 35.1 10.5 35.1 L 10.5 34.3 ZM 11.7 34.4 C 11.6 34.4 11.6 34.4 11.5 34.4 L 11.5 35.1 C 11.6 35.1 11.6 35.1 11.7 35.1 L 11.7 34.4 ZM 12.1 34.4 C 12 34.4 12 34.4 11.9 34.4 L 11.9 35.2 C 12 35.2 12 35.2 12.1 35.2 L 12.1 34.4 ZM 9 34.1 C 8.9 34.1 8.8 34.1 8.8 34.1 L 8.8 34.8 C 8.8 34.8 8.9 34.8 9 34.8 L 9 34.1 ZM 9.7 34.3 C 9.7 34.2 9.6 34.2 9.6 34.2 L 9.6 35 C 9.6 35 9.7 35 9.7 35 L 9.7 34.3 ZM 8.6 34 C 8.5 34 8.5 34 8.4 33.9 L 8.4 34.7 C 8.5 34.7 8.5 34.7 8.6 34.7 L 8.6 34 ZM 7.6 34.3 C 7.7 34.3 7.7 34.4 7.8 34.4 L 7.8 33.7 C 7.7 33.6 7.7 33.6 7.6 33.6 L 7.6 34.3 ZM 9.4 34.2 C 9.3 34.2 9.2 34.2 9.2 34.1 L 9.2 34.9 C 9.2 34.9 9.3 34.9 9.4 34.9 L 9.4 34.2 ZM 8.2 33.9 C 8.1 33.8 8.1 33.8 8 33.8 L 8 34.5 C 8.1 34.5 8.1 34.6 8.2 34.6 L 8.2 33.9 Z" fill="url(#gradient29)"/>
				</g>
				<g>
					<path d="M 5.9 31.4 L 5.9 32.6 C 5.9 32.7 5.9 32.7 5.9 32.7 C 5.9 33.4 8.1 33.9 10.7 33.9 C 13.4 33.9 15.5 33.4 15.5 32.7 L 15.5 31.4 L 5.9 31.4 Z" fill="url(#gradient30)"/>
					<path d="M 15.5 31.4 C 15.5 32 13.4 32.6 10.7 32.6 C 8.1 32.6 5.9 32 5.9 31.4 C 5.9 30.7 8.1 30.1 10.7 30.1 C 13.4 30.1 15.5 30.7 15.5 31.4 Z" fill="url(#gradient31)"/>
					<path d="M 15.1 31.4 C 15.1 31.9 13.2 32.4 10.7 32.4 C 8.3 32.4 6.3 31.9 6.3 31.4 C 6.3 30.8 8.3 30.3 10.7 30.3 C 13.2 30.3 15.1 30.8 15.1 31.4 Z" fill="url(#gradient32)"/>
					<path d="M 15 31.5 C 15 32 13.1 32.4 10.7 32.4 C 8.4 32.4 6.4 32 6.4 31.5 C 6.4 30.9 8.4 30.5 10.7 30.5 C 13.1 30.5 15 30.9 15 31.5 Z" fill="url(#gradient33)"/>
					<path d="M 13 33.5 C 12.9 33.5 12.9 33.5 12.8 33.5 L 12.8 32.8 C 12.9 32.8 12.9 32.8 13 32.8 L 13 33.5 ZM 15.3 32 C 15.3 32.1 15.2 32.1 15.1 32.1 L 15.1 32.9 C 15.2 32.8 15.3 32.8 15.3 32.8 L 15.3 32 ZM 13.4 32.7 C 13.3 32.7 13.2 32.7 13.2 32.7 L 13.2 33.5 C 13.2 33.4 13.3 33.4 13.4 33.4 L 13.4 32.7 ZM 14.1 32.5 C 14.1 32.5 14 32.6 14 32.6 L 14 33.3 C 14 33.3 14.1 33.3 14.1 33.3 L 14.1 32.5 ZM 14.5 32.4 C 14.5 32.4 14.4 32.5 14.4 32.5 L 14.4 33.2 C 14.4 33.2 14.5 33.2 14.5 33.1 L 14.5 32.4 ZM 13.7 32.6 C 13.7 32.6 13.6 32.6 13.6 32.7 L 13.6 33.4 C 13.6 33.4 13.7 33.4 13.7 33.4 L 13.7 32.6 ZM 11.4 32.9 C 11.3 32.9 11.3 32.9 11.2 32.9 L 11.2 33.6 C 11.3 33.6 11.3 33.6 11.4 33.6 L 11.4 32.9 ZM 10.8 33.6 C 10.9 33.6 11 33.6 11 33.6 L 11 32.9 C 11 32.9 10.9 32.9 10.8 32.9 L 10.8 33.6 ZM 12.2 32.8 C 12.1 32.8 12.1 32.8 12 32.9 L 12 33.6 C 12.1 33.6 12.1 33.6 12.2 33.6 L 12.2 32.8 ZM 11.8 32.9 C 11.7 32.9 11.7 32.9 11.6 32.9 L 11.6 33.6 C 11.7 33.6 11.7 33.6 11.8 33.6 L 11.8 32.9 ZM 12.6 32.8 C 12.5 32.8 12.5 32.8 12.4 32.8 L 12.4 33.5 C 12.5 33.5 12.5 33.5 12.6 33.5 L 12.6 32.8 ZM 14.9 32.3 C 14.9 32.3 14.8 32.3 14.7 32.3 L 14.7 33.1 C 14.8 33 14.9 33 14.9 33 L 14.9 32.3 ZM 9.5 32.9 C 9.4 32.9 9.3 32.8 9.3 32.8 L 9.3 33.6 C 9.3 33.6 9.4 33.6 9.5 33.6 L 9.5 32.9 ZM 9.8 32.9 C 9.8 32.9 9.7 32.9 9.7 32.9 L 9.7 33.6 C 9.7 33.6 9.8 33.6 9.8 33.6 L 9.8 32.9 ZM 8.7 32.8 C 8.6 32.8 8.6 32.8 8.5 32.8 L 8.5 33.5 C 8.6 33.5 8.6 33.5 8.7 33.5 L 8.7 32.8 ZM 9.1 32.8 C 9 32.8 9 32.8 8.9 32.8 L 8.9 33.5 C 9 33.5 9 33.5 9.1 33.6 L 9.1 32.8 ZM 10.2 32.9 C 10.2 32.9 10.1 32.9 10.1 32.9 L 10.1 33.6 C 10.1 33.6 10.2 33.6 10.2 33.6 L 10.2 32.9 ZM 10.6 32.9 C 10.6 32.9 10.5 32.9 10.5 32.9 L 10.5 33.6 C 10.5 33.6 10.6 33.6 10.6 33.6 L 10.6 32.9 ZM 7.5 32.6 C 7.4 32.6 7.4 32.5 7.3 32.5 L 7.3 33.3 C 7.4 33.3 7.4 33.3 7.5 33.3 L 7.5 32.6 ZM 8.3 32.7 C 8.2 32.7 8.2 32.7 8.1 32.7 L 8.1 33.4 C 8.2 33.4 8.2 33.4 8.3 33.5 L 8.3 32.7 ZM 7.1 32.5 C 7.1 32.5 7 32.4 6.9 32.4 L 6.9 33.1 C 7 33.2 7.1 33.2 7.1 33.2 L 7.1 32.5 ZM 6.2 32.8 C 6.2 32.8 6.3 32.8 6.3 32.9 L 6.3 32.2 C 6.3 32.1 6.2 32.1 6.2 32 L 6.2 32.8 ZM 7.9 32.7 C 7.8 32.6 7.8 32.6 7.7 32.6 L 7.7 33.4 C 7.8 33.4 7.8 33.4 7.9 33.4 L 7.9 32.7 ZM 6.7 32.3 C 6.7 32.3 6.6 32.3 6.6 32.3 L 6.6 33 C 6.6 33 6.7 33 6.7 33.1 L 6.7 32.3 Z" fill="url(#gradient34)"/>
				</g>
				<g>
					<path d="M 5 29.8 L 5 31.1 C 5 31.1 5 31.1 5 31.2 C 5 31.9 7.2 32.4 9.8 32.4 C 12.5 32.4 14.6 31.9 14.6 31.2 L 14.6 29.8 L 5 29.8 Z" fill="url(#gradient35)"/>
					<path d="M 14.6 29.8 C 14.6 30.5 12.5 31.1 9.8 31.1 C 7.2 31.1 5 30.5 5 29.8 C 5 29.1 7.2 28.6 9.8 28.6 C 12.5 28.6 14.6 29.1 14.6 29.8 Z" fill="url(#gradient36)"/>
					<path d="M 14.2 29.8 C 14.2 30.4 12.2 30.9 9.8 30.9 C 7.4 30.9 5.4 30.4 5.4 29.8 C 5.4 29.2 7.4 28.8 9.8 28.8 C 12.2 28.8 14.2 29.2 14.2 29.8 Z" fill="url(#gradient37)"/>
					<path d="M 14.1 29.9 C 14.1 30.5 12.2 30.9 9.8 30.9 C 7.5 30.9 5.5 30.5 5.5 29.9 C 5.5 29.4 7.5 29 9.8 29 C 12.2 29 14.1 29.4 14.1 29.9 Z" fill="url(#gradient38)"/>
					<path d="M 12.1 32 C 12 32 11.9 32 11.9 32 L 11.9 31.3 C 11.9 31.2 12 31.2 12.1 31.2 L 12.1 32 ZM 14.4 30.5 C 14.3 30.5 14.3 30.6 14.2 30.6 L 14.2 31.4 C 14.3 31.3 14.3 31.3 14.4 31.2 L 14.4 30.5 ZM 12.4 31.2 C 12.4 31.2 12.3 31.2 12.3 31.2 L 12.3 31.9 C 12.3 31.9 12.4 31.9 12.4 31.9 L 12.4 31.2 ZM 13.2 31 C 13.2 31 13.1 31 13.1 31 L 13.1 31.8 C 13.1 31.8 13.2 31.7 13.2 31.7 L 13.2 31 ZM 13.6 30.9 C 13.6 30.9 13.5 30.9 13.4 30.9 L 13.4 31.7 C 13.5 31.7 13.6 31.6 13.6 31.6 L 13.6 30.9 ZM 12.8 31.1 C 12.8 31.1 12.7 31.1 12.7 31.1 L 12.7 31.9 C 12.7 31.8 12.8 31.8 12.8 31.8 L 12.8 31.1 ZM 10.5 31.4 C 10.4 31.4 10.4 31.4 10.3 31.4 L 10.3 32.1 C 10.4 32.1 10.4 32.1 10.5 32.1 L 10.5 31.4 ZM 9.9 32.1 C 10 32.1 10 32.1 10.1 32.1 L 10.1 31.4 C 10 31.4 10 31.4 9.9 31.4 L 9.9 32.1 ZM 11.3 31.3 C 11.2 31.3 11.2 31.3 11.1 31.3 L 11.1 32.1 C 11.2 32.1 11.2 32 11.3 32 L 11.3 31.3 ZM 10.9 31.3 C 10.8 31.3 10.8 31.3 10.7 31.4 L 10.7 32.1 C 10.8 32.1 10.8 32.1 10.9 32.1 L 10.9 31.3 ZM 11.7 31.3 C 11.6 31.3 11.6 31.3 11.5 31.3 L 11.5 32 C 11.6 32 11.6 32 11.7 32 L 11.7 31.3 ZM 14 30.7 C 14 30.8 13.9 30.8 13.8 30.8 L 13.8 31.5 C 13.9 31.5 14 31.5 14 31.5 L 14 30.7 ZM 8.5 31.3 C 8.5 31.3 8.4 31.3 8.4 31.3 L 8.4 32 C 8.4 32 8.5 32.1 8.5 32.1 L 8.5 31.3 ZM 8.9 31.4 C 8.9 31.3 8.8 31.3 8.8 31.3 L 8.8 32.1 C 8.8 32.1 8.9 32.1 8.9 32.1 L 8.9 31.4 ZM 7.8 31.3 C 7.7 31.2 7.7 31.2 7.6 31.2 L 7.6 32 C 7.7 32 7.7 32 7.8 32 L 7.8 31.3 ZM 8.2 31.3 C 8.1 31.3 8 31.3 8 31.3 L 8 32 C 8 32 8.1 32 8.2 32 L 8.2 31.3 ZM 9.3 31.4 C 9.3 31.4 9.2 31.4 9.2 31.4 L 9.2 32.1 C 9.2 32.1 9.3 32.1 9.3 32.1 L 9.3 31.4 ZM 9.7 31.4 C 9.7 31.4 9.6 31.4 9.5 31.4 L 9.5 32.1 C 9.6 32.1 9.7 32.1 9.7 32.1 L 9.7 31.4 ZM 6.6 31 C 6.5 31 6.5 31 6.4 31 L 6.4 31.7 C 6.5 31.8 6.5 31.8 6.6 31.8 L 6.6 31 ZM 7.4 31.2 C 7.3 31.2 7.3 31.2 7.2 31.2 L 7.2 31.9 C 7.3 31.9 7.3 31.9 7.4 31.9 L 7.4 31.2 ZM 6.2 30.9 C 6.1 30.9 6.1 30.9 6 30.9 L 6 31.6 C 6.1 31.6 6.1 31.7 6.2 31.7 L 6.2 30.9 ZM 5.3 31.2 C 5.3 31.3 5.4 31.3 5.4 31.4 L 5.4 30.6 C 5.4 30.6 5.3 30.5 5.3 30.5 L 5.3 31.2 ZM 7 31.1 C 6.9 31.1 6.9 31.1 6.8 31.1 L 6.8 31.8 C 6.9 31.8 6.9 31.8 7 31.9 L 7 31.1 ZM 5.8 30.8 C 5.8 30.8 5.7 30.8 5.6 30.7 L 5.6 31.5 C 5.7 31.5 5.8 31.5 5.8 31.5 L 5.8 30.8 Z" fill="url(#gradient39)"/>
				</g>
				<g>
					<path d="M 6.7 28.3 L 6.7 29.6 C 6.7 29.6 6.7 29.6 6.7 29.6 C 6.7 30.3 8.8 30.9 11.5 30.9 C 14.2 30.9 16.3 30.3 16.3 29.6 L 16.3 28.3 L 6.7 28.3 Z" fill="url(#gradient40)"/>
					<path d="M 16.3 28.3 C 16.3 29 14.2 29.6 11.5 29.6 C 8.8 29.6 6.7 29 6.7 28.3 C 6.7 27.6 8.8 27 11.5 27 C 14.2 27 16.3 27.6 16.3 28.3 Z" fill="url(#gradient41)"/>
					<path d="M 15.9 28.3 C 15.9 28.9 13.9 29.4 11.5 29.4 C 9.1 29.4 7.1 28.9 7.1 28.3 C 7.1 27.7 9.1 27.2 11.5 27.2 C 13.9 27.2 15.9 27.7 15.9 28.3 Z" fill="url(#gradient42)"/>
					<path d="M 15.8 28.4 C 15.8 28.9 13.9 29.4 11.5 29.4 C 9.1 29.4 7.2 28.9 7.2 28.4 C 7.2 27.9 9.1 27.5 11.5 27.5 C 13.9 27.5 15.8 27.9 15.8 28.4 Z" fill="url(#gradient43)"/>
				</g>
				<path d="M 13.7 30.4 C 13.7 30.4 13.6 30.4 13.6 30.5 L 13.6 29.7 C 13.6 29.7 13.7 29.7 13.7 29.7 L 13.7 30.4 ZM 16.1 29 C 16 29 16 29.1 15.9 29.1 L 15.9 29.8 C 16 29.8 16 29.7 16.1 29.7 L 16.1 29 ZM 14.1 29.6 C 14.1 29.7 14 29.7 13.9 29.7 L 13.9 30.4 C 14 30.4 14.1 30.4 14.1 30.4 L 14.1 29.6 ZM 14.9 29.5 C 14.8 29.5 14.8 29.5 14.7 29.5 L 14.7 30.2 C 14.8 30.2 14.8 30.2 14.9 30.2 L 14.9 29.5 ZM 15.3 29.4 C 15.2 29.4 15.2 29.4 15.1 29.4 L 15.1 30.1 C 15.2 30.1 15.2 30.1 15.3 30.1 L 15.3 29.4 ZM 14.5 29.6 C 14.5 29.6 14.4 29.6 14.3 29.6 L 14.3 30.3 C 14.4 30.3 14.5 30.3 14.5 30.3 L 14.5 29.6 ZM 12.2 29.8 C 12.1 29.8 12.1 29.8 12 29.8 L 12 30.6 C 12.1 30.6 12.1 30.6 12.2 30.6 L 12.2 29.8 ZM 11.6 30.6 C 11.7 30.6 11.7 30.6 11.8 30.6 L 11.8 29.8 C 11.7 29.8 11.7 29.8 11.6 29.8 L 11.6 30.6 ZM 13 29.8 C 12.9 29.8 12.8 29.8 12.8 29.8 L 12.8 30.5 C 12.8 30.5 12.9 30.5 13 30.5 L 13 29.8 ZM 12.6 29.8 C 12.5 29.8 12.4 29.8 12.4 29.8 L 12.4 30.6 C 12.4 30.6 12.5 30.5 12.6 30.5 L 12.6 29.8 ZM 13.3 29.8 C 13.3 29.8 13.2 29.8 13.2 29.8 L 13.2 30.5 C 13.2 30.5 13.3 30.5 13.3 30.5 L 13.3 29.8 ZM 15.7 29.2 C 15.6 29.2 15.6 29.3 15.5 29.3 L 15.5 30 C 15.6 30 15.6 30 15.7 29.9 L 15.7 29.2 ZM 10.2 29.8 C 10.2 29.8 10.1 29.8 10.1 29.8 L 10.1 30.5 C 10.1 30.5 10.2 30.5 10.2 30.5 L 10.2 29.8 ZM 10.6 29.8 C 10.6 29.8 10.5 29.8 10.4 29.8 L 10.4 30.5 C 10.5 30.5 10.6 30.6 10.6 30.6 L 10.6 29.8 ZM 9.4 29.7 C 9.4 29.7 9.3 29.7 9.3 29.7 L 9.3 30.4 C 9.3 30.4 9.4 30.4 9.4 30.5 L 9.4 29.7 ZM 9.8 29.8 C 9.8 29.8 9.7 29.8 9.7 29.8 L 9.7 30.5 C 9.7 30.5 9.8 30.5 9.8 30.5 L 9.8 29.8 ZM 11 29.8 C 10.9 29.8 10.9 29.8 10.8 29.8 L 10.8 30.6 C 10.9 30.6 10.9 30.6 11 30.6 L 11 29.8 ZM 11.4 29.8 C 11.3 29.8 11.3 29.8 11.2 29.8 L 11.2 30.6 C 11.3 30.6 11.3 30.6 11.4 30.6 L 11.4 29.8 ZM 8.3 29.5 C 8.2 29.5 8.2 29.5 8.1 29.5 L 8.1 30.2 C 8.2 30.2 8.2 30.2 8.3 30.3 L 8.3 29.5 ZM 9.1 29.7 C 9 29.7 8.9 29.7 8.9 29.6 L 8.9 30.4 C 8.9 30.4 9 30.4 9.1 30.4 L 9.1 29.7 ZM 7.9 29.4 C 7.8 29.4 7.8 29.4 7.7 29.4 L 7.7 30.1 C 7.8 30.1 7.8 30.1 7.9 30.2 L 7.9 29.4 ZM 6.9 29.7 C 7 29.8 7 29.8 7.1 29.8 L 7.1 29.1 C 7 29.1 7 29 6.9 29 L 6.9 29.7 ZM 8.7 29.6 C 8.6 29.6 8.5 29.6 8.5 29.6 L 8.5 30.3 C 8.5 30.3 8.6 30.3 8.7 30.3 L 8.7 29.6 ZM 7.5 29.3 C 7.4 29.3 7.4 29.2 7.3 29.2 L 7.3 29.9 C 7.4 30 7.4 30 7.5 30 L 7.5 29.3 Z" fill="url(#gradient44)"/>
			</g>
		</g>
	</g>
</svg>