<?xml version="1.0" standalone="no"?>

<svg viewBox="0 0 65 38" style="background-color:#ffffff00" version="1.1" xmlns="http://www.w3.org/2000/svg" xmlns:xlink="http://www.w3.org/1999/xlink" xml:space="preserve" x="0px" y="0px" width="100%" height="100%">
	<defs>
		<linearGradient id="gradient1" x1="68.8%" y1="93.4%" x2="190.2%" y2="2.6%">
			<stop stop-color="#b3b5b8" stop-opacity="1" offset="1%"/>
			<stop stop-color="#f4f4f5" stop-opacity="1" offset="56%"/>
			<stop stop-color="#ffffff" stop-opacity="1" offset="76%"/>
			<stop stop-color="#ffffff" stop-opacity="1" offset="99%"/>
		</linearGradient>
		<linearGradient id="gradient2" x1="199.1%" y1="95.2%" x2="258.5%" y2="-92.9%">
			<stop stop-color="#b3b5b8" stop-opacity="1" offset="1%"/>
			<stop stop-color="#f4f4f5" stop-opacity="1" offset="56%"/>
			<stop stop-color="#ffffff" stop-opacity="1" offset="76%"/>
			<stop stop-color="#ffffff" stop-opacity="1" offset="99%"/>
		</linearGradient>
		<linearGradient id="gradient3" x1="214.8%" y1="72.7%" x2="293.9%" y2="-112.6%">
			<stop stop-color="#b3b5b8" stop-opacity="1" offset="1%"/>
			<stop stop-color="#f4f4f5" stop-opacity="1" offset="56%"/>
			<stop stop-color="#ffffff" stop-opacity="1" offset="76%"/>
			<stop stop-color="#ffffff" stop-opacity="1" offset="99%"/>
		</linearGradient>
		<linearGradient id="gradient4" x1="287.9%" y1="59.8%" x2="189.8%" y2="40.2%">
			<stop stop-color="#b3b5b8" stop-opacity="1" offset="1%"/>
			<stop stop-color="#f4f4f5" stop-opacity="1" offset="56%"/>
			<stop stop-color="#ffffff" stop-opacity="1" offset="76%"/>
			<stop stop-color="#ffffff" stop-opacity="1" offset="99%"/>
		</linearGradient>
		<radialGradient id="gradient5" cx="614.6%" cy="-15.5%" r="72.5%">
			<stop stop-color="#e9e9ea" stop-opacity="1" offset="3%"/>
			<stop stop-color="#dcdcde" stop-opacity="1" offset="30%"/>
			<stop stop-color="#b3b5b8" stop-opacity="1" offset="54%"/>
			<stop stop-color="#525252" stop-opacity="1" offset="99%"/>
		</radialGradient>
		<radialGradient id="gradient6" cx="448.1%" cy="19.6%" r="70.8%">
			<stop stop-color="#e9e9ea" stop-opacity="1" offset="3%"/>
			<stop stop-color="#dcdcde" stop-opacity="1" offset="30%"/>
			<stop stop-color="#b3b5b8" stop-opacity="1" offset="54%"/>
			<stop stop-color="#525252" stop-opacity="1" offset="99%"/>
		</radialGradient>
		<radialGradient id="gradient7" cx="474.1%" cy="12.9%" r="66%">
			<stop stop-color="#e9e9ea" stop-opacity="1" offset="3%"/>
			<stop stop-color="#dcdcde" stop-opacity="1" offset="30%"/>
			<stop stop-color="#b3b5b8" stop-opacity="1" offset="54%"/>
			<stop stop-color="#525252" stop-opacity="1" offset="99%"/>
		</radialGradient>
		<radialGradient id="gradient8" cx="451.2%" cy="18.1%" r="70.8%">
			<stop stop-color="#e9e9ea" stop-opacity="1" offset="3%"/>
			<stop stop-color="#dcdcde" stop-opacity="1" offset="30%"/>
			<stop stop-color="#b3b5b8" stop-opacity="1" offset="54%"/>
			<stop stop-color="#525252" stop-opacity="1" offset="99%"/>
		</radialGradient>
		<linearGradient id="gradient9" x1="170.7%" y1="50%" x2="60.9%" y2="50%">
			<stop stop-color="#b3b5b8" stop-opacity="1" offset="1%"/>
			<stop stop-color="#f4f4f5" stop-opacity="1" offset="38%"/>
			<stop stop-color="#eeeef0" stop-opacity="1" offset="47%"/>
			<stop stop-color="#b3b5b8" stop-opacity="1" offset="77%"/>
			<stop stop-color="#e9e9ea" stop-opacity="1" offset="96%"/>
		</linearGradient>
		<linearGradient id="gradient10" x1="145.9%" y1="50%" x2="46.5%" y2="50%">
			<stop stop-color="#b3b5b8" stop-opacity="1" offset="1%"/>
			<stop stop-color="#f4f4f5" stop-opacity="1" offset="38%"/>
			<stop stop-color="#eeeef0" stop-opacity="1" offset="47%"/>
			<stop stop-color="#b3b5b8" stop-opacity="1" offset="77%"/>
			<stop stop-color="#e9e9ea" stop-opacity="1" offset="96%"/>
		</linearGradient>
		<radialGradient id="gradient11" cx="94.7%" cy="11.3%" r="94.9%">
			<stop stop-color="#fff200" stop-opacity="1" offset="1%"/>
			<stop stop-color="#f26522" stop-opacity="1" offset="66%"/>
			<stop stop-color="#c14e14" stop-opacity="1" offset="93%"/>
			<stop stop-color="#7a2e00" stop-opacity="1" offset="99%"/>
		</radialGradient>
		<radialGradient id="gradient12" cx="342.6%" cy="10.4%" r="117.3%">
			<stop stop-color="#ffff9c" stop-opacity="1" offset="1%"/>
			<stop stop-color="#f26522" stop-opacity="1" offset="66%"/>
			<stop stop-color="#c14e14" stop-opacity="1" offset="93%"/>
			<stop stop-color="#7a2e00" stop-opacity="1" offset="99%"/>
		</radialGradient>
		<linearGradient id="gradient13" x1="141.7%" y1="50%" x2="41.7%" y2="50%">
			<stop stop-color="#b3b5b8" stop-opacity="1" offset="1%"/>
			<stop stop-color="#f4f4f5" stop-opacity="1" offset="38%"/>
			<stop stop-color="#eeeef0" stop-opacity="1" offset="47%"/>
			<stop stop-color="#b3b5b8" stop-opacity="1" offset="77%"/>
			<stop stop-color="#e9e9ea" stop-opacity="1" offset="96%"/>
		</linearGradient>
	</defs>
	<g id="Layer%201">
		<g>
			<path d="M 14.6 27.8 C 14.6 27.8 14.6 27.8 14.6 27.7 C 14.7 27.2 15 25.2 15.7 22.7 L 14.5 22.4 C 13.7 25.3 13.3 27.6 13.3 27.6 L 14.6 27.8 L 14.6 27.8 Z" fill="#a3a3a3"/>
			<path d="M 14.2 27.7 C 14.2 27.7 14.2 27.6 14.2 27.3 C 14.4 26.6 14.7 24.7 15.3 22.6 L 14.9 22.5 C 14.1 25.4 13.7 27.6 13.7 27.6 L 14.2 27.7 L 14.2 27.7 Z" fill="#d4d4d4"/>
			<path d="M 48.4 36.6 L 48.5 36.8 L 48.4 36.6 L 48.4 36.6 L 48.5 36.8 L 48.4 36.6 C 48.4 36.6 47.8 36.8 47 36.8 C 46.3 36.8 45.5 36.7 44.9 36.3 C 44.5 36 44.1 35.7 43.8 35.3 C 43.3 34.8 42.8 33.9 42.4 32.6 C 41.9 31.3 41.4 29.6 40.8 27.1 L 39.6 27.4 C 40.4 30.7 41 32.8 41.7 34.3 C 42.1 35 42.4 35.6 42.9 36.1 C 43.3 36.6 43.8 37 44.3 37.3 C 45.2 37.9 46.2 38 47 38 C 48 38 48.7 37.8 48.7 37.8 L 48.4 36.6 L 48.4 36.6 Z" fill="#a3a3a3"/>
			<path d="M 48.5 37 L 48.5 37 C 48.4 37 47.8 37.2 47 37.2 C 46.3 37.2 45.4 37 44.7 36.6 C 43.8 36 43.1 35.3 42.5 33.9 C 41.8 32.6 41.2 30.5 40.4 27.2 L 40 27.3 C 40.8 30.6 41.4 32.7 42.1 34.1 C 42.7 35.6 43.5 36.4 44.5 37 C 45.3 37.5 46.2 37.6 47 37.6 C 47.9 37.6 48.6 37.4 48.6 37.4 L 48.5 37 L 48.5 37 Z" fill="#d4d4d4"/>
			<path d="M 53.9 35.4 C 53.9 35.4 54.4 35 55 34.4 C 55.3 34.1 55.6 33.7 55.9 33.2 C 56.1 32.8 56.3 32.3 56.4 31.7 C 56.5 31.4 56.5 31 56.5 30.7 C 56.5 30.1 56.4 29.6 56.2 29 C 56 28.1 55.5 27.2 54.8 26 C 54.1 24.9 53.2 23.5 51.9 21.7 L 50.9 22.4 C 52.6 24.8 53.7 26.4 54.4 27.7 C 54.7 28.3 54.9 28.9 55.1 29.3 C 55.2 29.8 55.3 30.2 55.3 30.7 C 55.3 30.9 55.2 31.2 55.2 31.5 C 55.1 31.9 55 32.3 54.8 32.6 C 54.5 33.1 54.1 33.6 53.8 33.9 C 53.6 34.1 53.4 34.2 53.3 34.3 C 53.3 34.3 53.3 34.3 53.2 34.4 L 53.2 34.4 L 53.2 34.4 L 53.2 34.4 L 53.2 34.4 L 53.2 34.4 L 53.2 34.4 L 53.2 34.4 L 53.9 35.4 L 53.9 35.4 Z" fill="#a3a3a3"/>
			<path d="M 53.7 35.1 C 53.7 35.1 54.2 34.7 54.7 34.1 C 55.3 33.5 55.9 32.7 56 31.6 C 56.1 31.3 56.1 31 56.1 30.7 C 56.1 29.6 55.8 28.6 55.1 27.3 C 54.4 25.9 53.3 24.3 51.6 21.9 L 51.2 22.2 C 52.9 24.5 54 26.2 54.7 27.5 C 55.4 28.8 55.7 29.7 55.7 30.7 C 55.7 31 55.6 31.3 55.6 31.6 C 55.4 32.5 54.9 33.2 54.4 33.8 C 54.1 34.1 53.9 34.3 53.7 34.5 C 53.6 34.5 53.5 34.6 53.5 34.6 L 53.4 34.7 L 53.4 34.7 L 53.7 35.1 L 53.7 35.1 Z" fill="#d4d4d4"/>
			<path d="M 52.8 22.2 L 52.8 22.2 L 50 18.9 L 50 18.9 C 50 18.9 49.6 18.5 48.9 18.1 C 48.3 17.6 47.3 17.2 46 17.2 C 45.4 17.2 44.8 17.3 44 17.6 C 43.3 15.3 42.4 13.4 41.4 12 C 40.5 10.7 39.5 9.8 38.5 9.1 C 36.9 8 35.3 7.5 33.9 7.2 C 32.4 6.9 31.1 6.9 30.2 6.9 C 28.5 6.9 26.4 6.9 24.3 7.6 C 23.2 7.9 22.2 8.4 21.1 9.1 C 20.1 9.9 19.1 10.8 18.2 12.1 C 17.4 13.3 16.7 14.6 16.1 16.1 C 15.5 17.5 14.9 19.1 14.5 20.5 C 14.4 20.9 14.3 21.2 14.2 21.5 C 14.1 22.1 14.4 22.7 15 22.8 C 15.6 23 16.2 22.7 16.3 22.1 L 16.3 22.1 C 16.4 21.8 16.5 21.5 16.6 21.1 C 17 19.7 17.5 18.3 18 16.9 C 18.6 15.6 19.2 14.3 19.9 13.4 C 20.7 12.3 21.5 11.5 22.4 10.9 C 23.6 10 24.9 9.6 26.2 9.3 C 27.6 9.1 28.9 9.1 30.2 9.1 C 31.9 9.1 34.2 9.1 36.4 10.3 C 37.5 10.9 38.6 11.8 39.6 13.2 C 40.5 14.5 41.4 16.2 42.1 18.4 C 41.5 18.7 41 19.1 40.6 19.4 C 39.8 20.2 39.3 21 39 21.8 C 38.7 22.6 38.7 23.2 38.7 23.7 C 38.7 24 38.7 24.2 38.7 24.2 L 38.7 24.2 L 39.4 28.4 C 39.5 29 40 29.4 40.6 29.3 C 41.2 29.2 41.6 28.7 41.5 28.1 L 41.5 28.1 L 40.8 23.9 C 40.8 23.9 40.8 23.8 40.8 23.7 C 40.8 23.3 40.9 22.7 41.2 22 C 41.4 21.7 41.7 21.4 42 21 C 42.4 20.7 42.9 20.4 43.6 20.1 C 43.6 20.1 43.6 20.1 43.7 20.1 C 43.7 20 43.7 20 43.7 20 C 44.6 19.5 45.4 19.4 46 19.4 C 46.8 19.4 47.4 19.6 47.8 19.9 C 48 20 48.2 20.1 48.3 20.2 C 48.3 20.3 48.4 20.3 48.4 20.3 L 48.4 20.3 L 51.1 23.6 C 51.5 24 52.2 24.1 52.7 23.7 C 53.1 23.3 53.2 22.6 52.8 22.2 ZM 48.4 20.3 L 48.4 20.3 L 48.4 20.3 L 48.4 20.3 Z" fill="#363636"/>
			<path d="M 9.1 28.8 C 8 31.3 9.1 34.2 11.5 35.3 C 13.9 36.5 16.8 35.4 18 33 C 19.1 30.5 18.1 27.6 15.6 26.5 C 13.2 25.3 10.3 26.4 9.1 28.8 Z" fill="url(#gradient1)"/>
			<path d="M 13.9 31.2 L 18.2 29.3 C 18.6 30.5 18.5 31.8 18 33 C 17.6 33.7 17.1 34.3 16.5 34.8 L 13.9 31.2 Z" fill="url(#gradient2)"/>
			<path d="M 13 31 L 9.9 27.7 C 9.1 28.6 8.6 29.8 8.7 31.1 C 8.7 31.9 9 32.7 9.3 33.3 L 13 31 Z" fill="url(#gradient3)"/>
			<path d="M 11.8 30.1 C 11.3 31.1 11.7 32.2 12.7 32.7 C 13.7 33.2 14.9 32.7 15.4 31.7 C 15.8 30.8 15.4 29.6 14.4 29.1 C 13.4 28.6 12.2 29.1 11.8 30.1 Z" fill="url(#gradient4)"/>
			<path d="M 14.5 28.9 C 14.3 28.9 14.2 28.8 14 28.8 C 13 28.6 12 29.1 11.6 30 C 11.5 30.1 11.5 30.3 11.4 30.5 C 11.2 31.4 11.7 32.5 12.6 32.9 C 12.8 33 13 33 13.1 33 C 14.1 33.2 15.1 32.8 15.5 31.8 C 15.6 31.7 15.7 31.5 15.7 31.3 C 15.9 30.4 15.4 29.4 14.5 28.9 ZM 15.2 31.7 C 14.8 32.4 14 32.8 13.2 32.7 C 13.1 32.6 12.9 32.6 12.8 32.5 C 12 32.2 11.6 31.4 11.8 30.6 C 11.8 30.4 11.9 30.3 11.9 30.1 C 12.3 29.4 13.1 29 13.9 29.1 C 14.1 29.2 14.2 29.2 14.3 29.3 C 15.1 29.6 15.5 30.5 15.3 31.3 C 15.3 31.4 15.3 31.5 15.2 31.7 Z" fill="#333333"/>
			<path d="M 15.7 26.3 C 15.3 26.1 14.9 26 14.6 25.9 C 12.3 25.5 10 26.6 9 28.8 C 8.8 29.1 8.7 29.5 8.6 29.9 C 8.2 32.2 9.3 34.5 11.4 35.5 C 11.8 35.7 12.2 35.8 12.6 35.9 C 14.8 36.3 17.1 35.2 18.1 33.1 C 18.3 32.7 18.4 32.3 18.5 31.9 C 19 29.7 17.9 27.3 15.7 26.3 ZM 17.8 32.9 C 16.9 34.9 14.7 35.9 12.6 35.5 C 12.3 35.4 11.9 35.3 11.6 35.2 C 9.6 34.2 8.6 32.1 9 30 C 9 29.6 9.2 29.3 9.3 28.9 C 10.3 26.9 12.4 25.9 14.5 26.3 C 14.8 26.4 15.2 26.5 15.5 26.7 C 17.5 27.6 18.6 29.8 18.2 31.8 C 18.1 32.2 18 32.5 17.8 32.9 Z" fill="#333333"/>
			<path d="M 52.3 22.6 L 52.3 22.6 L 49.6 19.3 L 49.6 19.3 C 49.5 19.3 49.2 18.9 48.6 18.6 C 48 18.2 47.2 17.9 46 17.9 C 45.3 17.9 44.5 18 43.6 18.4 C 42.9 15.8 41.9 13.8 40.9 12.3 C 39.1 10 37.1 8.8 35.2 8.2 C 33.3 7.6 31.5 7.6 30.2 7.6 C 28.5 7.6 26.5 7.6 24.5 8.2 C 22.5 8.8 20.4 10 18.7 12.5 C 17.9 13.6 17.2 14.9 16.6 16.3 C 16 17.8 15.5 19.3 15.1 20.7 C 15 21 14.9 21.4 14.8 21.7 C 14.8 21.9 14.9 22.2 15.2 22.2 C 15.4 22.3 15.7 22.2 15.7 21.9 L 15.7 21.9 C 15.8 21.6 15.9 21.3 16 21 C 16.4 19.6 16.9 18.1 17.5 16.7 C 18.1 15.3 18.7 14 19.4 13 C 21.1 10.7 22.9 9.6 24.7 9.1 C 26.6 8.5 28.5 8.5 30.2 8.5 C 31.9 8.5 34.3 8.5 36.7 9.8 C 37.9 10.4 39.1 11.4 40.1 12.9 C 41.1 14.3 42.1 16.2 42.8 18.8 C 41.3 19.4 40.4 20.4 39.9 21.3 C 39.4 22.3 39.3 23.2 39.3 23.7 C 39.3 23.9 39.3 24.1 39.3 24.1 L 40 28.3 C 40 28.6 40.3 28.7 40.5 28.7 C 40.8 28.7 40.9 28.4 40.9 28.2 L 40.9 28.2 L 40.2 24 C 40.2 24 40.2 23.9 40.2 23.9 C 40.2 23.8 40.2 23.8 40.2 23.7 C 40.2 23.3 40.3 22.5 40.7 21.7 C 41.1 21 41.9 20.1 43.4 19.5 C 43.4 19.5 43.4 19.5 43.4 19.5 C 43.4 19.5 43.4 19.5 43.4 19.5 C 44.4 19 45.3 18.8 46 18.8 C 47 18.8 47.7 19.1 48.2 19.4 C 48.4 19.5 48.6 19.7 48.7 19.8 C 48.8 19.8 48.8 19.9 48.8 19.9 L 48.9 19.9 L 48.9 19.9 L 51.6 23.2 C 51.8 23.4 52.1 23.4 52.3 23.2 C 52.5 23.1 52.5 22.8 52.3 22.6 Z" fill="#616161"/>
			<path d="M 49.6 37.7 L 48.6 37.9 C 48.6 37.9 48.1 37.5 48.3 36.6 C 49 36.5 49.3 36.4 49.3 36.4 L 49.6 37.7 Z" fill="url(#gradient5)"/>
			<path d="M 49 37.3 C 48.8 36.9 49 36.3 49.4 36.1 C 49.9 35.9 50.4 36.1 50.6 36.6 C 50.8 37 50.6 37.6 50.2 37.8 C 49.7 38 49.2 37.8 49 37.3 Z" fill="url(#gradient6)"/>
			<path d="M 53.3 36 L 54.1 35.4 C 54.1 35.4 54.1 34.7 53.3 34.3 C 52.7 34.8 52.5 34.9 52.5 34.9 L 53.3 36 Z" fill="url(#gradient7)"/>
			<path d="M 53.4 35.3 C 53.2 34.8 52.6 34.6 52.2 34.8 C 51.7 35.1 51.5 35.6 51.7 36 C 51.9 36.5 52.5 36.7 52.9 36.5 C 53.4 36.3 53.6 35.7 53.4 35.3 Z" fill="url(#gradient8)"/>
			<path d="M 33.6 3.1 C 33.6 3.4 33.3 3.7 33 3.7 L 23.8 3.7 C 23.4 3.7 23.1 3.4 23.1 3.1 L 23.1 0.7 C 23.1 0.3 23.4 0 23.8 0 L 33 0 C 33.3 0 33.6 0.3 33.6 0.7 L 33.6 3.1 Z" fill="url(#gradient9)"/>
			<path d="M 36.5 5.4 C 36.5 5.8 36.2 6.1 35.9 6.1 L 20.9 6.1 C 20.5 6.1 20.2 5.8 20.2 5.4 L 20.2 3 C 20.2 2.7 20.5 2.4 20.9 2.4 L 35.9 2.4 C 36.2 2.4 36.5 2.7 36.5 3 L 36.5 5.4 Z" fill="url(#gradient10)"/>
			<path d="M 20.7 6.6 L 20.7 29.4 C 20.7 30.5 24.1 31.3 28.4 31.3 C 32.7 31.3 36.1 30.5 36.1 29.4 L 36.1 6.6 L 20.7 6.6 Z" fill="url(#gradient11)"/>
			<path d="M 21.8 6.6 L 21.8 28.6 C 21.8 29.3 25.9 30 25.9 29.4 L 25.9 6.6 L 21.8 6.6 Z" fill="url(#gradient12)"/>
			<path d="M 19.4 6.9 C 19.4 7.1 19.6 7.4 19.9 7.4 L 36.9 7.4 C 37.1 7.4 37.4 7.1 37.4 6.9 L 37.4 6.1 C 37.4 5.8 37.1 5.6 36.9 5.6 L 19.9 5.6 C 19.6 5.6 19.4 5.8 19.4 6.1 L 19.4 6.9 Z" fill="url(#gradient13)"/>
			<path opacity="0.1" d="M 36.5 4.8 L 20.2 4.8 L 20.2 5.6 L 36.5 5.6 L 36.5 4.8 Z" fill="#000000"/>
			<path opacity="0.1" d="M 33.6 1.6 L 23.1 1.6 L 23.1 2.4 L 33.6 2.4 L 33.6 1.6 Z" fill="#000000"/>
			<path opacity="0.6" d="M 20.3 2.8 L 36.5 2.8 C 36.4 2.6 36.2 2.4 35.9 2.4 L 20.9 2.4 C 20.6 2.4 20.3 2.6 20.3 2.8 Z" fill="#ffffff"/>
			<path opacity="0.6" d="M 19.4 6.1 L 37.4 6.1 C 37.4 5.8 37.1 5.6 36.9 5.6 L 19.9 5.6 C 19.6 5.6 19.4 5.8 19.4 6.1 Z" fill="#ffffff"/>
			<path opacity="0.1" d="M 36.1 8 L 20.7 8 L 20.7 7.4 L 36.1 7.4 L 36.1 8 Z" fill="#000000"/>
		</g>
	</g>
</svg>