<?xml version="1.0" standalone="no"?>

<svg viewBox="0 0 16 16" style="background-color:#ffffff00" version="1.1" xmlns="http://www.w3.org/2000/svg" xmlns:xlink="http://www.w3.org/1999/xlink" xml:space="preserve" x="0px" y="0px" width="100%" height="100%">
	<g id="Layer">
		<path visibility="hidden" d="M 1.6 0 L 14.4 0 C 15.3 0 16 0.7 16 1.6 L 16 14.4 C 16 15.3 15.3 16 14.4 16 L 1.6 16 C 0.7 16 0 15.3 0 14.4 L 0 1.6 C 0 0.7 0.7 0 1.6 0 Z" fill="#cc0000"/>
		<g visibility="hidden">
			<path id="Forma%201" d="M 10.5 8 L 13.2 5.3 C 13.4 5.1 13.5 4.9 13.5 4.6 C 13.5 4.4 13.4 4.2 13.2 4 L 12 2.8 C 11.8 2.6 11.6 2.5 11.4 2.5 C 11.1 2.5 10.9 2.6 10.7 2.8 L 8 5.5 L 5.3 2.8 C 5.1 2.6 4.9 2.5 4.6 2.5 C 4.4 2.5 4.2 2.6 4 2.8 L 2.8 4 C 2.6 4.2 2.5 4.4 2.5 4.6 C 2.5 4.9 2.6 5.1 2.8 5.3 L 5.5 8 L 2.8 10.7 C 2.6 10.9 2.5 11.1 2.5 11.4 C 2.5 11.6 2.6 11.8 2.8 12 L 4 13.2 C 4.2 13.4 4.4 13.5 4.6 13.5 C 4.9 13.5 5.1 13.4 5.3 13.2 L 8 10.5 L 10.7 13.2 C 10.9 13.4 11.1 13.5 11.4 13.5 C 11.6 13.5 11.8 13.4 12 13.2 L 13.2 12 C 13.4 11.8 13.5 11.6 13.5 11.4 C 13.5 11.1 13.4 10.9 13.2 10.7 L 10.5 8 Z" fill="#ffffff"/>
		</g>
		<path d="M 1.6 0 L 14.4 0 C 15.3 0 16 0.7 16 1.6 L 16 14.4 C 16 15.3 15.3 16 14.4 16 L 1.6 16 C 0.7 16 0 15.3 0 14.4 L 0 1.6 C 0 0.7 0.7 0 1.6 0 Z" fill="#00b000"/>
		<g>
			<path id="Forma%2012" d="M 9.6 9.6 L 13.2 9.6 C 13.4 9.6 13.6 9.6 13.8 9.4 C 13.9 9.2 14 9 14 8.8 L 14 7.2 C 14 7 13.9 6.8 13.8 6.6 C 13.6 6.4 13.4 6.4 13.2 6.4 L 9.6 6.4 L 9.6 2.8 C 9.6 2.6 9.6 2.4 9.4 2.2 C 9.2 2.1 9 2 8.8 2 L 7.2 2 C 7 2 6.8 2.1 6.6 2.2 C 6.4 2.4 6.4 2.6 6.4 2.8 L 6.4 6.4 L 2.8 6.4 C 2.6 6.4 2.4 6.4 2.2 6.6 C 2.1 6.8 2 7 2 7.2 L 2 8.8 C 2 9 2.1 9.2 2.2 9.4 C 2.4 9.6 2.6 9.6 2.8 9.6 L 6.4 9.6 L 6.4 13.2 C 6.4 13.4 6.4 13.6 6.6 13.8 C 6.8 13.9 7 14 7.2 14 L 8.8 14 C 9 14 9.2 13.9 9.4 13.8 C 9.6 13.6 9.6 13.4 9.6 13.2 L 9.6 9.6 Z" fill="#ffffff"/>
		</g>
	</g>
</svg>