<?xml version="1.0" standalone="no"?>

<svg viewBox="0 0 20 20" style="background-color:#ffffff00" version="1.1" xmlns="http://www.w3.org/2000/svg" xmlns:xlink="http://www.w3.org/1999/xlink" xml:space="preserve" x="0px" y="0px" width="100%" height="100%">
	<g id="Layer%201">
		<g visibility="hidden">
			<path id="Forma%201" d="M 17.5 2 L 2.5 2 C 2.2 2 2 2.2 2 2.5 L 2 17.5 C 2 17.8 2.2 18 2.5 18 L 17.5 18 C 17.8 18 18 17.8 18 17.5 L 18 2.5 C 18 2.2 17.8 2 17.5 2 ZM 5.1 2.8 L 14.9 2.8 L 14.9 7.4 L 5.1 7.4 L 5.1 2.8 ZM 15.4 16.8 L 4.6 16.8 L 4.6 10 L 15.4 10 L 15.4 16.8 ZM 12.1 3.5 L 13.5 3.5 L 13.5 6.8 L 12.1 6.8 L 12.1 3.5 ZM 14.4 11.7 L 5.6 11.7 L 5.6 11.1 L 14.4 11.1 L 14.4 11.7 ZM 14.4 13.6 L 5.6 13.6 L 5.6 13.1 L 14.4 13.1 L 14.4 13.6 ZM 14.4 15.5 L 5.6 15.5 L 5.6 14.9 L 14.4 14.9 L 14.4 15.5 Z" fill="#158818"/>
		</g>
		<g>
			<path d="M 10.5 14.3 C 10.4 14.3 10.2 14.3 10 14.3 C 7.5 14.5 5.4 12.5 5.3 10 C 5.2 8.8 5.7 7.7 6.4 6.8 C 7.2 5.9 8.3 5.3 9.5 5.3 C 9.6 5.3 9.7 5.3 9.7 5.3 C 12.1 5.3 14.1 7.2 14.2 9.6 C 14.2 9.9 14.2 10.2 14.1 10.5 L 15.7 12 C 15.8 11.7 15.9 11.3 16 11 L 17.5 10.7 L 17.5 10.2 L 17.4 9.2 L 17.4 8.7 L 16 8.6 C 15.9 8.3 15.9 8 15.8 7.7 L 16.9 6.6 L 16.7 6.3 L 16.1 5.4 L 15.9 5 L 14.6 5.6 C 14.4 5.4 14.1 5.1 13.9 4.9 L 14.4 3.5 L 14 3.3 L 13 2.8 L 12.7 2.6 L 11.9 3.7 C 11.6 3.6 11.2 3.5 10.9 3.4 L 10.6 2 L 10.2 2 L 9.1 2.1 L 8.7 2.1 L 8.6 3.4 C 8.2 3.5 7.9 3.6 7.6 3.7 L 6.6 2.6 L 6.3 2.9 L 5.4 3.4 L 5 3.7 L 5.6 4.9 C 5.4 5.1 5.2 5.3 5 5.5 C 5 5.5 4.9 5.6 4.9 5.6 L 3.5 5.2 L 3.3 5.5 L 2.8 6.5 L 2.6 6.9 L 3.7 7.7 C 3.6 8 3.6 8.3 3.5 8.6 L 2 9 L 2 9.4 L 2.1 10.4 L 2.1 10.9 L 3.5 11 C 3.6 11.3 3.6 11.7 3.7 12 L 2.6 13 L 2.8 13.3 L 3.4 14.2 L 3.7 14.6 L 4.9 14 C 5.1 14.3 5.4 14.5 5.6 14.7 L 5.1 16.1 L 5.5 16.3 L 6.5 16.8 L 6.8 17 L 7.6 15.9 C 7.9 16 8.3 16.1 8.6 16.2 L 8.9 17.6 L 9.3 17.6 L 10.4 17.5 L 10.8 17.5 L 10.9 16.2 C 11.3 16.1 11.7 16 12 15.8 L 10.5 14.3 Z" fill="#d90000"/>
			<path d="M 18 16 C 18 15.8 17.9 15.4 17.7 15.3 C 16.1 13.7 14.4 12 12.8 10.4 C 13 9.4 12.7 8.3 11.9 7.5 C 11 6.6 9.7 6.4 8.6 6.8 L 10.3 8.5 C 10.4 8.7 10.4 8.9 10.3 9.1 L 9.1 10.2 C 9 10.4 8.7 10.4 8.6 10.2 L 6.9 8.5 C 6.4 9.6 6.7 11 7.6 11.9 C 8.4 12.7 9.5 13 10.5 12.7 C 12.1 14.4 13.7 16.1 15.3 17.7 C 15.4 17.9 15.8 18 16 18 C 17 17.8 17.8 17 18 16 Z" fill="#d90000"/>
		</g>
	</g>
</svg>