<?xml version="1.0" standalone="no"?>

<svg viewBox="0 0 44 44" style="background-color:#ffffff00" version="1.1" xmlns="http://www.w3.org/2000/svg" xmlns:xlink="http://www.w3.org/1999/xlink" xml:space="preserve" x="0px" y="0px" width="100%" height="100%">
	<defs>
		<linearGradient id="gradient1" x1="9.3%" y1="-1%" x2="90.7%" y2="101%">
			<stop stop-color="#e1e2e3" stop-opacity="1" offset="1%"/>
			<stop stop-color="#a6a7aa" stop-opacity="1" offset="99%"/>
		</linearGradient>
		<linearGradient id="gradient2" x1="47.6%" y1="52.6%" x2="11.4%" y2="91.1%">
			<stop stop-color="#ffffff" stop-opacity="1" offset="1%"/>
			<stop stop-color="#ebebeb" stop-opacity="1" offset="99%"/>
		</linearGradient>
		<linearGradient id="gradient3" x1="50%" y1="98.6%" x2="50%" y2="2.2%">
			<stop stop-color="#666666" stop-opacity="1" offset="1%"/>
			<stop stop-color="#cacaca" stop-opacity="1" offset="27%"/>
			<stop stop-color="#ffffff" stop-opacity="1" offset="76%"/>
			<stop stop-color="#cccccc" stop-opacity="1" offset="99%"/>
		</linearGradient>
		<linearGradient id="gradient4" x1="58.1%" y1="40.8%" x2="30.4%" y2="67.8%">
			<stop stop-color="#000000" stop-opacity="1" offset="1%"/>
			<stop stop-color="#ffffff" stop-opacity="1" offset="99%"/>
		</linearGradient>
		<linearGradient id="gradient5" x1="66%" y1="40.2%" x2="33.4%" y2="60.8%">
			<stop stop-color="#b0b0b0" stop-opacity="1" offset="1%"/>
			<stop stop-color="#ffffff" stop-opacity="1" offset="34%"/>
			<stop stop-color="#e3e3e3" stop-opacity="1" offset="58%"/>
			<stop stop-color="#ffffff" stop-opacity="1" offset="76%"/>
			<stop stop-color="#e3e3e3" stop-opacity="1" offset="99%"/>
		</linearGradient>
		<linearGradient id="gradient6" x1="72.3%" y1="36.2%" x2="34.1%" y2="60.3%">
			<stop stop-color="#152a95" stop-opacity="1" offset="1%"/>
			<stop stop-color="#787eac" stop-opacity="1" offset="39%"/>
			<stop stop-color="#101a4c" stop-opacity="1" offset="99%"/>
		</linearGradient>
		<linearGradient id="gradient7" x1="58.5%" y1="47%" x2="43.4%" y2="55.5%">
			<stop stop-color="#949494" stop-opacity="1" offset="1%"/>
			<stop stop-color="#ffffff" stop-opacity="1" offset="32%"/>
			<stop stop-color="#d2d2d2" stop-opacity="1" offset="53%"/>
			<stop stop-color="#ffffff" stop-opacity="1" offset="71%"/>
			<stop stop-color="#969696" stop-opacity="1" offset="99%"/>
		</linearGradient>
		<linearGradient id="gradient8" x1="104.2%" y1="15.6%" x2="6.8%" y2="99.8%">
			<stop stop-color="#152a95" stop-opacity="1" offset="1%"/>
			<stop stop-color="#787eac" stop-opacity="1" offset="39%"/>
			<stop stop-color="#101a4c" stop-opacity="1" offset="99%"/>
		</linearGradient>
		<linearGradient id="gradient9" x1="60.4%" y1="42.5%" x2="40.8%" y2="53.4%">
			<stop stop-color="#152a95" stop-opacity="1" offset="1%"/>
			<stop stop-color="#787eac" stop-opacity="1" offset="39%"/>
			<stop stop-color="#101a4c" stop-opacity="1" offset="99%"/>
		</linearGradient>
	</defs>
	<g id="Layer%201">
		<g>
			<g id="board">
				<g>
					<path d="M 29.7 3.1 L 25.5 3.1 C 25.4 2.5 25 2 24.4 2 L 12.6 2 C 12 2 11.5 2.5 11.5 3.1 L 7.1 3.1 C 5.7 3.1 4.5 4.3 4.5 5.8 L 4.5 39.3 C 4.5 40.8 5.7 42 7.1 42 L 29.7 42 C 31.2 42 32.4 40.8 32.4 39.3 L 32.4 5.8 C 32.4 4.3 31.2 3.1 29.7 3.1 Z" fill="#ffffff"/>
					<path d="M 29.7 3.1 L 25.4 3.1 C 25.4 2.5 25 2.1 24.4 2.1 L 12.6 2.1 C 12 2.1 11.5 2.5 11.5 3.1 L 7.1 3.1 C 5.7 3.1 4.5 4.3 4.5 5.8 L 4.5 39.3 C 4.5 40.8 5.7 42 7.1 42 L 29.7 42 C 31.2 42 32.3 40.8 32.3 39.3 L 32.3 5.8 C 32.3 4.3 31.2 3.1 29.7 3.1 Z" fill="#fefefe"/>
					<path d="M 29.7 3.1 L 25.4 3.1 C 25.4 2.5 25 2.1 24.4 2.1 L 12.6 2.1 C 12 2.1 11.5 2.5 11.5 3.1 L 7.1 3.1 C 5.7 3.1 4.5 4.3 4.5 5.8 L 4.5 39.3 C 4.5 40.8 5.7 42 7.1 42 L 29.7 42 C 31.2 42 32.3 40.8 32.3 39.3 L 32.3 5.8 C 32.3 4.3 31.2 3.1 29.7 3.1 Z" fill="#fdfdfd"/>
					<path d="M 29.7 3.1 L 25.4 3.1 C 25.4 2.5 25 2.1 24.4 2.1 L 12.6 2.1 C 12 2.1 11.5 2.5 11.5 3.1 L 7.1 3.1 C 5.7 3.1 4.5 4.3 4.5 5.8 L 4.5 39.3 C 4.5 40.8 5.7 42 7.1 42 L 29.7 42 C 31.2 42 32.3 40.8 32.3 39.3 L 32.3 5.8 C 32.3 4.3 31.2 3.1 29.7 3.1 Z" fill="#fcfcfc"/>
					<path d="M 29.7 3.1 L 25.4 3.1 C 25.4 2.5 25 2.1 24.4 2.1 L 12.6 2.1 C 12 2.1 11.5 2.5 11.5 3.1 L 7.1 3.1 C 5.7 3.1 4.5 4.3 4.5 5.8 L 4.5 39.3 C 4.5 40.8 5.7 42 7.1 42 L 29.7 42 C 31.1 42 32.3 40.8 32.3 39.3 L 32.3 5.8 C 32.3 4.3 31.1 3.1 29.7 3.1 Z" fill="#fbfbfb"/>
					<path d="M 29.7 3.1 L 25.4 3.1 C 25.4 2.5 24.9 2.1 24.4 2.1 L 12.6 2.1 C 12 2.1 11.5 2.5 11.5 3.1 L 7.1 3.1 C 5.7 3.1 4.5 4.3 4.5 5.8 L 4.5 39.3 C 4.5 40.8 5.7 42 7.1 42 L 29.7 42 C 31.1 42 32.3 40.8 32.3 39.3 L 32.3 5.8 C 32.3 4.3 31.1 3.1 29.7 3.1 Z" fill="#fafafa"/>
					<path d="M 29.7 3.1 L 25.4 3.1 C 25.4 2.5 24.9 2.1 24.4 2.1 L 12.6 2.1 C 12 2.1 11.5 2.5 11.5 3.1 L 7.1 3.1 C 5.7 3.1 4.5 4.3 4.5 5.8 L 4.5 39.3 C 4.5 40.8 5.7 42 7.1 42 L 29.7 42 C 31.1 42 32.3 40.8 32.3 39.3 L 32.3 5.8 C 32.3 4.3 31.1 3.1 29.7 3.1 Z" fill="#f9f9f9"/>
					<path d="M 29.7 3.1 L 25.4 3.1 C 25.4 2.5 24.9 2.1 24.4 2.1 L 12.6 2.1 C 12 2.1 11.5 2.5 11.5 3.1 L 7.1 3.1 C 5.7 3.1 4.5 4.3 4.5 5.8 L 4.5 39.3 C 4.5 40.8 5.7 42 7.1 42 L 29.7 42 C 31.1 42 32.3 40.8 32.3 39.3 L 32.3 5.8 C 32.3 4.3 31.1 3.1 29.7 3.1 Z" fill="#f8f8f8"/>
					<path d="M 29.7 3.1 L 25.4 3.1 C 25.4 2.5 24.9 2.1 24.4 2.1 L 12.6 2.1 C 12 2.1 11.5 2.5 11.5 3.1 L 7.1 3.1 C 5.7 3.1 4.5 4.3 4.5 5.8 L 4.5 39.3 C 4.5 40.8 5.7 42 7.1 42 L 29.7 42 C 31.1 42 32.3 40.8 32.3 39.3 L 32.3 5.8 C 32.3 4.3 31.1 3.1 29.7 3.1 Z" fill="#f7f7f7"/>
					<path d="M 29.7 3.1 L 25.4 3.1 C 25.4 2.5 24.9 2.1 24.3 2.1 L 12.6 2.1 C 12 2.1 11.5 2.5 11.5 3.1 L 7.1 3.1 C 5.7 3.1 4.5 4.3 4.5 5.8 L 4.5 39.3 C 4.5 40.8 5.7 42 7.1 42 L 29.7 42 C 31.1 42 32.3 40.8 32.3 39.3 L 32.3 5.8 C 32.3 4.3 31.1 3.1 29.7 3.1 Z" fill="#f6f6f6"/>
					<path d="M 29.7 3.1 L 25.4 3.1 C 25.4 2.5 24.9 2.1 24.3 2.1 L 12.6 2.1 C 12 2.1 11.5 2.5 11.5 3.1 L 7.1 3.1 C 5.6 3.1 4.5 4.3 4.5 5.8 L 4.5 39.3 C 4.5 40.8 5.6 42 7.1 42 L 29.7 42 C 31.1 42 32.3 40.8 32.3 39.3 L 32.3 5.8 C 32.3 4.3 31.1 3.1 29.7 3.1 Z" fill="#f5f5f5"/>
					<path d="M 29.7 3.1 L 25.4 3.1 C 25.4 2.5 24.9 2.1 24.3 2.1 L 12.6 2.1 C 12 2.1 11.5 2.5 11.5 3.1 L 7.1 3.1 C 5.6 3.1 4.5 4.3 4.5 5.8 L 4.5 39.3 C 4.5 40.8 5.6 42 7.1 42 L 29.7 42 C 31.1 42 32.3 40.8 32.3 39.3 L 32.3 5.8 C 32.3 4.3 31.1 3.1 29.7 3.1 Z" fill="#f4f4f4"/>
					<path d="M 29.7 3.1 L 25.4 3.1 C 25.4 2.5 24.9 2.1 24.3 2.1 L 12.6 2.1 C 12 2.1 11.5 2.5 11.5 3.1 L 7.1 3.1 C 5.6 3.1 4.5 4.3 4.5 5.8 L 4.5 39.3 C 4.5 40.8 5.6 42 7.1 42 L 29.7 42 C 31.1 42 32.3 40.8 32.3 39.3 L 32.3 5.8 C 32.3 4.3 31.1 3.1 29.7 3.1 Z" fill="#f3f3f3"/>
					<path d="M 29.6 3.1 L 25.4 3.1 C 25.4 2.5 24.9 2.1 24.3 2.1 L 12.5 2.1 C 12 2.1 11.5 2.5 11.5 3.1 L 7.1 3.1 C 5.6 3.1 4.4 4.3 4.4 5.8 L 4.4 39.3 C 4.4 40.8 5.6 42 7.1 42 L 29.6 42 C 31.1 42 32.3 40.8 32.3 39.3 L 32.3 5.8 C 32.3 4.3 31.1 3.1 29.6 3.1 Z" fill="#f2f2f2"/>
					<path d="M 29.6 3.1 L 25.4 3.1 C 25.4 2.5 24.9 2.1 24.3 2.1 L 12.5 2.1 C 12 2.1 11.5 2.5 11.5 3.1 L 7.1 3.1 C 5.6 3.1 4.4 4.3 4.4 5.8 L 4.4 39.3 C 4.4 40.8 5.6 42 7.1 42 L 29.6 42 C 31.1 42 32.3 40.8 32.3 39.3 L 32.3 5.8 C 32.3 4.3 31.1 3.1 29.6 3.1 Z" fill="#f1f1f1"/>
					<path d="M 29.6 3.1 L 25.4 3.1 C 25.4 2.5 24.9 2.1 24.3 2.1 L 12.5 2.1 C 12 2.1 11.5 2.5 11.5 3.1 L 7.1 3.1 C 5.6 3.1 4.4 4.3 4.4 5.8 L 4.4 39.3 C 4.4 40.8 5.6 42 7.1 42 L 29.6 42 C 31.1 42 32.3 40.8 32.3 39.3 L 32.3 5.8 C 32.3 4.3 31.1 3.1 29.6 3.1 Z" fill="#f0f0f0"/>
					<path d="M 29.6 3.1 L 25.4 3.1 C 25.4 2.5 24.9 2.1 24.3 2.1 L 12.5 2.1 C 11.9 2.1 11.5 2.5 11.5 3.1 L 7.1 3.1 C 5.6 3.1 4.4 4.3 4.4 5.8 L 4.4 39.3 C 4.4 40.8 5.6 42 7.1 42 L 29.6 42 C 31.1 42 32.3 40.8 32.3 39.3 L 32.3 5.8 C 32.3 4.3 31.1 3.1 29.6 3.1 Z" fill="#efefef"/>
					<path d="M 29.6 3.1 L 25.4 3.1 C 25.4 2.5 24.9 2.1 24.3 2.1 L 12.5 2.1 C 11.9 2.1 11.5 2.5 11.5 3.1 L 7.1 3.1 C 5.6 3.1 4.4 4.3 4.4 5.8 L 4.4 39.3 C 4.4 40.8 5.6 42 7.1 42 L 29.6 42 C 31.1 42 32.3 40.8 32.3 39.3 L 32.3 5.8 C 32.3 4.3 31.1 3.1 29.6 3.1 Z" fill="#eeeeee"/>
					<path d="M 29.6 3.1 L 25.4 3.1 C 25.4 2.5 24.9 2.1 24.3 2.1 L 12.5 2.1 C 11.9 2.1 11.5 2.5 11.5 3.1 L 7.1 3.1 C 5.6 3.1 4.4 4.3 4.4 5.8 L 4.4 39.3 C 4.4 40.8 5.6 42 7.1 42 L 29.6 42 C 31.1 42 32.3 40.8 32.3 39.3 L 32.3 5.8 C 32.3 4.3 31.1 3.1 29.6 3.1 Z" fill="#ededed"/>
					<path d="M 29.6 3.1 L 25.4 3.1 C 25.4 2.5 24.9 2.1 24.3 2.1 L 12.5 2.1 C 11.9 2.1 11.5 2.5 11.5 3.1 L 7.1 3.1 C 5.6 3.1 4.4 4.3 4.4 5.8 L 4.4 39.3 C 4.4 40.8 5.6 41.9 7.1 41.9 L 29.6 41.9 C 31.1 41.9 32.3 40.8 32.3 39.3 L 32.3 5.8 C 32.3 4.3 31.1 3.1 29.6 3.1 Z" fill="#ececec"/>
					<path d="M 29.6 3.1 L 25.4 3.1 C 25.4 2.5 24.9 2.1 24.3 2.1 L 12.5 2.1 C 11.9 2.1 11.5 2.5 11.4 3.1 L 7.1 3.1 C 5.6 3.1 4.4 4.3 4.4 5.8 L 4.4 39.3 C 4.4 40.7 5.6 41.9 7.1 41.9 L 29.6 41.9 C 31.1 41.9 32.3 40.7 32.3 39.3 L 32.3 5.8 C 32.3 4.3 31.1 3.1 29.6 3.1 Z" fill="#ebebeb"/>
					<path d="M 29.6 3.1 L 25.4 3.1 C 25.4 2.5 24.9 2.1 24.3 2.1 L 12.5 2.1 C 11.9 2.1 11.5 2.5 11.4 3.1 L 7.1 3.1 C 5.6 3.1 4.4 4.3 4.4 5.8 L 4.4 39.3 C 4.4 40.7 5.6 41.9 7.1 41.9 L 29.6 41.9 C 31.1 41.9 32.3 40.7 32.3 39.3 L 32.3 5.8 C 32.3 4.3 31.1 3.1 29.6 3.1 Z" fill="#eaeaea"/>
					<path d="M 29.6 3.1 L 25.4 3.1 C 25.4 2.5 24.9 2.1 24.3 2.1 L 12.5 2.1 C 11.9 2.1 11.4 2.5 11.4 3.1 L 7.1 3.1 C 5.6 3.1 4.4 4.3 4.4 5.8 L 4.4 39.3 C 4.4 40.7 5.6 41.9 7.1 41.9 L 29.6 41.9 C 31.1 41.9 32.3 40.7 32.3 39.3 L 32.3 5.8 C 32.3 4.3 31.1 3.1 29.6 3.1 Z" fill="#e9e9e9"/>
					<path d="M 29.6 3.1 L 25.4 3.1 C 25.4 2.5 24.9 2.1 24.3 2.1 L 12.5 2.1 C 11.9 2.1 11.4 2.5 11.4 3.1 L 7.1 3.1 C 5.6 3.1 4.4 4.3 4.4 5.8 L 4.4 39.3 C 4.4 40.7 5.6 41.9 7.1 41.9 L 29.6 41.9 C 31.1 41.9 32.3 40.7 32.3 39.3 L 32.3 5.8 C 32.3 4.3 31.1 3.1 29.6 3.1 Z" fill="#e8e8e8"/>
					<path d="M 29.6 3.1 L 25.4 3.1 C 25.4 2.5 24.9 2.1 24.3 2.1 L 12.5 2.1 C 11.9 2.1 11.4 2.5 11.4 3.1 L 7.1 3.1 C 5.6 3.1 4.4 4.3 4.4 5.8 L 4.4 39.3 C 4.4 40.7 5.6 41.9 7.1 41.9 L 29.6 41.9 C 31.1 41.9 32.3 40.7 32.3 39.3 L 32.3 5.8 C 32.3 4.3 31.1 3.1 29.6 3.1 Z" fill="#e7e7e7"/>
					<path d="M 29.6 3.1 L 25.4 3.1 C 25.4 2.5 24.9 2.1 24.3 2.1 L 12.5 2.1 C 11.9 2.1 11.4 2.5 11.4 3.1 L 7.1 3.1 C 5.6 3.1 4.4 4.3 4.4 5.8 L 4.4 39.3 C 4.4 40.7 5.6 41.9 7.1 41.9 L 29.6 41.9 C 31.1 41.9 32.3 40.7 32.3 39.3 L 32.3 5.8 C 32.3 4.3 31.1 3.1 29.6 3.1 Z" fill="#e6e6e6"/>
					<path d="M 29.6 3.1 L 25.4 3.1 C 25.3 2.5 24.9 2.1 24.3 2.1 L 12.5 2.1 C 11.9 2.1 11.4 2.5 11.4 3.1 L 7.1 3.1 C 5.6 3.1 4.4 4.3 4.4 5.8 L 4.4 39.3 C 4.4 40.7 5.6 41.9 7.1 41.9 L 29.6 41.9 C 31.1 41.9 32.3 40.7 32.3 39.3 L 32.3 5.8 C 32.3 4.3 31.1 3.1 29.6 3.1 Z" fill="#e5e5e5"/>
					<path d="M 29.6 3.1 L 25.4 3.1 C 25.3 2.5 24.9 2.1 24.3 2.1 L 12.5 2.1 C 11.9 2.1 11.4 2.5 11.4 3.1 L 7 3.1 C 5.6 3.1 4.4 4.3 4.4 5.8 L 4.4 39.3 C 4.4 40.7 5.6 41.9 7 41.9 L 29.6 41.9 C 31.1 41.9 32.3 40.7 32.3 39.3 L 32.3 5.8 C 32.3 4.3 31.1 3.1 29.6 3.1 Z" fill="#e4e4e4"/>
					<path d="M 29.6 3.1 L 25.3 3.1 C 25.3 2.5 24.9 2.1 24.3 2.1 L 12.5 2.1 C 11.9 2.1 11.4 2.5 11.4 3.1 L 7 3.1 C 5.6 3.1 4.4 4.3 4.4 5.8 L 4.4 39.2 C 4.4 40.7 5.6 41.9 7 41.9 L 29.6 41.9 C 31.1 41.9 32.2 40.7 32.2 39.2 L 32.2 5.8 C 32.2 4.3 31.1 3.1 29.6 3.1 Z" fill="#e3e3e3"/>
					<path d="M 29.6 3.1 L 25.3 3.1 C 25.3 2.5 24.9 2.1 24.3 2.1 L 12.5 2.1 C 11.9 2.1 11.4 2.5 11.4 3.1 L 7 3.1 C 5.6 3.1 4.4 4.3 4.4 5.8 L 4.4 39.2 C 4.4 40.7 5.6 41.9 7 41.9 L 29.6 41.9 C 31.1 41.9 32.2 40.7 32.2 39.2 L 32.2 5.8 C 32.2 4.3 31.1 3.1 29.6 3.1 Z" fill="#e2e2e2"/>
					<path d="M 29.6 3.1 L 25.3 3.1 C 25.3 2.5 24.9 2.1 24.3 2.1 L 12.5 2.1 C 11.9 2.1 11.4 2.5 11.4 3.1 L 7 3.1 C 5.6 3.1 4.4 4.3 4.4 5.8 L 4.4 39.2 C 4.4 40.7 5.6 41.9 7 41.9 L 29.6 41.9 C 31.1 41.9 32.2 40.7 32.2 39.2 L 32.2 5.8 C 32.2 4.3 31.1 3.1 29.6 3.1 Z" fill="#e1e1e1"/>
					<path d="M 29.6 3.1 L 25.3 3.1 C 25.3 2.5 24.9 2.1 24.3 2.1 L 12.5 2.1 C 11.9 2.1 11.4 2.5 11.4 3.1 L 7 3.1 C 5.6 3.1 4.4 4.3 4.4 5.8 L 4.4 39.2 C 4.4 40.7 5.6 41.9 7 41.9 L 29.6 41.9 C 31 41.9 32.2 40.7 32.2 39.2 L 32.2 5.8 C 32.2 4.3 31 3.1 29.6 3.1 Z" fill="#e0e0e0"/>
					<path d="M 29.6 3.1 L 25.3 3.1 C 25.3 2.5 24.8 2.1 24.3 2.1 L 12.5 2.1 C 11.9 2.1 11.4 2.5 11.4 3.1 L 7 3.1 C 5.6 3.1 4.4 4.3 4.4 5.8 L 4.4 39.2 C 4.4 40.7 5.6 41.9 7 41.9 L 29.6 41.9 C 31 41.9 32.2 40.7 32.2 39.2 L 32.2 5.8 C 32.2 4.3 31 3.1 29.6 3.1 Z" fill="#dfdfdf"/>
					<path d="M 29.6 3.1 L 25.3 3.1 C 25.3 2.5 24.8 2.1 24.3 2.1 L 12.5 2.1 C 11.9 2.1 11.4 2.5 11.4 3.1 L 7 3.1 C 5.6 3.1 4.4 4.3 4.4 5.8 L 4.4 39.2 C 4.4 40.7 5.6 41.9 7 41.9 L 29.6 41.9 C 31 41.9 32.2 40.7 32.2 39.2 L 32.2 5.8 C 32.2 4.3 31 3.1 29.6 3.1 Z" fill="#dedede"/>
					<path d="M 29.6 3.1 L 25.3 3.1 C 25.3 2.5 24.8 2.1 24.3 2.1 L 12.5 2.1 C 11.9 2.1 11.4 2.5 11.4 3.1 L 7 3.1 C 5.6 3.1 4.4 4.3 4.4 5.8 L 4.4 39.2 C 4.4 40.7 5.6 41.9 7 41.9 L 29.6 41.9 C 31 41.9 32.2 40.7 32.2 39.2 L 32.2 5.8 C 32.2 4.3 31 3.1 29.6 3.1 Z" fill="#dddddd"/>
					<path d="M 29.6 3.1 L 25.3 3.1 C 25.3 2.5 24.8 2.1 24.2 2.1 L 12.5 2.1 C 11.9 2.1 11.4 2.5 11.4 3.1 L 7 3.1 C 5.6 3.1 4.4 4.3 4.4 5.8 L 4.4 39.2 C 4.4 40.7 5.6 41.9 7 41.9 L 29.6 41.9 C 31 41.9 32.2 40.7 32.2 39.2 L 32.2 5.8 C 32.2 4.3 31 3.1 29.6 3.1 Z" fill="#dcdcdc"/>
					<path d="M 29.6 3.1 L 25.3 3.1 C 25.3 2.5 24.8 2.1 24.2 2.1 L 12.5 2.1 C 11.9 2.1 11.4 2.5 11.4 3.1 L 7 3.1 C 5.6 3.1 4.4 4.3 4.4 5.8 L 4.4 39.2 C 4.4 40.7 5.6 41.9 7 41.9 L 29.6 41.9 C 31 41.9 32.2 40.7 32.2 39.2 L 32.2 5.8 C 32.2 4.3 31 3.1 29.6 3.1 Z" fill="#dbdbdb"/>
					<path d="M 29.6 3.1 L 25.3 3.1 C 25.3 2.5 24.8 2.1 24.2 2.1 L 12.5 2.1 C 11.9 2.1 11.4 2.5 11.4 3.1 L 7 3.1 C 5.5 3.1 4.4 4.3 4.4 5.8 L 4.4 39.2 C 4.4 40.7 5.5 41.9 7 41.9 L 29.6 41.9 C 31 41.9 32.2 40.7 32.2 39.2 L 32.2 5.8 C 32.2 4.3 31 3.1 29.6 3.1 Z" fill="#dadada"/>
					<path d="M 29.6 3.1 L 25.3 3.1 C 25.3 2.5 24.8 2.1 24.2 2.1 L 12.5 2.1 C 11.9 2.1 11.4 2.5 11.4 3.1 L 7 3.1 C 5.5 3.1 4.4 4.3 4.4 5.8 L 4.4 39.2 C 4.4 40.7 5.5 41.9 7 41.9 L 29.6 41.9 C 31 41.9 32.2 40.7 32.2 39.2 L 32.2 5.8 C 32.2 4.3 31 3.1 29.6 3.1 Z" fill="#d9d9d9"/>
					<path d="M 29.6 3.1 L 25.3 3.1 C 25.3 2.5 24.8 2.1 24.2 2.1 L 12.4 2.1 C 11.9 2.1 11.4 2.5 11.4 3.1 L 7 3.1 C 5.5 3.1 4.4 4.3 4.4 5.8 L 4.4 39.2 C 4.4 40.7 5.5 41.9 7 41.9 L 29.6 41.9 C 31 41.9 32.2 40.7 32.2 39.2 L 32.2 5.8 C 32.2 4.3 31 3.1 29.6 3.1 Z" fill="#d8d8d8"/>
					<path d="M 29.5 3.1 L 25.3 3.1 C 25.3 2.5 24.8 2.1 24.2 2.1 L 12.4 2.1 C 11.9 2.1 11.4 2.5 11.4 3.1 L 7 3.1 C 5.5 3.1 4.3 4.3 4.3 5.8 L 4.3 39.2 C 4.3 40.7 5.5 41.9 7 41.9 L 29.5 41.9 C 31 41.9 32.2 40.7 32.2 39.2 L 32.2 5.8 C 32.2 4.3 31 3.1 29.5 3.1 Z" fill="#d7d7d7"/>
					<path d="M 29.5 3.1 L 25.3 3.1 C 25.3 2.5 24.8 2.1 24.2 2.1 L 12.4 2.1 C 11.9 2.1 11.4 2.5 11.4 3.1 L 7 3.1 C 5.5 3.1 4.3 4.3 4.3 5.8 L 4.3 39.2 C 4.3 40.7 5.5 41.9 7 41.9 L 29.5 41.9 C 31 41.9 32.2 40.7 32.2 39.2 L 32.2 5.8 C 32.2 4.3 31 3.1 29.5 3.1 Z" fill="#d6d6d6"/>
					<path d="M 29.5 3.1 L 25.3 3.1 C 25.3 2.5 24.8 2.1 24.2 2.1 L 12.4 2.1 C 11.9 2.1 11.4 2.5 11.4 3.1 L 7 3.1 C 5.5 3.1 4.3 4.3 4.3 5.8 L 4.3 39.2 C 4.3 40.7 5.5 41.9 7 41.9 L 29.5 41.9 C 31 41.9 32.2 40.7 32.2 39.2 L 32.2 5.8 C 32.2 4.3 31 3.1 29.5 3.1 Z" fill="#d5d5d5"/>
					<path d="M 29.5 3.1 L 25.3 3.1 C 25.3 2.5 24.8 2.1 24.2 2.1 L 12.4 2.1 C 11.8 2.1 11.4 2.5 11.4 3.1 L 7 3.1 C 5.5 3.1 4.3 4.3 4.3 5.8 L 4.3 39.2 C 4.3 40.7 5.5 41.9 7 41.9 L 29.5 41.9 C 31 41.9 32.2 40.7 32.2 39.2 L 32.2 5.8 C 32.2 4.3 31 3.1 29.5 3.1 Z" fill="#d4d4d4"/>
					<path d="M 29.5 3.1 L 25.3 3.1 C 25.3 2.5 24.8 2.1 24.2 2.1 L 12.4 2.1 C 11.8 2.1 11.4 2.5 11.4 3.1 L 7 3.1 C 5.5 3.1 4.3 4.3 4.3 5.8 L 4.3 39.2 C 4.3 40.7 5.5 41.9 7 41.9 L 29.5 41.9 C 31 41.9 32.2 40.7 32.2 39.2 L 32.2 5.8 C 32.2 4.3 31 3.1 29.5 3.1 Z" fill="#d3d3d3"/>
					<path d="M 29.5 3.1 L 25.3 3.1 C 25.3 2.5 24.8 2.1 24.2 2.1 L 12.4 2.1 C 11.8 2.1 11.4 2.5 11.4 3.1 L 7 3.1 C 5.5 3.1 4.3 4.3 4.3 5.8 L 4.3 39.2 C 4.3 40.7 5.5 41.9 7 41.9 L 29.5 41.9 C 31 41.9 32.2 40.7 32.2 39.2 L 32.2 5.8 C 32.2 4.3 31 3.1 29.5 3.1 Z" fill="#d2d2d2"/>
					<path d="M 29.5 3.1 L 25.3 3.1 C 25.3 2.5 24.8 2.1 24.2 2.1 L 12.4 2.1 C 11.8 2.1 11.4 2.5 11.3 3.1 L 7 3.1 C 5.5 3.1 4.3 4.3 4.3 5.8 L 4.3 39.2 C 4.3 40.7 5.5 41.9 7 41.9 L 29.5 41.9 C 31 41.9 32.2 40.7 32.2 39.2 L 32.2 5.8 C 32.2 4.3 31 3.1 29.5 3.1 Z" fill="#d1d1d1"/>
					<path d="M 29.5 3.1 L 25.3 3.1 C 25.3 2.5 24.8 2.1 24.2 2.1 L 12.4 2.1 C 11.8 2.1 11.4 2.5 11.3 3.1 L 7 3.1 C 5.5 3.1 4.3 4.3 4.3 5.8 L 4.3 39.2 C 4.3 40.7 5.5 41.9 7 41.9 L 29.5 41.9 C 31 41.9 32.2 40.7 32.2 39.2 L 32.2 5.8 C 32.2 4.3 31 3.1 29.5 3.1 Z" fill="#d0d0d0"/>
					<path d="M 29.5 3.1 L 25.3 3.1 C 25.3 2.5 24.8 2.1 24.2 2.1 L 12.4 2.1 C 11.8 2.1 11.4 2.5 11.3 3.1 L 7 3.1 C 5.5 3.1 4.3 4.3 4.3 5.8 L 4.3 39.2 C 4.3 40.7 5.5 41.9 7 41.9 L 29.5 41.9 C 31 41.9 32.2 40.7 32.2 39.2 L 32.2 5.8 C 32.2 4.3 31 3.1 29.5 3.1 Z" fill="#cfcfcf"/>
					<path d="M 29.5 3.1 L 25.3 3.1 C 25.3 2.5 24.8 2.1 24.2 2.1 L 12.4 2.1 C 11.8 2.1 11.3 2.5 11.3 3.1 L 7 3.1 C 5.5 3.1 4.3 4.3 4.3 5.8 L 4.3 39.2 C 4.3 40.7 5.5 41.9 7 41.9 L 29.5 41.9 C 31 41.9 32.2 40.7 32.2 39.2 L 32.2 5.8 C 32.2 4.3 31 3.1 29.5 3.1 Z" fill="#cecece"/>
					<path d="M 29.5 3.1 L 25.3 3.1 C 25.3 2.5 24.8 2.1 24.2 2.1 L 12.4 2.1 C 11.8 2.1 11.3 2.5 11.3 3.1 L 7 3.1 C 5.5 3.1 4.3 4.3 4.3 5.8 L 4.3 39.2 C 4.3 40.7 5.5 41.9 7 41.9 L 29.5 41.9 C 31 41.9 32.2 40.7 32.2 39.2 L 32.2 5.8 C 32.2 4.3 31 3.1 29.5 3.1 Z" fill="#cdcdcd"/>
					<path d="M 29.5 3.1 L 25.3 3.1 C 25.3 2.5 24.8 2.1 24.2 2.1 L 12.4 2.1 C 11.8 2.1 11.3 2.5 11.3 3.1 L 7 3.1 C 5.5 3.1 4.3 4.3 4.3 5.8 L 4.3 39.2 C 4.3 40.7 5.5 41.9 7 41.9 L 29.5 41.9 C 31 41.9 32.2 40.7 32.2 39.2 L 32.2 5.8 C 32.2 4.3 31 3.1 29.5 3.1 Z" fill="#cccccc"/>
					<path d="M 29.5 3.1 L 25.3 3.1 C 25.3 2.5 24.8 2.1 24.2 2.1 L 12.4 2.1 C 11.8 2.1 11.3 2.5 11.3 3.1 L 7 3.1 C 5.5 3.1 4.3 4.3 4.3 5.8 L 4.3 39.2 C 4.3 40.7 5.5 41.9 7 41.9 L 29.5 41.9 C 31 41.9 32.2 40.7 32.2 39.2 L 32.2 5.8 C 32.2 4.3 31 3.1 29.5 3.1 Z" fill="#cbcbcb"/>
					<path d="M 29.5 3.1 L 25.3 3.1 C 25.2 2.5 24.8 2.1 24.2 2.1 L 12.4 2.1 C 11.8 2.1 11.3 2.5 11.3 3.1 L 7 3.1 C 5.5 3.1 4.3 4.3 4.3 5.8 L 4.3 39.2 C 4.3 40.7 5.5 41.9 7 41.9 L 29.5 41.9 C 31 41.9 32.2 40.7 32.2 39.2 L 32.2 5.8 C 32.2 4.3 31 3.1 29.5 3.1 Z" fill="#cacaca"/>
					<path d="M 29.5 3.1 L 25.3 3.1 C 25.2 2.5 24.8 2.1 24.2 2.1 L 12.4 2.1 C 11.8 2.1 11.3 2.5 11.3 3.1 L 6.9 3.1 C 5.5 3.1 4.3 4.3 4.3 5.8 L 4.3 39.2 C 4.3 40.7 5.5 41.9 6.9 41.9 L 29.5 41.9 C 31 41.9 32.1 40.7 32.1 39.2 L 32.1 5.8 C 32.1 4.3 31 3.1 29.5 3.1 Z" fill="#c9c9c9"/>
					<path d="M 29.5 3.1 L 25.2 3.1 C 25.2 2.5 24.8 2.1 24.2 2.1 L 12.4 2.1 C 11.8 2.1 11.3 2.5 11.3 3.1 L 6.9 3.1 C 5.5 3.1 4.3 4.3 4.3 5.8 L 4.3 39.2 C 4.3 40.7 5.5 41.9 6.9 41.9 L 29.5 41.9 C 31 41.9 32.1 40.7 32.1 39.2 L 32.1 5.8 C 32.1 4.3 31 3.1 29.5 3.1 Z" fill="#c8c8c8"/>
					<path d="M 29.5 3.1 L 25.2 3.1 C 25.2 2.5 24.8 2.1 24.2 2.1 L 12.4 2.1 C 11.8 2.1 11.3 2.5 11.3 3.1 L 6.9 3.1 C 5.5 3.1 4.3 4.3 4.3 5.8 L 4.3 39.2 C 4.3 40.7 5.5 41.9 6.9 41.9 L 29.5 41.9 C 31 41.9 32.1 40.7 32.1 39.2 L 32.1 5.8 C 32.1 4.3 31 3.1 29.5 3.1 Z" fill="#c7c7c7"/>
					<path d="M 29.5 3.1 L 25.2 3.1 C 25.2 2.5 24.8 2.1 24.2 2.1 L 12.4 2.1 C 11.8 2.1 11.3 2.5 11.3 3.1 L 6.9 3.1 C 5.5 3.1 4.3 4.3 4.3 5.8 L 4.3 39.2 C 4.3 40.7 5.5 41.8 6.9 41.8 L 29.5 41.8 C 30.9 41.8 32.1 40.7 32.1 39.2 L 32.1 5.8 C 32.1 4.3 30.9 3.1 29.5 3.1 Z" fill="#c6c6c6"/>
					<path d="M 29.5 3.1 L 25.2 3.1 C 25.2 2.5 24.8 2.1 24.2 2.1 L 12.4 2.1 C 11.8 2.1 11.3 2.5 11.3 3.1 L 6.9 3.1 C 5.5 3.1 4.3 4.3 4.3 5.8 L 4.3 39.2 C 4.3 40.6 5.5 41.8 6.9 41.8 L 29.5 41.8 C 30.9 41.8 32.1 40.6 32.1 39.2 L 32.1 5.8 C 32.1 4.3 30.9 3.1 29.5 3.1 Z" fill="#c5c5c5"/>
					<path d="M 29.5 3.1 L 25.2 3.1 C 25.2 2.5 24.7 2.1 24.2 2.1 L 12.4 2.1 C 11.8 2.1 11.3 2.5 11.3 3.1 L 6.9 3.1 C 5.5 3.1 4.3 4.3 4.3 5.8 L 4.3 39.2 C 4.3 40.6 5.5 41.8 6.9 41.8 L 29.5 41.8 C 30.9 41.8 32.1 40.6 32.1 39.2 L 32.1 5.8 C 32.1 4.3 30.9 3.1 29.5 3.1 Z" fill="#c4c4c4"/>
					<path d="M 29.5 3.1 L 25.2 3.1 C 25.2 2.5 24.7 2.1 24.2 2.1 L 12.4 2.1 C 11.8 2.1 11.3 2.5 11.3 3.1 L 6.9 3.1 C 5.5 3.1 4.3 4.3 4.3 5.8 L 4.3 39.2 C 4.3 40.6 5.5 41.8 6.9 41.8 L 29.5 41.8 C 30.9 41.8 32.1 40.6 32.1 39.2 L 32.1 5.8 C 32.1 4.3 30.9 3.1 29.5 3.1 Z" fill="#c3c3c3"/>
					<path d="M 29.5 3.1 L 25.2 3.1 C 25.2 2.5 24.7 2.1 24.2 2.1 L 12.4 2.1 C 11.8 2.1 11.3 2.5 11.3 3.1 L 6.9 3.1 C 5.5 3.1 4.3 4.3 4.3 5.8 L 4.3 39.2 C 4.3 40.6 5.5 41.8 6.9 41.8 L 29.5 41.8 C 30.9 41.8 32.1 40.6 32.1 39.2 L 32.1 5.8 C 32.1 4.3 30.9 3.1 29.5 3.1 Z" fill="#c2c2c2"/>
					<path d="M 29.5 3.1 L 25.2 3.1 C 25.2 2.6 24.7 2.1 24.1 2.1 L 12.4 2.1 C 11.8 2.1 11.3 2.6 11.3 3.1 L 6.9 3.1 C 5.5 3.1 4.3 4.3 4.3 5.8 L 4.3 39.2 C 4.3 40.6 5.5 41.8 6.9 41.8 L 29.5 41.8 C 30.9 41.8 32.1 40.6 32.1 39.2 L 32.1 5.8 C 32.1 4.3 30.9 3.1 29.5 3.1 Z" fill="#c1c1c1"/>
					<path d="M 29.5 3.1 L 25.2 3.1 C 25.2 2.6 24.7 2.1 24.1 2.1 L 12.4 2.1 C 11.8 2.1 11.3 2.6 11.3 3.1 L 6.9 3.1 C 5.4 3.1 4.3 4.3 4.3 5.8 L 4.3 39.2 C 4.3 40.6 5.4 41.8 6.9 41.8 L 29.5 41.8 C 30.9 41.8 32.1 40.6 32.1 39.2 L 32.1 5.8 C 32.1 4.3 30.9 3.1 29.5 3.1 Z" fill="#c0c0c0"/>
					<path d="M 29.5 3.1 L 25.2 3.1 C 25.2 2.6 24.7 2.1 24.1 2.1 L 12.4 2.1 C 11.8 2.1 11.3 2.6 11.3 3.1 L 6.9 3.1 C 5.4 3.1 4.3 4.3 4.3 5.8 L 4.3 39.2 C 4.3 40.6 5.4 41.8 6.9 41.8 L 29.5 41.8 C 30.9 41.8 32.1 40.6 32.1 39.2 L 32.1 5.8 C 32.1 4.3 30.9 3.1 29.5 3.1 Z" fill="#bfbfbf"/>
					<path d="M 29.5 3.1 L 25.2 3.1 C 25.2 2.6 24.7 2.1 24.1 2.1 L 12.4 2.1 C 11.8 2.1 11.3 2.6 11.3 3.1 L 6.9 3.1 C 5.4 3.1 4.3 4.3 4.3 5.8 L 4.3 39.2 C 4.3 40.6 5.4 41.8 6.9 41.8 L 29.5 41.8 C 30.9 41.8 32.1 40.6 32.1 39.2 L 32.1 5.8 C 32.1 4.3 30.9 3.1 29.5 3.1 Z" fill="#bebebe"/>
					<path d="M 29.5 3.1 L 25.2 3.1 C 25.2 2.6 24.7 2.1 24.1 2.1 L 12.3 2.1 C 11.8 2.1 11.3 2.6 11.3 3.1 L 6.9 3.1 C 5.4 3.1 4.3 4.3 4.3 5.8 L 4.3 39.2 C 4.3 40.6 5.4 41.8 6.9 41.8 L 29.5 41.8 C 30.9 41.8 32.1 40.6 32.1 39.2 L 32.1 5.8 C 32.1 4.3 30.9 3.1 29.5 3.1 Z" fill="#bdbdbd"/>
					<path d="M 29.4 3.1 L 25.2 3.1 C 25.2 2.6 24.7 2.1 24.1 2.1 L 12.3 2.1 C 11.8 2.1 11.3 2.6 11.3 3.1 L 6.9 3.1 C 5.4 3.1 4.2 4.3 4.2 5.8 L 4.2 39.2 C 4.2 40.6 5.4 41.8 6.9 41.8 L 29.4 41.8 C 30.9 41.8 32.1 40.6 32.1 39.2 L 32.1 5.8 C 32.1 4.3 30.9 3.1 29.4 3.1 Z" fill="#bcbcbc"/>
					<path d="M 29.4 3.1 L 25.2 3.1 C 25.2 2.6 24.7 2.1 24.1 2.1 L 12.3 2.1 C 11.8 2.1 11.3 2.6 11.3 3.1 L 6.9 3.1 C 5.4 3.1 4.2 4.3 4.2 5.8 L 4.2 39.2 C 4.2 40.6 5.4 41.8 6.9 41.8 L 29.4 41.8 C 30.9 41.8 32.1 40.6 32.1 39.2 L 32.1 5.8 C 32.1 4.3 30.9 3.1 29.4 3.1 Z" fill="#bbbbbb"/>
					<path d="M 29.4 3.1 L 25.2 3.1 C 25.2 2.6 24.7 2.1 24.1 2.1 L 12.3 2.1 C 11.7 2.1 11.3 2.6 11.3 3.1 L 6.9 3.1 C 5.4 3.1 4.2 4.3 4.2 5.8 L 4.2 39.1 C 4.2 40.6 5.4 41.8 6.9 41.8 L 29.4 41.8 C 30.9 41.8 32.1 40.6 32.1 39.1 L 32.1 5.8 C 32.1 4.3 30.9 3.1 29.4 3.1 Z" fill="#bababa"/>
					<path d="M 29.4 3.1 L 25.2 3.1 C 25.2 2.6 24.7 2.1 24.1 2.1 L 12.3 2.1 C 11.7 2.1 11.3 2.6 11.3 3.1 L 6.9 3.1 C 5.4 3.1 4.2 4.3 4.2 5.8 L 4.2 39.1 C 4.2 40.6 5.4 41.8 6.9 41.8 L 29.4 41.8 C 30.9 41.8 32.1 40.6 32.1 39.1 L 32.1 5.8 C 32.1 4.3 30.9 3.1 29.4 3.1 Z" fill="#b9b9b9"/>
					<path d="M 29.4 3.1 L 25.2 3.1 C 25.2 2.6 24.7 2.1 24.1 2.1 L 12.3 2.1 C 11.7 2.1 11.3 2.6 11.3 3.1 L 6.9 3.1 C 5.4 3.1 4.2 4.3 4.2 5.8 L 4.2 39.1 C 4.2 40.6 5.4 41.8 6.9 41.8 L 29.4 41.8 C 30.9 41.8 32.1 40.6 32.1 39.1 L 32.1 5.8 C 32.1 4.3 30.9 3.1 29.4 3.1 Z" fill="#b8b8b8"/>
					<path d="M 29.4 3.1 L 25.2 3.1 C 25.2 2.6 24.7 2.1 24.1 2.1 L 12.3 2.1 C 11.7 2.1 11.3 2.6 11.3 3.1 L 6.9 3.1 C 5.4 3.1 4.2 4.3 4.2 5.8 L 4.2 39.1 C 4.2 40.6 5.4 41.8 6.9 41.8 L 29.4 41.8 C 30.9 41.8 32.1 40.6 32.1 39.1 L 32.1 5.8 C 32.1 4.3 30.9 3.1 29.4 3.1 Z" fill="#b7b7b7"/>
					<path d="M 29.4 3.1 L 25.2 3.1 C 25.2 2.6 24.7 2.1 24.1 2.1 L 12.3 2.1 C 11.7 2.1 11.3 2.6 11.2 3.1 L 6.9 3.1 C 5.4 3.1 4.2 4.3 4.2 5.8 L 4.2 39.1 C 4.2 40.6 5.4 41.8 6.9 41.8 L 29.4 41.8 C 30.9 41.8 32.1 40.6 32.1 39.1 L 32.1 5.8 C 32.1 4.3 30.9 3.1 29.4 3.1 Z" fill="#b6b6b6"/>
					<path d="M 29.4 3.1 L 25.2 3.1 C 25.2 2.6 24.7 2.1 24.1 2.1 L 12.3 2.1 C 11.7 2.1 11.3 2.6 11.2 3.1 L 6.9 3.1 C 5.4 3.1 4.2 4.3 4.2 5.8 L 4.2 39.1 C 4.2 40.6 5.4 41.8 6.9 41.8 L 29.4 41.8 C 30.9 41.8 32.1 40.6 32.1 39.1 L 32.1 5.8 C 32.1 4.3 30.9 3.1 29.4 3.1 Z" fill="#b5b5b5"/>
					<path d="M 29.4 3.1 L 25.2 3.1 C 25.2 2.6 24.7 2.1 24.1 2.1 L 12.3 2.1 C 11.7 2.1 11.3 2.6 11.2 3.1 L 6.9 3.1 C 5.4 3.1 4.2 4.3 4.2 5.8 L 4.2 39.1 C 4.2 40.6 5.4 41.8 6.9 41.8 L 29.4 41.8 C 30.9 41.8 32.1 40.6 32.1 39.1 L 32.1 5.8 C 32.1 4.3 30.9 3.1 29.4 3.1 Z" fill="#b4b4b4"/>
					<path d="M 29.4 3.1 L 25.2 3.1 C 25.2 2.6 24.7 2.1 24.1 2.1 L 12.3 2.1 C 11.7 2.1 11.2 2.6 11.2 3.1 L 6.9 3.1 C 5.4 3.1 4.2 4.3 4.2 5.8 L 4.2 39.1 C 4.2 40.6 5.4 41.8 6.9 41.8 L 29.4 41.8 C 30.9 41.8 32.1 40.6 32.1 39.1 L 32.1 5.8 C 32.1 4.3 30.9 3.1 29.4 3.1 Z" fill="#b3b3b3"/>
					<path d="M 29.4 3.1 L 25.2 3.1 C 25.2 2.6 24.7 2.1 24.1 2.1 L 12.3 2.1 C 11.7 2.1 11.2 2.6 11.2 3.1 L 6.9 3.1 C 5.4 3.1 4.2 4.3 4.2 5.8 L 4.2 39.1 C 4.2 40.6 5.4 41.8 6.9 41.8 L 29.4 41.8 C 30.9 41.8 32.1 40.6 32.1 39.1 L 32.1 5.8 C 32.1 4.3 30.9 3.1 29.4 3.1 Z" fill="#b2b2b2"/>
					<path d="M 29.4 3.1 L 25.2 3.1 C 25.2 2.6 24.7 2.1 24.1 2.1 L 12.3 2.1 C 11.7 2.1 11.2 2.6 11.2 3.1 L 6.9 3.1 C 5.4 3.1 4.2 4.3 4.2 5.8 L 4.2 39.1 C 4.2 40.6 5.4 41.8 6.9 41.8 L 29.4 41.8 C 30.9 41.8 32.1 40.6 32.1 39.1 L 32.1 5.8 C 32.1 4.3 30.9 3.1 29.4 3.1 Z" fill="#b1b1b1"/>
					<path d="M 29.4 3.1 L 25.2 3.1 C 25.1 2.6 24.7 2.1 24.1 2.1 L 12.3 2.1 C 11.7 2.1 11.2 2.6 11.2 3.1 L 6.9 3.1 C 5.4 3.1 4.2 4.3 4.2 5.8 L 4.2 39.1 C 4.2 40.6 5.4 41.8 6.9 41.8 L 29.4 41.8 C 30.9 41.8 32.1 40.6 32.1 39.1 L 32.1 5.8 C 32.1 4.3 30.9 3.1 29.4 3.1 Z" fill="#b0b0b0"/>
					<path d="M 29.4 3.1 L 25.2 3.1 C 25.1 2.6 24.7 2.1 24.1 2.1 L 12.3 2.1 C 11.7 2.1 11.2 2.6 11.2 3.1 L 6.9 3.1 C 5.4 3.1 4.2 4.3 4.2 5.8 L 4.2 39.1 C 4.2 40.6 5.4 41.8 6.9 41.8 L 29.4 41.8 C 30.9 41.8 32.1 40.6 32.1 39.1 L 32.1 5.8 C 32.1 4.3 30.9 3.1 29.4 3.1 Z" fill="#afafaf"/>
					<path d="M 29.4 3.1 L 25.2 3.1 C 25.1 2.6 24.7 2.1 24.1 2.1 L 12.3 2.1 C 11.7 2.1 11.2 2.6 11.2 3.1 L 6.8 3.1 C 5.4 3.1 4.2 4.3 4.2 5.8 L 4.2 39.1 C 4.2 40.6 5.4 41.8 6.8 41.8 L 29.4 41.8 C 30.9 41.8 32 40.6 32 39.1 L 32 5.8 C 32 4.3 30.9 3.1 29.4 3.1 Z" fill="#aeaeae"/>
					<path d="M 29.4 3.1 L 25.1 3.1 C 25.1 2.6 24.7 2.1 24.1 2.1 L 12.3 2.1 C 11.7 2.1 11.2 2.6 11.2 3.1 L 6.8 3.1 C 5.4 3.1 4.2 4.3 4.2 5.8 L 4.2 39.1 C 4.2 40.6 5.4 41.8 6.8 41.8 L 29.4 41.8 C 30.9 41.8 32 40.6 32 39.1 L 32 5.8 C 32 4.3 30.9 3.1 29.4 3.1 Z" fill="#adadad"/>
					<path d="M 29.4 3.1 L 25.1 3.1 C 25.1 2.6 24.7 2.1 24.1 2.1 L 12.3 2.1 C 11.7 2.1 11.2 2.6 11.2 3.1 L 6.8 3.1 C 5.4 3.1 4.2 4.3 4.2 5.8 L 4.2 39.1 C 4.2 40.6 5.4 41.8 6.8 41.8 L 29.4 41.8 C 30.9 41.8 32 40.6 32 39.1 L 32 5.8 C 32 4.3 30.9 3.1 29.4 3.1 Z" fill="#acacac"/>
					<path d="M 29.4 3.1 L 25.1 3.1 C 25.1 2.6 24.7 2.1 24.1 2.1 L 12.3 2.1 C 11.7 2.1 11.2 2.6 11.2 3.1 L 6.8 3.1 C 5.4 3.1 4.2 4.3 4.2 5.8 L 4.2 39.1 C 4.2 40.6 5.4 41.8 6.8 41.8 L 29.4 41.8 C 30.8 41.8 32 40.6 32 39.1 L 32 5.8 C 32 4.3 30.8 3.1 29.4 3.1 Z" fill="#ababab"/>
					<path d="M 29.4 3.1 L 25.1 3.1 C 25.1 2.6 24.7 2.1 24.1 2.1 L 12.3 2.1 C 11.7 2.1 11.2 2.6 11.2 3.1 L 6.8 3.1 C 5.4 3.1 4.2 4.3 4.2 5.8 L 4.2 39.1 C 4.2 40.6 5.4 41.8 6.8 41.8 L 29.4 41.8 C 30.8 41.8 32 40.6 32 39.1 L 32 5.8 C 32 4.3 30.8 3.1 29.4 3.1 Z" fill="#aaaaaa"/>
					<path d="M 29.4 3.1 L 25.1 3.1 C 25.1 2.6 24.6 2.1 24.1 2.1 L 12.3 2.1 C 11.7 2.1 11.2 2.6 11.2 3.1 L 6.8 3.1 C 5.4 3.1 4.2 4.3 4.2 5.8 L 4.2 39.1 C 4.2 40.6 5.4 41.8 6.8 41.8 L 29.4 41.8 C 30.8 41.8 32 40.6 32 39.1 L 32 5.8 C 32 4.3 30.8 3.1 29.4 3.1 Z" fill="#a9a9a9"/>
					<path d="M 29.4 3.1 L 25.1 3.1 C 25.1 2.6 24.6 2.1 24.1 2.1 L 12.3 2.1 C 11.7 2.1 11.2 2.6 11.2 3.1 L 6.8 3.1 C 5.4 3.1 4.2 4.3 4.2 5.8 L 4.2 39.1 C 4.2 40.6 5.4 41.8 6.8 41.8 L 29.4 41.8 C 30.8 41.8 32 40.6 32 39.1 L 32 5.8 C 32 4.3 30.8 3.1 29.4 3.1 Z" fill="#a8a8a8"/>
					<path d="M 29.4 3.1 L 25.1 3.1 C 25.1 2.6 24.6 2.1 24.1 2.1 L 12.3 2.1 C 11.7 2.1 11.2 2.6 11.2 3.1 L 6.8 3.1 C 5.4 3.1 4.2 4.3 4.2 5.8 L 4.2 39.1 C 4.2 40.6 5.4 41.8 6.8 41.8 L 29.4 41.8 C 30.8 41.8 32 40.6 32 39.1 L 32 5.8 C 32 4.3 30.8 3.1 29.4 3.1 Z" fill="#a7a7a7"/>
					<path d="M 29.4 3.1 L 25.1 3.1 C 25.1 2.6 24.6 2.1 24 2.1 L 12.3 2.1 C 11.7 2.1 11.2 2.6 11.2 3.1 L 6.8 3.1 C 5.4 3.1 4.2 4.3 4.2 5.8 L 4.2 39.1 C 4.2 40.6 5.4 41.8 6.8 41.8 L 29.4 41.8 C 30.8 41.8 32 40.6 32 39.1 L 32 5.8 C 32 4.3 30.8 3.1 29.4 3.1 Z" fill="#a6a6a6"/>
					<path d="M 29.4 3.1 L 25.1 3.1 C 25.1 2.6 24.6 2.1 24 2.1 L 12.3 2.1 C 11.7 2.1 11.2 2.6 11.2 3.1 L 6.8 3.1 C 5.3 3.1 4.2 4.3 4.2 5.8 L 4.2 39.1 C 4.2 40.6 5.3 41.8 6.8 41.8 L 29.4 41.8 C 30.8 41.8 32 40.6 32 39.1 L 32 5.8 C 32 4.3 30.8 3.1 29.4 3.1 Z" fill="#a5a5a5"/>
					<path d="M 29.4 3.1 L 25.1 3.1 C 25.1 2.6 24.6 2.1 24 2.1 L 12.3 2.1 C 11.7 2.1 11.2 2.6 11.2 3.1 L 6.8 3.1 C 5.3 3.1 4.2 4.3 4.2 5.8 L 4.2 39.1 C 4.2 40.6 5.3 41.8 6.8 41.8 L 29.4 41.8 C 30.8 41.8 32 40.6 32 39.1 L 32 5.8 C 32 4.3 30.8 3.1 29.4 3.1 Z" fill="#a4a4a4"/>
					<path d="M 29.4 3.1 L 25.1 3.1 C 25.1 2.6 24.6 2.1 24 2.1 L 12.3 2.1 C 11.7 2.1 11.2 2.6 11.2 3.1 L 6.8 3.1 C 5.3 3.1 4.2 4.3 4.2 5.8 L 4.2 39.1 C 4.2 40.6 5.3 41.8 6.8 41.8 L 29.4 41.8 C 30.8 41.8 32 40.6 32 39.1 L 32 5.8 C 32 4.3 30.8 3.1 29.4 3.1 Z" fill="#a3a3a3"/>
					<path d="M 29.4 3.1 L 25.1 3.1 C 25.1 2.6 24.6 2.1 24 2.1 L 12.2 2.1 C 11.7 2.1 11.2 2.6 11.2 3.1 L 6.8 3.1 C 5.3 3.1 4.2 4.3 4.2 5.8 L 4.2 39.1 C 4.2 40.6 5.3 41.8 6.8 41.8 L 29.4 41.8 C 30.8 41.8 32 40.6 32 39.1 L 32 5.8 C 32 4.3 30.8 3.1 29.4 3.1 Z" fill="#a2a2a2"/>
					<path d="M 29.3 3.2 L 25.1 3.2 C 25.1 2.6 24.6 2.1 24 2.1 L 12.2 2.1 C 11.7 2.1 11.2 2.6 11.2 3.2 L 6.8 3.2 C 5.3 3.2 4.1 4.3 4.1 5.8 L 4.1 39.1 C 4.1 40.6 5.3 41.7 6.8 41.7 L 29.3 41.7 C 30.8 41.7 32 40.6 32 39.1 L 32 5.8 C 32 4.3 30.8 3.2 29.3 3.2 Z" fill="#a1a1a1"/>
					<path d="M 29.3 3.2 L 25.1 3.2 C 25.1 2.6 24.6 2.1 24 2.1 L 12.2 2.1 C 11.7 2.1 11.2 2.6 11.2 3.2 L 6.8 3.2 C 5.3 3.2 4.1 4.3 4.1 5.8 L 4.1 39.1 C 4.1 40.6 5.3 41.7 6.8 41.7 L 29.3 41.7 C 30.8 41.7 32 40.6 32 39.1 L 32 5.8 C 32 4.3 30.8 3.2 29.3 3.2 Z" fill="#a0a0a0"/>
					<path d="M 29.3 3.2 L 25.1 3.2 C 25.1 2.6 24.6 2.1 24 2.1 L 12.2 2.1 C 11.6 2.1 11.2 2.6 11.2 3.2 L 6.8 3.2 C 5.3 3.2 4.1 4.3 4.1 5.8 L 4.1 39.1 C 4.1 40.6 5.3 41.7 6.8 41.7 L 29.3 41.7 C 30.8 41.7 32 40.6 32 39.1 L 32 5.8 C 32 4.3 30.8 3.2 29.3 3.2 Z" fill="#9f9f9f"/>
					<path d="M 29.3 3.2 L 25.1 3.2 C 25.1 2.6 24.6 2.1 24 2.1 L 12.2 2.1 C 11.6 2.1 11.2 2.6 11.2 3.2 L 6.8 3.2 C 5.3 3.2 4.1 4.3 4.1 5.8 L 4.1 39.1 C 4.1 40.5 5.3 41.7 6.8 41.7 L 29.3 41.7 C 30.8 41.7 32 40.5 32 39.1 L 32 5.8 C 32 4.3 30.8 3.2 29.3 3.2 Z" fill="#9e9e9e"/>
					<path d="M 29.3 3.2 L 25.1 3.2 C 25.1 2.6 24.6 2.1 24 2.1 L 12.2 2.1 C 11.6 2.1 11.2 2.6 11.2 3.2 L 6.8 3.2 C 5.3 3.2 4.1 4.3 4.1 5.8 L 4.1 39.1 C 4.1 40.5 5.3 41.7 6.8 41.7 L 29.3 41.7 C 30.8 41.7 32 40.5 32 39.1 L 32 5.8 C 32 4.3 30.8 3.2 29.3 3.2 Z" fill="#9d9d9d"/>
					<path d="M 29.3 3.2 L 25.1 3.2 C 25.1 2.6 24.6 2.1 24 2.1 L 12.2 2.1 C 11.6 2.1 11.2 2.6 11.2 3.2 L 6.8 3.2 C 5.3 3.2 4.1 4.3 4.1 5.8 L 4.1 39.1 C 4.1 40.5 5.3 41.7 6.8 41.7 L 29.3 41.7 C 30.8 41.7 32 40.5 32 39.1 L 32 5.8 C 32 4.3 30.8 3.2 29.3 3.2 Z" fill="#9c9c9c"/>
					<path d="M 29.3 3.2 L 25.1 3.2 C 25.1 2.6 24.6 2.1 24 2.1 L 12.2 2.1 C 11.6 2.1 11.2 2.6 11.1 3.2 L 6.8 3.2 C 5.3 3.2 4.1 4.3 4.1 5.8 L 4.1 39.1 C 4.1 40.5 5.3 41.7 6.8 41.7 L 29.3 41.7 C 30.8 41.7 32 40.5 32 39.1 L 32 5.8 C 32 4.3 30.8 3.2 29.3 3.2 Z" fill="#9b9b9b"/>
					<path d="M 29.3 3.2 L 25.1 3.2 C 25.1 2.6 24.6 2.1 24 2.1 L 12.2 2.1 C 11.6 2.1 11.2 2.6 11.1 3.2 L 6.8 3.2 C 5.3 3.2 4.1 4.3 4.1 5.8 L 4.1 39.1 C 4.1 40.5 5.3 41.7 6.8 41.7 L 29.3 41.7 C 30.8 41.7 32 40.5 32 39.1 L 32 5.8 C 32 4.3 30.8 3.2 29.3 3.2 Z" fill="#9a9a9a"/>
					<path d="M 29.3 3.2 L 25.1 3.2 C 25.1 2.6 24.6 2.1 24 2.1 L 12.2 2.1 C 11.6 2.1 11.2 2.6 11.1 3.2 L 6.8 3.2 C 5.3 3.2 4.1 4.3 4.1 5.8 L 4.1 39.1 C 4.1 40.5 5.3 41.7 6.8 41.7 L 29.3 41.7 C 30.8 41.7 32 40.5 32 39.1 L 32 5.8 C 32 4.3 30.8 3.2 29.3 3.2 Z" fill="#999999"/>
					<path d="M 29.3 3.2 L 25.1 3.2 C 25.1 2.6 24.6 2.1 24 2.1 L 12.2 2.1 C 11.6 2.1 11.1 2.6 11.1 3.2 L 6.8 3.2 C 5.3 3.2 4.1 4.3 4.1 5.8 L 4.1 39.1 C 4.1 40.5 5.3 41.7 6.8 41.7 L 29.3 41.7 C 30.8 41.7 32 40.5 32 39.1 L 32 5.8 C 32 4.3 30.8 3.2 29.3 3.2 Z" fill="#989898"/>
					<path d="M 29.3 3.2 L 25.1 3.2 C 25.1 2.6 24.6 2.1 24 2.1 L 12.2 2.1 C 11.6 2.1 11.1 2.6 11.1 3.2 L 6.8 3.2 C 5.3 3.2 4.1 4.3 4.1 5.8 L 4.1 39.1 C 4.1 40.5 5.3 41.7 6.8 41.7 L 29.3 41.7 C 30.8 41.7 32 40.5 32 39.1 L 32 5.8 C 32 4.3 30.8 3.2 29.3 3.2 Z" fill="#979797"/>
					<path d="M 29.3 3.2 L 25.1 3.2 C 25.1 2.6 24.6 2.1 24 2.1 L 12.2 2.1 C 11.6 2.1 11.1 2.6 11.1 3.2 L 6.8 3.2 C 5.3 3.2 4.1 4.3 4.1 5.8 L 4.1 39.1 C 4.1 40.5 5.3 41.7 6.8 41.7 L 29.3 41.7 C 30.8 41.7 32 40.5 32 39.1 L 32 5.8 C 32 4.3 30.8 3.2 29.3 3.2 Z" fill="#969696"/>
					<path d="M 29.3 3.2 L 25.1 3.2 C 25 2.6 24.6 2.1 24 2.1 L 12.2 2.1 C 11.6 2.1 11.1 2.6 11.1 3.2 L 6.8 3.2 C 5.3 3.2 4.1 4.3 4.1 5.8 L 4.1 39.1 C 4.1 40.5 5.3 41.7 6.8 41.7 L 29.3 41.7 C 30.8 41.7 32 40.5 32 39.1 L 32 5.8 C 32 4.3 30.8 3.2 29.3 3.2 Z" fill="#959595"/>
					<path d="M 29.3 3.2 L 25.1 3.2 C 25 2.6 24.6 2.1 24 2.1 L 12.2 2.1 C 11.6 2.1 11.1 2.6 11.1 3.2 L 6.8 3.2 C 5.3 3.2 4.1 4.3 4.1 5.8 L 4.1 39.1 C 4.1 40.5 5.3 41.7 6.8 41.7 L 29.3 41.7 C 30.8 41.7 32 40.5 32 39.1 L 32 5.8 C 32 4.3 30.8 3.2 29.3 3.2 Z" fill="#949494"/>
					<path d="M 29.3 3.2 L 25.1 3.2 C 25 2.6 24.6 2.1 24 2.1 L 12.2 2.1 C 11.6 2.1 11.1 2.6 11.1 3.2 L 6.7 3.2 C 5.3 3.2 4.1 4.3 4.1 5.8 L 4.1 39.1 C 4.1 40.5 5.3 41.7 6.7 41.7 L 29.3 41.7 C 30.8 41.7 31.9 40.5 31.9 39.1 L 31.9 5.8 C 31.9 4.3 30.8 3.2 29.3 3.2 Z" fill="#939393"/>
					<path d="M 29.3 3.2 L 25 3.2 C 25 2.6 24.6 2.1 24 2.1 L 12.2 2.1 C 11.6 2.1 11.1 2.6 11.1 3.2 L 6.7 3.2 C 5.3 3.2 4.1 4.3 4.1 5.8 L 4.1 39 C 4.1 40.5 5.3 41.7 6.7 41.7 L 29.3 41.7 C 30.8 41.7 31.9 40.5 31.9 39 L 31.9 5.8 C 31.9 4.3 30.8 3.2 29.3 3.2 Z" fill="#929292"/>
					<path d="M 29.3 3.2 L 25 3.2 C 25 2.6 24.6 2.1 24 2.1 L 12.2 2.1 C 11.6 2.1 11.1 2.6 11.1 3.2 L 6.7 3.2 C 5.3 3.2 4.1 4.3 4.1 5.8 L 4.1 39 C 4.1 40.5 5.3 41.7 6.7 41.7 L 29.3 41.7 C 30.8 41.7 31.9 40.5 31.9 39 L 31.9 5.8 C 31.9 4.3 30.8 3.2 29.3 3.2 Z" fill="#919191"/>
					<path d="M 29.3 3.2 L 25 3.2 C 25 2.6 24.6 2.1 24 2.1 L 12.2 2.1 C 11.6 2.1 11.1 2.6 11.1 3.2 L 6.7 3.2 C 5.3 3.2 4.1 4.3 4.1 5.8 L 4.1 39 C 4.1 40.5 5.3 41.7 6.7 41.7 L 29.3 41.7 C 30.7 41.7 31.9 40.5 31.9 39 L 31.9 5.8 C 31.9 4.3 30.7 3.2 29.3 3.2 Z" fill="#909090"/>
					<path d="M 29.3 3.2 L 25 3.2 C 25 2.6 24.5 2.1 24 2.1 L 12.2 2.1 C 11.6 2.1 11.1 2.6 11.1 3.2 L 6.7 3.2 C 5.3 3.2 4.1 4.3 4.1 5.8 L 4.1 39 C 4.1 40.5 5.3 41.7 6.7 41.7 L 29.3 41.7 C 30.7 41.7 31.9 40.5 31.9 39 L 31.9 5.8 C 31.9 4.3 30.7 3.2 29.3 3.2 Z" fill="#8f8f8f"/>
					<path d="M 29.3 3.2 L 25 3.2 C 25 2.6 24.5 2.1 24 2.1 L 12.2 2.1 C 11.6 2.1 11.1 2.6 11.1 3.2 L 6.7 3.2 C 5.3 3.2 4.1 4.3 4.1 5.8 L 4.1 39 C 4.1 40.5 5.3 41.7 6.7 41.7 L 29.3 41.7 C 30.7 41.7 31.9 40.5 31.9 39 L 31.9 5.8 C 31.9 4.3 30.7 3.2 29.3 3.2 Z" fill="#8e8e8e"/>
					<path d="M 29.3 3.2 L 25 3.2 C 25 2.6 24.5 2.1 24 2.1 L 12.2 2.1 C 11.6 2.1 11.1 2.6 11.1 3.2 L 6.7 3.2 C 5.3 3.2 4.1 4.3 4.1 5.8 L 4.1 39 C 4.1 40.5 5.3 41.7 6.7 41.7 L 29.3 41.7 C 30.7 41.7 31.9 40.5 31.9 39 L 31.9 5.8 C 31.9 4.3 30.7 3.2 29.3 3.2 Z" fill="#8d8d8d"/>
					<path d="M 29.3 3.2 L 25 3.2 C 25 2.6 24.5 2.1 24 2.1 L 12.2 2.1 C 11.6 2.1 11.1 2.6 11.1 3.2 L 6.7 3.2 C 5.3 3.2 4.1 4.3 4.1 5.8 L 4.1 39 C 4.1 40.5 5.3 41.7 6.7 41.7 L 29.3 41.7 C 30.7 41.7 31.9 40.5 31.9 39 L 31.9 5.8 C 31.9 4.3 30.7 3.2 29.3 3.2 Z" fill="#8c8c8c"/>
					<path d="M 29.3 3.2 L 25 3.2 C 25 2.6 24.5 2.1 23.9 2.1 L 12.2 2.1 C 11.6 2.1 11.1 2.6 11.1 3.2 L 6.7 3.2 C 5.3 3.2 4.1 4.3 4.1 5.8 L 4.1 39 C 4.1 40.5 5.3 41.7 6.7 41.7 L 29.3 41.7 C 30.7 41.7 31.9 40.5 31.9 39 L 31.9 5.8 C 31.9 4.3 30.7 3.2 29.3 3.2 Z" fill="#8b8b8b"/>
					<path d="M 29.3 3.2 L 25 3.2 C 25 2.6 24.5 2.1 23.9 2.1 L 12.2 2.1 C 11.6 2.1 11.1 2.6 11.1 3.2 L 6.7 3.2 C 5.2 3.2 4.1 4.3 4.1 5.8 L 4.1 39 C 4.1 40.5 5.2 41.7 6.7 41.7 L 29.3 41.7 C 30.7 41.7 31.9 40.5 31.9 39 L 31.9 5.8 C 31.9 4.3 30.7 3.2 29.3 3.2 Z" fill="#8a8a8a"/>
					<path d="M 29.3 3.2 L 25 3.2 C 25 2.6 24.5 2.1 23.9 2.1 L 12.2 2.1 C 11.6 2.1 11.1 2.6 11.1 3.2 L 6.7 3.2 C 5.2 3.2 4.1 4.3 4.1 5.8 L 4.1 39 C 4.1 40.5 5.2 41.7 6.7 41.7 L 29.3 41.7 C 30.7 41.7 31.9 40.5 31.9 39 L 31.9 5.8 C 31.9 4.3 30.7 3.2 29.3 3.2 Z" fill="#898989"/>
					<path d="M 29.3 3.2 L 25 3.2 C 25 2.6 24.5 2.1 23.9 2.1 L 12.2 2.1 C 11.6 2.1 11.1 2.6 11.1 3.2 L 6.7 3.2 C 5.2 3.2 4.1 4.3 4.1 5.8 L 4.1 39 C 4.1 40.5 5.2 41.7 6.7 41.7 L 29.3 41.7 C 30.7 41.7 31.9 40.5 31.9 39 L 31.9 5.8 C 31.9 4.3 30.7 3.2 29.3 3.2 Z" fill="#888888"/>
					<path d="M 29.3 3.2 L 25 3.2 C 25 2.6 24.5 2.1 23.9 2.1 L 12.1 2.1 C 11.6 2.1 11.1 2.6 11.1 3.2 L 6.7 3.2 C 5.2 3.2 4 4.3 4 5.8 L 4 39 C 4 40.5 5.2 41.7 6.7 41.7 L 29.3 41.7 C 30.7 41.7 31.9 40.5 31.9 39 L 31.9 5.8 C 31.9 4.3 30.7 3.2 29.3 3.2 Z" fill="#878787"/>
				</g>
				<path d="M 31.9 39 C 31.9 40.5 30.7 41.7 29.2 41.7 L 6.7 41.7 C 5.2 41.7 4 40.5 4 39 L 4 5.7 C 4 4.3 5.2 3.1 6.7 3.1 L 29.2 3.1 C 30.7 3.1 31.9 4.3 31.9 5.7 L 31.9 39 Z" fill="url(#gradient1)"/>
				<path d="M 30.3 39.4 L 5.8 39.4 L 5.8 5.7 L 30.3 5.7 L 30.3 39.4 Z" fill="#b3b3b3"/>
				<path d="M 30.1 39.2 L 5.8 39.2 L 5.8 5.5 L 30.1 5.5 L 30.1 39.2 Z" fill="#ffffff"/>
				<g>
					<path d="M 6.9 39.6 C 13.6 39.1 30.4 39.2 30.4 39.2 L 30.4 5.5 L 6.1 5.5 C 6.1 5.5 5.1 30 6.9 39.6 Z" fill="#ffffff"/>
					<path d="M 6.9 39.6 C 13.6 39.1 30.4 39.2 30.4 39.2 L 30.4 5.5 L 6.1 5.5 C 6.1 5.5 5.1 30.1 6.9 39.6 Z" fill="#ffffff"/>
					<path d="M 6.9 39.6 C 13.7 39.1 30.4 39.2 30.4 39.2 L 30.4 5.5 L 6.1 5.5 C 6.1 5.5 5.1 30.1 6.9 39.6 Z" fill="#fefefe"/>
					<path d="M 6.9 39.6 C 13.7 39.1 30.4 39.2 30.4 39.2 L 30.4 5.5 L 6.1 5.5 C 6.1 5.5 5.1 30.1 6.9 39.6 Z" fill="#fcfcfc"/>
					<path d="M 6.9 39.6 C 13.7 39.1 30.4 39.2 30.4 39.2 L 30.4 5.5 L 6.1 5.5 C 6.1 5.5 5.1 30.1 6.9 39.6 Z" fill="#fcfcfc"/>
					<path d="M 6.9 39.6 C 13.7 39.1 30.4 39.2 30.4 39.2 L 30.4 5.5 L 6.1 5.5 C 6.1 5.5 5.1 30.2 6.9 39.6 Z" fill="#fbfbfb"/>
					<path d="M 6.9 39.5 C 13.7 39.1 30.4 39.2 30.4 39.2 L 30.4 5.5 L 6.1 5.5 C 6.1 5.5 5.1 30.2 6.9 39.5 Z" fill="#fafafa"/>
					<path d="M 6.9 39.5 C 13.8 39.1 30.4 39.2 30.4 39.2 L 30.4 5.5 L 6.1 5.5 C 6.1 5.5 5.1 30.2 6.9 39.5 Z" fill="#f9f9f9"/>
					<path d="M 6.9 39.5 C 13.8 39.1 30.4 39.2 30.4 39.2 L 30.4 5.5 L 6.1 5.5 C 6.1 5.5 5.1 30.2 6.9 39.5 Z" fill="#f8f8f8"/>
					<path d="M 6.9 39.5 C 13.8 39.1 30.4 39.2 30.4 39.2 L 30.4 5.5 L 6.2 5.5 C 6.2 5.5 5.1 30.3 6.9 39.5 Z" fill="#f7f7f7"/>
					<path d="M 6.9 39.5 C 13.8 39.1 30.4 39.2 30.4 39.2 L 30.4 5.5 L 6.2 5.5 C 6.2 5.5 5.1 30.3 6.9 39.5 Z" fill="#f6f6f6"/>
					<path d="M 6.9 39.5 C 13.8 39.1 30.4 39.2 30.4 39.2 L 30.4 5.5 L 6.2 5.5 C 6.2 5.5 5.1 30.3 6.9 39.5 Z" fill="#f5f5f5"/>
					<path d="M 6.9 39.4 C 13.9 39.1 30.4 39.2 30.4 39.2 L 30.4 5.5 L 6.2 5.5 C 6.2 5.5 5.1 30.3 6.9 39.4 Z" fill="#f4f4f4"/>
					<path d="M 6.9 39.4 C 13.9 39.1 30.4 39.2 30.4 39.2 L 30.4 5.5 L 6.2 5.5 C 6.2 5.5 5.1 30.4 6.9 39.4 Z" fill="#f3f3f3"/>
					<path d="M 6.9 39.4 C 13.9 39.1 30.4 39.2 30.4 39.2 L 30.4 5.5 L 6.2 5.5 C 6.2 5.5 5.1 30.4 6.9 39.4 Z" fill="#f2f2f2"/>
					<path d="M 6.9 39.4 C 13.9 39.1 30.4 39.2 30.4 39.2 L 30.4 5.5 L 6.2 5.5 C 6.2 5.5 5.1 30.4 6.9 39.4 Z" fill="#f1f1f1"/>
					<path d="M 6.9 39.4 C 13.9 39.1 30.4 39.2 30.4 39.2 L 30.4 5.5 L 6.2 5.5 C 6.2 5.5 5.1 30.4 6.9 39.4 Z" fill="#f0f0f0"/>
					<path d="M 7 39.4 C 14 39.1 30.4 39.2 30.4 39.2 L 30.4 5.5 L 6.2 5.5 C 6.2 5.5 5.1 30.5 7 39.4 Z" fill="#efefef"/>
					<path d="M 7 39.3 C 14 39.1 30.4 39.2 30.4 39.2 L 30.4 5.5 L 6.2 5.5 C 6.2 5.5 5.1 30.5 7 39.3 Z" fill="#eeeeee"/>
					<path d="M 7 39.3 C 14 39.1 30.4 39.2 30.4 39.2 L 30.4 5.5 L 6.2 5.5 C 6.2 5.5 5.1 30.5 7 39.3 Z" fill="#ededed"/>
					<path d="M 7 39.3 C 14 39.1 30.4 39.2 30.4 39.2 L 30.4 5.5 L 6.2 5.5 C 6.2 5.5 5.1 30.6 7 39.3 Z" fill="#ececec"/>
					<path d="M 7 39.3 C 14 39.1 30.4 39.2 30.4 39.2 L 30.4 5.5 L 6.2 5.5 C 6.2 5.5 5.1 30.6 7 39.3 Z" fill="#ebebeb"/>
					<path d="M 7 39.3 C 14 39.1 30.4 39.2 30.4 39.2 L 30.4 5.5 L 6.2 5.5 C 6.2 5.5 5.1 30.6 7 39.3 Z" fill="#eaeaea"/>
					<path d="M 7 39.2 C 14.1 39.1 30.4 39.2 30.4 39.2 L 30.4 5.5 L 6.2 5.5 C 6.2 5.5 5.1 30.6 7 39.2 Z" fill="#e9e9e9"/>
					<path d="M 7 39.2 C 14.1 39.1 30.4 39.2 30.4 39.2 L 30.4 5.5 L 6.2 5.5 C 6.2 5.5 5.1 30.7 7 39.2 Z" fill="#e8e8e8"/>
					<path d="M 7 39.2 C 14.1 39.1 30.4 39.2 30.4 39.2 L 30.4 5.5 L 6.2 5.5 C 6.2 5.5 5.1 30.7 7 39.2 Z" fill="#e7e7e7"/>
					<path d="M 7 39.2 C 14.1 39.1 30.4 39.2 30.4 39.2 L 30.4 5.5 L 6.2 5.5 C 6.2 5.5 5.1 30.7 7 39.2 Z" fill="#e6e6e6"/>
					<path d="M 7 39.2 C 14.1 39.1 30.4 39.2 30.4 39.2 L 30.4 5.5 L 6.2 5.5 C 6.2 5.5 5 30.7 7 39.2 Z" fill="#e5e5e5"/>
					<path d="M 7 39.2 C 14.2 39.1 30.4 39.2 30.4 39.2 L 30.4 5.5 L 6.2 5.5 C 6.2 5.5 5 30.8 7 39.2 Z" fill="#e4e4e4"/>
					<path d="M 7 39.1 C 14.2 39.1 30.4 39.2 30.4 39.2 L 30.4 5.5 L 6.2 5.5 C 6.2 5.5 5 30.8 7 39.1 Z" fill="#e3e3e3"/>
					<path d="M 7 39.1 C 14.2 39.1 30.4 39.2 30.4 39.2 L 30.4 5.5 L 6.2 5.5 C 6.2 5.5 5 30.8 7 39.1 Z" fill="#e2e2e2"/>
					<path d="M 7 39.1 C 14.2 39.1 30.4 39.2 30.4 39.2 L 30.4 5.5 L 6.2 5.5 C 6.2 5.5 5 30.8 7 39.1 Z" fill="#e1e1e1"/>
					<path d="M 7 39.1 C 14.2 39.1 30.4 39.2 30.4 39.2 L 30.4 5.5 L 6.2 5.5 C 6.2 5.5 5 30.9 7 39.1 Z" fill="#e0e0e0"/>
					<path d="M 7 39.1 C 14.3 39.1 30.4 39.2 30.4 39.2 L 30.4 5.5 L 6.2 5.5 C 6.2 5.5 5 30.9 7 39.1 Z" fill="#dfdfdf"/>
					<path d="M 7 39.1 C 14.3 39.1 30.4 39.2 30.4 39.2 L 30.4 5.5 L 6.2 5.5 C 6.2 5.5 5 30.9 7 39.1 Z" fill="#dedede"/>
					<path d="M 7 39 C 14.3 39.1 30.4 39.2 30.4 39.2 L 30.4 5.5 L 6.2 5.5 C 6.2 5.5 5 30.9 7 39 Z" fill="#dddddd"/>
					<path d="M 7.1 39 C 14.3 39.1 30.4 39.2 30.4 39.2 L 30.4 5.5 L 6.2 5.5 C 6.2 5.5 5 31 7.1 39 Z" fill="#dcdcdc"/>
					<path d="M 7.1 39 C 14.3 39.1 30.3 39.2 30.3 39.2 L 30.3 5.5 L 6.2 5.5 C 6.2 5.5 5 31 7.1 39 Z" fill="#dbdbdb"/>
					<path d="M 7.1 39 C 14.3 39.1 30.3 39.2 30.3 39.2 L 30.3 5.5 L 6.2 5.5 C 6.2 5.5 5 31 7.1 39 Z" fill="#dadada"/>
					<path d="M 7.1 39 C 14.4 39.1 30.3 39.2 30.3 39.2 L 30.3 5.5 L 6.2 5.5 C 6.2 5.5 5 31 7.1 39 Z" fill="#d9d9d9"/>
					<path d="M 7.1 39 C 14.4 39.1 30.3 39.2 30.3 39.2 L 30.3 5.5 L 6.2 5.5 C 6.2 5.5 5 31.1 7.1 39 Z" fill="#d8d8d8"/>
					<path d="M 7.1 38.9 C 14.4 39.1 30.3 39.2 30.3 39.2 L 30.3 5.5 L 6.2 5.5 C 6.2 5.5 5 31.1 7.1 38.9 Z" fill="#d7d7d7"/>
					<path d="M 7.1 38.9 C 14.4 39.1 30.3 39.2 30.3 39.2 L 30.3 5.5 L 6.2 5.5 C 6.2 5.5 5 31.1 7.1 38.9 Z" fill="#d6d6d6"/>
					<path d="M 7.1 38.9 C 14.4 39.1 30.3 39.2 30.3 39.2 L 30.3 5.5 L 6.2 5.5 C 6.2 5.5 5 31.1 7.1 38.9 Z" fill="#d5d5d5"/>
					<path d="M 7.1 38.9 C 14.5 39.1 30.3 39.2 30.3 39.2 L 30.3 5.5 L 6.2 5.5 C 6.2 5.5 5 31.2 7.1 38.9 Z" fill="#d4d4d4"/>
					<path d="M 7.1 38.9 C 14.5 39.1 30.3 39.2 30.3 39.2 L 30.3 5.5 L 6.2 5.5 C 6.2 5.5 5 31.2 7.1 38.9 Z" fill="#d3d3d3"/>
					<path d="M 7.1 38.9 C 14.5 39.1 30.3 39.2 30.3 39.2 L 30.3 5.5 L 6.2 5.5 C 6.2 5.5 5 31.2 7.1 38.9 Z" fill="#d2d2d2"/>
					<path d="M 7.1 38.8 C 14.5 39.1 30.3 39.2 30.3 39.2 L 30.3 5.5 L 6.2 5.5 C 6.2 5.5 5 31.2 7.1 38.8 Z" fill="#d1d1d1"/>
					<path d="M 7.1 38.8 C 14.5 39.1 30.3 39.2 30.3 39.2 L 30.3 5.5 L 6.2 5.5 C 6.2 5.5 5 31.3 7.1 38.8 Z" fill="#d0d0d0"/>
					<path d="M 7.1 38.8 C 14.6 39.1 30.3 39.2 30.3 39.2 L 30.3 5.5 L 6.2 5.5 C 6.2 5.5 5 31.3 7.1 38.8 Z" fill="#cfcfcf"/>
					<path d="M 7.1 38.8 C 14.6 39.1 30.3 39.2 30.3 39.2 L 30.3 5.5 L 6.2 5.5 C 6.2 5.5 5 31.3 7.1 38.8 Z" fill="#cecece"/>
					<path d="M 7.1 38.8 C 14.6 39.1 30.3 39.2 30.3 39.2 L 30.3 5.5 L 6.2 5.5 C 6.2 5.5 5 31.3 7.1 38.8 Z" fill="#cdcdcd"/>
					<path d="M 7.1 38.8 C 14.6 39.1 30.3 39.2 30.3 39.2 L 30.3 5.5 L 6.2 5.5 C 6.2 5.5 5 31.4 7.1 38.8 Z" fill="#cccccc"/>
					<path d="M 7.1 38.7 C 14.6 39.1 30.3 39.2 30.3 39.2 L 30.3 5.5 L 6.2 5.5 C 6.2 5.5 5 31.4 7.1 38.7 Z" fill="#cbcbcb"/>
					<path d="M 7.1 38.7 C 14.6 39.1 30.3 39.2 30.3 39.2 L 30.3 5.5 L 6.2 5.5 C 6.2 5.5 5 31.4 7.1 38.7 Z" fill="#cacaca"/>
					<path d="M 7.2 38.7 C 14.7 39.1 30.3 39.2 30.3 39.2 L 30.3 5.5 L 6.2 5.5 C 6.2 5.5 4.9 31.4 7.2 38.7 Z" fill="#c9c9c9"/>
					<path d="M 7.2 38.7 C 14.7 39.1 30.3 39.2 30.3 39.2 L 30.3 5.5 L 6.2 5.5 C 6.2 5.5 4.9 31.5 7.2 38.7 Z" fill="#c8c8c8"/>
					<path d="M 7.2 38.7 C 14.7 39.1 30.3 39.2 30.3 39.2 L 30.3 5.5 L 6.2 5.5 C 6.2 5.5 4.9 31.5 7.2 38.7 Z" fill="#c7c7c7"/>
					<path d="M 7.2 38.7 C 14.7 39.1 30.3 39.2 30.3 39.2 L 30.3 5.5 L 6.2 5.5 C 6.2 5.5 4.9 31.5 7.2 38.7 Z" fill="#c6c6c6"/>
					<path d="M 7.2 38.6 C 14.7 39.1 30.3 39.2 30.3 39.2 L 30.3 5.5 L 6.2 5.5 C 6.2 5.5 4.9 31.6 7.2 38.6 Z" fill="#c5c5c5"/>
					<path d="M 7.2 38.6 C 14.8 39.1 30.3 39.2 30.3 39.2 L 30.3 5.5 L 6.2 5.5 C 6.2 5.5 4.9 31.6 7.2 38.6 Z" fill="#c4c4c4"/>
					<path d="M 7.2 38.6 C 14.8 39.1 30.3 39.2 30.3 39.2 L 30.3 5.5 L 6.3 5.5 C 6.3 5.5 4.9 31.6 7.2 38.6 Z" fill="#c3c3c3"/>
					<path d="M 7.2 38.6 C 14.8 39.1 30.3 39.2 30.3 39.2 L 30.3 5.5 L 6.3 5.5 C 6.3 5.5 4.9 31.6 7.2 38.6 Z" fill="#c2c2c2"/>
					<path d="M 7.2 38.6 C 14.8 39.1 30.3 39.2 30.3 39.2 L 30.3 5.5 L 6.3 5.5 C 6.3 5.5 4.9 31.7 7.2 38.6 Z" fill="#c1c1c1"/>
					<path d="M 7.2 38.5 C 14.8 39.1 30.3 39.2 30.3 39.2 L 30.3 5.5 L 6.3 5.5 C 6.3 5.5 4.9 31.7 7.2 38.5 Z" fill="#c0c0c0"/>
					<path d="M 7.2 38.5 C 14.9 39.1 30.3 39.2 30.3 39.2 L 30.3 5.5 L 6.3 5.5 C 6.3 5.5 4.9 31.7 7.2 38.5 Z" fill="#bfbfbf"/>
					<path d="M 7.2 38.5 C 14.9 39.1 30.3 39.2 30.3 39.2 L 30.3 5.5 L 6.3 5.5 C 6.3 5.5 4.9 31.7 7.2 38.5 Z" fill="#bebebe"/>
					<path d="M 7.2 38.5 C 14.9 39.1 30.3 39.2 30.3 39.2 L 30.3 5.5 L 6.3 5.5 C 6.3 5.5 4.9 31.8 7.2 38.5 Z" fill="#bdbdbd"/>
					<path d="M 7.2 38.5 C 14.9 39.1 30.3 39.2 30.3 39.2 L 30.3 5.5 L 6.3 5.5 C 6.3 5.5 4.9 31.8 7.2 38.5 Z" fill="#bcbcbc"/>
					<path d="M 7.2 38.5 C 14.9 39.1 30.3 39.2 30.3 39.2 L 30.3 5.5 L 6.3 5.5 C 6.3 5.5 4.9 31.8 7.2 38.5 Z" fill="#bbbbbb"/>
					<path d="M 7.2 38.4 C 14.9 39.1 30.3 39.2 30.3 39.2 L 30.3 5.5 L 6.3 5.5 C 6.3 5.5 4.9 31.8 7.2 38.4 Z" fill="#bababa"/>
					<path d="M 7.2 38.4 C 15 39.1 30.3 39.2 30.3 39.2 L 30.3 5.5 L 6.3 5.5 C 6.3 5.5 4.9 31.9 7.2 38.4 Z" fill="#b9b9b9"/>
					<path d="M 7.2 38.4 C 15 39.1 30.3 39.2 30.3 39.2 L 30.3 5.5 L 6.3 5.5 C 6.3 5.5 4.9 31.9 7.2 38.4 Z" fill="#b8b8b8"/>
					<path d="M 7.2 38.4 C 15 39.1 30.3 39.2 30.3 39.2 L 30.3 5.5 L 6.3 5.5 C 6.3 5.5 4.9 31.9 7.2 38.4 Z" fill="#b7b7b7"/>
					<path d="M 7.2 38.4 C 15 39.1 30.3 39.2 30.3 39.2 L 30.3 5.5 L 6.3 5.5 C 6.3 5.5 4.9 31.9 7.2 38.4 Z" fill="#b6b6b6"/>
					<path d="M 7.3 38.4 C 15 39.1 30.3 39.2 30.3 39.2 L 30.3 5.5 L 6.3 5.5 C 6.3 5.5 4.9 32 7.3 38.4 Z" fill="#b5b5b5"/>
					<path d="M 7.3 38.3 C 15.1 39.1 30.3 39.2 30.3 39.2 L 30.3 5.5 L 6.3 5.5 C 6.3 5.5 4.9 32 7.3 38.3 Z" fill="#b4b4b4"/>
					<path d="M 7.3 38.3 C 15.1 39.1 30.3 39.2 30.3 39.2 L 30.3 5.5 L 6.3 5.5 C 6.3 5.5 4.9 32 7.3 38.3 Z" fill="#b3b3b3"/>
					<path d="M 7.3 38.3 C 15.1 39.1 30.3 39.2 30.3 39.2 L 30.3 5.5 L 6.3 5.5 C 6.3 5.5 4.9 32 7.3 38.3 Z" fill="#b2b2b2"/>
					<path d="M 7.3 38.3 C 15.1 39.1 30.3 39.2 30.3 39.2 L 30.3 5.5 L 6.3 5.5 C 6.3 5.5 4.9 32.1 7.3 38.3 Z" fill="#b1b1b1"/>
					<path d="M 7.3 38.3 C 15.1 39.1 30.2 39.2 30.2 39.2 L 30.2 5.5 L 6.3 5.5 C 6.3 5.5 4.9 32.1 7.3 38.3 Z" fill="#b0b0b0"/>
					<path d="M 7.3 38.3 C 15.2 39.1 30.2 39.2 30.2 39.2 L 30.2 5.5 L 6.3 5.5 C 6.3 5.5 4.9 32.1 7.3 38.3 Z" fill="#afafaf"/>
					<path d="M 7.3 38.2 C 15.2 39.1 30.2 39.2 30.2 39.2 L 30.2 5.5 L 6.3 5.5 C 6.3 5.5 4.9 32.1 7.3 38.2 Z" fill="#aeaeae"/>
					<path d="M 7.3 38.2 C 15.2 39.1 30.2 39.2 30.2 39.2 L 30.2 5.5 L 6.3 5.5 C 6.3 5.5 4.9 32.2 7.3 38.2 Z" fill="#adadad"/>
					<path d="M 7.3 38.2 C 15.2 39.1 30.2 39.2 30.2 39.2 L 30.2 5.5 L 6.3 5.5 C 6.3 5.5 4.8 32.2 7.3 38.2 Z" fill="#acacac"/>
					<path d="M 7.3 38.2 C 15.2 39.1 30.2 39.2 30.2 39.2 L 30.2 5.5 L 6.3 5.5 C 6.3 5.5 4.8 32.2 7.3 38.2 Z" fill="#ababab"/>
					<path d="M 7.3 38.2 C 15.2 39.1 30.2 39.2 30.2 39.2 L 30.2 5.5 L 6.3 5.5 C 6.3 5.5 4.8 32.2 7.3 38.2 Z" fill="#aaaaaa"/>
					<path d="M 7.3 38.2 C 15.3 39.1 30.2 39.2 30.2 39.2 L 30.2 5.5 L 6.3 5.5 C 6.3 5.5 4.8 32.3 7.3 38.2 Z" fill="#a9a9a9"/>
					<path d="M 7.3 38.1 C 15.3 39.1 30.2 39.2 30.2 39.2 L 30.2 5.5 L 6.3 5.5 C 6.3 5.5 4.8 32.3 7.3 38.1 Z" fill="#a8a8a8"/>
					<path d="M 7.3 38.1 C 15.3 39.1 30.2 39.2 30.2 39.2 L 30.2 5.5 L 6.3 5.5 C 6.3 5.5 4.8 32.3 7.3 38.1 Z" fill="#a7a7a7"/>
					<path d="M 7.3 38.1 C 15.3 39.1 30.2 39.2 30.2 39.2 L 30.2 5.5 L 6.3 5.5 C 6.3 5.5 4.8 32.3 7.3 38.1 Z" fill="#a6a6a6"/>
					<path d="M 7.3 38.1 C 15.3 39.1 30.2 39.2 30.2 39.2 L 30.2 5.5 L 6.3 5.5 C 6.3 5.5 4.8 32.4 7.3 38.1 Z" fill="#a5a5a5"/>
					<path d="M 7.3 38.1 C 15.4 39.1 30.2 39.2 30.2 39.2 L 30.2 5.5 L 6.3 5.5 C 6.3 5.5 4.8 32.4 7.3 38.1 Z" fill="#a4a4a4"/>
					<path d="M 7.3 38.1 C 15.4 39.2 30.2 39.2 30.2 39.2 L 30.2 5.5 L 6.3 5.5 C 6.3 5.5 4.8 32.4 7.3 38.1 Z" fill="#a3a3a3"/>
					<path d="M 7.4 38 C 15.4 39.2 30.2 39.2 30.2 39.2 L 30.2 5.5 L 6.3 5.5 C 6.3 5.5 4.8 32.4 7.4 38 Z" fill="#a2a2a2"/>
					<path d="M 7.4 38 C 15.4 39.2 30.2 39.2 30.2 39.2 L 30.2 5.5 L 6.3 5.5 C 6.3 5.5 4.8 32.5 7.4 38 Z" fill="#a1a1a1"/>
					<path d="M 7.4 38 C 15.4 39.2 30.2 39.2 30.2 39.2 L 30.2 5.5 L 6.3 5.5 C 6.3 5.5 4.8 32.5 7.4 38 Z" fill="#a0a0a0"/>
					<path d="M 7.4 38 C 15.5 39.2 30.2 39.2 30.2 39.2 L 30.2 5.5 L 6.3 5.5 C 6.3 5.5 4.8 32.5 7.4 38 Z" fill="#9f9f9f"/>
					<path d="M 7.4 38 C 15.5 39.2 30.2 39.2 30.2 39.2 L 30.2 5.5 L 6.3 5.5 C 6.3 5.5 4.8 32.6 7.4 38 Z" fill="#9e9e9e"/>
					<path d="M 7.4 37.9 C 15.5 39.2 30.2 39.2 30.2 39.2 L 30.2 5.5 L 6.3 5.5 C 6.3 5.5 4.8 32.6 7.4 37.9 Z" fill="#9d9d9d"/>
					<path d="M 7.4 37.9 C 15.5 39.2 30.2 39.2 30.2 39.2 L 30.2 5.5 L 6.3 5.5 C 6.3 5.5 4.8 32.6 7.4 37.9 Z" fill="#9c9c9c"/>
					<path d="M 7.4 37.9 C 15.5 39.2 30.2 39.2 30.2 39.2 L 30.2 5.5 L 6.3 5.5 C 6.3 5.5 4.8 32.6 7.4 37.9 Z" fill="#9b9b9b"/>
					<path d="M 7.4 37.9 C 15.6 39.2 30.2 39.2 30.2 39.2 L 30.2 5.5 L 6.3 5.5 C 6.3 5.5 4.8 32.7 7.4 37.9 Z" fill="#9a9a9a"/>
					<path d="M 7.4 37.9 C 15.6 39.2 30.2 39.2 30.2 39.2 L 30.2 5.5 L 6.3 5.5 C 6.3 5.5 4.8 32.7 7.4 37.9 Z" fill="#999999"/>
					<path d="M 7.4 37.9 C 15.6 39.2 30.2 39.2 30.2 39.2 L 30.2 5.5 L 6.3 5.5 C 6.3 5.5 4.8 32.7 7.4 37.9 Z" fill="#989898"/>
					<path d="M 7.4 37.8 C 15.6 39.2 30.2 39.2 30.2 39.2 L 30.2 5.5 L 6.3 5.5 C 6.3 5.5 4.8 32.7 7.4 37.8 Z" fill="#979797"/>
					<path d="M 7.4 37.8 C 15.6 39.2 30.2 39.2 30.2 39.2 L 30.2 5.5 L 6.3 5.5 C 6.3 5.5 4.8 32.8 7.4 37.8 Z" fill="#969696"/>
					<path d="M 7.4 37.8 C 15.6 39.2 30.2 39.2 30.2 39.2 L 30.2 5.5 L 6.3 5.5 C 6.3 5.5 4.8 32.8 7.4 37.8 Z" fill="#959595"/>
					<path d="M 7.4 37.8 C 15.7 39.2 30.2 39.2 30.2 39.2 L 30.2 5.5 L 6.3 5.5 C 6.3 5.5 4.8 32.8 7.4 37.8 Z" fill="#949494"/>
					<path d="M 7.4 37.8 C 15.7 39.2 30.2 39.2 30.2 39.2 L 30.2 5.5 L 6.3 5.5 C 6.3 5.5 4.8 32.8 7.4 37.8 Z" fill="#939393"/>
					<path d="M 7.4 37.8 C 15.7 39.2 30.2 39.2 30.2 39.2 L 30.2 5.5 L 6.3 5.5 C 6.3 5.5 4.8 32.9 7.4 37.8 Z" fill="#929292"/>
					<path d="M 7.4 37.7 C 15.7 39.2 30.2 39.2 30.2 39.2 L 30.2 5.5 L 6.3 5.5 C 6.3 5.5 4.8 32.9 7.4 37.7 Z" fill="#919191"/>
					<path d="M 7.4 37.7 C 15.7 39.2 30.2 39.2 30.2 39.2 L 30.2 5.5 L 6.4 5.5 C 6.4 5.5 4.7 32.9 7.4 37.7 Z" fill="#909090"/>
					<path d="M 7.5 37.7 C 15.8 39.2 30.2 39.2 30.2 39.2 L 30.2 5.5 L 6.4 5.5 C 6.4 5.5 4.7 32.9 7.5 37.7 Z" fill="#8f8f8f"/>
					<path d="M 7.5 37.7 C 15.8 39.2 30.2 39.2 30.2 39.2 L 30.2 5.5 L 6.4 5.5 C 6.4 5.5 4.7 33 7.5 37.7 Z" fill="#8e8e8e"/>
					<path d="M 7.5 37.7 C 15.8 39.2 30.2 39.2 30.2 39.2 L 30.2 5.5 L 6.4 5.5 C 6.4 5.5 4.7 33 7.5 37.7 Z" fill="#8d8d8d"/>
					<path d="M 7.5 37.7 C 15.8 39.2 30.2 39.2 30.2 39.2 L 30.2 5.5 L 6.4 5.5 C 6.4 5.5 4.7 33 7.5 37.7 Z" fill="#8c8c8c"/>
					<path d="M 7.5 37.6 C 15.8 39.2 30.2 39.2 30.2 39.2 L 30.2 5.5 L 6.4 5.5 C 6.4 5.5 4.7 33 7.5 37.6 Z" fill="#8b8b8b"/>
					<path d="M 7.5 37.6 C 15.9 39.2 30.2 39.2 30.2 39.2 L 30.2 5.5 L 6.4 5.5 C 6.4 5.5 4.7 33.1 7.5 37.6 Z" fill="#8a8a8a"/>
					<path d="M 7.5 37.6 C 15.9 39.2 30.2 39.2 30.2 39.2 L 30.2 5.5 L 6.4 5.5 C 6.4 5.5 4.7 33.1 7.5 37.6 Z" fill="#898989"/>
					<path d="M 7.5 37.6 C 15.9 39.2 30.2 39.2 30.2 39.2 L 30.2 5.5 L 6.4 5.5 C 6.4 5.5 4.7 33.1 7.5 37.6 Z" fill="#888888"/>
					<path d="M 7.5 37.6 C 15.9 39.2 30.2 39.2 30.2 39.2 L 30.2 5.5 L 6.4 5.5 C 6.4 5.5 4.7 33.1 7.5 37.6 Z" fill="#878787"/>
					<path d="M 7.5 37.6 C 15.9 39.2 30.2 39.2 30.2 39.2 L 30.2 5.5 L 6.4 5.5 C 6.4 5.5 4.7 33.2 7.5 37.6 Z" fill="#868686"/>
					<path d="M 7.5 37.5 C 15.9 39.2 30.1 39.2 30.1 39.2 L 30.1 5.5 L 6.4 5.5 C 6.4 5.5 4.7 33.2 7.5 37.5 Z" fill="#858585"/>
					<path d="M 7.5 37.5 C 16 39.2 30.1 39.2 30.1 39.2 L 30.1 5.5 L 6.4 5.5 C 6.4 5.5 4.7 33.2 7.5 37.5 Z" fill="#848484"/>
					<path d="M 7.5 37.5 C 16 39.2 30.1 39.2 30.1 39.2 L 30.1 5.5 L 6.4 5.5 C 6.4 5.5 4.7 33.2 7.5 37.5 Z" fill="#838383"/>
					<path d="M 7.5 37.5 C 16 39.2 30.1 39.2 30.1 39.2 L 30.1 5.5 L 6.4 5.5 C 6.4 5.5 4.7 33.3 7.5 37.5 Z" fill="#828282"/>
					<path d="M 7.5 37.5 C 16 39.2 30.1 39.2 30.1 39.2 L 30.1 5.5 L 6.4 5.5 C 6.4 5.5 4.7 33.3 7.5 37.5 Z" fill="#818181"/>
					<path d="M 7.5 37.5 C 16 39.2 30.1 39.2 30.1 39.2 L 30.1 5.5 L 6.4 5.5 C 6.4 5.5 4.7 33.3 7.5 37.5 Z" fill="#808080"/>
				</g>
				<path d="M 7.1 37.7 C 12.8 39.6 30.1 39.2 30.1 39.2 L 30.1 5.5 L 5.8 5.5 C 5.8 5.5 5.3 31.2 7.1 37.7 Z" fill="url(#gradient2)"/>
				<path d="M 23.9 2.1 L 12.1 2.1 C 11.5 2.1 10.9 2.1 10.9 4.4 C 10.9 6.4 11.5 6.5 12.1 6.6 L 15.8 6.6 C 15.9 6.3 16.4 6.1 17 6.1 L 18.9 6.1 C 19.6 6.1 20.1 6.3 20.2 6.6 L 23.9 6.6 C 24.4 6.5 25.1 6.5 25.1 4.4 C 25.1 2.1 24.5 2.1 23.9 2.1 Z" fill="#787878"/>
				<path d="M 23.9 2 L 12.1 2 C 11.5 2 11 2.5 11 3.1 L 11 5.5 C 11 6.1 11.5 6.6 12.1 6.6 L 15.8 6.6 C 15.9 6 16.4 5.5 17 5.5 L 18.9 5.5 C 19.6 5.5 20.1 6 20.2 6.6 L 23.9 6.6 C 24.5 6.6 25 6.1 25 5.5 L 25 3.1 C 25 2.5 24.5 2 23.9 2 Z" fill="url(#gradient3)"/>
			</g>
			<g id="text">
				<path d="M 13.1 16.6 L 11 16.6 L 11 14.5 L 13.1 14.5 L 13.1 16.6 Z" stroke="#221e1f" stroke-width="1" fill="#ffffff"/>
				<path d="M 13.1 19.6 L 11 19.6 L 11 17.4 L 13.1 17.4 L 13.1 19.6 Z" stroke="#221e1f" stroke-width="1" fill="#ffffff"/>
				<path d="M 13.1 22.5 L 11 22.5 L 11 20.3 L 13.1 20.3 L 13.1 22.5 Z" stroke="#221e1f" stroke-width="1" fill="#ffffff"/>
				<path d="M 13.1 30.2 L 11 30.2 L 11 28 L 13.1 28 L 13.1 30.2 Z" stroke="#221e1f" stroke-width="1" fill="#ffffff"/>
				<path d="M 13.1 33.1 L 11 33.1 L 11 31 L 13.1 31 L 13.1 33.1 Z" stroke="#221e1f" stroke-width="1" fill="#ffffff"/>
				<path d="M 13.1 36.1 L 11 36.1 L 11 33.9 L 13.1 33.9 L 13.1 36.1 Z" stroke="#221e1f" stroke-width="1" fill="#ffffff"/>
				<path d="M 23.1 12.6 C 23.1 12.7 23 12.9 22.9 12.9 L 8.6 12.9 C 8.5 12.9 8.4 12.7 8.4 12.6 L 8.4 12.6 C 8.4 12.5 8.5 12.4 8.6 12.4 L 22.9 12.4 C 23 12.4 23.1 12.5 23.1 12.6 L 23.1 12.6 Z" fill="#221e1f"/>
				<path d="M 28.1 11.5 C 28.1 11.7 27.9 11.8 27.8 11.8 L 8.6 11.8 C 8.4 11.8 8.3 11.7 8.3 11.5 L 8.3 11.5 C 8.3 11.4 8.4 11.3 8.6 11.3 L 27.8 11.3 C 27.9 11.3 28.1 11.4 28.1 11.5 L 28.1 11.5 Z" fill="#221e1f"/>
				<path d="M 23.1 26.1 C 23.1 26.3 23 26.4 22.9 26.4 L 8.6 26.4 C 8.5 26.4 8.4 26.3 8.4 26.1 L 8.4 26.1 C 8.4 26 8.5 25.9 8.6 25.9 L 22.9 25.9 C 23 25.9 23.1 26 23.1 26.1 L 23.1 26.1 Z" fill="#221e1f"/>
				<path d="M 28.1 25 C 28.1 25.2 27.9 25.3 27.8 25.3 L 8.6 25.3 C 8.4 25.3 8.3 25.2 8.3 25 L 8.3 25 C 8.3 24.9 8.4 24.8 8.6 24.8 L 27.8 24.8 C 27.9 24.8 28.1 24.9 28.1 25 L 28.1 25 Z" fill="#221e1f"/>
				<path d="M 28.1 10.4 C 28.1 10.6 27.9 10.7 27.8 10.7 L 8.6 10.7 C 8.4 10.7 8.3 10.6 8.3 10.4 L 8.3 10.4 C 8.3 10.3 8.4 10.2 8.6 10.2 L 27.8 10.2 C 27.9 10.2 28.1 10.3 28.1 10.4 L 28.1 10.4 Z" fill="#221e1f"/>
				<path d="M 24.1 15.6 C 24.1 15.7 24 15.8 23.9 15.8 L 14.5 15.8 C 14.4 15.8 14.3 15.7 14.3 15.6 L 14.3 15.6 C 14.3 15.4 14.4 15.3 14.5 15.3 L 23.9 15.3 C 24 15.3 24.1 15.4 24.1 15.6 L 24.1 15.6 Z" fill="#221e1f"/>
				<path d="M 24.1 18.5 C 24.1 18.7 24 18.8 23.9 18.8 L 14.5 18.8 C 14.4 18.8 14.3 18.7 14.3 18.5 L 14.3 18.5 C 14.3 18.4 14.4 18.3 14.5 18.3 L 23.9 18.3 C 24 18.3 24.1 18.4 24.1 18.5 L 24.1 18.5 Z" fill="#221e1f"/>
				<path d="M 24.1 21.4 C 24.1 21.6 24 21.7 23.9 21.7 L 14.5 21.7 C 14.4 21.7 14.3 21.6 14.3 21.4 L 14.3 21.4 C 14.3 21.3 14.4 21.2 14.5 21.2 L 23.9 21.2 C 24 21.2 24.1 21.3 24.1 21.4 L 24.1 21.4 Z" fill="#221e1f"/>
				<path d="M 24.1 29.1 C 24.1 29.3 24 29.4 23.9 29.4 L 14.5 29.4 C 14.4 29.4 14.3 29.3 14.3 29.1 L 14.3 29.1 C 14.3 29 14.4 28.9 14.5 28.9 L 23.9 28.9 C 24 28.9 24.1 29 24.1 29.1 L 24.1 29.1 Z" fill="#221e1f"/>
				<path d="M 24.1 32.1 C 24.1 32.2 24 32.3 23.9 32.3 L 14.5 32.3 C 14.4 32.3 14.3 32.2 14.3 32.1 L 14.3 32.1 C 14.3 31.9 14.4 31.8 14.5 31.8 L 23.9 31.8 C 24 31.8 24.1 31.9 24.1 32.1 L 24.1 32.1 Z" fill="#221e1f"/>
				<path d="M 24.1 35 C 24.1 35.1 24 35.2 23.9 35.2 L 14.5 35.2 C 14.4 35.2 14.3 35.1 14.3 35 L 14.3 35 C 14.3 34.9 14.4 34.7 14.5 34.7 L 23.9 34.7 C 24 34.7 24.1 34.9 24.1 35 L 24.1 35 Z" fill="#221e1f"/>
			</g>
			<g id="pen">
				<path d="M 31.3 27.4 C 29.2 28.3 25 15.4 24.7 13.7 C 24.7 13.7 33.1 26.6 31.3 27.4 Z" fill="url(#gradient4)"/>
				<path d="M 28.7 20.7 C 29 20.5 29.2 20.3 29.4 20.1 C 29.7 19.9 29.9 19.7 30.2 19.6 C 29.8 18.9 28.8 16.9 27.2 15.4 C 27 15.6 26.7 15.8 26.4 15.9 C 26.2 16.1 25.9 16.3 25.7 16.6 C 26.6 18.5 28.2 20.2 28.7 20.7 Z" fill="url(#gradient5)"/>
				<path d="M 28.7 20.7 C 29 20.5 29.2 20.3 29.4 20.1 C 29.7 19.9 29.9 19.7 30.2 19.6 C 29.8 18.9 28.8 16.9 27.2 15.4 C 27 15.6 26.7 15.8 26.4 15.9 C 26.2 16.1 25.9 16.3 25.7 16.6 C 26.6 18.5 28.2 20.2 28.7 20.7 Z" fill="url(#gradient6)"/>
				<path d="M 28.9 20.8 L 37.5 32.7 C 37.5 32.7 37.6 32.8 37.6 32.8 C 37.8 33 38.2 33 38.5 32.7 C 38.5 32.7 38.6 32.7 38.6 32.7 C 38.9 32.4 39.1 32.1 38.9 31.7 C 38.9 31.7 38.9 31.7 38.9 31.7 L 30.3 19.8 C 30.3 19.8 30.2 19.7 30.2 19.6 C 30.2 19.6 30.2 19.6 30.2 19.6 L 30.2 19.6 C 29.9 19.7 29.7 19.9 29.4 20.1 C 29.2 20.3 29 20.5 28.7 20.7 C 28.8 20.8 28.9 20.8 28.9 20.8 Z" fill="url(#gradient7)"/>
				<path d="M 38.2 32.2 C 37.8 32.4 37.5 32.7 37.6 32.8 C 37.8 33 38.2 33 38.5 32.7 C 38.5 32.7 38.6 32.7 38.6 32.7 C 38.9 32.4 39.1 32.1 38.9 31.7 C 38.8 31.7 38.5 31.9 38.2 32.2 Z" fill="url(#gradient8)"/>
				<g>
					<path d="M 34.8 28.3 C 33.4 26.3 32.4 24.6 32.8 24.3 C 33.3 24 34.5 25.4 36.1 27.4 C 37.6 29.3 38.9 30.8 38 31.5 C 37.1 32.1 36.1 30.4 34.8 28.3 Z" fill="#ffffff"/>
					<path d="M 34.8 28.3 C 33.4 26.3 32.4 24.6 32.8 24.3 C 33.3 24 34.5 25.4 36.1 27.4 C 37.6 29.3 38.9 30.8 38 31.5 C 37.1 32.1 36.1 30.4 34.8 28.3 Z" fill="#fdfdfd"/>
					<path d="M 34.8 28.3 C 33.5 26.3 32.4 24.6 32.8 24.3 C 33.3 24 34.5 25.4 36.1 27.4 C 37.6 29.3 38.9 30.8 38 31.5 C 37.1 32.1 36.1 30.4 34.8 28.3 Z" fill="#fbfbfb"/>
					<path d="M 34.8 28.3 C 33.5 26.3 32.4 24.6 32.8 24.3 C 33.3 24 34.5 25.4 36.1 27.4 C 37.6 29.3 38.9 30.8 38 31.5 C 37.1 32.1 36.1 30.4 34.8 28.3 Z" fill="#fafafa"/>
					<path d="M 34.8 28.3 C 33.5 26.3 32.4 24.6 32.8 24.3 C 33.3 24 34.5 25.4 36.1 27.4 C 37.6 29.3 38.8 30.8 38 31.4 C 37.1 32.1 36.1 30.4 34.8 28.3 Z" fill="#f8f8f8"/>
					<path d="M 34.8 28.3 C 33.5 26.3 32.4 24.6 32.8 24.3 C 33.3 24 34.5 25.4 36.1 27.4 C 37.6 29.3 38.8 30.8 38 31.4 C 37.1 32.1 36.1 30.4 34.8 28.3 Z" fill="#f7f7f7"/>
					<path d="M 34.8 28.3 C 33.5 26.3 32.5 24.6 32.8 24.3 C 33.3 24 34.6 25.4 36.1 27.4 C 37.6 29.3 38.8 30.8 38 31.4 C 37.1 32.1 36.1 30.4 34.8 28.3 Z" fill="#f5f5f5"/>
					<path d="M 34.8 28.3 C 33.5 26.3 32.5 24.6 32.8 24.3 C 33.3 24 34.6 25.4 36.1 27.4 C 37.6 29.3 38.8 30.8 38 31.4 C 37.1 32.1 36.1 30.4 34.8 28.3 Z" fill="#f4f4f4"/>
					<path d="M 34.8 28.3 C 33.5 26.3 32.5 24.6 32.8 24.3 C 33.3 24 34.6 25.4 36.1 27.4 C 37.6 29.3 38.8 30.8 38 31.4 C 37.1 32.1 36.1 30.4 34.8 28.3 Z" fill="#f2f2f3"/>
					<path d="M 34.8 28.3 C 33.5 26.3 32.5 24.6 32.8 24.3 C 33.3 24 34.6 25.4 36.1 27.4 C 37.6 29.3 38.8 30.8 38 31.4 C 37.1 32.1 36.1 30.4 34.8 28.3 Z" fill="#f1f1f1"/>
					<path d="M 34.8 28.3 C 33.5 26.3 32.5 24.6 32.8 24.3 C 33.3 24 34.6 25.4 36.1 27.4 C 37.6 29.3 38.8 30.8 38 31.4 C 37.1 32.1 36.1 30.4 34.8 28.3 Z" fill="#efeff0"/>
					<path d="M 34.8 28.3 C 33.5 26.3 32.5 24.6 32.8 24.3 C 33.3 24 34.6 25.4 36.1 27.4 C 37.6 29.3 38.8 30.8 38 31.4 C 37.1 32.1 36.1 30.4 34.8 28.3 Z" fill="#eeeeee"/>
					<path d="M 34.8 28.3 C 33.5 26.3 32.5 24.6 32.8 24.3 C 33.3 24 34.6 25.4 36.1 27.4 C 37.6 29.3 38.8 30.9 38 31.4 C 37.1 32.1 36.1 30.4 34.8 28.3 Z" fill="#eceded"/>
					<path d="M 34.8 28.3 C 33.5 26.3 32.5 24.6 32.9 24.3 C 33.3 24 34.6 25.4 36.1 27.4 C 37.6 29.3 38.8 30.9 38 31.4 C 37.1 32.1 36.1 30.4 34.8 28.3 Z" fill="#ebebeb"/>
					<path d="M 34.8 28.3 C 33.5 26.3 32.5 24.6 32.9 24.3 C 33.3 24 34.6 25.4 36.1 27.4 C 37.6 29.3 38.8 30.9 38 31.4 C 37.1 32.1 36.1 30.4 34.8 28.3 Z" fill="#e9eaea"/>
					<path d="M 34.8 28.3 C 33.5 26.3 32.5 24.6 32.9 24.3 C 33.3 24 34.6 25.4 36.1 27.4 C 37.6 29.3 38.8 30.9 38 31.4 C 37.1 32.1 36.1 30.3 34.8 28.3 Z" fill="#e8e8e9"/>
					<path d="M 34.8 28.3 C 33.5 26.3 32.5 24.6 32.9 24.3 C 33.3 24 34.6 25.4 36.1 27.4 C 37.6 29.3 38.7 30.9 38 31.4 C 37.1 32.1 36.1 30.3 34.8 28.3 Z" fill="#e6e7e7"/>
					<path d="M 34.8 28.3 C 33.5 26.3 32.5 24.6 32.9 24.3 C 33.3 24 34.6 25.4 36.1 27.4 C 37.6 29.3 38.7 30.9 38 31.4 C 37.1 32.1 36.1 30.3 34.8 28.3 Z" fill="#e5e5e6"/>
					<path d="M 34.8 28.3 C 33.5 26.3 32.5 24.6 32.9 24.3 C 33.3 24 34.6 25.4 36.1 27.4 C 37.6 29.3 38.7 30.9 38 31.4 C 37.1 32.1 36.1 30.3 34.8 28.3 Z" fill="#e3e4e4"/>
					<path d="M 34.8 28.3 C 33.5 26.3 32.5 24.6 32.9 24.4 C 33.3 24 34.6 25.5 36.1 27.4 C 37.6 29.3 38.7 30.9 38 31.4 C 37.1 32.1 36.1 30.3 34.8 28.3 Z" fill="#e2e2e3"/>
					<path d="M 34.8 28.3 C 33.5 26.3 32.5 24.6 32.9 24.4 C 33.3 24 34.6 25.5 36.1 27.4 C 37.6 29.3 38.7 30.9 38 31.4 C 37.1 32.1 36.1 30.3 34.8 28.3 Z" fill="#e0e1e2"/>
					<path d="M 34.8 28.3 C 33.5 26.3 32.5 24.6 32.9 24.4 C 33.3 24 34.6 25.5 36.1 27.4 C 37.6 29.3 38.7 30.9 38 31.4 C 37.1 32 36.1 30.3 34.8 28.3 Z" fill="#dfe0e0"/>
					<path d="M 34.8 28.3 C 33.5 26.3 32.5 24.6 32.9 24.4 C 33.3 24 34.6 25.5 36.1 27.4 C 37.6 29.3 38.7 30.9 38 31.4 C 37.1 32 36.1 30.3 34.8 28.3 Z" fill="#dddedf"/>
					<path d="M 34.8 28.3 C 33.5 26.3 32.5 24.6 32.9 24.4 C 33.3 24 34.6 25.5 36.1 27.4 C 37.6 29.3 38.7 30.9 38 31.4 C 37.1 32 36.1 30.3 34.8 28.3 Z" fill="#dcdddd"/>
					<path d="M 34.8 28.3 C 33.5 26.3 32.5 24.6 32.9 24.4 C 33.3 24.1 34.6 25.5 36.1 27.4 C 37.6 29.3 38.7 30.9 38 31.4 C 37.1 32 36.1 30.3 34.8 28.3 Z" fill="#dadbdc"/>
					<path d="M 34.8 28.3 C 33.5 26.3 32.5 24.6 32.9 24.4 C 33.3 24.1 34.6 25.5 36.1 27.4 C 37.6 29.3 38.7 30.9 38 31.4 C 37.1 32 36.1 30.3 34.8 28.3 Z" fill="#d9dada"/>
					<path d="M 34.8 28.3 C 33.5 26.3 32.5 24.6 32.9 24.4 C 33.3 24.1 34.6 25.5 36.1 27.4 C 37.6 29.3 38.7 30.9 38 31.4 C 37.1 32 36.1 30.3 34.8 28.3 Z" fill="#d8d8d9"/>
					<path d="M 34.8 28.3 C 33.5 26.3 32.5 24.6 32.9 24.4 C 33.3 24.1 34.6 25.5 36.1 27.4 C 37.6 29.3 38.7 30.9 38 31.4 C 37.1 32 36.1 30.3 34.8 28.3 Z" fill="#d6d7d8"/>
					<path d="M 34.8 28.3 C 33.5 26.3 32.5 24.6 32.9 24.4 C 33.3 24.1 34.6 25.5 36.1 27.4 C 37.6 29.3 38.7 30.9 38 31.4 C 37.1 32 36.1 30.3 34.8 28.3 Z" fill="#d5d5d6"/>
					<path d="M 34.8 28.3 C 33.5 26.3 32.5 24.6 32.9 24.4 C 33.3 24.1 34.6 25.5 36.1 27.4 C 37.6 29.3 38.6 30.9 38 31.4 C 37.1 32 36.1 30.3 34.8 28.3 Z" fill="#d3d4d5"/>
					<path d="M 34.8 28.3 C 33.5 26.3 32.5 24.6 32.9 24.4 C 33.3 24.1 34.6 25.5 36.1 27.4 C 37.5 29.3 38.6 30.9 38 31.4 C 37.1 32 36.1 30.3 34.8 28.3 Z" fill="#d2d2d3"/>
					<path d="M 34.8 28.3 C 33.5 26.3 32.5 24.6 32.9 24.4 C 33.3 24.1 34.6 25.5 36.1 27.4 C 37.5 29.3 38.6 30.9 38 31.4 C 37.1 32 36.1 30.3 34.8 28.3 Z" fill="#d0d1d2"/>
					<path d="M 34.8 28.3 C 33.5 26.3 32.5 24.6 32.9 24.4 C 33.3 24.1 34.6 25.5 36.1 27.4 C 37.5 29.3 38.6 30.9 38 31.4 C 37.1 32 36.1 30.3 34.8 28.3 Z" fill="#cfd0d0"/>
					<path d="M 34.8 28.3 C 33.5 26.3 32.5 24.6 32.9 24.4 C 33.3 24.1 34.6 25.5 36.1 27.4 C 37.5 29.3 38.6 30.9 38 31.4 C 37.1 32 36.1 30.3 34.8 28.3 Z" fill="#cdcecf"/>
					<path d="M 34.8 28.3 C 33.5 26.3 32.5 24.6 32.9 24.4 C 33.3 24.1 34.6 25.5 36.1 27.4 C 37.5 29.3 38.6 30.9 38 31.4 C 37.1 32 36.1 30.3 34.8 28.3 Z" fill="#cccdce"/>
					<path d="M 34.8 28.3 C 33.5 26.3 32.5 24.6 32.9 24.4 C 33.3 24.1 34.6 25.5 36.1 27.4 C 37.5 29.3 38.6 30.9 38 31.4 C 37.1 32 36.1 30.3 34.8 28.3 Z" fill="#cacbcc"/>
					<path d="M 34.8 28.3 C 33.5 26.3 32.5 24.6 32.9 24.4 C 33.3 24.1 34.6 25.5 36.1 27.4 C 37.5 29.3 38.6 30.9 38 31.4 C 37.1 32 36.1 30.3 34.8 28.3 Z" fill="#c9cacb"/>
					<path d="M 34.8 28.3 C 33.5 26.3 32.5 24.6 32.9 24.4 C 33.3 24.1 34.6 25.5 36.1 27.4 C 37.5 29.3 38.6 30.9 38 31.4 C 37.1 32 36.1 30.3 34.8 28.3 Z" fill="#c7c8c9"/>
					<path d="M 34.8 28.3 C 33.5 26.3 32.5 24.6 32.9 24.4 C 33.3 24.1 34.6 25.5 36.1 27.4 C 37.5 29.3 38.6 30.9 38 31.4 C 37.2 32 36.1 30.3 34.8 28.3 Z" fill="#c6c7c8"/>
					<path d="M 34.8 28.3 C 33.6 26.3 32.5 24.6 32.9 24.4 C 33.3 24.1 34.6 25.5 36.1 27.4 C 37.5 29.3 38.6 30.9 38 31.4 C 37.2 32 36.1 30.3 34.8 28.3 Z" fill="#c4c5c6"/>
					<path d="M 34.9 28.3 C 33.6 26.3 32.5 24.6 32.9 24.4 C 33.3 24.1 34.6 25.5 36.1 27.4 C 37.5 29.3 38.6 30.9 38 31.4 C 37.2 32 36.1 30.3 34.9 28.3 Z" fill="#c3c4c5"/>
					<path d="M 34.9 28.3 C 33.6 26.3 32.6 24.6 32.9 24.4 C 33.3 24.1 34.6 25.5 36.1 27.4 C 37.5 29.3 38.5 30.9 38 31.4 C 37.2 32 36.1 30.3 34.9 28.3 Z" fill="#c1c2c4"/>
					<path d="M 34.9 28.3 C 33.6 26.3 32.6 24.6 32.9 24.4 C 33.3 24.1 34.6 25.5 36.1 27.4 C 37.5 29.3 38.5 30.9 38 31.4 C 37.2 32 36.1 30.3 34.9 28.3 Z" fill="#c0c1c2"/>
					<path d="M 34.9 28.3 C 33.6 26.3 32.6 24.6 32.9 24.4 C 33.3 24.1 34.6 25.5 36.1 27.4 C 37.5 29.3 38.5 30.9 38 31.4 C 37.2 31.9 36.1 30.3 34.9 28.3 Z" fill="#bec0c1"/>
					<path d="M 34.9 28.3 C 33.6 26.3 32.6 24.6 32.9 24.4 C 33.3 24.1 34.6 25.5 36.1 27.4 C 37.5 29.3 38.5 31 38 31.4 C 37.2 31.9 36.1 30.3 34.9 28.3 Z" fill="#bdbebf"/>
					<path d="M 34.9 28.3 C 33.6 26.3 32.6 24.6 32.9 24.4 C 33.3 24.1 34.6 25.5 36.1 27.4 C 37.5 29.3 38.5 31 38 31.4 C 37.2 31.9 36.1 30.3 34.9 28.3 Z" fill="#bbbdbe"/>
					<path d="M 34.9 28.3 C 33.6 26.3 32.6 24.6 32.9 24.4 C 33.3 24.1 34.6 25.5 36.1 27.4 C 37.5 29.3 38.5 31 38 31.3 C 37.2 31.9 36.1 30.3 34.9 28.3 Z" fill="#babbbc"/>
					<path d="M 34.9 28.3 C 33.6 26.3 32.6 24.6 32.9 24.4 C 33.3 24.1 34.6 25.5 36.1 27.4 C 37.5 29.3 38.5 31 38 31.3 C 37.2 31.9 36.1 30.3 34.9 28.3 Z" fill="#b8babb"/>
					<path d="M 34.9 28.3 C 33.6 26.3 32.6 24.6 32.9 24.4 C 33.3 24.1 34.6 25.5 36.1 27.4 C 37.5 29.3 38.5 31 38 31.3 C 37.2 31.9 36.1 30.3 34.9 28.3 Z" fill="#b7b8ba"/>
					<path d="M 34.9 28.3 C 33.6 26.3 32.6 24.6 32.9 24.4 C 33.3 24.1 34.6 25.5 36.1 27.4 C 37.5 29.3 38.5 31 38 31.3 C 37.2 31.9 36.1 30.3 34.9 28.3 Z" fill="#b6b7b8"/>
					<path d="M 34.9 28.3 C 33.6 26.3 32.6 24.6 32.9 24.4 C 33.3 24.1 34.6 25.5 36.1 27.4 C 37.5 29.3 38.5 31 38 31.3 C 37.2 31.9 36.1 30.3 34.9 28.3 Z" fill="#b4b5b7"/>
					<path d="M 34.9 28.3 C 33.6 26.3 32.6 24.6 32.9 24.4 C 33.3 24.1 34.6 25.5 36.1 27.4 C 37.5 29.3 38.5 31 38 31.3 C 37.2 31.9 36.1 30.3 34.9 28.3 Z" fill="#b3b4b5"/>
					<path d="M 34.9 28.3 C 33.6 26.3 32.6 24.7 32.9 24.4 C 33.3 24.1 34.6 25.5 36.1 27.4 C 37.5 29.3 38.5 31 38 31.3 C 37.2 31.9 36.1 30.3 34.9 28.3 Z" fill="#b1b2b4"/>
					<path d="M 34.9 28.3 C 33.6 26.3 32.6 24.7 32.9 24.4 C 33.3 24.1 34.6 25.5 36.1 27.4 C 37.5 29.3 38.4 31 38 31.3 C 37.2 31.9 36.1 30.3 34.9 28.3 Z" fill="#b0b1b2"/>
					<path d="M 34.9 28.3 C 33.6 26.3 32.6 24.7 32.9 24.4 C 33.3 24.1 34.6 25.5 36.1 27.4 C 37.5 29.3 38.4 31 38 31.3 C 37.2 31.9 36.1 30.3 34.9 28.3 Z" fill="#aeb0b1"/>
					<path d="M 34.9 28.3 C 33.6 26.3 32.6 24.7 32.9 24.4 C 33.3 24.1 34.6 25.5 36.1 27.4 C 37.5 29.3 38.4 31 38 31.3 C 37.2 31.9 36.1 30.3 34.9 28.3 Z" fill="#adaeb0"/>
					<path d="M 34.9 28.3 C 33.6 26.3 32.6 24.7 32.9 24.4 C 33.3 24.1 34.7 25.5 36.1 27.4 C 37.5 29.3 38.4 31 38 31.3 C 37.2 31.9 36.1 30.3 34.9 28.3 Z" fill="#abadae"/>
					<path d="M 34.9 28.3 C 33.6 26.3 32.6 24.7 32.9 24.4 C 33.3 24.1 34.7 25.5 36.1 27.4 C 37.5 29.3 38.4 31 38 31.3 C 37.2 31.9 36.1 30.3 34.9 28.3 Z" fill="#aaabad"/>
					<path d="M 34.9 28.3 C 33.6 26.3 32.6 24.7 32.9 24.4 C 33.3 24.1 34.7 25.5 36.1 27.4 C 37.5 29.3 38.4 31 38 31.3 C 37.2 31.9 36.1 30.3 34.9 28.3 Z" fill="#a8aaab"/>
					<path d="M 34.9 28.3 C 33.6 26.3 32.6 24.7 32.9 24.4 C 33.3 24.1 34.7 25.5 36.1 27.4 C 37.5 29.3 38.4 31 38 31.3 C 37.2 31.9 36.1 30.3 34.9 28.3 Z" fill="#a7a8aa"/>
					<path d="M 34.9 28.3 C 33.6 26.3 32.6 24.7 32.9 24.4 C 33.3 24.1 34.7 25.5 36.1 27.4 C 37.5 29.3 38.4 31 38 31.3 C 37.2 31.9 36.1 30.3 34.9 28.3 Z" fill="#a5a7a9"/>
					<path d="M 34.9 28.3 C 33.6 26.3 32.6 24.7 32.9 24.4 C 33.3 24.2 34.7 25.5 36.1 27.4 C 37.5 29.3 38.4 31 38 31.3 C 37.2 31.9 36.1 30.3 34.9 28.3 Z" fill="#a4a5a7"/>
					<path d="M 34.9 28.3 C 33.6 26.3 32.6 24.7 32.9 24.4 C 33.3 24.2 34.7 25.5 36.1 27.4 C 37.5 29.3 38.4 31 38 31.3 C 37.2 31.9 36.1 30.3 34.9 28.3 Z" fill="#a2a4a6"/>
					<path d="M 34.9 28.3 C 33.6 26.3 32.6 24.7 33 24.4 C 33.3 24.2 34.7 25.5 36.1 27.4 C 37.5 29.3 38.4 31 38 31.3 C 37.2 31.9 36.1 30.3 34.9 28.3 Z" fill="#a1a3a4"/>
					<path d="M 34.9 28.3 C 33.6 26.3 32.6 24.7 33 24.4 C 33.3 24.2 34.7 25.5 36.1 27.4 C 37.5 29.3 38.4 31 38 31.3 C 37.2 31.9 36.1 30.3 34.9 28.3 Z" fill="#9fa1a3"/>
					<path d="M 34.9 28.3 C 33.6 26.3 32.6 24.7 33 24.4 C 33.3 24.2 34.7 25.5 36.1 27.4 C 37.5 29.3 38.3 31 38 31.3 C 37.2 31.8 36.1 30.3 34.9 28.3 Z" fill="#9ea0a1"/>
					<path d="M 34.9 28.3 C 33.6 26.3 32.6 24.7 33 24.4 C 33.3 24.2 34.7 25.5 36.1 27.4 C 37.5 29.3 38.3 31 38 31.3 C 37.2 31.8 36.1 30.3 34.9 28.3 Z" fill="#9c9ea0"/>
					<path d="M 34.9 28.3 C 33.6 26.3 32.6 24.7 33 24.4 C 33.3 24.2 34.7 25.5 36.1 27.4 C 37.4 29.3 38.3 31 38 31.3 C 37.2 31.8 36.1 30.3 34.9 28.3 Z" fill="#9b9d9f"/>
					<path d="M 34.9 28.3 C 33.6 26.3 32.6 24.7 33 24.4 C 33.3 24.2 34.7 25.5 36.1 27.4 C 37.4 29.3 38.3 31 38 31.3 C 37.2 31.8 36.1 30.3 34.9 28.3 Z" fill="#999b9d"/>
					<path d="M 34.9 28.3 C 33.6 26.3 32.6 24.7 33 24.4 C 33.3 24.2 34.7 25.5 36.1 27.4 C 37.4 29.3 38.3 31 38 31.3 C 37.2 31.8 36.1 30.3 34.9 28.3 Z" fill="#989a9c"/>
					<path d="M 34.9 28.3 C 33.6 26.3 32.6 24.7 33 24.4 C 33.3 24.2 34.7 25.5 36.1 27.4 C 37.4 29.3 38.3 31 38 31.3 C 37.2 31.8 36.1 30.3 34.9 28.3 Z" fill="#96989a"/>
					<path d="M 34.9 28.3 C 33.6 26.3 32.6 24.7 33 24.4 C 33.3 24.2 34.7 25.5 36.1 27.4 C 37.4 29.3 38.3 31 38 31.3 C 37.2 31.8 36.1 30.3 34.9 28.3 Z" fill="#959799"/>
					<path d="M 34.9 28.3 C 33.6 26.3 32.6 24.7 33 24.4 C 33.3 24.2 34.7 25.5 36.1 27.4 C 37.4 29.3 38.3 31 38 31.3 C 37.2 31.8 36.1 30.3 34.9 28.3 Z" fill="#939597"/>
					<path d="M 34.9 28.3 C 33.6 26.3 32.6 24.7 33 24.4 C 33.3 24.2 34.7 25.5 36.1 27.4 C 37.4 29.3 38.3 31 37.9 31.3 C 37.2 31.8 36.1 30.2 34.9 28.3 Z" fill="#929496"/>
				</g>
				<path d="M 34.9 28 C 33.5 26 32.5 24.3 32.9 24 C 33.3 23.8 34.5 25.2 36.1 27.2 C 37.6 29.1 38.9 30.5 38.1 31.2 C 37.2 31.8 36.2 30.1 34.9 28 Z" fill="url(#gradient9)"/>
			</g>
		</g>
	</g>
</svg>