<?xml version="1.0" standalone="no"?>

<svg viewBox="0 0 351 341" style="background-color:#ffffff00" version="1.1" xmlns="http://www.w3.org/2000/svg" xmlns:xlink="http://www.w3.org/1999/xlink" xml:space="preserve" x="0px" y="0px" width="100%" height="100%">
	<defs>
		<linearGradient id="gradient1" x1="50%" y1="0%" x2="50%" y2="100%">
			<stop stop-color="#c1cfd9" stop-opacity="1" offset="1%"/>
			<stop stop-color="#f8f8f8" stop-opacity="1" offset="99%"/>
		</linearGradient>
		<linearGradient id="gradient2" x1="0%" y1="50%" x2="100%" y2="50%">
			<stop stop-color="#a4b9c7" stop-opacity="1" offset="1%"/>
			<stop stop-color="#d9d9d9" stop-opacity="1" offset="99%"/>
		</linearGradient>
		<linearGradient id="gradient3" x1="50%" y1="100%" x2="50%" y2="0%">
			<stop stop-color="#96989b" stop-opacity="1" offset="36%"/>
			<stop stop-color="#eeeeee" stop-opacity="1" offset="99%"/>
		</linearGradient>
		<linearGradient id="gradient4" x1="50%" y1="100%" x2="50%" y2="0%">
			<stop stop-color="#96989b" stop-opacity="1" offset="36%"/>
			<stop stop-color="#eeeeee" stop-opacity="1" offset="99%"/>
		</linearGradient>
		<linearGradient id="gradient5" x1="43.2%" y1="45.1%" x2="65.9%" y2="60.6%">
			<stop stop-color="#858585" stop-opacity="1" offset="1%"/>
			<stop stop-color="#ced9e1" stop-opacity="1" offset="99%"/>
		</linearGradient>
		<linearGradient id="gradient6" x1="20%" y1="40.5%" x2="64.9%" y2="69.5%">
			<stop stop-color="#6b6c6c" stop-opacity="1" offset="1%"/>
			<stop stop-color="#fafafa" stop-opacity="1" offset="30%"/>
			<stop stop-color="#bababa" stop-opacity="1" offset="50%"/>
			<stop stop-color="#ffffff" stop-opacity="1" offset="69%"/>
			<stop stop-color="#3f4040" stop-opacity="1" offset="99%"/>
		</linearGradient>
		<linearGradient id="gradient7" x1="-1.8%" y1="5.2%" x2="96.9%" y2="99.9%">
			<stop stop-color="#000101" stop-opacity="1" offset="1%"/>
			<stop stop-color="#bdbdbd" stop-opacity="1" offset="30%"/>
			<stop stop-color="#000101" stop-opacity="1" offset="72%"/>
			<stop stop-color="#4c4d4d" stop-opacity="1" offset="99%"/>
		</linearGradient>
		<linearGradient id="gradient8" x1="29.2%" y1="37.6%" x2="67.9%" y2="64.5%">
			<stop stop-color="#000101" stop-opacity="1" offset="1%"/>
			<stop stop-color="#bdbdbd" stop-opacity="1" offset="30%"/>
			<stop stop-color="#000101" stop-opacity="1" offset="72%"/>
			<stop stop-color="#4c4d4d" stop-opacity="1" offset="99%"/>
		</linearGradient>
		<linearGradient id="gradient9" x1="1.6%" y1="3%" x2="98.4%" y2="96.9%">
			<stop stop-color="#000101" stop-opacity="1" offset="1%"/>
			<stop stop-color="#878787" stop-opacity="1" offset="30%"/>
			<stop stop-color="#000101" stop-opacity="1" offset="72%"/>
			<stop stop-color="#4c4d4d" stop-opacity="1" offset="99%"/>
		</linearGradient>
		<linearGradient id="gradient10" x1="34.9%" y1="41.6%" x2="62.8%" y2="60.1%">
			<stop stop-color="#000101" stop-opacity="1" offset="1%"/>
			<stop stop-color="#bdbdbd" stop-opacity="1" offset="30%"/>
			<stop stop-color="#000101" stop-opacity="1" offset="72%"/>
			<stop stop-color="#4c4d4d" stop-opacity="1" offset="99%"/>
		</linearGradient>
		<linearGradient id="gradient11" x1="0.9%" y1="8.4%" x2="94.9%" y2="96.2%">
			<stop stop-color="#191a1a" stop-opacity="1" offset="1%"/>
			<stop stop-color="#8c8c8c" stop-opacity="1" offset="14%"/>
			<stop stop-color="#ffffff" stop-opacity="1" offset="34%"/>
			<stop stop-color="#6e6f6f" stop-opacity="1" offset="74%"/>
			<stop stop-color="#d4d4d4" stop-opacity="1" offset="99%"/>
		</linearGradient>
		<linearGradient id="gradient12" x1="1.7%" y1="5.1%" x2="97.5%" y2="96.6%">
			<stop stop-color="#191a1a" stop-opacity="1" offset="1%"/>
			<stop stop-color="#8c8c8c" stop-opacity="1" offset="14%"/>
			<stop stop-color="#ffffff" stop-opacity="1" offset="34%"/>
			<stop stop-color="#6e6f6f" stop-opacity="1" offset="74%"/>
			<stop stop-color="#d4d4d4" stop-opacity="1" offset="99%"/>
		</linearGradient>
		<linearGradient id="gradient13" x1="1.8%" y1="7.3%" x2="95.5%" y2="95.6%">
			<stop stop-color="#191a1a" stop-opacity="1" offset="1%"/>
			<stop stop-color="#8c8c8c" stop-opacity="1" offset="14%"/>
			<stop stop-color="#ffffff" stop-opacity="1" offset="34%"/>
			<stop stop-color="#6e6f6f" stop-opacity="1" offset="74%"/>
			<stop stop-color="#d4d4d4" stop-opacity="1" offset="99%"/>
		</linearGradient>
		<linearGradient id="gradient14" x1="40.7%" y1="40%" x2="65.4%" y2="55.9%">
			<stop stop-color="#000101" stop-opacity="1" offset="1%"/>
			<stop stop-color="#878787" stop-opacity="1" offset="30%"/>
			<stop stop-color="#000101" stop-opacity="1" offset="72%"/>
			<stop stop-color="#4c4d4d" stop-opacity="1" offset="99%"/>
		</linearGradient>
		<linearGradient id="gradient15" x1="5.9%" y1="-0.7%" x2="102.4%" y2="90.7%">
			<stop stop-color="#191a1a" stop-opacity="1" offset="1%"/>
			<stop stop-color="#8c8c8c" stop-opacity="1" offset="14%"/>
			<stop stop-color="#ffffff" stop-opacity="1" offset="34%"/>
			<stop stop-color="#6e6f6f" stop-opacity="1" offset="74%"/>
			<stop stop-color="#d4d4d4" stop-opacity="1" offset="99%"/>
		</linearGradient>
		<linearGradient id="gradient16" x1="4.5%" y1="-5.3%" x2="103.9%" y2="92.5%">
			<stop stop-color="#000101" stop-opacity="1" offset="1%"/>
			<stop stop-color="#bdbdbd" stop-opacity="1" offset="30%"/>
			<stop stop-color="#000101" stop-opacity="1" offset="72%"/>
			<stop stop-color="#4c4d4d" stop-opacity="1" offset="99%"/>
		</linearGradient>
		<linearGradient id="gradient17" x1="2.6%" y1="98.9%" x2="89.8%" y2="6.4%">
			<stop stop-color="#000101" stop-opacity="1" offset="1%"/>
			<stop stop-color="#ffffff" stop-opacity="1" offset="7%"/>
			<stop stop-color="#616262" stop-opacity="1" offset="27%"/>
			<stop stop-color="#ffffff" stop-opacity="1" offset="71%"/>
			<stop stop-color="#707171" stop-opacity="1" offset="92%"/>
			<stop stop-color="#ffffff" stop-opacity="1" offset="99%"/>
		</linearGradient>
	</defs>
	<g id="Layer%201">
		<path d="M 80.8 329.4 L 80.8 54.4 L 297.3 54.4 L 297.3 329.4 L 80.8 329.4 Z" fill="#787979"/>
		<path d="M 84.1 326.4 L 84.1 57.2 L 297.3 57.2 L 297.3 326.4 L 84.1 326.4 Z" fill="url(#gradient1)"/>
		<path d="M 85.7 335.4 C 82 335.4 79 332.4 79 328.7 L 79 54.1 C 79 50.4 82 47.4 85.7 47.4 L 292.2 47.4 C 296 47.4 299 50.4 299 54.1 L 299 328.7 C 299 332.4 296 335.4 292.2 335.4 L 85.7 335.4 Z" fill="#f1f1f1"/>
		<path d="M 297.3 92.8 L 84.3 92.8 L 84.3 50.2 L 297.3 50.2 L 297.3 92.8 Z" fill="url(#gradient2)"/>
		<g>
			<path d="M 297.3 95 L 84.1 95 L 84.1 93.2 L 297.3 93.2 L 297.3 95 Z" fill="#527a94"/>
		</g>
		<g>
			<path d="M 282.3 308.6 L 214.8 308.6 L 214.8 306.4 L 282.3 306.4 L 282.3 308.6 Z" fill="#527a94"/>
		</g>
		<g>
			<path d="M 166.6 309.7 L 99.2 309.7 L 99.2 307.5 L 166.6 307.5 L 166.6 309.7 Z" fill="#527a94"/>
		</g>
		<path d="M 292 325.2 L 88.4 325.2 L 88.4 54.5 L 292 54.5 L 292 325.2 ZM 292 41.3 L 88.4 41.3 C 81.1 41.3 75.2 47.2 75.2 54.5 L 75.2 325.2 C 75.2 332.5 81.1 338.4 88.4 338.4 L 292 338.4 C 299.2 338.4 305.2 332.5 305.2 325.2 L 305.2 54.5 C 305.2 47.2 299.2 41.3 292 41.3 L 292 41.3 Z" fill="#603e27"/>
		<path d="M 292.3 328 L 85.8 328 L 85.8 53.4 L 292.3 53.4 L 292.3 328 ZM 292.3 40 L 85.8 40 C 78.4 40 72.4 46 72.4 53.3 L 72.4 328 C 72.4 335.4 78.4 341.4 85.8 341.4 L 292.3 341.4 C 299.7 341.4 305.7 335.4 305.7 328 L 305.7 53.3 C 305.7 46 299.7 40 292.3 40 L 292.3 40 Z" fill="#87634a"/>
		<g>
			<g>
				<path d="M 144 258.3 L 120.4 258.3 C 118.4 258.3 116.6 256.6 116.6 254.5 L 116.6 232.6 C 116.6 230.5 118.4 228.8 120.4 228.8 L 144 228.8 C 146.1 228.8 147.8 230.5 147.8 232.6 L 147.8 254.5 C 147.8 256.6 146.1 258.3 144 258.3 L 144 258.3 ZM 120.4 231.3 C 119.7 231.3 119.2 231.9 119.2 232.6 L 119.2 254.5 C 119.2 255.2 119.7 255.8 120.4 255.8 L 144 255.8 C 144.8 255.8 145.3 255.2 145.3 254.5 L 145.3 232.6 C 145.3 231.9 144.8 231.3 144 231.3 L 120.4 231.3 Z" fill="#527a94"/>
				<g>
					<path d="M 159.7 257.1 C 159.7 257.5 159.3 257.9 158.8 257.9 C 158.3 257.9 157.9 257.5 157.9 257.1 C 157.9 256.6 158.3 256.2 158.8 256.2 C 159.3 256.2 159.7 256.6 159.7 257.1 L 159.7 257.1 Z" fill="#527a94"/>
					<path d="M 162.2 257.1 C 162.2 257.5 161.8 257.9 161.3 257.9 C 160.8 257.9 160.5 257.5 160.5 257.1 C 160.5 256.6 160.8 256.2 161.3 256.2 C 161.8 256.2 162.2 256.6 162.2 257.1 L 162.2 257.1 Z" fill="#527a94"/>
					<path d="M 164.8 257.1 C 164.8 257.5 164.4 257.9 163.9 257.9 C 163.4 257.9 163 257.5 163 257.1 C 163 256.6 163.4 256.2 163.9 256.2 C 164.4 256.2 164.8 256.6 164.8 257.1 L 164.8 257.1 Z" fill="#527a94"/>
					<path d="M 167.4 257.1 C 167.4 257.5 167 257.9 166.5 257.9 C 166 257.9 165.6 257.5 165.6 257.1 C 165.6 256.6 166 256.2 166.5 256.2 C 167 256.2 167.4 256.6 167.4 257.1 L 167.4 257.1 Z" fill="#527a94"/>
					<path d="M 169.9 257.1 C 169.9 257.5 169.5 257.9 169.1 257.9 C 168.6 257.9 168.2 257.5 168.2 257.1 C 168.2 256.6 168.6 256.2 169.1 256.2 C 169.5 256.2 169.9 256.6 169.9 257.1 L 169.9 257.1 Z" fill="#527a94"/>
					<path d="M 172.5 257.1 C 172.5 257.5 172.1 257.9 171.6 257.9 C 171.1 257.9 170.8 257.5 170.8 257.1 C 170.8 256.6 171.1 256.2 171.6 256.2 C 172.1 256.2 172.5 256.6 172.5 257.1 L 172.5 257.1 Z" fill="#527a94"/>
					<path d="M 175.1 257.1 C 175.1 257.5 174.7 257.9 174.2 257.9 C 173.7 257.9 173.3 257.5 173.3 257.1 C 173.3 256.6 173.7 256.2 174.2 256.2 C 174.7 256.2 175.1 256.6 175.1 257.1 L 175.1 257.1 Z" fill="#527a94"/>
					<path d="M 177.7 257.1 C 177.7 257.5 177.3 257.9 176.8 257.9 C 176.3 257.9 175.9 257.5 175.9 257.1 C 175.9 256.6 176.3 256.2 176.8 256.2 C 177.3 256.2 177.7 256.6 177.7 257.1 L 177.7 257.1 Z" fill="#527a94"/>
					<path d="M 180.2 257.1 C 180.2 257.5 179.8 257.9 179.3 257.9 C 178.9 257.9 178.5 257.5 178.5 257.1 C 178.5 256.6 178.9 256.2 179.3 256.2 C 179.8 256.2 180.2 256.6 180.2 257.1 L 180.2 257.1 Z" fill="#527a94"/>
					<path d="M 182.8 257.1 C 182.8 257.5 182.4 257.9 181.9 257.9 C 181.4 257.9 181 257.5 181 257.1 C 181 256.6 181.4 256.2 181.9 256.2 C 182.4 256.2 182.8 256.6 182.8 257.1 L 182.8 257.1 Z" fill="#527a94"/>
					<path d="M 185.4 257.1 C 185.4 257.5 185 257.9 184.5 257.9 C 184 257.9 183.6 257.5 183.6 257.1 C 183.6 256.6 184 256.2 184.5 256.2 C 185 256.2 185.4 256.6 185.4 257.1 L 185.4 257.1 Z" fill="#527a94"/>
					<path d="M 187.9 257.1 C 187.9 257.5 187.6 257.9 187.1 257.9 C 186.6 257.9 186.2 257.5 186.2 257.1 C 186.2 256.6 186.6 256.2 187.1 256.2 C 187.6 256.2 187.9 256.6 187.9 257.1 L 187.9 257.1 Z" fill="#527a94"/>
					<path d="M 190.5 257.1 C 190.5 257.5 190.1 257.9 189.6 257.9 C 189.1 257.9 188.8 257.5 188.8 257.1 C 188.8 256.6 189.1 256.2 189.6 256.2 C 190.1 256.2 190.5 256.6 190.5 257.1 L 190.5 257.1 Z" fill="#527a94"/>
					<path d="M 193.1 257.1 C 193.1 257.5 192.7 257.9 192.2 257.9 C 191.7 257.9 191.3 257.5 191.3 257.1 C 191.3 256.6 191.7 256.2 192.2 256.2 C 192.7 256.2 193.1 256.6 193.1 257.1 L 193.1 257.1 Z" fill="#527a94"/>
					<path d="M 195.7 257.1 C 195.7 257.5 195.3 257.9 194.8 257.9 C 194.3 257.9 193.9 257.5 193.9 257.1 C 193.9 256.6 194.3 256.2 194.8 256.2 C 195.3 256.2 195.7 256.6 195.7 257.1 L 195.7 257.1 Z" fill="#527a94"/>
					<path d="M 198.2 257.1 C 198.2 257.5 197.8 257.9 197.3 257.9 C 196.9 257.9 196.5 257.5 196.5 257.1 C 196.5 256.6 196.9 256.2 197.3 256.2 C 197.8 256.2 198.2 256.6 198.2 257.1 L 198.2 257.1 Z" fill="#527a94"/>
					<path d="M 200.8 257.1 C 200.8 257.5 200.4 257.9 199.9 257.9 C 199.4 257.9 199.1 257.5 199.1 257.1 C 199.1 256.6 199.4 256.2 199.9 256.2 C 200.4 256.2 200.8 256.6 200.8 257.1 L 200.8 257.1 Z" fill="#527a94"/>
					<path d="M 203.4 257.1 C 203.4 257.5 203 257.9 202.5 257.9 C 202 257.9 201.6 257.5 201.6 257.1 C 201.6 256.6 202 256.2 202.5 256.2 C 203 256.2 203.4 256.6 203.4 257.1 L 203.4 257.1 Z" fill="#527a94"/>
					<path d="M 206 257.1 C 206 257.5 205.6 257.9 205.1 257.9 C 204.6 257.9 204.2 257.5 204.2 257.1 C 204.2 256.6 204.6 256.2 205.1 256.2 C 205.6 256.2 206 256.6 206 257.1 L 206 257.1 Z" fill="#527a94"/>
					<path d="M 208.5 257.1 C 208.5 257.5 208.1 257.9 207.6 257.9 C 207.2 257.9 206.8 257.5 206.8 257.1 C 206.8 256.6 207.2 256.2 207.6 256.2 C 208.1 256.2 208.5 256.6 208.5 257.1 L 208.5 257.1 Z" fill="#527a94"/>
					<path d="M 211.1 257.1 C 211.1 257.5 210.7 257.9 210.2 257.9 C 209.7 257.9 209.3 257.5 209.3 257.1 C 209.3 256.6 209.7 256.2 210.2 256.2 C 210.7 256.2 211.1 256.6 211.1 257.1 L 211.1 257.1 Z" fill="#527a94"/>
					<path d="M 213.7 257.1 C 213.7 257.5 213.3 257.9 212.8 257.9 C 212.3 257.9 211.9 257.5 211.9 257.1 C 211.9 256.6 212.3 256.2 212.8 256.2 C 213.3 256.2 213.7 256.6 213.7 257.1 L 213.7 257.1 Z" fill="#527a94"/>
					<path d="M 216.3 257.1 C 216.3 257.5 215.9 257.9 215.4 257.9 C 214.9 257.9 214.5 257.5 214.5 257.1 C 214.5 256.6 214.9 256.2 215.4 256.2 C 215.9 256.2 216.3 256.6 216.3 257.1 L 216.3 257.1 Z" fill="#527a94"/>
					<path d="M 218.8 257.1 C 218.8 257.5 218.4 257.9 217.9 257.9 C 217.4 257.9 217 257.5 217 257.1 C 217 256.6 217.4 256.2 217.9 256.2 C 218.4 256.2 218.8 256.6 218.8 257.1 L 218.8 257.1 Z" fill="#527a94"/>
					<path d="M 221.4 257.1 C 221.4 257.5 221 257.9 220.5 257.9 C 220 257.9 219.6 257.5 219.6 257.1 C 219.6 256.6 220 256.2 220.5 256.2 C 221 256.2 221.4 256.6 221.4 257.1 L 221.4 257.1 Z" fill="#527a94"/>
					<path d="M 224 257.1 C 224 257.5 223.6 257.9 223.1 257.9 C 222.6 257.9 222.2 257.5 222.2 257.1 C 222.2 256.6 222.6 256.2 223.1 256.2 C 223.6 256.2 224 256.6 224 257.1 L 224 257.1 Z" fill="#527a94"/>
					<path d="M 226.5 257.1 C 226.5 257.5 226.1 257.9 225.7 257.9 C 225.2 257.9 224.8 257.5 224.8 257.1 C 224.8 256.6 225.2 256.2 225.7 256.2 C 226.1 256.2 226.5 256.6 226.5 257.1 L 226.5 257.1 Z" fill="#527a94"/>
					<path d="M 229.1 257.1 C 229.1 257.5 228.7 257.9 228.2 257.9 C 227.7 257.9 227.3 257.5 227.3 257.1 C 227.3 256.6 227.7 256.2 228.2 256.2 C 228.7 256.2 229.1 256.6 229.1 257.1 L 229.1 257.1 Z" fill="#527a94"/>
					<path d="M 231.7 257.1 C 231.7 257.5 231.3 257.9 230.8 257.9 C 230.3 257.9 229.9 257.5 229.9 257.1 C 229.9 256.6 230.3 256.2 230.8 256.2 C 231.3 256.2 231.7 256.6 231.7 257.1 L 231.7 257.1 Z" fill="#527a94"/>
					<path d="M 234.3 257.1 C 234.3 257.5 233.9 257.9 233.4 257.9 C 232.9 257.9 232.5 257.5 232.5 257.1 C 232.5 256.6 232.9 256.2 233.4 256.2 C 233.9 256.2 234.3 256.6 234.3 257.1 L 234.3 257.1 Z" fill="#527a94"/>
					<path d="M 236.8 257.1 C 236.8 257.5 236.4 257.9 235.9 257.9 C 235.5 257.9 235.1 257.5 235.1 257.1 C 235.1 256.6 235.5 256.2 235.9 256.2 C 236.4 256.2 236.8 256.6 236.8 257.1 L 236.8 257.1 Z" fill="#527a94"/>
					<path d="M 239.4 257.1 C 239.4 257.5 239 257.9 238.5 257.9 C 238 257.9 237.6 257.5 237.6 257.1 C 237.6 256.6 238 256.2 238.5 256.2 C 239 256.2 239.4 256.6 239.4 257.1 L 239.4 257.1 Z" fill="#527a94"/>
					<path d="M 242 257.1 C 242 257.5 241.6 257.9 241.1 257.9 C 240.6 257.9 240.2 257.5 240.2 257.1 C 240.2 256.6 240.6 256.2 241.1 256.2 C 241.6 256.2 242 256.6 242 257.1 L 242 257.1 Z" fill="#527a94"/>
					<path d="M 244.5 257.1 C 244.5 257.5 244.1 257.9 243.7 257.9 C 243.2 257.9 242.8 257.5 242.8 257.1 C 242.8 256.6 243.2 256.2 243.7 256.2 C 244.1 256.2 244.5 256.6 244.5 257.1 L 244.5 257.1 Z" fill="#527a94"/>
					<path d="M 247.1 257.1 C 247.1 257.5 246.7 257.9 246.2 257.9 C 245.7 257.9 245.4 257.5 245.4 257.1 C 245.4 256.6 245.7 256.2 246.2 256.2 C 246.7 256.2 247.1 256.6 247.1 257.1 L 247.1 257.1 Z" fill="#527a94"/>
					<path d="M 249.7 257.1 C 249.7 257.5 249.3 257.9 248.8 257.9 C 248.3 257.9 247.9 257.5 247.9 257.1 C 247.9 256.6 248.3 256.2 248.8 256.2 C 249.3 256.2 249.7 256.6 249.7 257.1 L 249.7 257.1 Z" fill="#527a94"/>
					<path d="M 252.3 257.1 C 252.3 257.5 251.9 257.9 251.4 257.9 C 250.9 257.9 250.5 257.5 250.5 257.1 C 250.5 256.6 250.9 256.2 251.4 256.2 C 251.9 256.2 252.3 256.6 252.3 257.1 L 252.3 257.1 Z" fill="#527a94"/>
					<path d="M 254.9 257.1 C 254.9 257.5 254.4 257.9 253.9 257.9 C 253.5 257.9 253.1 257.5 253.1 257.1 C 253.1 256.6 253.5 256.2 253.9 256.2 C 254.4 256.2 254.9 256.6 254.9 257.1 L 254.9 257.1 Z" fill="#527a94"/>
				</g>
			</g>
			<g>
				<path d="M 144 147.2 L 120.4 147.2 C 118.4 147.2 116.6 145.5 116.6 143.4 L 116.6 121.4 C 116.6 119.4 118.4 117.7 120.4 117.7 L 144 117.7 C 146.1 117.7 147.8 119.4 147.8 121.4 L 147.8 143.4 C 147.8 145.5 146.1 147.2 144 147.2 L 144 147.2 ZM 120.4 120.2 C 119.7 120.2 119.2 120.8 119.2 121.4 L 119.2 143.4 C 119.2 144.1 119.7 144.6 120.4 144.6 L 144 144.6 C 144.8 144.6 145.3 144.1 145.3 143.4 L 145.3 121.4 C 145.3 120.8 144.8 120.2 144 120.2 L 120.4 120.2 Z" fill="#527a94"/>
				<g>
					<path d="M 159.7 145.9 C 159.7 146.4 159.3 146.8 158.8 146.8 C 158.3 146.8 157.9 146.4 157.9 145.9 C 157.9 145.4 158.3 145 158.8 145 C 159.3 145 159.7 145.4 159.7 145.9 L 159.7 145.9 Z" fill="#527a94"/>
					<path d="M 162.2 145.9 C 162.2 146.4 161.8 146.8 161.3 146.8 C 160.8 146.8 160.5 146.4 160.5 145.9 C 160.5 145.4 160.8 145 161.3 145 C 161.8 145 162.2 145.4 162.2 145.9 L 162.2 145.9 Z" fill="#527a94"/>
					<path d="M 164.8 145.9 C 164.8 146.4 164.4 146.8 163.9 146.8 C 163.4 146.8 163 146.4 163 145.9 C 163 145.4 163.4 145 163.9 145 C 164.4 145 164.8 145.4 164.8 145.9 L 164.8 145.9 Z" fill="#527a94"/>
					<path d="M 169.9 145.9 C 169.9 146.4 169.5 146.8 169.1 146.8 C 168.6 146.8 168.2 146.4 168.2 145.9 C 168.2 145.4 168.6 145 169.1 145 C 169.5 145 169.9 145.4 169.9 145.9 L 169.9 145.9 Z" fill="#527a94"/>
					<path d="M 172.5 145.9 C 172.5 146.4 172.1 146.8 171.6 146.8 C 171.1 146.8 170.8 146.4 170.8 145.9 C 170.8 145.4 171.1 145 171.6 145 C 172.1 145 172.5 145.4 172.5 145.9 L 172.5 145.9 Z" fill="#527a94"/>
					<path d="M 175.1 145.9 C 175.1 146.4 174.7 146.8 174.2 146.8 C 173.7 146.8 173.3 146.4 173.3 145.9 C 173.3 145.4 173.7 145 174.2 145 C 174.7 145 175.1 145.4 175.1 145.9 L 175.1 145.9 Z" fill="#527a94"/>
					<path d="M 177.7 145.9 C 177.7 146.4 177.3 146.8 176.8 146.8 C 176.3 146.8 175.9 146.4 175.9 145.9 C 175.9 145.4 176.3 145 176.8 145 C 177.3 145 177.7 145.4 177.7 145.9 L 177.7 145.9 Z" fill="#527a94"/>
					<path d="M 180.2 145.9 C 180.2 146.4 179.8 146.8 179.3 146.8 C 178.9 146.8 178.5 146.4 178.5 145.9 C 178.5 145.4 178.9 145 179.3 145 C 179.8 145 180.2 145.4 180.2 145.9 L 180.2 145.9 Z" fill="#527a94"/>
					<path d="M 182.8 145.9 C 182.8 146.4 182.4 146.8 181.9 146.8 C 181.4 146.8 181 146.4 181 145.9 C 181 145.4 181.4 145 181.9 145 C 182.4 145 182.8 145.4 182.8 145.9 L 182.8 145.9 Z" fill="#527a94"/>
					<path d="M 185.4 145.9 C 185.4 146.4 185 146.8 184.5 146.8 C 184 146.8 183.6 146.4 183.6 145.9 C 183.6 145.4 184 145 184.5 145 C 185 145 185.4 145.4 185.4 145.9 L 185.4 145.9 Z" fill="#527a94"/>
					<path d="M 167.4 145.9 C 167.4 146.4 167 146.8 166.5 146.8 C 166 146.8 165.6 146.4 165.6 145.9 C 165.6 145.4 166 145 166.5 145 C 167 145 167.4 145.4 167.4 145.9 L 167.4 145.9 Z" fill="#527a94"/>
					<path d="M 190.5 145.9 C 190.5 146.4 190.1 146.8 189.6 146.8 C 189.1 146.8 188.8 146.4 188.8 145.9 C 188.8 145.4 189.1 145 189.6 145 C 190.1 145 190.5 145.4 190.5 145.9 L 190.5 145.9 Z" fill="#527a94"/>
					<path d="M 187.9 145.9 C 187.9 146.4 187.6 146.8 187.1 146.8 C 186.6 146.8 186.2 146.4 186.2 145.9 C 186.2 145.4 186.6 145 187.1 145 C 187.6 145 187.9 145.4 187.9 145.9 L 187.9 145.9 Z" fill="#527a94"/>
					<path d="M 195.7 145.9 C 195.7 146.4 195.3 146.8 194.8 146.8 C 194.3 146.8 193.9 146.4 193.9 145.9 C 193.9 145.4 194.3 145 194.8 145 C 195.3 145 195.7 145.4 195.7 145.9 L 195.7 145.9 Z" fill="#527a94"/>
					<path d="M 193.1 145.9 C 193.1 146.4 192.7 146.8 192.2 146.8 C 191.7 146.8 191.3 146.4 191.3 145.9 C 191.3 145.4 191.7 145 192.2 145 C 192.7 145 193.1 145.4 193.1 145.9 L 193.1 145.9 Z" fill="#527a94"/>
					<path d="M 200.8 145.9 C 200.8 146.4 200.4 146.8 199.9 146.8 C 199.4 146.8 199.1 146.4 199.1 145.9 C 199.1 145.4 199.4 145 199.9 145 C 200.4 145 200.8 145.4 200.8 145.9 L 200.8 145.9 Z" fill="#527a94"/>
					<path d="M 198.2 145.9 C 198.2 146.4 197.8 146.8 197.3 146.8 C 196.9 146.8 196.5 146.4 196.5 145.9 C 196.5 145.4 196.9 145 197.3 145 C 197.8 145 198.2 145.4 198.2 145.9 L 198.2 145.9 Z" fill="#527a94"/>
					<path d="M 203.4 145.9 C 203.4 146.4 203 146.8 202.5 146.8 C 202 146.8 201.6 146.4 201.6 145.9 C 201.6 145.4 202 145 202.5 145 C 203 145 203.4 145.4 203.4 145.9 L 203.4 145.9 Z" fill="#527a94"/>
					<path d="M 208.5 145.9 C 208.5 146.4 208.1 146.8 207.6 146.8 C 207.2 146.8 206.8 146.4 206.8 145.9 C 206.8 145.4 207.2 145 207.6 145 C 208.1 145 208.5 145.4 208.5 145.9 L 208.5 145.9 Z" fill="#527a94"/>
					<path d="M 213.7 145.9 C 213.7 146.4 213.3 146.8 212.8 146.8 C 212.3 146.8 211.9 146.4 211.9 145.9 C 211.9 145.4 212.3 145 212.8 145 C 213.3 145 213.7 145.4 213.7 145.9 L 213.7 145.9 Z" fill="#527a94"/>
					<path d="M 206 145.9 C 206 146.4 205.6 146.8 205.1 146.8 C 204.6 146.8 204.2 146.4 204.2 145.9 C 204.2 145.4 204.6 145 205.1 145 C 205.6 145 206 145.4 206 145.9 L 206 145.9 Z" fill="#527a94"/>
					<path d="M 218.8 145.9 C 218.8 146.4 218.4 146.8 217.9 146.8 C 217.4 146.8 217 146.4 217 145.9 C 217 145.4 217.4 145 217.9 145 C 218.4 145 218.8 145.4 218.8 145.9 L 218.8 145.9 Z" fill="#527a94"/>
					<path d="M 221.4 145.9 C 221.4 146.4 221 146.8 220.5 146.8 C 220 146.8 219.6 146.4 219.6 145.9 C 219.6 145.4 220 145 220.5 145 C 221 145 221.4 145.4 221.4 145.9 L 221.4 145.9 Z" fill="#527a94"/>
					<path d="M 211.1 145.9 C 211.1 146.4 210.7 146.8 210.2 146.8 C 209.7 146.8 209.3 146.4 209.3 145.9 C 209.3 145.4 209.7 145 210.2 145 C 210.7 145 211.1 145.4 211.1 145.9 L 211.1 145.9 Z" fill="#527a94"/>
					<path d="M 216.3 145.9 C 216.3 146.4 215.9 146.8 215.4 146.8 C 214.9 146.8 214.5 146.4 214.5 145.9 C 214.5 145.4 214.9 145 215.4 145 C 215.9 145 216.3 145.4 216.3 145.9 L 216.3 145.9 Z" fill="#527a94"/>
					<path d="M 224 145.9 C 224 146.4 223.6 146.8 223.1 146.8 C 222.6 146.8 222.2 146.4 222.2 145.9 C 222.2 145.4 222.6 145 223.1 145 C 223.6 145 224 145.4 224 145.9 L 224 145.9 Z" fill="#527a94"/>
					<path d="M 226.5 145.9 C 226.5 146.4 226.1 146.8 225.7 146.8 C 225.2 146.8 224.8 146.4 224.8 145.9 C 224.8 145.4 225.2 145 225.7 145 C 226.1 145 226.5 145.4 226.5 145.9 L 226.5 145.9 Z" fill="#527a94"/>
					<path d="M 229.1 145.9 C 229.1 146.4 228.7 146.8 228.2 146.8 C 227.7 146.8 227.3 146.4 227.3 145.9 C 227.3 145.4 227.7 145 228.2 145 C 228.7 145 229.1 145.4 229.1 145.9 L 229.1 145.9 Z" fill="#527a94"/>
					<path d="M 231.7 145.9 C 231.7 146.4 231.3 146.8 230.8 146.8 C 230.3 146.8 229.9 146.4 229.9 145.9 C 229.9 145.4 230.3 145 230.8 145 C 231.3 145 231.7 145.4 231.7 145.9 L 231.7 145.9 Z" fill="#527a94"/>
					<path d="M 234.3 145.9 C 234.3 146.4 233.9 146.8 233.4 146.8 C 232.9 146.8 232.5 146.4 232.5 145.9 C 232.5 145.4 232.9 145 233.4 145 C 233.9 145 234.3 145.4 234.3 145.9 L 234.3 145.9 Z" fill="#527a94"/>
					<path d="M 236.8 145.9 C 236.8 146.4 236.4 146.8 235.9 146.8 C 235.5 146.8 235.1 146.4 235.1 145.9 C 235.1 145.4 235.5 145 235.9 145 C 236.4 145 236.8 145.4 236.8 145.9 L 236.8 145.9 Z" fill="#527a94"/>
					<path d="M 239.4 145.9 C 239.4 146.4 239 146.8 238.5 146.8 C 238 146.8 237.6 146.4 237.6 145.9 C 237.6 145.4 238 145 238.5 145 C 239 145 239.4 145.4 239.4 145.9 L 239.4 145.9 Z" fill="#527a94"/>
					<path d="M 242 145.9 C 242 146.4 241.6 146.8 241.1 146.8 C 240.6 146.8 240.2 146.4 240.2 145.9 C 240.2 145.4 240.6 145 241.1 145 C 241.6 145 242 145.4 242 145.9 L 242 145.9 Z" fill="#527a94"/>
					<path d="M 244.5 145.9 C 244.5 146.4 244.1 146.8 243.7 146.8 C 243.2 146.8 242.8 146.4 242.8 145.9 C 242.8 145.4 243.2 145 243.7 145 C 244.1 145 244.5 145.4 244.5 145.9 L 244.5 145.9 Z" fill="#527a94"/>
					<path d="M 247.1 145.9 C 247.1 146.4 246.7 146.8 246.2 146.8 C 245.7 146.8 245.4 146.4 245.4 145.9 C 245.4 145.4 245.7 145 246.2 145 C 246.7 145 247.1 145.4 247.1 145.9 L 247.1 145.9 Z" fill="#527a94"/>
					<path d="M 249.7 145.9 C 249.7 146.4 249.3 146.8 248.8 146.8 C 248.3 146.8 247.9 146.4 247.9 145.9 C 247.9 145.4 248.3 145 248.8 145 C 249.3 145 249.7 145.4 249.7 145.9 L 249.7 145.9 Z" fill="#527a94"/>
					<path d="M 252.3 145.9 C 252.3 146.4 251.9 146.8 251.4 146.8 C 250.9 146.8 250.5 146.4 250.5 145.9 C 250.5 145.4 250.9 145 251.4 145 C 251.9 145 252.3 145.4 252.3 145.9 L 252.3 145.9 Z" fill="#527a94"/>
					<path d="M 254.9 145.9 C 254.9 146.4 254.4 146.8 253.9 146.8 C 253.5 146.8 253.1 146.4 253.1 145.9 C 253.1 145.4 253.5 145 253.9 145 C 254.4 145 254.9 145.4 254.9 145.9 L 254.9 145.9 Z" fill="#527a94"/>
				</g>
				<path d="M 130.9 140 L 125 131.4 L 127.5 129.7 L 131.3 135.2 L 148.7 116.6 L 150.9 118.7 L 130.9 140 Z" fill="#c56666"/>
			</g>
			<g>
				<path d="M 144 184.2 L 120.4 184.2 C 118.4 184.2 116.6 182.5 116.6 180.4 L 116.6 158.5 C 116.6 156.4 118.4 154.7 120.4 154.7 L 144 154.7 C 146.1 154.7 147.8 156.4 147.8 158.5 L 147.8 180.4 C 147.8 182.5 146.1 184.2 144 184.2 L 144 184.2 ZM 120.4 157.2 C 119.7 157.2 119.2 157.8 119.2 158.5 L 119.2 180.4 C 119.2 181.1 119.7 181.7 120.4 181.7 L 144 181.7 C 144.8 181.7 145.3 181.1 145.3 180.4 L 145.3 158.5 C 145.3 157.8 144.8 157.2 144 157.2 L 120.4 157.2 Z" fill="#527a94"/>
				<g>
					<path d="M 159.7 183 C 159.7 183.5 159.3 183.8 158.8 183.8 C 158.3 183.8 157.9 183.5 157.9 183 C 157.9 182.5 158.3 182.1 158.8 182.1 C 159.3 182.1 159.7 182.5 159.7 183 L 159.7 183 Z" fill="#527a94"/>
					<path d="M 162.2 183 C 162.2 183.5 161.8 183.8 161.3 183.8 C 160.8 183.8 160.5 183.5 160.5 183 C 160.5 182.5 160.8 182.1 161.3 182.1 C 161.8 182.1 162.2 182.5 162.2 183 L 162.2 183 Z" fill="#527a94"/>
					<path d="M 164.8 183 C 164.8 183.5 164.4 183.8 163.9 183.8 C 163.4 183.8 163 183.5 163 183 C 163 182.5 163.4 182.1 163.9 182.1 C 164.4 182.1 164.8 182.5 164.8 183 L 164.8 183 Z" fill="#527a94"/>
					<path d="M 167.4 183 C 167.4 183.5 167 183.8 166.5 183.8 C 166 183.8 165.6 183.5 165.6 183 C 165.6 182.5 166 182.1 166.5 182.1 C 167 182.1 167.4 182.5 167.4 183 L 167.4 183 Z" fill="#527a94"/>
					<path d="M 169.9 183 C 169.9 183.5 169.5 183.8 169.1 183.8 C 168.6 183.8 168.2 183.5 168.2 183 C 168.2 182.5 168.6 182.1 169.1 182.1 C 169.5 182.1 169.9 182.5 169.9 183 L 169.9 183 Z" fill="#527a94"/>
					<path d="M 172.5 183 C 172.5 183.5 172.1 183.8 171.6 183.8 C 171.1 183.8 170.8 183.5 170.8 183 C 170.8 182.5 171.1 182.1 171.6 182.1 C 172.1 182.1 172.5 182.5 172.5 183 L 172.5 183 Z" fill="#527a94"/>
					<path d="M 175.1 183 C 175.1 183.5 174.7 183.8 174.2 183.8 C 173.7 183.8 173.3 183.5 173.3 183 C 173.3 182.5 173.7 182.1 174.2 182.1 C 174.7 182.1 175.1 182.5 175.1 183 L 175.1 183 Z" fill="#527a94"/>
					<path d="M 177.7 183 C 177.7 183.5 177.3 183.8 176.8 183.8 C 176.3 183.8 175.9 183.5 175.9 183 C 175.9 182.5 176.3 182.1 176.8 182.1 C 177.3 182.1 177.7 182.5 177.7 183 L 177.7 183 Z" fill="#527a94"/>
					<path d="M 180.2 183 C 180.2 183.5 179.8 183.8 179.3 183.8 C 178.9 183.8 178.5 183.5 178.5 183 C 178.5 182.5 178.9 182.1 179.3 182.1 C 179.8 182.1 180.2 182.5 180.2 183 L 180.2 183 Z" fill="#527a94"/>
					<path d="M 182.8 183 C 182.8 183.5 182.4 183.8 181.9 183.8 C 181.4 183.8 181 183.5 181 183 C 181 182.5 181.4 182.1 181.9 182.1 C 182.4 182.1 182.8 182.5 182.8 183 L 182.8 183 Z" fill="#527a94"/>
					<path d="M 185.4 183 C 185.4 183.5 185 183.8 184.5 183.8 C 184 183.8 183.6 183.5 183.6 183 C 183.6 182.5 184 182.1 184.5 182.1 C 185 182.1 185.4 182.5 185.4 183 L 185.4 183 Z" fill="#527a94"/>
					<path d="M 187.9 183 C 187.9 183.5 187.6 183.8 187.1 183.8 C 186.6 183.8 186.2 183.5 186.2 183 C 186.2 182.5 186.6 182.1 187.1 182.1 C 187.6 182.1 187.9 182.5 187.9 183 L 187.9 183 Z" fill="#527a94"/>
					<path d="M 190.5 183 C 190.5 183.5 190.1 183.8 189.6 183.8 C 189.1 183.8 188.8 183.5 188.8 183 C 188.8 182.5 189.1 182.1 189.6 182.1 C 190.1 182.1 190.5 182.5 190.5 183 L 190.5 183 Z" fill="#527a94"/>
					<path d="M 193.1 183 C 193.1 183.5 192.7 183.8 192.2 183.8 C 191.7 183.8 191.3 183.5 191.3 183 C 191.3 182.5 191.7 182.1 192.2 182.1 C 192.7 182.1 193.1 182.5 193.1 183 L 193.1 183 Z" fill="#527a94"/>
					<path d="M 195.7 183 C 195.7 183.5 195.3 183.8 194.8 183.8 C 194.3 183.8 193.9 183.5 193.9 183 C 193.9 182.5 194.3 182.1 194.8 182.1 C 195.3 182.1 195.7 182.5 195.7 183 L 195.7 183 Z" fill="#527a94"/>
					<path d="M 198.2 183 C 198.2 183.5 197.8 183.8 197.3 183.8 C 196.9 183.8 196.5 183.5 196.5 183 C 196.5 182.5 196.9 182.1 197.3 182.1 C 197.8 182.1 198.2 182.5 198.2 183 L 198.2 183 Z" fill="#527a94"/>
					<path d="M 200.8 183 C 200.8 183.5 200.4 183.8 199.9 183.8 C 199.4 183.8 199.1 183.5 199.1 183 C 199.1 182.5 199.4 182.1 199.9 182.1 C 200.4 182.1 200.8 182.5 200.8 183 L 200.8 183 Z" fill="#527a94"/>
					<path d="M 203.4 183 C 203.4 183.5 203 183.8 202.5 183.8 C 202 183.8 201.6 183.5 201.6 183 C 201.6 182.5 202 182.1 202.5 182.1 C 203 182.1 203.4 182.5 203.4 183 L 203.4 183 Z" fill="#527a94"/>
					<path d="M 206 183 C 206 183.5 205.6 183.8 205.1 183.8 C 204.6 183.8 204.2 183.5 204.2 183 C 204.2 182.5 204.6 182.1 205.1 182.1 C 205.6 182.1 206 182.5 206 183 L 206 183 Z" fill="#527a94"/>
					<path d="M 208.5 183 C 208.5 183.5 208.1 183.8 207.6 183.8 C 207.2 183.8 206.8 183.5 206.8 183 C 206.8 182.5 207.2 182.1 207.6 182.1 C 208.1 182.1 208.5 182.5 208.5 183 L 208.5 183 Z" fill="#527a94"/>
					<path d="M 211.1 183 C 211.1 183.5 210.7 183.8 210.2 183.8 C 209.7 183.8 209.3 183.5 209.3 183 C 209.3 182.5 209.7 182.1 210.2 182.1 C 210.7 182.1 211.1 182.5 211.1 183 L 211.1 183 Z" fill="#527a94"/>
					<path d="M 213.7 183 C 213.7 183.5 213.3 183.8 212.8 183.8 C 212.3 183.8 211.9 183.5 211.9 183 C 211.9 182.5 212.3 182.1 212.8 182.1 C 213.3 182.1 213.7 182.5 213.7 183 L 213.7 183 Z" fill="#527a94"/>
					<path d="M 216.3 183 C 216.3 183.5 215.9 183.8 215.4 183.8 C 214.9 183.8 214.5 183.5 214.5 183 C 214.5 182.5 214.9 182.1 215.4 182.1 C 215.9 182.1 216.3 182.5 216.3 183 L 216.3 183 Z" fill="#527a94"/>
					<path d="M 218.8 183 C 218.8 183.5 218.4 183.8 217.9 183.8 C 217.4 183.8 217 183.5 217 183 C 217 182.5 217.4 182.1 217.9 182.1 C 218.4 182.1 218.8 182.5 218.8 183 L 218.8 183 Z" fill="#527a94"/>
					<path d="M 221.4 183 C 221.4 183.5 221 183.8 220.5 183.8 C 220 183.8 219.6 183.5 219.6 183 C 219.6 182.5 220 182.1 220.5 182.1 C 221 182.1 221.4 182.5 221.4 183 L 221.4 183 Z" fill="#527a94"/>
					<path d="M 224 183 C 224 183.5 223.6 183.8 223.1 183.8 C 222.6 183.8 222.2 183.5 222.2 183 C 222.2 182.5 222.6 182.1 223.1 182.1 C 223.6 182.1 224 182.5 224 183 L 224 183 Z" fill="#527a94"/>
					<path d="M 226.5 183 C 226.5 183.5 226.1 183.8 225.7 183.8 C 225.2 183.8 224.8 183.5 224.8 183 C 224.8 182.5 225.2 182.1 225.7 182.1 C 226.1 182.1 226.5 182.5 226.5 183 L 226.5 183 Z" fill="#527a94"/>
					<path d="M 229.1 183 C 229.1 183.5 228.7 183.8 228.2 183.8 C 227.7 183.8 227.3 183.5 227.3 183 C 227.3 182.5 227.7 182.1 228.2 182.1 C 228.7 182.1 229.1 182.5 229.1 183 L 229.1 183 Z" fill="#527a94"/>
					<path d="M 231.7 183 C 231.7 183.5 231.3 183.8 230.8 183.8 C 230.3 183.8 229.9 183.5 229.9 183 C 229.9 182.5 230.3 182.1 230.8 182.1 C 231.3 182.1 231.7 182.5 231.7 183 L 231.7 183 Z" fill="#527a94"/>
					<path d="M 234.3 183 C 234.3 183.5 233.9 183.8 233.4 183.8 C 232.9 183.8 232.5 183.5 232.5 183 C 232.5 182.5 232.9 182.1 233.4 182.1 C 233.9 182.1 234.3 182.5 234.3 183 L 234.3 183 Z" fill="#527a94"/>
					<path d="M 236.8 183 C 236.8 183.5 236.4 183.8 235.9 183.8 C 235.5 183.8 235.1 183.5 235.1 183 C 235.1 182.5 235.5 182.1 235.9 182.1 C 236.4 182.1 236.8 182.5 236.8 183 L 236.8 183 Z" fill="#527a94"/>
					<path d="M 239.4 183 C 239.4 183.5 239 183.8 238.5 183.8 C 238 183.8 237.6 183.5 237.6 183 C 237.6 182.5 238 182.1 238.5 182.1 C 239 182.1 239.4 182.5 239.4 183 L 239.4 183 Z" fill="#527a94"/>
					<path d="M 242 183 C 242 183.5 241.6 183.8 241.1 183.8 C 240.6 183.8 240.2 183.5 240.2 183 C 240.2 182.5 240.6 182.1 241.1 182.1 C 241.6 182.1 242 182.5 242 183 L 242 183 Z" fill="#527a94"/>
					<path d="M 244.5 183 C 244.5 183.5 244.1 183.8 243.7 183.8 C 243.2 183.8 242.8 183.5 242.8 183 C 242.8 182.5 243.2 182.1 243.7 182.1 C 244.1 182.1 244.5 182.5 244.5 183 L 244.5 183 Z" fill="#527a94"/>
					<path d="M 247.1 183 C 247.1 183.5 246.7 183.8 246.2 183.8 C 245.7 183.8 245.4 183.5 245.4 183 C 245.4 182.5 245.7 182.1 246.2 182.1 C 246.7 182.1 247.1 182.5 247.1 183 L 247.1 183 Z" fill="#527a94"/>
					<path d="M 249.7 183 C 249.7 183.5 249.3 183.8 248.8 183.8 C 248.3 183.8 247.9 183.5 247.9 183 C 247.9 182.5 248.3 182.1 248.8 182.1 C 249.3 182.1 249.7 182.5 249.7 183 L 249.7 183 Z" fill="#527a94"/>
					<path d="M 252.3 183 C 252.3 183.5 251.9 183.8 251.4 183.8 C 250.9 183.8 250.5 183.5 250.5 183 C 250.5 182.5 250.9 182.1 251.4 182.1 C 251.9 182.1 252.3 182.5 252.3 183 L 252.3 183 Z" fill="#527a94"/>
					<path d="M 254.9 183 C 254.9 183.5 254.4 183.8 253.9 183.8 C 253.5 183.8 253.1 183.5 253.1 183 C 253.1 182.5 253.5 182.1 253.9 182.1 C 254.4 182.1 254.9 182.5 254.9 183 L 254.9 183 Z" fill="#527a94"/>
				</g>
				<path d="M 130.9 177.1 L 125 168.4 L 127.5 166.7 L 131.3 172.2 L 148.7 153.7 L 150.9 155.7 L 130.9 177.1 Z" fill="#c56666"/>
			</g>
			<g>
				<g>
					<path d="M 164.8 220 C 164.8 220.5 164.4 220.9 163.9 220.9 C 163.4 220.9 163 220.5 163 220 C 163 219.5 163.4 219.1 163.9 219.1 C 164.4 219.1 164.8 219.5 164.8 220 L 164.8 220 Z" fill="#527a94"/>
					<path d="M 167.4 220 C 167.4 220.5 167 220.9 166.5 220.9 C 166 220.9 165.6 220.5 165.6 220 C 165.6 219.5 166 219.1 166.5 219.1 C 167 219.1 167.4 219.5 167.4 220 L 167.4 220 Z" fill="#527a94"/>
					<path d="M 169.9 220 C 169.9 220.5 169.5 220.9 169.1 220.9 C 168.6 220.9 168.2 220.5 168.2 220 C 168.2 219.5 168.6 219.1 169.1 219.1 C 169.5 219.1 169.9 219.5 169.9 220 L 169.9 220 Z" fill="#527a94"/>
					<path d="M 172.5 220 C 172.5 220.5 172.1 220.9 171.6 220.9 C 171.1 220.9 170.8 220.5 170.8 220 C 170.8 219.5 171.1 219.1 171.6 219.1 C 172.1 219.1 172.5 219.5 172.5 220 L 172.5 220 Z" fill="#527a94"/>
					<path d="M 175.1 220 C 175.1 220.5 174.7 220.9 174.2 220.9 C 173.7 220.9 173.3 220.5 173.3 220 C 173.3 219.5 173.7 219.1 174.2 219.1 C 174.7 219.1 175.1 219.5 175.1 220 L 175.1 220 Z" fill="#527a94"/>
					<path d="M 177.7 220 C 177.7 220.5 177.3 220.9 176.8 220.9 C 176.3 220.9 175.9 220.5 175.9 220 C 175.9 219.5 176.3 219.1 176.8 219.1 C 177.3 219.1 177.7 219.5 177.7 220 L 177.7 220 Z" fill="#527a94"/>
					<path d="M 180.2 220 C 180.2 220.5 179.8 220.9 179.3 220.9 C 178.9 220.9 178.5 220.5 178.5 220 C 178.5 219.5 178.9 219.1 179.3 219.1 C 179.8 219.1 180.2 219.5 180.2 220 L 180.2 220 Z" fill="#527a94"/>
					<path d="M 182.8 220 C 182.8 220.5 182.4 220.9 181.9 220.9 C 181.4 220.9 181 220.5 181 220 C 181 219.5 181.4 219.1 181.9 219.1 C 182.4 219.1 182.8 219.5 182.8 220 L 182.8 220 Z" fill="#527a94"/>
					<path d="M 185.4 220 C 185.4 220.5 185 220.9 184.5 220.9 C 184 220.9 183.6 220.5 183.6 220 C 183.6 219.5 184 219.1 184.5 219.1 C 185 219.1 185.4 219.5 185.4 220 L 185.4 220 Z" fill="#527a94"/>
					<path d="M 187.9 220 C 187.9 220.5 187.6 220.9 187.1 220.9 C 186.6 220.9 186.2 220.5 186.2 220 C 186.2 219.5 186.6 219.1 187.1 219.1 C 187.6 219.1 187.9 219.5 187.9 220 L 187.9 220 Z" fill="#527a94"/>
					<path d="M 190.5 220 C 190.5 220.5 190.1 220.9 189.6 220.9 C 189.1 220.9 188.8 220.5 188.8 220 C 188.8 219.5 189.1 219.1 189.6 219.1 C 190.1 219.1 190.5 219.5 190.5 220 L 190.5 220 Z" fill="#527a94"/>
					<path d="M 159.7 220 C 159.7 220.5 159.3 220.9 158.8 220.9 C 158.3 220.9 157.9 220.5 157.9 220 C 157.9 219.5 158.3 219.1 158.8 219.1 C 159.3 219.1 159.7 219.5 159.7 220 L 159.7 220 Z" fill="#527a94"/>
					<path d="M 162.2 220 C 162.2 220.5 161.8 220.9 161.3 220.9 C 160.8 220.9 160.5 220.5 160.5 220 C 160.5 219.5 160.8 219.1 161.3 219.1 C 161.8 219.1 162.2 219.5 162.2 220 L 162.2 220 Z" fill="#527a94"/>
					<path d="M 193.1 220 C 193.1 220.5 192.7 220.9 192.2 220.9 C 191.7 220.9 191.3 220.5 191.3 220 C 191.3 219.5 191.7 219.1 192.2 219.1 C 192.7 219.1 193.1 219.5 193.1 220 L 193.1 220 Z" fill="#527a94"/>
					<path d="M 195.7 220 C 195.7 220.5 195.3 220.9 194.8 220.9 C 194.3 220.9 193.9 220.5 193.9 220 C 193.9 219.5 194.3 219.1 194.8 219.1 C 195.3 219.1 195.7 219.5 195.7 220 L 195.7 220 Z" fill="#527a94"/>
					<path d="M 198.2 220 C 198.2 220.5 197.8 220.9 197.3 220.9 C 196.9 220.9 196.5 220.5 196.5 220 C 196.5 219.5 196.9 219.1 197.3 219.1 C 197.8 219.1 198.2 219.5 198.2 220 L 198.2 220 Z" fill="#527a94"/>
					<path d="M 200.8 220 C 200.8 220.5 200.4 220.9 199.9 220.9 C 199.4 220.9 199.1 220.5 199.1 220 C 199.1 219.5 199.4 219.1 199.9 219.1 C 200.4 219.1 200.8 219.5 200.8 220 L 200.8 220 Z" fill="#527a94"/>
					<path d="M 203.4 220 C 203.4 220.5 203 220.9 202.5 220.9 C 202 220.9 201.6 220.5 201.6 220 C 201.6 219.5 202 219.1 202.5 219.1 C 203 219.1 203.4 219.5 203.4 220 L 203.4 220 Z" fill="#527a94"/>
					<path d="M 206 220 C 206 220.5 205.6 220.9 205.1 220.9 C 204.6 220.9 204.2 220.5 204.2 220 C 204.2 219.5 204.6 219.1 205.1 219.1 C 205.6 219.1 206 219.5 206 220 L 206 220 Z" fill="#527a94"/>
					<path d="M 208.5 220 C 208.5 220.5 208.1 220.9 207.6 220.9 C 207.2 220.9 206.8 220.5 206.8 220 C 206.8 219.5 207.2 219.1 207.6 219.1 C 208.1 219.1 208.5 219.5 208.5 220 L 208.5 220 Z" fill="#527a94"/>
					<path d="M 211.1 220 C 211.1 220.5 210.7 220.9 210.2 220.9 C 209.7 220.9 209.3 220.5 209.3 220 C 209.3 219.5 209.7 219.1 210.2 219.1 C 210.7 219.1 211.1 219.5 211.1 220 L 211.1 220 Z" fill="#527a94"/>
					<path d="M 213.7 220 C 213.7 220.5 213.3 220.9 212.8 220.9 C 212.3 220.9 211.9 220.5 211.9 220 C 211.9 219.5 212.3 219.1 212.8 219.1 C 213.3 219.1 213.7 219.5 213.7 220 L 213.7 220 Z" fill="#527a94"/>
					<path d="M 216.3 220 C 216.3 220.5 215.9 220.9 215.4 220.9 C 214.9 220.9 214.5 220.5 214.5 220 C 214.5 219.5 214.9 219.1 215.4 219.1 C 215.9 219.1 216.3 219.5 216.3 220 L 216.3 220 Z" fill="#527a94"/>
					<path d="M 218.8 220 C 218.8 220.5 218.4 220.9 217.9 220.9 C 217.4 220.9 217 220.5 217 220 C 217 219.5 217.4 219.1 217.9 219.1 C 218.4 219.1 218.8 219.5 218.8 220 L 218.8 220 Z" fill="#527a94"/>
					<path d="M 221.4 220 C 221.4 220.5 221 220.9 220.5 220.9 C 220 220.9 219.6 220.5 219.6 220 C 219.6 219.5 220 219.1 220.5 219.1 C 221 219.1 221.4 219.5 221.4 220 L 221.4 220 Z" fill="#527a94"/>
					<path d="M 224 220 C 224 220.5 223.6 220.9 223.1 220.9 C 222.6 220.9 222.2 220.5 222.2 220 C 222.2 219.5 222.6 219.1 223.1 219.1 C 223.6 219.1 224 219.5 224 220 L 224 220 Z" fill="#527a94"/>
					<path d="M 226.5 220 C 226.5 220.5 226.1 220.9 225.7 220.9 C 225.2 220.9 224.8 220.5 224.8 220 C 224.8 219.5 225.2 219.1 225.7 219.1 C 226.1 219.1 226.5 219.5 226.5 220 L 226.5 220 Z" fill="#527a94"/>
					<path d="M 229.1 220 C 229.1 220.5 228.7 220.9 228.2 220.9 C 227.7 220.9 227.3 220.5 227.3 220 C 227.3 219.5 227.7 219.1 228.2 219.1 C 228.7 219.1 229.1 219.5 229.1 220 L 229.1 220 Z" fill="#527a94"/>
					<path d="M 231.7 220 C 231.7 220.5 231.3 220.9 230.8 220.9 C 230.3 220.9 229.9 220.5 229.9 220 C 229.9 219.5 230.3 219.1 230.8 219.1 C 231.3 219.1 231.7 219.5 231.7 220 L 231.7 220 Z" fill="#527a94"/>
					<path d="M 234.3 220 C 234.3 220.5 233.9 220.9 233.4 220.9 C 232.9 220.9 232.5 220.5 232.5 220 C 232.5 219.5 232.9 219.1 233.4 219.1 C 233.9 219.1 234.3 219.5 234.3 220 L 234.3 220 Z" fill="#527a94"/>
					<path d="M 236.8 220 C 236.8 220.5 236.4 220.9 235.9 220.9 C 235.5 220.9 235.1 220.5 235.1 220 C 235.1 219.5 235.5 219.1 235.9 219.1 C 236.4 219.1 236.8 219.5 236.8 220 L 236.8 220 Z" fill="#527a94"/>
					<path d="M 239.4 220 C 239.4 220.5 239 220.9 238.5 220.9 C 238 220.9 237.6 220.5 237.6 220 C 237.6 219.5 238 219.1 238.5 219.1 C 239 219.1 239.4 219.5 239.4 220 L 239.4 220 Z" fill="#527a94"/>
					<path d="M 242 220 C 242 220.5 241.6 220.9 241.1 220.9 C 240.6 220.9 240.2 220.5 240.2 220 C 240.2 219.5 240.6 219.1 241.1 219.1 C 241.6 219.1 242 219.5 242 220 L 242 220 Z" fill="#527a94"/>
					<path d="M 244.5 220 C 244.5 220.5 244.1 220.9 243.7 220.9 C 243.2 220.9 242.8 220.5 242.8 220 C 242.8 219.5 243.2 219.1 243.7 219.1 C 244.1 219.1 244.5 219.5 244.5 220 L 244.5 220 Z" fill="#527a94"/>
					<path d="M 247.1 220 C 247.1 220.5 246.7 220.9 246.2 220.9 C 245.7 220.9 245.4 220.5 245.4 220 C 245.4 219.5 245.7 219.1 246.2 219.1 C 246.7 219.1 247.1 219.5 247.1 220 L 247.1 220 Z" fill="#527a94"/>
					<path d="M 249.7 220 C 249.7 220.5 249.3 220.9 248.8 220.9 C 248.3 220.9 247.9 220.5 247.9 220 C 247.9 219.5 248.3 219.1 248.8 219.1 C 249.3 219.1 249.7 219.5 249.7 220 L 249.7 220 Z" fill="#527a94"/>
					<path d="M 252.3 220 C 252.3 220.5 251.9 220.9 251.4 220.9 C 250.9 220.9 250.5 220.5 250.5 220 C 250.5 219.5 250.9 219.1 251.4 219.1 C 251.9 219.1 252.3 219.5 252.3 220 L 252.3 220 Z" fill="#527a94"/>
					<path d="M 254.9 220 C 254.9 220.5 254.4 220.9 253.9 220.9 C 253.5 220.9 253.1 220.5 253.1 220 C 253.1 219.5 253.5 219.1 253.9 219.1 C 254.4 219.1 254.9 219.5 254.9 220 L 254.9 220 Z" fill="#527a94"/>
				</g>
				<path d="M 144 221.3 L 120.4 221.3 C 118.4 221.3 116.6 219.6 116.6 217.5 L 116.6 195.6 C 116.6 193.5 118.4 191.7 120.4 191.7 L 144 191.7 C 146.1 191.7 147.8 193.5 147.8 195.6 L 147.8 217.5 C 147.8 219.6 146.1 221.3 144 221.3 L 144 221.3 ZM 120.4 194.3 C 119.7 194.3 119.2 194.8 119.2 195.6 L 119.2 217.5 C 119.2 218.2 119.7 218.7 120.4 218.7 L 144 218.7 C 144.8 218.7 145.3 218.2 145.3 217.5 L 145.3 195.6 C 145.3 194.8 144.8 194.3 144 194.3 L 120.4 194.3 Z" fill="#527a94"/>
				<path d="M 130.9 214.1 L 125 205.5 L 127.5 203.8 L 131.3 209.3 L 148.7 190.7 L 150.9 192.8 L 130.9 214.1 Z" fill="#c56666"/>
			</g>
		</g>
		<g>
			<path d="M 239.8 56 C 239.8 60.8 235.4 64.8 229.9 64.8 L 149.9 64.8 C 144.4 64.8 139.9 60.8 139.9 56 L 139.9 41.2 C 139.9 36.3 144.4 32.3 149.9 32.3 L 229.9 32.3 C 235.4 32.3 239.8 36.3 239.8 41.2 L 239.8 56 Z" fill="#5a5b5c"/>
			<path d="M 239.8 53.6 C 239.8 58.4 235.4 62.4 229.9 62.4 L 149.9 62.4 C 144.4 62.4 139.9 58.4 139.9 53.6 L 139.9 38.8 C 139.9 33.9 144.4 29.9 149.9 29.9 L 229.9 29.9 C 235.4 29.9 239.8 33.9 239.8 38.8 L 239.8 53.6 Z" fill="url(#gradient3)"/>
			<path d="M 204.4 29.7 C 204.4 37.7 197.9 44.2 189.9 44.2 C 181.9 44.2 175.4 37.7 175.4 29.7 C 175.4 21.7 181.9 15.1 189.9 15.1 C 197.9 15.1 204.4 21.7 204.4 29.7 L 204.4 29.7 Z" fill="url(#gradient4)"/>
			<path d="M 196 29.7 C 196 32.9 193.4 35.4 190.3 35.4 C 187.1 35.4 184.5 32.9 184.5 29.7 C 184.5 26.5 187.1 23.9 190.3 23.9 C 193.4 23.9 196 26.5 196 29.7 L 196 29.7 Z" fill="#7798a5"/>
			<path d="M 190.3 23.9 C 190.1 23.9 190 23.9 189.9 23.9 C 192.9 24.1 195.3 26.6 195.3 29.7 C 195.3 32.8 192.9 35.2 189.9 35.4 C 190 35.4 190.1 35.4 190.3 35.4 C 193.4 35.4 196 32.9 196 29.7 C 196 26.5 193.4 23.9 190.3 23.9 L 190.3 23.9 Z" fill="#628591"/>
		</g>
		<g>
			<path d="M 129 72.9 C 129 103.9 103.9 129 72.9 129 C 41.9 129 16.8 103.9 16.8 72.9 C 16.8 41.9 41.9 16.8 72.9 16.8 C 103.9 16.8 129 41.9 129 72.9 Z" fill="#ffffff"/>
			<g>
				<path d="M 72.9 28.6 C 48.4 28.6 28.6 48.4 28.6 72.9 C 28.6 97.4 48.4 117.2 72.9 117.2 C 97.4 117.2 117.2 97.4 117.2 72.9 C 117.2 48.4 97.4 28.6 72.9 28.6 ZM 97.8 75 C 97.8 77 96.1 78.6 94.1 78.6 L 78.6 78.6 L 78.6 94.1 C 78.6 96.2 77 97.8 74.9 97.8 L 70.8 97.8 C 68.8 97.8 67.2 96.2 67.2 94.1 L 67.2 78.6 L 51.7 78.6 C 49.7 78.6 48 77 48 75 L 48 70.9 C 48 68.8 49.7 67.2 51.7 67.2 L 67.2 67.2 L 67.2 51.7 C 67.2 49.7 68.8 48 70.8 48 L 74.9 48 C 77 48 78.6 49.7 78.6 51.7 L 78.6 67.2 L 94.1 67.2 C 96.1 67.2 97.8 68.8 97.8 70.9 L 97.8 75 Z" fill="#8bc540"/>
				<path d="M 145.5 72.9 C 145.5 66.9 133.8 62.5 132.3 57 C 130.7 51.3 138.7 41.6 135.8 36.6 C 132.9 31.5 120.5 33.6 116.3 29.4 C 112.2 25.3 114.3 13 109.2 10 C 108.5 9.5 107.6 9.4 106.6 9.4 C 101.9 9.4 95.2 13.7 90.4 13.7 C 89.9 13.7 89.3 13.7 88.8 13.5 C 83.3 12.1 78.9 0.3 72.9 0.3 C 66.9 0.3 62.5 12.1 57 13.5 C 56.5 13.7 55.9 13.7 55.3 13.7 C 50.6 13.7 43.9 9.4 39.2 9.4 C 38.2 9.4 37.4 9.5 36.6 10 C 31.5 13 33.6 25.3 29.4 29.4 C 25.3 33.6 12.9 31.5 10 36.6 C 7.1 41.6 15.1 51.3 13.5 57 C 12 62.5 0.3 66.9 0.3 72.9 C 0.3 78.9 12 83.3 13.5 88.8 C 15.1 94.5 7.1 104.2 10 109.2 C 12.9 114.3 25.3 112.2 29.4 116.4 C 33.6 120.5 31.5 132.9 36.6 135.8 C 37.4 136.3 38.3 136.4 39.2 136.4 C 44 136.4 50.6 132.1 55.4 132.1 C 55.9 132.1 56.5 132.1 57 132.3 C 62.5 133.7 66.9 145.5 72.9 145.5 C 78.9 145.5 83.3 133.7 88.8 132.3 C 89.3 132.1 89.9 132.1 90.4 132.1 C 95.2 132.1 101.8 136.4 106.5 136.4 C 107.5 136.4 108.4 136.3 109.2 135.8 C 114.3 132.9 112.2 120.5 116.3 116.4 C 120.5 112.2 132.9 114.3 135.8 109.2 C 138.7 104.2 130.7 94.5 132.3 88.8 C 133.8 83.3 145.5 78.9 145.5 72.9 ZM 72.9 22.9 C 100.5 22.9 122.9 45.3 122.9 72.9 C 122.9 100.5 100.5 122.9 72.9 122.9 C 45.3 122.9 22.9 100.5 22.9 72.9 C 22.9 45.3 45.3 22.9 72.9 22.9 ZM 137.8 65.2 C 140.3 67.2 142.8 69.3 143.7 71.4 C 142.5 69.9 140.7 68.4 138.9 67 C 136.4 64.9 133.7 62.8 132.5 60.3 C 133.9 62.1 135.9 63.7 137.8 65.2 ZM 125.4 33.9 C 129.3 34.5 133.3 35.2 134.6 37.3 C 134.7 37.5 134.8 37.8 134.9 38.1 C 133.2 36.7 129.8 36.1 126.5 35.6 C 122.7 35 118.7 34.4 116.5 32.2 C 115.9 31.6 115.4 30.9 115.1 30.1 L 115.1 30.1 C 115.2 30.2 115.3 30.3 115.4 30.4 C 117.6 32.7 121.6 33.3 125.4 33.9 ZM 8 65.2 C 11 62.8 14.1 60.3 14.9 57.4 C 15.7 54.2 14.2 50.4 12.8 46.7 C 11.4 43.1 10 39.4 11.2 37.3 C 12.5 35.1 16.5 34.5 20.3 33.9 C 24.2 33.3 28.2 32.7 30.4 30.4 C 32.7 28.2 33.3 24.2 33.9 20.3 C 34.5 16.5 35.1 12.5 37.3 11.2 C 37.8 10.9 38.4 10.8 39.2 10.8 C 41.3 10.8 44.1 11.8 46.7 12.8 C 49.7 14 52.7 15.1 55.4 15.1 C 56.1 15.1 56.7 15.1 57.4 14.9 C 60.3 14.1 62.8 11 65.2 8 C 67.7 4.9 70.3 1.7 72.9 1.7 C 75.5 1.7 78.1 4.9 80.6 8 C 83 11 85.5 14.1 88.4 14.9 C 89.1 15.1 89.7 15.1 90.4 15.1 C 93.1 15.1 96.1 14 99 12.9 C 101.7 11.8 104.5 10.8 106.5 10.8 C 107.3 10.8 108 10.9 108.5 11.2 C 109.2 11.6 109.8 12.4 110.2 13.4 L 110.2 13.4 C 110 13.2 109.8 13.1 109.6 12.9 C 109.1 12.6 108.5 12.5 107.7 12.5 C 105.6 12.5 102.8 13.5 100.1 14.6 C 97.2 15.7 94.2 16.9 91.5 16.9 C 90.8 16.9 90.2 16.8 89.5 16.6 C 86.6 15.8 84.1 12.7 81.7 9.7 C 79.1 6.6 76.6 3.4 74 3.4 C 71.4 3.4 68.8 6.6 66.3 9.7 C 63.9 12.7 61.4 15.8 58.5 16.6 C 57.8 16.8 57.2 16.9 56.5 16.9 C 53.8 16.9 50.8 15.7 47.8 14.5 C 45.2 13.5 42.4 12.5 40.4 12.5 C 39.6 12.5 38.9 12.6 38.4 12.9 C 36.2 14.2 35.6 18.2 35 22.1 C 34.4 25.9 33.8 29.9 31.5 32.2 C 29.3 34.4 25.3 35 21.4 35.6 C 17.6 36.2 13.6 36.8 12.3 39 C 11.1 41.1 12.5 44.8 13.9 48.4 C 15.4 52.1 16.8 55.9 16 59.1 C 15.2 62.1 12.1 64.6 9.1 67 C 6 69.5 2.8 72 2.8 74.6 C 2.8 75.2 2.9 75.7 3.2 76.2 C 2.3 75.1 1.7 74 1.7 72.9 C 1.7 70.3 4.9 67.8 8 65.2 ZM 11.2 108.5 C 10 106.4 11.4 102.7 12.8 99.1 C 14.2 95.4 15.7 91.6 14.9 88.5 C 14.8 88 14.6 87.6 14.4 87.2 C 15.1 88.1 15.7 89.1 16 90.2 C 16.8 93.3 15.4 97.1 13.9 100.8 C 12.7 104 11.5 107.2 12 109.4 C 11.7 109.1 11.4 108.9 11.2 108.5 ZM 33.9 125.5 C 33.5 122.6 33 119.7 31.9 117.6 C 33.8 119.9 34.4 123.6 35 127.2 C 35.4 129.7 35.8 132.2 36.6 134.1 C 35 132.4 34.4 128.9 33.9 125.5 Z" fill="#8bc540"/>
			</g>
		</g>
		<g>
			<path d="M 107.3 278.1 L 128.5 302.8 C 128.5 302.8 138 275.3 169.3 247.9 C 169.3 247.9 140.3 266.6 126.4 290 L 107.3 278.1 Z" fill="#8bc540"/>
			<path d="M 128.7 304 L 106.8 278.5 L 107.6 277.6 L 126.2 289.2 C 140.1 266.2 168.7 247.6 169 247.4 L 169.7 248.4 C 138.9 275.3 129.1 302.7 129 303 L 128.7 304 ZM 110.3 280.8 L 128.3 301.6 C 130.1 296.9 139.2 276 161.7 254.1 C 152.2 261.3 136.1 274.8 127 290.3 L 126.6 290.9 L 110.3 280.8 Z" fill="#019045"/>
		</g>
		<g>
			<g>
				<g opacity="0.6">
					<path d="M 292.4 160 C 285.3 166.7 188.5 270.6 185.2 275.1 C 184.7 274.5 184.2 275.7 183.9 276.1 C 183.4 276.7 183.3 277.5 183.8 278.1 C 183.7 278 183.6 278 183.6 278.1 L 183.3 279.2 C 183.3 279.4 183.3 279.6 183.4 279.7 C 172.9 289.5 172 288.5 170 289.6 C 168.1 290.8 166.6 292.5 165.6 294.9 C 164.6 297.3 160.7 306.4 159.1 309.7 C 158.6 310.8 157.6 310.8 158.2 311.6 L 158.2 311.6 L 158.7 312.1 L 158.7 312.1 C 159.5 312.8 159.6 311.8 160.7 311.4 C 164.1 310 173.4 306.7 175.9 305.9 C 178.3 305.1 180.1 303.7 181.4 301.9 C 182.7 300 181.8 299 192.3 289.2 C 192.4 289.3 192.6 289.3 192.7 289.3 L 193.8 289.1 C 194 289.1 194 289 193.9 288.8 C 194.4 289.4 195.3 289.3 195.9 288.9 C 196.3 288.7 197.5 288.2 197 287.6 C 206.4 281.8 230.3 258.6 230.3 258.6 C 230.5 258.8 230.9 258.8 231.1 258.6 L 231.5 258.2 C 231.7 258 231.7 257.7 231.5 257.5 C 231.8 257.8 232.4 257.9 232.7 257.6 C 233 257.4 233.8 256.7 233.5 256.4 C 233.5 256.4 247.7 241.6 292.4 192.9 L 292.4 160 Z" fill="url(#gradient5)"/>
				</g>
				<path d="M 292 193.3 L 305.1 178.4 L 305.1 142.8 L 292 160.4 L 292 193.3 Z" fill="#87634a"/>
			</g>
			<g>
				<g>
					<path d="M 161.7 293.6 C 161.1 296.1 158.7 305.7 157.7 309.2 C 157.3 310.4 156.4 310.6 157.1 311.3 C 157.2 311.4 157.6 311.7 157.7 311.7 C 158.6 312.3 158.5 311.3 159.6 310.7 C 162.7 308.8 171.4 304 173.6 302.8 C 175.9 301.6 177.5 300 178.5 297.9 C 179.5 295.8 178.3 295 187.1 283.6 L 176.9 275.7 C 168.1 287.1 167 286.2 165.2 287.7 C 163.5 289.2 162.3 291.1 161.7 293.6 Z" fill="url(#gradient6)"/>
					<path d="M 176.8 274.2 C 176.8 274 176.9 273.9 177 274 L 188.7 283 C 188.8 283.1 188.8 283.3 188.6 283.3 L 187.6 283.7 C 187.5 283.7 187.2 283.7 187.1 283.6 L 176.9 275.7 C 176.7 275.6 176.6 275.4 176.7 275.3 L 176.8 274.2 Z" fill="url(#gradient7)"/>
					<path d="M 203.7 234.9 L 219.7 247.3 C 219.7 247.3 199.9 274.1 191.5 281.4 L 177.9 270.9 C 182.8 260.9 203.7 234.9 203.7 234.9 Z" fill="url(#gradient8)"/>
					<path d="M 203.9 233.7 C 204.1 233.5 204.5 233.4 204.7 233.6 L 220.7 246 C 221 246.2 221 246.5 220.8 246.8 L 220.5 247.2 C 220.3 247.4 220 247.5 219.7 247.3 L 203.7 234.9 C 203.5 234.7 203.4 234.4 203.6 234.2 L 203.9 233.7 Z" fill="url(#gradient9)"/>
					<path d="M 279.3 174.9 L 258.8 159.1 C 231.3 194.6 205.6 231.6 205.6 231.6 L 222.5 244.6 C 222.5 244.6 251.9 210.5 279.3 174.9 Z" fill="url(#gradient10)"/>
					<path d="M 177.9 270.9 L 191.5 281.4 C 192.1 281.8 191 282.5 190.7 282.8 C 190.1 283.3 189.3 283.5 188.7 283 L 177 274 C 176.4 273.6 176.4 272.7 176.8 272.1 C 176.9 271.7 177.3 270.4 177.9 270.9 Z" fill="url(#gradient11)"/>
					<path d="M 205.6 231.6 L 222.5 244.6 C 222.8 244.9 222.2 245.7 221.9 246 C 221.7 246.3 221.1 246.3 220.7 246 L 204.7 233.6 C 204.4 233.4 204.3 232.9 204.6 232.6 C 204.8 232.3 205.3 231.3 205.6 231.6 Z" fill="url(#gradient12)"/>
					<path d="M 282.5 172.7 L 260.1 155.4 C 259.8 155.2 258.5 158.2 258.5 158.2 C 258.4 158.5 258.5 158.9 258.8 159.1 L 279.3 174.9 C 279.5 175.1 280 175.1 280.2 174.9 C 280.2 174.9 282.7 172.9 282.5 172.7 Z" fill="url(#gradient13)"/>
					<path d="M 170 298.4 C 170.7 297.5 170.5 296.3 169.7 295.6 C 168.8 295 167.6 295.1 166.9 296 C 166.4 296.7 166.4 297.8 167 298.4 L 157.1 311.3 L 157.7 311.7 L 167.6 298.9 C 168.4 299.3 169.4 299.1 170 298.4 Z" fill="#000101"/>
				</g>
				<g>
					<path d="M 350.2 76.1 C 351.1 74.8 350.8 73 349.6 72.1 L 340.3 65 C 339.1 64 337.4 64.2 336.4 65.4 C 316.8 87.4 297 107.5 260.1 155.4 L 282.5 172.7 C 319.3 124.9 333.9 100.6 350.2 76.1 Z" fill="url(#gradient14)"/>
					<path d="M 350.2 76.1 C 351.1 74.8 350.8 73 349.6 72.1 L 340.3 65 C 339.1 64 337.4 64.2 336.4 65.4 L 350.2 76.1 Z" fill="url(#gradient15)"/>
					<path d="M 345.8 67.4 C 341.2 63.9 340.3 65 340.3 65 L 349.6 72.1 C 349.6 72.1 350.5 71 345.8 67.4 Z" fill="url(#gradient16)"/>
					<path d="M 291.3 146.1 C 289.5 148.5 286.2 149.1 284.1 147.5 C 282 145.8 281.8 142.5 283.6 140.1 C 283.6 140.1 286.6 140.7 293.2 132.2 C 299.8 123.7 336.1 72.1 336.1 72.1 C 339.4 67.7 336.4 65.4 336.4 65.4 L 350.2 76.1 C 350.2 76.1 347.2 73.7 343.8 78.1 C 343.8 78.1 303.1 126.3 296.6 134.8 C 290 143.3 291.3 146.1 291.3 146.1 Z" fill="url(#gradient17)"/>
				</g>
			</g>
		</g>
	</g>
</svg>