<?xml version="1.0" standalone="no"?>

<svg viewBox="0 0 20 24" style="background-color:#ffffff00" version="1.1" xmlns="http://www.w3.org/2000/svg" xmlns:xlink="http://www.w3.org/1999/xlink" xml:space="preserve" x="0px" y="0px" width="100%" height="100%">
	<g>
		<g>
			<g>
				<g>
					<path d="M 12.7 6.1 C 12.7 7.1 12.7 8.1 12.7 9.1 C 14.7 10.1 16.2 12.2 16.2 14.6 C 16.2 17.9 13.4 20.7 10 20.7 C 6.6 20.7 3.8 17.9 3.8 14.6 C 3.8 12.2 5.2 10.1 7.3 9.1 C 7.2 8.1 7.2 7.1 7.2 6.1 C 3.6 7.3 1 10.6 1 14.6 C 1 19.5 5 23.5 10 23.5 C 15 23.5 19 19.5 19 14.6 C 19 10.6 16.3 7.2 12.7 6.1 Z" fill="#d90000"/>
					<path d="M 12 11.9 C 12 13 11.1 13.8 10 13.8 L 10 13.8 C 8.9 13.8 8 13 8 11.9 L 8 4.4 C 8 3.4 8.9 2.5 10 2.5 L 10 2.5 C 11.1 2.5 12 3.4 12 4.4 L 12 11.9 Z" fill="#d90000"/>
				</g>
			</g>
		</g>
	</g>
</svg>