<?xml version="1.0" encoding="utf-8"?>
<!-- Generator: Adobe Illustrator 16.0.0, SVG Export Plug-In . SVG Version: 6.00 Build 0)  -->
<!DOCTYPE svg PUBLIC "-//W3C//DTD SVG 1.1//EN" "http://www.w3.org/Graphics/SVG/1.1/DTD/svg11.dtd">

<svg version="1.1" id="Layer_1" xmlns="http://www.w3.org/2000/svg" xmlns:xlink="http://www.w3.org/1999/xlink" x="0px" y="0px" width="100%" height="100%" viewBox="244.094 0 134.993 792" enable-background="new 244.094 0 134.993 792"
	 xml:space="preserve">
	 
<path fill="none" d="z"/>
<path display="none" fill="#56AE00" stroke="#2B880B" stroke-width="2" d="M339,122.1v643.5c0,10.891-8.91,19.801-19.8,19.801h-49.5
	c-10.89,0-19.8-8.91-19.8-19.801l3.3-645.149L339,122.1z"/>
<g>
	<g opacity="0.6">
		<path display="none" fill="#FFFFFF" stroke="#489100" stroke-width="2" d="M289.5,519.75v4.95l19.8,7.92l-19.8,8.58v4.95h29.7
			v-3.301h-25.41l20.46-8.58v-2.64l-20.46-8.58h25.41v-3.3H289.5L289.5,519.75z"/>
		<path display="none" fill="#FFFFFF" stroke="#489100" stroke-width="2" d="M289.5,497.31l14.52,7.591l-14.52,7.92v3.63l17.16-9.9
			h12.54v-3.3H306l-16.5-9.9V497.31L289.5,497.31z"/>
		<path display="none" fill="#FFFFFF" stroke="#489100" stroke-width="2" d="M294.45,458.04c-0.99,0.66-2.31,1.65-2.97,2.64
			c-0.66,0.99-0.99,2.311-1.32,3.301c-0.33,1.319-0.66,2.97-0.66,4.619v8.25h29.7v-3.3h-9.9v-4.29c0-2.31-0.33-3.96-0.66-5.609
			c-0.659-1.32-1.649-2.641-2.64-3.96c-0.66-0.66-1.98-1.32-2.97-1.98c-1.32-0.33-2.64-0.66-3.96-0.66
			C297.09,457.05,295.77,457.38,294.45,458.04L294.45,458.04z M301.71,460.68c0.99,0.33,1.65,0,2.31-0.66
			c0.66,2.311,1.32,3.961,1.65,5.28c0.33,0.99,0.33,2.641,0.33,4.29v3.96h-13.2v-4.62c0-1.319,0-2.64,0.33-3.63
			c0.33-0.66,0.66-1.979,0.99-3.63c0.33,0,1.32-0.33,1.98-0.66c0.99-0.33,1.98-0.66,2.97-0.66
			C300.06,460.35,301.05,460.35,301.71,460.68L301.71,460.68z"/>
		<path display="none" fill="#FFFFFF" stroke="#489100" stroke-width="2" d="M305.01,441.54c-0.66-2.31-1.65-4.29-2.97-5.61
			c-1.32-1.319-2.97-1.979-4.95-1.979c-1.65,0-2.64,0.33-3.63,0.99c-0.99,0.659-1.98,1.319-2.31,2.64
			c-0.66,0.99-0.99,1.979-1.32,3.3c-0.33,0.99-0.33,2.64-0.33,4.29v8.58h29.7v-3.3H306v-5.94l13.2-10.89v-2.97L305.01,441.54
			L305.01,441.54z M299.73,437.91c0.66,0.33,0.99,0.33,1.65,0.66c0.66,1.319,0.99,2.31,0.99,3.63c0.33,0.99,0.33,2.31,0.33,3.63
			v4.62h-9.9v-5.28c0-1.32,0-2.31,0.33-3.3c0-0.99,0.33-1.65,0.66-2.311c0.33-0.989,0.66-1.319,1.32-1.649
			c0.66-0.33,1.32-0.66,1.98-0.66C298.08,437.25,299.07,437.58,299.73,437.91L299.73,437.91z"/>
		<path display="none" fill="#FFFFFF" stroke="#489100" stroke-width="2" d="M290.49,408.54c-0.66,1.65-0.99,3.63-0.99,5.61
			c0,1.979,0.33,3.96,0.99,5.609c0.66,1.65,1.65,2.971,2.97,3.96c1.32,1.32,2.64,1.98,4.62,2.641c1.98,0.659,3.96,0.989,6.27,0.989
			s4.62-0.33,6.27-0.989c1.979-0.66,3.63-1.32,4.62-2.641c1.319-0.989,2.31-2.31,2.97-3.96c0.66-1.649,0.99-3.63,0.99-5.609
			c0-1.98-0.33-3.96-0.99-5.28c-0.66-1.65-1.65-2.97-2.97-4.29c-0.99-0.99-2.641-1.98-4.62-2.64c-1.65-0.66-3.96-0.99-6.27-0.99
			s-4.29,0.33-6.27,0.99c-1.98,0.659-3.3,1.649-4.62,2.64S291.15,407.22,290.49,408.54L290.49,408.54z M312.93,406.89
			c1.98,1.98,2.971,4.29,2.971,7.261c0,2.97-0.99,5.609-2.971,7.26c-1.979,1.649-4.949,2.64-8.58,2.64c-3.63,0-6.6-0.99-8.58-2.64
			c-1.98-1.65-2.97-4.29-2.97-7.26c0-2.971,0.99-5.61,2.97-7.261c1.98-1.649,4.95-2.64,8.58-2.64
			C307.98,404.25,310.95,405.24,312.93,406.89L312.93,406.89z"/>
		<path display="none" fill="#FFFFFF" stroke="#489100" stroke-width="2" d="M289.5,377.85v19.8h29.7v-3.3H306v-13.2h-3.3v13.2h-9.9
			v-16.5H289.5L289.5,377.85z"/>
		<path display="none" fill="#FFFFFF" stroke="#489100" stroke-width="2" d="M315.9,364.65v3.3H292.8v-3.3h-3.3v9.9h3.3v-3.3H315.9
			v3.3h3.3v-9.9H315.9L315.9,364.65z"/>
		<path display="none" fill="#FFFFFF" stroke="#489100" stroke-width="2" d="M315.9,338.25v16.5h-26.4v3.3h29.7v-19.8H315.9
			L315.9,338.25z"/>
		<path display="none" fill="#FFFFFF" stroke="#489100" stroke-width="2" d="M315.9,315.15v16.5H306v-16.5h-3.3v16.5h-9.9v-16.5
			h-3.3v19.8h29.7v-19.8H315.9L315.9,315.15z"/>
	</g>
	<g>
		<path display="none" fill="#FFFFFF" d="M289.5,516.45v4.95l19.8,7.92l-19.8,8.58v4.949h29.7v-3.3h-25.41l20.46-8.58v-2.64
			l-20.46-8.58h25.41v-3.3H289.5L289.5,516.45z"/>
		<path display="none" fill="#FFFFFF" d="M289.5,494.01l14.52,7.59l-14.52,7.92v3.631l17.16-9.9h12.54v-3.3H306l-16.5-9.9V494.01
			L289.5,494.01z"/>
		<path display="none" fill="#FFFFFF" d="M294.45,454.74c-0.99,0.66-2.31,1.649-2.97,2.64s-0.99,2.311-1.32,3.3
			c-0.33,1.32-0.66,2.971-0.66,4.62v8.25h29.7v-3.3h-9.9v-4.29c0-2.31-0.33-3.96-0.66-5.61c-0.659-1.319-1.649-2.64-2.64-3.96
			c-0.66-0.659-1.98-1.319-2.97-1.979c-1.32-0.33-2.64-0.66-3.96-0.66C297.09,453.75,295.77,454.08,294.45,454.74L294.45,454.74z
			 M301.71,457.38c0.99,0.33,1.65,0,2.31-0.66c0.66,2.311,1.32,3.96,1.65,5.28c0.33,0.99,0.33,2.64,0.33,4.29v3.96h-13.2v-4.62
			c0-1.32,0-2.64,0.33-3.63c0.33-0.66,0.66-1.98,0.99-3.63c0.33,0,1.32-0.33,1.98-0.66c0.99-0.33,1.98-0.66,2.97-0.66
			C300.06,457.05,301.05,457.05,301.71,457.38L301.71,457.38z"/>
		<path display="none" fill="#FFFFFF" d="M305.01,438.24c-0.66-2.311-1.65-4.29-2.97-5.61s-2.97-1.979-4.95-1.979
			c-1.65,0-2.64,0.33-3.63,0.989c-0.99,0.66-1.98,1.32-2.31,2.641c-0.66,0.989-0.99,1.979-1.32,3.3c-0.33,0.99-0.33,2.64-0.33,4.29
			v8.58h29.7v-3.3H306v-5.94l13.2-10.89v-2.971L305.01,438.24L305.01,438.24z M299.73,434.61c0.66,0.33,0.99,0.33,1.65,0.659
			c0.66,1.32,0.99,2.311,0.99,3.631c0.33,0.989,0.33,2.31,0.33,3.63v4.62h-9.9v-5.28c0-1.32,0-2.311,0.33-3.3
			c0-0.99,0.33-1.65,0.66-2.311c0.33-0.99,0.66-1.319,1.32-1.649c0.66-0.33,1.32-0.66,1.98-0.66
			C298.08,433.95,299.07,434.28,299.73,434.61L299.73,434.61z"/>
		<path display="none" fill="#FFFFFF" d="M290.49,405.24c-0.66,1.649-0.99,3.63-0.99,5.609c0,1.98,0.33,3.96,0.99,5.61
			c0.66,1.65,1.65,2.97,2.97,3.96c1.32,1.32,2.64,1.98,4.62,2.64c1.98,0.66,3.96,0.99,6.27,0.99s4.62-0.33,6.27-0.99
			c1.979-0.659,3.63-1.319,4.62-2.64c1.319-0.99,2.31-2.31,2.97-3.96s0.99-3.63,0.99-5.61c0-1.979-0.33-3.96-0.99-5.279
			c-0.66-1.65-1.65-2.971-2.97-4.29c-0.99-0.99-2.641-1.98-4.62-2.641c-1.65-0.659-3.96-0.989-6.27-0.989s-4.29,0.33-6.27,0.989
			c-1.98,0.66-3.3,1.65-4.62,2.641C292.14,402.27,291.15,403.92,290.49,405.24L290.49,405.24z M312.93,403.59
			c1.98,1.98,2.971,4.29,2.971,7.26c0,2.971-0.99,5.61-2.971,7.261c-1.979,1.649-4.949,2.64-8.58,2.64c-3.63,0-6.6-0.99-8.58-2.64
			c-1.98-1.65-2.97-4.29-2.97-7.261c0-2.97,0.99-5.609,2.97-7.26c1.98-1.649,4.95-2.64,8.58-2.64
			C307.98,400.95,310.95,401.94,312.93,403.59L312.93,403.59z"/>
		<path display="none" fill="#FFFFFF" d="M289.5,374.55v19.8h29.7v-3.3H306v-13.2h-3.3v13.2h-9.9v-16.5H289.5L289.5,374.55z"/>
		<path display="none" fill="#FFFFFF" d="M315.9,361.35v3.3H292.8v-3.3h-3.3v9.9h3.3v-3.3H315.9v3.3h3.3v-9.9H315.9L315.9,361.35z"
			/>
		<path display="none" fill="#FFFFFF" d="M315.9,334.95v16.5h-26.4v3.3h29.7v-19.8H315.9L315.9,334.95z"/>
		<path display="none" fill="#FFFFFF" d="M315.9,311.85v16.5H306v-16.5h-3.3v16.5h-9.9v-16.5h-3.3v19.8h29.7v-19.8H315.9
			L315.9,311.85z"/>
	</g>
	<g>
		<path display="none" fill="#FFFFFF" d="M289.5,516.45v4.95l19.8,7.92l-19.8,8.58v4.949h29.7v-3.3h-25.41l20.46-8.58v-2.64
			l-20.46-8.58h25.41v-3.3H289.5L289.5,516.45z"/>
		<path display="none" fill="#FFFFFF" d="M289.5,494.01l14.52,7.59l-14.52,7.92v3.631l17.16-9.9h12.54v-3.3H306l-16.5-9.9V494.01
			L289.5,494.01z"/>
		<path display="none" fill="#FFFFFF" d="M294.45,454.74c-0.99,0.66-2.31,1.649-2.97,2.64s-0.99,2.311-1.32,3.3
			c-0.33,1.32-0.66,2.971-0.66,4.62v8.25h29.7v-3.3h-9.9v-4.29c0-2.31-0.33-3.96-0.66-5.61c-0.659-1.319-1.649-2.64-2.64-3.96
			c-0.66-0.659-1.98-1.319-2.97-1.979c-1.32-0.33-2.64-0.66-3.96-0.66C297.09,453.75,295.77,454.08,294.45,454.74L294.45,454.74z
			 M301.71,457.38c0.99,0.33,1.65,0,2.31-0.66c0.66,2.311,1.32,3.96,1.65,5.28c0.33,0.99,0.33,2.64,0.33,4.29v3.96h-13.2v-4.62
			c0-1.32,0-2.64,0.33-3.63c0.33-0.66,0.66-1.98,0.99-3.63c0.33,0,1.32-0.33,1.98-0.66c0.99-0.33,1.98-0.66,2.97-0.66
			C300.06,457.05,301.05,457.05,301.71,457.38L301.71,457.38z"/>
		<path display="none" fill="#FFFFFF" d="M305.01,438.24c-0.66-2.311-1.65-4.29-2.97-5.61s-2.97-1.979-4.95-1.979
			c-1.65,0-2.64,0.33-3.63,0.989c-0.99,0.66-1.98,1.32-2.31,2.641c-0.66,0.989-0.99,1.979-1.32,3.3c-0.33,0.99-0.33,2.64-0.33,4.29
			v8.58h29.7v-3.3H306v-5.94l13.2-10.89v-2.971L305.01,438.24L305.01,438.24z M299.73,434.61c0.66,0.33,0.99,0.33,1.65,0.659
			c0.66,1.32,0.99,2.311,0.99,3.631c0.33,0.989,0.33,2.31,0.33,3.63v4.62h-9.9v-5.28c0-1.32,0-2.311,0.33-3.3
			c0-0.99,0.33-1.65,0.66-2.311c0.33-0.99,0.66-1.319,1.32-1.649c0.66-0.33,1.32-0.66,1.98-0.66
			C298.08,433.95,299.07,434.28,299.73,434.61L299.73,434.61z"/>
		<path display="none" fill="#FFFFFF" d="M290.49,405.24c-0.66,1.649-0.99,3.63-0.99,5.609c0,1.98,0.33,3.96,0.99,5.61
			c0.66,1.65,1.65,2.97,2.97,3.96c1.32,1.32,2.64,1.98,4.62,2.64c1.98,0.66,3.96,0.99,6.27,0.99s4.62-0.33,6.27-0.99
			c1.979-0.659,3.63-1.319,4.62-2.64c1.319-0.99,2.31-2.31,2.97-3.96s0.99-3.63,0.99-5.61c0-1.979-0.33-3.96-0.99-5.279
			c-0.66-1.65-1.65-2.971-2.97-4.29c-0.99-0.99-2.641-1.98-4.62-2.641c-1.65-0.659-3.96-0.989-6.27-0.989s-4.29,0.33-6.27,0.989
			c-1.98,0.66-3.3,1.65-4.62,2.641C292.14,402.27,291.15,403.92,290.49,405.24L290.49,405.24z M312.93,403.59
			c1.98,1.98,2.971,4.29,2.971,7.26c0,2.971-0.99,5.61-2.971,7.261c-1.979,1.649-4.949,2.64-8.58,2.64c-3.63,0-6.6-0.99-8.58-2.64
			c-1.98-1.65-2.97-4.29-2.97-7.261c0-2.97,0.99-5.609,2.97-7.26c1.98-1.649,4.95-2.64,8.58-2.64
			C307.98,400.95,310.95,401.94,312.93,403.59L312.93,403.59z"/>
		<path display="none" fill="#FFFFFF" d="M289.5,374.55v19.8h29.7v-3.3H306v-13.2h-3.3v13.2h-9.9v-16.5H289.5L289.5,374.55z"/>
		<path display="none" fill="#FFFFFF" d="M315.9,361.35v3.3H292.8v-3.3h-3.3v9.9h3.3v-3.3H315.9v3.3h3.3v-9.9H315.9L315.9,361.35z"
			/>
		<path display="none" fill="#FFFFFF" d="M315.9,334.95v16.5h-26.4v3.3h29.7v-19.8H315.9L315.9,334.95z"/>
		<path display="none" fill="#FFFFFF" d="M315.9,311.85v16.5H306v-16.5h-3.3v16.5h-9.9v-16.5h-3.3v19.8h29.7v-19.8H315.9
			L315.9,311.85z"/>
	</g>
</g>
<g>
	<rect x="281.25" y="25.74" display="none" fill="#00661A" width="52.8" height="94.71"/>
	<path display="none" fill="#FFFFFF" d="M321.84,78.54c-2.97-1.32-5.939-2.31-9.24-2.64c0-0.66,0.33-1.65,0.33-2.31
		c0.66-0.66,1.32-1.32,1.32-1.65c0-0.99,0-1.65,0.33-2.31c0,0,0,0.33,0.33,0.33s0.66-0.33,0.66-0.66l0.33-3.3
		c0-0.33-0.33-0.66-0.66-0.66h-0.33c0-0.66,0.33-1.32,0.33-1.98c0-0.66,0.33-2.97-1.32-4.62c-2.31-2.31-7.26-2.31-9.9,0
		c-1.32,1.65-0.99,3.96-0.99,4.62c0,0.66,0,1.32,0.33,1.98c-0.33,0-0.33,0-0.33,0c-0.33,0-0.66,0.33-0.66,0.66l0.33,3.3
		c0,0.33,0.33,0.66,0.66,0.66l0.33-0.33c0,0.66,0.33,1.32,0.33,2.31c0,0.33,0.33,0.99,1.32,1.65c0,0.66,0,1.65,0.33,2.31
		c-3.3,0.33-6.27,1.32-9.24,2.64c-0.99,0.66-1.65,1.98-1.65,2.97c0.33,0.99,0.33,2.31,0.33,3.3c0,1.32,0.99,2.31,1.98,2.31
		c7.92,1.32,16.17,1.32,24.09,0c0.99,0,1.65-0.99,1.65-2.31c0.33-0.99,0.33-2.31,0.66-3.3C323.49,80.52,322.83,79.2,321.84,78.54z"
		/>
</g>
<path fill="#37611F" stroke="#2B880B" stroke-width="2" d="M339,6.6h-49.5c-10.89,0-19.8,6.27-19.8,13.86V382.8h89.1V20.46
	C358.8,12.87,349.89,6.6,339,6.6z"/>
<path fill="#006519" stroke="#2B880B" stroke-width="2" d="M339,788.7h-49.5c-10.89,0-19.8-6.271-19.8-13.86V379.5h89.1v395.34
	C358.8,782.43,349.89,788.7,339,788.7z"/>
<linearGradient id="SVGID_1_" gradientUnits="userSpaceOnUse" x1="1.2852" y1="792.0576" x2="0.0092" y2="792.0576" gradientTransform="matrix(69.3981 0 0 -290.4 242.1134 230238.25)">
	<stop  offset="0" style="stop-color:#97B83F"/>
	<stop  offset="0.117" style="stop-color:#97B83F"/>
	<stop  offset="0.978" style="stop-color:#477320"/>
</linearGradient>
<path fill="url(#SVGID_1_)" stroke="#6A9134" d="M279.3,79.7h49.83c10.561,0,19.47,1.32,19.47,2.64v285.12
	c0,1.32,2.641,2.64-19.47,2.64H279.3C279.3,362.84,279.3,84.65,279.3,79.7z"/>
<g>
	<g>
		<rect x="282.9" y="324.72" display="none" fill="#FFFFFF" width="6.6" height="29.37"/>
	</g>
	<path id="Forma_x25_201" display="none" fill="#FFFFFF" d="M331.41,350.13l-8.91-8.58c1.65-2.64,2.64-5.28,2.64-8.58
		c0-8.91-7.26-15.84-16.17-15.84c-8.91,0-15.84,6.93-15.84,15.84c0,8.91,6.93,16.17,15.84,16.17c3.3,0,5.94-0.99,8.58-2.64
		l8.58,8.91c1.32,1.32,3.63,1.32,5.28,0C332.73,353.76,332.73,351.45,331.41,350.13z M308.97,344.19
		c-5.939,0-10.89-4.95-10.89-11.22c0-5.94,4.95-10.89,10.89-10.89c6.271,0,11.221,4.95,11.221,10.89
		C320.19,339.24,315.24,344.19,308.97,344.19z"/>
	<path display="none" fill="#FFFFFF" d="M308.64,306.9v13.53c0.66,0,0.99,0,1.32,0c1.98,0,3.96,0.33,5.61,1.32V306.9H308.64z"/>
	<path display="none" fill="#FFFFFF" d="M302.04,354.09v-11.88c-2.64-2.31-4.62-5.61-4.62-9.57c0-3.63,1.98-7.26,4.62-9.57v-10.23
		h-6.6v41.25H302.04z"/>
	<path display="none" fill="#FFFFFF" d="M315.57,354.09v-10.23c-1.65,0.66-3.63,1.32-5.61,1.32c-0.33,0-0.66,0-1.32,0v8.91H315.57z"
		/>
</g>
<g>
	<path display="none" fill="#006519" stroke="#2B880B" stroke-width="2" d="M269.7,6.6h49.5c10.89,0,19.8,6.27,19.8,13.86V89.1
		h-89.1V20.46C249.9,12.87,258.81,6.6,269.7,6.6z"/>
	<path display="none" fill="#FFFFFF" d="M322.5,67.65c0,10.89-39.6,10.89-39.6,0c0-11.22,8.91-20.46,19.8-20.46
		C313.59,47.19,322.5,56.43,322.5,67.65z"/>
	<path display="none" fill="#FFFFFF" d="M314.91,32.34c0,6.93-5.61,12.54-12.21,12.54c-6.6,0-12.21-5.61-12.21-12.54
		c0-6.93,5.61-12.54,12.21-12.54C309.3,19.8,314.91,25.41,314.91,32.34z"/>
	
		<linearGradient id="SVGID_2_" gradientUnits="userSpaceOnUse" x1="1.1865" y1="792.0039" x2="-0.0905" y2="792.0039" gradientTransform="matrix(69.3 0 0 -165 235.5375 131386.75)">
		<stop  offset="0" style="stop-color:#8BC0FC"/>
		<stop  offset="1" style="stop-color:#6A96D3"/>
	</linearGradient>
	<path display="none" fill="url(#SVGID_2_)" stroke="#008C23" d="M269.7,623.7h49.83c10.89,0,19.47,1.319,19.47,2.64v159.72
		c0,1.32-8.58,2.641-19.47,2.641H269.7C269.7,781.44,269.7,628.65,269.7,623.7z"/>
	
		<linearGradient id="SVGID_3_" gradientUnits="userSpaceOnUse" x1="1.1865" y1="792.002" x2="-0.0905" y2="792.002" gradientTransform="matrix(69.3 0 0 -184.8 235.5375 146810.875)">
		<stop  offset="0" style="stop-color:#FFD86B"/>
		<stop  offset="1" style="stop-color:#F1A554"/>
	</linearGradient>
	<path display="none" fill="url(#SVGID_3_)" stroke="#008C23" d="M269.7,356.4h49.83c10.89,0,19.47,1.32,19.47,2.64v179.52
		c0,1.32-8.58,2.641-19.47,2.641H269.7C269.7,533.94,269.7,361.35,269.7,356.4z"/>
	
		<linearGradient id="SVGID_4_" gradientUnits="userSpaceOnUse" x1="1.2417" y1="792.0029" x2="-0.0343" y2="792.0029" gradientTransform="matrix(69.3981 0 0 -171.6 235.4884 136089.25)">
		<stop  offset="0" style="stop-color:#57AF00"/>
		<stop  offset="1" style="stop-color:#3F9B07"/>
	</linearGradient>
	<path display="none" fill="url(#SVGID_4_)" stroke="#008C23" d="M269.7,95.7h49.83c10.56,0,19.47,1.32,19.47,2.64v166.32
		c0,1.32,2.64,2.64-19.47,2.64H269.7C269.7,260.04,269.7,100.65,269.7,95.7z"/>
	<rect x="269.7" y="270.6" display="none" fill="#D9A300" stroke="#008C23" width="69.3" height="82.5"/>
	<rect x="269.7" y="544.5" display="none" fill="#004C66" stroke="#008C23" width="69.3" height="82.5"/>
	<g>
		<rect x="284.55" y="566.61" display="none" fill="#FFFFFF" width="39.601" height="9.239"/>
		<rect x="284.55" y="580.14" display="none" fill="#FFFFFF" width="39.601" height="9.24"/>
		<rect x="284.55" y="594" display="none" fill="#FFFFFF" width="39.601" height="9.24"/>
	</g>
</g>
<g>
	<g>
		<path display="none" fill="#002D0C" d="M289.83,115.5v2.97h9.57c0,0.99,0,1.98,0,3.3c0,3.63,0.99,6.93,2.97,8.58
			c1.65,1.32,4.29,1.65,7.59,1.65c2.97,0,5.61-0.66,6.93-1.98c1.65-1.32,2.311-4.29,2.311-7.92c0-2.97,0-4.95-0.33-6.6H289.83
			L289.83,115.5z M316.23,118.47c0,0.66,0.329,1.98,0.329,3.63c0,4.29-2.31,6.93-6.93,6.93s-7.59-2.64-7.59-7.26
			c0-1.32,0.33-2.31,0.33-3.3H316.23L316.23,118.47z"/>
		<path display="none" fill="#002D0C" d="M289.83,139.26v2.97h9.9v3.63c-0.33,3.63-1.32,5.28-4.62,5.94
			c-2.64,0.99-4.62,1.32-5.28,1.65v3.3c0.66-0.66,2.97-0.99,6.27-1.98c2.31-0.33,3.96-1.65,4.62-3.63h0.33
			c0.99,2.64,4.29,4.62,8.91,4.62c2.97,0,5.61-0.66,6.93-1.65c1.65-1.65,2.311-4.29,2.311-8.25c0-2.64,0-4.95-0.33-6.6H289.83
			L289.83,139.26z M315.9,142.23c0.33,0.66,0.659,1.98,0.659,3.96c0,3.96-2.31,6.6-6.93,6.6c-4.29,0-7.26-2.64-7.26-6.6v-3.96H315.9
			L315.9,142.23z"/>
		<path display="none" fill="#002D0C" d="M319.2,173.25c0-8.58-5.61-13.53-15.18-13.53c-8.91,0-14.52,4.29-14.52,12.87
			c0,8.25,4.95,13.86,15.18,13.86C313.26,186.45,319.2,182.16,319.2,173.25L319.2,173.25z M316.56,172.92
			c0,6.93-6.27,10.56-12.209,10.56c-6.6,0-12.21-3.96-12.21-10.56s5.61-10.23,12.21-10.23
			C310.62,162.69,316.56,165.99,316.56,172.92L316.56,172.92z"/>
		<path display="none" fill="#002D0C" d="M289.83,193.38v2.97h13.2v10.56h2.64v-10.56h10.89v11.22h2.641v-14.19H289.83
			L289.83,193.38z"/>
		<path display="none" fill="#002D0C" d="M318.87,213.84h-29.04v2.97h29.04V213.84L318.87,213.84z"/>
		<path display="none" fill="#002D0C" d="M289.5,224.07v14.52h2.64v-11.55h26.73v-2.97H289.5L289.5,224.07z"/>
		<path display="none" fill="#002D0C" d="M305.67,257.73v-10.56h10.89v11.22h2.641V244.2h-29.7v14.85h2.64v-11.88h10.89v10.56
			H305.67L305.67,257.73z"/>
	</g>
	<g>
		<path display="none" fill="#6A5000" d="M289.83,404.91v2.97h13.2v10.23h2.64v-10.23h10.89v11.22h2.641V404.91H289.83
			L289.83,404.91z"/>
		<path display="none" fill="#6A5000" d="M318.87,425.37h-29.04v2.97h29.04V425.37L318.87,425.37z"/>
		<path display="none" fill="#6A5000" d="M289.5,435.27v14.851h2.64v-11.88h26.73v-2.971H289.5L289.5,435.27z"/>
		<path display="none" fill="#6A5000" d="M289.83,459.03V462h26.729v8.58h2.641v-19.8h-2.641v8.25H289.83L289.83,459.03z"/>
		<path display="none" fill="#6A5000" d="M305.67,489.72v-10.56h10.89v11.22h2.641V476.19h-29.7v14.85h2.64v-11.88h10.89v10.56
			H305.67L305.67,489.72z"/>
		<path display="none" fill="#6A5000" d="M289.83,496.32v2.97h9.9v3.63c-0.33,3.63-1.32,5.28-4.62,5.94
			c-2.64,0.989-4.62,1.319-5.28,1.649v3.3c0.66-0.659,2.97-0.989,6.27-1.979c2.31-0.33,3.96-1.65,4.62-3.63h0.33
			c0.99,2.64,4.29,4.62,8.91,4.62c2.97,0,5.61-0.66,6.93-1.65c1.65-1.65,2.311-4.29,2.311-8.25c0-2.64,0-4.95-0.33-6.6H289.83
			L289.83,496.32z M315.9,499.29c0.33,0.66,0.659,1.979,0.659,3.96c0,3.96-2.31,6.6-6.93,6.6c-4.29,0-7.26-2.64-7.26-6.6v-3.96
			H315.9L315.9,499.29z"/>
	</g>
	<g>
		<path display="none" fill="#003648" d="M289.83,682.44v3.3l29.37-1.65v-4.29l-13.53-4.62c-3.96-0.989-7.26-1.979-10.56-2.64v-0.33
			c3.3-0.66,6.6-1.32,10.56-2.64l13.53-4.29v-4.29l-29.37-1.98v3.3l12.87,0.66c4.95,0.33,9.899,0.33,13.859,0.66l0,0
			c-3.63,0.66-7.59,1.65-12.209,2.97l-14.52,4.29v2.641l14.85,4.62c4.29,1.319,8.25,2.31,11.879,3.3l0,0
			c-3.96,0-9.239,0.33-13.529,0.33L289.83,682.44L289.83,682.44z"/>
		<path display="none" fill="#003648" d="M305.67,706.53V695.97h10.89v11.221h2.641V693h-29.7v14.85h2.64v-11.88h10.89v10.561
			H305.67L305.67,706.53z"/>
		<path display="none" fill="#003648" d="M289.83,716.43h12.54c6.27,0,9.899-0.33,13.86-0.33h0.329
			c-3.63,1.32-7.26,3.301-10.89,5.28l-15.84,8.58v3.3h29.37v-2.97H308.31c-7.919,0-11.55,0-15.839,0.33h-0.33
			c3.3-1.32,6.93-2.97,10.56-4.95l16.17-8.91v-3.3H289.5L289.83,716.43L289.83,716.43z"/>
		<path display="none" fill="#003648" d="M318.87,740.52h-17.16c-9.24,0-12.21,3.631-12.21,9.57c0,6.271,3.3,10.23,12.21,10.23
			h17.16v-2.971h-17.16c-6.6,0-9.57-2.97-9.57-7.26c0-3.96,2.97-6.6,9.57-6.6h17.16V740.52L318.87,740.52z"/>
	</g>
</g>
<g>
	<g>
		<path display="none" fill="#002D0C" d="M289.83,115.5v2.97h9.57c0,0.99,0,1.98,0,3.3c0,3.63,0.99,6.93,2.97,8.58
			c1.65,1.32,4.29,1.65,7.59,1.65c2.97,0,5.61-0.66,6.93-1.98c1.65-1.32,2.311-4.29,2.311-7.92c0-2.97,0-4.95-0.33-6.6H289.83
			L289.83,115.5z M316.23,118.47c0,0.66,0.329,1.98,0.329,3.63c0,4.29-2.31,6.93-6.93,6.93s-7.59-2.64-7.59-7.26
			c0-1.32,0.33-2.31,0.33-3.3H316.23L316.23,118.47z"/>
		<path display="none" fill="#002D0C" d="M289.83,139.26v2.97h9.9v3.63c-0.33,3.63-1.32,5.28-4.62,5.94
			c-2.64,0.99-4.62,1.32-5.28,1.65v3.3c0.66-0.66,2.97-0.99,6.27-1.98c2.31-0.33,3.96-1.65,4.62-3.63h0.33
			c0.99,2.64,4.29,4.62,8.91,4.62c2.97,0,5.61-0.66,6.93-1.65c1.65-1.65,2.311-4.29,2.311-8.25c0-2.64,0-4.95-0.33-6.6H289.83
			L289.83,139.26z M315.9,142.23c0.33,0.66,0.659,1.98,0.659,3.96c0,3.96-2.31,6.6-6.93,6.6c-4.29,0-7.26-2.64-7.26-6.6v-3.96H315.9
			L315.9,142.23z"/>
		<path display="none" fill="#002D0C" d="M319.2,173.25c0-8.58-5.61-13.53-15.18-13.53c-8.91,0-14.52,4.29-14.52,12.87
			c0,8.25,4.95,13.86,15.18,13.86C313.26,186.45,319.2,182.16,319.2,173.25L319.2,173.25z M316.56,172.92
			c0,6.93-6.27,10.56-12.209,10.56c-6.6,0-12.21-3.96-12.21-10.56s5.61-10.23,12.21-10.23
			C310.62,162.69,316.56,165.99,316.56,172.92L316.56,172.92z"/>
		<path display="none" fill="#002D0C" d="M289.83,193.38v2.97h13.2v10.56h2.64v-10.56h10.89v11.22h2.641v-14.19H289.83
			L289.83,193.38z"/>
		<path display="none" fill="#002D0C" d="M318.87,213.84h-29.04v2.97h29.04V213.84L318.87,213.84z"/>
		<path display="none" fill="#002D0C" d="M289.5,224.07v14.52h2.64v-11.55h26.73v-2.97H289.5L289.5,224.07z"/>
		<path display="none" fill="#002D0C" d="M305.67,257.73v-10.56h10.89v11.22h2.641V244.2h-29.7v14.85h2.64v-11.88h10.89v10.56
			H305.67L305.67,257.73z"/>
	</g>
	<g>
		<path display="none" fill="#6A5000" d="M289.83,404.91v2.97h13.2v10.23h2.64v-10.23h10.89v11.22h2.641V404.91H289.83
			L289.83,404.91z"/>
		<path display="none" fill="#6A5000" d="M318.87,425.37h-29.04v2.97h29.04V425.37L318.87,425.37z"/>
		<path display="none" fill="#6A5000" d="M289.5,435.27v14.851h2.64v-11.88h26.73v-2.971H289.5L289.5,435.27z"/>
		<path display="none" fill="#6A5000" d="M289.83,459.03V462h26.729v8.58h2.641v-19.8h-2.641v8.25H289.83L289.83,459.03z"/>
		<path display="none" fill="#6A5000" d="M305.67,489.72v-10.56h10.89v11.22h2.641V476.19h-29.7v14.85h2.64v-11.88h10.89v10.56
			H305.67L305.67,489.72z"/>
		<path display="none" fill="#6A5000" d="M289.83,496.32v2.97h9.9v3.63c-0.33,3.63-1.32,5.28-4.62,5.94
			c-2.64,0.989-4.62,1.319-5.28,1.649v3.3c0.66-0.659,2.97-0.989,6.27-1.979c2.31-0.33,3.96-1.65,4.62-3.63h0.33
			c0.99,2.64,4.29,4.62,8.91,4.62c2.97,0,5.61-0.66,6.93-1.65c1.65-1.65,2.311-4.29,2.311-8.25c0-2.64,0-4.95-0.33-6.6H289.83
			L289.83,496.32z M315.9,499.29c0.33,0.66,0.659,1.979,0.659,3.96c0,3.96-2.31,6.6-6.93,6.6c-4.29,0-7.26-2.64-7.26-6.6v-3.96
			H315.9L315.9,499.29z"/>
	</g>
	<g>
		<path display="none" fill="#003648" d="M289.83,682.44v3.3l29.37-1.65v-4.29l-13.53-4.62c-3.96-0.989-7.26-1.979-10.56-2.64v-0.33
			c3.3-0.66,6.6-1.32,10.56-2.64l13.53-4.29v-4.29l-29.37-1.98v3.3l12.87,0.66c4.95,0.33,9.899,0.33,13.859,0.66l0,0
			c-3.63,0.66-7.59,1.65-12.209,2.97l-14.52,4.29v2.641l14.85,4.62c4.29,1.319,8.25,2.31,11.879,3.3l0,0
			c-3.96,0-9.239,0.33-13.529,0.33L289.83,682.44L289.83,682.44z"/>
		<path display="none" fill="#003648" d="M305.67,706.53V695.97h10.89v11.221h2.641V693h-29.7v14.85h2.64v-11.88h10.89v10.561
			H305.67L305.67,706.53z"/>
		<path display="none" fill="#003648" d="M289.83,716.43h12.54c6.27,0,9.899-0.33,13.86-0.33h0.329
			c-3.63,1.32-7.26,3.301-10.89,5.28l-15.84,8.58v3.3h29.37v-2.97H308.31c-7.919,0-11.55,0-15.839,0.33h-0.33
			c3.3-1.32,6.93-2.97,10.56-4.95l16.17-8.91v-3.3H289.5L289.83,716.43L289.83,716.43z"/>
		<path display="none" fill="#003648" d="M318.87,740.52h-17.16c-9.24,0-12.21,3.631-12.21,9.57c0,6.271,3.3,10.23,12.21,10.23
			h17.16v-2.971h-17.16c-6.6,0-9.57-2.97-9.57-7.26c0-3.96,2.97-6.6,9.57-6.6h17.16V740.52L318.87,740.52z"/>
	</g>
</g>
<g id="SPANISH">
	<g>
		<path display="none" d="M289.83,126.06v2.97h9.57c0,0.99,0,1.979,0,2.97c0,3.96,0.99,6.93,2.97,8.91
			c1.65,0.99,4.29,1.65,7.59,1.65c2.97,0,5.61-0.66,6.93-1.98c1.65-1.65,2.311-4.29,2.311-7.92c0-3.3,0-5.28-0.33-6.6H289.83
			L289.83,126.06z M316.23,129.03c0,0.66,0.329,1.979,0.329,3.63c0,3.96-2.31,6.93-6.93,6.93s-7.59-2.97-7.59-7.26
			c0-1.32,0.33-2.64,0.33-3.3H316.23L316.23,129.03z"/>
		<path display="none" d="M305.67,163.35v-10.56h10.89v11.22h2.641v-14.19h-29.7v14.85h2.64v-11.88h10.89v10.56H305.67
			L305.67,163.35z"/>
		<path display="none" d="M289.83,169.95v2.97h9.9v3.63c-0.33,3.63-1.32,5.28-4.62,5.94c-2.64,0.99-4.62,1.32-5.28,1.979v2.97
			c0.66-0.33,2.97-0.99,6.27-1.65c2.31-0.66,3.96-1.65,4.62-3.96h0.33c0.99,2.97,4.29,4.62,8.91,4.62c2.97,0,5.61-0.66,6.93-1.65
			c1.65-1.65,2.311-4.29,2.311-8.25c0-2.64,0-4.95-0.33-6.6H289.83L289.83,169.95z M315.9,172.92c0.33,0.66,0.659,1.98,0.659,3.96
			c0,3.96-2.31,6.6-6.93,6.6c-4.29,0-7.26-2.31-7.26-6.6v-3.96H315.9L315.9,172.92z"/>
		<path display="none" d="M289.83,193.71v2.97h13.2v10.23h2.64v-10.23h10.89v11.22h2.641v-14.19H289.83L289.83,193.71z"/>
		<path display="none" d="M318.87,214.17h-29.04v2.97h29.04V214.17L318.87,214.17z"/>
		<path display="none" d="M289.5,224.4v14.52h2.64v-11.55h26.73v-2.97H289.5L289.5,224.4z"/>
	</g>
	<g>
		<path display="none" d="M289.83,390.72v2.97h13.2v10.23h2.64v-10.23h10.89v10.89h2.641v-13.86H289.83L289.83,390.72z"/>
		<path display="none" d="M318.87,410.85h-29.04v2.971h29.04V410.85L318.87,410.85z"/>
		<path display="none" d="M289.5,421.08v14.52h2.64v-11.55h26.73v-2.97H289.5L289.5,421.08z"/>
		<path display="none" d="M289.83,444.84v2.97h26.729v8.25h2.641v-19.47h-2.641v8.25H289.83L289.83,444.84z"/>
		<path display="none" d="M289.83,461.67v2.97h9.9v3.63c-0.33,3.301-1.32,4.95-4.62,5.94c-2.64,0.66-4.62,1.32-5.28,1.65v3.3
			c0.66-0.66,2.97-1.32,6.27-1.98c2.31-0.33,3.96-1.649,4.62-3.63h0.33c0.99,2.641,4.29,4.62,8.91,4.62c2.97,0,5.61-0.66,6.93-1.65
			c1.65-1.649,2.311-4.289,2.311-8.25c0-2.64,0-4.949-0.33-6.6H289.83L289.83,461.67z M315.9,464.64
			c0.33,0.66,0.659,1.98,0.659,3.63c0,4.29-2.31,6.931-6.93,6.931c-4.29,0-7.26-2.641-7.26-6.601v-3.96H315.9L315.9,464.64z"/>
		<path display="none" d="M319.2,495.66c0-8.91-5.61-13.53-15.18-13.53c-8.91,0-14.52,4.29-14.52,12.87
			c0,8.25,4.95,13.53,15.18,13.53C313.26,508.53,319.2,504.57,319.2,495.66L319.2,495.66z M316.56,495.33
			c0,6.93-6.27,10.229-12.209,10.229c-6.6,0-12.21-3.63-12.21-10.229s5.61-10.23,12.21-10.23
			C310.62,485.1,316.56,488.4,316.56,495.33L316.56,495.33z"/>
	</g>
	<g>
		<path display="none" d="M289.83,678.15v3.3l29.37-1.65v-4.29l-13.53-4.62c-3.96-0.989-7.26-1.979-10.56-2.64v-0.33
			c3.3-0.66,6.6-1.32,10.56-2.64l13.53-4.29v-4.29l-29.37-1.98v3.3l12.87,0.66c4.95,0.33,9.899,0.66,13.859,0.66l0,0
			c-3.63,0.66-7.59,1.65-12.209,2.97l-14.52,4.29v2.641l14.85,4.62c4.29,1.319,8.25,2.31,11.879,3.3l0,0
			c-3.96,0-9.239,0.33-13.529,0.33L289.83,678.15L289.83,678.15z"/>
		<path display="none" d="M305.67,702.24V691.68h10.89V702.9h2.641v-14.19h-29.7v14.85h2.64v-11.88h10.89v10.561H305.67
			L305.67,702.24z"/>
		<path display="none" d="M289.83,712.14h12.54c6.27,0,9.899-0.33,13.86-0.33h0.329c-3.63,1.32-7.26,3.301-10.89,5.28l-15.84,8.58
			v3.3h29.37V726H308.31c-7.919,0-11.55,0-15.839,0.33h-0.33c3.3-1.32,6.93-2.97,10.56-4.95l16.17-8.91v-3.3H289.5L289.83,712.14
			L289.83,712.14z"/>
		<path display="none" d="M318.87,736.23h-17.16c-9.24,0-12.21,3.63-12.21,9.569c0,6.271,3.3,10.23,12.21,10.23h17.16v-2.971h-17.16
			c-6.6,0-9.57-2.97-9.57-7.26c0-3.96,2.97-6.6,9.57-6.6h17.16V736.23L318.87,736.23z M322.17,748.11l-2.64-4.29v3.3l2.64,5.61
			V748.11L322.17,748.11z"/>
	</g>
</g>
<g>
	<path id="Forma_x25_2012" fill="#FFFFFF" d="M336.1,50.81l-1.979,2.31c0,0-0.33,0.33-0.66,0.33l0,0c-0.33,0-0.33-0.33-0.66-0.33
		L313,36.95l-19.8,16.17c-0.33,0.33-0.66,0.33-0.66,0.33c-0.33,0-0.66-0.33-0.66-0.33l-1.98-2.31c0,0,0-0.33,0-0.66
		c0,0,0-0.33,0.33-0.33l20.459-17.16C311.35,32.33,312.01,32,313,32s1.65,0.33,2.31,0.66l6.931,5.94v-5.61c0-0.33,0-0.33,0.33-0.66
		c0,0,0.33,0,0.66,0h5.279c0.33,0,0.66,0,0.66,0c0.33,0.33,0.33,0.33,0.33,0.66v11.55l6.27,5.28c0.33,0,0.33,0.33,0.33,0.33
		C336.1,50.48,336.1,50.81,336.1,50.81z M296.5,52.79L313,39.26l16.5,13.53l0,0v13.53c0,0.66,0,0.99-0.66,1.32
		c-0.33,0.33-0.66,0.66-0.99,0.66h-11.22V57.41h-7.26V68.3h-11.22c-0.33,0-0.66-0.33-0.99-0.66c-0.66-0.33-0.66-0.66-0.66-1.32
		V52.79L296.5,52.79L296.5,52.79z"/>
</g>
<linearGradient id="SVGID_5_" gradientUnits="userSpaceOnUse" x1="0.5527" y1="792.0088" x2="0.486" y2="792.0057" gradientTransform="matrix(306.9 0 0 -313.5 120.05 248921.25)">
	<stop  offset="0" style="stop-color:#FCD356"/>
	<stop  offset="0.989" style="stop-color:#DBAB1B"/>
</linearGradient>
<path fill="url(#SVGID_5_)" stroke="#6A9134" d="M290.281,468.835h46.737c6.23,0,11.281,4.875,11.281,10.89v291.72
	c0,6.015-5.051,10.891-11.281,10.891h-46.737c-6.231,0-11.281-4.876-11.281-10.891v-291.72
	C279,473.71,284.05,468.835,290.281,468.835z"/>
<rect x="279" y="391.7" fill="#D9A300" stroke="#826200" width="69.3" height="89.1"/>
<path id="Forma_x25_2013" fill="#FFFFFF" d="M328.83,428.99L328.83,428.99l-0.99-2.311l0,0c2.641-6.27,2.641-6.27,2.311-6.93
	l-3.631-3.3c0,0-0.329-0.33-0.659-0.33c0,0-0.66,0-5.94,2.31v0.33l-2.31-0.99v-0.329c-2.311-5.94-2.641-5.94-3.301-5.94h-4.95
	c-0.659,0-0.659,0-2.969,5.94v0.329l-2.31,0.99l0,0c-3.63-1.649-5.61-2.31-6.27-2.31h-0.33l-3.63,3.63
	c-0.33,0.33-0.66,0.66,1.98,6.6h0.33l-0.99,2.311h-0.33c-5.94,2.31-5.94,2.64-5.94,3.3v4.95c0,0.66,0,0.66,6.27,2.97l0,0l0.99,2.31
	l0,0c-2.64,6.271-2.64,6.271-2.31,6.931l3.63,3.3c0,0,0.33,0.33,0.66,0.33c0,0,0.66,0,5.94-2.311v-0.329l2.31,0.989v0.33
	c2.31,5.94,2.64,5.94,3.299,5.94h4.95c0.66,0,0.66,0,2.971-5.94v-0.33l2.31-0.989l0,0c3.63,1.649,5.61,2.31,6.271,2.31h0.329
	l3.631-3.63c0.33-0.33,0.659-0.66-1.98-6.601h-0.33l0.99-2.31l0,0c6.27-2.31,6.27-2.64,6.27-3.3v-4.95
	C335.1,431.3,335.1,431.3,328.83,428.99z M312,442.52c-4.29,0-7.92-3.63-7.92-7.92s3.63-7.92,7.92-7.92s7.92,3.63,7.92,7.92
	S316.29,442.52,312,442.52z"/>
<path fill="none" d="z"/>
<g>
	<path fill="#3C2D00" d="M330.827,498.701H317.29v14.083h13.537v3.802h-32.354v-3.802h15.169v-14.083h-15.169v-3.758h32.354V498.701
		z"/>
	<path fill="#3C2D00" d="M313.642,538.186v-11.318h-11.665v12.614h-3.504v-16.372h32.354v15.725h-3.504v-11.967h-10.225v11.318
		H313.642z"/>
	<path fill="#3C2D00" d="M330.396,544.363c0.432,1.9,0.672,4.623,0.672,7.215c0,4.018-0.816,6.609-2.64,8.423
		c-1.44,1.469-3.648,2.29-6.145,2.29c-4.272,0-7.105-2.42-8.257-5.486h-0.145c-0.864,2.246-3.168,3.586-6.528,4.276
		c-4.513,0.95-7.633,1.642-8.881,2.246v-3.888c0.912-0.475,3.696-1.123,7.729-1.943c4.465-0.864,6.145-2.42,6.289-5.832v-3.543
		h-14.018v-3.758H330.396z M315.658,548.121v3.846c0,4.018,2.448,6.565,6.145,6.565c4.177,0,6-2.722,6.049-6.695
		c0-1.814-0.192-3.11-0.385-3.716H315.658z"/>
	<path fill="#3C2D00" d="M330.396,567.605c0.432,1.9,0.672,4.621,0.672,7.213c0,4.018-0.816,6.609-2.64,8.424
		c-1.44,1.469-3.648,2.289-6.145,2.289c-4.272,0-7.105-2.418-8.257-5.485h-0.145c-0.864,2.246-3.168,3.585-6.528,4.276
		c-4.513,0.95-7.633,1.642-8.881,2.246v-3.888c0.912-0.476,3.696-1.123,7.729-1.944c4.465-0.863,6.145-2.418,6.289-5.831v-3.542
		h-14.018v-3.758H330.396z M315.658,571.363v3.844c0,4.018,2.448,6.566,6.145,6.566c4.177,0,6-2.721,6.049-6.695
		c0-1.814-0.192-3.11-0.385-3.715H315.658z"/>
	<path fill="#3C2D00" d="M308.649,595.771l-10.177-3.024v-3.887l32.354,9.892v4.536l-32.354,9.936v-4.018l10.177-3.11V595.771z
		 M311.914,605.316l9.313-2.851c2.112-0.647,4.032-1.079,5.904-1.512v-0.087c-1.92-0.432-3.888-0.906-5.856-1.469l-9.36-2.851
		V605.316z"/>
	<path fill="#3C2D00" d="M312.682,641.863c4.513-0.215,9.938-0.475,13.97-0.432v-0.129c-3.793-0.994-7.825-2.203-12.289-3.672
		l-15.697-5.141v-2.852l15.409-4.709c4.561-1.382,8.736-2.549,12.577-3.369v-0.086c-4.032-0.086-9.457-0.303-14.306-0.562
		l-13.873-0.778v-3.585l32.354,2.03v4.795l-15.649,4.968c-3.984,1.21-7.536,2.203-10.896,2.938v0.13
		c3.265,0.734,6.816,1.771,10.896,3.066l15.649,5.184v4.795l-32.354,1.814v-3.672L312.682,641.863z"/>
	<path fill="#3C2D00" d="M330.827,655.818h-32.354v-3.758h32.354V655.818z"/>
	<path fill="#3C2D00" d="M313.642,677.461v-11.318h-11.665v12.613h-3.504v-16.371h32.354v15.724h-3.504v-11.966h-10.225v11.318
		H313.642z"/>
	<path fill="#3C2D00" d="M298.473,683.639h32.354v4.104l-16.369,9.33c-3.792,2.16-7.2,3.846-10.513,5.228l0.048,0.087
		c4.32-0.346,8.257-0.433,13.297-0.433h13.537v3.542h-32.354v-3.801l16.417-9.244c3.601-2.031,7.297-3.975,10.802-5.443
		l-0.049-0.129c-4.08,0.215-7.969,0.302-13.345,0.302h-13.825V683.639z"/>
	<path fill="#3C2D00" d="M327.275,717.593v-8.855h3.552v21.556h-3.552v-8.898h-28.803v-3.802H327.275z"/>
	<path fill="#3C2D00" d="M308.649,735.003l-10.177-3.023v-3.888l32.354,9.893v4.535l-32.354,9.936v-4.018l10.177-3.11V735.003z
		 M311.914,744.55l9.313-2.851c2.112-0.648,4.032-1.08,5.904-1.513v-0.086c-1.92-0.432-3.888-0.907-5.856-1.469l-9.36-2.851V744.55z
		"/>
	<path fill="#3C2D00" d="M303.562,756.214c-1.152,1.685-2.112,4.146-2.112,6.739c0,3.844,2.256,6.091,5.521,6.091
		c3.024,0,4.752-1.556,6.433-5.486c1.872-4.752,4.608-7.689,9.168-7.689c5.041,0,8.785,3.759,8.785,9.417
		c0,2.98-0.768,5.141-1.584,6.437l-3.408-1.036c0.576-0.951,1.536-2.895,1.536-5.529c0-3.975-2.641-5.486-4.849-5.486
		c-3.024,0-4.513,1.771-6.24,5.788c-2.112,4.925-4.753,7.43-9.505,7.43c-4.993,0-9.313-3.326-9.313-10.194
		c0-2.808,0.912-5.875,2.064-7.43L303.562,756.214z"/>
</g>
<g>
	<path fill="#002F0C" d="M327.827,179.775h-32.354v-4.176h32.354V179.775z"/>
	<path fill="#002F0C" d="M295.473,187.07h32.354v4.56L311.458,202c-3.792,2.4-7.2,4.272-10.513,5.809l0.048,0.096
		c4.32-0.384,8.257-0.48,13.297-0.48h13.537v3.937h-32.354v-4.225l16.417-10.272c3.601-2.256,7.297-4.417,10.802-6.049l-0.049-0.144
		c-4.08,0.24-7.969,0.336-13.345,0.336h-13.825V187.07z"/>
	<path fill="#002F0C" d="M327.827,222.831h-32.354v-4.176h32.354V222.831z"/>
	<path fill="#002F0C" d="M296.528,252.736c-0.768-1.536-1.536-4.608-1.536-8.545c0-9.121,5.761-15.985,16.37-15.985
		c10.129,0,16.993,6.865,16.993,16.897c0,4.033-0.864,6.577-1.44,7.681l-3.408-1.008c0.769-1.584,1.345-3.84,1.345-6.529
		c0-7.584-4.849-12.625-13.346-12.625c-7.921,0-13.009,4.561-13.009,12.433c0,2.544,0.528,5.136,1.344,6.816L296.528,252.736z"/>
	<path fill="#002F0C" d="M327.827,262.142h-32.354v-4.176h32.354V262.142z"/>
	<path fill="#002F0C" d="M311.986,297.088c-11.137,0-17.042-6.769-17.042-15.025c0-8.545,6.625-14.545,16.418-14.545
		c10.272,0,16.993,6.385,16.993,15.025C328.355,291.375,321.587,297.088,311.986,297.088z M311.458,271.981
		c-6.912,0-13.105,3.745-13.105,10.321c0,6.625,6.097,10.369,13.441,10.369c6.433,0,13.153-3.36,13.153-10.321
		C324.947,275.438,318.563,271.981,311.458,271.981z"/>
</g>
</svg>
