<?xml version="1.0" standalone="no"?>

<svg viewBox="0 0 14 14" style="background-color:#ffffff00" version="1.1" xmlns="http://www.w3.org/2000/svg" xmlns:xlink="http://www.w3.org/1999/xlink" xml:space="preserve" x="0px" y="0px" width="100%" height="100%">
	<g id="Layer">
		<path id="Forma%201" d="M 1.2 3.4 L 12.8 3.4 C 13.5 3.4 14 2.8 14 2.2 C 14 1.5 13.5 1 12.8 1 L 1.2 1 C 0.5 1 0 1.5 0 2.2 C 0 2.8 0.5 3.4 1.2 3.4 ZM 12.8 6.3 L 1.2 6.3 C 0.5 6.3 0 6.8 0 7.5 C 0 8.2 0.5 8.7 1.2 8.7 L 12.8 8.7 C 13.5 8.7 14 8.2 14 7.5 C 14 6.8 13.5 6.3 12.8 6.3 ZM 12.8 11.6 L 1.2 11.6 C 0.5 11.6 0 12.2 0 12.8 C 0 13.5 0.5 14 1.2 14 L 12.8 14 C 13.5 14 14 13.5 14 12.8 C 14 12.2 13.5 11.6 12.8 11.6 Z" fill="#444444"/>
	</g>
</svg>