<?xml version="1.0" standalone="no"?>

<svg viewBox="0 0 16 16" style="background-color:#ffffff00" version="1.1" xmlns="http://www.w3.org/2000/svg" xmlns:xlink="http://www.w3.org/1999/xlink" xml:space="preserve" x="0px" y="0px" width="100%" height="100%">
	<g id="Layer">
		<rect visibility="hidden" x="0" y="0" width="16" height="16" fill="#cc0000" rx="2.4" ry="2.4"/>
		<g visibility="hidden">
			<path id="Forma%201" d="M 10.5 8 L 13.2 5.3 C 13.4 5.1 13.5 4.9 13.5 4.6 C 13.5 4.4 13.4 4.2 13.2 4 L 12 2.8 C 11.8 2.6 11.6 2.5 11.4 2.5 C 11.1 2.5 10.9 2.6 10.7 2.8 L 8 5.5 L 5.3 2.8 C 5.1 2.6 4.9 2.5 4.6 2.5 C 4.4 2.5 4.2 2.6 4 2.8 L 2.8 4 C 2.6 4.2 2.5 4.4 2.5 4.6 C 2.5 4.9 2.6 5.1 2.8 5.3 L 5.5 8 L 2.8 10.7 C 2.6 10.9 2.5 11.1 2.5 11.4 C 2.5 11.6 2.6 11.8 2.8 12 L 4 13.2 C 4.2 13.4 4.4 13.5 4.6 13.5 C 4.9 13.5 5.1 13.4 5.3 13.2 L 8 10.5 L 10.7 13.2 C 10.9 13.4 11.1 13.5 11.4 13.5 C 11.6 13.5 11.8 13.4 12 13.2 L 13.2 12 C 13.4 11.8 13.5 11.6 13.5 11.4 C 13.5 11.1 13.4 10.9 13.2 10.7 L 10.5 8 Z" fill="#ffffff"/>
		</g>
		<rect x="0" y="0" width="16" height="16" fill="#2e7a0a" rx="2.4" ry="2.4"/>
		<g>
			<path id="Forma%2012" d="M 9.5 9.5 L 12.7 9.5 C 13 9.5 13.1 9.4 13.3 9.3 C 13.4 9.1 13.5 9 13.5 8.8 L 13.5 7.2 C 13.5 7 13.4 6.9 13.3 6.7 C 13.1 6.6 13 6.5 12.7 6.5 L 9.5 6.5 L 9.5 3.3 C 9.5 3 9.4 2.9 9.3 2.7 C 9.1 2.6 9 2.5 8.8 2.5 L 7.2 2.5 C 7 2.5 6.9 2.6 6.7 2.7 C 6.6 2.9 6.5 3 6.5 3.3 L 6.5 6.5 L 3.3 6.5 C 3 6.5 2.9 6.6 2.7 6.7 C 2.6 6.9 2.5 7 2.5 7.2 L 2.5 8.8 C 2.5 9 2.6 9.1 2.7 9.3 C 2.9 9.4 3 9.5 3.3 9.5 L 6.5 9.5 L 6.5 12.7 C 6.5 13 6.6 13.1 6.7 13.3 C 6.9 13.4 7 13.5 7.2 13.5 L 8.8 13.5 C 9 13.5 9.1 13.4 9.3 13.3 C 9.4 13.1 9.5 13 9.5 12.7 L 9.5 9.5 Z" fill="#ffffff"/>
		</g>
	</g>
</svg>