<?xml version="1.0" standalone="no"?>

<svg viewBox="0 0 38 38" style="background-color:#ffffff00" version="1.1" xmlns="http://www.w3.org/2000/svg" xmlns:xlink="http://www.w3.org/1999/xlink" xml:space="preserve" x="0px" y="0px" width="100%" height="100%">
	<g id="Layer%201">
		<g>
			<path d="M 25.2 8.6 L 28.9 2.4 C 31 3.7 32.9 5.4 34.5 7.5 C 36.1 9.6 37.1 11.9 37.7 14.3 L 30.7 16.1 C 30.5 14.5 29.9 13 28.9 11.7 C 27.9 10.3 26.6 9.3 25.2 8.6 L 25.2 8.6 Z" fill="#f9ec30"/>
			<path d="M 16.4 8.6 L 14.3 0.3 C 19.3 -1 24.5 -0.2 28.9 2.4 L 25.2 8.6 C 22.5 7.3 19.2 7.2 16.4 8.6 L 16.4 8.6 Z" fill="#f6921c"/>
			<path d="M 11.2 14.3 L 2.4 9.1 C 3.7 7 5.4 5.1 7.5 3.5 C 9.6 1.9 11.9 0.9 14.3 0.3 L 16.4 8.6 C 15.8 8.8 15.2 9.2 14.7 9.6 C 13 10.8 11.8 12.5 11.2 14.3 L 11.2 14.3 Z" fill="#be1d2c"/>
			<path d="M 8.7 21.6 L 0.3 23.7 C -1 18.7 -0.2 13.5 2.4 9.1 L 11.2 14.3 C 10.9 15.3 10.7 16.3 10.6 17.3 C 10.5 19.2 10.2 20.3 8.8 21.6 L 8.7 21.6 Z" fill="#501b74"/>
			<path d="M 13.6 28.1 L 9.1 35.6 C 7 34.3 5.1 32.6 3.5 30.5 C 1.9 28.4 0.9 26.1 0.3 23.7 L 8.7 21.6 C 7.2 22.9 6.9 25.4 8.1 27.1 C 9.4 28.8 11.8 29.2 13.5 28.1 L 13.6 28.1 Z" fill="#2a378f"/>
			<path d="M 21.2 27.8 L 23.7 37.7 C 18.7 39 13.5 38.2 9.1 35.6 L 13.6 28.1 C 15 27.2 16.2 27 18 27.4 C 19 27.7 20.1 27.9 21.2 27.8 L 21.2 27.8 Z" fill="#1a74bb"/>
			<path d="M 28.2 24.5 L 35.6 28.9 C 34.3 31 32.6 32.9 30.5 34.5 C 28.4 36.1 26.1 37.1 23.7 37.7 L 21.2 27.8 C 23.2 27.7 25.1 27.1 26.8 25.8 C 27.3 25.4 27.8 25 28.2 24.5 L 28.2 24.5 Z" fill="#00adee"/>
			<path d="M 30.7 16.1 L 37.7 14.3 C 39 19.3 38.2 24.5 35.6 28.9 L 28.2 24.5 C 30.3 22.2 31.2 19.1 30.7 16.1 L 30.7 16.1 Z" fill="#8bc53e"/>
		</g>
		<path id="Forma%201" d="M 24.3 23.3 C 25 22.6 25.5 21.9 25.8 21 C 26.2 20.2 26.3 19.3 26.3 18.4 C 26.3 17.5 26.2 16.7 25.8 15.8 C 25.5 15 25 14.2 24.3 13.5 C 23.6 12.9 22.8 12.4 21.9 12 C 21.1 11.7 20.2 11.5 19.3 11.5 C 18.4 11.5 17.5 11.7 16.6 12 C 15.7 12.4 15 12.9 14.3 13.5 C 13.6 14.2 13.1 15 12.7 15.8 C 12.4 16.7 12.2 17.5 12.2 18.4 C 12.2 19.3 12.4 20.2 12.7 21 C 13.1 21.9 13.6 22.6 14.3 23.3 C 15 24 15.7 24.5 16.6 24.8 C 17.5 25.1 18.4 25.3 19.3 25.3 C 20.2 25.3 21.1 25.1 21.9 24.8 C 22.8 24.5 23.6 24 24.3 23.3 ZM 28.3 9.6 C 29.5 10.8 30.4 12.2 31.1 13.7 C 31.7 15.3 32 16.8 32 18.4 C 32 20 31.7 21.6 31.1 23.1 C 30.4 24.6 29.5 26 28.3 27.2 C 27.3 28.2 26.2 29 24.9 29.6 C 23.7 30.1 22.4 30.5 21.1 30.7 C 19.8 30.9 18.5 30.9 17.2 30.7 C 15.9 30.5 14.6 30.1 13.4 29.5 L 7.7 35.1 C 7.3 35.4 7 35.6 6.6 35.8 C 6.2 35.9 5.8 36 5.3 36 C 4.9 36 4.5 35.9 4.1 35.8 C 3.7 35.6 3.3 35.4 3 35.1 C 2.6 34.7 2.4 34.4 2.2 34 C 2.1 33.6 2 33.2 2 32.8 C 2 32.3 2.1 31.9 2.2 31.5 C 2.4 31.1 2.6 30.8 3 30.5 L 8.5 25.1 C 7.7 23.9 7.2 22.6 6.9 21.2 C 6.6 19.8 6.5 18.5 6.6 17.1 C 6.8 15.7 7.1 14.4 7.8 13.1 C 8.4 11.8 9.2 10.7 10.3 9.6 C 11.5 8.4 12.9 7.5 14.5 6.9 C 16.1 6.3 17.6 6 19.3 6 C 20.9 6 22.5 6.3 24 6.9 C 25.6 7.5 27 8.4 28.3 9.6 Z" fill="#ffffff"/>
	</g>
</svg>