<?xml version="1.0" standalone="no"?>

<svg viewBox="0 0 44 44" style="background-color:#ffffff00" version="1.1" xmlns="http://www.w3.org/2000/svg" xmlns:xlink="http://www.w3.org/1999/xlink" xml:space="preserve" x="0px" y="0px" width="100%" height="100%">
	<defs>
		<linearGradient id="gradient1" x1="47.1%" y1="100.7%" x2="52.9%" y2="-0.1%">
			<stop stop-color="#ececed" stop-opacity="1" offset="1%"/>
			<stop stop-color="#f4f4f4" stop-opacity="1" offset="99%"/>
		</linearGradient>
		<linearGradient id="gradient2" x1="53.9%" y1="101.2%" x2="47.2%" y2="1.2%">
			<stop stop-color="#ececed" stop-opacity="1" offset="1%"/>
			<stop stop-color="#f4f4f4" stop-opacity="1" offset="99%"/>
		</linearGradient>
		<linearGradient id="gradient3" x1="52.5%" y1="656.1%" x2="47%" y2="-667.5%">
			<stop stop-color="#fab90c" stop-opacity="1" offset="1%"/>
			<stop stop-color="#ffe06a" stop-opacity="1" offset="99%"/>
		</linearGradient>
		<linearGradient id="gradient4" x1="52.1%" y1="553.4%" x2="46.6%" y2="-770.2%">
			<stop stop-color="#fab90c" stop-opacity="1" offset="1%"/>
			<stop stop-color="#ffe06a" stop-opacity="1" offset="99%"/>
		</linearGradient>
		<linearGradient id="gradient5" x1="51.7%" y1="450.8%" x2="46.1%" y2="-872.9%">
			<stop stop-color="#fab90c" stop-opacity="1" offset="1%"/>
			<stop stop-color="#ffe06a" stop-opacity="1" offset="99%"/>
		</linearGradient>
		<linearGradient id="gradient6" x1="51.3%" y1="348.1%" x2="45.7%" y2="-975.6%">
			<stop stop-color="#fab90c" stop-opacity="1" offset="1%"/>
			<stop stop-color="#ffe06a" stop-opacity="1" offset="99%"/>
		</linearGradient>
		<linearGradient id="gradient7" x1="50.8%" y1="245.4%" x2="45.3%" y2="-1078.2%">
			<stop stop-color="#fab90c" stop-opacity="1" offset="1%"/>
			<stop stop-color="#ffe06a" stop-opacity="1" offset="99%"/>
		</linearGradient>
		<linearGradient id="gradient8" x1="53.1%" y1="65.9%" x2="41%" y2="36.1%">
			<stop stop-color="#515151" stop-opacity="1" offset="1%"/>
			<stop stop-color="#ffffff" stop-opacity="1" offset="99%"/>
		</linearGradient>
	</defs>
	<g id="Layer%201">
		<g>
			<g>
				<path d="M 6.8 21.8 C 7.2 14.3 7.6 6.8 7.8 2.2 C 18.9 2.8 29.9 3.4 41 4 C 40.8 7.4 40.4 16.7 40.1 23.5 C 39.7 30.3 39.2 39.6 39.1 43 C 28 42.4 16.9 41.9 5.9 41.3 C 6.1 36.7 6.5 29.2 6.8 21.8 Z" fill="#f4f5f6"/>
				<path d="M 7.4 21.8 C 7.7 14.5 8.1 7.2 8.3 2.8 C 19 3.4 29.7 3.9 40.4 4.5 C 40.3 7.7 39.8 16.8 39.5 23.5 C 39.2 30.1 38.7 39.2 38.6 42.4 C 27.9 41.9 17.1 41.3 6.4 40.8 C 6.6 36.4 7 29.1 7.4 21.8 ZM 39.1 23.4 C 39.4 17 39.8 8 40 4.9 C 29.6 4.4 19.1 3.8 8.7 3.3 C 8.5 7.5 8.2 14.7 7.8 21.8 C 7.5 29 7.1 36.1 6.9 40.3 C 17.3 40.9 27.7 41.4 38.2 41.9 C 38.3 38.9 38.7 29.9 39.1 23.4 Z" fill="#d5ccbb"/>
				<path d="M 6.7 40.6 C 17.2 41.1 27.8 41.6 38.4 42.2 C 38.5 39.1 40.1 7.8 40.2 4.7 C 29.6 4.2 19.1 3.6 8.5 3 C 8.3 7.3 6.9 36.3 6.7 40.6 Z" fill="url(#gradient1)"/>
			</g>
			<g>
				<g>
					<path d="M 34.9 36 C 31.1 39.9 26.2 41.5 21 41.8 C 15.6 42.1 10.2 42.3 4.8 42.6 C 4.4 33.5 3.4 12.7 3 3.6 C 14.1 3.1 25.2 2.5 36.3 2 C 36.5 6.8 37.3 23.2 37.6 27.9 C 37.6 29.1 37.8 31 37.7 32.8 C 37.5 34.5 36.6 35.9 34.9 36 Z" fill="#f4f5f6"/>
					<path d="M 34.9 36.3 C 31.1 39.7 26.4 40.9 21.5 41.3 C 16.1 41.6 10.7 41.7 5.3 42 C 4.9 33.3 4 12.8 3.6 4.1 C 14.3 3.6 25 3.1 35.8 2.6 C 36 7.1 36.8 23.4 37 28 C 37.2 30.2 37.9 35.6 34.9 36.3 ZM 5.7 41.5 C 10.8 41.3 15.9 41.1 21 40.9 C 26 40.7 30.8 39.6 34.8 36.5 C 37.6 35.3 36.7 29.8 36.6 27.4 C 36.3 23.2 35.6 7.3 35.4 3.1 C 24.9 3.6 14.5 4.1 4 4.6 C 4.4 13 5.4 33.1 5.7 41.5 Z" fill="#d5ccbb"/>
					<path d="M 5.5 41.7 C 5.1 33.2 4.2 12.9 3.8 4.4 C 14.4 3.8 25 3.3 35.6 2.8 C 35.8 7.1 36.5 23.1 36.8 27.4 C 36.9 29.7 37.9 35.4 34.9 36.4 C 30.8 39.7 26 40.8 21 41.1 C 15.8 41.3 10.7 41.5 5.5 41.7 Z" fill="url(#gradient2)"/>
				</g>
				<g>
					<g>
						<path d="M 22.2 18.8 L 20.7 24.1 L 17.8 19.1 C 18.2 19 18.6 18.9 18.9 18.9 C 19.3 18.9 19.6 18.8 20 18.8 C 20.4 18.8 20.7 18.8 21.1 18.8 C 21.5 18.8 21.8 18.8 22.2 18.8 Z" fill="#f5535b"/>
						<path d="M 22.2 18.8 L 22.2 20.6 L 20.7 25.9 L 20.7 24.1 L 22.2 18.8 Z" fill="#6c1c1f"/>
						<path d="M 20.7 24.1 L 20.7 25.9 L 17.9 20.9 L 17.8 19.1 L 20.7 24.1 Z" fill="#6c1c1f"/>
						<path d="M 20.2 24.3 L 20.3 26.2 L 12.6 22.9 L 12.5 21.1 L 20.2 24.3 Z" fill="#716f23"/>
						<path d="M 19.1 24.3 L 19.2 26.2 L 10.8 24.6 L 10.6 22.7 L 19.1 24.3 Z" fill="#284d27"/>
						<path d="M 12.1 21.3 L 19.1 24.3 L 10.6 22.7 C 10.7 22.6 10.8 22.4 10.9 22.3 C 11 22.2 11.2 22.1 11.3 22 C 11.4 21.9 11.5 21.7 11.7 21.6 C 11.8 21.5 12 21.4 12.1 21.3 Z" fill="#79dd75"/>
						<path d="M 24.6 19.1 C 24.9 19.1 25.3 19.2 25.6 19.3 C 25.9 19.4 26.2 19.5 26.5 19.6 C 26.8 19.7 27.1 19.8 27.4 19.9 C 27.6 20 27.9 20.1 28.2 20.2 L 21.2 24.3 L 22.8 18.8 C 22.9 18.8 23 18.9 23.1 18.9 C 23.2 18.9 23.3 18.9 23.4 18.9 C 23.6 18.9 23.7 18.9 23.8 19 C 23.9 19 24 19 24.1 19 C 24.2 19 24.2 19 24.3 19 C 24.3 19 24.3 19 24.4 19 C 24.4 19 24.4 19.1 24.5 19.1 C 24.5 19.1 24.6 19.1 24.6 19.1 Z" fill="#61aee6"/>
						<path d="M 28.2 20.2 L 28.1 22.1 L 21.3 26.2 L 21.2 24.3 L 28.2 20.2 Z" fill="#223854"/>
						<path d="M 17.3 19.2 L 20.2 24.3 L 12.5 21.1 C 12.8 20.8 13.2 20.6 13.5 20.4 C 13.9 20.2 14.3 20.1 14.7 19.9 C 15.1 19.8 15.5 19.6 16 19.5 C 16.4 19.4 16.9 19.2 17.3 19.2 Z" fill="#f8f766"/>
						<path d="M 31.6 23.3 L 31.6 25.2 L 21.7 26.4 L 21.7 24.5 L 31.6 23.3 Z" fill="#7b5127"/>
						<path d="M 28.6 20.4 C 28.9 20.6 29.3 20.8 29.6 21 C 29.9 21.3 30.2 21.5 30.4 21.7 C 30.7 22 30.9 22.2 31.1 22.5 C 31.3 22.7 31.5 23 31.6 23.3 L 21.7 24.5 L 28.6 20.4 Z" fill="#fbe274"/>
						<path d="M 31.8 23.6 C 31.9 23.9 31.9 24.1 32 24.4 C 32 24.6 32.1 24.9 32.1 25.1 C 32 25.4 32 25.6 32 25.9 C 31.9 26.2 31.8 26.4 31.7 26.7 C 31.6 26.9 31.5 27.1 31.4 27.3 C 31.3 27.5 31.1 27.7 31 27.8 C 30.8 28 30.7 28.2 30.5 28.4 C 30.3 28.6 30.1 28.7 30 28.9 L 21.5 24.9 L 31.8 23.6 Z" fill="#cfe964"/>
						<path d="M 30 28.9 L 29.9 30.8 L 21.5 26.8 L 21.5 24.9 L 30 28.9 Z" fill="#455922"/>
						<path d="M 32 25.2 L 32 27.1 C 32 27.2 32 27.4 31.9 27.5 C 31.9 27.6 31.9 27.7 31.9 27.9 C 31.8 28 31.8 28.1 31.8 28.2 C 31.7 28.4 31.7 28.5 31.6 28.6 C 31.5 28.8 31.4 29 31.3 29.2 C 31.2 29.4 31.1 29.6 30.9 29.8 C 30.8 30 30.6 30.2 30.4 30.3 C 30.3 30.5 30.1 30.7 29.9 30.8 L 30 28.9 C 30.1 28.7 30.3 28.6 30.5 28.4 C 30.7 28.2 30.8 28 31 27.8 C 31.1 27.7 31.3 27.5 31.4 27.3 C 31.5 27.1 31.6 26.9 31.7 26.7 C 31.7 26.6 31.8 26.4 31.8 26.3 C 31.9 26.2 31.9 26.1 31.9 25.9 C 32 25.8 32 25.7 32 25.6 C 32 25.5 32 25.3 32 25.2 L 32 25.2 Z" fill="#9fda29"/>
						<path d="M 20.5 24.9 L 20.5 26.8 L 18.5 33.6 L 18.4 31.7 L 20.5 24.9 Z" fill="#582023"/>
						<path d="M 18.4 31.7 L 18.5 33.6 C 18.4 33.6 18.3 33.6 18.1 33.6 C 18 33.6 17.9 33.6 17.7 33.5 C 17.6 33.5 17.5 33.5 17.4 33.5 C 17.2 33.5 17.1 33.4 17 33.4 C 16.9 33.4 16.9 33.4 16.9 33.4 C 16.8 33.4 16.8 33.4 16.7 33.4 C 16.7 33.4 16.6 33.3 16.6 33.3 C 16.6 33.3 16.5 33.3 16.5 33.3 C 15.5 33.1 14.5 32.7 13.7 32.3 C 12.9 32 12.2 31.5 11.6 31 C 11 30.5 10.6 30 10.3 29.4 C 10 28.9 9.8 28.3 9.7 27.7 L 9.6 25.8 C 9.6 26.4 9.8 27 10.1 27.5 C 10.4 28.1 10.9 28.6 11.5 29.1 C 12 29.6 12.8 30 13.6 30.4 C 14.4 30.8 15.3 31.1 16.4 31.3 C 16.4 31.3 16.5 31.4 16.5 31.4 C 16.5 31.4 16.6 31.4 16.6 31.4 C 16.7 31.4 16.7 31.4 16.8 31.4 C 16.8 31.4 16.9 31.4 16.9 31.4 C 17 31.5 17.2 31.5 17.3 31.5 C 17.4 31.5 17.5 31.6 17.7 31.6 C 17.8 31.6 17.9 31.6 18 31.6 C 18.2 31.6 18.3 31.7 18.4 31.7 L 18.4 31.7 Z" fill="#d7252b"/>
						<path d="M 20.5 24.9 L 18.4 31.7 C 18.3 31.7 18.2 31.6 18 31.6 C 17.9 31.6 17.8 31.6 17.7 31.6 C 17.5 31.6 17.4 31.5 17.3 31.5 C 17.2 31.5 17 31.5 16.9 31.4 C 16.9 31.4 16.8 31.4 16.8 31.4 C 16.7 31.4 16.7 31.4 16.6 31.4 C 16.6 31.4 16.5 31.4 16.5 31.4 C 16.5 31.4 16.4 31.3 16.4 31.3 C 14.9 31 13.7 30.5 12.6 29.9 C 11.6 29.3 10.8 28.6 10.3 27.8 C 9.8 27.1 9.5 26.3 9.5 25.4 C 9.6 24.6 9.8 23.8 10.4 23 L 20.5 24.9 Z" fill="#e85d65"/>
						<path d="M 29.6 29.2 L 29.5 31.1 C 28.9 31.6 28.2 32 27.5 32.4 C 26.7 32.7 25.8 33 24.9 33.2 C 24 33.4 23.1 33.6 22.1 33.7 C 21.1 33.8 20.1 33.8 19.1 33.7 L 19.1 31.7 C 20.1 31.8 21.1 31.8 22.1 31.7 C 23.1 31.6 24 31.5 24.9 31.2 C 25.8 31 26.7 30.7 27.5 30.4 C 28.3 30 29 29.6 29.6 29.2 L 29.6 29.2 Z" fill="#36bcf2"/>
						<path d="M 21 25.1 L 29.6 29.2 C 29 29.6 28.3 30 27.5 30.4 C 26.7 30.7 25.8 31 24.9 31.2 C 24 31.5 23.1 31.6 22.1 31.7 C 21.1 31.8 20.1 31.8 19.1 31.7 L 21 25.1 Z" fill="#4fd6f5"/>
					</g>
					<g>
						<path d="M 33.1 6.4 L 6.7 7.8 L 6.6 5.8 L 33 4.4 L 33.1 6.4 Z" fill="#e74d1a"/>
						<path d="M 10.2 9.7 L 6.8 9.8 L 6.7 8.1 L 10.2 8 L 10.2 9.7 Z" fill="url(#gradient3)"/>
						<path d="M 14.1 9.5 L 10.6 9.6 L 10.5 7.9 L 14 7.8 L 14.1 9.5 Z" fill="#d8d8d8"/>
						<path d="M 17.9 9.3 L 14.4 9.4 L 14.4 7.7 L 17.8 7.5 L 17.9 9.3 Z" fill="#d8d8d8"/>
						<path d="M 21.7 9.1 L 18.3 9.2 L 18.2 7.5 L 21.6 7.3 L 21.7 9.1 Z" fill="#d8d8d8"/>
						<path d="M 25.5 8.9 L 22.1 9 L 22 7.3 L 25.5 7.1 L 25.5 8.9 Z" fill="#d8d8d8"/>
						<path d="M 29.4 8.6 L 25.9 8.8 L 25.8 7.1 L 29.3 6.9 L 29.4 8.6 Z" fill="#d8d8d8"/>
						<path d="M 33.2 8.4 L 29.8 8.6 L 29.7 6.9 L 33.1 6.7 L 33.2 8.4 Z" fill="#d8d8d8"/>
						<path d="M 10.3 11.7 L 6.9 11.9 L 6.8 10.2 L 10.3 10 L 10.3 11.7 Z" fill="url(#gradient4)"/>
						<path d="M 14.2 11.5 L 10.7 11.7 L 10.6 10 L 14.1 9.8 L 14.2 11.5 Z" fill="#b5c3c5"/>
						<path d="M 18 11.3 L 14.5 11.5 L 14.5 9.8 L 17.9 9.6 L 18 11.3 Z" fill="#b5c3c5"/>
						<path d="M 21.8 11.1 L 18.4 11.3 L 18.3 9.6 L 21.7 9.4 L 21.8 11.1 Z" fill="#b5c3c5"/>
						<path d="M 25.6 10.9 L 22.2 11.1 L 22.1 9.4 L 25.6 9.2 L 25.6 10.9 Z" fill="#b5c3c5"/>
						<path d="M 29.5 10.7 L 26 10.9 L 25.9 9.2 L 29.4 9 L 29.5 10.7 Z" fill="#b5c3c5"/>
						<path d="M 33.3 10.5 L 29.9 10.7 L 29.8 9 L 33.2 8.8 L 33.3 10.5 Z" fill="#b5c3c5"/>
						<path d="M 10.4 13.8 L 7 13.9 L 6.9 12.2 L 10.4 12 L 10.4 13.8 Z" fill="url(#gradient5)"/>
						<path d="M 14.3 13.6 L 10.8 13.7 L 10.7 12 L 14.2 11.8 L 14.3 13.6 Z" fill="#d8d8d8"/>
						<path d="M 18.1 13.3 L 14.7 13.5 L 14.6 11.8 L 18 11.6 L 18.1 13.3 Z" fill="#d8d8d8"/>
						<path d="M 21.9 13.1 L 18.5 13.3 L 18.4 11.6 L 21.8 11.4 L 21.9 13.1 Z" fill="#d8d8d8"/>
						<path d="M 25.7 12.9 L 22.3 13.1 L 22.2 11.4 L 25.7 11.2 L 25.7 12.9 Z" fill="#d8d8d8"/>
						<path d="M 29.6 12.7 L 26.1 12.9 L 26 11.2 L 29.5 11 L 29.6 12.7 Z" fill="#d8d8d8"/>
						<path d="M 33.4 12.5 L 30 12.7 L 29.9 11 L 33.3 10.8 L 33.4 12.5 Z" fill="#d8d8d8"/>
						<path d="M 10.5 15.8 L 7.1 16 L 7 14.3 L 10.5 14.1 L 10.5 15.8 Z" fill="url(#gradient6)"/>
						<path d="M 14.4 15.6 L 10.9 15.8 L 10.8 14.1 L 14.3 13.9 L 14.4 15.6 Z" fill="#b5c3c5"/>
						<path d="M 18.2 15.4 L 14.8 15.6 L 14.7 13.9 L 18.1 13.7 L 18.2 15.4 Z" fill="#b5c3c5"/>
						<path d="M 22 15.2 L 18.6 15.4 L 18.5 13.7 L 21.9 13.5 L 22 15.2 Z" fill="#b5c3c5"/>
						<path d="M 25.8 15 L 22.4 15.2 L 22.3 13.5 L 25.8 13.3 L 25.8 15 Z" fill="#b5c3c5"/>
						<path d="M 29.7 14.8 L 26.2 15 L 26.1 13.3 L 29.6 13.1 L 29.7 14.8 Z" fill="#b5c3c5"/>
						<path d="M 33.5 14.6 L 30.1 14.8 L 30 13.1 L 33.4 12.9 L 33.5 14.6 Z" fill="#b5c3c5"/>
						<path d="M 10.6 17.8 L 7.2 18 L 7.1 16.3 L 10.6 16.1 L 10.6 17.8 Z" fill="url(#gradient7)"/>
						<path d="M 14.5 17.6 L 11 17.8 L 10.9 16.1 L 14.4 15.9 L 14.5 17.6 Z" fill="#d8d8d8"/>
						<path d="M 18.3 17.4 L 14.9 17.6 L 14.8 15.9 L 18.2 15.7 L 18.3 17.4 Z" fill="#d8d8d8"/>
						<path d="M 22.1 17.2 L 18.7 17.4 L 18.6 15.7 L 22 15.5 L 22.1 17.2 Z" fill="#d8d8d8"/>
						<path d="M 26 17 L 22.5 17.2 L 22.4 15.5 L 25.9 15.3 L 26 17 Z" fill="#d8d8d8"/>
						<path d="M 29.8 16.8 L 26.3 17 L 26.2 15.3 L 29.7 15.1 L 29.8 16.8 Z" fill="#d8d8d8"/>
						<path d="M 33.6 16.6 L 30.2 16.8 L 30.1 15.1 L 33.5 14.9 L 33.6 16.6 Z" fill="#d8d8d8"/>
					</g>
					<g>
						<g>
							<path d="M 10.5 36.9 L 9.3 36.9 L 9.2 35.7 L 10.4 35.6 L 10.5 36.9 Z" fill="#bd1521"/>
							<path d="M 14.6 36.7 L 11 36.8 L 11 36.2 L 14.5 36 L 14.6 36.7 Z" fill="#b5c3c5"/>
						</g>
						<g>
							<path d="M 16.8 36.5 L 15.5 36.6 L 15.5 35.3 L 16.7 35.2 L 16.8 36.5 Z" fill="#35a8e0"/>
							<path d="M 20.9 36.3 L 17.3 36.5 L 17.3 35.9 L 20.8 35.7 L 20.9 36.3 Z" fill="#b5c3c5"/>
						</g>
						<g>
							<path d="M 23.1 36.2 L 21.8 36.3 L 21.8 35 L 23 34.9 L 23.1 36.2 Z" fill="#94c01e"/>
							<path d="M 27.2 36 L 23.6 36.2 L 23.6 35.5 L 27.1 35.3 L 27.2 36 Z" fill="#b5c3c5"/>
						</g>
						<g>
							<path d="M 29.4 35.9 L 28.1 35.9 L 28.1 34.6 L 29.3 34.6 L 29.4 35.9 Z" fill="#f8b132"/>
							<path d="M 33.5 35.7 L 29.9 35.8 L 29.9 35.2 L 33.4 35 L 33.5 35.7 Z" fill="#b5c3c5"/>
						</g>
						<g>
							<path d="M 10.6 39 L 9.4 39.1 L 9.3 37.8 L 10.5 37.7 L 10.6 39 Z" fill="#1c70b7"/>
							<path d="M 14.7 38.8 L 11.1 39 L 11.1 38.3 L 14.7 38.2 L 14.7 38.8 Z" fill="#b5c3c5"/>
						</g>
						<g>
							<path d="M 16.9 38.7 L 15.6 38.7 L 15.6 37.5 L 16.8 37.4 L 16.9 38.7 Z" fill="#e20512"/>
							<path d="M 21 38.5 L 17.4 38.7 L 17.4 38 L 20.9 37.8 L 21 38.5 Z" fill="#b5c3c5"/>
						</g>
						<g>
							<path d="M 23.2 38.3 L 21.9 38.4 L 21.9 37.1 L 23.1 37.1 L 23.2 38.3 Z" fill="#fbe90f"/>
							<path d="M 27.3 38.1 L 23.7 38.3 L 23.7 37.7 L 27.2 37.5 L 27.3 38.1 Z" fill="#b5c3c5"/>
						</g>
						<g>
							<path d="M 29.5 38 L 28.2 38.1 L 28.2 36.8 L 29.4 36.7 L 29.5 38 Z" fill="#39a934"/>
							<path d="M 32.4 37.2 L 30 37.3 L 30 38 L 31.6 37.9 C 31.9 37.6 32.1 37.4 32.4 37.2 Z" fill="#b5c3c5"/>
						</g>
					</g>
				</g>
				<g>
					<path d="M 33.8 33.6 C 34.3 34.6 35.7 35.5 36.8 34.8 C 36 35.7 31.1 39.1 25.2 41.2 C 29.7 39.6 32.8 34.8 33.8 33.6 Z" fill="url(#gradient8)"/>
				</g>
				<path d="M 25.3 41.1 C 25.3 41.1 25.3 41.1 25.3 41.1 C 23.5 41.7 21.6 41.8 20.8 41.8 L 15.8 42.1 L 16.1 42.1 L 20.8 41.8 C 21.7 41.8 23.5 41.7 25.3 41.2 C 25.4 41.1 25.5 41.1 25.5 41.1 C 25.5 41.1 25.4 41.1 25.3 41.1 Z" fill="#dadbdb"/>
				<path d="M 36.3 2 C 36.3 2.4 37.4 26.6 37.6 29.5 C 37.8 33 37.7 33.8 36.8 34.7 C 36.3 35.3 34.8 35.2 33.8 33.6 C 33.8 33.6 33.8 33.6 33.8 33.6 C 33.8 33.6 33.8 33.6 33.8 33.6 C 34.8 35.2 36.4 35.4 36.9 34.7 C 37.7 33.8 37.8 32.9 37.7 29.5 C 37.5 26.5 36.3 2 36.3 2 L 36.3 2 Z" fill="#dadbdb"/>
			</g>
		</g>
	</g>
</svg>