<?xml version="1.0" standalone="no"?>

<svg viewBox="0 0 40 40" style="background-color:#ffffff00" version="1.1" xmlns="http://www.w3.org/2000/svg" xmlns:xlink="http://www.w3.org/1999/xlink" xml:space="preserve" x="0px" y="0px" width="100%" height="100%">
	<g id="Layer">
		<path id="Forma%201" d="M 20.1 9.1 L 13.4 15.4 L 17.7 15.4 L 17.7 22.1 L 22.6 22.1 L 22.6 15.4 L 26.9 15.4 L 20.1 9.1 ZM 32.3 24.1 L 28.1 21.3 L 25.6 21.3 L 30 24.7 L 25.4 24.7 C 25.3 24.7 25.1 24.7 25.1 24.8 L 24 27.7 L 16.2 27.7 L 15.2 24.8 C 15.1 24.7 15 24.7 14.9 24.7 L 10.3 24.7 L 14.7 21.3 L 12.1 21.3 L 8 24.1 C 7.4 24.4 7 25.3 7.2 25.9 L 7.9 29.9 C 8.1 30.6 8.8 31.1 9.5 31.1 L 30.7 31.1 C 31.5 31.1 32.2 30.6 32.4 29.9 L 33.1 25.9 C 33.3 25.3 32.9 24.4 32.3 24.1 Z" fill="#ffffff"/>
	</g>
</svg>