<?xml version="1.0" standalone="no"?>

<svg viewBox="0 0 17 17" style="background-color:#ffffff00" version="1.1" xmlns="http://www.w3.org/2000/svg" xmlns:xlink="http://www.w3.org/1999/xlink" xml:space="preserve" x="0px" y="0px" width="100%" height="100%">
	<g id="Layer">
		<path id="Forma%201" visibility="hidden" d="M 3 4.3 C 4.3 2.7 6.3 1.6 8.5 1.6 C 12.3 1.6 15.4 4.7 15.4 8.5 C 15.4 12.3 12.3 15.4 8.5 15.4 C 4.7 15.4 1.6 12.3 1.6 8.5 C 1.6 6.9 2.1 5.5 3 4.3 " fill="#000000"/>
		<g>
			<path d="M 3.5 7.8 C 3.1 8.2 3.1 8.8 3.5 9.2 L 7.8 13.5 C 8 13.7 8.2 13.8 8.5 13.8 C 8.8 13.8 9 13.7 9.2 13.5 C 9.7 13.1 9.7 12.4 9.2 12 L 6.8 9.6 L 12.7 9.6 C 13.3 9.6 13.8 9.1 13.8 8.5 C 13.8 7.9 13.3 7.4 12.7 7.4 L 6.8 7.4 L 9.2 5 C 9.7 4.6 9.7 3.9 9.2 3.5 C 8.8 3.1 8.2 3.1 7.8 3.5 L 3.5 7.8 ZM 15.3 3.5 C 16.4 4.9 17 6.6 17 8.5 C 17 13.2 13.2 17 8.5 17 C 3.8 17 0 13.2 0 8.5 C 0 3.8 3.8 0 8.5 0 C 11.3 0 13.8 1.4 15.3 3.5 Z" fill="#ffffff"/>
		</g>
	</g>
</svg>